G04 #@! TF.GenerationSoftware,KiCad,Pcbnew,(5.1.4)-1*
G04 #@! TF.CreationDate,2025-05-28T11:23:27-04:00*
G04 #@! TF.ProjectId,ThumbsUp_SwitchPlates,5468756d-6273-4557-905f-537769746368,rev?*
G04 #@! TF.SameCoordinates,Original*
G04 #@! TF.FileFunction,Paste,Top*
G04 #@! TF.FilePolarity,Positive*
%FSLAX46Y46*%
G04 Gerber Fmt 4.6, Leading zero omitted, Abs format (unit mm)*
G04 Created by KiCad (PCBNEW (5.1.4)-1) date 2025-05-28 11:23:27*
%MOMM*%
%LPD*%
G04 APERTURE LIST*
%ADD10C,0.050000*%
G04 APERTURE END LIST*
D10*
X220509281Y-116484076D02*
X172565000Y-116502400D01*
X151730000Y-64920000D02*
X172565000Y-116502400D01*
X247494531Y-87351172D02*
G75*
G02X248285000Y-87372400I369529J-967816D01*
G01*
X228075000Y-89805813D02*
G75*
G02X229414059Y-90412401I369060J-966587D01*
G01*
X160879900Y-55912953D02*
G75*
G02X159708288Y-55415633I-337146J834466D01*
G01*
X170151738Y-52166887D02*
X160879900Y-55912953D01*
X153814767Y-42697284D02*
X157894376Y-41049015D01*
X157000790Y-51116860D02*
X155502364Y-47408124D01*
X166053594Y-37752477D02*
X161973985Y-39400746D01*
X171519118Y-50212335D02*
X169870849Y-46132726D01*
X170649058Y-50995275D02*
G75*
G02X170151738Y-52166887I-834466J-337146D01*
G01*
X161863470Y-39661105D02*
G75*
G02X161973985Y-39400746I185437J74922D01*
G01*
X171298087Y-50733051D02*
X170649058Y-50995275D01*
X153593737Y-43218000D02*
G75*
G02X153814767Y-42697284I370873J149843D01*
G01*
X158154734Y-41159530D02*
X161863470Y-39661104D01*
X166053595Y-37752477D02*
G75*
G02X166574310Y-37973508I149842J-370873D01*
G01*
X153593737Y-43218000D02*
X155242006Y-47297609D01*
X156890274Y-51377218D02*
G75*
G02X157000790Y-51116860I185437J74921D01*
G01*
X169610491Y-46022210D02*
G75*
G02X169870849Y-46132726I74921J-185437D01*
G01*
X166574310Y-37973508D02*
X168222580Y-42053117D01*
X168112064Y-42313475D02*
X169610490Y-46022210D01*
X171519118Y-50212334D02*
G75*
G02X171298087Y-50733051I-370874J-149843D01*
G01*
X159059260Y-55677858D02*
X159708288Y-55415633D01*
X157894376Y-41049016D02*
G75*
G02X158154734Y-41159530I74922J-185436D01*
G01*
X168222580Y-42053117D02*
G75*
G02X168112064Y-42313475I-185437J-74921D01*
G01*
X159059260Y-55677857D02*
G75*
G02X158538544Y-55456827I-149843J370873D01*
G01*
X158538544Y-55456827D02*
X156890275Y-51377218D01*
X155502363Y-47408124D02*
G75*
G02X155242006Y-47297609I-74921J185436D01*
G01*
X178879900Y-49722953D02*
G75*
G02X177708288Y-49225633I-337146J834466D01*
G01*
X188151738Y-45976887D02*
X178879900Y-49722953D01*
X171814767Y-36507284D02*
X175894376Y-34859015D01*
X175000790Y-44926860D02*
X173502364Y-41218124D01*
X184053594Y-31562477D02*
X179973985Y-33210746D01*
X189519118Y-44022335D02*
X187870849Y-39942726D01*
X188649058Y-44805275D02*
G75*
G02X188151738Y-45976887I-834466J-337146D01*
G01*
X179863470Y-33471105D02*
G75*
G02X179973985Y-33210746I185437J74922D01*
G01*
X189298087Y-44543051D02*
X188649058Y-44805275D01*
X171593737Y-37028000D02*
G75*
G02X171814767Y-36507284I370873J149843D01*
G01*
X176154734Y-34969530D02*
X179863470Y-33471104D01*
X184053595Y-31562477D02*
G75*
G02X184574310Y-31783508I149842J-370873D01*
G01*
X171593737Y-37028000D02*
X173242006Y-41107609D01*
X174890274Y-45187218D02*
G75*
G02X175000790Y-44926860I185437J74921D01*
G01*
X187610491Y-39832210D02*
G75*
G02X187870849Y-39942726I74921J-185437D01*
G01*
X184574310Y-31783508D02*
X186222580Y-35863117D01*
X186112064Y-36123475D02*
X187610490Y-39832210D01*
X189519118Y-44022334D02*
G75*
G02X189298087Y-44543051I-370874J-149843D01*
G01*
X177059260Y-49487858D02*
X177708288Y-49225633D01*
X175894376Y-34859016D02*
G75*
G02X176154734Y-34969530I74922J-185436D01*
G01*
X186222580Y-35863117D02*
G75*
G02X186112064Y-36123475I-185437J-74921D01*
G01*
X177059260Y-49487857D02*
G75*
G02X176538544Y-49266827I-149843J370873D01*
G01*
X176538544Y-49266827D02*
X174890275Y-45187218D01*
X173502363Y-41218124D02*
G75*
G02X173242006Y-41107609I-74921J185436D01*
G01*
X192621660Y-103570283D02*
X188542051Y-105218552D01*
X205377167Y-84414710D02*
G75*
G02X205897883Y-84635740I149843J-370873D01*
G01*
X197478307Y-87821763D02*
X201187043Y-86323337D01*
X196324363Y-97779093D02*
X194825937Y-94070357D01*
X197217950Y-87711248D02*
G75*
G02X197478307Y-87821763I74921J-185436D01*
G01*
X188281693Y-105108037D02*
X184572957Y-106606463D01*
X196213848Y-98039450D02*
G75*
G02X196324363Y-97779093I185436J74921D01*
G01*
X176825937Y-100245356D02*
G75*
G02X176565579Y-100134842I-74922J185436D01*
G01*
X194825937Y-94070356D02*
G75*
G02X194565579Y-93959842I-74922J185436D01*
G01*
X187377167Y-90589710D02*
G75*
G02X187897883Y-90810740I149843J-370873D01*
G01*
X207435637Y-88975707D02*
X208934063Y-92684443D01*
X192917310Y-89880233D02*
G75*
G02X193138340Y-89359517I370873J149843D01*
G01*
X202572956Y-100431463D02*
G75*
G02X202462442Y-100691821I-185436J-74922D01*
G01*
X180382833Y-108515090D02*
X184462442Y-106866821D01*
X192842690Y-103049567D02*
G75*
G02X192621660Y-103570283I-370873J-149843D01*
G01*
X184572956Y-106606463D02*
G75*
G02X184462442Y-106866821I-185436J-74922D01*
G01*
X193138340Y-89359517D02*
X197217949Y-87711248D01*
X187897883Y-90810740D02*
X189546152Y-94890349D01*
X183187044Y-92498337D02*
G75*
G02X183297558Y-92237979I185436J74922D01*
G01*
X174917310Y-96055233D02*
G75*
G02X175138340Y-95534517I370873J149843D01*
G01*
X206281693Y-98933037D02*
X202572957Y-100431463D01*
X174917310Y-96055233D02*
X176565579Y-100134842D01*
X198382833Y-102340090D02*
G75*
G02X197862117Y-102119060I-149843J370873D01*
G01*
X198382833Y-102340090D02*
X202462442Y-100691821D01*
X189546152Y-94890350D02*
G75*
G02X189435637Y-95150707I-185436J-74921D01*
G01*
X208934063Y-92684444D02*
G75*
G02X209194421Y-92794958I74922J-185436D01*
G01*
X175138340Y-95534517D02*
X179217949Y-93886248D01*
X205897883Y-84635740D02*
X207546152Y-88715349D01*
X205377167Y-84414710D02*
X201297558Y-86062979D01*
X178324363Y-103954093D02*
X176825937Y-100245357D01*
X197862117Y-102119060D02*
X196213848Y-98039451D01*
X210621660Y-97395283D02*
X206542051Y-99043552D01*
X179478307Y-93996763D02*
X183187043Y-92498337D01*
X210842690Y-96874567D02*
G75*
G02X210621660Y-97395283I-370873J-149843D01*
G01*
X192842690Y-103049567D02*
X191194421Y-98969958D01*
X207546152Y-88715350D02*
G75*
G02X207435637Y-88975707I-185436J-74921D01*
G01*
X206542050Y-99043552D02*
G75*
G02X206281693Y-98933037I-74921J185436D01*
G01*
X201187044Y-86323337D02*
G75*
G02X201297558Y-86062979I185436J74922D01*
G01*
X210842690Y-96874567D02*
X209194421Y-92794958D01*
X192917310Y-89880233D02*
X194565579Y-93959842D01*
X178396660Y-68345283D02*
X174317051Y-69993552D01*
X187012044Y-51073337D02*
G75*
G02X187122558Y-50812979I185436J74922D01*
G01*
X196446660Y-62145283D02*
X192367051Y-63793552D01*
X173152167Y-55364710D02*
G75*
G02X173672883Y-55585740I149843J-370873D01*
G01*
X193260637Y-53725707D02*
X194759063Y-57434443D01*
X184207833Y-67090090D02*
G75*
G02X183687117Y-66869060I-149843J370873D01*
G01*
X163988848Y-68989450D02*
G75*
G02X164099363Y-68729093I185436J74921D01*
G01*
X162600937Y-65020356D02*
G75*
G02X162340579Y-64909842I-74922J185436D01*
G01*
X175321152Y-59665350D02*
G75*
G02X175210637Y-59925707I-185436J-74921D01*
G01*
X193371152Y-53465350D02*
G75*
G02X193260637Y-53725707I-185436J-74921D01*
G01*
X192106693Y-63683037D02*
X188397957Y-65181463D01*
X165637117Y-73069060D02*
X163988848Y-68989451D01*
X196667690Y-61624567D02*
G75*
G02X196446660Y-62145283I-370873J-149843D01*
G01*
X178742310Y-54630233D02*
G75*
G02X178963340Y-54109517I370873J149843D01*
G01*
X173672883Y-55585740D02*
X175321152Y-59665349D01*
X173152167Y-55364710D02*
X169072558Y-57012979D01*
X168962044Y-57273337D02*
G75*
G02X169072558Y-57012979I185436J74922D01*
G01*
X196667690Y-61624567D02*
X195019421Y-57544958D01*
X160692310Y-60830233D02*
X162340579Y-64909842D01*
X188397956Y-65181463D02*
G75*
G02X188287442Y-65441821I-185436J-74922D01*
G01*
X174056693Y-69883037D02*
X170347957Y-71381463D01*
X164099363Y-68729093D02*
X162600937Y-65020357D01*
X170347956Y-71381463D02*
G75*
G02X170237442Y-71641821I-185436J-74922D01*
G01*
X160913340Y-60309517D02*
X164992949Y-58661248D01*
X183303307Y-52571763D02*
X187012043Y-51073337D01*
X184207833Y-67090090D02*
X188287442Y-65441821D01*
X176709063Y-63634444D02*
G75*
G02X176969421Y-63744958I74922J-185436D01*
G01*
X178963340Y-54109517D02*
X183042949Y-52461248D01*
X175210637Y-59925707D02*
X176709063Y-63634443D01*
X183687117Y-66869060D02*
X182038848Y-62789451D01*
X183042950Y-52461248D02*
G75*
G02X183303307Y-52571763I74921J-185436D01*
G01*
X182038848Y-62789450D02*
G75*
G02X182149363Y-62529093I185436J74921D01*
G01*
X178617690Y-67824567D02*
G75*
G02X178396660Y-68345283I-370873J-149843D01*
G01*
X174317050Y-69993552D02*
G75*
G02X174056693Y-69883037I-74921J185436D01*
G01*
X194759063Y-57434444D02*
G75*
G02X195019421Y-57544958I74922J-185436D01*
G01*
X191722883Y-49385740D02*
X193371152Y-53465349D01*
X191202167Y-49164710D02*
X187122558Y-50812979D01*
X178742310Y-54630233D02*
X180390579Y-58709842D01*
X191202167Y-49164710D02*
G75*
G02X191722883Y-49385740I149843J-370873D01*
G01*
X192367050Y-63793552D02*
G75*
G02X192106693Y-63683037I-74921J185436D01*
G01*
X164992950Y-58661248D02*
G75*
G02X165253307Y-58771763I74921J-185436D01*
G01*
X166157833Y-73290090D02*
G75*
G02X165637117Y-73069060I-149843J370873D01*
G01*
X182149363Y-62529093D02*
X180650937Y-58820357D01*
X166157833Y-73290090D02*
X170237442Y-71641821D01*
X165253307Y-58771763D02*
X168962043Y-57273337D01*
X160692310Y-60830233D02*
G75*
G02X160913340Y-60309517I370873J149843D01*
G01*
X180650937Y-58820356D02*
G75*
G02X180390579Y-58709842I-74922J185436D01*
G01*
X180382833Y-108515090D02*
G75*
G02X179862117Y-108294060I-149843J370873D01*
G01*
X171113848Y-86614450D02*
G75*
G02X171224363Y-86354093I185436J74921D01*
G01*
X181181693Y-87508037D02*
X177472957Y-89006463D01*
X198277167Y-66814710D02*
X194197558Y-68462979D01*
X187377167Y-90589710D02*
X183297558Y-92237979D01*
X188542050Y-105218552D02*
G75*
G02X188281693Y-105108037I-74921J185436D01*
G01*
X195472956Y-82831463D02*
G75*
G02X195362442Y-83091821I-185436J-74922D01*
G01*
X190934063Y-98859444D02*
G75*
G02X191194421Y-98969958I74922J-185436D01*
G01*
X167817310Y-78455233D02*
G75*
G02X168038340Y-77934517I370873J149843D01*
G01*
X179862117Y-108294060D02*
X178213848Y-104214451D01*
X189435637Y-95150707D02*
X190934063Y-98859443D01*
X178213848Y-104214450D02*
G75*
G02X178324363Y-103954093I185436J74921D01*
G01*
X173282833Y-90915090D02*
G75*
G02X172762117Y-90694060I-149843J370873D01*
G01*
X180277167Y-72989710D02*
G75*
G02X180797883Y-73210740I149843J-370873D01*
G01*
X198797883Y-67035740D02*
X200446152Y-71115349D01*
X189224363Y-80179093D02*
X187725937Y-76470357D01*
X182446152Y-77290350D02*
G75*
G02X182335637Y-77550707I-185436J-74921D01*
G01*
X185817310Y-72280233D02*
X187465579Y-76359842D01*
X180797883Y-73210740D02*
X182446152Y-77290349D01*
X172117950Y-76286248D02*
G75*
G02X172378307Y-76396763I74921J-185436D01*
G01*
X191282833Y-84740090D02*
G75*
G02X190762117Y-84519060I-149843J370873D01*
G01*
X200335637Y-71375707D02*
X201834063Y-75084443D01*
X190117950Y-70111248D02*
G75*
G02X190378307Y-70221763I74921J-185436D01*
G01*
X173282833Y-90915090D02*
X177362442Y-89266821D01*
X172762117Y-90694060D02*
X171113848Y-86614451D01*
X185742690Y-85449567D02*
G75*
G02X185521660Y-85970283I-370873J-149843D01*
G01*
X198277167Y-66814710D02*
G75*
G02X198797883Y-67035740I149843J-370873D01*
G01*
X185742690Y-85449567D02*
X184094421Y-81369958D01*
X191282833Y-84740090D02*
X195362442Y-83091821D01*
X185817310Y-72280233D02*
G75*
G02X186038340Y-71759517I370873J149843D01*
G01*
X203521660Y-79795283D02*
X199442051Y-81443552D01*
X177472956Y-89006463D02*
G75*
G02X177362442Y-89266821I-185436J-74922D01*
G01*
X199442050Y-81443552D02*
G75*
G02X199181693Y-81333037I-74921J185436D01*
G01*
X187725937Y-76470356D02*
G75*
G02X187465579Y-76359842I-74922J185436D01*
G01*
X190378307Y-70221763D02*
X194087043Y-68723337D01*
X176087044Y-74898337D02*
G75*
G02X176197558Y-74637979I185436J74922D01*
G01*
X181442050Y-87618552D02*
G75*
G02X181181693Y-87508037I-74921J185436D01*
G01*
X183834063Y-81259444D02*
G75*
G02X184094421Y-81369958I74922J-185436D01*
G01*
X185521660Y-85970283D02*
X181442051Y-87618552D01*
X201834063Y-75084444D02*
G75*
G02X202094421Y-75194958I74922J-185436D01*
G01*
X194087044Y-68723337D02*
G75*
G02X194197558Y-68462979I185436J74922D01*
G01*
X199181693Y-81333037D02*
X195472957Y-82831463D01*
X171224363Y-86354093D02*
X169725937Y-82645357D01*
X169725937Y-82645356D02*
G75*
G02X169465579Y-82534842I-74922J185436D01*
G01*
X178617690Y-67824567D02*
X176969421Y-63744958D01*
X182335637Y-77550707D02*
X183834063Y-81259443D01*
X180277167Y-72989710D02*
X176197558Y-74637979D01*
X172378307Y-76396763D02*
X176087043Y-74898337D01*
X168038340Y-77934517D02*
X172117949Y-76286248D01*
X189113848Y-80439450D02*
G75*
G02X189224363Y-80179093I185436J74921D01*
G01*
X186038340Y-71759517D02*
X190117949Y-70111248D01*
X200446152Y-71115350D02*
G75*
G02X200335637Y-71375707I-185436J-74921D01*
G01*
X203742690Y-79274567D02*
G75*
G02X203521660Y-79795283I-370873J-149843D01*
G01*
X190762117Y-84519060D02*
X189113848Y-80439451D01*
X167817310Y-78455233D02*
X169465579Y-82534842D01*
X203742690Y-79274567D02*
X202094421Y-75194958D01*
X179217950Y-93886248D02*
G75*
G02X179478307Y-93996763I74921J-185436D01*
G01*
X202155400Y-111529600D02*
G75*
G03X202155400Y-111529600I-1600000J0D01*
G01*
X184355400Y-69929600D02*
G75*
G03X184355400Y-69929600I-1600000J0D01*
G01*
X213325299Y-95766682D02*
X226954902Y-90259965D01*
X151730000Y-40920000D02*
X151730000Y-64920000D01*
X258723320Y-99750360D02*
X258060227Y-101312509D01*
X258060227Y-101312509D02*
X220509281Y-116484076D01*
X255014715Y-90571240D02*
X255314400Y-91312987D01*
X213325299Y-95766682D02*
X211986048Y-95121387D01*
X255314400Y-91312987D02*
X258723320Y-99750360D01*
X151730000Y-40920000D02*
X154930000Y-39120000D01*
X181838551Y-28245169D02*
X154930000Y-39120000D01*
X229414059Y-90412401D02*
X233463854Y-93022852D01*
X248285000Y-87372400D02*
X255014715Y-90571240D01*
X185613744Y-29847643D02*
X211986048Y-95121387D01*
X233463854Y-93022852D02*
X245888117Y-88003123D01*
X181838551Y-28245169D02*
X185613744Y-29847643D01*
X237200937Y-97445356D02*
G75*
G02X236940579Y-97334842I-74922J185436D01*
G01*
X247752167Y-87789710D02*
X243672558Y-89437979D01*
X221257833Y-108190090D02*
X225337442Y-106541821D01*
X239853307Y-91196763D02*
X243562043Y-89698337D01*
X235292310Y-93255233D02*
X236940579Y-97334842D01*
X215792310Y-95730233D02*
G75*
G02X216013340Y-95209517I370873J149843D01*
G01*
X233717690Y-102724567D02*
G75*
G02X233496660Y-103245283I-370873J-149843D01*
G01*
X216013340Y-95209517D02*
X220092949Y-93561248D01*
X247752167Y-87789710D02*
G75*
G02X248272883Y-88010740I149843J-370873D01*
G01*
X248656693Y-102308037D02*
X244947957Y-103806463D01*
X248917050Y-102418552D02*
G75*
G02X248656693Y-102308037I-74921J185436D01*
G01*
X244947956Y-103806463D02*
G75*
G02X244837442Y-104066821I-185436J-74922D01*
G01*
X233717690Y-102724567D02*
X232069421Y-98644958D01*
X235513340Y-92734517D02*
X239592949Y-91086248D01*
X228772883Y-90485740D02*
X230421152Y-94565349D01*
X243562044Y-89698337D02*
G75*
G02X243672558Y-89437979I185436J74922D01*
G01*
X217700937Y-99920356D02*
G75*
G02X217440579Y-99809842I-74922J185436D01*
G01*
X220737117Y-107969060D02*
X219088848Y-103889451D01*
X220353307Y-93671763D02*
X224062043Y-92173337D01*
X233496660Y-103245283D02*
X229417051Y-104893552D01*
X235292310Y-93255233D02*
G75*
G02X235513340Y-92734517I370873J149843D01*
G01*
X220092950Y-93561248D02*
G75*
G02X220353307Y-93671763I74921J-185436D01*
G01*
X251309063Y-96059444D02*
G75*
G02X251569421Y-96169958I74922J-185436D01*
G01*
X249810637Y-92350707D02*
X251309063Y-96059443D01*
X221257833Y-108190090D02*
G75*
G02X220737117Y-107969060I-149843J370873D01*
G01*
X252996660Y-100770283D02*
X248917051Y-102418552D01*
X249921152Y-92090350D02*
G75*
G02X249810637Y-92350707I-185436J-74921D01*
G01*
X229417050Y-104893552D02*
G75*
G02X229156693Y-104783037I-74921J185436D01*
G01*
X248272883Y-88010740D02*
X249921152Y-92090349D01*
X253217690Y-100249567D02*
X251569421Y-96169958D01*
X253217690Y-100249567D02*
G75*
G02X252996660Y-100770283I-370873J-149843D01*
G01*
X238699363Y-101154093D02*
X237200937Y-97445357D01*
X228252167Y-90264710D02*
X224172558Y-91912979D01*
X238588848Y-101414450D02*
G75*
G02X238699363Y-101154093I185436J74921D01*
G01*
X240757833Y-105715090D02*
X244837442Y-104066821D01*
X231809063Y-98534444D02*
G75*
G02X232069421Y-98644958I74922J-185436D01*
G01*
X215792310Y-95730233D02*
X217440579Y-99809842D01*
X229156693Y-104783037D02*
X225447957Y-106281463D01*
X230310637Y-94825707D02*
X231809063Y-98534443D01*
X219199363Y-103629093D02*
X217700937Y-99920357D01*
X225447956Y-106281463D02*
G75*
G02X225337442Y-106541821I-185436J-74922D01*
G01*
X230421152Y-94565350D02*
G75*
G02X230310637Y-94825707I-185436J-74921D01*
G01*
X219088848Y-103889450D02*
G75*
G02X219199363Y-103629093I185436J74921D01*
G01*
X224062044Y-92173337D02*
G75*
G02X224172558Y-91912979I185436J74922D01*
G01*
X239592950Y-91086248D02*
G75*
G02X239853307Y-91196763I74921J-185436D01*
G01*
X240237117Y-105494060D02*
X238588848Y-101414451D01*
X228252167Y-90264710D02*
G75*
G02X228772883Y-90485740I149843J-370873D01*
G01*
X240757833Y-105715090D02*
G75*
G02X240237117Y-105494060I-149843J370873D01*
G01*
X226954902Y-90259965D02*
X228075000Y-89805812D01*
X245888117Y-88003123D02*
X247495000Y-87352400D01*
M02*
