%FSLAX45Y45*%
G04 Gerber Fmt 4.5, Leading zero omitted, Abs format (unit mm)*
G04 Created by KiCad (PCBNEW (5.1.4)-1) date 2025-05-28 19:00:19*
%MOMM*%
%LPD*%
G04 APERTURE LIST*
%ADD10C,0.050000*%
%ADD11C,0.200000*%
%ADD12C,0.300000*%
G04 APERTURE END LIST*
D10*
X20537717Y-8441471D02*
G75*
G02X20589788Y-8463574I14984J-37087D01*
G01*
X19838283Y-10234009D02*
G75*
G02X19786212Y-10211906I-14984J37087D01*
G01*
X20537717Y-8441471D02*
X20129756Y-8606298D01*
X19482594Y-9407036D02*
G75*
G02X19456558Y-9395984I-7492J18544D01*
G01*
X21062166Y-9739528D02*
X20654205Y-9904355D01*
X19291731Y-8988023D02*
G75*
G02X19313834Y-8935952I37087J14984D01*
G01*
X19262166Y-10357028D02*
X18854205Y-10521855D01*
X19838283Y-10234009D02*
X20246244Y-10069182D01*
X19721795Y-8771125D02*
G75*
G02X19747831Y-8782176I7492J-18544D01*
G01*
X21084269Y-9687457D02*
G75*
G02X21062166Y-9739528I-37087J-14984D01*
G01*
X20754615Y-8871535D02*
G75*
G02X20743564Y-8897571I-18544J-7492D01*
G01*
X17491731Y-9605523D02*
X17656558Y-10013484D01*
X17513834Y-9553452D02*
X17921795Y-9388625D01*
X20743564Y-8897571D02*
X20893406Y-9268444D01*
X17682594Y-10024536D02*
G75*
G02X17656558Y-10013484I-7492J18544D01*
G01*
X18457296Y-10660646D02*
G75*
G02X18446244Y-10686682I-18544J-7492D01*
G01*
X19313834Y-8935952D02*
X19721795Y-8771125D01*
X17491731Y-9605523D02*
G75*
G02X17513834Y-9553452I37087J14984D01*
G01*
X20628169Y-9893304D02*
X20257296Y-10043146D01*
X18318704Y-9249834D02*
G75*
G02X18329756Y-9223798I18544J7492D01*
G01*
X20893406Y-9268444D02*
G75*
G02X20919442Y-9279496I7492J-18544D01*
G01*
X17832436Y-10395409D02*
X17682594Y-10024536D01*
X20589788Y-8463574D02*
X20754615Y-8871535D01*
X19747831Y-8782176D02*
X20118704Y-8632334D01*
X18954615Y-9489035D02*
G75*
G02X18943564Y-9515071I-18544J-7492D01*
G01*
X18737717Y-9058971D02*
G75*
G02X18789788Y-9081074I14984J-37087D01*
G01*
X19786212Y-10211906D02*
X19621385Y-9803945D01*
X17947831Y-9399676D02*
X18318704Y-9249834D01*
X19284269Y-10304957D02*
X19119442Y-9896996D01*
X18828169Y-10510804D02*
X18457296Y-10660646D01*
X19621385Y-9803945D02*
G75*
G02X19632436Y-9777909I18544J7492D01*
G01*
X19632436Y-9777909D02*
X19482594Y-9407036D01*
X20257296Y-10043146D02*
G75*
G02X20246244Y-10069182I-18544J-7492D01*
G01*
X18789788Y-9081074D02*
X18954615Y-9489035D01*
X18038283Y-10851509D02*
X18446244Y-10686682D01*
X19284269Y-10304957D02*
G75*
G02X19262166Y-10357028I-37087J-14984D01*
G01*
X22050928Y-11648408D02*
X17256500Y-11650240D01*
X15173000Y-6492000D02*
X17256500Y-11650240D01*
X24775217Y-8778971D02*
X24367256Y-8943798D01*
X21332530Y-9406668D02*
X22695490Y-8855997D01*
X15173000Y-4092000D02*
X15493000Y-3912000D01*
X18603834Y-7175952D02*
X19011795Y-7011125D01*
X23985331Y-9119676D02*
X24356204Y-8969834D01*
X23720094Y-9744536D02*
G75*
G02X23694058Y-9733484I-7492J18544D01*
G01*
X21579231Y-9573023D02*
G75*
G02X21601334Y-9520952I37087J14984D01*
G01*
X22941406Y-8871240D02*
X23346385Y-9132285D01*
X23371769Y-10272457D02*
G75*
G02X23349666Y-10324528I-37087J-14984D01*
G01*
X24775217Y-8778971D02*
G75*
G02X24827288Y-8801074I14984J-37087D01*
G01*
X24865669Y-10230804D02*
X24494796Y-10380646D01*
X18027717Y-7298971D02*
X17619756Y-7463798D01*
X25806023Y-10131251D02*
X22050928Y-11648408D01*
X21332530Y-9406668D02*
X21133500Y-9351240D01*
X19076212Y-8451906D02*
X18911385Y-8043945D01*
X18561374Y-2984764D02*
X21133500Y-9351240D01*
X22125783Y-10819009D02*
X22533744Y-10654182D01*
X16972594Y-8264536D02*
G75*
G02X16946558Y-8253484I-7492J18544D01*
G01*
X23371769Y-10272457D02*
X23206942Y-9864496D01*
X20044615Y-7111535D02*
G75*
G02X20033564Y-7137571I-18544J-7492D01*
G01*
X17122436Y-8635409D02*
X16972594Y-8264536D01*
X18435540Y-6992960D02*
G75*
G03X18435540Y-6992960I-160000J0D01*
G01*
X21601334Y-9520952D02*
X22009295Y-9356125D01*
X23551334Y-9273452D02*
X23959295Y-9108625D01*
X23529231Y-9325523D02*
X23694058Y-9733484D01*
X25531440Y-9131299D02*
X25872332Y-9975036D01*
X25872332Y-9975036D02*
X25806023Y-10131251D01*
X18183855Y-2824517D02*
X18561374Y-2984764D01*
X19918169Y-8133304D02*
X19547296Y-8283146D01*
X18911385Y-8043945D02*
G75*
G02X18922436Y-8017909I18544J7492D01*
G01*
X20374269Y-7927457D02*
G75*
G02X20352166Y-7979528I-37087J-14984D01*
G01*
X16781731Y-7845523D02*
X16946558Y-8253484D01*
X24891705Y-10241855D02*
G75*
G02X24865669Y-10230804I-7492J18544D01*
G01*
X20374269Y-7927457D02*
X20209442Y-7519496D01*
X18233564Y-7755071D02*
X18383406Y-8125944D01*
X17921795Y-9388625D02*
G75*
G02X17947831Y-9399676I7492J-18544D01*
G01*
X16803834Y-7793452D02*
X17211795Y-7628625D01*
X24494796Y-10380646D02*
G75*
G02X24483744Y-10406682I-18544J-7492D01*
G01*
X17861769Y-6782457D02*
X17696942Y-6374496D01*
X17237831Y-7639676D02*
X17608704Y-7489834D01*
X20215540Y-11152960D02*
G75*
G03X20215540Y-11152960I-160000J0D01*
G01*
X15173000Y-4092000D02*
X15173000Y-6492000D01*
X25501471Y-9057124D02*
X25531440Y-9131299D01*
X18183855Y-2824517D02*
X15493000Y-3912000D01*
X23346385Y-9132285D02*
X24588812Y-8630312D01*
X24828500Y-8567240D02*
X25501471Y-9057124D01*
X17181477Y-3650728D02*
X17589438Y-3485901D01*
X15550236Y-4740812D02*
G75*
G02X15524201Y-4729761I-7492J18544D01*
G01*
X17500079Y-4492686D02*
X17350236Y-4121812D01*
X18815174Y-4597689D02*
X17887990Y-4972295D01*
X18405359Y-3156248D02*
X17997399Y-3321075D01*
X18864906Y-4480528D02*
G75*
G02X18815174Y-4597689I-83447J-33715D01*
G01*
X17159374Y-3702800D02*
G75*
G02X17181477Y-3650728I37087J14984D01*
G01*
X18929809Y-4454305D02*
X18864906Y-4480528D01*
X17159374Y-3702800D02*
X17324201Y-4110761D01*
X17489027Y-4518722D02*
G75*
G02X17500079Y-4492686I18544J7492D01*
G01*
X17986347Y-3347110D02*
G75*
G02X17997399Y-3321075I18544J7492D01*
G01*
X18405360Y-3156248D02*
G75*
G02X18457431Y-3178351I14984J-37087D01*
G01*
X18761049Y-3983221D02*
G75*
G02X18787085Y-3994273I7492J-18544D01*
G01*
X18611206Y-3612347D02*
X18761049Y-3983221D01*
X18951912Y-4402233D02*
G75*
G02X18929809Y-4454305I-37087J-14984D01*
G01*
X18457431Y-3178351D02*
X18622258Y-3586312D01*
X17589438Y-3485902D02*
G75*
G02X17615473Y-3496953I7492J-18544D01*
G01*
X15853854Y-5545683D02*
X15689027Y-5137722D01*
X18951912Y-4402234D02*
X18787085Y-3994273D01*
X17615473Y-3496953D02*
X17986347Y-3347110D01*
X17705926Y-4948786D02*
X17770829Y-4922563D01*
X15905926Y-5567786D02*
G75*
G02X15853854Y-5545683I-14984J37087D01*
G01*
X17887990Y-4972295D02*
G75*
G02X17770829Y-4922563I-33715J83447D01*
G01*
X18839796Y-6518146D02*
G75*
G02X18828744Y-6544182I-18544J-7492D01*
G01*
X16615783Y-7329009D02*
G75*
G02X16563712Y-7306906I-14984J37087D01*
G01*
X17839666Y-6834528D02*
X17431705Y-6999355D01*
X19210669Y-6368304D02*
X18839796Y-6518146D01*
X16069231Y-6083023D02*
X16234058Y-6490984D01*
X17315217Y-5536471D02*
X16907256Y-5701298D01*
X20118704Y-8632334D02*
G75*
G02X20129756Y-8606298I18544J7492D01*
G01*
X17896334Y-5410952D02*
X18304295Y-5246125D01*
X19644666Y-6214528D02*
X19236705Y-6379355D01*
X17405669Y-6988304D02*
X17034796Y-7138146D01*
X19120217Y-4916471D02*
X18712256Y-5081298D01*
X19120217Y-4916471D02*
G75*
G02X19172288Y-4938574I14984J-37087D01*
G01*
X19291731Y-8988023D02*
X19456558Y-9395984D01*
X16091334Y-6030952D02*
X16499295Y-5866125D01*
X20654205Y-9904355D02*
G75*
G02X20628169Y-9893304I-7492J18544D01*
G01*
X16260094Y-6502036D02*
G75*
G02X16234058Y-6490984I-7492J18544D01*
G01*
X16409936Y-6872909D02*
X16260094Y-6502036D01*
X18304295Y-5246125D02*
G75*
G02X18330331Y-5257176I7492J-18544D01*
G01*
X18701204Y-5107334D02*
G75*
G02X18712256Y-5081298I18544J7492D01*
G01*
X17532115Y-5966535D02*
G75*
G02X17521064Y-5992571I-18544J-7492D01*
G01*
X19337115Y-5346535D02*
G75*
G02X19326064Y-5372571I-18544J-7492D01*
G01*
X17367288Y-5558574D02*
X17532115Y-5966535D01*
X17521064Y-5992571D02*
X17670906Y-6363444D01*
X18420783Y-6709009D02*
G75*
G02X18368712Y-6686906I-14984J37087D01*
G01*
X17874231Y-5463023D02*
G75*
G02X17896334Y-5410952I37087J14984D01*
G01*
X21084269Y-9687457D02*
X20919442Y-9279496D01*
X19326064Y-5372571D02*
X19475906Y-5743444D01*
X19172288Y-4938574D02*
X19337115Y-5346535D01*
X16499295Y-5866125D02*
G75*
G02X16525331Y-5877176I7492J-18544D01*
G01*
X17315217Y-5536471D02*
G75*
G02X17367288Y-5558574I14984J-37087D01*
G01*
X17670906Y-6363444D02*
G75*
G02X17696942Y-6374496I7492J-18544D01*
G01*
X18368712Y-6686906D02*
X18203885Y-6278945D01*
X18203885Y-6278945D02*
G75*
G02X18214936Y-6252909I18544J7492D01*
G01*
X19236705Y-6379355D02*
G75*
G02X19210669Y-6368304I-7492J18544D01*
G01*
X16398885Y-6898945D02*
G75*
G02X16409936Y-6872909I18544J7492D01*
G01*
X17034796Y-7138146D02*
G75*
G02X17023744Y-7164182I-18544J-7492D01*
G01*
X16896204Y-5727334D02*
G75*
G02X16907256Y-5701298I18544J7492D01*
G01*
X18420783Y-6709009D02*
X18828744Y-6544182D01*
X17861769Y-6782457D02*
G75*
G02X17839666Y-6834528I-37087J-14984D01*
G01*
X16563712Y-7306906D02*
X16398885Y-6898945D01*
X18330331Y-5257176D02*
X18701204Y-5107334D01*
X17431705Y-6999355D02*
G75*
G02X17405669Y-6988304I-7492J18544D01*
G01*
X19475906Y-5743444D02*
G75*
G02X19501942Y-5754496I7492J-18544D01*
G01*
X17874231Y-5463023D02*
X18039058Y-5870984D01*
X19666769Y-6162457D02*
G75*
G02X19644666Y-6214528I-37087J-14984D01*
G01*
X19666769Y-6162457D02*
X19501942Y-5754496D01*
X18244615Y-7729035D02*
G75*
G02X18233564Y-7755071I-18544J-7492D01*
G01*
X18144205Y-8761855D02*
G75*
G02X18118169Y-8750804I-7492J18544D01*
G01*
X18214936Y-6252909D02*
X18065094Y-5882036D01*
X18581731Y-7228023D02*
X18746558Y-7635984D01*
X17276212Y-9069406D02*
X17111385Y-8661445D01*
X18118169Y-8750804D02*
X17747296Y-8900646D01*
X19037831Y-7022176D02*
X19408704Y-6872334D01*
X16525331Y-5877176D02*
X16896204Y-5727334D01*
X18737717Y-9058971D02*
X18329756Y-9223798D01*
X20033564Y-7137571D02*
X20183406Y-7508444D01*
X19827717Y-6681471D02*
G75*
G02X19879788Y-6703574I14984J-37087D01*
G01*
X18065094Y-5882036D02*
G75*
G02X18039058Y-5870984I-7492J18544D01*
G01*
X17986212Y-10829406D02*
X17821385Y-10421445D01*
X18027717Y-7298971D02*
G75*
G02X18079788Y-7321074I14984J-37087D01*
G01*
X19879788Y-6703574D02*
X20044615Y-7111535D01*
X19128283Y-8474009D02*
G75*
G02X19076212Y-8451906I-14984J37087D01*
G01*
X17328283Y-9091509D02*
X17736244Y-8926682D01*
X17747296Y-8900646D02*
G75*
G02X17736244Y-8926682I-18544J-7492D01*
G01*
X19547296Y-8283146D02*
G75*
G02X19536244Y-8309182I-18544J-7492D01*
G01*
X18574269Y-8544957D02*
G75*
G02X18552166Y-8597028I-37087J-14984D01*
G01*
X17328283Y-9091509D02*
G75*
G02X17276212Y-9069406I-14984J37087D01*
G01*
X19944205Y-8144355D02*
G75*
G02X19918169Y-8133304I-7492J18544D01*
G01*
X18772594Y-7647036D02*
G75*
G02X18746558Y-7635984I-7492J18544D01*
G01*
X18383406Y-8125944D02*
G75*
G02X18409442Y-8136996I7492J-18544D01*
G01*
X18581731Y-7228023D02*
G75*
G02X18603834Y-7175952I37087J14984D01*
G01*
X17111385Y-8661445D02*
G75*
G02X17122436Y-8635409I18544J7492D01*
G01*
X18943564Y-9515071D02*
X19093406Y-9885944D01*
X18079788Y-7321074D02*
X18244615Y-7729035D01*
X19011795Y-7011125D02*
G75*
G02X19037831Y-7022176I7492J-18544D01*
G01*
X18922436Y-8017909D02*
X18772594Y-7647036D01*
X18574269Y-8544957D02*
X18409442Y-8136996D01*
X19128283Y-8474009D02*
X19536244Y-8309182D01*
X18552166Y-8597028D02*
X18144205Y-8761855D01*
X20183406Y-7508444D02*
G75*
G02X20209442Y-7519496I7492J-18544D01*
G01*
X19408704Y-6872334D02*
G75*
G02X19419756Y-6846298I18544J7492D01*
G01*
X20352166Y-7979528D02*
X19944205Y-8144355D01*
X16781731Y-7845523D02*
G75*
G02X16803834Y-7793452I37087J14984D01*
G01*
X17211795Y-7628625D02*
G75*
G02X17237831Y-7639676I7492J-18544D01*
G01*
X16615783Y-7329009D02*
X17023744Y-7164182D01*
X19827717Y-6681471D02*
X19419756Y-6846298D01*
X19093406Y-9885944D02*
G75*
G02X19119442Y-9896996I7492J-18544D01*
G01*
X17608704Y-7489834D02*
G75*
G02X17619756Y-7463798I18544J7492D01*
G01*
X18854205Y-10521855D02*
G75*
G02X18828169Y-10510804I-7492J18544D01*
G01*
X17821385Y-10421445D02*
G75*
G02X17832436Y-10395409I18544J7492D01*
G01*
X18038283Y-10851509D02*
G75*
G02X17986212Y-10829406I-14984J37087D01*
G01*
X16069231Y-6083023D02*
G75*
G02X16091334Y-6030952I37087J14984D01*
G01*
X22825217Y-9026471D02*
G75*
G02X22877288Y-9048574I14984J-37087D01*
G01*
X22695490Y-8855997D02*
X22807500Y-8810581D01*
X21908885Y-10388945D02*
G75*
G02X21919936Y-10362909I18544J7492D01*
G01*
X24023712Y-10549406D02*
X23858885Y-10141445D01*
X24075783Y-10571509D02*
G75*
G02X24023712Y-10549406I-14984J37087D01*
G01*
X24588812Y-8630312D02*
X24749500Y-8565240D01*
X23959295Y-9108625D02*
G75*
G02X23985331Y-9119676I7492J-18544D01*
G01*
X22406204Y-9217334D02*
G75*
G02X22417256Y-9191298I18544J7492D01*
G01*
X23180906Y-9853444D02*
G75*
G02X23206942Y-9864496I7492J-18544D01*
G01*
X21919936Y-10362909D02*
X21770094Y-9992036D01*
X21579231Y-9573023D02*
X21744058Y-9980984D01*
X23349666Y-10324528D02*
X22941705Y-10489355D01*
X24981064Y-9235071D02*
X25130906Y-9605944D01*
X25299666Y-10077028D02*
X24891705Y-10241855D01*
X21770094Y-9992036D02*
G75*
G02X21744058Y-9980984I-7492J18544D01*
G01*
X22073712Y-10796906D02*
X21908885Y-10388945D01*
X22941705Y-10489355D02*
G75*
G02X22915669Y-10478304I-7492J18544D01*
G01*
X23869936Y-10115409D02*
X23720094Y-9744536D01*
X23858885Y-10141445D02*
G75*
G02X23869936Y-10115409I18544J7492D01*
G01*
X22915669Y-10478304D02*
X22544796Y-10628146D01*
X23031064Y-9482571D02*
X23180906Y-9853444D01*
X25321769Y-10024957D02*
G75*
G02X25299666Y-10077028I-37087J-14984D01*
G01*
X25130906Y-9605944D02*
G75*
G02X25156942Y-9616996I7492J-18544D01*
G01*
X22544796Y-10628146D02*
G75*
G02X22533744Y-10654182I-18544J-7492D01*
G01*
X23042115Y-9456535D02*
G75*
G02X23031064Y-9482571I-18544J-7492D01*
G01*
X24075783Y-10571509D02*
X24483744Y-10406682D01*
X22035331Y-9367176D02*
X22406204Y-9217334D01*
X22877288Y-9048574D02*
X23042115Y-9456535D01*
X22009295Y-9356125D02*
G75*
G02X22035331Y-9367176I7492J-18544D01*
G01*
X22125783Y-10819009D02*
G75*
G02X22073712Y-10796906I-14984J37087D01*
G01*
X24992115Y-9209035D02*
G75*
G02X24981064Y-9235071I-18544J-7492D01*
G01*
X24827288Y-8801074D02*
X24992115Y-9209035D01*
X25321769Y-10024957D02*
X25156942Y-9616996D01*
X22825217Y-9026471D02*
X22417256Y-9191298D01*
X24356204Y-8969834D02*
G75*
G02X24367256Y-8943798I18544J7492D01*
G01*
X23529231Y-9325523D02*
G75*
G02X23551334Y-9273452I37087J14984D01*
G01*
X15381477Y-4269728D02*
X15789438Y-4104901D01*
X16605359Y-3775248D02*
G75*
G02X16657431Y-3797351I14984J-37087D01*
G01*
X15359374Y-4321800D02*
X15524201Y-4729761D01*
X16961049Y-4602221D02*
G75*
G02X16987085Y-4613273I7492J-18544D01*
G01*
X16657431Y-3797351D02*
X16822258Y-4205312D01*
X16605359Y-3775248D02*
X16197398Y-3940075D01*
X15359374Y-4321800D02*
G75*
G02X15381477Y-4269728I37087J14984D01*
G01*
X17151912Y-5021233D02*
G75*
G02X17129809Y-5073305I-37087J-14984D01*
G01*
X15689027Y-5137722D02*
G75*
G02X15700079Y-5111686I18544J7492D01*
G01*
X16811206Y-4231348D02*
X16961049Y-4602221D01*
X17015174Y-5216689D02*
X16087990Y-5591295D01*
X15905926Y-5567786D02*
X15970829Y-5541563D01*
X17064906Y-5099528D02*
G75*
G02X17015174Y-5216689I-83447J-33715D01*
G01*
X15789438Y-4104902D02*
G75*
G02X15815473Y-4115953I7492J-18544D01*
G01*
X16822258Y-4205312D02*
G75*
G02X16811206Y-4231348I-18544J-7492D01*
G01*
X17151912Y-5021234D02*
X16987085Y-4613273D01*
X24749453Y-8565117D02*
G75*
G02X24828500Y-8567240I36953J-96782D01*
G01*
X22807500Y-8810581D02*
G75*
G02X22941406Y-8871240I36906J-96659D01*
G01*
X16186347Y-3966110D02*
G75*
G02X16197398Y-3940075I18544J7492D01*
G01*
X15815473Y-4115953D02*
X16186347Y-3966110D01*
X16087990Y-5591295D02*
G75*
G02X15970829Y-5541563I-33715J83447D01*
G01*
X15700079Y-5111686D02*
X15550236Y-4740812D01*
X17129809Y-5073305D02*
X17064906Y-5099528D01*
X17705926Y-4948786D02*
G75*
G02X17653854Y-4926683I-14984J37087D01*
G01*
X17653854Y-4926683D02*
X17489028Y-4518722D01*
X18622258Y-3586312D02*
G75*
G02X18611206Y-3612347I-18544J-7492D01*
G01*
X17350236Y-4121812D02*
G75*
G02X17324201Y-4110761I-7492J18544D01*
G01*
D11*
X15793500Y-7087240D02*
X15833500Y-7127240D01*
X15833500Y-7087240D02*
X15793500Y-7127240D01*
X17296500Y-9977240D02*
X17336500Y-10017240D01*
X17336500Y-9977240D02*
X17296500Y-10017240D01*
D12*
X15456928Y-12118454D02*
X15456928Y-11818454D01*
X15528357Y-11818454D01*
X15571214Y-11832740D01*
X15599786Y-11861311D01*
X15614071Y-11889883D01*
X15628357Y-11947026D01*
X15628357Y-11989883D01*
X15614071Y-12047026D01*
X15599786Y-12075597D01*
X15571214Y-12104169D01*
X15528357Y-12118454D01*
X15456928Y-12118454D01*
X15756928Y-12118454D02*
X15756928Y-11918454D01*
X15756928Y-11975597D02*
X15771214Y-11947026D01*
X15785500Y-11932740D01*
X15814071Y-11918454D01*
X15842643Y-11918454D01*
X15942643Y-12118454D02*
X15942643Y-11918454D01*
X15942643Y-11818454D02*
X15928357Y-11832740D01*
X15942643Y-11847026D01*
X15956928Y-11832740D01*
X15942643Y-11818454D01*
X15942643Y-11847026D01*
X16128357Y-12118454D02*
X16099786Y-12104169D01*
X16085500Y-12075597D01*
X16085500Y-11818454D01*
X16285500Y-12118454D02*
X16256928Y-12104169D01*
X16242643Y-12075597D01*
X16242643Y-11818454D01*
X16628357Y-12118454D02*
X16628357Y-11818454D01*
X16728357Y-12032740D01*
X16828357Y-11818454D01*
X16828357Y-12118454D01*
X17099786Y-12118454D02*
X17099786Y-11961311D01*
X17085500Y-11932740D01*
X17056928Y-11918454D01*
X16999786Y-11918454D01*
X16971214Y-11932740D01*
X17099786Y-12104169D02*
X17071214Y-12118454D01*
X16999786Y-12118454D01*
X16971214Y-12104169D01*
X16956928Y-12075597D01*
X16956928Y-12047026D01*
X16971214Y-12018454D01*
X16999786Y-12004169D01*
X17071214Y-12004169D01*
X17099786Y-11989883D01*
X17242643Y-11918454D02*
X17242643Y-12218454D01*
X17242643Y-11932740D02*
X17271214Y-11918454D01*
X17328357Y-11918454D01*
X17356928Y-11932740D01*
X17371214Y-11947026D01*
X17385500Y-11975597D01*
X17385500Y-12061311D01*
X17371214Y-12089883D01*
X17356928Y-12104169D01*
X17328357Y-12118454D01*
X17271214Y-12118454D01*
X17242643Y-12104169D01*
X17514071Y-12089883D02*
X17528357Y-12104169D01*
X17514071Y-12118454D01*
X17499786Y-12104169D01*
X17514071Y-12089883D01*
X17514071Y-12118454D01*
X17514071Y-11932740D02*
X17528357Y-11947026D01*
X17514071Y-11961311D01*
X17499786Y-11947026D01*
X17514071Y-11932740D01*
X17514071Y-11961311D01*
X15130500Y-12592740D02*
X15170500Y-12632740D01*
X15170500Y-12592740D02*
X15130500Y-12632740D01*
X15514071Y-12448454D02*
X15542643Y-12448454D01*
X15571214Y-12462740D01*
X15585500Y-12477026D01*
X15599786Y-12505597D01*
X15614071Y-12562740D01*
X15614071Y-12634169D01*
X15599786Y-12691311D01*
X15585500Y-12719883D01*
X15571214Y-12734169D01*
X15542643Y-12748454D01*
X15514071Y-12748454D01*
X15485500Y-12734169D01*
X15471214Y-12719883D01*
X15456928Y-12691311D01*
X15442643Y-12634169D01*
X15442643Y-12562740D01*
X15456928Y-12505597D01*
X15471214Y-12477026D01*
X15485500Y-12462740D01*
X15514071Y-12448454D01*
X15742643Y-12719883D02*
X15756928Y-12734169D01*
X15742643Y-12748454D01*
X15728357Y-12734169D01*
X15742643Y-12719883D01*
X15742643Y-12748454D01*
X16014071Y-12548454D02*
X16014071Y-12748454D01*
X15942643Y-12434169D02*
X15871214Y-12648454D01*
X16056928Y-12648454D01*
X16228357Y-12448454D02*
X16256928Y-12448454D01*
X16285500Y-12462740D01*
X16299786Y-12477026D01*
X16314071Y-12505597D01*
X16328357Y-12562740D01*
X16328357Y-12634169D01*
X16314071Y-12691311D01*
X16299786Y-12719883D01*
X16285500Y-12734169D01*
X16256928Y-12748454D01*
X16228357Y-12748454D01*
X16199786Y-12734169D01*
X16185500Y-12719883D01*
X16171214Y-12691311D01*
X16156928Y-12634169D01*
X16156928Y-12562740D01*
X16171214Y-12505597D01*
X16185500Y-12477026D01*
X16199786Y-12462740D01*
X16228357Y-12448454D01*
X16456928Y-12748454D02*
X16456928Y-12548454D01*
X16456928Y-12577026D02*
X16471214Y-12562740D01*
X16499786Y-12548454D01*
X16542643Y-12548454D01*
X16571214Y-12562740D01*
X16585500Y-12591311D01*
X16585500Y-12748454D01*
X16585500Y-12591311D02*
X16599786Y-12562740D01*
X16628357Y-12548454D01*
X16671214Y-12548454D01*
X16699786Y-12562740D01*
X16714071Y-12591311D01*
X16714071Y-12748454D01*
X16856928Y-12748454D02*
X16856928Y-12548454D01*
X16856928Y-12577026D02*
X16871214Y-12562740D01*
X16899786Y-12548454D01*
X16942643Y-12548454D01*
X16971214Y-12562740D01*
X16985500Y-12591311D01*
X16985500Y-12748454D01*
X16985500Y-12591311D02*
X16999786Y-12562740D01*
X17028357Y-12548454D01*
X17071214Y-12548454D01*
X17099786Y-12562740D01*
X17114071Y-12591311D01*
X17114071Y-12748454D01*
X17699786Y-12434169D02*
X17442643Y-12819883D01*
X18085500Y-12448454D02*
X18114071Y-12448454D01*
X18142643Y-12462740D01*
X18156928Y-12477026D01*
X18171214Y-12505597D01*
X18185500Y-12562740D01*
X18185500Y-12634169D01*
X18171214Y-12691311D01*
X18156928Y-12719883D01*
X18142643Y-12734169D01*
X18114071Y-12748454D01*
X18085500Y-12748454D01*
X18056928Y-12734169D01*
X18042643Y-12719883D01*
X18028357Y-12691311D01*
X18014071Y-12634169D01*
X18014071Y-12562740D01*
X18028357Y-12505597D01*
X18042643Y-12477026D01*
X18056928Y-12462740D01*
X18085500Y-12448454D01*
X18314071Y-12719883D02*
X18328357Y-12734169D01*
X18314071Y-12748454D01*
X18299786Y-12734169D01*
X18314071Y-12719883D01*
X18314071Y-12748454D01*
X18514071Y-12448454D02*
X18542643Y-12448454D01*
X18571214Y-12462740D01*
X18585500Y-12477026D01*
X18599786Y-12505597D01*
X18614071Y-12562740D01*
X18614071Y-12634169D01*
X18599786Y-12691311D01*
X18585500Y-12719883D01*
X18571214Y-12734169D01*
X18542643Y-12748454D01*
X18514071Y-12748454D01*
X18485500Y-12734169D01*
X18471214Y-12719883D01*
X18456928Y-12691311D01*
X18442643Y-12634169D01*
X18442643Y-12562740D01*
X18456928Y-12505597D01*
X18471214Y-12477026D01*
X18485500Y-12462740D01*
X18514071Y-12448454D01*
X18899786Y-12748454D02*
X18728357Y-12748454D01*
X18814071Y-12748454D02*
X18814071Y-12448454D01*
X18785500Y-12491311D01*
X18756928Y-12519883D01*
X18728357Y-12534169D01*
X19156928Y-12448454D02*
X19099786Y-12448454D01*
X19071214Y-12462740D01*
X19056928Y-12477026D01*
X19028357Y-12519883D01*
X19014071Y-12577026D01*
X19014071Y-12691311D01*
X19028357Y-12719883D01*
X19042643Y-12734169D01*
X19071214Y-12748454D01*
X19128357Y-12748454D01*
X19156928Y-12734169D01*
X19171214Y-12719883D01*
X19185500Y-12691311D01*
X19185500Y-12619883D01*
X19171214Y-12591311D01*
X19156928Y-12577026D01*
X19128357Y-12562740D01*
X19071214Y-12562740D01*
X19042643Y-12577026D01*
X19028357Y-12591311D01*
X19014071Y-12619883D01*
X19299786Y-12448454D02*
X19299786Y-12505597D01*
X19414071Y-12448454D02*
X19414071Y-12505597D01*
X19856928Y-12862740D02*
X19842643Y-12848454D01*
X19814071Y-12805597D01*
X19799786Y-12777026D01*
X19785500Y-12734169D01*
X19771214Y-12662740D01*
X19771214Y-12605597D01*
X19785500Y-12534169D01*
X19799786Y-12491311D01*
X19814071Y-12462740D01*
X19842643Y-12419883D01*
X19856928Y-12405597D01*
X19956928Y-12477026D02*
X19971214Y-12462740D01*
X19999786Y-12448454D01*
X20071214Y-12448454D01*
X20099786Y-12462740D01*
X20114071Y-12477026D01*
X20128357Y-12505597D01*
X20128357Y-12534169D01*
X20114071Y-12577026D01*
X19942643Y-12748454D01*
X20128357Y-12748454D01*
X20485500Y-12748454D02*
X20485500Y-12448454D01*
X20614071Y-12748454D02*
X20614071Y-12591311D01*
X20599786Y-12562740D01*
X20571214Y-12548454D01*
X20528357Y-12548454D01*
X20499786Y-12562740D01*
X20485500Y-12577026D01*
X20799786Y-12748454D02*
X20771214Y-12734169D01*
X20756928Y-12719883D01*
X20742643Y-12691311D01*
X20742643Y-12605597D01*
X20756928Y-12577026D01*
X20771214Y-12562740D01*
X20799786Y-12548454D01*
X20842643Y-12548454D01*
X20871214Y-12562740D01*
X20885500Y-12577026D01*
X20899786Y-12605597D01*
X20899786Y-12691311D01*
X20885500Y-12719883D01*
X20871214Y-12734169D01*
X20842643Y-12748454D01*
X20799786Y-12748454D01*
X21071214Y-12748454D02*
X21042643Y-12734169D01*
X21028357Y-12705597D01*
X21028357Y-12448454D01*
X21299786Y-12734169D02*
X21271214Y-12748454D01*
X21214071Y-12748454D01*
X21185500Y-12734169D01*
X21171214Y-12705597D01*
X21171214Y-12591311D01*
X21185500Y-12562740D01*
X21214071Y-12548454D01*
X21271214Y-12548454D01*
X21299786Y-12562740D01*
X21314071Y-12591311D01*
X21314071Y-12619883D01*
X21171214Y-12648454D01*
X21428357Y-12734169D02*
X21456928Y-12748454D01*
X21514071Y-12748454D01*
X21542643Y-12734169D01*
X21556928Y-12705597D01*
X21556928Y-12691311D01*
X21542643Y-12662740D01*
X21514071Y-12648454D01*
X21471214Y-12648454D01*
X21442643Y-12634169D01*
X21428357Y-12605597D01*
X21428357Y-12591311D01*
X21442643Y-12562740D01*
X21471214Y-12548454D01*
X21514071Y-12548454D01*
X21542643Y-12562740D01*
X21656928Y-12862740D02*
X21671214Y-12848454D01*
X21699786Y-12805597D01*
X21714071Y-12777026D01*
X21728357Y-12734169D01*
X21742643Y-12662740D01*
X21742643Y-12605597D01*
X21728357Y-12534169D01*
X21714071Y-12491311D01*
X21699786Y-12462740D01*
X21671214Y-12419883D01*
X21656928Y-12405597D01*
M02*
