G04 #@! TF.GenerationSoftware,KiCad,Pcbnew,(5.1.4)-1*
G04 #@! TF.CreationDate,2025-05-28T19:00:15-04:00*
G04 #@! TF.ProjectId,ThumbsUp_SwitchPlates,5468756d-6273-4557-905f-537769746368,rev?*
G04 #@! TF.SameCoordinates,Original*
G04 #@! TF.FileFunction,Soldermask,Top*
G04 #@! TF.FilePolarity,Negative*
%FSLAX46Y46*%
G04 Gerber Fmt 4.6, Leading zero omitted, Abs format (unit mm)*
G04 Created by KiCad (PCBNEW (5.1.4)-1) date 2025-05-28 19:00:15*
%MOMM*%
%LPD*%
G04 APERTURE LIST*
%ADD10C,0.100000*%
G04 APERTURE END LIST*
D10*
G36*
X332135024Y91851581D02*
G01*
X332135024Y91851578D01*
X332974976Y-121066261D01*
X332975000Y-121072400D01*
X332966157Y-121071661D01*
X332966156Y-121071661D01*
X332219197Y-121009235D01*
X329509288Y-120782758D01*
X329500679Y-120782339D01*
X220295000Y-119232400D01*
X220300135Y-119230248D01*
X220300138Y-119230247D01*
X259499435Y-102806629D01*
X259520999Y-102794990D01*
X259539878Y-102779368D01*
X259555346Y-102760363D01*
X259566809Y-102738706D01*
X259573827Y-102715228D01*
X259576130Y-102690833D01*
X259573629Y-102666456D01*
X259570220Y-102653356D01*
X254625889Y-87151789D01*
X253275989Y-82919556D01*
X253266291Y-82897054D01*
X253252388Y-82876875D01*
X253234816Y-82859797D01*
X253214250Y-82846474D01*
X253191480Y-82837420D01*
X253167381Y-82832982D01*
X253143600Y-82833252D01*
X212791113Y-87151746D01*
X212791111Y-87151746D01*
X212785000Y-87152400D01*
X185383797Y-25422332D01*
X185371708Y-25401018D01*
X185355693Y-25382471D01*
X185336368Y-25367406D01*
X185314474Y-25356400D01*
X185290854Y-25349876D01*
X185266416Y-25348086D01*
X185242098Y-25351098D01*
X185223273Y-25356928D01*
X185196982Y-25367406D01*
X146983581Y-40597097D01*
X146961817Y-40608357D01*
X146942668Y-40623646D01*
X146926869Y-40642377D01*
X146915029Y-40663830D01*
X146907601Y-40687181D01*
X146904871Y-40711533D01*
X146905641Y-40727162D01*
X150073171Y-68936111D01*
X150080965Y-68967663D01*
X169725000Y-119232400D01*
X68232820Y-120596580D01*
X-45278867Y-122122318D01*
X-45278871Y-122122318D01*
X-45285000Y-122122400D01*
X-45274103Y-120782338D01*
X-43545050Y91851464D01*
X-43545050Y91851465D01*
X-43545000Y91857600D01*
X332135000Y91857600D01*
X332135024Y91851581D01*
X332135024Y91851581D01*
G37*
M02*
