%FSLAX45Y45*%
G04 Gerber Fmt 4.5, Leading zero omitted, Abs format (unit mm)*
G04 Created by KiCad (PCBNEW (5.1.4)-1) date 2025-05-27 18:50:40*
%MOMM*%
%LPD*%
G04 APERTURE LIST*
%ADD10C,0.050000*%
%ADD11C,0.200000*%
%ADD12C,0.300000*%
G04 APERTURE END LIST*
D10*
X9170800Y7576820D02*
G75*
G03X9170800Y7576820I-160000J0D01*
G01*
X17634596Y7257750D02*
G75*
G02X10985920Y7259760I-3324096J802010D01*
G01*
X19769920Y7576820D02*
G75*
G03X19769920Y7576820I-160000J0D01*
G01*
X7568493Y6888825D02*
X7249039Y7129551D01*
X7572429Y6860816D02*
G75*
G02X7568493Y6888825I12036J15973D01*
G01*
X7712171Y8508503D02*
X8063571Y8243704D01*
X8481435Y7302753D02*
X8240709Y6983299D01*
X7923829Y6596017D02*
X7572429Y6860816D01*
X7154565Y7801767D02*
X7395291Y8121221D01*
X8509444Y7306689D02*
G75*
G02X8481435Y7302753I-15973J12036D01*
G01*
X8774243Y7658089D02*
X8509444Y7306689D01*
X8766370Y7714107D02*
G75*
G02X8774243Y7658089I-24073J-31945D01*
G01*
X7395291Y8121221D02*
G75*
G02X7391354Y8149230I12036J15973D01*
G01*
X7656153Y8500630D02*
G75*
G02X7712171Y8508503I31945J-24073D01*
G01*
X6869630Y7390413D02*
G75*
G02X6861757Y7446431I24073J31945D01*
G01*
X7249039Y7129551D02*
G75*
G02X7221030Y7125614I-15973J12036D01*
G01*
X8386961Y7974969D02*
G75*
G02X8414970Y7978906I15973J-12036D01*
G01*
X6869630Y7390413D02*
X7221030Y7125614D01*
X8240709Y6983299D02*
G75*
G02X8244646Y6955290I-12036J-15973D01*
G01*
X8063570Y8243704D02*
G75*
G02X8067507Y8215695I-12036J-15973D01*
G01*
X7979847Y6603890D02*
X8244646Y6955290D01*
X7979847Y6603890D02*
G75*
G02X7923829Y6596017I-31945J24073D01*
G01*
X21424970Y7128114D02*
G75*
G02X21396961Y7132051I-12036J15973D01*
G01*
X21784243Y7448931D02*
X21519444Y7800331D01*
X19976435Y6661767D02*
G75*
G02X20004444Y6657831I12036J-15973D01*
G01*
X20933829Y8511003D02*
G75*
G02X20989847Y8503130I24073J-31945D01*
G01*
X21396961Y7132051D02*
X21077507Y6891325D01*
X20231030Y7981405D02*
G75*
G02X20259039Y7977469I12036J-15973D01*
G01*
X18886355Y5815290D02*
G75*
G02X18890291Y5843299I15973J12036D01*
G01*
X20989847Y8503130D02*
X21254646Y8151730D01*
X19871757Y7660589D02*
G75*
G02X19879630Y7716607I31945J24073D01*
G01*
X21776370Y7392913D02*
X21424970Y7128114D01*
X19871757Y7660589D02*
X20136556Y7309189D01*
X20933829Y8511003D02*
X20582429Y8246204D01*
X19207171Y5456017D02*
G75*
G02X19151153Y5463890I-24073J31945D01*
G01*
X20269243Y6306431D02*
X20004444Y6657831D01*
X20164565Y7305253D02*
G75*
G02X20136556Y7309189I-12036J15973D01*
G01*
X21491435Y7804267D02*
G75*
G02X21519444Y7800331I12036J-15973D01*
G01*
X20666153Y6606390D02*
X20401354Y6957790D01*
X20405291Y6985799D02*
X20164565Y7305253D01*
X20578493Y8218195D02*
G75*
G02X20582429Y8246204I15973J12036D01*
G01*
X21254646Y8151730D02*
G75*
G02X21250709Y8123721I-15973J-12036D01*
G01*
X21784243Y7448931D02*
G75*
G02X21776370Y7392913I-31945J-24073D01*
G01*
X20259039Y7977469D02*
X20578493Y8218195D01*
X21250709Y8123721D02*
X21491435Y7804267D01*
X19879630Y7716607D02*
X20231030Y7981406D01*
X21077507Y6891325D02*
G75*
G02X21073571Y6863316I-15973J-12036D01*
G01*
X20722171Y6598517D02*
G75*
G02X20666153Y6606390I-24073J31945D01*
G01*
X20401355Y6957790D02*
G75*
G02X20405291Y6985799I15973J12036D01*
G01*
X20722171Y6598517D02*
X21073571Y6863316D01*
X11012347Y4318890D02*
G75*
G02X10956329Y4311017I-31945J24073D01*
G01*
X11100007Y5930695D02*
X11419461Y5689969D01*
X10024444Y6161689D02*
G75*
G02X9996435Y6157753I-15973J12036D01*
G01*
X9582507Y7070695D02*
X9901961Y6829969D01*
X7656153Y8500630D02*
X7391354Y8149230D01*
X10281370Y6569107D02*
X9929970Y6833906D01*
X11012347Y4318890D02*
X11277146Y4670290D01*
X8384630Y6245413D02*
G75*
G02X8376757Y6301431I24073J31945D01*
G01*
X9902130Y5105413D02*
G75*
G02X9894257Y5161431I24073J31945D01*
G01*
X9578571Y7098704D02*
G75*
G02X9582507Y7070695I-12036J-15973D01*
G01*
X8764039Y5984551D02*
G75*
G02X8736030Y5980614I-15973J12036D01*
G01*
X11096071Y5958704D02*
G75*
G02X11100007Y5930695I-12036J-15973D01*
G01*
X10187065Y5516767D02*
X10427791Y5836221D01*
X11273209Y4698299D02*
G75*
G02X11277146Y4670290I-12036J-15973D01*
G01*
X10427791Y5836221D02*
G75*
G02X10423854Y5864230I12036J15973D01*
G01*
X9227171Y7363503D02*
X9578571Y7098704D01*
X9901961Y6829969D02*
G75*
G02X9929970Y6833906I15973J-12036D01*
G01*
X10159056Y5512831D02*
G75*
G02X10187065Y5516767I15973J-12036D01*
G01*
X9894257Y5161431D02*
X10159056Y5512831D01*
X8910291Y6976221D02*
G75*
G02X8906354Y7004230I12036J15973D01*
G01*
X8384630Y6245413D02*
X8736030Y5980614D01*
X9438829Y5451017D02*
X9087429Y5715816D01*
X10688653Y6215630D02*
X10423854Y5864230D01*
X6861757Y7446431D02*
X7126556Y7797831D01*
X11798870Y5429107D02*
X11447470Y5693906D01*
X11798870Y5429107D02*
G75*
G02X11806743Y5373089I-24073J-31945D01*
G01*
X9171153Y7355630D02*
X8906354Y7004230D01*
X10281370Y6569107D02*
G75*
G02X10289243Y6513089I-24073J-31945D01*
G01*
X8669565Y6656767D02*
X8910291Y6976221D01*
X7126556Y7797830D02*
G75*
G02X7154565Y7801767I15973J-12036D01*
G01*
X10281539Y4844551D02*
G75*
G02X10253530Y4840614I-15973J12036D01*
G01*
X11541944Y5021690D02*
G75*
G02X11513935Y5017753I-15973J12036D01*
G01*
X8766370Y7714107D02*
X8414970Y7978906D01*
X11806743Y5373089D02*
X11541944Y5021689D01*
X10956329Y4311017D02*
X10604929Y4575816D01*
X11419461Y5689969D02*
G75*
G02X11447470Y5693906I15973J-12036D01*
G01*
X10744671Y6223503D02*
X11096071Y5958704D01*
X9494847Y5458890D02*
G75*
G02X9438829Y5451017I-31945J24073D01*
G01*
X9171153Y7355630D02*
G75*
G02X9227171Y7363503I31945J-24073D01*
G01*
X9902130Y5105413D02*
X10253530Y4840614D01*
X11513935Y5017753D02*
X11273209Y4698299D01*
X10688653Y6215630D02*
G75*
G02X10744671Y6223503I31945J-24073D01*
G01*
X10289243Y6513089D02*
X10024444Y6161689D01*
X9083493Y5743825D02*
X8764039Y5984551D01*
X9087430Y5715816D02*
G75*
G02X9083493Y5743825I12036J15973D01*
G01*
X9996435Y6157753D02*
X9755709Y5838299D01*
X8641556Y6652830D02*
G75*
G02X8669565Y6656767I15973J-12036D01*
G01*
X8376757Y6301431D02*
X8641556Y6652831D01*
X10600993Y4603825D02*
X10281539Y4844551D01*
X8067507Y8215695D02*
X8386961Y7974969D01*
X9494847Y5458890D02*
X9759646Y5810290D01*
X10604930Y4575816D02*
G75*
G02X10600993Y4603825I12036J15973D01*
G01*
X9755709Y5838299D02*
G75*
G02X9759646Y5810290I-12036J-15973D01*
G01*
X18751743Y5166431D02*
G75*
G02X18743870Y5110413I-31945J-24073D01*
G01*
X16847130Y5434107D02*
X17198530Y5698906D01*
X17198530Y5698905D02*
G75*
G02X17226539Y5694969I12036J-15973D01*
G01*
X19562507Y5748825D02*
G75*
G02X19558571Y5720816I-15973J-12036D01*
G01*
X16839257Y5378089D02*
G75*
G02X16847130Y5434107I31945J24073D01*
G01*
X18364461Y4849551D02*
X18045007Y4608825D01*
X20269243Y6306431D02*
G75*
G02X20261370Y6250413I-31945J-24073D01*
G01*
X19881961Y5989551D02*
X19562507Y5748825D01*
X18364630Y6574107D02*
X18716030Y6838906D01*
X18716030Y6838905D02*
G75*
G02X18744039Y6834969I12036J-15973D01*
G01*
X19151153Y5463890D02*
X18886354Y5815290D01*
X18890291Y5843299D02*
X18649565Y6162753D01*
X17901329Y6228503D02*
X17549929Y5963704D01*
X18045007Y4608825D02*
G75*
G02X18041071Y4580816I-15973J-12036D01*
G01*
X18743870Y5110413D02*
X18392470Y4845614D01*
X18356757Y6518089D02*
G75*
G02X18364630Y6574107I31945J24073D01*
G01*
X19474847Y7360630D02*
X19739646Y7009230D01*
X18356757Y6518089D02*
X18621556Y6166689D01*
X18649565Y6162753D02*
G75*
G02X18621556Y6166689I-12036J15973D01*
G01*
X17226539Y5694969D02*
X17545993Y5935695D01*
X17689671Y4316017D02*
X18041071Y4580816D01*
X18218209Y5841221D02*
X18458935Y5521767D01*
X17372791Y4703299D02*
X17132065Y5022753D01*
X17901329Y6228503D02*
G75*
G02X17957347Y6220630I24073J-31945D01*
G01*
X18222146Y5869230D02*
G75*
G02X18218209Y5841221I-15973J-12036D01*
G01*
X18458935Y5521767D02*
G75*
G02X18486944Y5517831I12036J-15973D01*
G01*
X19909970Y5985614D02*
G75*
G02X19881961Y5989551I-12036J15973D01*
G01*
X19063493Y7075695D02*
G75*
G02X19067429Y7103704I15973J12036D01*
G01*
X17689671Y4316017D02*
G75*
G02X17633653Y4323890I-24073J31945D01*
G01*
X18744039Y6834969D02*
X19063493Y7075695D01*
X17957347Y6220630D02*
X18222146Y5869230D01*
X19739646Y7009230D02*
G75*
G02X19735709Y6981221I-15973J-12036D01*
G01*
X19207171Y5456017D02*
X19558571Y5720816D01*
X17633653Y4323890D02*
X17368854Y4675290D01*
X19735709Y6981221D02*
X19976435Y6661767D01*
X19418829Y7368503D02*
G75*
G02X19474847Y7360630I24073J-31945D01*
G01*
X16839257Y5378089D02*
X17104056Y5026689D01*
X20261370Y6250413D02*
X19909970Y5985614D01*
X18751743Y5166431D02*
X18486944Y5517831D01*
X17132065Y5022753D02*
G75*
G02X17104056Y5026689I-12036J15973D01*
G01*
X18392470Y4845615D02*
G75*
G02X18364461Y4849551I-12036J15973D01*
G01*
X17545993Y5935695D02*
G75*
G02X17549929Y5963704I15973J12036D01*
G01*
X17368855Y4675290D02*
G75*
G02X17372791Y4703299I15973J12036D01*
G01*
X19418829Y7368503D02*
X19067429Y7103704D01*
X20975813Y8608196D02*
X17634712Y7257722D01*
X22132327Y7373000D02*
X21202327Y8608000D01*
X21202327Y8608000D02*
X20975813Y8608196D01*
X6584399Y7226592D02*
X11009145Y3896574D01*
X7423000Y8608000D02*
X7649514Y8608196D01*
X14470360Y4281500D02*
G75*
G03X14470360Y4281500I-160000J0D01*
G01*
X6493000Y7373000D02*
X7423000Y8608000D01*
X6584399Y7226592D02*
X6503000Y7288000D01*
X22132327Y7373000D02*
X22122327Y7288000D01*
X22040928Y7226592D02*
X22122327Y7288000D01*
X6493000Y7373000D02*
X6503000Y7288000D01*
X7649514Y8608196D02*
X10985920Y7259760D01*
X11009145Y3896574D02*
X17616182Y3896574D01*
X22040928Y7226592D02*
X17616182Y3896574D01*
D11*
D12*
X6776928Y3428360D02*
X6776928Y3728360D01*
X6848357Y3728360D01*
X6891214Y3714074D01*
X6919786Y3685503D01*
X6934071Y3656931D01*
X6948357Y3599788D01*
X6948357Y3556931D01*
X6934071Y3499788D01*
X6919786Y3471217D01*
X6891214Y3442645D01*
X6848357Y3428360D01*
X6776928Y3428360D01*
X7076928Y3428360D02*
X7076928Y3628360D01*
X7076928Y3571217D02*
X7091214Y3599788D01*
X7105500Y3614074D01*
X7134071Y3628360D01*
X7162643Y3628360D01*
X7262643Y3428360D02*
X7262643Y3628360D01*
X7262643Y3728360D02*
X7248357Y3714074D01*
X7262643Y3699788D01*
X7276928Y3714074D01*
X7262643Y3728360D01*
X7262643Y3699788D01*
X7448357Y3428360D02*
X7419786Y3442645D01*
X7405500Y3471217D01*
X7405500Y3728360D01*
X7605500Y3428360D02*
X7576928Y3442645D01*
X7562643Y3471217D01*
X7562643Y3728360D01*
X7948357Y3428360D02*
X7948357Y3728360D01*
X8048357Y3514074D01*
X8148357Y3728360D01*
X8148357Y3428360D01*
X8419786Y3428360D02*
X8419786Y3585503D01*
X8405500Y3614074D01*
X8376928Y3628360D01*
X8319786Y3628360D01*
X8291214Y3614074D01*
X8419786Y3442645D02*
X8391214Y3428360D01*
X8319786Y3428360D01*
X8291214Y3442645D01*
X8276928Y3471217D01*
X8276928Y3499788D01*
X8291214Y3528360D01*
X8319786Y3542645D01*
X8391214Y3542645D01*
X8419786Y3556931D01*
X8562643Y3628360D02*
X8562643Y3328360D01*
X8562643Y3614074D02*
X8591214Y3628360D01*
X8648357Y3628360D01*
X8676928Y3614074D01*
X8691214Y3599788D01*
X8705500Y3571217D01*
X8705500Y3485503D01*
X8691214Y3456931D01*
X8676928Y3442645D01*
X8648357Y3428360D01*
X8591214Y3428360D01*
X8562643Y3442645D01*
X8834071Y3456931D02*
X8848357Y3442645D01*
X8834071Y3428360D01*
X8819786Y3442645D01*
X8834071Y3456931D01*
X8834071Y3428360D01*
X8834071Y3614074D02*
X8848357Y3599788D01*
X8834071Y3585503D01*
X8819786Y3599788D01*
X8834071Y3614074D01*
X8834071Y3585503D01*
M02*
