G04 #@! TF.GenerationSoftware,KiCad,Pcbnew,(5.1.4)-1*
G04 #@! TF.CreationDate,2025-05-27T18:50:38-04:00*
G04 #@! TF.ProjectId,ThumbsUp_SwitchPlates,5468756d-6273-4557-905f-537769746368,rev?*
G04 #@! TF.SameCoordinates,Original*
G04 #@! TF.FileFunction,Profile,NP*
%FSLAX46Y46*%
G04 Gerber Fmt 4.6, Leading zero omitted, Abs format (unit mm)*
G04 Created by KiCad (PCBNEW (5.1.4)-1) date 2025-05-27 18:50:38*
%MOMM*%
%LPD*%
G04 APERTURE LIST*
%ADD10C,0.050000*%
G04 APERTURE END LIST*
D10*
X91708000Y75768200D02*
G75*
G03X91708000Y75768200I-1600000J0D01*
G01*
X176345958Y72577496D02*
G75*
G02X109859197Y72597600I-33240958J8020104D01*
G01*
X197699200Y75768200D02*
G75*
G03X197699200Y75768200I-1600000J0D01*
G01*
X75684929Y68888248D02*
X72490387Y71295509D01*
X75724295Y68608158D02*
G75*
G02X75684929Y68888248I120362J159728D01*
G01*
X77121710Y85085028D02*
X80635708Y82437041D01*
X84814352Y73027529D02*
X82407091Y69832987D01*
X79238290Y65960172D02*
X75724292Y68608159D01*
X71545648Y78017671D02*
X73952909Y81212213D01*
X85094442Y73066895D02*
G75*
G02X84814352Y73027529I-159728J120362D01*
G01*
X87742428Y76580890D02*
X85094441Y73066892D01*
X87663700Y77141070D02*
G75*
G02X87742428Y76580890I-240726J-319454D01*
G01*
X73952909Y81212212D02*
G75*
G02X73913544Y81492303I120363J159728D01*
G01*
X76561530Y85006300D02*
G75*
G02X77121710Y85085028I319454J-240726D01*
G01*
X68696300Y73904130D02*
G75*
G02X68617572Y74464310I240726J319454D01*
G01*
X72490388Y71295509D02*
G75*
G02X72210297Y71256144I-159728J120363D01*
G01*
X83869612Y79749691D02*
G75*
G02X84149703Y79789056I159728J-120363D01*
G01*
X68696300Y73904131D02*
X72210297Y71256144D01*
X82407091Y69832988D02*
G75*
G02X82446456Y69552897I-120363J-159728D01*
G01*
X80635705Y82437042D02*
G75*
G02X80675071Y82156952I-120362J-159728D01*
G01*
X79798469Y66038900D02*
X82446456Y69552897D01*
X79798470Y66038900D02*
G75*
G02X79238290Y65960172I-319454J240726D01*
G01*
X214249703Y71281145D02*
G75*
G02X213969613Y71320509I-120363J159727D01*
G01*
X217842428Y74489311D02*
X215194442Y78003307D01*
X199764352Y66617671D02*
G75*
G02X200044442Y66578307I120363J-159727D01*
G01*
X209338289Y85110028D02*
G75*
G02X209898469Y85031300I240726J-319454D01*
G01*
X213969613Y71320509D02*
X210775071Y68913248D01*
X202310297Y79814055D02*
G75*
G02X202590387Y79774691I120363J-159727D01*
G01*
X188863545Y58152897D02*
G75*
G02X188902909Y58432987I159727J120363D01*
G01*
X209898469Y85031300D02*
X212546456Y81517303D01*
X198717572Y76605889D02*
G75*
G02X198796300Y77166069I319454J240726D01*
G01*
X217763700Y73929131D02*
X214249703Y71281144D01*
X198717572Y76605889D02*
X201365558Y73091893D01*
X209338289Y85110028D02*
X205824293Y82462042D01*
X192071711Y54560172D02*
G75*
G02X191511531Y54638900I-240726J319454D01*
G01*
X202692428Y63064311D02*
X200044442Y66578307D01*
X201645648Y73052529D02*
G75*
G02X201365558Y73091893I-120363J159727D01*
G01*
X214914352Y78042671D02*
G75*
G02X215194442Y78003307I120363J-159727D01*
G01*
X206661531Y66063900D02*
X204013544Y69577897D01*
X204052909Y69857987D02*
X201645648Y73052529D01*
X205784929Y82181952D02*
G75*
G02X205824293Y82462042I159727J120363D01*
G01*
X212546455Y81517303D02*
G75*
G02X212507091Y81237213I-159727J-120363D01*
G01*
X217842428Y74489311D02*
G75*
G02X217763700Y73929131I-319454J-240726D01*
G01*
X202590387Y79774691D02*
X205784929Y82181952D01*
X212507091Y81237213D02*
X214914352Y78042671D01*
X198796300Y77166069D02*
X202310297Y79814056D01*
X210775071Y68913248D02*
G75*
G02X210735707Y68633158I-159727J-120363D01*
G01*
X207221711Y65985172D02*
G75*
G02X206661531Y66063900I-240726J319454D01*
G01*
X204013545Y69577897D02*
G75*
G02X204052909Y69857987I159727J120363D01*
G01*
X207221711Y65985172D02*
X210735707Y68633158D01*
X110123470Y43188900D02*
G75*
G02X109563290Y43110172I-319454J240726D01*
G01*
X111000071Y59306952D02*
X114194613Y56899691D01*
X100244442Y61616895D02*
G75*
G02X99964352Y61577529I-159728J120362D01*
G01*
X95825071Y70706952D02*
X99019613Y68299691D01*
X76561531Y85006300D02*
X73913544Y81492303D01*
X102813700Y65691069D02*
X99299703Y68339056D01*
X110123469Y43188900D02*
X112771456Y46702897D01*
X83846300Y62454130D02*
G75*
G02X83767572Y63014310I240726J319454D01*
G01*
X99021300Y51054130D02*
G75*
G02X98942572Y51614310I240726J319454D01*
G01*
X95785705Y70987042D02*
G75*
G02X95825071Y70706952I-120362J-159728D01*
G01*
X87640388Y59845509D02*
G75*
G02X87360297Y59806144I-159728J120363D01*
G01*
X110960705Y59587042D02*
G75*
G02X111000071Y59306952I-120362J-159728D01*
G01*
X101870648Y55167671D02*
X104277909Y58362213D01*
X112732091Y46982988D02*
G75*
G02X112771456Y46702897I-120363J-159728D01*
G01*
X104277909Y58362212D02*
G75*
G02X104238544Y58642303I120363J159728D01*
G01*
X92271710Y73635028D02*
X95785708Y70987041D01*
X99019612Y68299691D02*
G75*
G02X99299703Y68339056I159728J-120363D01*
G01*
X101590558Y55128305D02*
G75*
G02X101870648Y55167671I159728J-120362D01*
G01*
X98942572Y51614310D02*
X101590559Y55128308D01*
X89102909Y69762212D02*
G75*
G02X89063544Y70042303I120363J159728D01*
G01*
X83846300Y62454131D02*
X87360297Y59806144D01*
X94388290Y54510172D02*
X90874292Y57158159D01*
X106886531Y62156300D02*
X104238544Y58642303D01*
X68617572Y74464310D02*
X71265559Y77978308D01*
X117988700Y54291069D02*
X114474703Y56939056D01*
X117988700Y54291070D02*
G75*
G02X118067428Y53730890I-240726J-319454D01*
G01*
X91711531Y73556300D02*
X89063544Y70042303D01*
X102813700Y65691070D02*
G75*
G02X102892428Y65130890I-240726J-319454D01*
G01*
X86695648Y66567671D02*
X89102909Y69762213D01*
X71265558Y77978305D02*
G75*
G02X71545648Y78017671I159728J-120362D01*
G01*
X102815388Y48445509D02*
G75*
G02X102535297Y48406144I-159728J120363D01*
G01*
X115419442Y50216895D02*
G75*
G02X115139352Y50177529I-159728J120362D01*
G01*
X87663700Y77141069D02*
X84149703Y79789056D01*
X118067428Y53730890D02*
X115419441Y50216892D01*
X109563290Y43110172D02*
X106049292Y45758159D01*
X114194612Y56899691D02*
G75*
G02X114474703Y56939056I159728J-120363D01*
G01*
X107446710Y62235028D02*
X110960708Y59587041D01*
X94948470Y54588900D02*
G75*
G02X94388290Y54510172I-319454J240726D01*
G01*
X91711530Y73556300D02*
G75*
G02X92271710Y73635028I319454J-240726D01*
G01*
X99021300Y51054131D02*
X102535297Y48406144D01*
X115139352Y50177529D02*
X112732091Y46982987D01*
X106886530Y62156300D02*
G75*
G02X107446710Y62235028I319454J-240726D01*
G01*
X102892428Y65130890D02*
X100244441Y61616892D01*
X90834929Y57438248D02*
X87640387Y59845509D01*
X90874295Y57158158D02*
G75*
G02X90834929Y57438248I120362J159728D01*
G01*
X99964352Y61577529D02*
X97557091Y58382987D01*
X86415558Y66528305D02*
G75*
G02X86695648Y66567671I159728J-120362D01*
G01*
X83767572Y63014310D02*
X86415559Y66528308D01*
X106009929Y46038248D02*
X102815387Y48445509D01*
X80675071Y82156952D02*
X83869613Y79749691D01*
X94948469Y54588900D02*
X97596456Y58102897D01*
X106049295Y45758158D02*
G75*
G02X106009929Y46038248I120362J159728D01*
G01*
X97557091Y58382988D02*
G75*
G02X97596456Y58102897I-120363J-159728D01*
G01*
X187517428Y51664311D02*
G75*
G02X187438700Y51104131I-319454J-240726D01*
G01*
X168471300Y54341069D02*
X171985297Y56989056D01*
X171985297Y56989055D02*
G75*
G02X172265387Y56949691I120363J-159727D01*
G01*
X195625071Y57488248D02*
G75*
G02X195585707Y57208158I-159727J-120363D01*
G01*
X168392572Y53780889D02*
G75*
G02X168471300Y54341069I319454J240726D01*
G01*
X183644613Y48495509D02*
X180450071Y46088248D01*
X202692428Y63064311D02*
G75*
G02X202613700Y62504131I-319454J-240726D01*
G01*
X198819613Y59895509D02*
X195625071Y57488248D01*
X183646300Y65741069D02*
X187160297Y68389056D01*
X187160297Y68389055D02*
G75*
G02X187440387Y68349691I120363J-159727D01*
G01*
X191511531Y54638900D02*
X188863544Y58152897D01*
X188902909Y58432987D02*
X186495648Y61627529D01*
X179013289Y62285028D02*
X175499293Y59637042D01*
X180450071Y46088248D02*
G75*
G02X180410707Y45808158I-159727J-120363D01*
G01*
X187438700Y51104131D02*
X183924703Y48456144D01*
X183567572Y65180889D02*
G75*
G02X183646300Y65741069I319454J240726D01*
G01*
X194748469Y73606300D02*
X197396456Y70092303D01*
X183567572Y65180889D02*
X186215558Y61666893D01*
X186495648Y61627529D02*
G75*
G02X186215558Y61666893I-120363J159727D01*
G01*
X172265387Y56949691D02*
X175459929Y59356952D01*
X176896711Y43160172D02*
X180410707Y45808158D01*
X182182091Y58412213D02*
X184589352Y55217671D01*
X173727909Y47032987D02*
X171320648Y50227529D01*
X179013289Y62285028D02*
G75*
G02X179573469Y62206300I240726J-319454D01*
G01*
X182221455Y58692303D02*
G75*
G02X182182091Y58412213I-159727J-120363D01*
G01*
X184589352Y55217671D02*
G75*
G02X184869442Y55178307I120363J-159727D01*
G01*
X199099703Y59856145D02*
G75*
G02X198819613Y59895509I-120363J159727D01*
G01*
X190634929Y70756952D02*
G75*
G02X190674293Y71037042I159727J120363D01*
G01*
X176896711Y43160172D02*
G75*
G02X176336531Y43238900I-240726J319454D01*
G01*
X187440387Y68349691D02*
X190634929Y70756952D01*
X179573469Y62206300D02*
X182221456Y58692303D01*
X197396455Y70092303D02*
G75*
G02X197357091Y69812213I-159727J-120363D01*
G01*
X192071711Y54560172D02*
X195585707Y57208158D01*
X176336531Y43238900D02*
X173688544Y46752897D01*
X197357091Y69812213D02*
X199764352Y66617671D01*
X194188289Y73685028D02*
G75*
G02X194748469Y73606300I240726J-319454D01*
G01*
X168392572Y53780889D02*
X171040558Y50266893D01*
X202613700Y62504131D02*
X199099703Y59856144D01*
X187517428Y51664311D02*
X184869442Y55178307D01*
X171320648Y50227529D02*
G75*
G02X171040558Y50266893I-120363J159727D01*
G01*
X183924703Y48456145D02*
G75*
G02X183644613Y48495509I-120363J159727D01*
G01*
X175459929Y59356952D02*
G75*
G02X175499293Y59637042I159727J120363D01*
G01*
X173688545Y46752897D02*
G75*
G02X173727909Y47032987I159727J120363D01*
G01*
X194188289Y73685028D02*
X190674293Y71037042D01*
X209758126Y86081962D02*
X176347118Y72577216D01*
X221323268Y73730000D02*
X212023268Y86080000D01*
X212023268Y86080000D02*
X209758126Y86081962D01*
X65843987Y72265924D02*
X110091449Y38965742D01*
X74230000Y86080000D02*
X76495142Y86081962D01*
X144703600Y42815000D02*
G75*
G03X144703600Y42815000I-1600000J0D01*
G01*
X64930000Y73730000D02*
X74230000Y86080000D01*
X65843987Y72265924D02*
X65030000Y72880000D01*
X221323268Y73730000D02*
X221223268Y72880000D01*
X220409281Y72265924D02*
X221223268Y72880000D01*
X64930000Y73730000D02*
X65030000Y72880000D01*
X76495142Y86081962D02*
X109859197Y72597600D01*
X110091449Y38965742D02*
X176161819Y38965742D01*
X220409281Y72265924D02*
X176161819Y38965742D01*
M02*
