G04 #@! TF.GenerationSoftware,KiCad,Pcbnew,(5.1.4)-1*
G04 #@! TF.CreationDate,2025-05-28T14:17:52-04:00*
G04 #@! TF.ProjectId,ThumbsUp,5468756d-6273-4557-902e-6b696361645f,rev?*
G04 #@! TF.SameCoordinates,Original*
G04 #@! TF.FileFunction,Paste,Bot*
G04 #@! TF.FilePolarity,Positive*
%FSLAX46Y46*%
G04 Gerber Fmt 4.6, Leading zero omitted, Abs format (unit mm)*
G04 Created by KiCad (PCBNEW (5.1.4)-1) date 2025-05-28 14:17:52*
%MOMM*%
%LPD*%
G04 APERTURE LIST*
%ADD10C,2.500000*%
%ADD11C,0.100000*%
%ADD12C,2.600000*%
G04 APERTURE END LIST*
D10*
X199905800Y-210620328D03*
D11*
G36*
X199191899Y-212256931D02*
G01*
X198255382Y-209938972D01*
X200619701Y-208983725D01*
X201556218Y-211301684D01*
X199191899Y-212256931D01*
X199191899Y-212256931D01*
G37*
D10*
X188871595Y-217817915D03*
D11*
G36*
X188157694Y-219454518D02*
G01*
X187221177Y-217136559D01*
X189585496Y-216181312D01*
X190522013Y-218499271D01*
X188157694Y-219454518D01*
X188157694Y-219454518D01*
G37*
D12*
X190124521Y-224095683D03*
D11*
G36*
X190842871Y-222403355D02*
G01*
X191816849Y-224814033D01*
X189406171Y-225788011D01*
X188432193Y-223377333D01*
X190842871Y-222403355D01*
X190842871Y-222403355D01*
G37*
D12*
X201657629Y-221808781D03*
D11*
G36*
X202375979Y-220116453D02*
G01*
X203349957Y-222527131D01*
X200939279Y-223501109D01*
X199965301Y-221090431D01*
X202375979Y-220116453D01*
X202375979Y-220116453D01*
G37*
D10*
X238884852Y-205657116D03*
D11*
G36*
X238170951Y-207293719D02*
G01*
X237234434Y-204975760D01*
X239598753Y-204020513D01*
X240535270Y-206338472D01*
X238170951Y-207293719D01*
X238170951Y-207293719D01*
G37*
D10*
X227850647Y-212854703D03*
D11*
G36*
X227136746Y-214491306D02*
G01*
X226200229Y-212173347D01*
X228564548Y-211218100D01*
X229501065Y-213536059D01*
X227136746Y-214491306D01*
X227136746Y-214491306D01*
G37*
D12*
X229103573Y-219132471D03*
D11*
G36*
X229821923Y-217440143D02*
G01*
X230795901Y-219850821D01*
X228385223Y-220824799D01*
X227411245Y-218414121D01*
X229821923Y-217440143D01*
X229821923Y-217440143D01*
G37*
D12*
X240636681Y-216845569D03*
D11*
G36*
X241355031Y-215153241D02*
G01*
X242329009Y-217563919D01*
X239918331Y-218537897D01*
X238944353Y-216127219D01*
X241355031Y-215153241D01*
X241355031Y-215153241D01*
G37*
D10*
X219395326Y-208138722D03*
D11*
G36*
X218681425Y-209775325D02*
G01*
X217744908Y-207457366D01*
X220109227Y-206502119D01*
X221045744Y-208820078D01*
X218681425Y-209775325D01*
X218681425Y-209775325D01*
G37*
D10*
X208361121Y-215336309D03*
D11*
G36*
X207647220Y-216972912D02*
G01*
X206710703Y-214654953D01*
X209075022Y-213699706D01*
X210011539Y-216017665D01*
X207647220Y-216972912D01*
X207647220Y-216972912D01*
G37*
D12*
X209614047Y-221614077D03*
D11*
G36*
X210332397Y-219921749D02*
G01*
X211306375Y-222332427D01*
X208895697Y-223306405D01*
X207921719Y-220895727D01*
X210332397Y-219921749D01*
X210332397Y-219921749D01*
G37*
D12*
X221147155Y-219327175D03*
D11*
G36*
X221865505Y-217634847D02*
G01*
X222839483Y-220045525D01*
X220428805Y-221019503D01*
X219454827Y-218608825D01*
X221865505Y-217634847D01*
X221865505Y-217634847D01*
G37*
D10*
X255002919Y-194830855D03*
D11*
G36*
X254289018Y-196467458D02*
G01*
X253352501Y-194149499D01*
X255716820Y-193194252D01*
X256653337Y-195512211D01*
X254289018Y-196467458D01*
X254289018Y-196467458D01*
G37*
D10*
X243968714Y-202028442D03*
D11*
G36*
X243254813Y-203665045D02*
G01*
X242318296Y-201347086D01*
X244682615Y-200391839D01*
X245619132Y-202709798D01*
X243254813Y-203665045D01*
X243254813Y-203665045D01*
G37*
D12*
X245221640Y-208306210D03*
D11*
G36*
X245939990Y-206613882D02*
G01*
X246913968Y-209024560D01*
X244503290Y-209998538D01*
X243529312Y-207587860D01*
X245939990Y-206613882D01*
X245939990Y-206613882D01*
G37*
D12*
X256754748Y-206019308D03*
D11*
G36*
X257473098Y-204326980D02*
G01*
X258447076Y-206737658D01*
X256036398Y-207711636D01*
X255062420Y-205300958D01*
X257473098Y-204326980D01*
X257473098Y-204326980D01*
G37*
D10*
X240747902Y-260988202D03*
D11*
G36*
X240034001Y-262624805D02*
G01*
X239097484Y-260306846D01*
X241461803Y-259351599D01*
X242398320Y-261669558D01*
X240034001Y-262624805D01*
X240034001Y-262624805D01*
G37*
D10*
X229713697Y-268185789D03*
D11*
G36*
X228999796Y-269822392D02*
G01*
X228063279Y-267504433D01*
X230427598Y-266549186D01*
X231364115Y-268867145D01*
X228999796Y-269822392D01*
X228999796Y-269822392D01*
G37*
D12*
X230966623Y-274463557D03*
D11*
G36*
X231684973Y-272771229D02*
G01*
X232658951Y-275181907D01*
X230248273Y-276155885D01*
X229274295Y-273745207D01*
X231684973Y-272771229D01*
X231684973Y-272771229D01*
G37*
D12*
X242499731Y-272176655D03*
D11*
G36*
X243218081Y-270484327D02*
G01*
X244192059Y-272895005D01*
X241781381Y-273868983D01*
X240807403Y-271458305D01*
X243218081Y-270484327D01*
X243218081Y-270484327D01*
G37*
D10*
X233630377Y-243371708D03*
D11*
G36*
X232916476Y-245008311D02*
G01*
X231979959Y-242690352D01*
X234344278Y-241735105D01*
X235280795Y-244053064D01*
X232916476Y-245008311D01*
X232916476Y-245008311D01*
G37*
D10*
X222596172Y-250569295D03*
D11*
G36*
X221882271Y-252205898D02*
G01*
X220945754Y-249887939D01*
X223310073Y-248932692D01*
X224246590Y-251250651D01*
X221882271Y-252205898D01*
X221882271Y-252205898D01*
G37*
D12*
X223849098Y-256847063D03*
D11*
G36*
X224567448Y-255154735D02*
G01*
X225541426Y-257565413D01*
X223130748Y-258539391D01*
X222156770Y-256128713D01*
X224567448Y-255154735D01*
X224567448Y-255154735D01*
G37*
D12*
X235382206Y-254560161D03*
D11*
G36*
X236100556Y-252867833D02*
G01*
X237074534Y-255278511D01*
X234663856Y-256252489D01*
X233689878Y-253841811D01*
X236100556Y-252867833D01*
X236100556Y-252867833D01*
G37*
D10*
X276355495Y-247680335D03*
D11*
G36*
X275641594Y-249316938D02*
G01*
X274705077Y-246998979D01*
X277069396Y-246043732D01*
X278005913Y-248361691D01*
X275641594Y-249316938D01*
X275641594Y-249316938D01*
G37*
D10*
X265321290Y-254877922D03*
D11*
G36*
X264607389Y-256514525D02*
G01*
X263670872Y-254196566D01*
X266035191Y-253241319D01*
X266971708Y-255559278D01*
X264607389Y-256514525D01*
X264607389Y-256514525D01*
G37*
D12*
X266574216Y-261155690D03*
D11*
G36*
X267292566Y-259463362D02*
G01*
X268266544Y-261874040D01*
X265855866Y-262848018D01*
X264881888Y-260437340D01*
X267292566Y-259463362D01*
X267292566Y-259463362D01*
G37*
D12*
X278107324Y-258868788D03*
D11*
G36*
X278825674Y-257176460D02*
G01*
X279799652Y-259587138D01*
X277388974Y-260561116D01*
X276414996Y-258150438D01*
X278825674Y-257176460D01*
X278825674Y-257176460D01*
G37*
D10*
X226512851Y-225755215D03*
D11*
G36*
X225798950Y-227391818D02*
G01*
X224862433Y-225073859D01*
X227226752Y-224118612D01*
X228163269Y-226436571D01*
X225798950Y-227391818D01*
X225798950Y-227391818D01*
G37*
D10*
X215478646Y-232952802D03*
D11*
G36*
X214764745Y-234589405D02*
G01*
X213828228Y-232271446D01*
X216192547Y-231316199D01*
X217129064Y-233634158D01*
X214764745Y-234589405D01*
X214764745Y-234589405D01*
G37*
D12*
X216731572Y-239230570D03*
D11*
G36*
X217449922Y-237538242D02*
G01*
X218423900Y-239948920D01*
X216013222Y-240922898D01*
X215039244Y-238512220D01*
X217449922Y-237538242D01*
X217449922Y-237538242D01*
G37*
D12*
X228264680Y-236943668D03*
D11*
G36*
X228983030Y-235251340D02*
G01*
X229957008Y-237662018D01*
X227546330Y-238635996D01*
X226572352Y-236225318D01*
X228983030Y-235251340D01*
X228983030Y-235251340D01*
G37*
D10*
X269237970Y-230063842D03*
D11*
G36*
X268524069Y-231700445D02*
G01*
X267587552Y-229382486D01*
X269951871Y-228427239D01*
X270888388Y-230745198D01*
X268524069Y-231700445D01*
X268524069Y-231700445D01*
G37*
D10*
X258203765Y-237261429D03*
D11*
G36*
X257489864Y-238898032D02*
G01*
X256553347Y-236580073D01*
X258917666Y-235624826D01*
X259854183Y-237942785D01*
X257489864Y-238898032D01*
X257489864Y-238898032D01*
G37*
D12*
X259456691Y-243539197D03*
D11*
G36*
X260175041Y-241846869D02*
G01*
X261149019Y-244257547D01*
X258738341Y-245231525D01*
X257764363Y-242820847D01*
X260175041Y-241846869D01*
X260175041Y-241846869D01*
G37*
D12*
X270989799Y-241252295D03*
D11*
G36*
X271708149Y-239559967D02*
G01*
X272682127Y-241970645D01*
X270271449Y-242944623D01*
X269297471Y-240533945D01*
X271708149Y-239559967D01*
X271708149Y-239559967D01*
G37*
D10*
X43952171Y-215083340D03*
D11*
G36*
X45602589Y-214401984D02*
G01*
X44666072Y-216719943D01*
X42301753Y-215764696D01*
X43238270Y-213446737D01*
X45602589Y-214401984D01*
X45602589Y-214401984D01*
G37*
D10*
X56889378Y-217570833D03*
D11*
G36*
X58539796Y-216889477D02*
G01*
X57603279Y-219207436D01*
X55238960Y-218252189D01*
X56175477Y-215934230D01*
X58539796Y-216889477D01*
X58539796Y-216889477D01*
G37*
D12*
X60349002Y-212184628D03*
D11*
G36*
X58656674Y-212902978D02*
G01*
X59630652Y-210492300D01*
X62041330Y-211466278D01*
X61067352Y-213876956D01*
X58656674Y-212902978D01*
X58656674Y-212902978D01*
G37*
D12*
X50464163Y-205818117D03*
D11*
G36*
X48771835Y-206536467D02*
G01*
X49745813Y-204125789D01*
X52156491Y-205099767D01*
X51182513Y-207510445D01*
X48771835Y-206536467D01*
X48771835Y-206536467D01*
G37*
D10*
X27834104Y-204257080D03*
D11*
G36*
X29484522Y-203575724D02*
G01*
X28548005Y-205893683D01*
X26183686Y-204938436D01*
X27120203Y-202620477D01*
X29484522Y-203575724D01*
X29484522Y-203575724D01*
G37*
D10*
X40771311Y-206744573D03*
D11*
G36*
X42421729Y-206063217D02*
G01*
X41485212Y-208381176D01*
X39120893Y-207425929D01*
X40057410Y-205107970D01*
X42421729Y-206063217D01*
X42421729Y-206063217D01*
G37*
D12*
X44230935Y-201358368D03*
D11*
G36*
X42538607Y-202076718D02*
G01*
X43512585Y-199666040D01*
X45923263Y-200640018D01*
X44949285Y-203050696D01*
X42538607Y-202076718D01*
X42538607Y-202076718D01*
G37*
D12*
X34346096Y-194991857D03*
D11*
G36*
X32653768Y-195710207D02*
G01*
X33627746Y-193299529D01*
X36038424Y-194273507D01*
X35064446Y-196684185D01*
X32653768Y-195710207D01*
X32653768Y-195710207D01*
G37*
D10*
X262120445Y-212447349D03*
D11*
G36*
X261406544Y-214083952D02*
G01*
X260470027Y-211765993D01*
X262834346Y-210810746D01*
X263770863Y-213128705D01*
X261406544Y-214083952D01*
X261406544Y-214083952D01*
G37*
D10*
X251086240Y-219644936D03*
D11*
G36*
X250372339Y-221281539D02*
G01*
X249435822Y-218963580D01*
X251800141Y-218008333D01*
X252736658Y-220326292D01*
X250372339Y-221281539D01*
X250372339Y-221281539D01*
G37*
D12*
X252339166Y-225922704D03*
D11*
G36*
X253057516Y-224230376D02*
G01*
X254031494Y-226641054D01*
X251620816Y-227615032D01*
X250646838Y-225204354D01*
X253057516Y-224230376D01*
X253057516Y-224230376D01*
G37*
D12*
X263872274Y-223635802D03*
D11*
G36*
X264590624Y-221943474D02*
G01*
X265564602Y-224354152D01*
X263153924Y-225328130D01*
X262179946Y-222917452D01*
X264590624Y-221943474D01*
X264590624Y-221943474D01*
G37*
D10*
X253119903Y-240890102D03*
D11*
G36*
X252406002Y-242526705D02*
G01*
X251469485Y-240208746D01*
X253833804Y-239253499D01*
X254770321Y-241571458D01*
X252406002Y-242526705D01*
X252406002Y-242526705D01*
G37*
D10*
X242085698Y-248087689D03*
D11*
G36*
X241371797Y-249724292D02*
G01*
X240435280Y-247406333D01*
X242799599Y-246451086D01*
X243736116Y-248769045D01*
X241371797Y-249724292D01*
X241371797Y-249724292D01*
G37*
D12*
X243338624Y-254365457D03*
D11*
G36*
X244056974Y-252673129D02*
G01*
X245030952Y-255083807D01*
X242620274Y-256057785D01*
X241646296Y-253647107D01*
X244056974Y-252673129D01*
X244056974Y-252673129D01*
G37*
D12*
X254871732Y-252078555D03*
D11*
G36*
X255590082Y-250386227D02*
G01*
X256564060Y-252796905D01*
X254153382Y-253770883D01*
X253179404Y-251360205D01*
X255590082Y-250386227D01*
X255590082Y-250386227D01*
G37*
D10*
X246002378Y-223273609D03*
D11*
G36*
X245288477Y-224910212D02*
G01*
X244351960Y-222592253D01*
X246716279Y-221637006D01*
X247652796Y-223954965D01*
X245288477Y-224910212D01*
X245288477Y-224910212D01*
G37*
D10*
X234968173Y-230471196D03*
D11*
G36*
X234254272Y-232107799D02*
G01*
X233317755Y-229789840D01*
X235682074Y-228834593D01*
X236618591Y-231152552D01*
X234254272Y-232107799D01*
X234254272Y-232107799D01*
G37*
D12*
X236221099Y-236748964D03*
D11*
G36*
X236939449Y-235056636D02*
G01*
X237913427Y-237467314D01*
X235502749Y-238441292D01*
X234528771Y-236030614D01*
X236939449Y-235056636D01*
X236939449Y-235056636D01*
G37*
D12*
X247754207Y-234462062D03*
D11*
G36*
X248472557Y-232769734D02*
G01*
X249446535Y-235180412D01*
X247035857Y-236154390D01*
X246061879Y-233743712D01*
X248472557Y-232769734D01*
X248472557Y-232769734D01*
G37*
D10*
X82931224Y-220046552D03*
D11*
G36*
X84581642Y-219365196D02*
G01*
X83645125Y-221683155D01*
X81280806Y-220727908D01*
X82217323Y-218409949D01*
X84581642Y-219365196D01*
X84581642Y-219365196D01*
G37*
D10*
X95868431Y-222534045D03*
D11*
G36*
X97518849Y-221852689D02*
G01*
X96582332Y-224170648D01*
X94218013Y-223215401D01*
X95154530Y-220897442D01*
X97518849Y-221852689D01*
X97518849Y-221852689D01*
G37*
D12*
X99328055Y-217147840D03*
D11*
G36*
X97635727Y-217866190D02*
G01*
X98609705Y-215455512D01*
X101020383Y-216429490D01*
X100046405Y-218840168D01*
X97635727Y-217866190D01*
X97635727Y-217866190D01*
G37*
D12*
X89443216Y-210781329D03*
D11*
G36*
X87750888Y-211499679D02*
G01*
X88724866Y-209089001D01*
X91135544Y-210062979D01*
X90161566Y-212473657D01*
X87750888Y-211499679D01*
X87750888Y-211499679D01*
G37*
D10*
X63441697Y-217564946D03*
D11*
G36*
X65092115Y-216883590D02*
G01*
X64155598Y-219201549D01*
X61791279Y-218246302D01*
X62727796Y-215928343D01*
X65092115Y-216883590D01*
X65092115Y-216883590D01*
G37*
D10*
X76378904Y-220052439D03*
D11*
G36*
X78029322Y-219371083D02*
G01*
X77092805Y-221689042D01*
X74728486Y-220733795D01*
X75665003Y-218415836D01*
X78029322Y-219371083D01*
X78029322Y-219371083D01*
G37*
D12*
X79838528Y-214666234D03*
D11*
G36*
X78146200Y-215384584D02*
G01*
X79120178Y-212973906D01*
X81530856Y-213947884D01*
X80556878Y-216358562D01*
X78146200Y-215384584D01*
X78146200Y-215384584D01*
G37*
D12*
X69953689Y-208299723D03*
D11*
G36*
X68261361Y-209018073D02*
G01*
X69235339Y-206607395D01*
X71646017Y-207581373D01*
X70672039Y-209992051D01*
X68261361Y-209018073D01*
X68261361Y-209018073D01*
G37*
D10*
X260237428Y-258506596D03*
D11*
G36*
X259523527Y-260143199D02*
G01*
X258587010Y-257825240D01*
X260951329Y-256869993D01*
X261887846Y-259187952D01*
X259523527Y-260143199D01*
X259523527Y-260143199D01*
G37*
D10*
X249203223Y-265704183D03*
D11*
G36*
X248489322Y-267340786D02*
G01*
X247552805Y-265022827D01*
X249917124Y-264067580D01*
X250853641Y-266385539D01*
X248489322Y-267340786D01*
X248489322Y-267340786D01*
G37*
D12*
X250456149Y-271981951D03*
D11*
G36*
X251174499Y-270289623D02*
G01*
X252148477Y-272700301D01*
X249737799Y-273674279D01*
X248763821Y-271263601D01*
X251174499Y-270289623D01*
X251174499Y-270289623D01*
G37*
D12*
X261989257Y-269695049D03*
D11*
G36*
X262707607Y-268002721D02*
G01*
X263681585Y-270413399D01*
X261270907Y-271387377D01*
X260296929Y-268976699D01*
X262707607Y-268002721D01*
X262707607Y-268002721D01*
G37*
D10*
X214140851Y-245853314D03*
D11*
G36*
X213426950Y-247489917D02*
G01*
X212490433Y-245171958D01*
X214854752Y-244216711D01*
X215791269Y-246534670D01*
X213426950Y-247489917D01*
X213426950Y-247489917D01*
G37*
D10*
X203106646Y-253050901D03*
D11*
G36*
X202392745Y-254687504D02*
G01*
X201456228Y-252369545D01*
X203820547Y-251414298D01*
X204757064Y-253732257D01*
X202392745Y-254687504D01*
X202392745Y-254687504D01*
G37*
D12*
X204359572Y-259328669D03*
D11*
G36*
X205077922Y-257636341D02*
G01*
X206051900Y-260047019D01*
X203641222Y-261020997D01*
X202667244Y-258610319D01*
X205077922Y-257636341D01*
X205077922Y-257636341D01*
G37*
D12*
X215892680Y-257041767D03*
D11*
G36*
X216611030Y-255349439D02*
G01*
X217585008Y-257760117D01*
X215174330Y-258734095D01*
X214200352Y-256323417D01*
X216611030Y-255349439D01*
X216611030Y-255349439D01*
G37*
D10*
X207023325Y-228236821D03*
D11*
G36*
X206309424Y-229873424D02*
G01*
X205372907Y-227555465D01*
X207737226Y-226600218D01*
X208673743Y-228918177D01*
X206309424Y-229873424D01*
X206309424Y-229873424D01*
G37*
D10*
X195989120Y-235434408D03*
D11*
G36*
X195275219Y-237071011D02*
G01*
X194338702Y-234753052D01*
X196703021Y-233797805D01*
X197639538Y-236115764D01*
X195275219Y-237071011D01*
X195275219Y-237071011D01*
G37*
D12*
X197242046Y-241712176D03*
D11*
G36*
X197960396Y-240019848D02*
G01*
X198934374Y-242430526D01*
X196523696Y-243404504D01*
X195549718Y-240993826D01*
X197960396Y-240019848D01*
X197960396Y-240019848D01*
G37*
D12*
X208775154Y-239425274D03*
D11*
G36*
X209493504Y-237732946D02*
G01*
X210467482Y-240143624D01*
X208056804Y-241117602D01*
X207082826Y-238706924D01*
X209493504Y-237732946D01*
X209493504Y-237732946D01*
G37*
D10*
X221258376Y-263469808D03*
D11*
G36*
X220544475Y-265106411D02*
G01*
X219607958Y-262788452D01*
X221972277Y-261833205D01*
X222908794Y-264151164D01*
X220544475Y-265106411D01*
X220544475Y-265106411D01*
G37*
D10*
X210224171Y-270667395D03*
D11*
G36*
X209510270Y-272303998D02*
G01*
X208573753Y-269986039D01*
X210938072Y-269030792D01*
X211874589Y-271348751D01*
X209510270Y-272303998D01*
X209510270Y-272303998D01*
G37*
D12*
X211477097Y-276945163D03*
D11*
G36*
X212195447Y-275252835D02*
G01*
X213169425Y-277663513D01*
X210758747Y-278637491D01*
X209784769Y-276226813D01*
X212195447Y-275252835D01*
X212195447Y-275252835D01*
G37*
D12*
X223010205Y-274658261D03*
D11*
G36*
X223728555Y-272965933D02*
G01*
X224702533Y-275376611D01*
X222291855Y-276350589D01*
X221317877Y-273939911D01*
X223728555Y-272965933D01*
X223728555Y-272965933D01*
G37*
D10*
X36834646Y-232699834D03*
D11*
G36*
X38485064Y-232018478D02*
G01*
X37548547Y-234336437D01*
X35184228Y-233381190D01*
X36120745Y-231063231D01*
X38485064Y-232018478D01*
X38485064Y-232018478D01*
G37*
D10*
X49771853Y-235187327D03*
D11*
G36*
X51422271Y-234505971D02*
G01*
X50485754Y-236823930D01*
X48121435Y-235868683D01*
X49057952Y-233550724D01*
X51422271Y-234505971D01*
X51422271Y-234505971D01*
G37*
D12*
X53231477Y-229801122D03*
D11*
G36*
X51539149Y-230519472D02*
G01*
X52513127Y-228108794D01*
X54923805Y-229082772D01*
X53949827Y-231493450D01*
X51539149Y-230519472D01*
X51539149Y-230519472D01*
G37*
D12*
X43346638Y-223434611D03*
D11*
G36*
X41654310Y-224152961D02*
G01*
X42628288Y-221742283D01*
X45038966Y-222716261D01*
X44064988Y-225126939D01*
X41654310Y-224152961D01*
X41654310Y-224152961D01*
G37*
D10*
X75813698Y-237663046D03*
D11*
G36*
X77464116Y-236981690D02*
G01*
X76527599Y-239299649D01*
X74163280Y-238344402D01*
X75099797Y-236026443D01*
X77464116Y-236981690D01*
X77464116Y-236981690D01*
G37*
D10*
X88750905Y-240150539D03*
D11*
G36*
X90401323Y-239469183D02*
G01*
X89464806Y-241787142D01*
X87100487Y-240831895D01*
X88037004Y-238513936D01*
X90401323Y-239469183D01*
X90401323Y-239469183D01*
G37*
D12*
X92210529Y-234764334D03*
D11*
G36*
X90518201Y-235482684D02*
G01*
X91492179Y-233072006D01*
X93902857Y-234045984D01*
X92928879Y-236456662D01*
X90518201Y-235482684D01*
X90518201Y-235482684D01*
G37*
D12*
X82325690Y-228397823D03*
D11*
G36*
X80633362Y-229116173D02*
G01*
X81607340Y-226705495D01*
X84018018Y-227679473D01*
X83044040Y-230090151D01*
X80633362Y-229116173D01*
X80633362Y-229116173D01*
G37*
D10*
X6481529Y-257106559D03*
D11*
G36*
X8131947Y-256425203D02*
G01*
X7195430Y-258743162D01*
X4831111Y-257787915D01*
X5767628Y-255469956D01*
X8131947Y-256425203D01*
X8131947Y-256425203D01*
G37*
D10*
X19418736Y-259594052D03*
D11*
G36*
X21069154Y-258912696D02*
G01*
X20132637Y-261230655D01*
X17768318Y-260275408D01*
X18704835Y-257957449D01*
X21069154Y-258912696D01*
X21069154Y-258912696D01*
G37*
D12*
X22878360Y-254207847D03*
D11*
G36*
X21186032Y-254926197D02*
G01*
X22160010Y-252515519D01*
X24570688Y-253489497D01*
X23596710Y-255900175D01*
X21186032Y-254926197D01*
X21186032Y-254926197D01*
G37*
D12*
X12993521Y-247841336D03*
D11*
G36*
X11301193Y-248559686D02*
G01*
X12275171Y-246149008D01*
X14685849Y-247122986D01*
X13711871Y-249533664D01*
X11301193Y-248559686D01*
X11301193Y-248559686D01*
G37*
D10*
X42089122Y-270414426D03*
D11*
G36*
X43739540Y-269733070D02*
G01*
X42803023Y-272051029D01*
X40438704Y-271095782D01*
X41375221Y-268777823D01*
X43739540Y-269733070D01*
X43739540Y-269733070D01*
G37*
D10*
X55026329Y-272901919D03*
D11*
G36*
X56676747Y-272220563D02*
G01*
X55740230Y-274538522D01*
X53375911Y-273583275D01*
X54312428Y-271265316D01*
X56676747Y-272220563D01*
X56676747Y-272220563D01*
G37*
D12*
X58485953Y-267515714D03*
D11*
G36*
X56793625Y-268234064D02*
G01*
X57767603Y-265823386D01*
X60178281Y-266797364D01*
X59204303Y-269208042D01*
X56793625Y-268234064D01*
X56793625Y-268234064D01*
G37*
D12*
X48601114Y-261149203D03*
D11*
G36*
X46908786Y-261867553D02*
G01*
X47882764Y-259456875D01*
X50293442Y-260430853D01*
X49319464Y-262841531D01*
X46908786Y-261867553D01*
X46908786Y-261867553D01*
G37*
D10*
X68696173Y-255279539D03*
D11*
G36*
X70346591Y-254598183D02*
G01*
X69410074Y-256916142D01*
X67045755Y-255960895D01*
X67982272Y-253642936D01*
X70346591Y-254598183D01*
X70346591Y-254598183D01*
G37*
D10*
X81633380Y-257767032D03*
D11*
G36*
X83283798Y-257085676D02*
G01*
X82347281Y-259403635D01*
X79982962Y-258448388D01*
X80919479Y-256130429D01*
X83283798Y-257085676D01*
X83283798Y-257085676D01*
G37*
D12*
X85093004Y-252380827D03*
D11*
G36*
X83400676Y-253099177D02*
G01*
X84374654Y-250688499D01*
X86785332Y-251662477D01*
X85811354Y-254073155D01*
X83400676Y-253099177D01*
X83400676Y-253099177D01*
G37*
D12*
X75208165Y-246014316D03*
D11*
G36*
X73515837Y-246732666D02*
G01*
X74489815Y-244321988D01*
X76900493Y-245295966D01*
X75926515Y-247706644D01*
X73515837Y-246732666D01*
X73515837Y-246732666D01*
G37*
D10*
X22599595Y-267932820D03*
D11*
G36*
X24250013Y-267251464D02*
G01*
X23313496Y-269569423D01*
X20949177Y-268614176D01*
X21885694Y-266296217D01*
X24250013Y-267251464D01*
X24250013Y-267251464D01*
G37*
D10*
X35536802Y-270420313D03*
D11*
G36*
X37187220Y-269738957D02*
G01*
X36250703Y-272056916D01*
X33886384Y-271101669D01*
X34822901Y-268783710D01*
X37187220Y-269738957D01*
X37187220Y-269738957D01*
G37*
D12*
X38996426Y-265034108D03*
D11*
G36*
X37304098Y-265752458D02*
G01*
X38278076Y-263341780D01*
X40688754Y-264315758D01*
X39714776Y-266726436D01*
X37304098Y-265752458D01*
X37304098Y-265752458D01*
G37*
D12*
X29111587Y-258667597D03*
D11*
G36*
X27419259Y-259385947D02*
G01*
X28393237Y-256975269D01*
X30803915Y-257949247D01*
X29829937Y-260359925D01*
X27419259Y-259385947D01*
X27419259Y-259385947D01*
G37*
D10*
X29717121Y-250316327D03*
D11*
G36*
X31367539Y-249634971D02*
G01*
X30431022Y-251952930D01*
X28066703Y-250997683D01*
X29003220Y-248679724D01*
X31367539Y-249634971D01*
X31367539Y-249634971D01*
G37*
D10*
X42654328Y-252803820D03*
D11*
G36*
X44304746Y-252122464D02*
G01*
X43368229Y-254440423D01*
X41003910Y-253485176D01*
X41940427Y-251167217D01*
X44304746Y-252122464D01*
X44304746Y-252122464D01*
G37*
D12*
X46113952Y-247417615D03*
D11*
G36*
X44421624Y-248135965D02*
G01*
X45395602Y-245725287D01*
X47806280Y-246699265D01*
X46832302Y-249109943D01*
X44421624Y-248135965D01*
X44421624Y-248135965D01*
G37*
D12*
X36229113Y-241051104D03*
D11*
G36*
X34536785Y-241769454D02*
G01*
X35510763Y-239358776D01*
X37921441Y-240332754D01*
X36947463Y-242743432D01*
X34536785Y-241769454D01*
X34536785Y-241769454D01*
G37*
D10*
X61578648Y-272896032D03*
D11*
G36*
X63229066Y-272214676D02*
G01*
X62292549Y-274532635D01*
X59928230Y-273577388D01*
X60864747Y-271259429D01*
X63229066Y-272214676D01*
X63229066Y-272214676D01*
G37*
D10*
X74515855Y-275383525D03*
D11*
G36*
X76166273Y-274702169D02*
G01*
X75229756Y-277020128D01*
X72865437Y-276064881D01*
X73801954Y-273746922D01*
X76166273Y-274702169D01*
X76166273Y-274702169D01*
G37*
D12*
X77975479Y-269997320D03*
D11*
G36*
X76283151Y-270715670D02*
G01*
X77257129Y-268304992D01*
X79667807Y-269278970D01*
X78693829Y-271689648D01*
X76283151Y-270715670D01*
X76283151Y-270715670D01*
G37*
D12*
X68090640Y-263630809D03*
D11*
G36*
X66398312Y-264349159D02*
G01*
X67372290Y-261938481D01*
X69782968Y-262912459D01*
X68808990Y-265323137D01*
X66398312Y-264349159D01*
X66398312Y-264349159D01*
G37*
D10*
X56324172Y-235181440D03*
D11*
G36*
X57974590Y-234500084D02*
G01*
X57038073Y-236818043D01*
X54673754Y-235862796D01*
X55610271Y-233544837D01*
X57974590Y-234500084D01*
X57974590Y-234500084D01*
G37*
D10*
X69261379Y-237668933D03*
D11*
G36*
X70911797Y-236987577D02*
G01*
X69975280Y-239305536D01*
X67610961Y-238350289D01*
X68547478Y-236032330D01*
X70911797Y-236987577D01*
X70911797Y-236987577D01*
G37*
D12*
X72721003Y-232282728D03*
D11*
G36*
X71028675Y-233001078D02*
G01*
X72002653Y-230590400D01*
X74413331Y-231564378D01*
X73439353Y-233975056D01*
X71028675Y-233001078D01*
X71028675Y-233001078D01*
G37*
D12*
X62836164Y-225916217D03*
D11*
G36*
X61143836Y-226634567D02*
G01*
X62117814Y-224223889D01*
X64528492Y-225197867D01*
X63554514Y-227608545D01*
X61143836Y-226634567D01*
X61143836Y-226634567D01*
G37*
D10*
X13599054Y-239490066D03*
D11*
G36*
X15249472Y-238808710D02*
G01*
X14312955Y-241126669D01*
X11948636Y-240171422D01*
X12885153Y-237853463D01*
X15249472Y-238808710D01*
X15249472Y-238808710D01*
G37*
D10*
X26536261Y-241977559D03*
D11*
G36*
X28186679Y-241296203D02*
G01*
X27250162Y-243614162D01*
X24885843Y-242658915D01*
X25822360Y-240340956D01*
X28186679Y-241296203D01*
X28186679Y-241296203D01*
G37*
D12*
X29995885Y-236591354D03*
D11*
G36*
X28303557Y-237309704D02*
G01*
X29277535Y-234899026D01*
X31688213Y-235873004D01*
X30714235Y-238283682D01*
X28303557Y-237309704D01*
X28303557Y-237309704D01*
G37*
D12*
X20111046Y-230224843D03*
D11*
G36*
X18418718Y-230943193D02*
G01*
X19392696Y-228532515D01*
X21803374Y-229506493D01*
X20829396Y-231917171D01*
X18418718Y-230943193D01*
X18418718Y-230943193D01*
G37*
D10*
X49206647Y-252797933D03*
D11*
G36*
X50857065Y-252116577D02*
G01*
X49920548Y-254434536D01*
X47556229Y-253479289D01*
X48492746Y-251161330D01*
X50857065Y-252116577D01*
X50857065Y-252116577D01*
G37*
D10*
X62143854Y-255285426D03*
D11*
G36*
X63794272Y-254604070D02*
G01*
X62857755Y-256922029D01*
X60493436Y-255966782D01*
X61429953Y-253648823D01*
X63794272Y-254604070D01*
X63794272Y-254604070D01*
G37*
D12*
X65603478Y-249899221D03*
D11*
G36*
X63911150Y-250617571D02*
G01*
X64885128Y-248206893D01*
X67295806Y-249180871D01*
X66321828Y-251591549D01*
X63911150Y-250617571D01*
X63911150Y-250617571D01*
G37*
D12*
X55718639Y-243532710D03*
D11*
G36*
X54026311Y-244251060D02*
G01*
X55000289Y-241840382D01*
X57410967Y-242814360D01*
X56436989Y-245225038D01*
X54026311Y-244251060D01*
X54026311Y-244251060D01*
G37*
D10*
X20716579Y-221873573D03*
D11*
G36*
X22366997Y-221192217D02*
G01*
X21430480Y-223510176D01*
X19066161Y-222554929D01*
X20002678Y-220236970D01*
X22366997Y-221192217D01*
X22366997Y-221192217D01*
G37*
D10*
X33653786Y-224361066D03*
D11*
G36*
X35304204Y-223679710D02*
G01*
X34367687Y-225997669D01*
X32003368Y-225042422D01*
X32939885Y-222724463D01*
X35304204Y-223679710D01*
X35304204Y-223679710D01*
G37*
D12*
X37113410Y-218974861D03*
D11*
G36*
X35421082Y-219693211D02*
G01*
X36395060Y-217282533D01*
X38805738Y-218256511D01*
X37831760Y-220667189D01*
X35421082Y-219693211D01*
X35421082Y-219693211D01*
G37*
D12*
X27228571Y-212608350D03*
D11*
G36*
X25536243Y-213326700D02*
G01*
X26510221Y-210916022D01*
X28920899Y-211890000D01*
X27946921Y-214300678D01*
X25536243Y-213326700D01*
X25536243Y-213326700D01*
G37*
M02*
