G04 #@! TF.GenerationSoftware,KiCad,Pcbnew,(5.1.4)-1*
G04 #@! TF.CreationDate,2025-05-28T14:17:52-04:00*
G04 #@! TF.ProjectId,ThumbsUp,5468756d-6273-4557-902e-6b696361645f,rev?*
G04 #@! TF.SameCoordinates,Original*
G04 #@! TF.FileFunction,Drawing*
%FSLAX46Y46*%
G04 Gerber Fmt 4.6, Leading zero omitted, Abs format (unit mm)*
G04 Created by KiCad (PCBNEW (5.1.4)-1) date 2025-05-28 14:17:52*
%MOMM*%
%LPD*%
G04 APERTURE LIST*
%ADD10C,0.150000*%
G04 APERTURE END LIST*
D10*
X189134028Y-212901620D02*
X187279660Y-213650833D01*
X187279660Y-213650833D02*
X188028873Y-215505201D01*
X201009447Y-210260709D02*
X200260234Y-208406341D01*
X200260234Y-208406341D02*
X198405866Y-209155554D01*
X200260234Y-208406341D02*
X201009447Y-210260709D01*
X198405866Y-209155554D02*
X200260234Y-208406341D01*
X187279660Y-213650833D02*
X188028873Y-215505201D01*
X189134028Y-212901620D02*
X187279660Y-213650833D01*
X228113080Y-207938408D02*
X226258712Y-208687621D01*
X226258712Y-208687621D02*
X227007925Y-210541989D01*
X239988499Y-205297497D02*
X239239286Y-203443129D01*
X239239286Y-203443129D02*
X237384918Y-204192342D01*
X239239286Y-203443129D02*
X239988499Y-205297497D01*
X237384918Y-204192342D02*
X239239286Y-203443129D01*
X226258712Y-208687621D02*
X227007925Y-210541989D01*
X228113080Y-207938408D02*
X226258712Y-208687621D01*
X208623554Y-210420014D02*
X206769186Y-211169227D01*
X206769186Y-211169227D02*
X207518399Y-213023595D01*
X220498973Y-207779103D02*
X219749760Y-205924735D01*
X219749760Y-205924735D02*
X217895392Y-206673948D01*
X219749760Y-205924735D02*
X220498973Y-207779103D01*
X217895392Y-206673948D02*
X219749760Y-205924735D01*
X206769186Y-211169227D02*
X207518399Y-213023595D01*
X208623554Y-210420014D02*
X206769186Y-211169227D01*
X244231147Y-197112147D02*
X242376779Y-197861360D01*
X242376779Y-197861360D02*
X243125992Y-199715728D01*
X256106566Y-194471236D02*
X255357353Y-192616868D01*
X255357353Y-192616868D02*
X253502985Y-193366081D01*
X255357353Y-192616868D02*
X256106566Y-194471236D01*
X253502985Y-193366081D02*
X255357353Y-192616868D01*
X242376779Y-197861360D02*
X243125992Y-199715728D01*
X244231147Y-197112147D02*
X242376779Y-197861360D01*
X229976130Y-263269494D02*
X228121762Y-264018707D01*
X228121762Y-264018707D02*
X228870975Y-265873075D01*
X241851549Y-260628583D02*
X241102336Y-258774215D01*
X241102336Y-258774215D02*
X239247968Y-259523428D01*
X241102336Y-258774215D02*
X241851549Y-260628583D01*
X239247968Y-259523428D02*
X241102336Y-258774215D01*
X228121762Y-264018707D02*
X228870975Y-265873075D01*
X229976130Y-263269494D02*
X228121762Y-264018707D01*
X222858605Y-245653000D02*
X221004237Y-246402213D01*
X221004237Y-246402213D02*
X221753450Y-248256581D01*
X234734024Y-243012089D02*
X233984811Y-241157721D01*
X233984811Y-241157721D02*
X232130443Y-241906934D01*
X233984811Y-241157721D02*
X234734024Y-243012089D01*
X232130443Y-241906934D02*
X233984811Y-241157721D01*
X221004237Y-246402213D02*
X221753450Y-248256581D01*
X222858605Y-245653000D02*
X221004237Y-246402213D01*
X265583723Y-249961627D02*
X263729355Y-250710840D01*
X263729355Y-250710840D02*
X264478568Y-252565208D01*
X277459142Y-247320716D02*
X276709929Y-245466348D01*
X276709929Y-245466348D02*
X274855561Y-246215561D01*
X276709929Y-245466348D02*
X277459142Y-247320716D01*
X274855561Y-246215561D02*
X276709929Y-245466348D01*
X263729355Y-250710840D02*
X264478568Y-252565208D01*
X265583723Y-249961627D02*
X263729355Y-250710840D01*
X215741079Y-228036507D02*
X213886711Y-228785720D01*
X213886711Y-228785720D02*
X214635924Y-230640088D01*
X227616498Y-225395596D02*
X226867285Y-223541228D01*
X226867285Y-223541228D02*
X225012917Y-224290441D01*
X226867285Y-223541228D02*
X227616498Y-225395596D01*
X225012917Y-224290441D02*
X226867285Y-223541228D01*
X213886711Y-228785720D02*
X214635924Y-230640088D01*
X215741079Y-228036507D02*
X213886711Y-228785720D01*
X258466198Y-232345134D02*
X256611830Y-233094347D01*
X256611830Y-233094347D02*
X257361043Y-234948715D01*
X270341617Y-229704223D02*
X269592404Y-227849855D01*
X269592404Y-227849855D02*
X267738036Y-228599068D01*
X269592404Y-227849855D02*
X270341617Y-229704223D01*
X267738036Y-228599068D02*
X269592404Y-227849855D01*
X256611830Y-233094347D02*
X257361043Y-234948715D01*
X258466198Y-232345134D02*
X256611830Y-233094347D01*
X53285454Y-220925018D02*
X55139822Y-221674231D01*
X55139822Y-221674231D02*
X55889035Y-219819863D01*
X42908461Y-214575371D02*
X42159248Y-216429739D01*
X42159248Y-216429739D02*
X44013616Y-217178952D01*
X42159248Y-216429739D02*
X42908461Y-214575371D01*
X44013616Y-217178952D02*
X42159248Y-216429739D01*
X55139822Y-221674231D02*
X55889035Y-219819863D01*
X53285454Y-220925018D02*
X55139822Y-221674231D01*
X37167387Y-210098758D02*
X39021755Y-210847971D01*
X39021755Y-210847971D02*
X39770968Y-208993603D01*
X26790394Y-203749111D02*
X26041181Y-205603479D01*
X26041181Y-205603479D02*
X27895549Y-206352692D01*
X26041181Y-205603479D02*
X26790394Y-203749111D01*
X27895549Y-206352692D02*
X26041181Y-205603479D01*
X39021755Y-210847971D02*
X39770968Y-208993603D01*
X37167387Y-210098758D02*
X39021755Y-210847971D01*
X251348673Y-214728641D02*
X249494305Y-215477854D01*
X249494305Y-215477854D02*
X250243518Y-217332222D01*
X263224092Y-212087730D02*
X262474879Y-210233362D01*
X262474879Y-210233362D02*
X260620511Y-210982575D01*
X262474879Y-210233362D02*
X263224092Y-212087730D01*
X260620511Y-210982575D02*
X262474879Y-210233362D01*
X249494305Y-215477854D02*
X250243518Y-217332222D01*
X251348673Y-214728641D02*
X249494305Y-215477854D01*
X242348131Y-243171394D02*
X240493763Y-243920607D01*
X240493763Y-243920607D02*
X241242976Y-245774975D01*
X254223550Y-240530483D02*
X253474337Y-238676115D01*
X253474337Y-238676115D02*
X251619969Y-239425328D01*
X253474337Y-238676115D02*
X254223550Y-240530483D01*
X251619969Y-239425328D02*
X253474337Y-238676115D01*
X240493763Y-243920607D02*
X241242976Y-245774975D01*
X242348131Y-243171394D02*
X240493763Y-243920607D01*
X235230606Y-225554901D02*
X233376238Y-226304114D01*
X233376238Y-226304114D02*
X234125451Y-228158482D01*
X247106025Y-222913990D02*
X246356812Y-221059622D01*
X246356812Y-221059622D02*
X244502444Y-221808835D01*
X246356812Y-221059622D02*
X247106025Y-222913990D01*
X244502444Y-221808835D02*
X246356812Y-221059622D01*
X233376238Y-226304114D02*
X234125451Y-228158482D01*
X235230606Y-225554901D02*
X233376238Y-226304114D01*
X92264507Y-225888230D02*
X94118875Y-226637443D01*
X94118875Y-226637443D02*
X94868088Y-224783075D01*
X81887514Y-219538583D02*
X81138301Y-221392951D01*
X81138301Y-221392951D02*
X82992669Y-222142164D01*
X81138301Y-221392951D02*
X81887514Y-219538583D01*
X82992669Y-222142164D02*
X81138301Y-221392951D01*
X94118875Y-226637443D02*
X94868088Y-224783075D01*
X92264507Y-225888230D02*
X94118875Y-226637443D01*
X72774980Y-223406624D02*
X74629348Y-224155837D01*
X74629348Y-224155837D02*
X75378561Y-222301469D01*
X62397987Y-217056977D02*
X61648774Y-218911345D01*
X61648774Y-218911345D02*
X63503142Y-219660558D01*
X61648774Y-218911345D02*
X62397987Y-217056977D01*
X63503142Y-219660558D02*
X61648774Y-218911345D01*
X74629348Y-224155837D02*
X75378561Y-222301469D01*
X72774980Y-223406624D02*
X74629348Y-224155837D01*
X249465656Y-260787888D02*
X247611288Y-261537101D01*
X247611288Y-261537101D02*
X248360501Y-263391469D01*
X261341075Y-258146977D02*
X260591862Y-256292609D01*
X260591862Y-256292609D02*
X258737494Y-257041822D01*
X260591862Y-256292609D02*
X261341075Y-258146977D01*
X258737494Y-257041822D02*
X260591862Y-256292609D01*
X247611288Y-261537101D02*
X248360501Y-263391469D01*
X249465656Y-260787888D02*
X247611288Y-261537101D01*
X203369079Y-248134606D02*
X201514711Y-248883819D01*
X201514711Y-248883819D02*
X202263924Y-250738187D01*
X215244498Y-245493695D02*
X214495285Y-243639327D01*
X214495285Y-243639327D02*
X212640917Y-244388540D01*
X214495285Y-243639327D02*
X215244498Y-245493695D01*
X212640917Y-244388540D02*
X214495285Y-243639327D01*
X201514711Y-248883819D02*
X202263924Y-250738187D01*
X203369079Y-248134606D02*
X201514711Y-248883819D01*
X196251553Y-230518113D02*
X194397185Y-231267326D01*
X194397185Y-231267326D02*
X195146398Y-233121694D01*
X208126972Y-227877202D02*
X207377759Y-226022834D01*
X207377759Y-226022834D02*
X205523391Y-226772047D01*
X207377759Y-226022834D02*
X208126972Y-227877202D01*
X205523391Y-226772047D02*
X207377759Y-226022834D01*
X194397185Y-231267326D02*
X195146398Y-233121694D01*
X196251553Y-230518113D02*
X194397185Y-231267326D01*
X210486604Y-265751100D02*
X208632236Y-266500313D01*
X208632236Y-266500313D02*
X209381449Y-268354681D01*
X222362023Y-263110189D02*
X221612810Y-261255821D01*
X221612810Y-261255821D02*
X219758442Y-262005034D01*
X221612810Y-261255821D02*
X222362023Y-263110189D01*
X219758442Y-262005034D02*
X221612810Y-261255821D01*
X208632236Y-266500313D02*
X209381449Y-268354681D01*
X210486604Y-265751100D02*
X208632236Y-266500313D01*
X46167929Y-238541512D02*
X48022297Y-239290725D01*
X48022297Y-239290725D02*
X48771510Y-237436357D01*
X35790936Y-232191865D02*
X35041723Y-234046233D01*
X35041723Y-234046233D02*
X36896091Y-234795446D01*
X35041723Y-234046233D02*
X35790936Y-232191865D01*
X36896091Y-234795446D02*
X35041723Y-234046233D01*
X48022297Y-239290725D02*
X48771510Y-237436357D01*
X46167929Y-238541512D02*
X48022297Y-239290725D01*
X85146981Y-243504724D02*
X87001349Y-244253937D01*
X87001349Y-244253937D02*
X87750562Y-242399569D01*
X74769988Y-237155077D02*
X74020775Y-239009445D01*
X74020775Y-239009445D02*
X75875143Y-239758658D01*
X74020775Y-239009445D02*
X74769988Y-237155077D01*
X75875143Y-239758658D02*
X74020775Y-239009445D01*
X87001349Y-244253937D02*
X87750562Y-242399569D01*
X85146981Y-243504724D02*
X87001349Y-244253937D01*
X15814812Y-262948237D02*
X17669180Y-263697450D01*
X17669180Y-263697450D02*
X18418393Y-261843082D01*
X5437819Y-256598590D02*
X4688606Y-258452958D01*
X4688606Y-258452958D02*
X6542974Y-259202171D01*
X4688606Y-258452958D02*
X5437819Y-256598590D01*
X6542974Y-259202171D02*
X4688606Y-258452958D01*
X17669180Y-263697450D02*
X18418393Y-261843082D01*
X15814812Y-262948237D02*
X17669180Y-263697450D01*
X51422405Y-276256104D02*
X53276773Y-277005317D01*
X53276773Y-277005317D02*
X54025986Y-275150949D01*
X41045412Y-269906457D02*
X40296199Y-271760825D01*
X40296199Y-271760825D02*
X42150567Y-272510038D01*
X40296199Y-271760825D02*
X41045412Y-269906457D01*
X42150567Y-272510038D02*
X40296199Y-271760825D01*
X53276773Y-277005317D02*
X54025986Y-275150949D01*
X51422405Y-276256104D02*
X53276773Y-277005317D01*
X78029456Y-261121217D02*
X79883824Y-261870430D01*
X79883824Y-261870430D02*
X80633037Y-260016062D01*
X67652463Y-254771570D02*
X66903250Y-256625938D01*
X66903250Y-256625938D02*
X68757618Y-257375151D01*
X66903250Y-256625938D02*
X67652463Y-254771570D01*
X68757618Y-257375151D02*
X66903250Y-256625938D01*
X79883824Y-261870430D02*
X80633037Y-260016062D01*
X78029456Y-261121217D02*
X79883824Y-261870430D01*
X31932878Y-273774498D02*
X33787246Y-274523711D01*
X33787246Y-274523711D02*
X34536459Y-272669343D01*
X21555885Y-267424851D02*
X20806672Y-269279219D01*
X20806672Y-269279219D02*
X22661040Y-270028432D01*
X20806672Y-269279219D02*
X21555885Y-267424851D01*
X22661040Y-270028432D02*
X20806672Y-269279219D01*
X33787246Y-274523711D02*
X34536459Y-272669343D01*
X31932878Y-273774498D02*
X33787246Y-274523711D01*
X39050404Y-256158005D02*
X40904772Y-256907218D01*
X40904772Y-256907218D02*
X41653985Y-255052850D01*
X28673411Y-249808358D02*
X27924198Y-251662726D01*
X27924198Y-251662726D02*
X29778566Y-252411939D01*
X27924198Y-251662726D02*
X28673411Y-249808358D01*
X29778566Y-252411939D02*
X27924198Y-251662726D01*
X40904772Y-256907218D02*
X41653985Y-255052850D01*
X39050404Y-256158005D02*
X40904772Y-256907218D01*
X70911931Y-278737710D02*
X72766299Y-279486923D01*
X72766299Y-279486923D02*
X73515512Y-277632555D01*
X60534938Y-272388063D02*
X59785725Y-274242431D01*
X59785725Y-274242431D02*
X61640093Y-274991644D01*
X59785725Y-274242431D02*
X60534938Y-272388063D01*
X61640093Y-274991644D02*
X59785725Y-274242431D01*
X72766299Y-279486923D02*
X73515512Y-277632555D01*
X70911931Y-278737710D02*
X72766299Y-279486923D01*
X65657455Y-241023118D02*
X67511823Y-241772331D01*
X67511823Y-241772331D02*
X68261036Y-239917963D01*
X55280462Y-234673471D02*
X54531249Y-236527839D01*
X54531249Y-236527839D02*
X56385617Y-237277052D01*
X54531249Y-236527839D02*
X55280462Y-234673471D01*
X56385617Y-237277052D02*
X54531249Y-236527839D01*
X67511823Y-241772331D02*
X68261036Y-239917963D01*
X65657455Y-241023118D02*
X67511823Y-241772331D01*
X22932337Y-245331744D02*
X24786705Y-246080957D01*
X24786705Y-246080957D02*
X25535918Y-244226589D01*
X12555344Y-238982097D02*
X11806131Y-240836465D01*
X11806131Y-240836465D02*
X13660499Y-241585678D01*
X11806131Y-240836465D02*
X12555344Y-238982097D01*
X13660499Y-241585678D02*
X11806131Y-240836465D01*
X24786705Y-246080957D02*
X25535918Y-244226589D01*
X22932337Y-245331744D02*
X24786705Y-246080957D01*
X58539930Y-258639611D02*
X60394298Y-259388824D01*
X60394298Y-259388824D02*
X61143511Y-257534456D01*
X48162937Y-252289964D02*
X47413724Y-254144332D01*
X47413724Y-254144332D02*
X49268092Y-254893545D01*
X47413724Y-254144332D02*
X48162937Y-252289964D01*
X49268092Y-254893545D02*
X47413724Y-254144332D01*
X60394298Y-259388824D02*
X61143511Y-257534456D01*
X58539930Y-258639611D02*
X60394298Y-259388824D01*
X30049862Y-227715251D02*
X31904230Y-228464464D01*
X31904230Y-228464464D02*
X32653443Y-226610096D01*
X19672869Y-221365604D02*
X18923656Y-223219972D01*
X18923656Y-223219972D02*
X20778024Y-223969185D01*
X18923656Y-223219972D02*
X19672869Y-221365604D01*
X20778024Y-223969185D02*
X18923656Y-223219972D01*
X31904230Y-228464464D02*
X32653443Y-226610096D01*
X30049862Y-227715251D02*
X31904230Y-228464464D01*
X194136036Y-215493980D02*
X193648591Y-215177333D01*
X193606217Y-215708041D02*
X193231610Y-214780857D01*
X193584823Y-214638150D01*
X193690965Y-214646625D01*
X193752955Y-214672938D01*
X193832783Y-214743403D01*
X193886299Y-214875858D01*
X193877824Y-214981999D01*
X193851511Y-215043989D01*
X193781046Y-215123818D01*
X193427833Y-215266525D01*
X194337178Y-214847767D02*
X194646240Y-214722898D01*
X194974917Y-215155050D02*
X194533401Y-215333435D01*
X194158794Y-214406251D01*
X194600310Y-214227867D01*
X195485120Y-214383968D02*
X195176059Y-214508837D01*
X195372281Y-214994505D02*
X194997675Y-214067321D01*
X195439191Y-213888937D01*
X195924859Y-213692714D02*
X196014051Y-213913472D01*
X195757616Y-213914361D02*
X196014051Y-213913472D01*
X196199132Y-213735977D01*
X195952949Y-214143594D02*
X196014051Y-213913472D01*
X196217859Y-214036564D01*
X196631284Y-213407300D02*
X196720476Y-213628058D01*
X196464042Y-213628947D02*
X196720476Y-213628058D01*
X196905558Y-213450563D01*
X196659375Y-213858180D02*
X196720476Y-213628058D01*
X196924285Y-213751149D01*
X233115088Y-210530768D02*
X232627643Y-210214121D01*
X232585269Y-210744829D02*
X232210662Y-209817645D01*
X232563875Y-209674938D01*
X232670017Y-209683413D01*
X232732007Y-209709726D01*
X232811835Y-209780191D01*
X232865351Y-209912646D01*
X232856876Y-210018787D01*
X232830563Y-210080777D01*
X232760098Y-210160606D01*
X232406885Y-210303313D01*
X233316230Y-209884555D02*
X233625292Y-209759686D01*
X233953969Y-210191838D02*
X233512453Y-210370223D01*
X233137846Y-209443039D01*
X233579362Y-209264655D01*
X234464172Y-209420756D02*
X234155111Y-209545625D01*
X234351333Y-210031293D02*
X233976727Y-209104109D01*
X234418243Y-208925725D01*
X234903911Y-208729502D02*
X234993103Y-208950260D01*
X234736668Y-208951149D02*
X234993103Y-208950260D01*
X235178184Y-208772765D01*
X234932001Y-209180382D02*
X234993103Y-208950260D01*
X235196911Y-209073352D01*
X235610336Y-208444088D02*
X235699528Y-208664846D01*
X235443094Y-208665735D02*
X235699528Y-208664846D01*
X235884610Y-208487351D01*
X235638427Y-208894968D02*
X235699528Y-208664846D01*
X235903337Y-208787937D01*
X213625562Y-213012374D02*
X213138117Y-212695727D01*
X213095743Y-213226435D02*
X212721136Y-212299251D01*
X213074349Y-212156544D01*
X213180491Y-212165019D01*
X213242481Y-212191332D01*
X213322309Y-212261797D01*
X213375825Y-212394252D01*
X213367350Y-212500393D01*
X213341037Y-212562383D01*
X213270572Y-212642212D01*
X212917359Y-212784919D01*
X213826704Y-212366161D02*
X214135766Y-212241292D01*
X214464443Y-212673444D02*
X214022927Y-212851829D01*
X213648320Y-211924645D01*
X214089836Y-211746261D01*
X214974646Y-211902362D02*
X214665585Y-212027231D01*
X214861807Y-212512899D02*
X214487201Y-211585715D01*
X214928717Y-211407331D01*
X215414385Y-211211108D02*
X215503577Y-211431866D01*
X215247142Y-211432755D02*
X215503577Y-211431866D01*
X215688658Y-211254371D01*
X215442475Y-211661988D02*
X215503577Y-211431866D01*
X215707385Y-211554958D01*
X216120810Y-210925694D02*
X216210002Y-211146452D01*
X215953568Y-211147341D02*
X216210002Y-211146452D01*
X216395084Y-210968957D01*
X216148901Y-211376574D02*
X216210002Y-211146452D01*
X216413811Y-211269543D01*
X249233155Y-199704507D02*
X248745710Y-199387860D01*
X248703336Y-199918568D02*
X248328729Y-198991384D01*
X248681942Y-198848677D01*
X248788084Y-198857152D01*
X248850074Y-198883465D01*
X248929902Y-198953930D01*
X248983418Y-199086385D01*
X248974943Y-199192526D01*
X248948630Y-199254516D01*
X248878165Y-199334345D01*
X248524952Y-199477052D01*
X249434297Y-199058294D02*
X249743359Y-198933425D01*
X250072036Y-199365577D02*
X249630520Y-199543962D01*
X249255913Y-198616778D01*
X249697429Y-198438394D01*
X250582239Y-198594495D02*
X250273178Y-198719364D01*
X250469400Y-199205032D02*
X250094794Y-198277848D01*
X250536310Y-198099464D01*
X251021978Y-197903241D02*
X251111170Y-198123999D01*
X250854735Y-198124888D02*
X251111170Y-198123999D01*
X251296251Y-197946504D01*
X251050068Y-198354121D02*
X251111170Y-198123999D01*
X251314978Y-198247091D01*
X251728403Y-197617827D02*
X251817595Y-197838585D01*
X251561161Y-197839474D02*
X251817595Y-197838585D01*
X252002677Y-197661090D01*
X251756494Y-198068707D02*
X251817595Y-197838585D01*
X252021404Y-197961676D01*
X234978138Y-265861854D02*
X234490693Y-265545207D01*
X234448319Y-266075915D02*
X234073712Y-265148731D01*
X234426925Y-265006024D01*
X234533067Y-265014499D01*
X234595057Y-265040812D01*
X234674885Y-265111277D01*
X234728401Y-265243732D01*
X234719926Y-265349873D01*
X234693613Y-265411863D01*
X234623148Y-265491692D01*
X234269935Y-265634399D01*
X235179280Y-265215641D02*
X235488342Y-265090772D01*
X235817019Y-265522924D02*
X235375503Y-265701309D01*
X235000896Y-264774125D01*
X235442412Y-264595741D01*
X236327222Y-264751842D02*
X236018161Y-264876711D01*
X236214383Y-265362379D02*
X235839777Y-264435195D01*
X236281293Y-264256811D01*
X236766961Y-264060588D02*
X236856153Y-264281346D01*
X236599718Y-264282235D02*
X236856153Y-264281346D01*
X237041234Y-264103851D01*
X236795051Y-264511468D02*
X236856153Y-264281346D01*
X237059961Y-264404438D01*
X237473386Y-263775174D02*
X237562578Y-263995932D01*
X237306144Y-263996821D02*
X237562578Y-263995932D01*
X237747660Y-263818437D01*
X237501477Y-264226054D02*
X237562578Y-263995932D01*
X237766387Y-264119023D01*
X227860613Y-248245360D02*
X227373168Y-247928713D01*
X227330794Y-248459421D02*
X226956187Y-247532237D01*
X227309400Y-247389530D01*
X227415542Y-247398005D01*
X227477532Y-247424318D01*
X227557360Y-247494783D01*
X227610876Y-247627238D01*
X227602401Y-247733379D01*
X227576088Y-247795369D01*
X227505623Y-247875198D01*
X227152410Y-248017905D01*
X228061755Y-247599147D02*
X228370817Y-247474278D01*
X228699494Y-247906430D02*
X228257978Y-248084815D01*
X227883371Y-247157631D01*
X228324887Y-246979247D01*
X229209697Y-247135348D02*
X228900636Y-247260217D01*
X229096858Y-247745885D02*
X228722252Y-246818701D01*
X229163768Y-246640317D01*
X229649436Y-246444094D02*
X229738628Y-246664852D01*
X229482193Y-246665741D02*
X229738628Y-246664852D01*
X229923709Y-246487357D01*
X229677526Y-246894974D02*
X229738628Y-246664852D01*
X229942436Y-246787944D01*
X230355861Y-246158680D02*
X230445053Y-246379438D01*
X230188619Y-246380327D02*
X230445053Y-246379438D01*
X230630135Y-246201943D01*
X230383952Y-246609560D02*
X230445053Y-246379438D01*
X230648862Y-246502529D01*
X270585731Y-252553987D02*
X270098286Y-252237340D01*
X270055912Y-252768048D02*
X269681305Y-251840864D01*
X270034518Y-251698157D01*
X270140660Y-251706632D01*
X270202650Y-251732945D01*
X270282478Y-251803410D01*
X270335994Y-251935865D01*
X270327519Y-252042006D01*
X270301206Y-252103996D01*
X270230741Y-252183825D01*
X269877528Y-252326532D01*
X270786873Y-251907774D02*
X271095935Y-251782905D01*
X271424612Y-252215057D02*
X270983096Y-252393442D01*
X270608489Y-251466258D01*
X271050005Y-251287874D01*
X271934815Y-251443975D02*
X271625754Y-251568844D01*
X271821976Y-252054512D02*
X271447370Y-251127328D01*
X271888886Y-250948944D01*
X272374554Y-250752721D02*
X272463746Y-250973479D01*
X272207311Y-250974368D02*
X272463746Y-250973479D01*
X272648827Y-250795984D01*
X272402644Y-251203601D02*
X272463746Y-250973479D01*
X272667554Y-251096571D01*
X273080979Y-250467307D02*
X273170171Y-250688065D01*
X272913737Y-250688954D02*
X273170171Y-250688065D01*
X273355253Y-250510570D01*
X273109070Y-250918187D02*
X273170171Y-250688065D01*
X273373980Y-250811156D01*
X220743087Y-230628867D02*
X220255642Y-230312220D01*
X220213268Y-230842928D02*
X219838661Y-229915744D01*
X220191874Y-229773037D01*
X220298016Y-229781512D01*
X220360006Y-229807825D01*
X220439834Y-229878290D01*
X220493350Y-230010745D01*
X220484875Y-230116886D01*
X220458562Y-230178876D01*
X220388097Y-230258705D01*
X220034884Y-230401412D01*
X220944229Y-229982654D02*
X221253291Y-229857785D01*
X221581968Y-230289937D02*
X221140452Y-230468322D01*
X220765845Y-229541138D01*
X221207361Y-229362754D01*
X222092171Y-229518855D02*
X221783110Y-229643724D01*
X221979332Y-230129392D02*
X221604726Y-229202208D01*
X222046242Y-229023824D01*
X222531910Y-228827601D02*
X222621102Y-229048359D01*
X222364667Y-229049248D02*
X222621102Y-229048359D01*
X222806183Y-228870864D01*
X222560000Y-229278481D02*
X222621102Y-229048359D01*
X222824910Y-229171451D01*
X223238335Y-228542187D02*
X223327527Y-228762945D01*
X223071093Y-228763834D02*
X223327527Y-228762945D01*
X223512609Y-228585450D01*
X223266426Y-228993067D02*
X223327527Y-228762945D01*
X223531336Y-228886036D01*
X263468206Y-234937494D02*
X262980761Y-234620847D01*
X262938387Y-235151555D02*
X262563780Y-234224371D01*
X262916993Y-234081664D01*
X263023135Y-234090139D01*
X263085125Y-234116452D01*
X263164953Y-234186917D01*
X263218469Y-234319372D01*
X263209994Y-234425513D01*
X263183681Y-234487503D01*
X263113216Y-234567332D01*
X262760003Y-234710039D01*
X263669348Y-234291281D02*
X263978410Y-234166412D01*
X264307087Y-234598564D02*
X263865571Y-234776949D01*
X263490964Y-233849765D01*
X263932480Y-233671381D01*
X264817290Y-233827482D02*
X264508229Y-233952351D01*
X264704451Y-234438019D02*
X264329845Y-233510835D01*
X264771361Y-233332451D01*
X265257029Y-233136228D02*
X265346221Y-233356986D01*
X265089786Y-233357875D02*
X265346221Y-233356986D01*
X265531302Y-233179491D01*
X265285119Y-233587108D02*
X265346221Y-233356986D01*
X265550029Y-233480078D01*
X265963454Y-232850814D02*
X266052646Y-233071572D01*
X265796212Y-233072461D02*
X266052646Y-233071572D01*
X266237728Y-232894077D01*
X265991545Y-233301694D02*
X266052646Y-233071572D01*
X266256455Y-233194663D01*
X48676694Y-215425471D02*
X48546017Y-214859086D01*
X48146875Y-215211410D02*
X48521482Y-214284227D01*
X48874695Y-214426934D01*
X48945159Y-214506762D01*
X48971473Y-214568752D01*
X48979947Y-214674894D01*
X48926432Y-214807349D01*
X48846604Y-214877814D01*
X48784614Y-214904127D01*
X48678472Y-214912602D01*
X48325259Y-214769894D01*
X49270281Y-215100349D02*
X49579343Y-215225218D01*
X49515575Y-215764401D02*
X49074059Y-215586017D01*
X49448666Y-214658833D01*
X49890182Y-214837217D01*
X50418223Y-215564148D02*
X50109162Y-215439279D01*
X49912940Y-215924947D02*
X50287546Y-214997763D01*
X50729062Y-215176147D01*
X51214730Y-215372370D02*
X51125538Y-215593128D01*
X50940457Y-215415632D02*
X51125538Y-215593128D01*
X51381973Y-215594016D01*
X50921730Y-215716219D02*
X51125538Y-215593128D01*
X51186639Y-215823249D01*
X51921156Y-215657784D02*
X51831964Y-215878542D01*
X51646883Y-215701047D02*
X51831964Y-215878542D01*
X52088399Y-215879431D01*
X51628155Y-216001633D02*
X51831964Y-215878542D01*
X51893065Y-216108664D01*
X32558627Y-204599211D02*
X32427950Y-204032826D01*
X32028808Y-204385150D02*
X32403415Y-203457967D01*
X32756628Y-203600674D01*
X32827092Y-203680502D01*
X32853406Y-203742492D01*
X32861880Y-203848634D01*
X32808365Y-203981089D01*
X32728537Y-204051554D01*
X32666547Y-204077867D01*
X32560405Y-204086342D01*
X32207192Y-203943634D01*
X33152214Y-204274089D02*
X33461276Y-204398958D01*
X33397508Y-204938141D02*
X32955992Y-204759757D01*
X33330599Y-203832573D01*
X33772115Y-204010957D01*
X34300156Y-204737888D02*
X33991095Y-204613019D01*
X33794873Y-205098687D02*
X34169479Y-204171503D01*
X34610995Y-204349887D01*
X35096663Y-204546110D02*
X35007471Y-204766868D01*
X34822390Y-204589372D02*
X35007471Y-204766868D01*
X35263906Y-204767756D01*
X34803663Y-204889959D02*
X35007471Y-204766868D01*
X35068572Y-204996989D01*
X35803089Y-204831524D02*
X35713897Y-205052282D01*
X35528816Y-204874787D02*
X35713897Y-205052282D01*
X35970332Y-205053171D01*
X35510088Y-205175373D02*
X35713897Y-205052282D01*
X35774998Y-205282404D01*
X256350681Y-217321001D02*
X255863236Y-217004354D01*
X255820862Y-217535062D02*
X255446255Y-216607878D01*
X255799468Y-216465171D01*
X255905610Y-216473646D01*
X255967600Y-216499959D01*
X256047428Y-216570424D01*
X256100944Y-216702879D01*
X256092469Y-216809020D01*
X256066156Y-216871010D01*
X255995691Y-216950839D01*
X255642478Y-217093546D01*
X256551823Y-216674788D02*
X256860885Y-216549919D01*
X257189562Y-216982071D02*
X256748046Y-217160456D01*
X256373439Y-216233272D01*
X256814955Y-216054888D01*
X257699765Y-216210989D02*
X257390704Y-216335858D01*
X257586926Y-216821526D02*
X257212320Y-215894342D01*
X257653836Y-215715958D01*
X258139504Y-215519735D02*
X258228696Y-215740493D01*
X257972261Y-215741382D02*
X258228696Y-215740493D01*
X258413777Y-215562998D01*
X258167594Y-215970615D02*
X258228696Y-215740493D01*
X258432504Y-215863585D01*
X258845929Y-215234321D02*
X258935121Y-215455079D01*
X258678687Y-215455968D02*
X258935121Y-215455079D01*
X259120203Y-215277584D01*
X258874020Y-215685201D02*
X258935121Y-215455079D01*
X259138930Y-215578170D01*
X247350139Y-245763754D02*
X246862694Y-245447107D01*
X246820320Y-245977815D02*
X246445713Y-245050631D01*
X246798926Y-244907924D01*
X246905068Y-244916399D01*
X246967058Y-244942712D01*
X247046886Y-245013177D01*
X247100402Y-245145632D01*
X247091927Y-245251773D01*
X247065614Y-245313763D01*
X246995149Y-245393592D01*
X246641936Y-245536299D01*
X247551281Y-245117541D02*
X247860343Y-244992672D01*
X248189020Y-245424824D02*
X247747504Y-245603209D01*
X247372897Y-244676025D01*
X247814413Y-244497641D01*
X248699223Y-244653742D02*
X248390162Y-244778611D01*
X248586384Y-245264279D02*
X248211778Y-244337095D01*
X248653294Y-244158711D01*
X249138962Y-243962488D02*
X249228154Y-244183246D01*
X248971719Y-244184135D02*
X249228154Y-244183246D01*
X249413235Y-244005751D01*
X249167052Y-244413368D02*
X249228154Y-244183246D01*
X249431962Y-244306338D01*
X249845387Y-243677074D02*
X249934579Y-243897832D01*
X249678145Y-243898721D02*
X249934579Y-243897832D01*
X250119661Y-243720337D01*
X249873478Y-244127954D02*
X249934579Y-243897832D01*
X250138388Y-244020923D01*
X240232614Y-228147261D02*
X239745169Y-227830614D01*
X239702795Y-228361322D02*
X239328188Y-227434138D01*
X239681401Y-227291431D01*
X239787543Y-227299906D01*
X239849533Y-227326219D01*
X239929361Y-227396684D01*
X239982877Y-227529139D01*
X239974402Y-227635280D01*
X239948089Y-227697270D01*
X239877624Y-227777099D01*
X239524411Y-227919806D01*
X240433756Y-227501048D02*
X240742818Y-227376179D01*
X241071495Y-227808331D02*
X240629979Y-227986716D01*
X240255372Y-227059532D01*
X240696888Y-226881148D01*
X241581698Y-227037249D02*
X241272637Y-227162118D01*
X241468859Y-227647786D02*
X241094253Y-226720602D01*
X241535769Y-226542218D01*
X242021437Y-226345995D02*
X242110629Y-226566753D01*
X241854194Y-226567642D02*
X242110629Y-226566753D01*
X242295710Y-226389258D01*
X242049527Y-226796875D02*
X242110629Y-226566753D01*
X242314437Y-226689845D01*
X242727862Y-226060581D02*
X242817054Y-226281339D01*
X242560620Y-226282228D02*
X242817054Y-226281339D01*
X243002136Y-226103844D01*
X242755953Y-226511461D02*
X242817054Y-226281339D01*
X243020863Y-226404430D01*
X87655747Y-220388683D02*
X87525070Y-219822298D01*
X87125928Y-220174622D02*
X87500535Y-219247439D01*
X87853748Y-219390146D01*
X87924212Y-219469974D01*
X87950526Y-219531964D01*
X87959000Y-219638106D01*
X87905485Y-219770561D01*
X87825657Y-219841026D01*
X87763667Y-219867339D01*
X87657525Y-219875814D01*
X87304312Y-219733106D01*
X88249334Y-220063561D02*
X88558396Y-220188430D01*
X88494628Y-220727613D02*
X88053112Y-220549229D01*
X88427719Y-219622045D01*
X88869235Y-219800429D01*
X89397276Y-220527360D02*
X89088215Y-220402491D01*
X88891993Y-220888159D02*
X89266599Y-219960975D01*
X89708115Y-220139359D01*
X90193783Y-220335582D02*
X90104591Y-220556340D01*
X89919510Y-220378844D02*
X90104591Y-220556340D01*
X90361026Y-220557228D01*
X89900783Y-220679431D02*
X90104591Y-220556340D01*
X90165692Y-220786461D01*
X90900209Y-220620996D02*
X90811017Y-220841754D01*
X90625936Y-220664259D02*
X90811017Y-220841754D01*
X91067452Y-220842643D01*
X90607208Y-220964845D02*
X90811017Y-220841754D01*
X90872118Y-221071876D01*
X68166220Y-217907077D02*
X68035543Y-217340692D01*
X67636401Y-217693016D02*
X68011008Y-216765833D01*
X68364221Y-216908540D01*
X68434685Y-216988368D01*
X68460999Y-217050358D01*
X68469473Y-217156500D01*
X68415958Y-217288955D01*
X68336130Y-217359420D01*
X68274140Y-217385733D01*
X68167998Y-217394208D01*
X67814785Y-217251500D01*
X68759807Y-217581955D02*
X69068869Y-217706824D01*
X69005101Y-218246007D02*
X68563585Y-218067623D01*
X68938192Y-217140439D01*
X69379708Y-217318823D01*
X69907749Y-218045754D02*
X69598688Y-217920885D01*
X69402466Y-218406553D02*
X69777072Y-217479369D01*
X70218588Y-217657753D01*
X70704256Y-217853976D02*
X70615064Y-218074734D01*
X70429983Y-217897238D02*
X70615064Y-218074734D01*
X70871499Y-218075622D01*
X70411256Y-218197825D02*
X70615064Y-218074734D01*
X70676165Y-218304855D01*
X71410682Y-218139390D02*
X71321490Y-218360148D01*
X71136409Y-218182653D02*
X71321490Y-218360148D01*
X71577925Y-218361037D01*
X71117681Y-218483239D02*
X71321490Y-218360148D01*
X71382591Y-218590270D01*
X254467664Y-263380248D02*
X253980219Y-263063601D01*
X253937845Y-263594309D02*
X253563238Y-262667125D01*
X253916451Y-262524418D01*
X254022593Y-262532893D01*
X254084583Y-262559206D01*
X254164411Y-262629671D01*
X254217927Y-262762126D01*
X254209452Y-262868267D01*
X254183139Y-262930257D01*
X254112674Y-263010086D01*
X253759461Y-263152793D01*
X254668806Y-262734035D02*
X254977868Y-262609166D01*
X255306545Y-263041318D02*
X254865029Y-263219703D01*
X254490422Y-262292519D01*
X254931938Y-262114135D01*
X255816748Y-262270236D02*
X255507687Y-262395105D01*
X255703909Y-262880773D02*
X255329303Y-261953589D01*
X255770819Y-261775205D01*
X256256487Y-261578982D02*
X256345679Y-261799740D01*
X256089244Y-261800629D02*
X256345679Y-261799740D01*
X256530760Y-261622245D01*
X256284577Y-262029862D02*
X256345679Y-261799740D01*
X256549487Y-261922832D01*
X256962912Y-261293568D02*
X257052104Y-261514326D01*
X256795670Y-261515215D02*
X257052104Y-261514326D01*
X257237186Y-261336831D01*
X256991003Y-261744448D02*
X257052104Y-261514326D01*
X257255913Y-261637417D01*
X208371087Y-250726966D02*
X207883642Y-250410319D01*
X207841268Y-250941027D02*
X207466661Y-250013843D01*
X207819874Y-249871136D01*
X207926016Y-249879611D01*
X207988006Y-249905924D01*
X208067834Y-249976389D01*
X208121350Y-250108844D01*
X208112875Y-250214985D01*
X208086562Y-250276975D01*
X208016097Y-250356804D01*
X207662884Y-250499511D01*
X208572229Y-250080753D02*
X208881291Y-249955884D01*
X209209968Y-250388036D02*
X208768452Y-250566421D01*
X208393845Y-249639237D01*
X208835361Y-249460853D01*
X209720171Y-249616954D02*
X209411110Y-249741823D01*
X209607332Y-250227491D02*
X209232726Y-249300307D01*
X209674242Y-249121923D01*
X210159910Y-248925700D02*
X210249102Y-249146458D01*
X209992667Y-249147347D02*
X210249102Y-249146458D01*
X210434183Y-248968963D01*
X210188000Y-249376580D02*
X210249102Y-249146458D01*
X210452910Y-249269550D01*
X210866335Y-248640286D02*
X210955527Y-248861044D01*
X210699093Y-248861933D02*
X210955527Y-248861044D01*
X211140609Y-248683549D01*
X210894426Y-249091166D02*
X210955527Y-248861044D01*
X211159336Y-248984135D01*
X201253561Y-233110473D02*
X200766116Y-232793826D01*
X200723742Y-233324534D02*
X200349135Y-232397350D01*
X200702348Y-232254643D01*
X200808490Y-232263118D01*
X200870480Y-232289431D01*
X200950308Y-232359896D01*
X201003824Y-232492351D01*
X200995349Y-232598492D01*
X200969036Y-232660482D01*
X200898571Y-232740311D01*
X200545358Y-232883018D01*
X201454703Y-232464260D02*
X201763765Y-232339391D01*
X202092442Y-232771543D02*
X201650926Y-232949928D01*
X201276319Y-232022744D01*
X201717835Y-231844360D01*
X202602645Y-232000461D02*
X202293584Y-232125330D01*
X202489806Y-232610998D02*
X202115200Y-231683814D01*
X202556716Y-231505430D01*
X203042384Y-231309207D02*
X203131576Y-231529965D01*
X202875141Y-231530854D02*
X203131576Y-231529965D01*
X203316657Y-231352470D01*
X203070474Y-231760087D02*
X203131576Y-231529965D01*
X203335384Y-231653057D01*
X203748809Y-231023793D02*
X203838001Y-231244551D01*
X203581567Y-231245440D02*
X203838001Y-231244551D01*
X204023083Y-231067056D01*
X203776900Y-231474673D02*
X203838001Y-231244551D01*
X204041810Y-231367642D01*
X215488612Y-268343460D02*
X215001167Y-268026813D01*
X214958793Y-268557521D02*
X214584186Y-267630337D01*
X214937399Y-267487630D01*
X215043541Y-267496105D01*
X215105531Y-267522418D01*
X215185359Y-267592883D01*
X215238875Y-267725338D01*
X215230400Y-267831479D01*
X215204087Y-267893469D01*
X215133622Y-267973298D01*
X214780409Y-268116005D01*
X215689754Y-267697247D02*
X215998816Y-267572378D01*
X216327493Y-268004530D02*
X215885977Y-268182915D01*
X215511370Y-267255731D01*
X215952886Y-267077347D01*
X216837696Y-267233448D02*
X216528635Y-267358317D01*
X216724857Y-267843985D02*
X216350251Y-266916801D01*
X216791767Y-266738417D01*
X217277435Y-266542194D02*
X217366627Y-266762952D01*
X217110192Y-266763841D02*
X217366627Y-266762952D01*
X217551708Y-266585457D01*
X217305525Y-266993074D02*
X217366627Y-266762952D01*
X217570435Y-266886044D01*
X217983860Y-266256780D02*
X218073052Y-266477538D01*
X217816618Y-266478427D02*
X218073052Y-266477538D01*
X218258134Y-266300043D01*
X218011951Y-266707660D02*
X218073052Y-266477538D01*
X218276861Y-266600629D01*
X41559169Y-233041965D02*
X41428492Y-232475580D01*
X41029350Y-232827904D02*
X41403957Y-231900721D01*
X41757170Y-232043428D01*
X41827634Y-232123256D01*
X41853948Y-232185246D01*
X41862422Y-232291388D01*
X41808907Y-232423843D01*
X41729079Y-232494308D01*
X41667089Y-232520621D01*
X41560947Y-232529096D01*
X41207734Y-232386388D01*
X42152756Y-232716843D02*
X42461818Y-232841712D01*
X42398050Y-233380895D02*
X41956534Y-233202511D01*
X42331141Y-232275327D01*
X42772657Y-232453711D01*
X43300698Y-233180642D02*
X42991637Y-233055773D01*
X42795415Y-233541441D02*
X43170021Y-232614257D01*
X43611537Y-232792641D01*
X44097205Y-232988864D02*
X44008013Y-233209622D01*
X43822932Y-233032126D02*
X44008013Y-233209622D01*
X44264448Y-233210510D01*
X43804205Y-233332713D02*
X44008013Y-233209622D01*
X44069114Y-233439743D01*
X44803631Y-233274278D02*
X44714439Y-233495036D01*
X44529358Y-233317541D02*
X44714439Y-233495036D01*
X44970874Y-233495925D01*
X44510630Y-233618127D02*
X44714439Y-233495036D01*
X44775540Y-233725158D01*
X80538221Y-238005177D02*
X80407544Y-237438792D01*
X80008402Y-237791116D02*
X80383009Y-236863933D01*
X80736222Y-237006640D01*
X80806686Y-237086468D01*
X80833000Y-237148458D01*
X80841474Y-237254600D01*
X80787959Y-237387055D01*
X80708131Y-237457520D01*
X80646141Y-237483833D01*
X80539999Y-237492308D01*
X80186786Y-237349600D01*
X81131808Y-237680055D02*
X81440870Y-237804924D01*
X81377102Y-238344107D02*
X80935586Y-238165723D01*
X81310193Y-237238539D01*
X81751709Y-237416923D01*
X82279750Y-238143854D02*
X81970689Y-238018985D01*
X81774467Y-238504653D02*
X82149073Y-237577469D01*
X82590589Y-237755853D01*
X83076257Y-237952076D02*
X82987065Y-238172834D01*
X82801984Y-237995338D02*
X82987065Y-238172834D01*
X83243500Y-238173722D01*
X82783257Y-238295925D02*
X82987065Y-238172834D01*
X83048166Y-238402955D01*
X83782683Y-238237490D02*
X83693491Y-238458248D01*
X83508410Y-238280753D02*
X83693491Y-238458248D01*
X83949926Y-238459137D01*
X83489682Y-238581339D02*
X83693491Y-238458248D01*
X83754592Y-238688370D01*
X11206052Y-257448690D02*
X11075375Y-256882305D01*
X10676233Y-257234629D02*
X11050840Y-256307446D01*
X11404053Y-256450153D01*
X11474517Y-256529981D01*
X11500831Y-256591971D01*
X11509305Y-256698113D01*
X11455790Y-256830568D01*
X11375962Y-256901033D01*
X11313972Y-256927346D01*
X11207830Y-256935821D01*
X10854617Y-256793113D01*
X11799639Y-257123568D02*
X12108701Y-257248437D01*
X12044933Y-257787620D02*
X11603417Y-257609236D01*
X11978024Y-256682052D01*
X12419540Y-256860436D01*
X12947581Y-257587367D02*
X12638520Y-257462498D01*
X12442298Y-257948166D02*
X12816904Y-257020982D01*
X13258420Y-257199366D01*
X13744088Y-257395589D02*
X13654896Y-257616347D01*
X13469815Y-257438851D02*
X13654896Y-257616347D01*
X13911331Y-257617235D01*
X13451088Y-257739438D02*
X13654896Y-257616347D01*
X13715997Y-257846468D01*
X14450514Y-257681003D02*
X14361322Y-257901761D01*
X14176241Y-257724266D02*
X14361322Y-257901761D01*
X14617757Y-257902650D01*
X14157513Y-258024852D02*
X14361322Y-257901761D01*
X14422423Y-258131883D01*
X46813645Y-270756557D02*
X46682968Y-270190172D01*
X46283826Y-270542496D02*
X46658433Y-269615313D01*
X47011646Y-269758020D01*
X47082110Y-269837848D01*
X47108424Y-269899838D01*
X47116898Y-270005980D01*
X47063383Y-270138435D01*
X46983555Y-270208900D01*
X46921565Y-270235213D01*
X46815423Y-270243688D01*
X46462210Y-270100980D01*
X47407232Y-270431435D02*
X47716294Y-270556304D01*
X47652526Y-271095487D02*
X47211010Y-270917103D01*
X47585617Y-269989919D01*
X48027133Y-270168303D01*
X48555174Y-270895234D02*
X48246113Y-270770365D01*
X48049891Y-271256033D02*
X48424497Y-270328849D01*
X48866013Y-270507233D01*
X49351681Y-270703456D02*
X49262489Y-270924214D01*
X49077408Y-270746718D02*
X49262489Y-270924214D01*
X49518924Y-270925102D01*
X49058681Y-271047305D02*
X49262489Y-270924214D01*
X49323590Y-271154335D01*
X50058107Y-270988870D02*
X49968915Y-271209628D01*
X49783834Y-271032133D02*
X49968915Y-271209628D01*
X50225350Y-271210517D01*
X49765106Y-271332719D02*
X49968915Y-271209628D01*
X50030016Y-271439750D01*
X73420696Y-255621670D02*
X73290019Y-255055285D01*
X72890877Y-255407609D02*
X73265484Y-254480426D01*
X73618697Y-254623133D01*
X73689161Y-254702961D01*
X73715475Y-254764951D01*
X73723949Y-254871093D01*
X73670434Y-255003548D01*
X73590606Y-255074013D01*
X73528616Y-255100326D01*
X73422474Y-255108801D01*
X73069261Y-254966093D01*
X74014283Y-255296548D02*
X74323345Y-255421417D01*
X74259577Y-255960600D02*
X73818061Y-255782216D01*
X74192668Y-254855032D01*
X74634184Y-255033416D01*
X75162225Y-255760347D02*
X74853164Y-255635478D01*
X74656942Y-256121146D02*
X75031548Y-255193962D01*
X75473064Y-255372346D01*
X75958732Y-255568569D02*
X75869540Y-255789327D01*
X75684459Y-255611831D02*
X75869540Y-255789327D01*
X76125975Y-255790215D01*
X75665732Y-255912418D02*
X75869540Y-255789327D01*
X75930641Y-256019448D01*
X76665158Y-255853983D02*
X76575966Y-256074741D01*
X76390885Y-255897246D02*
X76575966Y-256074741D01*
X76832401Y-256075630D01*
X76372157Y-256197832D02*
X76575966Y-256074741D01*
X76637067Y-256304863D01*
X27324118Y-268274951D02*
X27193441Y-267708566D01*
X26794299Y-268060890D02*
X27168906Y-267133707D01*
X27522119Y-267276414D01*
X27592583Y-267356242D01*
X27618897Y-267418232D01*
X27627371Y-267524374D01*
X27573856Y-267656829D01*
X27494028Y-267727294D01*
X27432038Y-267753607D01*
X27325896Y-267762082D01*
X26972683Y-267619374D01*
X27917705Y-267949829D02*
X28226767Y-268074698D01*
X28162999Y-268613881D02*
X27721483Y-268435497D01*
X28096090Y-267508313D01*
X28537606Y-267686697D01*
X29065647Y-268413628D02*
X28756586Y-268288759D01*
X28560364Y-268774427D02*
X28934970Y-267847243D01*
X29376486Y-268025627D01*
X29862154Y-268221850D02*
X29772962Y-268442608D01*
X29587881Y-268265112D02*
X29772962Y-268442608D01*
X30029397Y-268443496D01*
X29569154Y-268565699D02*
X29772962Y-268442608D01*
X29834063Y-268672729D01*
X30568580Y-268507264D02*
X30479388Y-268728022D01*
X30294307Y-268550527D02*
X30479388Y-268728022D01*
X30735823Y-268728911D01*
X30275579Y-268851113D02*
X30479388Y-268728022D01*
X30540489Y-268958144D01*
X34441644Y-250658458D02*
X34310967Y-250092073D01*
X33911825Y-250444397D02*
X34286432Y-249517214D01*
X34639645Y-249659921D01*
X34710109Y-249739749D01*
X34736423Y-249801739D01*
X34744897Y-249907881D01*
X34691382Y-250040336D01*
X34611554Y-250110801D01*
X34549564Y-250137114D01*
X34443422Y-250145589D01*
X34090209Y-250002881D01*
X35035231Y-250333336D02*
X35344293Y-250458205D01*
X35280525Y-250997388D02*
X34839009Y-250819004D01*
X35213616Y-249891820D01*
X35655132Y-250070204D01*
X36183173Y-250797135D02*
X35874112Y-250672266D01*
X35677890Y-251157934D02*
X36052496Y-250230750D01*
X36494012Y-250409134D01*
X36979680Y-250605357D02*
X36890488Y-250826115D01*
X36705407Y-250648619D02*
X36890488Y-250826115D01*
X37146923Y-250827003D01*
X36686680Y-250949206D02*
X36890488Y-250826115D01*
X36951589Y-251056236D01*
X37686106Y-250890771D02*
X37596914Y-251111529D01*
X37411833Y-250934034D02*
X37596914Y-251111529D01*
X37853349Y-251112418D01*
X37393105Y-251234620D02*
X37596914Y-251111529D01*
X37658015Y-251341651D01*
X66303171Y-273238163D02*
X66172494Y-272671778D01*
X65773352Y-273024102D02*
X66147959Y-272096919D01*
X66501172Y-272239626D01*
X66571636Y-272319454D01*
X66597950Y-272381444D01*
X66606424Y-272487586D01*
X66552909Y-272620041D01*
X66473081Y-272690506D01*
X66411091Y-272716819D01*
X66304949Y-272725294D01*
X65951736Y-272582586D01*
X66896758Y-272913041D02*
X67205820Y-273037910D01*
X67142052Y-273577093D02*
X66700536Y-273398709D01*
X67075143Y-272471525D01*
X67516659Y-272649909D01*
X68044700Y-273376840D02*
X67735639Y-273251971D01*
X67539417Y-273737639D02*
X67914023Y-272810455D01*
X68355539Y-272988839D01*
X68841207Y-273185062D02*
X68752015Y-273405820D01*
X68566934Y-273228324D02*
X68752015Y-273405820D01*
X69008450Y-273406708D01*
X68548207Y-273528911D02*
X68752015Y-273405820D01*
X68813116Y-273635941D01*
X69547633Y-273470476D02*
X69458441Y-273691234D01*
X69273360Y-273513739D02*
X69458441Y-273691234D01*
X69714876Y-273692123D01*
X69254632Y-273814325D02*
X69458441Y-273691234D01*
X69519542Y-273921356D01*
X61048695Y-235523571D02*
X60918018Y-234957186D01*
X60518876Y-235309510D02*
X60893483Y-234382327D01*
X61246696Y-234525034D01*
X61317160Y-234604862D01*
X61343474Y-234666852D01*
X61351948Y-234772994D01*
X61298433Y-234905449D01*
X61218605Y-234975914D01*
X61156615Y-235002227D01*
X61050473Y-235010702D01*
X60697260Y-234867994D01*
X61642282Y-235198449D02*
X61951344Y-235323318D01*
X61887576Y-235862501D02*
X61446060Y-235684117D01*
X61820667Y-234756933D01*
X62262183Y-234935317D01*
X62790224Y-235662248D02*
X62481163Y-235537379D01*
X62284941Y-236023047D02*
X62659547Y-235095863D01*
X63101063Y-235274247D01*
X63586731Y-235470470D02*
X63497539Y-235691228D01*
X63312458Y-235513732D02*
X63497539Y-235691228D01*
X63753974Y-235692116D01*
X63293731Y-235814319D02*
X63497539Y-235691228D01*
X63558640Y-235921349D01*
X64293157Y-235755884D02*
X64203965Y-235976642D01*
X64018884Y-235799147D02*
X64203965Y-235976642D01*
X64460400Y-235977531D01*
X64000156Y-236099733D02*
X64203965Y-235976642D01*
X64265066Y-236206764D01*
X18323577Y-239832197D02*
X18192900Y-239265812D01*
X17793758Y-239618136D02*
X18168365Y-238690953D01*
X18521578Y-238833660D01*
X18592042Y-238913488D01*
X18618356Y-238975478D01*
X18626830Y-239081620D01*
X18573315Y-239214075D01*
X18493487Y-239284540D01*
X18431497Y-239310853D01*
X18325355Y-239319328D01*
X17972142Y-239176620D01*
X18917164Y-239507075D02*
X19226226Y-239631944D01*
X19162458Y-240171127D02*
X18720942Y-239992743D01*
X19095549Y-239065559D01*
X19537065Y-239243943D01*
X20065106Y-239970874D02*
X19756045Y-239846005D01*
X19559823Y-240331673D02*
X19934429Y-239404489D01*
X20375945Y-239582873D01*
X20861613Y-239779096D02*
X20772421Y-239999854D01*
X20587340Y-239822358D02*
X20772421Y-239999854D01*
X21028856Y-240000742D01*
X20568613Y-240122945D02*
X20772421Y-239999854D01*
X20833522Y-240229975D01*
X21568039Y-240064510D02*
X21478847Y-240285268D01*
X21293766Y-240107773D02*
X21478847Y-240285268D01*
X21735282Y-240286157D01*
X21275038Y-240408359D02*
X21478847Y-240285268D01*
X21539948Y-240515390D01*
X53931170Y-253140064D02*
X53800493Y-252573679D01*
X53401351Y-252926003D02*
X53775958Y-251998820D01*
X54129171Y-252141527D01*
X54199635Y-252221355D01*
X54225949Y-252283345D01*
X54234423Y-252389487D01*
X54180908Y-252521942D01*
X54101080Y-252592407D01*
X54039090Y-252618720D01*
X53932948Y-252627195D01*
X53579735Y-252484487D01*
X54524757Y-252814942D02*
X54833819Y-252939811D01*
X54770051Y-253478994D02*
X54328535Y-253300610D01*
X54703142Y-252373426D01*
X55144658Y-252551810D01*
X55672699Y-253278741D02*
X55363638Y-253153872D01*
X55167416Y-253639540D02*
X55542022Y-252712356D01*
X55983538Y-252890740D01*
X56469206Y-253086963D02*
X56380014Y-253307721D01*
X56194933Y-253130225D02*
X56380014Y-253307721D01*
X56636449Y-253308609D01*
X56176206Y-253430812D02*
X56380014Y-253307721D01*
X56441115Y-253537842D01*
X57175632Y-253372377D02*
X57086440Y-253593135D01*
X56901359Y-253415640D02*
X57086440Y-253593135D01*
X57342875Y-253594024D01*
X56882631Y-253716226D02*
X57086440Y-253593135D01*
X57147541Y-253823257D01*
X25441102Y-222215704D02*
X25310425Y-221649319D01*
X24911283Y-222001643D02*
X25285890Y-221074460D01*
X25639103Y-221217167D01*
X25709567Y-221296995D01*
X25735881Y-221358985D01*
X25744355Y-221465127D01*
X25690840Y-221597582D01*
X25611012Y-221668047D01*
X25549022Y-221694360D01*
X25442880Y-221702835D01*
X25089667Y-221560127D01*
X26034689Y-221890582D02*
X26343751Y-222015451D01*
X26279983Y-222554634D02*
X25838467Y-222376250D01*
X26213074Y-221449066D01*
X26654590Y-221627450D01*
X27182631Y-222354381D02*
X26873570Y-222229512D01*
X26677348Y-222715180D02*
X27051954Y-221787996D01*
X27493470Y-221966380D01*
X27979138Y-222162603D02*
X27889946Y-222383361D01*
X27704865Y-222205865D02*
X27889946Y-222383361D01*
X28146381Y-222384249D01*
X27686138Y-222506452D02*
X27889946Y-222383361D01*
X27951047Y-222613482D01*
X28685564Y-222448017D02*
X28596372Y-222668775D01*
X28411291Y-222491280D02*
X28596372Y-222668775D01*
X28852807Y-222669664D01*
X28392563Y-222791866D02*
X28596372Y-222668775D01*
X28657473Y-222898897D01*
M02*
