G04 #@! TF.GenerationSoftware,KiCad,Pcbnew,(5.1.4)-1*
G04 #@! TF.CreationDate,2025-05-28T14:17:52-04:00*
G04 #@! TF.ProjectId,ThumbsUp,5468756d-6273-4557-902e-6b696361645f,rev?*
G04 #@! TF.SameCoordinates,Original*
G04 #@! TF.FileFunction,Other,Fab,Bot*
%FSLAX46Y46*%
G04 Gerber Fmt 4.6, Leading zero omitted, Abs format (unit mm)*
G04 Created by KiCad (PCBNEW (5.1.4)-1) date 2025-05-28 14:17:52*
%MOMM*%
%LPD*%
G04 APERTURE LIST*
%ADD10C,0.120000*%
%ADD11C,0.150000*%
G04 APERTURE END LIST*
D10*
X188520463Y-223395596D02*
X190838423Y-222459080D01*
X200025942Y-221173784D02*
X202343902Y-220237268D01*
X202343902Y-220237268D02*
X203280418Y-222555227D01*
X203280418Y-222555227D02*
X200962459Y-223491744D01*
X189456979Y-225713556D02*
X188520463Y-223395596D01*
X199838639Y-220710192D02*
X201131031Y-223908976D01*
D11*
X194898368Y-220495195D02*
X194636143Y-219846166D01*
X194636143Y-219846166D02*
X190463816Y-221531896D01*
X196851054Y-221324061D02*
G75*
G02X194898368Y-220495195I-561910J1390776D01*
G01*
X198073191Y-225683691D02*
X197422296Y-225407403D01*
X197047689Y-224480219D02*
X197422296Y-225407403D01*
X192224467Y-225889660D02*
X196396794Y-224203930D01*
X199819908Y-220663833D02*
X199169013Y-220387544D01*
X199169013Y-220387544D02*
X196851054Y-221324061D01*
X201131031Y-223908976D02*
X200854743Y-224559872D01*
X200854743Y-224559872D02*
X198073191Y-225683691D01*
X196396795Y-224203931D02*
G75*
G02X197047689Y-224480219I187303J-463591D01*
G01*
D10*
X190463816Y-221531896D02*
X192224467Y-225889660D01*
X191774939Y-224777039D02*
X189456979Y-225713556D01*
X227499515Y-218432384D02*
X229817475Y-217495868D01*
X239004994Y-216210572D02*
X241322954Y-215274056D01*
X241322954Y-215274056D02*
X242259470Y-217592015D01*
X242259470Y-217592015D02*
X239941511Y-218528532D01*
X228436031Y-220750344D02*
X227499515Y-218432384D01*
X238817691Y-215746980D02*
X240110083Y-218945764D01*
D11*
X233877420Y-215531983D02*
X233615195Y-214882954D01*
X233615195Y-214882954D02*
X229442868Y-216568684D01*
X235830106Y-216360849D02*
G75*
G02X233877420Y-215531983I-561910J1390776D01*
G01*
X237052243Y-220720479D02*
X236401348Y-220444191D01*
X236026741Y-219517007D02*
X236401348Y-220444191D01*
X231203519Y-220926448D02*
X235375846Y-219240718D01*
X238798960Y-215700621D02*
X238148065Y-215424332D01*
X238148065Y-215424332D02*
X235830106Y-216360849D01*
X240110083Y-218945764D02*
X239833795Y-219596660D01*
X239833795Y-219596660D02*
X237052243Y-220720479D01*
X235375847Y-219240719D02*
G75*
G02X236026741Y-219517007I187303J-463591D01*
G01*
D10*
X229442868Y-216568684D02*
X231203519Y-220926448D01*
X230753991Y-219813827D02*
X228436031Y-220750344D01*
X208009989Y-220913990D02*
X210327949Y-219977474D01*
X219515468Y-218692178D02*
X221833428Y-217755662D01*
X221833428Y-217755662D02*
X222769944Y-220073621D01*
X222769944Y-220073621D02*
X220451985Y-221010138D01*
X208946505Y-223231950D02*
X208009989Y-220913990D01*
X219328165Y-218228586D02*
X220620557Y-221427370D01*
D11*
X214387894Y-218013589D02*
X214125669Y-217364560D01*
X214125669Y-217364560D02*
X209953342Y-219050290D01*
X216340580Y-218842455D02*
G75*
G02X214387894Y-218013589I-561910J1390776D01*
G01*
X217562717Y-223202085D02*
X216911822Y-222925797D01*
X216537215Y-221998613D02*
X216911822Y-222925797D01*
X211713993Y-223408054D02*
X215886320Y-221722324D01*
X219309434Y-218182227D02*
X218658539Y-217905938D01*
X218658539Y-217905938D02*
X216340580Y-218842455D01*
X220620557Y-221427370D02*
X220344269Y-222078266D01*
X220344269Y-222078266D02*
X217562717Y-223202085D01*
X215886321Y-221722325D02*
G75*
G02X216537215Y-221998613I187303J-463591D01*
G01*
D10*
X209953342Y-219050290D02*
X211713993Y-223408054D01*
X211264465Y-222295433D02*
X208946505Y-223231950D01*
X243617582Y-207606123D02*
X245935542Y-206669607D01*
X255123061Y-205384311D02*
X257441021Y-204447795D01*
X257441021Y-204447795D02*
X258377537Y-206765754D01*
X258377537Y-206765754D02*
X256059578Y-207702271D01*
X244554098Y-209924083D02*
X243617582Y-207606123D01*
X254935758Y-204920719D02*
X256228150Y-208119503D01*
D11*
X249995487Y-204705722D02*
X249733262Y-204056693D01*
X249733262Y-204056693D02*
X245560935Y-205742423D01*
X251948173Y-205534588D02*
G75*
G02X249995487Y-204705722I-561910J1390776D01*
G01*
X253170310Y-209894218D02*
X252519415Y-209617930D01*
X252144808Y-208690746D02*
X252519415Y-209617930D01*
X247321586Y-210100187D02*
X251493913Y-208414457D01*
X254917027Y-204874360D02*
X254266132Y-204598071D01*
X254266132Y-204598071D02*
X251948173Y-205534588D01*
X256228150Y-208119503D02*
X255951862Y-208770399D01*
X255951862Y-208770399D02*
X253170310Y-209894218D01*
X251493914Y-208414458D02*
G75*
G02X252144808Y-208690746I187303J-463591D01*
G01*
D10*
X245560935Y-205742423D02*
X247321586Y-210100187D01*
X246872058Y-208987566D02*
X244554098Y-209924083D01*
X229362565Y-273763470D02*
X231680525Y-272826954D01*
X240868044Y-271541658D02*
X243186004Y-270605142D01*
X243186004Y-270605142D02*
X244122520Y-272923101D01*
X244122520Y-272923101D02*
X241804561Y-273859618D01*
X230299081Y-276081430D02*
X229362565Y-273763470D01*
X240680741Y-271078066D02*
X241973133Y-274276850D01*
D11*
X235740470Y-270863069D02*
X235478245Y-270214040D01*
X235478245Y-270214040D02*
X231305918Y-271899770D01*
X237693156Y-271691935D02*
G75*
G02X235740470Y-270863069I-561910J1390776D01*
G01*
X238915293Y-276051565D02*
X238264398Y-275775277D01*
X237889791Y-274848093D02*
X238264398Y-275775277D01*
X233066569Y-276257534D02*
X237238896Y-274571804D01*
X240662010Y-271031707D02*
X240011115Y-270755418D01*
X240011115Y-270755418D02*
X237693156Y-271691935D01*
X241973133Y-274276850D02*
X241696845Y-274927746D01*
X241696845Y-274927746D02*
X238915293Y-276051565D01*
X237238897Y-274571805D02*
G75*
G02X237889791Y-274848093I187303J-463591D01*
G01*
D10*
X231305918Y-271899770D02*
X233066569Y-276257534D01*
X232617041Y-275144913D02*
X230299081Y-276081430D01*
X222245040Y-256146976D02*
X224563000Y-255210460D01*
X233750519Y-253925164D02*
X236068479Y-252988648D01*
X236068479Y-252988648D02*
X237004995Y-255306607D01*
X237004995Y-255306607D02*
X234687036Y-256243124D01*
X223181556Y-258464936D02*
X222245040Y-256146976D01*
X233563216Y-253461572D02*
X234855608Y-256660356D01*
D11*
X228622945Y-253246575D02*
X228360720Y-252597546D01*
X228360720Y-252597546D02*
X224188393Y-254283276D01*
X230575631Y-254075441D02*
G75*
G02X228622945Y-253246575I-561910J1390776D01*
G01*
X231797768Y-258435071D02*
X231146873Y-258158783D01*
X230772266Y-257231599D02*
X231146873Y-258158783D01*
X225949044Y-258641040D02*
X230121371Y-256955310D01*
X233544485Y-253415213D02*
X232893590Y-253138924D01*
X232893590Y-253138924D02*
X230575631Y-254075441D01*
X234855608Y-256660356D02*
X234579320Y-257311252D01*
X234579320Y-257311252D02*
X231797768Y-258435071D01*
X230121372Y-256955311D02*
G75*
G02X230772266Y-257231599I187303J-463591D01*
G01*
D10*
X224188393Y-254283276D02*
X225949044Y-258641040D01*
X225499516Y-257528419D02*
X223181556Y-258464936D01*
X264970158Y-260455603D02*
X267288118Y-259519087D01*
X276475637Y-258233791D02*
X278793597Y-257297275D01*
X278793597Y-257297275D02*
X279730113Y-259615234D01*
X279730113Y-259615234D02*
X277412154Y-260551751D01*
X265906674Y-262773563D02*
X264970158Y-260455603D01*
X276288334Y-257770199D02*
X277580726Y-260968983D01*
D11*
X271348063Y-257555202D02*
X271085838Y-256906173D01*
X271085838Y-256906173D02*
X266913511Y-258591903D01*
X273300749Y-258384068D02*
G75*
G02X271348063Y-257555202I-561910J1390776D01*
G01*
X274522886Y-262743698D02*
X273871991Y-262467410D01*
X273497384Y-261540226D02*
X273871991Y-262467410D01*
X268674162Y-262949667D02*
X272846489Y-261263937D01*
X276269603Y-257723840D02*
X275618708Y-257447551D01*
X275618708Y-257447551D02*
X273300749Y-258384068D01*
X277580726Y-260968983D02*
X277304438Y-261619879D01*
X277304438Y-261619879D02*
X274522886Y-262743698D01*
X272846490Y-261263938D02*
G75*
G02X273497384Y-261540226I187303J-463591D01*
G01*
D10*
X266913511Y-258591903D02*
X268674162Y-262949667D01*
X268224634Y-261837046D02*
X265906674Y-262773563D01*
X215127514Y-238530483D02*
X217445474Y-237593967D01*
X226632993Y-236308671D02*
X228950953Y-235372155D01*
X228950953Y-235372155D02*
X229887469Y-237690114D01*
X229887469Y-237690114D02*
X227569510Y-238626631D01*
X216064030Y-240848443D02*
X215127514Y-238530483D01*
X226445690Y-235845079D02*
X227738082Y-239043863D01*
D11*
X221505419Y-235630082D02*
X221243194Y-234981053D01*
X221243194Y-234981053D02*
X217070867Y-236666783D01*
X223458105Y-236458948D02*
G75*
G02X221505419Y-235630082I-561910J1390776D01*
G01*
X224680242Y-240818578D02*
X224029347Y-240542290D01*
X223654740Y-239615106D02*
X224029347Y-240542290D01*
X218831518Y-241024547D02*
X223003845Y-239338817D01*
X226426959Y-235798720D02*
X225776064Y-235522431D01*
X225776064Y-235522431D02*
X223458105Y-236458948D01*
X227738082Y-239043863D02*
X227461794Y-239694759D01*
X227461794Y-239694759D02*
X224680242Y-240818578D01*
X223003846Y-239338818D02*
G75*
G02X223654740Y-239615106I187303J-463591D01*
G01*
D10*
X217070867Y-236666783D02*
X218831518Y-241024547D01*
X218381990Y-239911926D02*
X216064030Y-240848443D01*
X257852633Y-242839110D02*
X260170593Y-241902594D01*
X269358112Y-240617298D02*
X271676072Y-239680782D01*
X271676072Y-239680782D02*
X272612588Y-241998741D01*
X272612588Y-241998741D02*
X270294629Y-242935258D01*
X258789149Y-245157070D02*
X257852633Y-242839110D01*
X269170809Y-240153706D02*
X270463201Y-243352490D01*
D11*
X264230538Y-239938709D02*
X263968313Y-239289680D01*
X263968313Y-239289680D02*
X259795986Y-240975410D01*
X266183224Y-240767575D02*
G75*
G02X264230538Y-239938709I-561910J1390776D01*
G01*
X267405361Y-245127205D02*
X266754466Y-244850917D01*
X266379859Y-243923733D02*
X266754466Y-244850917D01*
X261556637Y-245333174D02*
X265728964Y-243647444D01*
X269152078Y-240107347D02*
X268501183Y-239831058D01*
X268501183Y-239831058D02*
X266183224Y-240767575D01*
X270463201Y-243352490D02*
X270186913Y-244003386D01*
X270186913Y-244003386D02*
X267405361Y-245127205D01*
X265728965Y-243647445D02*
G75*
G02X266379859Y-243923733I187303J-463591D01*
G01*
D10*
X259795986Y-240975410D02*
X261556637Y-245333174D01*
X261107109Y-244220553D02*
X258789149Y-245157070D01*
X61016544Y-213802501D02*
X58698584Y-212865985D01*
X51196795Y-207408362D02*
X48878835Y-206471845D01*
X48878835Y-206471845D02*
X49815351Y-204153885D01*
X49815351Y-204153885D02*
X52133311Y-205090402D01*
X61953061Y-211484541D02*
X61016544Y-213802501D01*
X51009491Y-207871953D02*
X52301884Y-204673169D01*
D11*
X54413875Y-211458410D02*
X54151651Y-212107439D01*
X54151651Y-212107439D02*
X58323978Y-213793168D01*
X53585009Y-209505724D02*
G75*
G02X54413875Y-211458410I-561910J-1390776D01*
G01*
X55734331Y-205520700D02*
X56010619Y-206171596D01*
X55636013Y-207098779D02*
X56010619Y-206171596D01*
X60084629Y-209435404D02*
X55912302Y-207749675D01*
X50990761Y-207918313D02*
X51267050Y-208569208D01*
X51267050Y-208569208D02*
X53585009Y-209505724D01*
X52301884Y-204673169D02*
X52952779Y-204396881D01*
X52952779Y-204396881D02*
X55734331Y-205520700D01*
X55912301Y-207749675D02*
G75*
G02X55636013Y-207098779I187304J463592D01*
G01*
D10*
X58323978Y-213793168D02*
X60084629Y-209435404D01*
X59635101Y-210548025D02*
X61953061Y-211484541D01*
X44898477Y-202976241D02*
X42580517Y-202039725D01*
X35078728Y-196582102D02*
X32760768Y-195645585D01*
X32760768Y-195645585D02*
X33697284Y-193327625D01*
X33697284Y-193327625D02*
X36015244Y-194264142D01*
X45834994Y-200658281D02*
X44898477Y-202976241D01*
X34891424Y-197045693D02*
X36183817Y-193846909D01*
D11*
X38295808Y-200632150D02*
X38033584Y-201281179D01*
X38033584Y-201281179D02*
X42205911Y-202966908D01*
X37466942Y-198679464D02*
G75*
G02X38295808Y-200632150I-561910J-1390776D01*
G01*
X39616264Y-194694440D02*
X39892552Y-195345336D01*
X39517946Y-196272519D02*
X39892552Y-195345336D01*
X43966562Y-198609144D02*
X39794235Y-196923415D01*
X34872694Y-197092053D02*
X35148983Y-197742948D01*
X35148983Y-197742948D02*
X37466942Y-198679464D01*
X36183817Y-193846909D02*
X36834712Y-193570621D01*
X36834712Y-193570621D02*
X39616264Y-194694440D01*
X39794234Y-196923415D02*
G75*
G02X39517946Y-196272519I187304J463592D01*
G01*
D10*
X42205911Y-202966908D02*
X43966562Y-198609144D01*
X43517034Y-199721765D02*
X45834994Y-200658281D01*
X250735108Y-225222617D02*
X253053068Y-224286101D01*
X262240587Y-223000805D02*
X264558547Y-222064289D01*
X264558547Y-222064289D02*
X265495063Y-224382248D01*
X265495063Y-224382248D02*
X263177104Y-225318765D01*
X251671624Y-227540577D02*
X250735108Y-225222617D01*
X262053284Y-222537213D02*
X263345676Y-225735997D01*
D11*
X257113013Y-222322216D02*
X256850788Y-221673187D01*
X256850788Y-221673187D02*
X252678461Y-223358917D01*
X259065699Y-223151082D02*
G75*
G02X257113013Y-222322216I-561910J1390776D01*
G01*
X260287836Y-227510712D02*
X259636941Y-227234424D01*
X259262334Y-226307240D02*
X259636941Y-227234424D01*
X254439112Y-227716681D02*
X258611439Y-226030951D01*
X262034553Y-222490854D02*
X261383658Y-222214565D01*
X261383658Y-222214565D02*
X259065699Y-223151082D01*
X263345676Y-225735997D02*
X263069388Y-226386893D01*
X263069388Y-226386893D02*
X260287836Y-227510712D01*
X258611440Y-226030952D02*
G75*
G02X259262334Y-226307240I187303J-463591D01*
G01*
D10*
X252678461Y-223358917D02*
X254439112Y-227716681D01*
X253989584Y-226604060D02*
X251671624Y-227540577D01*
X241734566Y-253665370D02*
X244052526Y-252728854D01*
X253240045Y-251443558D02*
X255558005Y-250507042D01*
X255558005Y-250507042D02*
X256494521Y-252825001D01*
X256494521Y-252825001D02*
X254176562Y-253761518D01*
X242671082Y-255983330D02*
X241734566Y-253665370D01*
X253052742Y-250979966D02*
X254345134Y-254178750D01*
D11*
X248112471Y-250764969D02*
X247850246Y-250115940D01*
X247850246Y-250115940D02*
X243677919Y-251801670D01*
X250065157Y-251593835D02*
G75*
G02X248112471Y-250764969I-561910J1390776D01*
G01*
X251287294Y-255953465D02*
X250636399Y-255677177D01*
X250261792Y-254749993D02*
X250636399Y-255677177D01*
X245438570Y-256159434D02*
X249610897Y-254473704D01*
X253034011Y-250933607D02*
X252383116Y-250657318D01*
X252383116Y-250657318D02*
X250065157Y-251593835D01*
X254345134Y-254178750D02*
X254068846Y-254829646D01*
X254068846Y-254829646D02*
X251287294Y-255953465D01*
X249610898Y-254473705D02*
G75*
G02X250261792Y-254749993I187303J-463591D01*
G01*
D10*
X243677919Y-251801670D02*
X245438570Y-256159434D01*
X244989042Y-255046813D02*
X242671082Y-255983330D01*
X234617041Y-236048877D02*
X236935001Y-235112361D01*
X246122520Y-233827065D02*
X248440480Y-232890549D01*
X248440480Y-232890549D02*
X249376996Y-235208508D01*
X249376996Y-235208508D02*
X247059037Y-236145025D01*
X235553557Y-238366837D02*
X234617041Y-236048877D01*
X245935217Y-233363473D02*
X247227609Y-236562257D01*
D11*
X240994946Y-233148476D02*
X240732721Y-232499447D01*
X240732721Y-232499447D02*
X236560394Y-234185177D01*
X242947632Y-233977342D02*
G75*
G02X240994946Y-233148476I-561910J1390776D01*
G01*
X244169769Y-238336972D02*
X243518874Y-238060684D01*
X243144267Y-237133500D02*
X243518874Y-238060684D01*
X238321045Y-238542941D02*
X242493372Y-236857211D01*
X245916486Y-233317114D02*
X245265591Y-233040825D01*
X245265591Y-233040825D02*
X242947632Y-233977342D01*
X247227609Y-236562257D02*
X246951321Y-237213153D01*
X246951321Y-237213153D02*
X244169769Y-238336972D01*
X242493373Y-236857212D02*
G75*
G02X243144267Y-237133500I187303J-463591D01*
G01*
D10*
X236560394Y-234185177D02*
X238321045Y-238542941D01*
X237871517Y-237430320D02*
X235553557Y-238366837D01*
X99995597Y-218765713D02*
X97677637Y-217829197D01*
X90175848Y-212371574D02*
X87857888Y-211435057D01*
X87857888Y-211435057D02*
X88794404Y-209117097D01*
X88794404Y-209117097D02*
X91112364Y-210053614D01*
X100932114Y-216447753D02*
X99995597Y-218765713D01*
X89988544Y-212835165D02*
X91280937Y-209636381D01*
D11*
X93392928Y-216421622D02*
X93130704Y-217070651D01*
X93130704Y-217070651D02*
X97303031Y-218756380D01*
X92564062Y-214468936D02*
G75*
G02X93392928Y-216421622I-561910J-1390776D01*
G01*
X94713384Y-210483912D02*
X94989672Y-211134808D01*
X94615066Y-212061991D02*
X94989672Y-211134808D01*
X99063682Y-214398616D02*
X94891355Y-212712887D01*
X89969814Y-212881525D02*
X90246103Y-213532420D01*
X90246103Y-213532420D02*
X92564062Y-214468936D01*
X91280937Y-209636381D02*
X91931832Y-209360093D01*
X91931832Y-209360093D02*
X94713384Y-210483912D01*
X94891354Y-212712887D02*
G75*
G02X94615066Y-212061991I187304J463592D01*
G01*
D10*
X97303031Y-218756380D02*
X99063682Y-214398616D01*
X98614154Y-215511237D02*
X100932114Y-216447753D01*
X80506070Y-216284107D02*
X78188110Y-215347591D01*
X70686321Y-209889968D02*
X68368361Y-208953451D01*
X68368361Y-208953451D02*
X69304877Y-206635491D01*
X69304877Y-206635491D02*
X71622837Y-207572008D01*
X81442587Y-213966147D02*
X80506070Y-216284107D01*
X70499017Y-210353559D02*
X71791410Y-207154775D01*
D11*
X73903401Y-213940016D02*
X73641177Y-214589045D01*
X73641177Y-214589045D02*
X77813504Y-216274774D01*
X73074535Y-211987330D02*
G75*
G02X73903401Y-213940016I-561910J-1390776D01*
G01*
X75223857Y-208002306D02*
X75500145Y-208653202D01*
X75125539Y-209580385D02*
X75500145Y-208653202D01*
X79574155Y-211917010D02*
X75401828Y-210231281D01*
X70480287Y-210399919D02*
X70756576Y-211050814D01*
X70756576Y-211050814D02*
X73074535Y-211987330D01*
X71791410Y-207154775D02*
X72442305Y-206878487D01*
X72442305Y-206878487D02*
X75223857Y-208002306D01*
X75401827Y-210231281D02*
G75*
G02X75125539Y-209580385I187304J463592D01*
G01*
D10*
X77813504Y-216274774D02*
X79574155Y-211917010D01*
X79124627Y-213029631D02*
X81442587Y-213966147D01*
X248852091Y-271281864D02*
X251170051Y-270345348D01*
X260357570Y-269060052D02*
X262675530Y-268123536D01*
X262675530Y-268123536D02*
X263612046Y-270441495D01*
X263612046Y-270441495D02*
X261294087Y-271378012D01*
X249788607Y-273599824D02*
X248852091Y-271281864D01*
X260170267Y-268596460D02*
X261462659Y-271795244D01*
D11*
X255229996Y-268381463D02*
X254967771Y-267732434D01*
X254967771Y-267732434D02*
X250795444Y-269418164D01*
X257182682Y-269210329D02*
G75*
G02X255229996Y-268381463I-561910J1390776D01*
G01*
X258404819Y-273569959D02*
X257753924Y-273293671D01*
X257379317Y-272366487D02*
X257753924Y-273293671D01*
X252556095Y-273775928D02*
X256728422Y-272090198D01*
X260151536Y-268550101D02*
X259500641Y-268273812D01*
X259500641Y-268273812D02*
X257182682Y-269210329D01*
X261462659Y-271795244D02*
X261186371Y-272446140D01*
X261186371Y-272446140D02*
X258404819Y-273569959D01*
X256728423Y-272090199D02*
G75*
G02X257379317Y-272366487I187303J-463591D01*
G01*
D10*
X250795444Y-269418164D02*
X252556095Y-273775928D01*
X252106567Y-272663307D02*
X249788607Y-273599824D01*
X202755514Y-258628582D02*
X205073474Y-257692066D01*
X214260993Y-256406770D02*
X216578953Y-255470254D01*
X216578953Y-255470254D02*
X217515469Y-257788213D01*
X217515469Y-257788213D02*
X215197510Y-258724730D01*
X203692030Y-260946542D02*
X202755514Y-258628582D01*
X214073690Y-255943178D02*
X215366082Y-259141962D01*
D11*
X209133419Y-255728181D02*
X208871194Y-255079152D01*
X208871194Y-255079152D02*
X204698867Y-256764882D01*
X211086105Y-256557047D02*
G75*
G02X209133419Y-255728181I-561910J1390776D01*
G01*
X212308242Y-260916677D02*
X211657347Y-260640389D01*
X211282740Y-259713205D02*
X211657347Y-260640389D01*
X206459518Y-261122646D02*
X210631845Y-259436916D01*
X214054959Y-255896819D02*
X213404064Y-255620530D01*
X213404064Y-255620530D02*
X211086105Y-256557047D01*
X215366082Y-259141962D02*
X215089794Y-259792858D01*
X215089794Y-259792858D02*
X212308242Y-260916677D01*
X210631846Y-259436917D02*
G75*
G02X211282740Y-259713205I187303J-463591D01*
G01*
D10*
X204698867Y-256764882D02*
X206459518Y-261122646D01*
X206009990Y-260010025D02*
X203692030Y-260946542D01*
X195637988Y-241012089D02*
X197955948Y-240075573D01*
X207143467Y-238790277D02*
X209461427Y-237853761D01*
X209461427Y-237853761D02*
X210397943Y-240171720D01*
X210397943Y-240171720D02*
X208079984Y-241108237D01*
X196574504Y-243330049D02*
X195637988Y-241012089D01*
X206956164Y-238326685D02*
X208248556Y-241525469D01*
D11*
X202015893Y-238111688D02*
X201753668Y-237462659D01*
X201753668Y-237462659D02*
X197581341Y-239148389D01*
X203968579Y-238940554D02*
G75*
G02X202015893Y-238111688I-561910J1390776D01*
G01*
X205190716Y-243300184D02*
X204539821Y-243023896D01*
X204165214Y-242096712D02*
X204539821Y-243023896D01*
X199341992Y-243506153D02*
X203514319Y-241820423D01*
X206937433Y-238280326D02*
X206286538Y-238004037D01*
X206286538Y-238004037D02*
X203968579Y-238940554D01*
X208248556Y-241525469D02*
X207972268Y-242176365D01*
X207972268Y-242176365D02*
X205190716Y-243300184D01*
X203514320Y-241820424D02*
G75*
G02X204165214Y-242096712I187303J-463591D01*
G01*
D10*
X197581341Y-239148389D02*
X199341992Y-243506153D01*
X198892464Y-242393532D02*
X196574504Y-243330049D01*
X209873039Y-276245076D02*
X212190999Y-275308560D01*
X221378518Y-274023264D02*
X223696478Y-273086748D01*
X223696478Y-273086748D02*
X224632994Y-275404707D01*
X224632994Y-275404707D02*
X222315035Y-276341224D01*
X210809555Y-278563036D02*
X209873039Y-276245076D01*
X221191215Y-273559672D02*
X222483607Y-276758456D01*
D11*
X216250944Y-273344675D02*
X215988719Y-272695646D01*
X215988719Y-272695646D02*
X211816392Y-274381376D01*
X218203630Y-274173541D02*
G75*
G02X216250944Y-273344675I-561910J1390776D01*
G01*
X219425767Y-278533171D02*
X218774872Y-278256883D01*
X218400265Y-277329699D02*
X218774872Y-278256883D01*
X213577043Y-278739140D02*
X217749370Y-277053410D01*
X221172484Y-273513313D02*
X220521589Y-273237024D01*
X220521589Y-273237024D02*
X218203630Y-274173541D01*
X222483607Y-276758456D02*
X222207319Y-277409352D01*
X222207319Y-277409352D02*
X219425767Y-278533171D01*
X217749371Y-277053411D02*
G75*
G02X218400265Y-277329699I187303J-463591D01*
G01*
D10*
X211816392Y-274381376D02*
X213577043Y-278739140D01*
X213127515Y-277626519D02*
X210809555Y-278563036D01*
X53899019Y-231418995D02*
X51581059Y-230482479D01*
X44079270Y-225024856D02*
X41761310Y-224088339D01*
X41761310Y-224088339D02*
X42697826Y-221770379D01*
X42697826Y-221770379D02*
X45015786Y-222706896D01*
X54835536Y-229101035D02*
X53899019Y-231418995D01*
X43891966Y-225488447D02*
X45184359Y-222289663D01*
D11*
X47296350Y-229074904D02*
X47034126Y-229723933D01*
X47034126Y-229723933D02*
X51206453Y-231409662D01*
X46467484Y-227122218D02*
G75*
G02X47296350Y-229074904I-561910J-1390776D01*
G01*
X48616806Y-223137194D02*
X48893094Y-223788090D01*
X48518488Y-224715273D02*
X48893094Y-223788090D01*
X52967104Y-227051898D02*
X48794777Y-225366169D01*
X43873236Y-225534807D02*
X44149525Y-226185702D01*
X44149525Y-226185702D02*
X46467484Y-227122218D01*
X45184359Y-222289663D02*
X45835254Y-222013375D01*
X45835254Y-222013375D02*
X48616806Y-223137194D01*
X48794776Y-225366169D02*
G75*
G02X48518488Y-224715273I187304J463592D01*
G01*
D10*
X51206453Y-231409662D02*
X52967104Y-227051898D01*
X52517576Y-228164519D02*
X54835536Y-229101035D01*
X92878071Y-236382207D02*
X90560111Y-235445691D01*
X83058322Y-229988068D02*
X80740362Y-229051551D01*
X80740362Y-229051551D02*
X81676878Y-226733591D01*
X81676878Y-226733591D02*
X83994838Y-227670108D01*
X93814588Y-234064247D02*
X92878071Y-236382207D01*
X82871018Y-230451659D02*
X84163411Y-227252875D01*
D11*
X86275402Y-234038116D02*
X86013178Y-234687145D01*
X86013178Y-234687145D02*
X90185505Y-236372874D01*
X85446536Y-232085430D02*
G75*
G02X86275402Y-234038116I-561910J-1390776D01*
G01*
X87595858Y-228100406D02*
X87872146Y-228751302D01*
X87497540Y-229678485D02*
X87872146Y-228751302D01*
X91946156Y-232015110D02*
X87773829Y-230329381D01*
X82852288Y-230498019D02*
X83128577Y-231148914D01*
X83128577Y-231148914D02*
X85446536Y-232085430D01*
X84163411Y-227252875D02*
X84814306Y-226976587D01*
X84814306Y-226976587D02*
X87595858Y-228100406D01*
X87773828Y-230329381D02*
G75*
G02X87497540Y-229678485I187304J463592D01*
G01*
D10*
X90185505Y-236372874D02*
X91946156Y-232015110D01*
X91496628Y-233127731D02*
X93814588Y-234064247D01*
X23545902Y-255825720D02*
X21227942Y-254889204D01*
X13726153Y-249431581D02*
X11408193Y-248495064D01*
X11408193Y-248495064D02*
X12344709Y-246177104D01*
X12344709Y-246177104D02*
X14662669Y-247113621D01*
X24482419Y-253507760D02*
X23545902Y-255825720D01*
X13538849Y-249895172D02*
X14831242Y-246696388D01*
D11*
X16943233Y-253481629D02*
X16681009Y-254130658D01*
X16681009Y-254130658D02*
X20853336Y-255816387D01*
X16114367Y-251528943D02*
G75*
G02X16943233Y-253481629I-561910J-1390776D01*
G01*
X18263689Y-247543919D02*
X18539977Y-248194815D01*
X18165371Y-249121998D02*
X18539977Y-248194815D01*
X22613987Y-251458623D02*
X18441660Y-249772894D01*
X13520119Y-249941532D02*
X13796408Y-250592427D01*
X13796408Y-250592427D02*
X16114367Y-251528943D01*
X14831242Y-246696388D02*
X15482137Y-246420100D01*
X15482137Y-246420100D02*
X18263689Y-247543919D01*
X18441659Y-249772894D02*
G75*
G02X18165371Y-249121998I187304J463592D01*
G01*
D10*
X20853336Y-255816387D02*
X22613987Y-251458623D01*
X22164459Y-252571244D02*
X24482419Y-253507760D01*
X59153495Y-269133587D02*
X56835535Y-268197071D01*
X49333746Y-262739448D02*
X47015786Y-261802931D01*
X47015786Y-261802931D02*
X47952302Y-259484971D01*
X47952302Y-259484971D02*
X50270262Y-260421488D01*
X60090012Y-266815627D02*
X59153495Y-269133587D01*
X49146442Y-263203039D02*
X50438835Y-260004255D01*
D11*
X52550826Y-266789496D02*
X52288602Y-267438525D01*
X52288602Y-267438525D02*
X56460929Y-269124254D01*
X51721960Y-264836810D02*
G75*
G02X52550826Y-266789496I-561910J-1390776D01*
G01*
X53871282Y-260851786D02*
X54147570Y-261502682D01*
X53772964Y-262429865D02*
X54147570Y-261502682D01*
X58221580Y-264766490D02*
X54049253Y-263080761D01*
X49127712Y-263249399D02*
X49404001Y-263900294D01*
X49404001Y-263900294D02*
X51721960Y-264836810D01*
X50438835Y-260004255D02*
X51089730Y-259727967D01*
X51089730Y-259727967D02*
X53871282Y-260851786D01*
X54049252Y-263080761D02*
G75*
G02X53772964Y-262429865I187304J463592D01*
G01*
D10*
X56460929Y-269124254D02*
X58221580Y-264766490D01*
X57772052Y-265879111D02*
X60090012Y-266815627D01*
X85760546Y-253998700D02*
X83442586Y-253062184D01*
X75940797Y-247604561D02*
X73622837Y-246668044D01*
X73622837Y-246668044D02*
X74559353Y-244350084D01*
X74559353Y-244350084D02*
X76877313Y-245286601D01*
X86697063Y-251680740D02*
X85760546Y-253998700D01*
X75753493Y-248068152D02*
X77045886Y-244869368D01*
D11*
X79157877Y-251654609D02*
X78895653Y-252303638D01*
X78895653Y-252303638D02*
X83067980Y-253989367D01*
X78329011Y-249701923D02*
G75*
G02X79157877Y-251654609I-561910J-1390776D01*
G01*
X80478333Y-245716899D02*
X80754621Y-246367795D01*
X80380015Y-247294978D02*
X80754621Y-246367795D01*
X84828631Y-249631603D02*
X80656304Y-247945874D01*
X75734763Y-248114512D02*
X76011052Y-248765407D01*
X76011052Y-248765407D02*
X78329011Y-249701923D01*
X77045886Y-244869368D02*
X77696781Y-244593080D01*
X77696781Y-244593080D02*
X80478333Y-245716899D01*
X80656303Y-247945874D02*
G75*
G02X80380015Y-247294978I187304J463592D01*
G01*
D10*
X83067980Y-253989367D02*
X84828631Y-249631603D01*
X84379103Y-250744224D02*
X86697063Y-251680740D01*
X39663968Y-266651981D02*
X37346008Y-265715465D01*
X29844219Y-260257842D02*
X27526259Y-259321325D01*
X27526259Y-259321325D02*
X28462775Y-257003365D01*
X28462775Y-257003365D02*
X30780735Y-257939882D01*
X40600485Y-264334021D02*
X39663968Y-266651981D01*
X29656915Y-260721433D02*
X30949308Y-257522649D01*
D11*
X33061299Y-264307890D02*
X32799075Y-264956919D01*
X32799075Y-264956919D02*
X36971402Y-266642648D01*
X32232433Y-262355204D02*
G75*
G02X33061299Y-264307890I-561910J-1390776D01*
G01*
X34381755Y-258370180D02*
X34658043Y-259021076D01*
X34283437Y-259948259D02*
X34658043Y-259021076D01*
X38732053Y-262284884D02*
X34559726Y-260599155D01*
X29638185Y-260767793D02*
X29914474Y-261418688D01*
X29914474Y-261418688D02*
X32232433Y-262355204D01*
X30949308Y-257522649D02*
X31600203Y-257246361D01*
X31600203Y-257246361D02*
X34381755Y-258370180D01*
X34559725Y-260599155D02*
G75*
G02X34283437Y-259948259I187304J463592D01*
G01*
D10*
X36971402Y-266642648D02*
X38732053Y-262284884D01*
X38282525Y-263397505D02*
X40600485Y-264334021D01*
X46781494Y-249035488D02*
X44463534Y-248098972D01*
X36961745Y-242641349D02*
X34643785Y-241704832D01*
X34643785Y-241704832D02*
X35580301Y-239386872D01*
X35580301Y-239386872D02*
X37898261Y-240323389D01*
X47718011Y-246717528D02*
X46781494Y-249035488D01*
X36774441Y-243104940D02*
X38066834Y-239906156D01*
D11*
X40178825Y-246691397D02*
X39916601Y-247340426D01*
X39916601Y-247340426D02*
X44088928Y-249026155D01*
X39349959Y-244738711D02*
G75*
G02X40178825Y-246691397I-561910J-1390776D01*
G01*
X41499281Y-240753687D02*
X41775569Y-241404583D01*
X41400963Y-242331766D02*
X41775569Y-241404583D01*
X45849579Y-244668391D02*
X41677252Y-242982662D01*
X36755711Y-243151300D02*
X37032000Y-243802195D01*
X37032000Y-243802195D02*
X39349959Y-244738711D01*
X38066834Y-239906156D02*
X38717729Y-239629868D01*
X38717729Y-239629868D02*
X41499281Y-240753687D01*
X41677251Y-242982662D02*
G75*
G02X41400963Y-242331766I187304J463592D01*
G01*
D10*
X44088928Y-249026155D02*
X45849579Y-244668391D01*
X45400051Y-245781012D02*
X47718011Y-246717528D01*
X78643021Y-271615193D02*
X76325061Y-270678677D01*
X68823272Y-265221054D02*
X66505312Y-264284537D01*
X66505312Y-264284537D02*
X67441828Y-261966577D01*
X67441828Y-261966577D02*
X69759788Y-262903094D01*
X79579538Y-269297233D02*
X78643021Y-271615193D01*
X68635968Y-265684645D02*
X69928361Y-262485861D01*
D11*
X72040352Y-269271102D02*
X71778128Y-269920131D01*
X71778128Y-269920131D02*
X75950455Y-271605860D01*
X71211486Y-267318416D02*
G75*
G02X72040352Y-269271102I-561910J-1390776D01*
G01*
X73360808Y-263333392D02*
X73637096Y-263984288D01*
X73262490Y-264911471D02*
X73637096Y-263984288D01*
X77711106Y-267248096D02*
X73538779Y-265562367D01*
X68617238Y-265731005D02*
X68893527Y-266381900D01*
X68893527Y-266381900D02*
X71211486Y-267318416D01*
X69928361Y-262485861D02*
X70579256Y-262209573D01*
X70579256Y-262209573D02*
X73360808Y-263333392D01*
X73538778Y-265562367D02*
G75*
G02X73262490Y-264911471I187304J463592D01*
G01*
D10*
X75950455Y-271605860D02*
X77711106Y-267248096D01*
X77261578Y-268360717D02*
X79579538Y-269297233D01*
X73388545Y-233900601D02*
X71070585Y-232964085D01*
X63568796Y-227506462D02*
X61250836Y-226569945D01*
X61250836Y-226569945D02*
X62187352Y-224251985D01*
X62187352Y-224251985D02*
X64505312Y-225188502D01*
X74325062Y-231582641D02*
X73388545Y-233900601D01*
X63381492Y-227970053D02*
X64673885Y-224771269D01*
D11*
X66785876Y-231556510D02*
X66523652Y-232205539D01*
X66523652Y-232205539D02*
X70695979Y-233891268D01*
X65957010Y-229603824D02*
G75*
G02X66785876Y-231556510I-561910J-1390776D01*
G01*
X68106332Y-225618800D02*
X68382620Y-226269696D01*
X68008014Y-227196879D02*
X68382620Y-226269696D01*
X72456630Y-229533504D02*
X68284303Y-227847775D01*
X63362762Y-228016413D02*
X63639051Y-228667308D01*
X63639051Y-228667308D02*
X65957010Y-229603824D01*
X64673885Y-224771269D02*
X65324780Y-224494981D01*
X65324780Y-224494981D02*
X68106332Y-225618800D01*
X68284302Y-227847775D02*
G75*
G02X68008014Y-227196879I187304J463592D01*
G01*
D10*
X70695979Y-233891268D02*
X72456630Y-229533504D01*
X72007102Y-230646125D02*
X74325062Y-231582641D01*
X30663427Y-238209227D02*
X28345467Y-237272711D01*
X20843678Y-231815088D02*
X18525718Y-230878571D01*
X18525718Y-230878571D02*
X19462234Y-228560611D01*
X19462234Y-228560611D02*
X21780194Y-229497128D01*
X31599944Y-235891267D02*
X30663427Y-238209227D01*
X20656374Y-232278679D02*
X21948767Y-229079895D01*
D11*
X24060758Y-235865136D02*
X23798534Y-236514165D01*
X23798534Y-236514165D02*
X27970861Y-238199894D01*
X23231892Y-233912450D02*
G75*
G02X24060758Y-235865136I-561910J-1390776D01*
G01*
X25381214Y-229927426D02*
X25657502Y-230578322D01*
X25282896Y-231505505D02*
X25657502Y-230578322D01*
X29731512Y-233842130D02*
X25559185Y-232156401D01*
X20637644Y-232325039D02*
X20913933Y-232975934D01*
X20913933Y-232975934D02*
X23231892Y-233912450D01*
X21948767Y-229079895D02*
X22599662Y-228803607D01*
X22599662Y-228803607D02*
X25381214Y-229927426D01*
X25559184Y-232156401D02*
G75*
G02X25282896Y-231505505I187304J463592D01*
G01*
D10*
X27970861Y-238199894D02*
X29731512Y-233842130D01*
X29281984Y-234954751D02*
X31599944Y-235891267D01*
X66271020Y-251517094D02*
X63953060Y-250580578D01*
X56451271Y-245122955D02*
X54133311Y-244186438D01*
X54133311Y-244186438D02*
X55069827Y-241868478D01*
X55069827Y-241868478D02*
X57387787Y-242804995D01*
X67207537Y-249199134D02*
X66271020Y-251517094D01*
X56263967Y-245586546D02*
X57556360Y-242387762D01*
D11*
X59668351Y-249173003D02*
X59406127Y-249822032D01*
X59406127Y-249822032D02*
X63578454Y-251507761D01*
X58839485Y-247220317D02*
G75*
G02X59668351Y-249173003I-561910J-1390776D01*
G01*
X60988807Y-243235293D02*
X61265095Y-243886189D01*
X60890489Y-244813372D02*
X61265095Y-243886189D01*
X65339105Y-247149997D02*
X61166778Y-245464268D01*
X56245237Y-245632906D02*
X56521526Y-246283801D01*
X56521526Y-246283801D02*
X58839485Y-247220317D01*
X57556360Y-242387762D02*
X58207255Y-242111474D01*
X58207255Y-242111474D02*
X60988807Y-243235293D01*
X61166777Y-245464268D02*
G75*
G02X60890489Y-244813372I187304J463592D01*
G01*
D10*
X63578454Y-251507761D02*
X65339105Y-247149997D01*
X64889577Y-248262618D02*
X67207537Y-249199134D01*
X37780952Y-220592734D02*
X35462992Y-219656218D01*
X27961203Y-214198595D02*
X25643243Y-213262078D01*
X25643243Y-213262078D02*
X26579759Y-210944118D01*
X26579759Y-210944118D02*
X28897719Y-211880635D01*
X38717469Y-218274774D02*
X37780952Y-220592734D01*
X27773899Y-214662186D02*
X29066292Y-211463402D01*
D11*
X31178283Y-218248643D02*
X30916059Y-218897672D01*
X30916059Y-218897672D02*
X35088386Y-220583401D01*
X30349417Y-216295957D02*
G75*
G02X31178283Y-218248643I-561910J-1390776D01*
G01*
X32498739Y-212310933D02*
X32775027Y-212961829D01*
X32400421Y-213889012D02*
X32775027Y-212961829D01*
X36849037Y-216225637D02*
X32676710Y-214539908D01*
X27755169Y-214708546D02*
X28031458Y-215359441D01*
X28031458Y-215359441D02*
X30349417Y-216295957D01*
X29066292Y-211463402D02*
X29717187Y-211187114D01*
X29717187Y-211187114D02*
X32498739Y-212310933D01*
X32676709Y-214539908D02*
G75*
G02X32400421Y-213889012I187304J463592D01*
G01*
D10*
X35088386Y-220583401D02*
X36849037Y-216225637D01*
X36399509Y-217338258D02*
X38717469Y-218274774D01*
M02*
