%FSLAX45Y45*%
G04 Gerber Fmt 4.5, Leading zero omitted, Abs format (unit mm)*
G04 Created by KiCad (PCBNEW (5.1.4)-1) date 2025-05-28 14:17:58*
%MOMM*%
%LPD*%
G04 APERTURE LIST*
%ADD10C,0.050000*%
%ADD11C,0.200000*%
%ADD12C,0.300000*%
G04 APERTURE END LIST*
D10*
X25356660Y-23640920D02*
G75*
G03X25356660Y-23640920I-160000J0D01*
G01*
X3629780Y-23638380D02*
G75*
G03X3629780Y-23638380I-160000J0D01*
G01*
X7702020Y-22880320D02*
G75*
G03X7702020Y-22880320I-160000J0D01*
G01*
X21281880Y-22880320D02*
G75*
G03X21281880Y-22880320I-160000J0D01*
G01*
X22774280Y-26203300D02*
G75*
G03X22774280Y-26203300I-160000J0D01*
G01*
X6207080Y-26205840D02*
G75*
G03X6207080Y-26205840I-160000J0D01*
G01*
X9648730Y-23313641D02*
X10946788Y-23838090D01*
X16188730Y-24566359D02*
X17486788Y-24041910D01*
X19009327Y-23319192D02*
X17711270Y-23843641D01*
X12990673Y-24659192D02*
X14288730Y-25183641D01*
X14251270Y-25276359D02*
G75*
G03X14288730Y-25183641I18730J46359D01*
G01*
X12990673Y-24659192D02*
G75*
G03X12953212Y-24751910I-18730J-46359D01*
G01*
X10909327Y-23930808D02*
X9611270Y-23406359D01*
X12569327Y-24600808D02*
X11271270Y-24076359D01*
X11308730Y-23983641D02*
X12606788Y-24508090D01*
X10909327Y-23930808D02*
G75*
G03X10946788Y-23838090I18730J46359D01*
G01*
X16188730Y-24566359D02*
G75*
G02X16151270Y-24473641I-18730J46359D01*
G01*
X17449327Y-23949192D02*
G75*
G02X17486788Y-24041910I18730J-46359D01*
G01*
X17748730Y-23936359D02*
G75*
G02X17711270Y-23843641I-18730J46359D01*
G01*
X12569327Y-24600808D02*
G75*
G03X12606788Y-24508090I18730J46359D01*
G01*
X17748730Y-23936359D02*
X19046788Y-23411910D01*
X19009327Y-23319192D02*
G75*
G02X19046788Y-23411910I18730J-46359D01*
G01*
X14251270Y-25276359D02*
X12953212Y-24751910D01*
X9648730Y-23313641D02*
G75*
G03X9611270Y-23406359I-18730J-46359D01*
G01*
X17449327Y-23949192D02*
X16151270Y-24473641D01*
X11308730Y-23983641D02*
G75*
G03X11271270Y-24076359I-18730J-46359D01*
G01*
X24729192Y-21650673D02*
X25253641Y-22948730D01*
X24729192Y-21650673D02*
G75*
G02X24821910Y-21613212I46359J18730D01*
G01*
X15699327Y-24659192D02*
G75*
G02X15736788Y-24751910I18730J-46359D01*
G01*
X25429192Y-23390673D02*
X25953641Y-24688730D01*
X26046359Y-24651270D02*
G75*
G02X25953641Y-24688730I-46359J-18730D01*
G01*
X26129192Y-25130673D02*
X26653641Y-26428730D01*
X14438730Y-25276359D02*
G75*
G02X14401270Y-25183641I-18730J46359D01*
G01*
X14438730Y-25276359D02*
X15736788Y-24751910D01*
X26746359Y-26391270D02*
X26221910Y-25093212D01*
X25848453Y-20639034D02*
G75*
G02X25885914Y-20731753I18730J-46359D01*
G01*
X26746359Y-26391270D02*
G75*
G02X26653641Y-26428730I-46359J-18730D01*
G01*
X25429192Y-23390673D02*
G75*
G02X25521910Y-23353212I46359J18730D01*
G01*
X25346359Y-22911270D02*
X24821910Y-21613212D01*
X25848453Y-20639034D02*
X24921270Y-21013641D01*
X26046359Y-24651270D02*
X25521910Y-23353212D01*
X25346359Y-22911270D02*
G75*
G02X25253641Y-22948730I-46359J-18730D01*
G01*
X24093641Y-20068730D02*
G75*
G02X24186359Y-20031270I46359J18730D01*
G01*
X24958730Y-21106359D02*
X25885914Y-20731753D01*
X24093641Y-20068730D02*
X24468247Y-20995914D01*
X24560966Y-20958453D02*
G75*
G02X24468247Y-20995914I-46359J-18730D01*
G01*
X15699327Y-24659192D02*
X14401270Y-25183641D01*
X24958730Y-21106359D02*
G75*
G02X24921270Y-21013641I-18730J46359D01*
G01*
X26129192Y-25130673D02*
G75*
G02X26221910Y-25093212I46359J18730D01*
G01*
X24560966Y-20958454D02*
X24186359Y-20031270D01*
X1909192Y-26399327D02*
G75*
G03X2001910Y-26436788I46359J-18730D01*
G01*
X8118730Y-22123641D02*
G75*
G03X8081270Y-22216359I-18730J-46359D01*
G01*
X2821547Y-20639034D02*
G75*
G03X2784086Y-20731753I-18730J-46359D01*
G01*
X3920808Y-21690673D02*
X3396359Y-22988730D01*
X3711270Y-21106359D02*
G75*
G03X3748730Y-21013641I18730J46359D01*
G01*
X4500966Y-20251547D02*
G75*
G03X4408247Y-20214086I-46359J18730D01*
G01*
X2526359Y-25138730D02*
X2001910Y-26436788D01*
X2821546Y-20639034D02*
X3748730Y-21013641D01*
X3920808Y-21690673D02*
G75*
G03X3828090Y-21653212I-46359J18730D01*
G01*
X9379327Y-22740808D02*
X8081270Y-22216359D01*
X4033641Y-21141270D02*
G75*
G03X4126359Y-21178730I46359J-18730D01*
G01*
X3303641Y-22951270D02*
X3828090Y-21653212D01*
X3711270Y-21106359D02*
X2784086Y-20731753D01*
X4500966Y-20251547D02*
X4126359Y-21178730D01*
X3210808Y-23450673D02*
X2686359Y-24748730D01*
X3303641Y-22951270D02*
G75*
G03X3396359Y-22988730I46359J-18730D01*
G01*
X4033641Y-21141270D02*
X4408247Y-20214086D01*
X2593641Y-24711270D02*
G75*
G03X2686359Y-24748730I46359J-18730D01*
G01*
X2593641Y-24711270D02*
X3118090Y-23413212D01*
X3210808Y-23450673D02*
G75*
G03X3118090Y-23413212I-46359J18730D01*
G01*
X1909192Y-26399327D02*
X2433641Y-25101270D01*
X2526359Y-25138730D02*
G75*
G03X2433641Y-25101270I-46359J18730D01*
G01*
X7429327Y-22500808D02*
G75*
G03X7466788Y-22408090I18730J46359D01*
G01*
X4218730Y-21633641D02*
G75*
G03X4181270Y-21726359I-18730J-46359D01*
G01*
X4218730Y-21633641D02*
X5516788Y-22158090D01*
X23178730Y-22256359D02*
X24476788Y-21731910D01*
X7429327Y-22500808D02*
X6131270Y-21976359D01*
X22499327Y-21879192D02*
G75*
G02X22536788Y-21971910I18730J-46359D01*
G01*
X19288730Y-22746359D02*
G75*
G02X19251270Y-22653641I-18730J46359D01*
G01*
X19288730Y-22746359D02*
X20586788Y-22221910D01*
X6168730Y-21883641D02*
X7466788Y-22408090D01*
X5479327Y-22250808D02*
G75*
G03X5516788Y-22158090I18730J46359D01*
G01*
X6168730Y-21883641D02*
G75*
G03X6131270Y-21976359I-18730J-46359D01*
G01*
X22499327Y-21879192D02*
X21201270Y-22403641D01*
X21238730Y-22496359D02*
G75*
G02X21201270Y-22403641I-18730J46359D01*
G01*
X24439327Y-21639192D02*
X23141270Y-22163641D01*
X23178730Y-22256359D02*
G75*
G02X23141270Y-22163641I-18730J46359D01*
G01*
X24439327Y-21639192D02*
G75*
G02X24476788Y-21731910I18730J-46359D01*
G01*
X8118730Y-22123641D02*
X9416788Y-22648090D01*
X20549327Y-22129192D02*
G75*
G02X20586788Y-22221910I18730J-46359D01*
G01*
X21238730Y-22496359D02*
X22536788Y-21971910D01*
X20549327Y-22129192D02*
X19251270Y-22653641D01*
X5479327Y-22250808D02*
X4181270Y-21726359D01*
X9379327Y-22740808D02*
G75*
G03X9416788Y-22648090I18730J46359D01*
G01*
X21209900Y-28990900D02*
G75*
G03X21209900Y-28990900I-150000J0D01*
G01*
X7754000Y-29008680D02*
G75*
G03X7754000Y-29008680I-150000J0D01*
G01*
X18398309Y-21217855D02*
X20159958Y-20506102D01*
X25465689Y-19009568D02*
X22239090Y-20313199D01*
X20159958Y-20506102D02*
X20810853Y-20782391D01*
X15503000Y-22787000D02*
X14503663Y-23190451D01*
X25465689Y-19009568D02*
X25752083Y-19131135D01*
X26837444Y-26889485D02*
X26737980Y-27123807D01*
X26959011Y-26603091D02*
X26837444Y-26889485D01*
X18193855Y-21699517D02*
X15503000Y-22787000D01*
X28312700Y-26056165D02*
X26959011Y-26603091D01*
X22108911Y-20257941D02*
X22239090Y-20313199D01*
X1706316Y-26603091D02*
X1827883Y-26889485D01*
X352627Y-26056165D02*
X1706316Y-26603091D01*
X10267018Y-21217855D02*
X10471472Y-21699517D01*
X2782995Y-28850036D02*
X2849304Y-29006251D01*
X2919433Y-27524636D02*
X3123887Y-28006299D01*
X10267018Y-21217855D02*
X8505369Y-20506102D01*
X2849304Y-29006251D02*
X6604399Y-30523408D01*
X28434267Y-25769771D02*
X25752083Y-19131135D01*
X18398309Y-21217855D02*
X18193855Y-21699517D01*
X10471472Y-21699517D02*
X13162327Y-22787000D01*
X3199637Y-19009568D02*
X6426237Y-20313199D01*
X3123887Y-28006299D02*
X2782995Y-28850036D01*
X231060Y-25769771D02*
X352627Y-26056165D01*
X14503663Y-23190451D02*
X14161663Y-23190451D01*
X6556416Y-20257941D02*
X6426237Y-20313199D01*
X20810853Y-20782391D02*
X22108911Y-20257941D01*
X1827883Y-26889485D02*
X1927346Y-27123807D01*
X8505369Y-20506102D02*
X7854473Y-20782391D01*
X231060Y-25769771D02*
X2913243Y-19131135D01*
X28434267Y-25769771D02*
X28312700Y-26056165D01*
X3199637Y-19009568D02*
X2913243Y-19131135D01*
X1927346Y-27123807D02*
X2919433Y-27524636D01*
X13162327Y-22787000D02*
X14161663Y-23190451D01*
X25541440Y-28006299D02*
X25882332Y-28850036D01*
X7854473Y-20782391D02*
X6556416Y-20257941D01*
X25882332Y-28850036D02*
X25816023Y-29006251D01*
X26737980Y-27123807D02*
X25745894Y-27524636D01*
X22060928Y-30523408D02*
X17636182Y-33853426D01*
X11029145Y-33853426D02*
X17636182Y-33853426D01*
X25745894Y-27524636D02*
X25541440Y-28006299D01*
X6604399Y-30523408D02*
X11029145Y-33853426D01*
X25816023Y-29006251D02*
X22060928Y-30523408D01*
D11*
X22416636Y-25147969D02*
X22586816Y-25318149D01*
X22586816Y-25147969D02*
X22416636Y-25318149D01*
X23436538Y-24735902D02*
X23606718Y-24906082D01*
X23606718Y-24735902D02*
X23436538Y-24906082D01*
X4345832Y-26498155D02*
X4516012Y-26668335D01*
X4516012Y-26498155D02*
X4345832Y-26668335D01*
X5365734Y-26910222D02*
X5535914Y-27080402D01*
X5535914Y-26910222D02*
X5365734Y-27080402D01*
X25977395Y-23817182D02*
X26147575Y-23987362D01*
X26147575Y-23817182D02*
X25977395Y-23987362D01*
X26997297Y-23405115D02*
X27167477Y-23575295D01*
X27167477Y-23405115D02*
X26997297Y-23575295D01*
X6294785Y-26746315D02*
X6464965Y-26916495D01*
X6464965Y-26746315D02*
X6294785Y-26916495D01*
X7314687Y-27158383D02*
X7484867Y-27328563D01*
X7484867Y-27158383D02*
X7314687Y-27328563D01*
X19044178Y-21872831D02*
X19214358Y-22043011D01*
X19214358Y-21872831D02*
X19044178Y-22043011D01*
X20064080Y-21460764D02*
X20234260Y-21630944D01*
X20234260Y-21460764D02*
X20064080Y-21630944D01*
X25265643Y-22055533D02*
X25435823Y-22225713D01*
X25435823Y-22055533D02*
X25265643Y-22225713D01*
X26285545Y-21643466D02*
X26455725Y-21813646D01*
X26455725Y-21643466D02*
X26285545Y-21813646D01*
X5057585Y-24736505D02*
X5227765Y-24906685D01*
X5227765Y-24736505D02*
X5057585Y-24906685D01*
X6077487Y-25148573D02*
X6247667Y-25318753D01*
X6247667Y-25148573D02*
X6077487Y-25318753D01*
X8430042Y-21461367D02*
X8600222Y-21631547D01*
X8600222Y-21461367D02*
X8430042Y-21631547D01*
X9449945Y-21873435D02*
X9620125Y-22043615D01*
X9620125Y-21873435D02*
X9449945Y-22043615D01*
X20993131Y-21624670D02*
X21163311Y-21794850D01*
X21163311Y-21624670D02*
X20993131Y-21794850D01*
X22013033Y-21212603D02*
X22183213Y-21382783D01*
X22183213Y-21212603D02*
X22013033Y-21382783D01*
X21179436Y-27157779D02*
X21349616Y-27327959D01*
X21349616Y-27157779D02*
X21179436Y-27327959D01*
X22199338Y-26745712D02*
X22369518Y-26915892D01*
X22369518Y-26745712D02*
X22199338Y-26915892D01*
X3820384Y-22726696D02*
X3990564Y-22896876D01*
X3990564Y-22726696D02*
X3820384Y-22896876D01*
X4840287Y-23138763D02*
X5010467Y-23308943D01*
X5010467Y-23138763D02*
X4840287Y-23308943D01*
X785073Y-25167368D02*
X955253Y-25337548D01*
X955253Y-25167368D02*
X785073Y-25337548D01*
X1804975Y-25579435D02*
X1975155Y-25749615D01*
X1975155Y-25579435D02*
X1804975Y-25749615D01*
X26689148Y-25578832D02*
X26859328Y-25749012D01*
X26859328Y-25578832D02*
X26689148Y-25749012D01*
X27709050Y-25166764D02*
X27879230Y-25336944D01*
X27879230Y-25166764D02*
X27709050Y-25336944D01*
X7006537Y-24984666D02*
X7176717Y-25154846D01*
X7176717Y-24984666D02*
X7006537Y-25154846D01*
X8026439Y-25396733D02*
X8196619Y-25566913D01*
X8196619Y-25396733D02*
X8026439Y-25566913D01*
X4532137Y-20965046D02*
X4702317Y-21135226D01*
X4702317Y-20965046D02*
X4532137Y-21135226D01*
X5552039Y-21377113D02*
X5722219Y-21547293D01*
X5722219Y-21377113D02*
X5552039Y-21547293D01*
X5769337Y-22974856D02*
X5939517Y-23145036D01*
X5939517Y-22974856D02*
X5769337Y-23145036D01*
X6789239Y-23386923D02*
X6959419Y-23557103D01*
X6959419Y-23386923D02*
X6789239Y-23557103D01*
X24365588Y-24899808D02*
X24535768Y-25069988D01*
X24535768Y-24899808D02*
X24365588Y-25069988D01*
X25385491Y-24487741D02*
X25555671Y-24657921D01*
X25555671Y-24487741D02*
X25385491Y-24657921D01*
X20467683Y-25396130D02*
X20637863Y-25566310D01*
X20637863Y-25396130D02*
X20467683Y-25566310D01*
X21487586Y-24984062D02*
X21657766Y-25154242D01*
X21657766Y-24984062D02*
X21487586Y-25154242D01*
X2208578Y-21644070D02*
X2378758Y-21814250D01*
X2378758Y-21644070D02*
X2208578Y-21814250D01*
X3228480Y-22056137D02*
X3398660Y-22226317D01*
X3398660Y-22056137D02*
X3228480Y-22226317D01*
X6481090Y-21213207D02*
X6651270Y-21383387D01*
X6651270Y-21213207D02*
X6481090Y-21383387D01*
X7500992Y-21625274D02*
X7671172Y-21795454D01*
X7671172Y-21625274D02*
X7500992Y-21795454D01*
X7718290Y-23223017D02*
X7888470Y-23393197D01*
X7888470Y-23223017D02*
X7718290Y-23393197D01*
X8738192Y-23635084D02*
X8908372Y-23805264D01*
X8908372Y-23635084D02*
X8738192Y-23805264D01*
X23128388Y-26909618D02*
X23298568Y-27079798D01*
X23298568Y-26909618D02*
X23128388Y-27079798D01*
X24148291Y-26497551D02*
X24318471Y-26667731D01*
X24318471Y-26497551D02*
X24148291Y-26667731D01*
X21704883Y-23386320D02*
X21875063Y-23556500D01*
X21875063Y-23386320D02*
X21704883Y-23556500D01*
X22724785Y-22974252D02*
X22894965Y-23144432D01*
X22894965Y-22974252D02*
X22724785Y-23144432D01*
X2396879Y-26249994D02*
X2567059Y-26420174D01*
X2567059Y-26249994D02*
X2396879Y-26420174D01*
X3416782Y-26662061D02*
X3586962Y-26832241D01*
X3586962Y-26662061D02*
X3416782Y-26832241D01*
X3108632Y-24488345D02*
X3278812Y-24658525D01*
X3278812Y-24488345D02*
X3108632Y-24658525D01*
X4128534Y-24900412D02*
X4298714Y-25070592D01*
X4298714Y-24900412D02*
X4128534Y-25070592D01*
X2920330Y-19882420D02*
X3090510Y-20052600D01*
X3090510Y-19882420D02*
X2920330Y-20052600D01*
X3940232Y-20294487D02*
X4110412Y-20464667D01*
X4110412Y-20294487D02*
X3940232Y-20464667D01*
X1496825Y-23405719D02*
X1667005Y-23575899D01*
X1667005Y-23405719D02*
X1496825Y-23575899D01*
X2516728Y-23817786D02*
X2686908Y-23987966D01*
X2686908Y-23817786D02*
X2516728Y-23987966D01*
X23653836Y-23138159D02*
X23824016Y-23308339D01*
X23824016Y-23138159D02*
X23653836Y-23308339D01*
X24673738Y-22726092D02*
X24843918Y-22896272D01*
X24843918Y-22726092D02*
X24673738Y-22896272D01*
X19755931Y-23634480D02*
X19926111Y-23804660D01*
X19926111Y-23634480D02*
X19755931Y-23804660D01*
X20775833Y-23222413D02*
X20946013Y-23392593D01*
X20946013Y-23222413D02*
X20775833Y-23392593D01*
X22942083Y-21376510D02*
X23112263Y-21546690D01*
X23112263Y-21376510D02*
X22942083Y-21546690D01*
X23961986Y-20964443D02*
X24132166Y-21134623D01*
X24132166Y-20964443D02*
X23961986Y-21134623D01*
X25077341Y-26661458D02*
X25247521Y-26831638D01*
X25247521Y-26661458D02*
X25077341Y-26831638D01*
X26097243Y-26249391D02*
X26267423Y-26419571D01*
X26267423Y-26249391D02*
X26097243Y-26419571D01*
X24553890Y-20293884D02*
X24724070Y-20464064D01*
X24724070Y-20293884D02*
X24553890Y-20464064D01*
X25573792Y-19881817D02*
X25743972Y-20051997D01*
X25743972Y-19881817D02*
X25573792Y-20051997D01*
X7929821Y-23323840D02*
G75*
G03X7929821Y-23323840I-87500J0D01*
G01*
X8871840Y-23704440D02*
G75*
G03X8871840Y-23704440I-87500J0D01*
G01*
X23339920Y-26978975D02*
G75*
G03X23339920Y-26978975I-87500J0D01*
G01*
X24281939Y-26598375D02*
G75*
G03X24281939Y-26598375I-87500J0D01*
G01*
X21916415Y-23455676D02*
G75*
G03X21916415Y-23455676I-87500J0D01*
G01*
X22858434Y-23075076D02*
G75*
G03X22858434Y-23075076I-87500J0D01*
G01*
X2608411Y-26350818D02*
G75*
G03X2608411Y-26350818I-87500J0D01*
G01*
X3550430Y-26731418D02*
G75*
G03X3550430Y-26731418I-87500J0D01*
G01*
X3320164Y-24589168D02*
G75*
G03X3320164Y-24589168I-87500J0D01*
G01*
X4262183Y-24969769D02*
G75*
G03X4262183Y-24969769I-87500J0D01*
G01*
X3131862Y-19983244D02*
G75*
G03X3131862Y-19983244I-87500J0D01*
G01*
X4073881Y-20363844D02*
G75*
G03X4073881Y-20363844I-87500J0D01*
G01*
X1708357Y-23506542D02*
G75*
G03X1708357Y-23506542I-87500J0D01*
G01*
X2650376Y-23887142D02*
G75*
G03X2650376Y-23887142I-87500J0D01*
G01*
X23865368Y-23207516D02*
G75*
G03X23865368Y-23207516I-87500J0D01*
G01*
X24807386Y-22826915D02*
G75*
G03X24807386Y-22826915I-87500J0D01*
G01*
X19967462Y-23703837D02*
G75*
G03X19967462Y-23703837I-87500J0D01*
G01*
X20909481Y-23323237D02*
G75*
G03X20909481Y-23323237I-87500J0D01*
G01*
X23153615Y-21445866D02*
G75*
G03X23153615Y-21445866I-87500J0D01*
G01*
X24095634Y-21065266D02*
G75*
G03X24095634Y-21065266I-87500J0D01*
G01*
X25288873Y-26730814D02*
G75*
G03X25288873Y-26730814I-87500J0D01*
G01*
X26230891Y-26350214D02*
G75*
G03X26230891Y-26350214I-87500J0D01*
G01*
X24765422Y-20363240D02*
G75*
G03X24765422Y-20363240I-87500J0D01*
G01*
X25707441Y-19982640D02*
G75*
G03X25707441Y-19982640I-87500J0D01*
G01*
X22628168Y-25217325D02*
G75*
G03X22628168Y-25217325I-87500J0D01*
G01*
X23570186Y-24836725D02*
G75*
G03X23570186Y-24836725I-87500J0D01*
G01*
X4557364Y-26598978D02*
G75*
G03X4557364Y-26598978I-87500J0D01*
G01*
X5499383Y-26979578D02*
G75*
G03X5499383Y-26979578I-87500J0D01*
G01*
X26188927Y-23886539D02*
G75*
G03X26188927Y-23886539I-87500J0D01*
G01*
X27130946Y-23505939D02*
G75*
G03X27130946Y-23505939I-87500J0D01*
G01*
X6506316Y-26847139D02*
G75*
G03X6506316Y-26847139I-87500J0D01*
G01*
X7448335Y-27227739D02*
G75*
G03X7448335Y-27227739I-87500J0D01*
G01*
X19255710Y-21942188D02*
G75*
G03X19255710Y-21942188I-87500J0D01*
G01*
X20197729Y-21561587D02*
G75*
G03X20197729Y-21561587I-87500J0D01*
G01*
X25477174Y-22124890D02*
G75*
G03X25477174Y-22124890I-87500J0D01*
G01*
X26419193Y-21744289D02*
G75*
G03X26419193Y-21744289I-87500J0D01*
G01*
X5269116Y-24837329D02*
G75*
G03X5269116Y-24837329I-87500J0D01*
G01*
X6211135Y-25217929D02*
G75*
G03X6211135Y-25217929I-87500J0D01*
G01*
X8641574Y-21562191D02*
G75*
G03X8641574Y-21562191I-87500J0D01*
G01*
X9583593Y-21942791D02*
G75*
G03X9583593Y-21942791I-87500J0D01*
G01*
X21204663Y-21694027D02*
G75*
G03X21204663Y-21694027I-87500J0D01*
G01*
X22146681Y-21313427D02*
G75*
G03X22146681Y-21313427I-87500J0D01*
G01*
X21390968Y-27227135D02*
G75*
G03X21390968Y-27227135I-87500J0D01*
G01*
X22332986Y-26846535D02*
G75*
G03X22332986Y-26846535I-87500J0D01*
G01*
X4031916Y-22827519D02*
G75*
G03X4031916Y-22827519I-87500J0D01*
G01*
X4973935Y-23208119D02*
G75*
G03X4973935Y-23208119I-87500J0D01*
G01*
X996604Y-25268192D02*
G75*
G03X996604Y-25268192I-87500J0D01*
G01*
X1938623Y-25648792D02*
G75*
G03X1938623Y-25648792I-87500J0D01*
G01*
X26900679Y-25648188D02*
G75*
G03X26900679Y-25648188I-87500J0D01*
G01*
X27842698Y-25267588D02*
G75*
G03X27842698Y-25267588I-87500J0D01*
G01*
X7218069Y-25085490D02*
G75*
G03X7218069Y-25085490I-87500J0D01*
G01*
X8160088Y-25466090D02*
G75*
G03X8160088Y-25466090I-87500J0D01*
G01*
X4743669Y-21065870D02*
G75*
G03X4743669Y-21065870I-87500J0D01*
G01*
X5685687Y-21446470D02*
G75*
G03X5685687Y-21446470I-87500J0D01*
G01*
X5980869Y-23075680D02*
G75*
G03X5980869Y-23075680I-87500J0D01*
G01*
X6922888Y-23456280D02*
G75*
G03X6922888Y-23456280I-87500J0D01*
G01*
X24577120Y-24969165D02*
G75*
G03X24577120Y-24969165I-87500J0D01*
G01*
X25519139Y-24588565D02*
G75*
G03X25519139Y-24588565I-87500J0D01*
G01*
X20679215Y-25465486D02*
G75*
G03X20679215Y-25465486I-87500J0D01*
G01*
X21621234Y-25084886D02*
G75*
G03X21621234Y-25084886I-87500J0D01*
G01*
X2420110Y-21744893D02*
G75*
G03X2420110Y-21744893I-87500J0D01*
G01*
X3362128Y-22125493D02*
G75*
G03X3362128Y-22125493I-87500J0D01*
G01*
X6692621Y-21314030D02*
G75*
G03X6692621Y-21314030I-87500J0D01*
G01*
X7634640Y-21694631D02*
G75*
G03X7634640Y-21694631I-87500J0D01*
G01*
X954309Y-25684351D02*
X954309Y-25984351D01*
X804309Y-25834351D02*
X1104309Y-25834351D01*
X1603005Y-24756817D02*
X1603005Y-25056817D01*
X1453005Y-24906817D02*
X1753005Y-24906817D01*
X1638221Y-25686721D02*
X1638221Y-25986721D01*
X1488221Y-25836721D02*
X1788221Y-25836721D01*
X1984183Y-25148101D02*
X1984183Y-25448101D01*
X1834183Y-25298101D02*
X2134183Y-25298101D01*
X26835782Y-25215108D02*
X26835782Y-25515108D01*
X26685782Y-25365108D02*
X26985782Y-25365108D01*
X26961074Y-25842885D02*
X26961074Y-26142885D01*
X26811074Y-25992885D02*
X27111074Y-25992885D01*
X27329393Y-24741729D02*
X27329393Y-25041729D01*
X27179393Y-24891729D02*
X27479393Y-24891729D01*
X27507080Y-25859562D02*
X27507080Y-26159562D01*
X27357080Y-26009562D02*
X27657080Y-26009562D01*
X7175773Y-25501649D02*
X7175773Y-25801649D01*
X7025773Y-25651649D02*
X7325773Y-25651649D01*
X7824469Y-24574115D02*
X7824469Y-24874115D01*
X7674469Y-24724115D02*
X7974469Y-24724115D01*
X7859685Y-25504019D02*
X7859685Y-25804019D01*
X7709685Y-25654019D02*
X8009685Y-25654019D01*
X8205648Y-24965399D02*
X8205648Y-25265399D01*
X8055648Y-25115399D02*
X8355648Y-25115399D01*
X4701373Y-21482029D02*
X4701373Y-21782029D01*
X4551373Y-21632029D02*
X4851373Y-21632029D01*
X5350069Y-20554495D02*
X5350069Y-20854495D01*
X5200069Y-20704495D02*
X5500069Y-20704495D01*
X5385285Y-21484400D02*
X5385285Y-21784400D01*
X5235285Y-21634400D02*
X5535285Y-21634400D01*
X5731247Y-20945779D02*
X5731247Y-21245779D01*
X5581248Y-21095779D02*
X5881247Y-21095779D01*
X5938573Y-23491839D02*
X5938573Y-23791839D01*
X5788573Y-23641839D02*
X6088573Y-23641839D01*
X6587269Y-22564305D02*
X6587269Y-22864305D01*
X6437269Y-22714305D02*
X6737269Y-22714305D01*
X6622485Y-23494210D02*
X6622485Y-23794210D01*
X6472485Y-23644210D02*
X6772485Y-23644210D01*
X6968448Y-22955589D02*
X6968448Y-23255589D01*
X6818448Y-23105589D02*
X7118448Y-23105589D01*
X24512222Y-24536085D02*
X24512222Y-24836085D01*
X24362222Y-24686085D02*
X24662222Y-24686085D01*
X24637515Y-25163862D02*
X24637515Y-25463862D01*
X24487515Y-25313862D02*
X24787515Y-25313862D01*
X25005834Y-24062705D02*
X25005834Y-24362705D01*
X24855834Y-24212705D02*
X25155834Y-24212705D01*
X25183520Y-25180539D02*
X25183520Y-25480539D01*
X25033520Y-25330539D02*
X25333520Y-25330539D01*
X20614317Y-25032406D02*
X20614317Y-25332406D01*
X20464317Y-25182406D02*
X20764317Y-25182406D01*
X20739610Y-25660183D02*
X20739610Y-25960183D01*
X20589610Y-25810183D02*
X20889610Y-25810183D01*
X21107929Y-24559026D02*
X21107929Y-24859026D01*
X20957929Y-24709026D02*
X21257929Y-24709026D01*
X21285615Y-25676860D02*
X21285615Y-25976860D01*
X21135615Y-25826860D02*
X21435615Y-25826860D01*
X2377814Y-22161052D02*
X2377814Y-22461052D01*
X2227814Y-22311052D02*
X2527814Y-22311052D01*
X3026510Y-21233519D02*
X3026510Y-21533519D01*
X2876510Y-21383519D02*
X3176510Y-21383519D01*
X3061726Y-22163423D02*
X3061726Y-22463423D01*
X2911726Y-22313423D02*
X3211726Y-22313423D01*
X3407688Y-21624803D02*
X3407688Y-21924803D01*
X3257688Y-21774803D02*
X3557688Y-21774803D01*
X6650326Y-21730190D02*
X6650326Y-22030190D01*
X6500326Y-21880190D02*
X6800326Y-21880190D01*
X7299022Y-20802656D02*
X7299022Y-21102656D01*
X7149022Y-20952656D02*
X7449022Y-20952656D01*
X7334238Y-21732560D02*
X7334238Y-22032560D01*
X7184238Y-21882560D02*
X7484238Y-21882560D01*
X7680200Y-21193940D02*
X7680200Y-21493940D01*
X7530200Y-21343940D02*
X7830200Y-21343940D01*
X7887526Y-23740000D02*
X7887526Y-24040000D01*
X7737526Y-23890000D02*
X8037526Y-23890000D01*
X8536222Y-22812466D02*
X8536222Y-23112466D01*
X8386222Y-22962466D02*
X8686222Y-22962466D01*
X8571438Y-23742370D02*
X8571438Y-24042370D01*
X8421438Y-23892370D02*
X8721438Y-23892370D01*
X8917400Y-23203750D02*
X8917400Y-23503750D01*
X8767400Y-23353750D02*
X9067400Y-23353750D01*
X23275022Y-26545895D02*
X23275022Y-26845895D01*
X23125022Y-26695895D02*
X23425022Y-26695895D01*
X23400315Y-27173672D02*
X23400315Y-27473672D01*
X23250315Y-27323672D02*
X23550315Y-27323672D01*
X23768634Y-26072515D02*
X23768634Y-26372515D01*
X23618634Y-26222515D02*
X23918634Y-26222515D01*
X23946320Y-27190349D02*
X23946320Y-27490349D01*
X23796320Y-27340349D02*
X24096320Y-27340349D01*
X21851517Y-23022596D02*
X21851517Y-23322596D01*
X21701517Y-23172596D02*
X22001517Y-23172596D01*
X21976810Y-23650373D02*
X21976810Y-23950373D01*
X21826810Y-23800373D02*
X22126810Y-23800373D01*
X22345129Y-22549217D02*
X22345129Y-22849217D01*
X22195129Y-22699217D02*
X22495129Y-22699217D01*
X22522815Y-23667050D02*
X22522815Y-23967050D01*
X22372815Y-23817050D02*
X22672815Y-23817050D01*
X2566116Y-26766977D02*
X2566116Y-27066977D01*
X2416116Y-26916977D02*
X2716116Y-26916977D01*
X3214811Y-25839443D02*
X3214811Y-26139443D01*
X3064811Y-25989443D02*
X3364811Y-25989443D01*
X3250027Y-26769348D02*
X3250027Y-27069348D01*
X3100027Y-26919348D02*
X3400027Y-26919348D01*
X3595990Y-26230727D02*
X3595990Y-26530727D01*
X3445990Y-26380727D02*
X3745990Y-26380727D01*
X3277868Y-25005328D02*
X3277868Y-25305328D01*
X3127868Y-25155328D02*
X3427868Y-25155328D01*
X3926564Y-24077794D02*
X3926564Y-24377794D01*
X3776564Y-24227794D02*
X4076564Y-24227794D01*
X3961780Y-25007698D02*
X3961780Y-25307698D01*
X3811780Y-25157698D02*
X4111780Y-25157698D01*
X4307743Y-24469078D02*
X4307743Y-24769078D01*
X4157742Y-24619078D02*
X4457743Y-24619078D01*
X3089567Y-20399403D02*
X3089567Y-20699403D01*
X2939567Y-20549403D02*
X3239567Y-20549403D01*
X3738262Y-19471869D02*
X3738262Y-19771869D01*
X3588262Y-19621869D02*
X3888262Y-19621869D01*
X3773478Y-20401774D02*
X3773478Y-20701774D01*
X3623478Y-20551774D02*
X3923478Y-20551774D01*
X4119441Y-19863153D02*
X4119441Y-20163153D01*
X3969441Y-20013153D02*
X4269441Y-20013153D01*
X1666062Y-23922702D02*
X1666062Y-24222702D01*
X1516062Y-24072702D02*
X1816062Y-24072702D01*
X2314757Y-22995168D02*
X2314757Y-23295168D01*
X2164757Y-23145168D02*
X2464757Y-23145168D01*
X2349973Y-23925072D02*
X2349973Y-24225072D01*
X2199973Y-24075072D02*
X2499973Y-24075072D01*
X2695936Y-23386452D02*
X2695936Y-23686452D01*
X2545936Y-23536452D02*
X2845936Y-23536452D01*
X23800470Y-22774436D02*
X23800470Y-23074436D01*
X23650470Y-22924436D02*
X23950470Y-22924436D01*
X23925763Y-23402213D02*
X23925763Y-23702213D01*
X23775763Y-23552213D02*
X24075763Y-23552213D01*
X24294082Y-22301056D02*
X24294082Y-22601056D01*
X24144082Y-22451056D02*
X24444082Y-22451056D01*
X24471768Y-23418890D02*
X24471768Y-23718890D01*
X24321768Y-23568890D02*
X24621768Y-23568890D01*
X19902565Y-23270757D02*
X19902565Y-23570757D01*
X19752565Y-23420757D02*
X20052565Y-23420757D01*
X20027857Y-23898534D02*
X20027857Y-24198534D01*
X19877857Y-24048534D02*
X20177857Y-24048534D01*
X20396176Y-22797377D02*
X20396176Y-23097377D01*
X20246176Y-22947377D02*
X20546176Y-22947377D01*
X20573863Y-23915211D02*
X20573863Y-24215211D01*
X20423863Y-24065211D02*
X20723863Y-24065211D01*
X23088717Y-21012787D02*
X23088717Y-21312787D01*
X22938717Y-21162787D02*
X23238717Y-21162787D01*
X23214010Y-21640563D02*
X23214010Y-21940563D01*
X23064010Y-21790563D02*
X23364010Y-21790563D01*
X23582329Y-20539407D02*
X23582329Y-20839407D01*
X23432329Y-20689407D02*
X23732329Y-20689407D01*
X23760015Y-21657241D02*
X23760015Y-21957241D01*
X23610015Y-21807241D02*
X23910015Y-21807241D01*
X25223975Y-26297735D02*
X25223975Y-26597735D01*
X25073975Y-26447735D02*
X25373975Y-26447735D01*
X25349268Y-26925511D02*
X25349268Y-27225511D01*
X25199268Y-27075511D02*
X25499268Y-27075511D01*
X25717587Y-25824355D02*
X25717587Y-26124355D01*
X25567587Y-25974355D02*
X25867587Y-25974355D01*
X25895273Y-26942189D02*
X25895273Y-27242189D01*
X25745273Y-27092189D02*
X26045273Y-27092189D01*
X24700524Y-19930161D02*
X24700524Y-20230161D01*
X24550524Y-20080161D02*
X24850524Y-20080161D01*
X24825817Y-20557937D02*
X24825817Y-20857937D01*
X24675817Y-20707937D02*
X24975817Y-20707937D01*
X25194136Y-19456781D02*
X25194136Y-19756781D01*
X25044136Y-19606781D02*
X25344136Y-19606781D01*
X25371822Y-20574615D02*
X25371822Y-20874615D01*
X25221822Y-20724615D02*
X25521822Y-20724615D01*
X22563270Y-24784246D02*
X22563270Y-25084246D01*
X22413270Y-24934246D02*
X22713270Y-24934246D01*
X22688562Y-25412023D02*
X22688562Y-25712023D01*
X22538562Y-25562023D02*
X22838562Y-25562023D01*
X23056881Y-24310866D02*
X23056881Y-24610866D01*
X22906881Y-24460866D02*
X23206881Y-24460866D01*
X23234568Y-25428700D02*
X23234568Y-25728700D01*
X23084568Y-25578700D02*
X23384568Y-25578700D01*
X4515068Y-27015138D02*
X4515068Y-27315138D01*
X4365068Y-27165138D02*
X4665068Y-27165138D01*
X5163764Y-26087604D02*
X5163764Y-26387604D01*
X5013764Y-26237604D02*
X5313764Y-26237604D01*
X5198980Y-27017508D02*
X5198980Y-27317508D01*
X5048980Y-27167508D02*
X5348980Y-27167508D01*
X5544943Y-26478888D02*
X5544943Y-26778888D01*
X5394943Y-26628888D02*
X5694943Y-26628888D01*
X26124029Y-23453459D02*
X26124029Y-23753459D01*
X25974029Y-23603459D02*
X26274029Y-23603459D01*
X26249322Y-24081236D02*
X26249322Y-24381236D01*
X26099322Y-24231236D02*
X26399322Y-24231236D01*
X26617641Y-22980079D02*
X26617641Y-23280079D01*
X26467641Y-23130079D02*
X26767641Y-23130079D01*
X26795327Y-24097913D02*
X26795327Y-24397913D01*
X26645327Y-24247913D02*
X26945327Y-24247913D01*
X6464021Y-27263298D02*
X6464021Y-27563298D01*
X6314021Y-27413298D02*
X6614021Y-27413298D01*
X7112717Y-26335765D02*
X7112717Y-26635765D01*
X6962717Y-26485765D02*
X7262717Y-26485765D01*
X7147933Y-27265669D02*
X7147933Y-27565669D01*
X6997933Y-27415669D02*
X7297933Y-27415669D01*
X7493895Y-26727048D02*
X7493895Y-27027048D01*
X7343895Y-26877048D02*
X7643895Y-26877048D01*
X19190812Y-21509108D02*
X19190812Y-21809108D01*
X19040812Y-21659108D02*
X19340812Y-21659108D01*
X19316105Y-22136885D02*
X19316105Y-22436885D01*
X19166105Y-22286885D02*
X19466105Y-22286885D01*
X19684424Y-21035728D02*
X19684424Y-21335728D01*
X19534424Y-21185728D02*
X19834424Y-21185728D01*
X19862110Y-22153562D02*
X19862110Y-22453562D01*
X19712110Y-22303562D02*
X20012110Y-22303562D01*
X25412277Y-21691810D02*
X25412277Y-21991810D01*
X25262277Y-21841810D02*
X25562277Y-21841810D01*
X25537569Y-22319587D02*
X25537569Y-22619587D01*
X25387569Y-22469587D02*
X25687569Y-22469587D01*
X25905888Y-21218430D02*
X25905888Y-21518430D01*
X25755888Y-21368430D02*
X26055888Y-21368430D01*
X26083575Y-22336264D02*
X26083575Y-22636264D01*
X25933575Y-22486264D02*
X26233575Y-22486264D01*
X5226821Y-25253488D02*
X5226821Y-25553488D01*
X5076821Y-25403488D02*
X5376821Y-25403488D01*
X5875517Y-24325955D02*
X5875517Y-24625955D01*
X5725517Y-24475955D02*
X6025517Y-24475955D01*
X5910733Y-25255859D02*
X5910733Y-25555859D01*
X5760733Y-25405859D02*
X6060733Y-25405859D01*
X6256695Y-24717238D02*
X6256695Y-25017238D01*
X6106695Y-24867238D02*
X6406695Y-24867238D01*
X8599279Y-21978350D02*
X8599279Y-22278350D01*
X8449279Y-22128350D02*
X8749279Y-22128350D01*
X9247974Y-21050817D02*
X9247974Y-21350817D01*
X9097974Y-21200817D02*
X9397974Y-21200817D01*
X9283190Y-21980721D02*
X9283190Y-22280721D01*
X9133190Y-22130721D02*
X9433190Y-22130721D01*
X9629153Y-21442100D02*
X9629153Y-21742100D01*
X9479153Y-21592100D02*
X9779153Y-21592100D01*
X21139765Y-21260947D02*
X21139765Y-21560947D01*
X20989765Y-21410947D02*
X21289765Y-21410947D01*
X21265057Y-21888724D02*
X21265057Y-22188724D01*
X21115057Y-22038724D02*
X21415057Y-22038724D01*
X21633376Y-20787567D02*
X21633376Y-21087567D01*
X21483376Y-20937567D02*
X21783376Y-20937567D01*
X21811063Y-21905401D02*
X21811063Y-22205401D01*
X21661063Y-22055401D02*
X21961063Y-22055401D01*
X21326070Y-26794056D02*
X21326070Y-27094056D01*
X21176070Y-26944056D02*
X21476070Y-26944056D01*
X21451362Y-27421833D02*
X21451362Y-27721833D01*
X21301362Y-27571833D02*
X21601362Y-27571833D01*
X21819681Y-26320676D02*
X21819681Y-26620676D01*
X21669681Y-26470676D02*
X21969681Y-26470676D01*
X21997368Y-27438510D02*
X21997368Y-27738510D01*
X21847368Y-27588510D02*
X22147368Y-27588510D01*
X3989621Y-23243678D02*
X3989621Y-23543678D01*
X3839621Y-23393678D02*
X4139621Y-23393678D01*
X4638317Y-22316145D02*
X4638317Y-22616145D01*
X4488317Y-22466145D02*
X4788317Y-22466145D01*
X4673533Y-23246049D02*
X4673533Y-23546049D01*
X4523533Y-23396049D02*
X4823533Y-23396049D01*
X5019495Y-22707429D02*
X5019495Y-23007429D01*
X4869495Y-22857429D02*
X5169495Y-22857429D01*
X8454322Y-23655132D02*
X8454322Y-23373149D01*
X8172339Y-23373149D01*
X8172339Y-23655132D01*
X8454322Y-23655132D01*
X23864421Y-26929666D02*
X23864421Y-26647683D01*
X23582438Y-26647683D01*
X23582438Y-26929666D01*
X23864421Y-26929666D01*
X22440916Y-23406367D02*
X22440916Y-23124385D01*
X22158933Y-23124385D01*
X22158933Y-23406367D01*
X22440916Y-23406367D01*
X3132912Y-26682109D02*
X3132912Y-26400126D01*
X2850929Y-26400126D01*
X2850929Y-26682109D01*
X3132912Y-26682109D01*
X3844664Y-24920460D02*
X3844664Y-24638477D01*
X3562682Y-24638477D01*
X3562682Y-24920460D01*
X3844664Y-24920460D01*
X3656363Y-20314535D02*
X3656363Y-20032552D01*
X3374380Y-20032552D01*
X3374380Y-20314535D01*
X3656363Y-20314535D01*
X2232858Y-23837834D02*
X2232858Y-23555851D01*
X1950875Y-23555851D01*
X1950875Y-23837834D01*
X2232858Y-23837834D01*
X24389868Y-23158207D02*
X24389868Y-22876224D01*
X24107886Y-22876224D01*
X24107886Y-23158207D01*
X24389868Y-23158207D01*
X20491963Y-23654528D02*
X20491963Y-23372545D01*
X20209980Y-23372545D01*
X20209980Y-23654528D01*
X20491963Y-23654528D01*
X23678116Y-21396558D02*
X23678116Y-21114575D01*
X23396133Y-21114575D01*
X23396133Y-21396558D01*
X23678116Y-21396558D01*
X25813373Y-26681506D02*
X25813373Y-26399523D01*
X25531391Y-26399523D01*
X25531391Y-26681506D01*
X25813373Y-26681506D01*
X25289923Y-20313932D02*
X25289923Y-20031949D01*
X25007940Y-20031949D01*
X25007940Y-20313932D01*
X25289923Y-20313932D01*
X23152668Y-25168017D02*
X23152668Y-24886034D01*
X22870686Y-24886034D01*
X22870686Y-25168017D01*
X23152668Y-25168017D01*
X5081865Y-26930270D02*
X5081865Y-26648287D01*
X4799882Y-26648287D01*
X4799882Y-26930270D01*
X5081865Y-26930270D01*
X26713428Y-23837230D02*
X26713428Y-23555247D01*
X26431445Y-23555247D01*
X26431445Y-23837230D01*
X26713428Y-23837230D01*
X7030817Y-27178430D02*
X7030817Y-26896448D01*
X6748834Y-26896448D01*
X6748834Y-27178430D01*
X7030817Y-27178430D01*
X19780211Y-21892879D02*
X19780211Y-21610896D01*
X19498228Y-21610896D01*
X19498228Y-21892879D01*
X19780211Y-21892879D01*
X26001675Y-22075581D02*
X26001675Y-21793598D01*
X25719692Y-21793598D01*
X25719692Y-22075581D01*
X26001675Y-22075581D01*
X5793617Y-25168620D02*
X5793617Y-24886638D01*
X5511634Y-24886638D01*
X5511634Y-25168620D01*
X5793617Y-25168620D01*
X9166075Y-21893482D02*
X9166075Y-21611500D01*
X8884092Y-21611500D01*
X8884092Y-21893482D01*
X9166075Y-21893482D01*
X21729163Y-21644718D02*
X21729163Y-21362735D01*
X21447181Y-21362735D01*
X21447181Y-21644718D01*
X21729163Y-21644718D01*
X21915468Y-27177827D02*
X21915468Y-26895844D01*
X21633486Y-26895844D01*
X21633486Y-27177827D01*
X21915468Y-27177827D01*
X4556417Y-23158811D02*
X4556417Y-22876828D01*
X4274434Y-22876828D01*
X4274434Y-23158811D01*
X4556417Y-23158811D01*
X1521105Y-25599483D02*
X1521105Y-25317500D01*
X1239123Y-25317500D01*
X1239123Y-25599483D01*
X1521105Y-25599483D01*
X27425180Y-25598879D02*
X27425180Y-25316897D01*
X27143197Y-25316897D01*
X27143197Y-25598879D01*
X27425180Y-25598879D01*
X7742570Y-25416781D02*
X7742570Y-25134798D01*
X7460587Y-25134798D01*
X7460587Y-25416781D01*
X7742570Y-25416781D01*
X5268170Y-21397161D02*
X5268170Y-21115178D01*
X4986187Y-21115178D01*
X4986187Y-21397161D01*
X5268170Y-21397161D01*
X6505370Y-23406971D02*
X6505370Y-23124988D01*
X6223387Y-23124988D01*
X6223387Y-23406971D01*
X6505370Y-23406971D01*
X25101621Y-24919856D02*
X25101621Y-24637873D01*
X24819638Y-24637873D01*
X24819638Y-24919856D01*
X25101621Y-24919856D01*
X21203716Y-25416177D02*
X21203716Y-25134195D01*
X20921733Y-25134195D01*
X20921733Y-25416177D01*
X21203716Y-25416177D01*
X2944610Y-22076185D02*
X2944610Y-21794202D01*
X2662628Y-21794202D01*
X2662628Y-22076185D01*
X2944610Y-22076185D01*
X7217122Y-21645322D02*
X7217122Y-21363339D01*
X6935139Y-21363339D01*
X6935139Y-21645322D01*
X7217122Y-21645322D01*
X4415426Y-23265319D02*
X4662926Y-23017819D01*
X4415426Y-22770319D01*
X4167926Y-23017819D01*
X4415426Y-23265319D01*
X1380114Y-25705992D02*
X1627614Y-25458492D01*
X1380114Y-25210992D01*
X1132614Y-25458492D01*
X1380114Y-25705992D01*
X27284189Y-25705388D02*
X27531689Y-25457888D01*
X27284189Y-25210388D01*
X27036689Y-25457888D01*
X27284189Y-25705388D01*
X7601578Y-25523290D02*
X7849078Y-25275790D01*
X7601578Y-25028290D01*
X7354078Y-25275790D01*
X7601578Y-25523290D01*
X5127178Y-21503670D02*
X5374678Y-21256170D01*
X5127178Y-21008670D01*
X4879678Y-21256170D01*
X5127178Y-21503670D01*
X6364378Y-23513480D02*
X6611878Y-23265980D01*
X6364378Y-23018480D01*
X6116878Y-23265980D01*
X6364378Y-23513480D01*
X24960630Y-25026365D02*
X25208130Y-24778865D01*
X24960630Y-24531365D01*
X24713130Y-24778865D01*
X24960630Y-25026365D01*
X21062724Y-25522686D02*
X21310224Y-25275186D01*
X21062724Y-25027686D01*
X20815224Y-25275186D01*
X21062724Y-25522686D01*
X2803619Y-22182693D02*
X3051119Y-21935193D01*
X2803619Y-21687693D01*
X2556119Y-21935193D01*
X2803619Y-22182693D01*
X7076131Y-21751830D02*
X7323631Y-21504330D01*
X7076131Y-21256830D01*
X6828631Y-21504330D01*
X7076131Y-21751830D01*
X8313331Y-23761640D02*
X8560831Y-23514140D01*
X8313331Y-23266640D01*
X8065831Y-23514140D01*
X8313331Y-23761640D01*
X23723429Y-27036175D02*
X23970929Y-26788675D01*
X23723429Y-26541175D01*
X23475929Y-26788675D01*
X23723429Y-27036175D01*
X22299924Y-23512876D02*
X22547424Y-23265376D01*
X22299924Y-23017876D01*
X22052424Y-23265376D01*
X22299924Y-23512876D01*
X2991920Y-26788618D02*
X3239420Y-26541118D01*
X2991920Y-26293618D01*
X2744421Y-26541118D01*
X2991920Y-26788618D01*
X3703673Y-25026968D02*
X3951173Y-24779468D01*
X3703673Y-24531968D01*
X3456173Y-24779468D01*
X3703673Y-25026968D01*
X3515371Y-20421044D02*
X3762871Y-20173544D01*
X3515371Y-19926044D01*
X3267871Y-20173544D01*
X3515371Y-20421044D01*
X2091866Y-23944342D02*
X2339366Y-23696842D01*
X2091866Y-23449342D01*
X1844366Y-23696842D01*
X2091866Y-23944342D01*
X24248877Y-23264715D02*
X24496377Y-23017215D01*
X24248877Y-22769715D01*
X24001377Y-23017215D01*
X24248877Y-23264715D01*
X20350972Y-23761037D02*
X20598472Y-23513537D01*
X20350972Y-23266037D01*
X20103472Y-23513537D01*
X20350972Y-23761037D01*
X23537124Y-21503066D02*
X23784624Y-21255566D01*
X23537124Y-21008066D01*
X23289624Y-21255566D01*
X23537124Y-21503066D01*
X25672382Y-26788014D02*
X25919882Y-26540514D01*
X25672382Y-26293014D01*
X25424882Y-26540514D01*
X25672382Y-26788014D01*
X25148931Y-20420440D02*
X25396431Y-20172940D01*
X25148931Y-19925440D01*
X24901431Y-20172940D01*
X25148931Y-20420440D01*
X23011677Y-25274525D02*
X23259177Y-25027025D01*
X23011677Y-24779525D01*
X22764177Y-25027025D01*
X23011677Y-25274525D01*
X4940873Y-27036778D02*
X5188373Y-26789278D01*
X4940873Y-26541778D01*
X4693373Y-26789278D01*
X4940873Y-27036778D01*
X26572436Y-23943739D02*
X26819936Y-23696239D01*
X26572436Y-23448739D01*
X26324936Y-23696239D01*
X26572436Y-23943739D01*
X6889826Y-27284939D02*
X7137326Y-27037439D01*
X6889826Y-26789939D01*
X6642326Y-27037439D01*
X6889826Y-27284939D01*
X19639219Y-21999387D02*
X19886719Y-21751887D01*
X19639219Y-21504387D01*
X19391719Y-21751887D01*
X19639219Y-21999387D01*
X25860684Y-22182090D02*
X26108184Y-21934590D01*
X25860684Y-21687090D01*
X25613184Y-21934590D01*
X25860684Y-22182090D01*
X5652626Y-25275129D02*
X5900126Y-25027629D01*
X5652626Y-24780129D01*
X5405126Y-25027629D01*
X5652626Y-25275129D01*
X9025083Y-21999991D02*
X9272583Y-21752491D01*
X9025083Y-21504991D01*
X8777583Y-21752491D01*
X9025083Y-21999991D01*
X21588172Y-21751227D02*
X21835672Y-21503727D01*
X21588172Y-21256227D01*
X21340672Y-21503727D01*
X21588172Y-21751227D01*
X21774477Y-27284335D02*
X22021977Y-27036835D01*
X21774477Y-26789335D01*
X21526977Y-27036835D01*
X21774477Y-27284335D01*
D12*
X514989Y-34321640D02*
X514989Y-34021640D01*
X586417Y-34021640D01*
X629274Y-34035926D01*
X657846Y-34064497D01*
X672132Y-34093069D01*
X686417Y-34150212D01*
X686417Y-34193069D01*
X672132Y-34250212D01*
X657846Y-34278783D01*
X629274Y-34307354D01*
X586417Y-34321640D01*
X514989Y-34321640D01*
X814989Y-34321640D02*
X814989Y-34121640D01*
X814989Y-34178783D02*
X829274Y-34150212D01*
X843560Y-34135926D01*
X872131Y-34121640D01*
X900703Y-34121640D01*
X1000703Y-34321640D02*
X1000703Y-34121640D01*
X1000703Y-34021640D02*
X986417Y-34035926D01*
X1000703Y-34050212D01*
X1014989Y-34035926D01*
X1000703Y-34021640D01*
X1000703Y-34050212D01*
X1186417Y-34321640D02*
X1157846Y-34307354D01*
X1143560Y-34278783D01*
X1143560Y-34021640D01*
X1343560Y-34321640D02*
X1314989Y-34307354D01*
X1300703Y-34278783D01*
X1300703Y-34021640D01*
X1686417Y-34321640D02*
X1686417Y-34021640D01*
X1786417Y-34235926D01*
X1886417Y-34021640D01*
X1886417Y-34321640D01*
X2157846Y-34321640D02*
X2157846Y-34164497D01*
X2143560Y-34135926D01*
X2114989Y-34121640D01*
X2057846Y-34121640D01*
X2029274Y-34135926D01*
X2157846Y-34307354D02*
X2129274Y-34321640D01*
X2057846Y-34321640D01*
X2029274Y-34307354D01*
X2014989Y-34278783D01*
X2014989Y-34250212D01*
X2029274Y-34221640D01*
X2057846Y-34207354D01*
X2129274Y-34207354D01*
X2157846Y-34193069D01*
X2300703Y-34121640D02*
X2300703Y-34421640D01*
X2300703Y-34135926D02*
X2329274Y-34121640D01*
X2386417Y-34121640D01*
X2414989Y-34135926D01*
X2429274Y-34150212D01*
X2443560Y-34178783D01*
X2443560Y-34264497D01*
X2429274Y-34293069D01*
X2414989Y-34307354D01*
X2386417Y-34321640D01*
X2329274Y-34321640D01*
X2300703Y-34307354D01*
X2572132Y-34293069D02*
X2586417Y-34307354D01*
X2572132Y-34321640D01*
X2557846Y-34307354D01*
X2572132Y-34293069D01*
X2572132Y-34321640D01*
X2572132Y-34135926D02*
X2586417Y-34150212D01*
X2572132Y-34164497D01*
X2557846Y-34150212D01*
X2572132Y-34135926D01*
X2572132Y-34164497D01*
X58380Y-34730836D02*
X228560Y-34901016D01*
X228560Y-34730836D02*
X58380Y-34901016D01*
X672132Y-34951640D02*
X500703Y-34951640D01*
X586417Y-34951640D02*
X586417Y-34651640D01*
X557846Y-34694497D01*
X529274Y-34723069D01*
X500703Y-34737354D01*
X800703Y-34923069D02*
X814989Y-34937354D01*
X800703Y-34951640D01*
X786417Y-34937354D01*
X800703Y-34923069D01*
X800703Y-34951640D01*
X914989Y-34651640D02*
X1114989Y-34651640D01*
X986417Y-34951640D01*
X1286417Y-34651640D02*
X1314989Y-34651640D01*
X1343560Y-34665926D01*
X1357846Y-34680212D01*
X1372132Y-34708783D01*
X1386417Y-34765926D01*
X1386417Y-34837354D01*
X1372132Y-34894497D01*
X1357846Y-34923069D01*
X1343560Y-34937354D01*
X1314989Y-34951640D01*
X1286417Y-34951640D01*
X1257846Y-34937354D01*
X1243560Y-34923069D01*
X1229274Y-34894497D01*
X1214989Y-34837354D01*
X1214989Y-34765926D01*
X1229274Y-34708783D01*
X1243560Y-34680212D01*
X1257846Y-34665926D01*
X1286417Y-34651640D01*
X1514989Y-34951640D02*
X1514989Y-34751640D01*
X1514989Y-34780212D02*
X1529274Y-34765926D01*
X1557846Y-34751640D01*
X1600703Y-34751640D01*
X1629274Y-34765926D01*
X1643560Y-34794497D01*
X1643560Y-34951640D01*
X1643560Y-34794497D02*
X1657846Y-34765926D01*
X1686417Y-34751640D01*
X1729274Y-34751640D01*
X1757846Y-34765926D01*
X1772131Y-34794497D01*
X1772131Y-34951640D01*
X1914989Y-34951640D02*
X1914989Y-34751640D01*
X1914989Y-34780212D02*
X1929274Y-34765926D01*
X1957846Y-34751640D01*
X2000703Y-34751640D01*
X2029274Y-34765926D01*
X2043560Y-34794497D01*
X2043560Y-34951640D01*
X2043560Y-34794497D02*
X2057846Y-34765926D01*
X2086417Y-34751640D01*
X2129274Y-34751640D01*
X2157846Y-34765926D01*
X2172132Y-34794497D01*
X2172132Y-34951640D01*
X2757846Y-34637354D02*
X2500703Y-35023069D01*
X3143560Y-34651640D02*
X3172131Y-34651640D01*
X3200703Y-34665926D01*
X3214989Y-34680212D01*
X3229274Y-34708783D01*
X3243560Y-34765926D01*
X3243560Y-34837354D01*
X3229274Y-34894497D01*
X3214989Y-34923069D01*
X3200703Y-34937354D01*
X3172131Y-34951640D01*
X3143560Y-34951640D01*
X3114989Y-34937354D01*
X3100703Y-34923069D01*
X3086417Y-34894497D01*
X3072131Y-34837354D01*
X3072131Y-34765926D01*
X3086417Y-34708783D01*
X3100703Y-34680212D01*
X3114989Y-34665926D01*
X3143560Y-34651640D01*
X3372131Y-34923069D02*
X3386417Y-34937354D01*
X3372131Y-34951640D01*
X3357846Y-34937354D01*
X3372131Y-34923069D01*
X3372131Y-34951640D01*
X3572131Y-34651640D02*
X3600703Y-34651640D01*
X3629274Y-34665926D01*
X3643560Y-34680212D01*
X3657846Y-34708783D01*
X3672131Y-34765926D01*
X3672131Y-34837354D01*
X3657846Y-34894497D01*
X3643560Y-34923069D01*
X3629274Y-34937354D01*
X3600703Y-34951640D01*
X3572131Y-34951640D01*
X3543560Y-34937354D01*
X3529274Y-34923069D01*
X3514989Y-34894497D01*
X3500703Y-34837354D01*
X3500703Y-34765926D01*
X3514989Y-34708783D01*
X3529274Y-34680212D01*
X3543560Y-34665926D01*
X3572131Y-34651640D01*
X3929274Y-34651640D02*
X3872131Y-34651640D01*
X3843560Y-34665926D01*
X3829274Y-34680212D01*
X3800703Y-34723069D01*
X3786417Y-34780212D01*
X3786417Y-34894497D01*
X3800703Y-34923069D01*
X3814989Y-34937354D01*
X3843560Y-34951640D01*
X3900703Y-34951640D01*
X3929274Y-34937354D01*
X3943560Y-34923069D01*
X3957846Y-34894497D01*
X3957846Y-34823069D01*
X3943560Y-34794497D01*
X3929274Y-34780212D01*
X3900703Y-34765926D01*
X3843560Y-34765926D01*
X3814989Y-34780212D01*
X3800703Y-34794497D01*
X3786417Y-34823069D01*
X4057846Y-34651640D02*
X4257846Y-34651640D01*
X4129274Y-34951640D01*
X4357846Y-34651640D02*
X4357846Y-34708783D01*
X4472132Y-34651640D02*
X4472132Y-34708783D01*
X4914989Y-35065926D02*
X4900703Y-35051640D01*
X4872132Y-35008783D01*
X4857846Y-34980212D01*
X4843560Y-34937354D01*
X4829274Y-34865926D01*
X4829274Y-34808783D01*
X4843560Y-34737354D01*
X4857846Y-34694497D01*
X4872132Y-34665926D01*
X4900703Y-34623069D01*
X4914989Y-34608783D01*
X5157846Y-34651640D02*
X5100703Y-34651640D01*
X5072132Y-34665926D01*
X5057846Y-34680212D01*
X5029274Y-34723069D01*
X5014989Y-34780212D01*
X5014989Y-34894497D01*
X5029274Y-34923069D01*
X5043560Y-34937354D01*
X5072132Y-34951640D01*
X5129274Y-34951640D01*
X5157846Y-34937354D01*
X5172132Y-34923069D01*
X5186417Y-34894497D01*
X5186417Y-34823069D01*
X5172132Y-34794497D01*
X5157846Y-34780212D01*
X5129274Y-34765926D01*
X5072132Y-34765926D01*
X5043560Y-34780212D01*
X5029274Y-34794497D01*
X5014989Y-34823069D01*
X5443560Y-34751640D02*
X5443560Y-34951640D01*
X5372132Y-34637354D02*
X5300703Y-34851640D01*
X5486417Y-34851640D01*
X5829274Y-34951640D02*
X5829274Y-34651640D01*
X5957846Y-34951640D02*
X5957846Y-34794497D01*
X5943560Y-34765926D01*
X5914989Y-34751640D01*
X5872131Y-34751640D01*
X5843560Y-34765926D01*
X5829274Y-34780212D01*
X6143560Y-34951640D02*
X6114989Y-34937354D01*
X6100703Y-34923069D01*
X6086417Y-34894497D01*
X6086417Y-34808783D01*
X6100703Y-34780212D01*
X6114989Y-34765926D01*
X6143560Y-34751640D01*
X6186417Y-34751640D01*
X6214989Y-34765926D01*
X6229274Y-34780212D01*
X6243560Y-34808783D01*
X6243560Y-34894497D01*
X6229274Y-34923069D01*
X6214989Y-34937354D01*
X6186417Y-34951640D01*
X6143560Y-34951640D01*
X6414989Y-34951640D02*
X6386417Y-34937354D01*
X6372131Y-34908783D01*
X6372131Y-34651640D01*
X6643560Y-34937354D02*
X6614989Y-34951640D01*
X6557846Y-34951640D01*
X6529274Y-34937354D01*
X6514989Y-34908783D01*
X6514989Y-34794497D01*
X6529274Y-34765926D01*
X6557846Y-34751640D01*
X6614989Y-34751640D01*
X6643560Y-34765926D01*
X6657846Y-34794497D01*
X6657846Y-34823069D01*
X6514989Y-34851640D01*
X6772131Y-34937354D02*
X6800703Y-34951640D01*
X6857846Y-34951640D01*
X6886417Y-34937354D01*
X6900703Y-34908783D01*
X6900703Y-34894497D01*
X6886417Y-34865926D01*
X6857846Y-34851640D01*
X6814989Y-34851640D01*
X6786417Y-34837354D01*
X6772131Y-34808783D01*
X6772131Y-34794497D01*
X6786417Y-34765926D01*
X6814989Y-34751640D01*
X6857846Y-34751640D01*
X6886417Y-34765926D01*
X7000703Y-35065926D02*
X7014989Y-35051640D01*
X7043560Y-35008783D01*
X7057846Y-34980212D01*
X7072131Y-34937354D01*
X7086417Y-34865926D01*
X7086417Y-34808783D01*
X7072131Y-34737354D01*
X7057846Y-34694497D01*
X7043560Y-34665926D01*
X7014989Y-34623069D01*
X7000703Y-34608783D01*
X7543560Y-35065926D02*
X7529274Y-35051640D01*
X7500703Y-35008783D01*
X7486417Y-34980212D01*
X7472131Y-34937354D01*
X7457846Y-34865926D01*
X7457846Y-34808783D01*
X7472131Y-34737354D01*
X7486417Y-34694497D01*
X7500703Y-34665926D01*
X7529274Y-34623069D01*
X7543560Y-34608783D01*
X7657846Y-34751640D02*
X7657846Y-34951640D01*
X7657846Y-34780212D02*
X7672131Y-34765926D01*
X7700703Y-34751640D01*
X7743560Y-34751640D01*
X7772131Y-34765926D01*
X7786417Y-34794497D01*
X7786417Y-34951640D01*
X7972131Y-34951640D02*
X7943560Y-34937354D01*
X7929274Y-34923069D01*
X7914989Y-34894497D01*
X7914989Y-34808783D01*
X7929274Y-34780212D01*
X7943560Y-34765926D01*
X7972131Y-34751640D01*
X8014989Y-34751640D01*
X8043560Y-34765926D01*
X8057846Y-34780212D01*
X8072131Y-34808783D01*
X8072131Y-34894497D01*
X8057846Y-34923069D01*
X8043560Y-34937354D01*
X8014989Y-34951640D01*
X7972131Y-34951640D01*
X8157846Y-34751640D02*
X8272131Y-34751640D01*
X8200703Y-34651640D02*
X8200703Y-34908783D01*
X8214989Y-34937354D01*
X8243560Y-34951640D01*
X8272131Y-34951640D01*
X8600703Y-34751640D02*
X8600703Y-35051640D01*
X8600703Y-34765926D02*
X8629274Y-34751640D01*
X8686417Y-34751640D01*
X8714989Y-34765926D01*
X8729274Y-34780212D01*
X8743560Y-34808783D01*
X8743560Y-34894497D01*
X8729274Y-34923069D01*
X8714989Y-34937354D01*
X8686417Y-34951640D01*
X8629274Y-34951640D01*
X8600703Y-34937354D01*
X8914989Y-34951640D02*
X8886417Y-34937354D01*
X8872132Y-34908783D01*
X8872132Y-34651640D01*
X9157846Y-34951640D02*
X9157846Y-34794497D01*
X9143560Y-34765926D01*
X9114989Y-34751640D01*
X9057846Y-34751640D01*
X9029274Y-34765926D01*
X9157846Y-34937354D02*
X9129274Y-34951640D01*
X9057846Y-34951640D01*
X9029274Y-34937354D01*
X9014989Y-34908783D01*
X9014989Y-34880212D01*
X9029274Y-34851640D01*
X9057846Y-34837354D01*
X9129274Y-34837354D01*
X9157846Y-34823069D01*
X9257846Y-34751640D02*
X9372132Y-34751640D01*
X9300703Y-34651640D02*
X9300703Y-34908783D01*
X9314989Y-34937354D01*
X9343560Y-34951640D01*
X9372132Y-34951640D01*
X9586417Y-34937354D02*
X9557846Y-34951640D01*
X9500703Y-34951640D01*
X9472132Y-34937354D01*
X9457846Y-34908783D01*
X9457846Y-34794497D01*
X9472132Y-34765926D01*
X9500703Y-34751640D01*
X9557846Y-34751640D01*
X9586417Y-34765926D01*
X9600703Y-34794497D01*
X9600703Y-34823069D01*
X9457846Y-34851640D01*
X9857846Y-34951640D02*
X9857846Y-34651640D01*
X9857846Y-34937354D02*
X9829274Y-34951640D01*
X9772132Y-34951640D01*
X9743560Y-34937354D01*
X9729274Y-34923069D01*
X9714989Y-34894497D01*
X9714989Y-34808783D01*
X9729274Y-34780212D01*
X9743560Y-34765926D01*
X9772132Y-34751640D01*
X9829274Y-34751640D01*
X9857846Y-34765926D01*
X9972132Y-35065926D02*
X9986417Y-35051640D01*
X10014989Y-35008783D01*
X10029274Y-34980212D01*
X10043560Y-34937354D01*
X10057846Y-34865926D01*
X10057846Y-34808783D01*
X10043560Y-34737354D01*
X10029274Y-34694497D01*
X10014989Y-34665926D01*
X9986417Y-34623069D01*
X9972132Y-34608783D01*
X228560Y-35211926D02*
G75*
G03X228560Y-35211926I-87500J0D01*
G01*
X672132Y-35347640D02*
X500703Y-35347640D01*
X586417Y-35347640D02*
X586417Y-35047640D01*
X557846Y-35090497D01*
X529274Y-35119069D01*
X500703Y-35133354D01*
X800703Y-35319069D02*
X814989Y-35333354D01*
X800703Y-35347640D01*
X786417Y-35333354D01*
X800703Y-35319069D01*
X800703Y-35347640D01*
X914989Y-35047640D02*
X1114989Y-35047640D01*
X986417Y-35347640D01*
X1372132Y-35047640D02*
X1229274Y-35047640D01*
X1214989Y-35190497D01*
X1229274Y-35176212D01*
X1257846Y-35161926D01*
X1329274Y-35161926D01*
X1357846Y-35176212D01*
X1372132Y-35190497D01*
X1386417Y-35219069D01*
X1386417Y-35290497D01*
X1372132Y-35319069D01*
X1357846Y-35333354D01*
X1329274Y-35347640D01*
X1257846Y-35347640D01*
X1229274Y-35333354D01*
X1214989Y-35319069D01*
X1514989Y-35347640D02*
X1514989Y-35147640D01*
X1514989Y-35176212D02*
X1529274Y-35161926D01*
X1557846Y-35147640D01*
X1600703Y-35147640D01*
X1629274Y-35161926D01*
X1643560Y-35190497D01*
X1643560Y-35347640D01*
X1643560Y-35190497D02*
X1657846Y-35161926D01*
X1686417Y-35147640D01*
X1729274Y-35147640D01*
X1757846Y-35161926D01*
X1772131Y-35190497D01*
X1772131Y-35347640D01*
X1914989Y-35347640D02*
X1914989Y-35147640D01*
X1914989Y-35176212D02*
X1929274Y-35161926D01*
X1957846Y-35147640D01*
X2000703Y-35147640D01*
X2029274Y-35161926D01*
X2043560Y-35190497D01*
X2043560Y-35347640D01*
X2043560Y-35190497D02*
X2057846Y-35161926D01*
X2086417Y-35147640D01*
X2129274Y-35147640D01*
X2157846Y-35161926D01*
X2172132Y-35190497D01*
X2172132Y-35347640D01*
X2757846Y-35033354D02*
X2500703Y-35419069D01*
X3143560Y-35047640D02*
X3172131Y-35047640D01*
X3200703Y-35061926D01*
X3214989Y-35076212D01*
X3229274Y-35104783D01*
X3243560Y-35161926D01*
X3243560Y-35233354D01*
X3229274Y-35290497D01*
X3214989Y-35319069D01*
X3200703Y-35333354D01*
X3172131Y-35347640D01*
X3143560Y-35347640D01*
X3114989Y-35333354D01*
X3100703Y-35319069D01*
X3086417Y-35290497D01*
X3072131Y-35233354D01*
X3072131Y-35161926D01*
X3086417Y-35104783D01*
X3100703Y-35076212D01*
X3114989Y-35061926D01*
X3143560Y-35047640D01*
X3372131Y-35319069D02*
X3386417Y-35333354D01*
X3372131Y-35347640D01*
X3357846Y-35333354D01*
X3372131Y-35319069D01*
X3372131Y-35347640D01*
X3572131Y-35047640D02*
X3600703Y-35047640D01*
X3629274Y-35061926D01*
X3643560Y-35076212D01*
X3657846Y-35104783D01*
X3672131Y-35161926D01*
X3672131Y-35233354D01*
X3657846Y-35290497D01*
X3643560Y-35319069D01*
X3629274Y-35333354D01*
X3600703Y-35347640D01*
X3572131Y-35347640D01*
X3543560Y-35333354D01*
X3529274Y-35319069D01*
X3514989Y-35290497D01*
X3500703Y-35233354D01*
X3500703Y-35161926D01*
X3514989Y-35104783D01*
X3529274Y-35076212D01*
X3543560Y-35061926D01*
X3572131Y-35047640D01*
X3929274Y-35047640D02*
X3872131Y-35047640D01*
X3843560Y-35061926D01*
X3829274Y-35076212D01*
X3800703Y-35119069D01*
X3786417Y-35176212D01*
X3786417Y-35290497D01*
X3800703Y-35319069D01*
X3814989Y-35333354D01*
X3843560Y-35347640D01*
X3900703Y-35347640D01*
X3929274Y-35333354D01*
X3943560Y-35319069D01*
X3957846Y-35290497D01*
X3957846Y-35219069D01*
X3943560Y-35190497D01*
X3929274Y-35176212D01*
X3900703Y-35161926D01*
X3843560Y-35161926D01*
X3814989Y-35176212D01*
X3800703Y-35190497D01*
X3786417Y-35219069D01*
X4100703Y-35347640D02*
X4157846Y-35347640D01*
X4186417Y-35333354D01*
X4200703Y-35319069D01*
X4229274Y-35276212D01*
X4243560Y-35219069D01*
X4243560Y-35104783D01*
X4229274Y-35076212D01*
X4214989Y-35061926D01*
X4186417Y-35047640D01*
X4129274Y-35047640D01*
X4100703Y-35061926D01*
X4086417Y-35076212D01*
X4072131Y-35104783D01*
X4072131Y-35176212D01*
X4086417Y-35204783D01*
X4100703Y-35219069D01*
X4129274Y-35233354D01*
X4186417Y-35233354D01*
X4214989Y-35219069D01*
X4229274Y-35204783D01*
X4243560Y-35176212D01*
X4357846Y-35047640D02*
X4357846Y-35104783D01*
X4472132Y-35047640D02*
X4472132Y-35104783D01*
X4914989Y-35461926D02*
X4900703Y-35447640D01*
X4872132Y-35404783D01*
X4857846Y-35376212D01*
X4843560Y-35333354D01*
X4829274Y-35261926D01*
X4829274Y-35204783D01*
X4843560Y-35133354D01*
X4857846Y-35090497D01*
X4872132Y-35061926D01*
X4900703Y-35019069D01*
X4914989Y-35004783D01*
X5157846Y-35047640D02*
X5100703Y-35047640D01*
X5072132Y-35061926D01*
X5057846Y-35076212D01*
X5029274Y-35119069D01*
X5014989Y-35176212D01*
X5014989Y-35290497D01*
X5029274Y-35319069D01*
X5043560Y-35333354D01*
X5072132Y-35347640D01*
X5129274Y-35347640D01*
X5157846Y-35333354D01*
X5172132Y-35319069D01*
X5186417Y-35290497D01*
X5186417Y-35219069D01*
X5172132Y-35190497D01*
X5157846Y-35176212D01*
X5129274Y-35161926D01*
X5072132Y-35161926D01*
X5043560Y-35176212D01*
X5029274Y-35190497D01*
X5014989Y-35219069D01*
X5443560Y-35147640D02*
X5443560Y-35347640D01*
X5372132Y-35033354D02*
X5300703Y-35247640D01*
X5486417Y-35247640D01*
X5829274Y-35347640D02*
X5829274Y-35047640D01*
X5957846Y-35347640D02*
X5957846Y-35190497D01*
X5943560Y-35161926D01*
X5914989Y-35147640D01*
X5872131Y-35147640D01*
X5843560Y-35161926D01*
X5829274Y-35176212D01*
X6143560Y-35347640D02*
X6114989Y-35333354D01*
X6100703Y-35319069D01*
X6086417Y-35290497D01*
X6086417Y-35204783D01*
X6100703Y-35176212D01*
X6114989Y-35161926D01*
X6143560Y-35147640D01*
X6186417Y-35147640D01*
X6214989Y-35161926D01*
X6229274Y-35176212D01*
X6243560Y-35204783D01*
X6243560Y-35290497D01*
X6229274Y-35319069D01*
X6214989Y-35333354D01*
X6186417Y-35347640D01*
X6143560Y-35347640D01*
X6414989Y-35347640D02*
X6386417Y-35333354D01*
X6372131Y-35304783D01*
X6372131Y-35047640D01*
X6643560Y-35333354D02*
X6614989Y-35347640D01*
X6557846Y-35347640D01*
X6529274Y-35333354D01*
X6514989Y-35304783D01*
X6514989Y-35190497D01*
X6529274Y-35161926D01*
X6557846Y-35147640D01*
X6614989Y-35147640D01*
X6643560Y-35161926D01*
X6657846Y-35190497D01*
X6657846Y-35219069D01*
X6514989Y-35247640D01*
X6772131Y-35333354D02*
X6800703Y-35347640D01*
X6857846Y-35347640D01*
X6886417Y-35333354D01*
X6900703Y-35304783D01*
X6900703Y-35290497D01*
X6886417Y-35261926D01*
X6857846Y-35247640D01*
X6814989Y-35247640D01*
X6786417Y-35233354D01*
X6772131Y-35204783D01*
X6772131Y-35190497D01*
X6786417Y-35161926D01*
X6814989Y-35147640D01*
X6857846Y-35147640D01*
X6886417Y-35161926D01*
X7000703Y-35461926D02*
X7014989Y-35447640D01*
X7043560Y-35404783D01*
X7057846Y-35376212D01*
X7072131Y-35333354D01*
X7086417Y-35261926D01*
X7086417Y-35204783D01*
X7072131Y-35133354D01*
X7057846Y-35090497D01*
X7043560Y-35061926D01*
X7014989Y-35019069D01*
X7000703Y-35004783D01*
X7543560Y-35461926D02*
X7529274Y-35447640D01*
X7500703Y-35404783D01*
X7486417Y-35376212D01*
X7472131Y-35333354D01*
X7457846Y-35261926D01*
X7457846Y-35204783D01*
X7472131Y-35133354D01*
X7486417Y-35090497D01*
X7500703Y-35061926D01*
X7529274Y-35019069D01*
X7543560Y-35004783D01*
X7657846Y-35147640D02*
X7657846Y-35347640D01*
X7657846Y-35176212D02*
X7672131Y-35161926D01*
X7700703Y-35147640D01*
X7743560Y-35147640D01*
X7772131Y-35161926D01*
X7786417Y-35190497D01*
X7786417Y-35347640D01*
X7972131Y-35347640D02*
X7943560Y-35333354D01*
X7929274Y-35319069D01*
X7914989Y-35290497D01*
X7914989Y-35204783D01*
X7929274Y-35176212D01*
X7943560Y-35161926D01*
X7972131Y-35147640D01*
X8014989Y-35147640D01*
X8043560Y-35161926D01*
X8057846Y-35176212D01*
X8072131Y-35204783D01*
X8072131Y-35290497D01*
X8057846Y-35319069D01*
X8043560Y-35333354D01*
X8014989Y-35347640D01*
X7972131Y-35347640D01*
X8157846Y-35147640D02*
X8272131Y-35147640D01*
X8200703Y-35047640D02*
X8200703Y-35304783D01*
X8214989Y-35333354D01*
X8243560Y-35347640D01*
X8272131Y-35347640D01*
X8600703Y-35147640D02*
X8600703Y-35447640D01*
X8600703Y-35161926D02*
X8629274Y-35147640D01*
X8686417Y-35147640D01*
X8714989Y-35161926D01*
X8729274Y-35176212D01*
X8743560Y-35204783D01*
X8743560Y-35290497D01*
X8729274Y-35319069D01*
X8714989Y-35333354D01*
X8686417Y-35347640D01*
X8629274Y-35347640D01*
X8600703Y-35333354D01*
X8914989Y-35347640D02*
X8886417Y-35333354D01*
X8872132Y-35304783D01*
X8872132Y-35047640D01*
X9157846Y-35347640D02*
X9157846Y-35190497D01*
X9143560Y-35161926D01*
X9114989Y-35147640D01*
X9057846Y-35147640D01*
X9029274Y-35161926D01*
X9157846Y-35333354D02*
X9129274Y-35347640D01*
X9057846Y-35347640D01*
X9029274Y-35333354D01*
X9014989Y-35304783D01*
X9014989Y-35276212D01*
X9029274Y-35247640D01*
X9057846Y-35233354D01*
X9129274Y-35233354D01*
X9157846Y-35219069D01*
X9257846Y-35147640D02*
X9372132Y-35147640D01*
X9300703Y-35047640D02*
X9300703Y-35304783D01*
X9314989Y-35333354D01*
X9343560Y-35347640D01*
X9372132Y-35347640D01*
X9586417Y-35333354D02*
X9557846Y-35347640D01*
X9500703Y-35347640D01*
X9472132Y-35333354D01*
X9457846Y-35304783D01*
X9457846Y-35190497D01*
X9472132Y-35161926D01*
X9500703Y-35147640D01*
X9557846Y-35147640D01*
X9586417Y-35161926D01*
X9600703Y-35190497D01*
X9600703Y-35219069D01*
X9457846Y-35247640D01*
X9857846Y-35347640D02*
X9857846Y-35047640D01*
X9857846Y-35333354D02*
X9829274Y-35347640D01*
X9772132Y-35347640D01*
X9743560Y-35333354D01*
X9729274Y-35319069D01*
X9714989Y-35290497D01*
X9714989Y-35204783D01*
X9729274Y-35176212D01*
X9743560Y-35161926D01*
X9772132Y-35147640D01*
X9829274Y-35147640D01*
X9857846Y-35161926D01*
X9972132Y-35461926D02*
X9986417Y-35447640D01*
X10014989Y-35404783D01*
X10029274Y-35376212D01*
X10043560Y-35333354D01*
X10057846Y-35261926D01*
X10057846Y-35204783D01*
X10043560Y-35133354D01*
X10029274Y-35090497D01*
X10014989Y-35061926D01*
X9986417Y-35019069D01*
X9972132Y-35004783D01*
X78560Y-35457926D02*
X78560Y-35757926D01*
X-71440Y-35607926D02*
X228560Y-35607926D01*
X486417Y-35443640D02*
X672132Y-35443640D01*
X572132Y-35557926D01*
X614989Y-35557926D01*
X643560Y-35572212D01*
X657846Y-35586497D01*
X672132Y-35615069D01*
X672132Y-35686497D01*
X657846Y-35715069D01*
X643560Y-35729354D01*
X614989Y-35743640D01*
X529274Y-35743640D01*
X500703Y-35729354D01*
X486417Y-35715069D01*
X800703Y-35715069D02*
X814989Y-35729354D01*
X800703Y-35743640D01*
X786417Y-35729354D01*
X800703Y-35715069D01*
X800703Y-35743640D01*
X1000703Y-35443640D02*
X1029274Y-35443640D01*
X1057846Y-35457926D01*
X1072132Y-35472212D01*
X1086417Y-35500783D01*
X1100703Y-35557926D01*
X1100703Y-35629354D01*
X1086417Y-35686497D01*
X1072132Y-35715069D01*
X1057846Y-35729354D01*
X1029274Y-35743640D01*
X1000703Y-35743640D01*
X972131Y-35729354D01*
X957846Y-35715069D01*
X943560Y-35686497D01*
X929274Y-35629354D01*
X929274Y-35557926D01*
X943560Y-35500783D01*
X957846Y-35472212D01*
X972131Y-35457926D01*
X1000703Y-35443640D01*
X1286417Y-35443640D02*
X1314989Y-35443640D01*
X1343560Y-35457926D01*
X1357846Y-35472212D01*
X1372132Y-35500783D01*
X1386417Y-35557926D01*
X1386417Y-35629354D01*
X1372132Y-35686497D01*
X1357846Y-35715069D01*
X1343560Y-35729354D01*
X1314989Y-35743640D01*
X1286417Y-35743640D01*
X1257846Y-35729354D01*
X1243560Y-35715069D01*
X1229274Y-35686497D01*
X1214989Y-35629354D01*
X1214989Y-35557926D01*
X1229274Y-35500783D01*
X1243560Y-35472212D01*
X1257846Y-35457926D01*
X1286417Y-35443640D01*
X1514989Y-35743640D02*
X1514989Y-35543640D01*
X1514989Y-35572212D02*
X1529274Y-35557926D01*
X1557846Y-35543640D01*
X1600703Y-35543640D01*
X1629274Y-35557926D01*
X1643560Y-35586497D01*
X1643560Y-35743640D01*
X1643560Y-35586497D02*
X1657846Y-35557926D01*
X1686417Y-35543640D01*
X1729274Y-35543640D01*
X1757846Y-35557926D01*
X1772131Y-35586497D01*
X1772131Y-35743640D01*
X1914989Y-35743640D02*
X1914989Y-35543640D01*
X1914989Y-35572212D02*
X1929274Y-35557926D01*
X1957846Y-35543640D01*
X2000703Y-35543640D01*
X2029274Y-35557926D01*
X2043560Y-35586497D01*
X2043560Y-35743640D01*
X2043560Y-35586497D02*
X2057846Y-35557926D01*
X2086417Y-35543640D01*
X2129274Y-35543640D01*
X2157846Y-35557926D01*
X2172132Y-35586497D01*
X2172132Y-35743640D01*
X2757846Y-35429354D02*
X2500703Y-35815069D01*
X3143560Y-35443640D02*
X3172131Y-35443640D01*
X3200703Y-35457926D01*
X3214989Y-35472212D01*
X3229274Y-35500783D01*
X3243560Y-35557926D01*
X3243560Y-35629354D01*
X3229274Y-35686497D01*
X3214989Y-35715069D01*
X3200703Y-35729354D01*
X3172131Y-35743640D01*
X3143560Y-35743640D01*
X3114989Y-35729354D01*
X3100703Y-35715069D01*
X3086417Y-35686497D01*
X3072131Y-35629354D01*
X3072131Y-35557926D01*
X3086417Y-35500783D01*
X3100703Y-35472212D01*
X3114989Y-35457926D01*
X3143560Y-35443640D01*
X3372131Y-35715069D02*
X3386417Y-35729354D01*
X3372131Y-35743640D01*
X3357846Y-35729354D01*
X3372131Y-35715069D01*
X3372131Y-35743640D01*
X3672131Y-35743640D02*
X3500703Y-35743640D01*
X3586417Y-35743640D02*
X3586417Y-35443640D01*
X3557846Y-35486497D01*
X3529274Y-35515069D01*
X3500703Y-35529354D01*
X3957846Y-35743640D02*
X3786417Y-35743640D01*
X3872131Y-35743640D02*
X3872131Y-35443640D01*
X3843560Y-35486497D01*
X3814989Y-35515069D01*
X3786417Y-35529354D01*
X4129274Y-35572212D02*
X4100703Y-35557926D01*
X4086417Y-35543640D01*
X4072131Y-35515069D01*
X4072131Y-35500783D01*
X4086417Y-35472212D01*
X4100703Y-35457926D01*
X4129274Y-35443640D01*
X4186417Y-35443640D01*
X4214989Y-35457926D01*
X4229274Y-35472212D01*
X4243560Y-35500783D01*
X4243560Y-35515069D01*
X4229274Y-35543640D01*
X4214989Y-35557926D01*
X4186417Y-35572212D01*
X4129274Y-35572212D01*
X4100703Y-35586497D01*
X4086417Y-35600783D01*
X4072131Y-35629354D01*
X4072131Y-35686497D01*
X4086417Y-35715069D01*
X4100703Y-35729354D01*
X4129274Y-35743640D01*
X4186417Y-35743640D01*
X4214989Y-35729354D01*
X4229274Y-35715069D01*
X4243560Y-35686497D01*
X4243560Y-35629354D01*
X4229274Y-35600783D01*
X4214989Y-35586497D01*
X4186417Y-35572212D01*
X4357846Y-35443640D02*
X4357846Y-35500783D01*
X4472132Y-35443640D02*
X4472132Y-35500783D01*
X4914989Y-35857926D02*
X4900703Y-35843640D01*
X4872132Y-35800783D01*
X4857846Y-35772212D01*
X4843560Y-35729354D01*
X4829274Y-35657926D01*
X4829274Y-35600783D01*
X4843560Y-35529354D01*
X4857846Y-35486497D01*
X4872132Y-35457926D01*
X4900703Y-35415069D01*
X4914989Y-35400783D01*
X5186417Y-35743640D02*
X5014989Y-35743640D01*
X5100703Y-35743640D02*
X5100703Y-35443640D01*
X5072132Y-35486497D01*
X5043560Y-35515069D01*
X5014989Y-35529354D01*
X5300703Y-35472212D02*
X5314989Y-35457926D01*
X5343560Y-35443640D01*
X5414989Y-35443640D01*
X5443560Y-35457926D01*
X5457846Y-35472212D01*
X5472132Y-35500783D01*
X5472132Y-35529354D01*
X5457846Y-35572212D01*
X5286417Y-35743640D01*
X5472132Y-35743640D01*
X5643560Y-35572212D02*
X5614989Y-35557926D01*
X5600703Y-35543640D01*
X5586417Y-35515069D01*
X5586417Y-35500783D01*
X5600703Y-35472212D01*
X5614989Y-35457926D01*
X5643560Y-35443640D01*
X5700703Y-35443640D01*
X5729274Y-35457926D01*
X5743560Y-35472212D01*
X5757846Y-35500783D01*
X5757846Y-35515069D01*
X5743560Y-35543640D01*
X5729274Y-35557926D01*
X5700703Y-35572212D01*
X5643560Y-35572212D01*
X5614989Y-35586497D01*
X5600703Y-35600783D01*
X5586417Y-35629354D01*
X5586417Y-35686497D01*
X5600703Y-35715069D01*
X5614989Y-35729354D01*
X5643560Y-35743640D01*
X5700703Y-35743640D01*
X5729274Y-35729354D01*
X5743560Y-35715069D01*
X5757846Y-35686497D01*
X5757846Y-35629354D01*
X5743560Y-35600783D01*
X5729274Y-35586497D01*
X5700703Y-35572212D01*
X6114989Y-35743640D02*
X6114989Y-35443640D01*
X6243560Y-35743640D02*
X6243560Y-35586497D01*
X6229274Y-35557926D01*
X6200703Y-35543640D01*
X6157846Y-35543640D01*
X6129274Y-35557926D01*
X6114989Y-35572212D01*
X6429274Y-35743640D02*
X6400703Y-35729354D01*
X6386417Y-35715069D01*
X6372131Y-35686497D01*
X6372131Y-35600783D01*
X6386417Y-35572212D01*
X6400703Y-35557926D01*
X6429274Y-35543640D01*
X6472131Y-35543640D01*
X6500703Y-35557926D01*
X6514989Y-35572212D01*
X6529274Y-35600783D01*
X6529274Y-35686497D01*
X6514989Y-35715069D01*
X6500703Y-35729354D01*
X6472131Y-35743640D01*
X6429274Y-35743640D01*
X6700703Y-35743640D02*
X6672131Y-35729354D01*
X6657846Y-35700783D01*
X6657846Y-35443640D01*
X6929274Y-35729354D02*
X6900703Y-35743640D01*
X6843560Y-35743640D01*
X6814989Y-35729354D01*
X6800703Y-35700783D01*
X6800703Y-35586497D01*
X6814989Y-35557926D01*
X6843560Y-35543640D01*
X6900703Y-35543640D01*
X6929274Y-35557926D01*
X6943560Y-35586497D01*
X6943560Y-35615069D01*
X6800703Y-35643640D01*
X7057846Y-35729354D02*
X7086417Y-35743640D01*
X7143560Y-35743640D01*
X7172131Y-35729354D01*
X7186417Y-35700783D01*
X7186417Y-35686497D01*
X7172131Y-35657926D01*
X7143560Y-35643640D01*
X7100703Y-35643640D01*
X7072131Y-35629354D01*
X7057846Y-35600783D01*
X7057846Y-35586497D01*
X7072131Y-35557926D01*
X7100703Y-35543640D01*
X7143560Y-35543640D01*
X7172131Y-35557926D01*
X7286417Y-35857926D02*
X7300703Y-35843640D01*
X7329274Y-35800783D01*
X7343560Y-35772212D01*
X7357846Y-35729354D01*
X7372131Y-35657926D01*
X7372131Y-35600783D01*
X7357846Y-35529354D01*
X7343560Y-35486497D01*
X7329274Y-35457926D01*
X7300703Y-35415069D01*
X7286417Y-35400783D01*
X7829274Y-35857926D02*
X7814989Y-35843640D01*
X7786417Y-35800783D01*
X7772131Y-35772212D01*
X7757846Y-35729354D01*
X7743560Y-35657926D01*
X7743560Y-35600783D01*
X7757846Y-35529354D01*
X7772131Y-35486497D01*
X7786417Y-35457926D01*
X7814989Y-35415069D01*
X7829274Y-35400783D01*
X7943560Y-35543640D02*
X7943560Y-35743640D01*
X7943560Y-35572212D02*
X7957846Y-35557926D01*
X7986417Y-35543640D01*
X8029274Y-35543640D01*
X8057846Y-35557926D01*
X8072131Y-35586497D01*
X8072131Y-35743640D01*
X8257846Y-35743640D02*
X8229274Y-35729354D01*
X8214989Y-35715069D01*
X8200703Y-35686497D01*
X8200703Y-35600783D01*
X8214989Y-35572212D01*
X8229274Y-35557926D01*
X8257846Y-35543640D01*
X8300703Y-35543640D01*
X8329274Y-35557926D01*
X8343560Y-35572212D01*
X8357846Y-35600783D01*
X8357846Y-35686497D01*
X8343560Y-35715069D01*
X8329274Y-35729354D01*
X8300703Y-35743640D01*
X8257846Y-35743640D01*
X8443560Y-35543640D02*
X8557846Y-35543640D01*
X8486417Y-35443640D02*
X8486417Y-35700783D01*
X8500703Y-35729354D01*
X8529274Y-35743640D01*
X8557846Y-35743640D01*
X8886417Y-35543640D02*
X8886417Y-35843640D01*
X8886417Y-35557926D02*
X8914989Y-35543640D01*
X8972132Y-35543640D01*
X9000703Y-35557926D01*
X9014989Y-35572212D01*
X9029274Y-35600783D01*
X9029274Y-35686497D01*
X9014989Y-35715069D01*
X9000703Y-35729354D01*
X8972132Y-35743640D01*
X8914989Y-35743640D01*
X8886417Y-35729354D01*
X9200703Y-35743640D02*
X9172132Y-35729354D01*
X9157846Y-35700783D01*
X9157846Y-35443640D01*
X9443560Y-35743640D02*
X9443560Y-35586497D01*
X9429274Y-35557926D01*
X9400703Y-35543640D01*
X9343560Y-35543640D01*
X9314989Y-35557926D01*
X9443560Y-35729354D02*
X9414989Y-35743640D01*
X9343560Y-35743640D01*
X9314989Y-35729354D01*
X9300703Y-35700783D01*
X9300703Y-35672212D01*
X9314989Y-35643640D01*
X9343560Y-35629354D01*
X9414989Y-35629354D01*
X9443560Y-35615069D01*
X9543560Y-35543640D02*
X9657846Y-35543640D01*
X9586417Y-35443640D02*
X9586417Y-35700783D01*
X9600703Y-35729354D01*
X9629274Y-35743640D01*
X9657846Y-35743640D01*
X9872132Y-35729354D02*
X9843560Y-35743640D01*
X9786417Y-35743640D01*
X9757846Y-35729354D01*
X9743560Y-35700783D01*
X9743560Y-35586497D01*
X9757846Y-35557926D01*
X9786417Y-35543640D01*
X9843560Y-35543640D01*
X9872132Y-35557926D01*
X9886417Y-35586497D01*
X9886417Y-35615069D01*
X9743560Y-35643640D01*
X10143560Y-35743640D02*
X10143560Y-35443640D01*
X10143560Y-35729354D02*
X10114989Y-35743640D01*
X10057846Y-35743640D01*
X10029274Y-35729354D01*
X10014989Y-35715069D01*
X10000703Y-35686497D01*
X10000703Y-35600783D01*
X10014989Y-35572212D01*
X10029274Y-35557926D01*
X10057846Y-35543640D01*
X10114989Y-35543640D01*
X10143560Y-35557926D01*
X10257846Y-35857926D02*
X10272132Y-35843640D01*
X10300703Y-35800783D01*
X10314989Y-35772212D01*
X10329274Y-35729354D01*
X10343560Y-35657926D01*
X10343560Y-35600783D01*
X10329274Y-35529354D01*
X10314989Y-35486497D01*
X10300703Y-35457926D01*
X10272132Y-35415069D01*
X10257846Y-35400783D01*
X170162Y-36178917D02*
X170162Y-35896935D01*
X-111821Y-35896935D01*
X-111821Y-36178917D01*
X170162Y-36178917D01*
X486417Y-35873640D02*
X672132Y-35873640D01*
X572132Y-35987926D01*
X614989Y-35987926D01*
X643560Y-36002212D01*
X657846Y-36016497D01*
X672132Y-36045069D01*
X672132Y-36116497D01*
X657846Y-36145069D01*
X643560Y-36159354D01*
X614989Y-36173640D01*
X529274Y-36173640D01*
X500703Y-36159354D01*
X486417Y-36145069D01*
X800703Y-36145069D02*
X814989Y-36159354D01*
X800703Y-36173640D01*
X786417Y-36159354D01*
X800703Y-36145069D01*
X800703Y-36173640D01*
X957846Y-36173640D02*
X1014989Y-36173640D01*
X1043560Y-36159354D01*
X1057846Y-36145069D01*
X1086417Y-36102212D01*
X1100703Y-36045069D01*
X1100703Y-35930783D01*
X1086417Y-35902212D01*
X1072132Y-35887926D01*
X1043560Y-35873640D01*
X986417Y-35873640D01*
X957846Y-35887926D01*
X943560Y-35902212D01*
X929274Y-35930783D01*
X929274Y-36002212D01*
X943560Y-36030783D01*
X957846Y-36045069D01*
X986417Y-36059354D01*
X1043560Y-36059354D01*
X1072132Y-36045069D01*
X1086417Y-36030783D01*
X1100703Y-36002212D01*
X1243560Y-36173640D02*
X1300703Y-36173640D01*
X1329274Y-36159354D01*
X1343560Y-36145069D01*
X1372132Y-36102212D01*
X1386417Y-36045069D01*
X1386417Y-35930783D01*
X1372132Y-35902212D01*
X1357846Y-35887926D01*
X1329274Y-35873640D01*
X1272132Y-35873640D01*
X1243560Y-35887926D01*
X1229274Y-35902212D01*
X1214989Y-35930783D01*
X1214989Y-36002212D01*
X1229274Y-36030783D01*
X1243560Y-36045069D01*
X1272132Y-36059354D01*
X1329274Y-36059354D01*
X1357846Y-36045069D01*
X1372132Y-36030783D01*
X1386417Y-36002212D01*
X1514989Y-36173640D02*
X1514989Y-35973640D01*
X1514989Y-36002212D02*
X1529274Y-35987926D01*
X1557846Y-35973640D01*
X1600703Y-35973640D01*
X1629274Y-35987926D01*
X1643560Y-36016497D01*
X1643560Y-36173640D01*
X1643560Y-36016497D02*
X1657846Y-35987926D01*
X1686417Y-35973640D01*
X1729274Y-35973640D01*
X1757846Y-35987926D01*
X1772131Y-36016497D01*
X1772131Y-36173640D01*
X1914989Y-36173640D02*
X1914989Y-35973640D01*
X1914989Y-36002212D02*
X1929274Y-35987926D01*
X1957846Y-35973640D01*
X2000703Y-35973640D01*
X2029274Y-35987926D01*
X2043560Y-36016497D01*
X2043560Y-36173640D01*
X2043560Y-36016497D02*
X2057846Y-35987926D01*
X2086417Y-35973640D01*
X2129274Y-35973640D01*
X2157846Y-35987926D01*
X2172132Y-36016497D01*
X2172132Y-36173640D01*
X2757846Y-35859354D02*
X2500703Y-36245069D01*
X3143560Y-35873640D02*
X3172131Y-35873640D01*
X3200703Y-35887926D01*
X3214989Y-35902212D01*
X3229274Y-35930783D01*
X3243560Y-35987926D01*
X3243560Y-36059354D01*
X3229274Y-36116497D01*
X3214989Y-36145069D01*
X3200703Y-36159354D01*
X3172131Y-36173640D01*
X3143560Y-36173640D01*
X3114989Y-36159354D01*
X3100703Y-36145069D01*
X3086417Y-36116497D01*
X3072131Y-36059354D01*
X3072131Y-35987926D01*
X3086417Y-35930783D01*
X3100703Y-35902212D01*
X3114989Y-35887926D01*
X3143560Y-35873640D01*
X3372131Y-36145069D02*
X3386417Y-36159354D01*
X3372131Y-36173640D01*
X3357846Y-36159354D01*
X3372131Y-36145069D01*
X3372131Y-36173640D01*
X3672131Y-36173640D02*
X3500703Y-36173640D01*
X3586417Y-36173640D02*
X3586417Y-35873640D01*
X3557846Y-35916497D01*
X3529274Y-35945069D01*
X3500703Y-35959354D01*
X3943560Y-35873640D02*
X3800703Y-35873640D01*
X3786417Y-36016497D01*
X3800703Y-36002212D01*
X3829274Y-35987926D01*
X3900703Y-35987926D01*
X3929274Y-36002212D01*
X3943560Y-36016497D01*
X3957846Y-36045069D01*
X3957846Y-36116497D01*
X3943560Y-36145069D01*
X3929274Y-36159354D01*
X3900703Y-36173640D01*
X3829274Y-36173640D01*
X3800703Y-36159354D01*
X3786417Y-36145069D01*
X4057846Y-35873640D02*
X4257846Y-35873640D01*
X4129274Y-36173640D01*
X4357846Y-35873640D02*
X4357846Y-35930783D01*
X4472132Y-35873640D02*
X4472132Y-35930783D01*
X4914989Y-36287926D02*
X4900703Y-36273640D01*
X4872132Y-36230783D01*
X4857846Y-36202212D01*
X4843560Y-36159354D01*
X4829274Y-36087926D01*
X4829274Y-36030783D01*
X4843560Y-35959354D01*
X4857846Y-35916497D01*
X4872132Y-35887926D01*
X4900703Y-35845069D01*
X4914989Y-35830783D01*
X5000703Y-35873640D02*
X5186417Y-35873640D01*
X5086417Y-35987926D01*
X5129274Y-35987926D01*
X5157846Y-36002212D01*
X5172132Y-36016497D01*
X5186417Y-36045069D01*
X5186417Y-36116497D01*
X5172132Y-36145069D01*
X5157846Y-36159354D01*
X5129274Y-36173640D01*
X5043560Y-36173640D01*
X5014989Y-36159354D01*
X5000703Y-36145069D01*
X5300703Y-35902212D02*
X5314989Y-35887926D01*
X5343560Y-35873640D01*
X5414989Y-35873640D01*
X5443560Y-35887926D01*
X5457846Y-35902212D01*
X5472132Y-35930783D01*
X5472132Y-35959354D01*
X5457846Y-36002212D01*
X5286417Y-36173640D01*
X5472132Y-36173640D01*
X5829274Y-36173640D02*
X5829274Y-35873640D01*
X5957846Y-36173640D02*
X5957846Y-36016497D01*
X5943560Y-35987926D01*
X5914989Y-35973640D01*
X5872131Y-35973640D01*
X5843560Y-35987926D01*
X5829274Y-36002212D01*
X6143560Y-36173640D02*
X6114989Y-36159354D01*
X6100703Y-36145069D01*
X6086417Y-36116497D01*
X6086417Y-36030783D01*
X6100703Y-36002212D01*
X6114989Y-35987926D01*
X6143560Y-35973640D01*
X6186417Y-35973640D01*
X6214989Y-35987926D01*
X6229274Y-36002212D01*
X6243560Y-36030783D01*
X6243560Y-36116497D01*
X6229274Y-36145069D01*
X6214989Y-36159354D01*
X6186417Y-36173640D01*
X6143560Y-36173640D01*
X6414989Y-36173640D02*
X6386417Y-36159354D01*
X6372131Y-36130783D01*
X6372131Y-35873640D01*
X6643560Y-36159354D02*
X6614989Y-36173640D01*
X6557846Y-36173640D01*
X6529274Y-36159354D01*
X6514989Y-36130783D01*
X6514989Y-36016497D01*
X6529274Y-35987926D01*
X6557846Y-35973640D01*
X6614989Y-35973640D01*
X6643560Y-35987926D01*
X6657846Y-36016497D01*
X6657846Y-36045069D01*
X6514989Y-36073640D01*
X6772131Y-36159354D02*
X6800703Y-36173640D01*
X6857846Y-36173640D01*
X6886417Y-36159354D01*
X6900703Y-36130783D01*
X6900703Y-36116497D01*
X6886417Y-36087926D01*
X6857846Y-36073640D01*
X6814989Y-36073640D01*
X6786417Y-36059354D01*
X6772131Y-36030783D01*
X6772131Y-36016497D01*
X6786417Y-35987926D01*
X6814989Y-35973640D01*
X6857846Y-35973640D01*
X6886417Y-35987926D01*
X7000703Y-36287926D02*
X7014989Y-36273640D01*
X7043560Y-36230783D01*
X7057846Y-36202212D01*
X7072131Y-36159354D01*
X7086417Y-36087926D01*
X7086417Y-36030783D01*
X7072131Y-35959354D01*
X7057846Y-35916497D01*
X7043560Y-35887926D01*
X7014989Y-35845069D01*
X7000703Y-35830783D01*
X7543560Y-36287926D02*
X7529274Y-36273640D01*
X7500703Y-36230783D01*
X7486417Y-36202212D01*
X7472131Y-36159354D01*
X7457846Y-36087926D01*
X7457846Y-36030783D01*
X7472131Y-35959354D01*
X7486417Y-35916497D01*
X7500703Y-35887926D01*
X7529274Y-35845069D01*
X7543560Y-35830783D01*
X7657846Y-35973640D02*
X7657846Y-36173640D01*
X7657846Y-36002212D02*
X7672131Y-35987926D01*
X7700703Y-35973640D01*
X7743560Y-35973640D01*
X7772131Y-35987926D01*
X7786417Y-36016497D01*
X7786417Y-36173640D01*
X7972131Y-36173640D02*
X7943560Y-36159354D01*
X7929274Y-36145069D01*
X7914989Y-36116497D01*
X7914989Y-36030783D01*
X7929274Y-36002212D01*
X7943560Y-35987926D01*
X7972131Y-35973640D01*
X8014989Y-35973640D01*
X8043560Y-35987926D01*
X8057846Y-36002212D01*
X8072131Y-36030783D01*
X8072131Y-36116497D01*
X8057846Y-36145069D01*
X8043560Y-36159354D01*
X8014989Y-36173640D01*
X7972131Y-36173640D01*
X8157846Y-35973640D02*
X8272131Y-35973640D01*
X8200703Y-35873640D02*
X8200703Y-36130783D01*
X8214989Y-36159354D01*
X8243560Y-36173640D01*
X8272131Y-36173640D01*
X8600703Y-35973640D02*
X8600703Y-36273640D01*
X8600703Y-35987926D02*
X8629274Y-35973640D01*
X8686417Y-35973640D01*
X8714989Y-35987926D01*
X8729274Y-36002212D01*
X8743560Y-36030783D01*
X8743560Y-36116497D01*
X8729274Y-36145069D01*
X8714989Y-36159354D01*
X8686417Y-36173640D01*
X8629274Y-36173640D01*
X8600703Y-36159354D01*
X8914989Y-36173640D02*
X8886417Y-36159354D01*
X8872132Y-36130783D01*
X8872132Y-35873640D01*
X9157846Y-36173640D02*
X9157846Y-36016497D01*
X9143560Y-35987926D01*
X9114989Y-35973640D01*
X9057846Y-35973640D01*
X9029274Y-35987926D01*
X9157846Y-36159354D02*
X9129274Y-36173640D01*
X9057846Y-36173640D01*
X9029274Y-36159354D01*
X9014989Y-36130783D01*
X9014989Y-36102212D01*
X9029274Y-36073640D01*
X9057846Y-36059354D01*
X9129274Y-36059354D01*
X9157846Y-36045069D01*
X9257846Y-35973640D02*
X9372132Y-35973640D01*
X9300703Y-35873640D02*
X9300703Y-36130783D01*
X9314989Y-36159354D01*
X9343560Y-36173640D01*
X9372132Y-36173640D01*
X9586417Y-36159354D02*
X9557846Y-36173640D01*
X9500703Y-36173640D01*
X9472132Y-36159354D01*
X9457846Y-36130783D01*
X9457846Y-36016497D01*
X9472132Y-35987926D01*
X9500703Y-35973640D01*
X9557846Y-35973640D01*
X9586417Y-35987926D01*
X9600703Y-36016497D01*
X9600703Y-36045069D01*
X9457846Y-36073640D01*
X9857846Y-36173640D02*
X9857846Y-35873640D01*
X9857846Y-36159354D02*
X9829274Y-36173640D01*
X9772132Y-36173640D01*
X9743560Y-36159354D01*
X9729274Y-36145069D01*
X9714989Y-36116497D01*
X9714989Y-36030783D01*
X9729274Y-36002212D01*
X9743560Y-35987926D01*
X9772132Y-35973640D01*
X9829274Y-35973640D01*
X9857846Y-35987926D01*
X9972132Y-36287926D02*
X9986417Y-36273640D01*
X10014989Y-36230783D01*
X10029274Y-36202212D01*
X10043560Y-36159354D01*
X10057846Y-36087926D01*
X10057846Y-36030783D01*
X10043560Y-35959354D01*
X10029274Y-35916497D01*
X10014989Y-35887926D01*
X9986417Y-35845069D01*
X9972132Y-35830783D01*
X-18940Y-36814206D02*
X228560Y-36566706D01*
X-18940Y-36319206D01*
X-266440Y-36566706D01*
X-18940Y-36814206D01*
X643560Y-36502420D02*
X643560Y-36702420D01*
X572132Y-36388134D02*
X500703Y-36602420D01*
X686417Y-36602420D01*
X800703Y-36673849D02*
X814989Y-36688134D01*
X800703Y-36702420D01*
X786417Y-36688134D01*
X800703Y-36673849D01*
X800703Y-36702420D01*
X957846Y-36702420D02*
X1014989Y-36702420D01*
X1043560Y-36688134D01*
X1057846Y-36673849D01*
X1086417Y-36630992D01*
X1100703Y-36573849D01*
X1100703Y-36459563D01*
X1086417Y-36430992D01*
X1072132Y-36416706D01*
X1043560Y-36402420D01*
X986417Y-36402420D01*
X957846Y-36416706D01*
X943560Y-36430992D01*
X929274Y-36459563D01*
X929274Y-36530992D01*
X943560Y-36559563D01*
X957846Y-36573849D01*
X986417Y-36588134D01*
X1043560Y-36588134D01*
X1072132Y-36573849D01*
X1086417Y-36559563D01*
X1100703Y-36530992D01*
X1372132Y-36402420D02*
X1229274Y-36402420D01*
X1214989Y-36545277D01*
X1229274Y-36530992D01*
X1257846Y-36516706D01*
X1329274Y-36516706D01*
X1357846Y-36530992D01*
X1372132Y-36545277D01*
X1386417Y-36573849D01*
X1386417Y-36645277D01*
X1372132Y-36673849D01*
X1357846Y-36688134D01*
X1329274Y-36702420D01*
X1257846Y-36702420D01*
X1229274Y-36688134D01*
X1214989Y-36673849D01*
X1514989Y-36702420D02*
X1514989Y-36502420D01*
X1514989Y-36530992D02*
X1529274Y-36516706D01*
X1557846Y-36502420D01*
X1600703Y-36502420D01*
X1629274Y-36516706D01*
X1643560Y-36545277D01*
X1643560Y-36702420D01*
X1643560Y-36545277D02*
X1657846Y-36516706D01*
X1686417Y-36502420D01*
X1729274Y-36502420D01*
X1757846Y-36516706D01*
X1772131Y-36545277D01*
X1772131Y-36702420D01*
X1914989Y-36702420D02*
X1914989Y-36502420D01*
X1914989Y-36530992D02*
X1929274Y-36516706D01*
X1957846Y-36502420D01*
X2000703Y-36502420D01*
X2029274Y-36516706D01*
X2043560Y-36545277D01*
X2043560Y-36702420D01*
X2043560Y-36545277D02*
X2057846Y-36516706D01*
X2086417Y-36502420D01*
X2129274Y-36502420D01*
X2157846Y-36516706D01*
X2172132Y-36545277D01*
X2172132Y-36702420D01*
X2757846Y-36388134D02*
X2500703Y-36773849D01*
X3143560Y-36402420D02*
X3172131Y-36402420D01*
X3200703Y-36416706D01*
X3214989Y-36430992D01*
X3229274Y-36459563D01*
X3243560Y-36516706D01*
X3243560Y-36588134D01*
X3229274Y-36645277D01*
X3214989Y-36673849D01*
X3200703Y-36688134D01*
X3172131Y-36702420D01*
X3143560Y-36702420D01*
X3114989Y-36688134D01*
X3100703Y-36673849D01*
X3086417Y-36645277D01*
X3072131Y-36588134D01*
X3072131Y-36516706D01*
X3086417Y-36459563D01*
X3100703Y-36430992D01*
X3114989Y-36416706D01*
X3143560Y-36402420D01*
X3372131Y-36673849D02*
X3386417Y-36688134D01*
X3372131Y-36702420D01*
X3357846Y-36688134D01*
X3372131Y-36673849D01*
X3372131Y-36702420D01*
X3672131Y-36702420D02*
X3500703Y-36702420D01*
X3586417Y-36702420D02*
X3586417Y-36402420D01*
X3557846Y-36445277D01*
X3529274Y-36473849D01*
X3500703Y-36488134D01*
X3814989Y-36702420D02*
X3872131Y-36702420D01*
X3900703Y-36688134D01*
X3914989Y-36673849D01*
X3943560Y-36630992D01*
X3957846Y-36573849D01*
X3957846Y-36459563D01*
X3943560Y-36430992D01*
X3929274Y-36416706D01*
X3900703Y-36402420D01*
X3843560Y-36402420D01*
X3814989Y-36416706D01*
X3800703Y-36430992D01*
X3786417Y-36459563D01*
X3786417Y-36530992D01*
X3800703Y-36559563D01*
X3814989Y-36573849D01*
X3843560Y-36588134D01*
X3900703Y-36588134D01*
X3929274Y-36573849D01*
X3943560Y-36559563D01*
X3957846Y-36530992D01*
X4229274Y-36402420D02*
X4086417Y-36402420D01*
X4072131Y-36545277D01*
X4086417Y-36530992D01*
X4114989Y-36516706D01*
X4186417Y-36516706D01*
X4214989Y-36530992D01*
X4229274Y-36545277D01*
X4243560Y-36573849D01*
X4243560Y-36645277D01*
X4229274Y-36673849D01*
X4214989Y-36688134D01*
X4186417Y-36702420D01*
X4114989Y-36702420D01*
X4086417Y-36688134D01*
X4072131Y-36673849D01*
X4357846Y-36402420D02*
X4357846Y-36459563D01*
X4472132Y-36402420D02*
X4472132Y-36459563D01*
X4914989Y-36816706D02*
X4900703Y-36802420D01*
X4872132Y-36759563D01*
X4857846Y-36730992D01*
X4843560Y-36688134D01*
X4829274Y-36616706D01*
X4829274Y-36559563D01*
X4843560Y-36488134D01*
X4857846Y-36445277D01*
X4872132Y-36416706D01*
X4900703Y-36373849D01*
X4914989Y-36359563D01*
X5000703Y-36402420D02*
X5186417Y-36402420D01*
X5086417Y-36516706D01*
X5129274Y-36516706D01*
X5157846Y-36530992D01*
X5172132Y-36545277D01*
X5186417Y-36573849D01*
X5186417Y-36645277D01*
X5172132Y-36673849D01*
X5157846Y-36688134D01*
X5129274Y-36702420D01*
X5043560Y-36702420D01*
X5014989Y-36688134D01*
X5000703Y-36673849D01*
X5300703Y-36430992D02*
X5314989Y-36416706D01*
X5343560Y-36402420D01*
X5414989Y-36402420D01*
X5443560Y-36416706D01*
X5457846Y-36430992D01*
X5472132Y-36459563D01*
X5472132Y-36488134D01*
X5457846Y-36530992D01*
X5286417Y-36702420D01*
X5472132Y-36702420D01*
X5829274Y-36702420D02*
X5829274Y-36402420D01*
X5957846Y-36702420D02*
X5957846Y-36545277D01*
X5943560Y-36516706D01*
X5914989Y-36502420D01*
X5872131Y-36502420D01*
X5843560Y-36516706D01*
X5829274Y-36530992D01*
X6143560Y-36702420D02*
X6114989Y-36688134D01*
X6100703Y-36673849D01*
X6086417Y-36645277D01*
X6086417Y-36559563D01*
X6100703Y-36530992D01*
X6114989Y-36516706D01*
X6143560Y-36502420D01*
X6186417Y-36502420D01*
X6214989Y-36516706D01*
X6229274Y-36530992D01*
X6243560Y-36559563D01*
X6243560Y-36645277D01*
X6229274Y-36673849D01*
X6214989Y-36688134D01*
X6186417Y-36702420D01*
X6143560Y-36702420D01*
X6414989Y-36702420D02*
X6386417Y-36688134D01*
X6372131Y-36659563D01*
X6372131Y-36402420D01*
X6643560Y-36688134D02*
X6614989Y-36702420D01*
X6557846Y-36702420D01*
X6529274Y-36688134D01*
X6514989Y-36659563D01*
X6514989Y-36545277D01*
X6529274Y-36516706D01*
X6557846Y-36502420D01*
X6614989Y-36502420D01*
X6643560Y-36516706D01*
X6657846Y-36545277D01*
X6657846Y-36573849D01*
X6514989Y-36602420D01*
X6772131Y-36688134D02*
X6800703Y-36702420D01*
X6857846Y-36702420D01*
X6886417Y-36688134D01*
X6900703Y-36659563D01*
X6900703Y-36645277D01*
X6886417Y-36616706D01*
X6857846Y-36602420D01*
X6814989Y-36602420D01*
X6786417Y-36588134D01*
X6772131Y-36559563D01*
X6772131Y-36545277D01*
X6786417Y-36516706D01*
X6814989Y-36502420D01*
X6857846Y-36502420D01*
X6886417Y-36516706D01*
X7000703Y-36816706D02*
X7014989Y-36802420D01*
X7043560Y-36759563D01*
X7057846Y-36730992D01*
X7072131Y-36688134D01*
X7086417Y-36616706D01*
X7086417Y-36559563D01*
X7072131Y-36488134D01*
X7057846Y-36445277D01*
X7043560Y-36416706D01*
X7014989Y-36373849D01*
X7000703Y-36359563D01*
X7543560Y-36816706D02*
X7529274Y-36802420D01*
X7500703Y-36759563D01*
X7486417Y-36730992D01*
X7472131Y-36688134D01*
X7457846Y-36616706D01*
X7457846Y-36559563D01*
X7472131Y-36488134D01*
X7486417Y-36445277D01*
X7500703Y-36416706D01*
X7529274Y-36373849D01*
X7543560Y-36359563D01*
X7657846Y-36502420D02*
X7657846Y-36702420D01*
X7657846Y-36530992D02*
X7672131Y-36516706D01*
X7700703Y-36502420D01*
X7743560Y-36502420D01*
X7772131Y-36516706D01*
X7786417Y-36545277D01*
X7786417Y-36702420D01*
X7972131Y-36702420D02*
X7943560Y-36688134D01*
X7929274Y-36673849D01*
X7914989Y-36645277D01*
X7914989Y-36559563D01*
X7929274Y-36530992D01*
X7943560Y-36516706D01*
X7972131Y-36502420D01*
X8014989Y-36502420D01*
X8043560Y-36516706D01*
X8057846Y-36530992D01*
X8072131Y-36559563D01*
X8072131Y-36645277D01*
X8057846Y-36673849D01*
X8043560Y-36688134D01*
X8014989Y-36702420D01*
X7972131Y-36702420D01*
X8157846Y-36502420D02*
X8272131Y-36502420D01*
X8200703Y-36402420D02*
X8200703Y-36659563D01*
X8214989Y-36688134D01*
X8243560Y-36702420D01*
X8272131Y-36702420D01*
X8600703Y-36502420D02*
X8600703Y-36802420D01*
X8600703Y-36516706D02*
X8629274Y-36502420D01*
X8686417Y-36502420D01*
X8714989Y-36516706D01*
X8729274Y-36530992D01*
X8743560Y-36559563D01*
X8743560Y-36645277D01*
X8729274Y-36673849D01*
X8714989Y-36688134D01*
X8686417Y-36702420D01*
X8629274Y-36702420D01*
X8600703Y-36688134D01*
X8914989Y-36702420D02*
X8886417Y-36688134D01*
X8872132Y-36659563D01*
X8872132Y-36402420D01*
X9157846Y-36702420D02*
X9157846Y-36545277D01*
X9143560Y-36516706D01*
X9114989Y-36502420D01*
X9057846Y-36502420D01*
X9029274Y-36516706D01*
X9157846Y-36688134D02*
X9129274Y-36702420D01*
X9057846Y-36702420D01*
X9029274Y-36688134D01*
X9014989Y-36659563D01*
X9014989Y-36630992D01*
X9029274Y-36602420D01*
X9057846Y-36588134D01*
X9129274Y-36588134D01*
X9157846Y-36573849D01*
X9257846Y-36502420D02*
X9372132Y-36502420D01*
X9300703Y-36402420D02*
X9300703Y-36659563D01*
X9314989Y-36688134D01*
X9343560Y-36702420D01*
X9372132Y-36702420D01*
X9586417Y-36688134D02*
X9557846Y-36702420D01*
X9500703Y-36702420D01*
X9472132Y-36688134D01*
X9457846Y-36659563D01*
X9457846Y-36545277D01*
X9472132Y-36516706D01*
X9500703Y-36502420D01*
X9557846Y-36502420D01*
X9586417Y-36516706D01*
X9600703Y-36545277D01*
X9600703Y-36573849D01*
X9457846Y-36602420D01*
X9857846Y-36702420D02*
X9857846Y-36402420D01*
X9857846Y-36688134D02*
X9829274Y-36702420D01*
X9772132Y-36702420D01*
X9743560Y-36688134D01*
X9729274Y-36673849D01*
X9714989Y-36645277D01*
X9714989Y-36559563D01*
X9729274Y-36530992D01*
X9743560Y-36516706D01*
X9772132Y-36502420D01*
X9829274Y-36502420D01*
X9857846Y-36516706D01*
X9972132Y-36816706D02*
X9986417Y-36802420D01*
X10014989Y-36759563D01*
X10029274Y-36730992D01*
X10043560Y-36688134D01*
X10057846Y-36616706D01*
X10057846Y-36559563D01*
X10043560Y-36488134D01*
X10029274Y-36445277D01*
X10014989Y-36416706D01*
X9986417Y-36373849D01*
X9972132Y-36359563D01*
M02*
