M48
; DRILL file {KiCad (5.1.4)-1} date 5/28/2025 2:17:58 PM
; FORMAT={-:-/ absolute / metric / decimal}
; #@! TF.CreationDate,2025-05-28T14:17:58-04:00
; #@! TF.GenerationSoftware,Kicad,Pcbnew,(5.1.4)-1
; #@! TF.FileFunction,NonPlated,1,2,NPTH
FMAT,2
METRIC
T1C1.702
T2C1.750
T3C3.000
T4C3.988
T5C4.950
%
G90
G05
T1
X225.017Y-252.331
X235.216Y-248.21
X44.309Y-265.832
X54.508Y-269.953
X260.625Y-239.023
X270.824Y-234.902
X63.799Y-268.314
X73.998Y-272.435
X191.293Y-219.579
X201.492Y-215.459
X253.507Y-221.406
X263.706Y-217.286
X51.427Y-248.216
X61.626Y-252.337
X85.151Y-215.465
X95.35Y-219.585
X210.782Y-217.098
X220.981Y-212.977
X212.645Y-272.429
X222.844Y-268.308
X39.055Y-228.118
X49.254Y-232.239
X8.702Y-252.525
X18.901Y-256.645
X267.742Y-256.639
X277.941Y-252.519
X70.916Y-250.698
X81.115Y-254.818
X46.172Y-210.501
X56.371Y-214.622
X58.544Y-230.599
X68.743Y-234.72
X244.507Y-249.849
X254.706Y-245.728
X205.528Y-254.812
X215.727Y-250.692
X22.937Y-217.292
X33.136Y-221.412
X65.662Y-212.983
X75.861Y-217.104
X78.034Y-233.081
X88.233Y-237.202
X232.135Y-269.947
X242.334Y-265.826
X217.9Y-234.714
X228.099Y-230.593
X24.82Y-263.351
X35.019Y-267.472
X31.937Y-245.734
X42.136Y-249.855
X30.054Y-199.675
X40.253Y-203.796
X15.819Y-234.908
X26.018Y-239.029
X237.389Y-232.232
X247.588Y-228.112
X198.41Y-237.196
X208.609Y-233.075
X230.272Y-214.616
X240.471Y-210.495
X251.624Y-267.465
X261.823Y-263.345
X246.39Y-203.79
X256.589Y-199.669
T2
X78.423Y-233.238
X87.843Y-237.044
X232.524Y-269.79
X241.944Y-265.984
X218.289Y-234.557
X227.709Y-230.751
X25.209Y-263.508
X34.629Y-267.314
X32.327Y-245.892
X41.747Y-249.698
X30.444Y-199.832
X39.864Y-203.638
X16.209Y-235.065
X25.629Y-238.871
X237.779Y-232.075
X247.199Y-228.269
X198.8Y-237.038
X208.22Y-233.232
X230.661Y-214.459
X240.081Y-210.653
X252.014Y-267.308
X261.434Y-263.502
X246.779Y-203.632
X256.199Y-199.826
X225.407Y-252.173
X234.827Y-248.367
X44.699Y-265.99
X54.119Y-269.796
X261.014Y-238.865
X270.434Y-235.059
X64.188Y-268.471
X73.608Y-272.277
X191.682Y-219.422
X201.102Y-215.616
X253.897Y-221.249
X263.317Y-217.443
X51.816Y-248.373
X61.236Y-252.179
X85.541Y-215.622
X94.961Y-219.428
X211.172Y-216.94
X220.592Y-213.134
X213.035Y-272.271
X222.455Y-268.465
X39.444Y-228.275
X48.864Y-232.081
X9.091Y-252.682
X18.511Y-256.488
X268.132Y-256.482
X277.552Y-252.676
X71.306Y-250.855
X80.726Y-254.661
X46.562Y-210.659
X55.982Y-214.465
X58.934Y-230.757
X68.354Y-234.563
X244.896Y-249.692
X254.316Y-245.886
X205.917Y-254.655
X215.337Y-250.849
X23.326Y-217.449
X32.746Y-221.255
X66.051Y-213.14
X75.471Y-216.946
T3
X9.543Y-258.344
X16.03Y-249.068
X16.382Y-258.367
X19.842Y-252.981
X268.358Y-253.651
X269.611Y-259.929
X273.294Y-248.917
X275.071Y-260.096
X71.758Y-256.516
X78.245Y-247.241
X78.597Y-256.54
X82.056Y-251.154
X47.014Y-216.32
X53.501Y-207.045
X53.853Y-216.344
X57.312Y-210.958
X59.386Y-236.418
X65.873Y-227.143
X66.225Y-236.442
X69.684Y-231.056
X245.122Y-246.861
X246.375Y-253.139
X250.058Y-242.127
X251.835Y-253.305
X206.143Y-251.824
X207.396Y-258.102
X211.079Y-247.09
X212.856Y-258.269
X23.778Y-223.111
X30.265Y-213.835
X30.617Y-223.134
X34.077Y-217.748
X66.503Y-218.802
X72.99Y-209.527
X73.342Y-218.826
X76.802Y-213.439
X78.875Y-238.9
X85.362Y-229.625
X85.714Y-238.924
X89.174Y-233.537
X232.75Y-266.959
X234.003Y-273.237
X237.686Y-262.225
X239.463Y-273.403
X218.515Y-231.726
X219.768Y-238.004
X223.451Y-226.992
X225.228Y-238.171
X25.661Y-269.17
X32.148Y-259.894
X32.5Y-269.193
X35.96Y-263.807
X32.779Y-251.553
X39.266Y-242.278
X39.618Y-251.577
X43.077Y-246.191
X30.896Y-205.494
X37.383Y-196.219
X37.735Y-205.518
X41.194Y-200.132
X16.661Y-240.727
X23.148Y-231.452
X23.5Y-240.751
X26.959Y-235.365
X238.005Y-229.244
X239.258Y-235.522
X242.941Y-224.511
X244.718Y-235.689
X199.026Y-234.208
X200.279Y-240.485
X203.962Y-229.474
X205.739Y-240.652
X230.887Y-211.628
X232.14Y-217.906
X235.823Y-206.894
X237.6Y-218.072
X252.24Y-264.477
X253.493Y-270.755
X257.176Y-259.744
X258.953Y-270.922
X247.005Y-200.802
X248.258Y-207.079
X251.941Y-196.068
X253.718Y-207.246
X225.633Y-249.342
X226.886Y-255.62
X230.569Y-244.609
X232.346Y-255.787
X45.151Y-271.651
X51.638Y-262.376
X51.99Y-271.675
X55.449Y-266.289
X261.24Y-236.035
X262.493Y-242.312
X266.176Y-231.301
X267.953Y-242.479
X64.64Y-274.133
X71.127Y-264.858
X71.479Y-274.157
X74.939Y-268.77
X191.908Y-216.591
X193.161Y-222.869
X196.844Y-211.857
X198.621Y-223.036
X254.123Y-218.418
X255.376Y-224.696
X259.059Y-213.684
X260.836Y-224.863
X52.268Y-254.035
X58.755Y-244.76
X59.107Y-254.059
X62.567Y-248.672
X85.993Y-221.284
X92.48Y-212.008
X92.832Y-221.307
X96.292Y-215.921
X211.398Y-214.109
X212.651Y-220.387
X216.334Y-209.376
X218.111Y-220.554
X213.261Y-269.441
X214.514Y-275.718
X218.197Y-264.707
X219.974Y-275.885
X39.896Y-233.937
X46.383Y-224.661
X46.735Y-233.96
X50.195Y-228.574
T4
X83.133Y-235.141
X237.234Y-267.887
X222.999Y-232.654
X29.919Y-265.411
X37.037Y-247.795
X35.154Y-201.735
X20.919Y-236.968
X242.489Y-230.172
X203.51Y-235.135
X235.371Y-212.556
X256.724Y-265.405
X251.489Y-201.729
X230.117Y-250.27
X49.409Y-267.893
X265.724Y-236.962
X68.898Y-270.374
X196.392Y-217.519
X258.607Y-219.346
X56.526Y-250.276
X90.251Y-217.525
X215.882Y-215.037
X217.745Y-270.368
X44.154Y-230.178
X13.801Y-254.585
X272.842Y-254.579
X76.016Y-252.758
X51.272Y-212.562
X63.644Y-232.66
X249.606Y-247.789
X210.627Y-252.752
X28.036Y-219.352
X70.761Y-215.043
T5
X44.154Y-230.178
X13.801Y-254.585
X272.842Y-254.579
X76.016Y-252.758
X51.272Y-212.562
X63.644Y-232.66
X249.606Y-247.789
X210.627Y-252.752
X28.036Y-219.352
X70.761Y-215.043
X83.133Y-235.141
X237.234Y-267.887
X222.999Y-232.654
X29.919Y-265.411
X37.037Y-247.795
X35.154Y-201.735
X20.919Y-236.968
X242.489Y-230.172
X203.51Y-235.135
X235.371Y-212.556
X256.724Y-265.405
X251.489Y-201.729
X230.117Y-250.27
X49.409Y-267.893
X265.724Y-236.962
X68.898Y-270.374
X196.392Y-217.519
X258.607Y-219.346
X56.526Y-250.276
X90.251Y-217.525
X215.882Y-215.037
X217.745Y-270.368
T0
M30
