G04 #@! TF.GenerationSoftware,KiCad,Pcbnew,(5.1.4)-1*
G04 #@! TF.CreationDate,2025-05-28T14:17:52-04:00*
G04 #@! TF.ProjectId,ThumbsUp,5468756d-6273-4557-902e-6b696361645f,rev?*
G04 #@! TF.SameCoordinates,Original*
G04 #@! TF.FileFunction,Other,Fab,Top*
%FSLAX46Y46*%
G04 Gerber Fmt 4.6, Leading zero omitted, Abs format (unit mm)*
G04 Created by KiCad (PCBNEW (5.1.4)-1) date 2025-05-28 14:17:52*
%MOMM*%
%LPD*%
G04 APERTURE LIST*
%ADD10C,0.150000*%
%ADD11C,0.100000*%
G04 APERTURE END LIST*
D10*
X206155621Y-221663203D02*
X192247864Y-227282302D01*
X192247864Y-227282302D02*
X186628765Y-213374545D01*
X186628765Y-213374545D02*
X200536522Y-207755446D01*
X200536522Y-207755446D02*
X206155621Y-221663203D01*
X245134673Y-216699991D02*
X231226916Y-222319090D01*
X231226916Y-222319090D02*
X225607817Y-208411333D01*
X225607817Y-208411333D02*
X239515574Y-202792234D01*
X239515574Y-202792234D02*
X245134673Y-216699991D01*
X225645147Y-219181597D02*
X211737390Y-224800696D01*
X211737390Y-224800696D02*
X206118291Y-210892939D01*
X206118291Y-210892939D02*
X220026048Y-205273840D01*
X220026048Y-205273840D02*
X225645147Y-219181597D01*
X261252740Y-205873730D02*
X247344983Y-211492829D01*
X247344983Y-211492829D02*
X241725884Y-197585072D01*
X241725884Y-197585072D02*
X255633641Y-191965973D01*
X255633641Y-191965973D02*
X261252740Y-205873730D01*
X246997723Y-272031077D02*
X233089966Y-277650176D01*
X233089966Y-277650176D02*
X227470867Y-263742419D01*
X227470867Y-263742419D02*
X241378624Y-258123320D01*
X241378624Y-258123320D02*
X246997723Y-272031077D01*
X239880198Y-254414583D02*
X225972441Y-260033682D01*
X225972441Y-260033682D02*
X220353342Y-246125925D01*
X220353342Y-246125925D02*
X234261099Y-240506826D01*
X234261099Y-240506826D02*
X239880198Y-254414583D01*
X282605316Y-258723210D02*
X268697559Y-264342309D01*
X268697559Y-264342309D02*
X263078460Y-250434552D01*
X263078460Y-250434552D02*
X276986217Y-244815453D01*
X276986217Y-244815453D02*
X282605316Y-258723210D01*
X232762672Y-236798090D02*
X218854915Y-242417189D01*
X218854915Y-242417189D02*
X213235816Y-228509432D01*
X213235816Y-228509432D02*
X227143573Y-222890333D01*
X227143573Y-222890333D02*
X232762672Y-236798090D01*
X275487791Y-241106717D02*
X261580034Y-246725816D01*
X261580034Y-246725816D02*
X255960935Y-232818059D01*
X255960935Y-232818059D02*
X269868692Y-227198960D01*
X269868692Y-227198960D02*
X275487791Y-241106717D01*
X47127452Y-202798270D02*
X61035209Y-208417369D01*
X61035209Y-208417369D02*
X55416110Y-222325126D01*
X55416110Y-222325126D02*
X41508353Y-216706027D01*
X41508353Y-216706027D02*
X47127452Y-202798270D01*
X31009385Y-191972010D02*
X44917142Y-197591109D01*
X44917142Y-197591109D02*
X39298043Y-211498866D01*
X39298043Y-211498866D02*
X25390286Y-205879767D01*
X25390286Y-205879767D02*
X31009385Y-191972010D01*
X268370266Y-223490224D02*
X254462509Y-229109323D01*
X254462509Y-229109323D02*
X248843410Y-215201566D01*
X248843410Y-215201566D02*
X262751167Y-209582467D01*
X262751167Y-209582467D02*
X268370266Y-223490224D01*
X259369724Y-251932977D02*
X245461967Y-257552076D01*
X245461967Y-257552076D02*
X239842868Y-243644319D01*
X239842868Y-243644319D02*
X253750625Y-238025220D01*
X253750625Y-238025220D02*
X259369724Y-251932977D01*
X252252199Y-234316484D02*
X238344442Y-239935583D01*
X238344442Y-239935583D02*
X232725343Y-226027826D01*
X232725343Y-226027826D02*
X246633100Y-220408727D01*
X246633100Y-220408727D02*
X252252199Y-234316484D01*
X86106505Y-207761482D02*
X100014262Y-213380581D01*
X100014262Y-213380581D02*
X94395163Y-227288338D01*
X94395163Y-227288338D02*
X80487406Y-221669239D01*
X80487406Y-221669239D02*
X86106505Y-207761482D01*
X66616978Y-205279876D02*
X80524735Y-210898975D01*
X80524735Y-210898975D02*
X74905636Y-224806732D01*
X74905636Y-224806732D02*
X60997879Y-219187633D01*
X60997879Y-219187633D02*
X66616978Y-205279876D01*
X266487249Y-269549471D02*
X252579492Y-275168570D01*
X252579492Y-275168570D02*
X246960393Y-261260813D01*
X246960393Y-261260813D02*
X260868150Y-255641714D01*
X260868150Y-255641714D02*
X266487249Y-269549471D01*
X220390672Y-256896189D02*
X206482915Y-262515288D01*
X206482915Y-262515288D02*
X200863816Y-248607531D01*
X200863816Y-248607531D02*
X214771573Y-242988432D01*
X214771573Y-242988432D02*
X220390672Y-256896189D01*
X213273146Y-239279696D02*
X199365389Y-244898795D01*
X199365389Y-244898795D02*
X193746290Y-230991038D01*
X193746290Y-230991038D02*
X207654047Y-225371939D01*
X207654047Y-225371939D02*
X213273146Y-239279696D01*
X227508197Y-274512683D02*
X213600440Y-280131782D01*
X213600440Y-280131782D02*
X207981341Y-266224025D01*
X207981341Y-266224025D02*
X221889098Y-260604926D01*
X221889098Y-260604926D02*
X227508197Y-274512683D01*
D11*
X27774892Y-288789841D02*
X31580895Y-279369653D01*
X30129939Y-289741342D02*
X27774892Y-288789841D01*
X33698067Y-280909916D02*
X30129939Y-289741342D01*
X33347180Y-280083279D02*
X33698067Y-280909916D01*
X31580895Y-279369653D02*
X33347180Y-280083279D01*
D10*
X40009927Y-220414764D02*
X53917684Y-226033863D01*
X53917684Y-226033863D02*
X48298585Y-239941620D01*
X48298585Y-239941620D02*
X34390828Y-234322521D01*
X34390828Y-234322521D02*
X40009927Y-220414764D01*
X78988979Y-225377976D02*
X92896736Y-230997075D01*
X92896736Y-230997075D02*
X87277637Y-244904832D01*
X87277637Y-244904832D02*
X73369880Y-239285733D01*
X73369880Y-239285733D02*
X78988979Y-225377976D01*
X9656810Y-244821489D02*
X23564567Y-250440588D01*
X23564567Y-250440588D02*
X17945468Y-264348345D01*
X17945468Y-264348345D02*
X4037711Y-258729246D01*
X4037711Y-258729246D02*
X9656810Y-244821489D01*
X45264403Y-258129356D02*
X59172160Y-263748455D01*
X59172160Y-263748455D02*
X53553061Y-277656212D01*
X53553061Y-277656212D02*
X39645304Y-272037113D01*
X39645304Y-272037113D02*
X45264403Y-258129356D01*
X71871454Y-242994469D02*
X85779211Y-248613568D01*
X85779211Y-248613568D02*
X80160112Y-262521325D01*
X80160112Y-262521325D02*
X66252355Y-256902226D01*
X66252355Y-256902226D02*
X71871454Y-242994469D01*
X25774876Y-255647750D02*
X39682633Y-261266849D01*
X39682633Y-261266849D02*
X34063534Y-275174606D01*
X34063534Y-275174606D02*
X20155777Y-269555507D01*
X20155777Y-269555507D02*
X25774876Y-255647750D01*
X32892402Y-238031257D02*
X46800159Y-243650356D01*
X46800159Y-243650356D02*
X41181060Y-257558113D01*
X41181060Y-257558113D02*
X27273303Y-251939014D01*
X27273303Y-251939014D02*
X32892402Y-238031257D01*
X64753929Y-260610962D02*
X78661686Y-266230061D01*
X78661686Y-266230061D02*
X73042587Y-280137818D01*
X73042587Y-280137818D02*
X59134830Y-274518719D01*
X59134830Y-274518719D02*
X64753929Y-260610962D01*
X59499453Y-222896370D02*
X73407210Y-228515469D01*
X73407210Y-228515469D02*
X67788111Y-242423226D01*
X67788111Y-242423226D02*
X53880354Y-236804127D01*
X53880354Y-236804127D02*
X59499453Y-222896370D01*
X16774335Y-227204996D02*
X30682092Y-232824095D01*
X30682092Y-232824095D02*
X25062993Y-246731852D01*
X25062993Y-246731852D02*
X11155236Y-241112753D01*
X11155236Y-241112753D02*
X16774335Y-227204996D01*
X52381928Y-240512863D02*
X66289685Y-246131962D01*
X66289685Y-246131962D02*
X60670586Y-260039719D01*
X60670586Y-260039719D02*
X46762829Y-254420620D01*
X46762829Y-254420620D02*
X52381928Y-240512863D01*
X23891860Y-209588503D02*
X37799617Y-215207602D01*
X37799617Y-215207602D02*
X32180518Y-229115359D01*
X32180518Y-229115359D02*
X18272761Y-223496260D01*
X18272761Y-223496260D02*
X23891860Y-209588503D01*
D11*
X110065565Y-338034403D02*
X101951428Y-331919962D01*
X111594175Y-336005868D02*
X110065565Y-338034403D01*
X103987172Y-330273580D02*
X111594175Y-336005868D01*
X103097885Y-330398561D02*
X103987172Y-330273580D01*
X101951428Y-331919962D02*
X103097885Y-330398561D01*
X174863586Y-336055963D02*
X182977723Y-329941523D01*
X176392196Y-338084498D02*
X174863586Y-336055963D01*
X183999200Y-332352210D02*
X176392196Y-338084498D01*
X184124181Y-331462923D02*
X183999200Y-332352210D01*
X182977723Y-329941523D02*
X184124181Y-331462923D01*
X191419237Y-236536572D02*
X181999049Y-240342575D01*
X190467736Y-234181525D02*
X191419237Y-236536572D01*
X181636310Y-237749653D02*
X190467736Y-234181525D01*
X181285423Y-238576290D02*
X181636310Y-237749653D01*
X181999049Y-240342575D02*
X181285423Y-238576290D01*
X182447344Y-219669292D02*
X173027156Y-223475295D01*
X181495843Y-217314245D02*
X182447344Y-219669292D01*
X172664417Y-220882373D02*
X181495843Y-217314245D01*
X172313530Y-221709010D02*
X172664417Y-220882373D01*
X173027156Y-223475295D02*
X172313530Y-221709010D01*
X89087604Y-251799443D02*
X98507792Y-255605446D01*
X88136103Y-254154490D02*
X89087604Y-251799443D01*
X96967529Y-257722618D02*
X88136103Y-254154490D01*
X97794166Y-257371731D02*
X96967529Y-257722618D01*
X98507792Y-255605446D02*
X97794166Y-257371731D01*
X198536762Y-254153065D02*
X189116574Y-257959068D01*
X197585261Y-251798018D02*
X198536762Y-254153065D01*
X188753835Y-255366146D02*
X197585261Y-251798018D01*
X188402948Y-256192783D02*
X188753835Y-255366146D01*
X189116574Y-257959068D02*
X188402948Y-256192783D01*
X96205129Y-234182950D02*
X105625317Y-237988953D01*
X95253628Y-236537997D02*
X96205129Y-234182950D01*
X104085054Y-240106125D02*
X95253628Y-236537997D01*
X104911691Y-239755238D02*
X104085054Y-240106125D01*
X105625317Y-237988953D02*
X104911691Y-239755238D01*
X255015724Y-279156313D02*
X258821727Y-288576501D01*
X252660677Y-280107814D02*
X255015724Y-279156313D01*
X256228805Y-288939240D02*
X252660677Y-280107814D01*
X257055442Y-289290127D02*
X256228805Y-288939240D01*
X258821727Y-288576501D02*
X257055442Y-289290127D01*
X81970078Y-269415936D02*
X91390266Y-273221939D01*
X81018577Y-271770983D02*
X81970078Y-269415936D01*
X89850003Y-275339111D02*
X81018577Y-271770983D01*
X90676640Y-274988224D02*
X89850003Y-275339111D01*
X91390266Y-273221939D02*
X90676640Y-274988224D01*
X205654287Y-271769558D02*
X196234099Y-275575561D01*
X204702786Y-269414511D02*
X205654287Y-271769558D01*
X195871360Y-272982639D02*
X204702786Y-269414511D01*
X195520473Y-273809276D02*
X195871360Y-272982639D01*
X196234099Y-275575561D02*
X195520473Y-273809276D01*
X105177022Y-217315670D02*
X114597210Y-221121673D01*
X104225521Y-219670717D02*
X105177022Y-217315670D01*
X113056947Y-223238845D02*
X104225521Y-219670717D01*
X113883584Y-222887958D02*
X113056947Y-223238845D01*
X114597210Y-221121673D02*
X113883584Y-222887958D01*
D10*
X191075094Y-217827962D02*
X191225388Y-217818599D01*
X191446146Y-217729407D01*
X191516611Y-217649578D01*
X191542924Y-217587588D01*
X191551399Y-217481447D01*
X191515722Y-217393143D01*
X191435893Y-217322678D01*
X191373903Y-217296365D01*
X191267762Y-217287890D01*
X191073317Y-217315092D01*
X190967175Y-217306618D01*
X190905185Y-217280304D01*
X190825357Y-217209840D01*
X190789680Y-217121536D01*
X190798155Y-217015395D01*
X190824468Y-216953405D01*
X190894933Y-216873576D01*
X191115691Y-216784384D01*
X191265984Y-216775021D01*
X191682076Y-216915062D02*
X192108420Y-217461830D01*
X192106642Y-216948961D01*
X192461633Y-217319123D01*
X192388502Y-216629647D01*
X192909846Y-216521728D02*
X192803704Y-216513253D01*
X192741714Y-216486940D01*
X192661886Y-216416475D01*
X192644048Y-216372323D01*
X192652522Y-216266182D01*
X192678836Y-216204192D01*
X192749300Y-216124363D01*
X192925907Y-216053010D01*
X193032049Y-216061484D01*
X193094039Y-216087798D01*
X193173867Y-216158262D01*
X193191705Y-216202414D01*
X193183231Y-216308556D01*
X193156917Y-216370546D01*
X193086453Y-216450374D01*
X192909846Y-216521728D01*
X192839381Y-216601556D01*
X192813068Y-216663546D01*
X192804593Y-216769688D01*
X192875947Y-216946294D01*
X192955775Y-217016759D01*
X193017765Y-217043072D01*
X193123907Y-217051547D01*
X193300513Y-216980193D01*
X193370978Y-216900365D01*
X193397291Y-216838375D01*
X193405766Y-216732233D01*
X193334413Y-216555627D01*
X193254584Y-216485162D01*
X193192594Y-216458849D01*
X193086453Y-216450374D01*
X230054146Y-212864750D02*
X230204440Y-212855387D01*
X230425198Y-212766195D01*
X230495663Y-212686366D01*
X230521976Y-212624376D01*
X230530451Y-212518235D01*
X230494774Y-212429931D01*
X230414945Y-212359466D01*
X230352955Y-212333153D01*
X230246814Y-212324678D01*
X230052369Y-212351880D01*
X229946227Y-212343406D01*
X229884237Y-212317092D01*
X229804409Y-212246628D01*
X229768732Y-212158324D01*
X229777207Y-212052183D01*
X229803520Y-211990193D01*
X229873985Y-211910364D01*
X230094743Y-211821172D01*
X230245036Y-211811809D01*
X230661128Y-211951850D02*
X231087472Y-212498618D01*
X231085694Y-211985749D01*
X231440685Y-212355911D01*
X231367554Y-211666435D01*
X231772504Y-211143313D02*
X231860807Y-211107636D01*
X231966949Y-211116111D01*
X232028939Y-211142424D01*
X232108767Y-211212889D01*
X232224273Y-211371657D01*
X232313465Y-211592415D01*
X232340667Y-211786860D01*
X232332192Y-211893001D01*
X232305879Y-211954991D01*
X232235414Y-212034820D01*
X232147111Y-212070497D01*
X232040969Y-212062022D01*
X231978979Y-212035709D01*
X231899151Y-211965244D01*
X231783645Y-211806476D01*
X231694453Y-211585718D01*
X231667251Y-211391273D01*
X231675726Y-211285131D01*
X231702039Y-211223141D01*
X231772504Y-211143313D01*
X210564620Y-215346356D02*
X210714914Y-215336993D01*
X210935672Y-215247801D01*
X211006137Y-215167972D01*
X211032450Y-215105982D01*
X211040925Y-214999841D01*
X211005248Y-214911537D01*
X210925419Y-214841072D01*
X210863429Y-214814759D01*
X210757288Y-214806284D01*
X210562843Y-214833486D01*
X210456701Y-214825012D01*
X210394711Y-214798698D01*
X210314883Y-214728234D01*
X210279206Y-214639930D01*
X210287681Y-214533789D01*
X210313994Y-214471799D01*
X210384459Y-214391970D01*
X210605217Y-214302778D01*
X210755510Y-214293415D01*
X211171602Y-214433456D02*
X211597946Y-214980224D01*
X211596168Y-214467355D01*
X211951159Y-214837517D01*
X211878028Y-214148041D01*
X212525130Y-214605618D02*
X212701736Y-214534264D01*
X212772201Y-214454436D01*
X212798514Y-214392446D01*
X212833302Y-214224314D01*
X212806100Y-214029869D01*
X212663393Y-213676656D01*
X212583565Y-213606192D01*
X212521575Y-213579878D01*
X212415433Y-213571404D01*
X212238826Y-213642757D01*
X212168362Y-213722586D01*
X212142048Y-213784576D01*
X212133574Y-213890717D01*
X212222766Y-214111475D01*
X212302594Y-214181940D01*
X212364584Y-214208253D01*
X212470726Y-214216728D01*
X212647332Y-214145375D01*
X212717797Y-214065546D01*
X212744110Y-214003556D01*
X212752585Y-213897414D01*
X245355409Y-202368500D02*
X245505702Y-202359136D01*
X245726460Y-202269944D01*
X245796925Y-202190116D01*
X245823238Y-202128126D01*
X245831713Y-202021984D01*
X245796036Y-201933681D01*
X245716207Y-201863216D01*
X245654217Y-201836903D01*
X245548076Y-201828428D01*
X245353631Y-201855630D01*
X245247489Y-201847155D01*
X245185499Y-201820842D01*
X245105671Y-201750377D01*
X245069994Y-201662074D01*
X245078469Y-201555932D01*
X245104782Y-201493942D01*
X245175247Y-201414114D01*
X245396005Y-201324922D01*
X245546298Y-201315558D01*
X245962390Y-201455599D02*
X246388734Y-202002368D01*
X246386956Y-201489498D01*
X246741947Y-201859661D01*
X246668816Y-201170185D01*
X247271766Y-201645600D02*
X246897160Y-200718416D01*
X247117918Y-200629224D01*
X247268211Y-200619860D01*
X247392191Y-200672487D01*
X247472020Y-200742952D01*
X247587525Y-200901720D01*
X247641040Y-201034174D01*
X247668242Y-201228619D01*
X247659767Y-201334761D01*
X247607141Y-201458741D01*
X247492524Y-201556408D01*
X247271766Y-201645600D01*
X248002728Y-200785326D02*
X248311789Y-200660457D01*
X248640466Y-201092609D02*
X248198950Y-201270993D01*
X247824344Y-200343809D01*
X248265860Y-200165425D01*
X249479347Y-200753679D02*
X249037831Y-200932063D01*
X248663224Y-200004880D01*
X231056240Y-268543685D02*
X231206533Y-268534322D01*
X231427291Y-268445130D01*
X231497756Y-268365301D01*
X231524069Y-268303311D01*
X231532544Y-268197169D01*
X231496867Y-268108866D01*
X231417039Y-268038401D01*
X231355049Y-268012088D01*
X231248907Y-268003613D01*
X231054462Y-268030815D01*
X230948321Y-268022341D01*
X230886331Y-267996027D01*
X230806502Y-267925563D01*
X230770825Y-267837259D01*
X230779300Y-267731118D01*
X230805613Y-267669128D01*
X230876078Y-267589299D01*
X231096836Y-267500107D01*
X231247130Y-267490744D01*
X231663221Y-267630784D02*
X232089566Y-268177553D01*
X232087788Y-267664684D01*
X232442778Y-268034846D01*
X232369647Y-267345370D01*
X232972598Y-267820785D02*
X232597991Y-266893601D01*
X232818749Y-266804409D01*
X232969042Y-266795046D01*
X233093023Y-266847672D01*
X233172851Y-266918137D01*
X233288356Y-267076905D01*
X233341871Y-267209360D01*
X233369073Y-267403805D01*
X233360599Y-267509946D01*
X233307972Y-267633926D01*
X233193356Y-267731593D01*
X232972598Y-267820785D01*
X233701781Y-266447641D02*
X233878388Y-266376288D01*
X233984530Y-266384762D01*
X234108510Y-266437389D01*
X234224015Y-266596157D01*
X234348884Y-266905218D01*
X234376086Y-267099663D01*
X234323459Y-267223643D01*
X234252994Y-267303471D01*
X234076388Y-267374825D01*
X233970246Y-267366350D01*
X233846266Y-267313724D01*
X233730761Y-267154956D01*
X233605892Y-266845894D01*
X233578690Y-266651450D01*
X233631317Y-266527470D01*
X233701781Y-266447641D01*
X234364056Y-266180065D02*
X234893875Y-265966004D01*
X235003572Y-267000218D02*
X234628965Y-266073035D01*
X224865899Y-250552585D02*
X225016192Y-250543221D01*
X225236950Y-250454029D01*
X225307415Y-250374201D01*
X225333728Y-250312211D01*
X225342203Y-250206069D01*
X225306526Y-250117766D01*
X225226698Y-250047301D01*
X225164708Y-250020988D01*
X225058566Y-250012513D01*
X224864121Y-250039715D01*
X224757980Y-250031240D01*
X224695990Y-250004927D01*
X224616161Y-249934462D01*
X224580484Y-249846159D01*
X224588959Y-249740017D01*
X224615272Y-249678027D01*
X224685737Y-249598199D01*
X224906495Y-249509007D01*
X225056788Y-249499643D01*
X225472880Y-249639684D02*
X225899224Y-250186453D01*
X225897447Y-249673583D01*
X226252437Y-250043746D01*
X226179306Y-249354269D01*
X227223773Y-249651301D02*
X226782257Y-249829685D01*
X226407650Y-248902501D01*
X265847028Y-255565829D02*
X265997321Y-255556465D01*
X266218079Y-255467273D01*
X266288544Y-255387445D01*
X266314858Y-255325455D01*
X266323332Y-255219313D01*
X266287655Y-255131010D01*
X266207827Y-255060545D01*
X266145837Y-255034232D01*
X266039695Y-255025757D01*
X265845251Y-255052959D01*
X265739109Y-255044484D01*
X265677119Y-255018171D01*
X265597290Y-254947706D01*
X265561614Y-254859403D01*
X265570088Y-254753261D01*
X265596402Y-254691271D01*
X265666866Y-254611443D01*
X265887625Y-254522251D01*
X266037918Y-254512887D01*
X266454010Y-254652928D02*
X266880354Y-255199697D01*
X266878576Y-254686827D01*
X267233567Y-255056990D01*
X267160435Y-254367514D01*
X268293205Y-254628868D02*
X267805760Y-254312221D01*
X267763386Y-254842929D02*
X267388779Y-253915745D01*
X267741992Y-253773038D01*
X267848134Y-253781512D01*
X267910124Y-253807826D01*
X267989952Y-253878291D01*
X268043468Y-254010745D01*
X268034993Y-254116887D01*
X268008680Y-254178877D01*
X267938215Y-254258705D01*
X267585002Y-254401413D01*
X269184712Y-254165958D02*
X269158399Y-254227948D01*
X269043783Y-254325615D01*
X268955479Y-254361292D01*
X268805186Y-254370655D01*
X268681206Y-254318029D01*
X268601378Y-254247564D01*
X268485872Y-254088796D01*
X268432357Y-253956341D01*
X268405155Y-253761896D01*
X268413630Y-253655755D01*
X268466256Y-253531775D01*
X268580873Y-253434108D01*
X268669176Y-253398431D01*
X268819469Y-253389067D01*
X268881459Y-253415381D01*
X269110692Y-253220047D02*
X269640512Y-253005986D01*
X269750208Y-254040200D02*
X269375602Y-253113017D01*
X270853999Y-253594240D02*
X270366553Y-253277593D01*
X270324179Y-253808301D02*
X269949573Y-252881117D01*
X270302786Y-252738410D01*
X270408927Y-252746885D01*
X270470917Y-252773198D01*
X270550746Y-252843663D01*
X270604261Y-252976118D01*
X270595786Y-253082259D01*
X270569473Y-253144249D01*
X270499008Y-253224078D01*
X270145795Y-253366785D01*
X271692879Y-253255310D02*
X271251363Y-253433694D01*
X270876757Y-252506511D01*
X217637994Y-232980688D02*
X217788287Y-232971324D01*
X218009045Y-232882132D01*
X218079510Y-232802304D01*
X218105823Y-232740314D01*
X218114298Y-232634172D01*
X218078621Y-232545869D01*
X217998793Y-232475404D01*
X217936803Y-232449091D01*
X217830661Y-232440616D01*
X217636216Y-232467818D01*
X217530075Y-232459343D01*
X217468085Y-232433030D01*
X217388256Y-232362565D01*
X217352579Y-232274262D01*
X217361054Y-232168120D01*
X217387367Y-232106130D01*
X217457832Y-232026302D01*
X217678590Y-231937110D01*
X217828883Y-231927746D01*
X218244975Y-232067787D02*
X218671319Y-232614556D01*
X218669542Y-232101686D01*
X219024532Y-232471849D01*
X218951401Y-231782372D01*
X219356351Y-231259250D02*
X219532958Y-231187897D01*
X219639100Y-231196371D01*
X219763080Y-231248998D01*
X219878585Y-231407766D01*
X220003454Y-231716827D01*
X220030656Y-231911272D01*
X219978029Y-232035252D01*
X219907564Y-232115080D01*
X219730958Y-232186434D01*
X219624816Y-232177959D01*
X219500836Y-232125333D01*
X219385331Y-231966565D01*
X219260462Y-231657504D01*
X219233260Y-231463059D01*
X219285887Y-231339079D01*
X219356351Y-231259250D01*
X258707427Y-237958255D02*
X258857721Y-237948891D01*
X259078479Y-237859699D01*
X259148944Y-237779871D01*
X259175257Y-237717881D01*
X259183732Y-237611739D01*
X259148055Y-237523436D01*
X259068226Y-237452971D01*
X259006236Y-237426658D01*
X258900095Y-237418183D01*
X258705650Y-237445385D01*
X258599508Y-237436910D01*
X258537518Y-237410597D01*
X258457690Y-237340132D01*
X258422013Y-237251829D01*
X258430488Y-237145688D01*
X258456801Y-237083698D01*
X258527266Y-237003869D01*
X258748024Y-236914677D01*
X258898317Y-236905313D01*
X259314409Y-237045354D02*
X259740753Y-237592123D01*
X259738975Y-237079253D01*
X260093966Y-237449416D01*
X260020834Y-236759940D01*
X260427563Y-236749687D02*
X260736624Y-236624818D01*
X261065301Y-237056971D02*
X260623785Y-237235355D01*
X260249179Y-236308171D01*
X260690695Y-236129787D01*
X261462666Y-236896425D02*
X261088059Y-235969241D01*
X261992485Y-236682364D01*
X261617878Y-235755180D01*
X261926940Y-235630312D02*
X262456759Y-235416251D01*
X262566456Y-236450465D02*
X262191849Y-235523281D01*
X262944205Y-235732898D02*
X263253266Y-235608029D01*
X263581943Y-236040182D02*
X263140427Y-236218566D01*
X262765820Y-235291382D01*
X263207337Y-235112998D01*
X264509127Y-235665575D02*
X264021682Y-235348928D01*
X263979308Y-235879636D02*
X263604701Y-234952452D01*
X263957914Y-234809745D01*
X264064056Y-234818220D01*
X264126046Y-234844533D01*
X264205874Y-234914998D01*
X264259389Y-235047452D01*
X264250914Y-235153594D01*
X264224601Y-235215584D01*
X264154136Y-235295413D01*
X263800924Y-235438120D01*
X52623851Y-215820228D02*
X52738468Y-215917895D01*
X52959226Y-216007087D01*
X53065368Y-215998612D01*
X53127358Y-215972299D01*
X53207186Y-215901834D01*
X53242863Y-215813531D01*
X53234388Y-215707389D01*
X53208075Y-215645399D01*
X53137610Y-215565571D01*
X52978842Y-215450066D01*
X52908377Y-215370237D01*
X52882064Y-215308247D01*
X52873589Y-215202106D01*
X52909266Y-215113802D01*
X52989094Y-215043338D01*
X53051084Y-215017024D01*
X53157226Y-215008550D01*
X53377984Y-215097742D01*
X53492601Y-215195408D01*
X53694631Y-215585187D02*
X53621500Y-216274663D01*
X53976491Y-215904501D01*
X53974713Y-216417370D01*
X54401057Y-215870602D01*
X54990200Y-216827654D02*
X54460381Y-216613593D01*
X54725290Y-216720623D02*
X55099897Y-215793440D01*
X54958079Y-215890218D01*
X54834099Y-215942844D01*
X54727957Y-215951319D01*
X35026705Y-204396381D02*
X35141322Y-204494048D01*
X35362080Y-204583240D01*
X35468222Y-204574766D01*
X35530212Y-204548452D01*
X35610040Y-204477988D01*
X35645717Y-204389684D01*
X35637242Y-204283543D01*
X35610929Y-204221553D01*
X35540464Y-204141724D01*
X35381696Y-204026219D01*
X35311231Y-203946391D01*
X35284918Y-203884401D01*
X35276443Y-203778259D01*
X35312120Y-203689956D01*
X35391948Y-203619491D01*
X35453938Y-203593178D01*
X35560080Y-203584703D01*
X35780838Y-203673895D01*
X35895455Y-203771562D01*
X36097485Y-204161340D02*
X36024354Y-204850816D01*
X36379345Y-204480654D01*
X36377567Y-204993524D01*
X36803911Y-204446755D01*
X37749822Y-204520775D02*
X37679358Y-204440946D01*
X37546903Y-204387431D01*
X37396609Y-204378068D01*
X37272629Y-204430694D01*
X37192801Y-204501159D01*
X37077296Y-204659927D01*
X37023780Y-204792382D01*
X36996578Y-204986827D01*
X37005053Y-205092968D01*
X37057680Y-205216948D01*
X37172296Y-205314615D01*
X37260599Y-205350292D01*
X37410893Y-205359656D01*
X37472883Y-205333342D01*
X37597751Y-205024281D01*
X37421145Y-204952927D01*
X37834570Y-205582191D02*
X38084308Y-204964069D01*
X38012954Y-205140675D02*
X38092783Y-205070210D01*
X38154773Y-205043897D01*
X38260914Y-205035422D01*
X38349218Y-205071099D01*
X38805906Y-205974636D02*
X39002128Y-205488969D01*
X38993653Y-205382827D01*
X38923189Y-205302998D01*
X38746582Y-205231645D01*
X38640441Y-205240120D01*
X38823744Y-205930485D02*
X38717602Y-205938959D01*
X38496844Y-205849767D01*
X38426380Y-205769939D01*
X38417905Y-205663797D01*
X38453582Y-205575494D01*
X38533410Y-205505029D01*
X38639552Y-205496554D01*
X38860310Y-205585747D01*
X38966451Y-205577272D01*
X39408856Y-205499221D02*
X39379877Y-206206536D01*
X39850372Y-205677605D01*
X40324899Y-206536991D02*
X40218757Y-206545465D01*
X40042151Y-206474112D01*
X39971686Y-206394283D01*
X39963211Y-206288142D01*
X40105919Y-205934929D01*
X40185747Y-205864464D01*
X40291889Y-205855989D01*
X40468495Y-205927343D01*
X40538960Y-206007171D01*
X40547435Y-206113313D01*
X40511758Y-206201616D01*
X40034565Y-206111535D01*
X251898964Y-220216893D02*
X252049257Y-220207530D01*
X252270015Y-220118337D01*
X252340480Y-220038509D01*
X252366793Y-219976519D01*
X252375268Y-219870377D01*
X252339591Y-219782074D01*
X252259763Y-219711609D01*
X252197773Y-219685296D01*
X252091631Y-219676821D01*
X251897186Y-219704023D01*
X251791044Y-219695549D01*
X251729054Y-219669235D01*
X251649226Y-219598771D01*
X251613549Y-219510467D01*
X251622024Y-219404326D01*
X251648337Y-219342336D01*
X251718802Y-219262507D01*
X251939560Y-219173315D01*
X252089853Y-219163952D01*
X252505945Y-219303992D02*
X252932289Y-219850761D01*
X252930512Y-219337892D01*
X253285502Y-219708054D01*
X253212371Y-219018578D01*
X253928160Y-218883457D02*
X254078453Y-218874093D01*
X254140443Y-218900406D01*
X254220272Y-218970871D01*
X254273787Y-219103326D01*
X254265312Y-219209467D01*
X254238999Y-219271457D01*
X254168534Y-219351286D01*
X253815321Y-219493993D01*
X253440715Y-218566809D01*
X253749776Y-218441940D01*
X253855918Y-218450415D01*
X253917908Y-218476728D01*
X253997736Y-218547193D01*
X254033413Y-218635496D01*
X254024938Y-218741638D01*
X253998625Y-218803628D01*
X253928160Y-218883457D01*
X253619099Y-219008325D01*
X254742505Y-219119387D02*
X254367899Y-218192203D01*
X255272325Y-218905326D02*
X254660899Y-218536052D01*
X254897718Y-217978142D02*
X254581960Y-218722022D01*
X255607699Y-218718467D02*
X255757992Y-218709103D01*
X255978750Y-218619911D01*
X256049215Y-218540083D01*
X256075528Y-218478093D01*
X256084003Y-218371951D01*
X256048326Y-218283648D01*
X255968498Y-218213183D01*
X255906508Y-218186870D01*
X255800366Y-218178395D01*
X255605921Y-218205597D01*
X255499780Y-218197122D01*
X255437790Y-218170809D01*
X255357961Y-218100344D01*
X255322285Y-218012041D01*
X255330759Y-217905899D01*
X255357073Y-217843909D01*
X255427537Y-217764081D01*
X255648295Y-217674889D01*
X255798589Y-217665525D01*
X256552721Y-218388012D02*
X256178115Y-217460828D01*
X256531328Y-217318121D01*
X256637469Y-217326595D01*
X256699459Y-217352909D01*
X256779288Y-217423373D01*
X256832803Y-217555828D01*
X256824328Y-217661970D01*
X256798015Y-217723960D01*
X256727550Y-217803788D01*
X256374337Y-217946496D01*
X242434830Y-248846949D02*
X242585123Y-248837586D01*
X242805881Y-248748394D01*
X242876346Y-248668565D01*
X242902659Y-248606575D01*
X242911134Y-248500434D01*
X242875457Y-248412130D01*
X242795629Y-248341666D01*
X242733639Y-248315352D01*
X242627497Y-248306878D01*
X242433052Y-248334080D01*
X242326910Y-248325605D01*
X242264920Y-248299292D01*
X242185092Y-248228827D01*
X242149415Y-248140524D01*
X242157890Y-248034382D01*
X242184203Y-247972392D01*
X242254668Y-247892564D01*
X242475426Y-247803372D01*
X242625719Y-247794008D01*
X243041811Y-247934049D02*
X243468155Y-248480818D01*
X243466378Y-247967948D01*
X243821368Y-248338110D01*
X243748237Y-247648634D01*
X244845330Y-247821685D02*
X244819017Y-247883675D01*
X244704400Y-247981342D01*
X244616097Y-248017019D01*
X244465804Y-248026383D01*
X244341824Y-247973756D01*
X244261995Y-247903291D01*
X244146490Y-247744523D01*
X244092975Y-247612069D01*
X244065773Y-247417624D01*
X244074248Y-247311482D01*
X244126874Y-247187502D01*
X244241491Y-247089835D01*
X244329794Y-247054158D01*
X244480087Y-247044795D01*
X244542077Y-247071108D01*
X245080371Y-246750905D02*
X245256978Y-246679552D01*
X245363119Y-246688027D01*
X245487099Y-246740653D01*
X245602605Y-246899421D01*
X245727473Y-247208482D01*
X245754675Y-247402927D01*
X245702049Y-247526907D01*
X245631584Y-247606736D01*
X245454978Y-247678089D01*
X245348836Y-247669614D01*
X245224856Y-247616988D01*
X245109351Y-247458220D01*
X244984482Y-247149159D01*
X244957280Y-246954714D01*
X245009906Y-246830734D01*
X245080371Y-246750905D01*
X246691223Y-247178614D02*
X246249707Y-247356998D01*
X245875100Y-246429814D01*
X246802284Y-246055207D02*
X246978891Y-245983854D01*
X247085032Y-245992329D01*
X247209012Y-246044955D01*
X247324517Y-246203723D01*
X247449386Y-246512784D01*
X247476588Y-246707229D01*
X247423962Y-246831209D01*
X247353497Y-246911038D01*
X247176891Y-246982391D01*
X247070749Y-246973916D01*
X246946769Y-246921290D01*
X246831264Y-246762522D01*
X246706395Y-246453461D01*
X246679193Y-246259016D01*
X246731819Y-246135036D01*
X246802284Y-246055207D01*
X247971620Y-246661300D02*
X247597013Y-245734116D01*
X248501439Y-246447239D01*
X248126832Y-245520055D01*
X237149597Y-230490162D02*
X237299890Y-230480799D01*
X237520648Y-230391607D01*
X237591113Y-230311778D01*
X237617426Y-230249788D01*
X237625901Y-230143647D01*
X237590224Y-230055343D01*
X237510396Y-229984879D01*
X237448405Y-229958565D01*
X237342264Y-229950091D01*
X237147819Y-229977293D01*
X237041677Y-229968818D01*
X236979687Y-229942505D01*
X236899859Y-229872040D01*
X236864182Y-229783737D01*
X236872657Y-229677595D01*
X236898970Y-229615605D01*
X236969435Y-229535777D01*
X237190193Y-229446585D01*
X237340486Y-229437221D01*
X237756578Y-229577262D02*
X238182922Y-230124031D01*
X238181144Y-229611161D01*
X238536135Y-229981323D01*
X238463004Y-229291847D01*
X239065954Y-229767262D02*
X238691348Y-228840079D01*
X239044561Y-228697371D01*
X239150702Y-228705846D01*
X239212692Y-228732159D01*
X239292521Y-228802624D01*
X239346036Y-228935079D01*
X239337561Y-229041221D01*
X239311248Y-229103211D01*
X239240783Y-229183039D01*
X238887570Y-229325746D01*
X91602904Y-220783440D02*
X91717521Y-220881107D01*
X91938279Y-220970299D01*
X92044421Y-220961824D01*
X92106411Y-220935511D01*
X92186239Y-220865046D01*
X92221916Y-220776743D01*
X92213441Y-220670601D01*
X92187128Y-220608611D01*
X92116663Y-220528783D01*
X91957895Y-220413278D01*
X91887430Y-220333449D01*
X91861117Y-220271459D01*
X91852642Y-220165318D01*
X91888319Y-220077014D01*
X91968147Y-220006550D01*
X92030137Y-219980236D01*
X92136279Y-219971762D01*
X92357037Y-220060954D01*
X92471654Y-220158620D01*
X92673684Y-220548399D02*
X92600553Y-221237875D01*
X92955544Y-220867713D01*
X92953766Y-221380582D01*
X93380110Y-220833814D01*
X93769889Y-220631783D02*
X94343860Y-220863682D01*
X93892091Y-221092026D01*
X94024546Y-221145541D01*
X94095011Y-221225370D01*
X94121324Y-221287360D01*
X94129799Y-221393501D01*
X94040607Y-221614259D01*
X93960778Y-221684724D01*
X93898788Y-221711037D01*
X93792647Y-221719512D01*
X93527737Y-221612482D01*
X93457272Y-221532653D01*
X93430959Y-221470663D01*
X72113377Y-218301834D02*
X72227994Y-218399501D01*
X72448752Y-218488693D01*
X72554894Y-218480218D01*
X72616884Y-218453905D01*
X72696712Y-218383440D01*
X72732389Y-218295137D01*
X72723914Y-218188995D01*
X72697601Y-218127005D01*
X72627136Y-218047177D01*
X72468368Y-217931672D01*
X72397903Y-217851843D01*
X72371590Y-217789853D01*
X72363115Y-217683712D01*
X72398792Y-217595408D01*
X72478620Y-217524944D01*
X72540610Y-217498630D01*
X72646752Y-217490156D01*
X72867510Y-217579348D01*
X72982127Y-217677014D01*
X73184157Y-218066793D02*
X73111026Y-218756269D01*
X73466017Y-218386107D01*
X73464239Y-218898976D01*
X73890583Y-218352208D01*
X74288837Y-218256318D02*
X74350827Y-218230005D01*
X74456968Y-218221530D01*
X74677726Y-218310722D01*
X74748191Y-218390551D01*
X74774504Y-218452541D01*
X74782979Y-218558682D01*
X74747302Y-218646986D01*
X74649635Y-218761602D01*
X73905755Y-219077361D01*
X74479726Y-219309260D01*
X251450874Y-265696392D02*
X251601167Y-265687028D01*
X251821925Y-265597836D01*
X251892390Y-265518008D01*
X251918703Y-265456018D01*
X251927178Y-265349876D01*
X251891501Y-265261573D01*
X251811673Y-265191108D01*
X251749683Y-265164795D01*
X251643541Y-265156320D01*
X251449096Y-265183522D01*
X251342955Y-265175047D01*
X251280965Y-265148734D01*
X251201136Y-265078269D01*
X251165460Y-264989966D01*
X251173934Y-264883824D01*
X251200248Y-264821834D01*
X251270712Y-264742006D01*
X251491470Y-264652814D01*
X251641764Y-264643450D01*
X252057855Y-264783491D02*
X252484200Y-265330260D01*
X252482422Y-264817390D01*
X252837412Y-265187553D01*
X252764281Y-264498077D01*
X253464010Y-264831673D02*
X253526000Y-264857987D01*
X253499687Y-264919977D01*
X253437697Y-264893663D01*
X253464010Y-264831673D01*
X253499687Y-264919977D01*
X252966312Y-264108298D02*
X253036777Y-264028470D01*
X253257535Y-263939278D01*
X253363677Y-263947752D01*
X253443505Y-264018217D01*
X253479182Y-264106520D01*
X253470707Y-264212662D01*
X253444394Y-264274652D01*
X253373929Y-264354480D01*
X253347616Y-264416470D01*
X253339141Y-264522612D01*
X253356979Y-264566764D01*
X205288070Y-253069867D02*
X205438363Y-253060504D01*
X205659121Y-252971312D01*
X205729586Y-252891483D01*
X205755899Y-252829493D01*
X205764374Y-252723352D01*
X205728697Y-252635048D01*
X205648869Y-252564584D01*
X205586878Y-252538270D01*
X205480737Y-252529796D01*
X205286292Y-252556998D01*
X205180150Y-252548523D01*
X205118160Y-252522210D01*
X205038332Y-252451745D01*
X205002655Y-252363442D01*
X205011130Y-252257300D01*
X205037443Y-252195310D01*
X205107908Y-252115482D01*
X205328666Y-252026290D01*
X205478959Y-252016926D01*
X205895051Y-252156967D02*
X206321395Y-252703736D01*
X206319617Y-252190866D01*
X206674608Y-252561028D01*
X206601477Y-251871552D01*
X207204427Y-252346967D02*
X206829821Y-251419784D01*
X207734247Y-252132907D02*
X207122821Y-251763633D01*
X207359640Y-251205723D02*
X207043882Y-251949603D01*
X198413378Y-235355263D02*
X198563671Y-235345900D01*
X198784429Y-235256708D01*
X198854894Y-235176879D01*
X198881207Y-235114889D01*
X198889682Y-235008747D01*
X198854005Y-234920444D01*
X198774176Y-234849979D01*
X198712186Y-234823666D01*
X198606045Y-234815191D01*
X198411600Y-234842393D01*
X198305458Y-234833919D01*
X198243468Y-234807605D01*
X198163640Y-234737141D01*
X198127963Y-234648837D01*
X198136438Y-234542696D01*
X198162751Y-234480706D01*
X198233216Y-234400877D01*
X198453974Y-234311685D01*
X198604267Y-234302322D01*
X199020359Y-234442362D02*
X199446703Y-234989131D01*
X199444925Y-234476262D01*
X199799916Y-234846424D01*
X199726785Y-234156948D01*
X200329735Y-234632363D02*
X199955129Y-233705179D01*
X210462924Y-271471251D02*
X210613217Y-271461888D01*
X210833975Y-271372696D01*
X210904440Y-271292867D01*
X210930753Y-271230877D01*
X210939228Y-271124736D01*
X210903551Y-271036432D01*
X210823723Y-270965968D01*
X210761733Y-270939654D01*
X210655591Y-270931180D01*
X210461146Y-270958382D01*
X210355004Y-270949907D01*
X210293014Y-270923594D01*
X210213186Y-270853129D01*
X210177509Y-270764826D01*
X210185984Y-270658684D01*
X210212297Y-270596694D01*
X210282762Y-270516866D01*
X210503520Y-270427674D01*
X210653813Y-270418310D01*
X211069905Y-270558351D02*
X211496249Y-271105120D01*
X211494472Y-270592250D01*
X211849462Y-270962412D01*
X211776331Y-270272936D01*
X212873424Y-270445987D02*
X212847111Y-270507977D01*
X212732494Y-270605644D01*
X212644191Y-270641321D01*
X212493898Y-270650685D01*
X212369918Y-270598058D01*
X212290089Y-270527593D01*
X212174584Y-270368825D01*
X212121069Y-270236371D01*
X212093867Y-270041926D01*
X212102342Y-269935784D01*
X212154968Y-269811804D01*
X212269585Y-269714137D01*
X212357888Y-269678460D01*
X212508181Y-269669097D01*
X212570171Y-269695410D01*
X213108465Y-269375207D02*
X213285072Y-269303854D01*
X213391213Y-269312329D01*
X213515193Y-269364955D01*
X213630699Y-269523723D01*
X213755567Y-269832784D01*
X213782769Y-270027229D01*
X213730143Y-270151209D01*
X213659678Y-270231038D01*
X213483072Y-270302391D01*
X213376930Y-270293916D01*
X213252950Y-270241290D01*
X213137445Y-270082522D01*
X213012576Y-269773461D01*
X212985374Y-269579016D01*
X213038000Y-269455036D01*
X213108465Y-269375207D01*
X214277801Y-269981300D02*
X213903194Y-269054116D01*
X214479832Y-269591521D01*
X214521317Y-268804378D01*
X214895923Y-269731562D01*
X215337439Y-269553178D02*
X214962833Y-268625994D01*
X215539470Y-269163400D01*
X215580955Y-268376256D01*
X215955562Y-269303440D01*
X216245896Y-268877985D02*
X216687412Y-268699601D01*
X216264623Y-269178571D02*
X216199078Y-268126519D01*
X216882746Y-268928834D01*
X23982485Y-289363320D02*
X23851808Y-288796935D01*
X23452666Y-289149259D02*
X23827272Y-288222075D01*
X24180485Y-288364782D01*
X24250950Y-288444610D01*
X24277263Y-288506600D01*
X24285738Y-288612742D01*
X24232223Y-288745197D01*
X24152394Y-288815662D01*
X24090404Y-288841975D01*
X23984262Y-288850450D01*
X23631050Y-288707742D01*
X24777214Y-289684411D02*
X24973436Y-289198743D01*
X24964962Y-289092602D01*
X24894497Y-289012773D01*
X24717890Y-288941419D01*
X24611749Y-288949894D01*
X24795052Y-289640259D02*
X24688911Y-289648734D01*
X24468153Y-289559542D01*
X24397688Y-289479714D01*
X24389213Y-289373572D01*
X24424890Y-289285269D01*
X24504718Y-289214804D01*
X24610860Y-289206329D01*
X24831618Y-289295521D01*
X24937760Y-289287046D01*
X25218730Y-289862795D02*
X25468468Y-289244672D01*
X25593337Y-288935611D02*
X25531347Y-288961924D01*
X25557660Y-289023914D01*
X25619650Y-288997601D01*
X25593337Y-288935611D01*
X25557660Y-289023914D01*
X25633933Y-289979189D02*
X25704398Y-290059017D01*
X25881004Y-290130371D01*
X25987146Y-290121896D01*
X26066974Y-290051432D01*
X26084813Y-290007280D01*
X26076338Y-289901138D01*
X26005873Y-289821310D01*
X25873418Y-289767795D01*
X25802953Y-289687966D01*
X25794479Y-289581825D01*
X25812317Y-289537673D01*
X25892145Y-289467208D01*
X25998287Y-289458733D01*
X26130742Y-289512249D01*
X26201207Y-289592077D01*
X26781875Y-290442988D02*
X26675733Y-290451462D01*
X26499127Y-290380109D01*
X26428662Y-290300280D01*
X26420187Y-290194139D01*
X26562894Y-289840926D01*
X26642723Y-289770461D01*
X26748864Y-289761986D01*
X26925471Y-289833340D01*
X26995936Y-289913168D01*
X27004411Y-290019310D01*
X26968734Y-290107613D01*
X26491541Y-290017532D01*
X27205553Y-290665523D02*
X27455290Y-290047401D01*
X27383937Y-290224007D02*
X27463765Y-290153542D01*
X27525755Y-290127229D01*
X27631897Y-290118754D01*
X27720200Y-290154431D01*
X27523089Y-290896534D02*
X28229514Y-291181948D01*
X28991233Y-290822038D02*
X28682172Y-290697170D01*
X28485949Y-291182837D02*
X28860556Y-290255653D01*
X29302072Y-290434038D01*
X29651730Y-291602484D02*
X29545588Y-291610959D01*
X29368982Y-291539605D01*
X29298517Y-291459777D01*
X29290042Y-291353635D01*
X29432749Y-291000422D01*
X29512578Y-290929958D01*
X29618719Y-290921483D01*
X29795326Y-290992837D01*
X29865791Y-291072665D01*
X29874265Y-291178807D01*
X29838588Y-291267110D01*
X29361396Y-291177029D01*
X30075407Y-291825020D02*
X30325145Y-291206897D01*
X30289468Y-291295201D02*
X30351458Y-291268887D01*
X30457600Y-291260413D01*
X30590055Y-291313928D01*
X30660520Y-291393756D01*
X30668994Y-291499898D01*
X30472772Y-291985566D01*
X30668994Y-291499898D02*
X30748823Y-291429433D01*
X30854964Y-291420958D01*
X30987419Y-291474474D01*
X31057884Y-291554302D01*
X31066359Y-291660444D01*
X30870136Y-292146111D01*
X31709017Y-292485041D02*
X31905239Y-291999373D01*
X31896765Y-291893232D01*
X31826300Y-291813403D01*
X31649693Y-291742050D01*
X31543552Y-291750525D01*
X31726855Y-292440890D02*
X31620714Y-292449364D01*
X31399956Y-292360172D01*
X31329491Y-292280344D01*
X31321016Y-292174202D01*
X31356693Y-292085899D01*
X31436521Y-292015434D01*
X31542663Y-292006959D01*
X31763421Y-292096151D01*
X31869563Y-292087677D01*
X32282988Y-292716940D02*
X32212523Y-292637112D01*
X32204048Y-292530970D01*
X32525140Y-291736241D01*
X33007252Y-292958203D02*
X32901110Y-292966678D01*
X32724504Y-292895325D01*
X32654039Y-292815496D01*
X32645564Y-292709354D01*
X32788272Y-292356142D01*
X32868100Y-292285677D01*
X32974242Y-292277202D01*
X33150848Y-292348556D01*
X33221313Y-292428384D01*
X33229788Y-292534526D01*
X33194111Y-292622829D01*
X32716918Y-292532748D01*
X29883874Y-285498297D02*
X30546149Y-285765873D01*
X30660765Y-285863540D01*
X30713391Y-285987520D01*
X30704028Y-286137813D01*
X30668351Y-286226116D01*
X30628643Y-284926103D02*
X30503775Y-285235165D01*
X30989442Y-285431387D02*
X30062258Y-285056781D01*
X30240643Y-284615264D01*
X31506756Y-284150990D02*
X31292695Y-284680810D01*
X31399726Y-284415900D02*
X30472542Y-284041294D01*
X30569320Y-284183112D01*
X30621946Y-284307092D01*
X30630421Y-284413234D01*
X31863524Y-283267958D02*
X31649463Y-283797778D01*
X31756494Y-283532868D02*
X30829310Y-283158261D01*
X30926088Y-283300080D01*
X30978714Y-283424060D01*
X30987189Y-283530201D01*
X45462175Y-233418884D02*
X45576791Y-233516551D01*
X45797549Y-233605743D01*
X45903691Y-233597268D01*
X45965681Y-233570955D01*
X46045509Y-233500490D01*
X46081186Y-233412187D01*
X46072711Y-233306045D01*
X46046398Y-233244055D01*
X45975933Y-233164227D01*
X45817165Y-233048721D01*
X45746701Y-232968893D01*
X45720387Y-232906903D01*
X45711913Y-232800761D01*
X45747589Y-232712458D01*
X45827418Y-232641993D01*
X45889408Y-232615680D01*
X45995550Y-232607205D01*
X46216308Y-232696397D01*
X46330924Y-232794064D01*
X46532955Y-233183843D02*
X46459824Y-233873319D01*
X46814814Y-233503156D01*
X46813036Y-234016026D01*
X47239381Y-233469257D01*
X47925302Y-234568128D02*
X47854837Y-234488299D01*
X47802210Y-234364319D01*
X47723271Y-234178349D01*
X47652806Y-234098521D01*
X47564503Y-234062844D01*
X47519462Y-234301441D02*
X47448997Y-234221612D01*
X47396371Y-234097632D01*
X47423573Y-233903187D01*
X47548442Y-233594126D01*
X47663947Y-233435358D01*
X47787927Y-233382732D01*
X47894069Y-233374257D01*
X48070675Y-233445610D01*
X48141140Y-233525439D01*
X48193767Y-233649419D01*
X48166564Y-233843864D01*
X48041696Y-234152925D01*
X47926190Y-234311693D01*
X47802210Y-234364319D01*
X47696069Y-234372794D01*
X47519462Y-234301441D01*
X84507454Y-238408853D02*
X84622071Y-238506520D01*
X84842829Y-238595712D01*
X84948970Y-238587237D01*
X85010960Y-238560924D01*
X85090789Y-238490459D01*
X85126466Y-238402156D01*
X85117991Y-238296015D01*
X85091678Y-238234025D01*
X85021213Y-238154196D01*
X84862445Y-238038691D01*
X84791980Y-237958862D01*
X84765667Y-237896872D01*
X84757192Y-237790731D01*
X84792869Y-237702428D01*
X84872697Y-237631963D01*
X84934687Y-237605650D01*
X85040829Y-237597175D01*
X85261587Y-237686367D01*
X85376203Y-237784034D01*
X85578234Y-238173812D02*
X85505103Y-238863288D01*
X85860094Y-238493126D01*
X85858316Y-239005996D01*
X86284660Y-238459227D01*
X86584358Y-238734389D02*
X86893419Y-238859258D01*
X86829651Y-239398441D02*
X86388135Y-239220057D01*
X86762742Y-238292873D01*
X87204258Y-238471257D01*
X14027343Y-257388568D02*
X14141960Y-257486235D01*
X14362718Y-257575427D01*
X14468860Y-257566952D01*
X14530850Y-257540639D01*
X14610678Y-257470174D01*
X14646355Y-257381871D01*
X14637880Y-257275729D01*
X14611567Y-257213739D01*
X14541102Y-257133910D01*
X14382334Y-257018405D01*
X14311869Y-256938577D01*
X14285556Y-256876587D01*
X14277081Y-256770445D01*
X14312758Y-256682142D01*
X14392586Y-256611677D01*
X14454576Y-256585364D01*
X14560718Y-256576889D01*
X14781476Y-256666081D01*
X14896093Y-256763748D01*
X15098123Y-257153527D02*
X15024992Y-257843003D01*
X15379983Y-257472840D01*
X15378205Y-257985710D01*
X15804549Y-257438941D01*
X16349540Y-258378155D02*
X15908024Y-258199771D01*
X16282631Y-257272587D01*
X17224098Y-258628782D02*
X17162108Y-258655095D01*
X17011815Y-258645731D01*
X16923511Y-258610054D01*
X16808895Y-258512387D01*
X16756269Y-258388407D01*
X16747794Y-258282266D01*
X16774996Y-258087821D01*
X16828511Y-257955366D01*
X16944016Y-257796598D01*
X17023845Y-257726133D01*
X17147825Y-257673507D01*
X17298118Y-257682870D01*
X17386421Y-257718547D01*
X17501038Y-257816214D01*
X17527351Y-257878204D01*
X17827937Y-257896931D02*
X18357757Y-258110992D01*
X17718240Y-258931146D02*
X18092847Y-258003962D01*
X18733727Y-259341429D02*
X18292211Y-259163045D01*
X18666818Y-258235861D01*
X50760802Y-271151314D02*
X50875419Y-271248981D01*
X51096177Y-271338173D01*
X51202319Y-271329698D01*
X51264309Y-271303385D01*
X51344137Y-271232920D01*
X51379814Y-271144617D01*
X51371339Y-271038475D01*
X51345026Y-270976485D01*
X51274561Y-270896657D01*
X51115793Y-270781152D01*
X51045328Y-270701323D01*
X51019015Y-270639333D01*
X51010540Y-270533192D01*
X51046217Y-270444888D01*
X51126045Y-270374424D01*
X51188035Y-270348110D01*
X51294177Y-270339636D01*
X51514935Y-270428828D01*
X51629552Y-270526494D01*
X51831582Y-270916273D02*
X51758451Y-271605749D01*
X52113442Y-271235587D01*
X52111664Y-271748456D01*
X52538008Y-271201688D01*
X52927787Y-270999657D02*
X53171303Y-272176578D01*
X53545909Y-271249394D02*
X52553180Y-271926841D01*
X77345778Y-256007508D02*
X77460394Y-256105175D01*
X77681152Y-256194367D01*
X77787294Y-256185892D01*
X77849284Y-256159579D01*
X77929112Y-256089114D01*
X77964789Y-256000811D01*
X77956314Y-255894669D01*
X77930001Y-255832679D01*
X77859536Y-255752851D01*
X77700768Y-255637345D01*
X77630303Y-255557517D01*
X77603990Y-255495527D01*
X77595515Y-255389385D01*
X77631192Y-255301082D01*
X77711021Y-255230617D01*
X77773011Y-255204304D01*
X77879152Y-255195829D01*
X78099910Y-255285021D01*
X78214527Y-255382688D01*
X78416558Y-255772467D02*
X78343426Y-256461943D01*
X78698417Y-256091780D01*
X78696639Y-256604650D01*
X79122983Y-256057881D01*
X79226459Y-256818711D02*
X79601065Y-255891527D01*
X79821823Y-255980719D01*
X79936440Y-256078386D01*
X79989066Y-256202366D01*
X79997541Y-256308508D01*
X79970339Y-256502953D01*
X79916824Y-256635408D01*
X79801318Y-256794176D01*
X79721490Y-256864640D01*
X79597510Y-256917267D01*
X79447217Y-256907903D01*
X79226459Y-256818711D01*
X31271275Y-268669708D02*
X31385892Y-268767375D01*
X31606650Y-268856567D01*
X31712792Y-268848092D01*
X31774782Y-268821779D01*
X31854610Y-268751314D01*
X31890287Y-268663011D01*
X31881812Y-268556869D01*
X31855499Y-268494879D01*
X31785034Y-268415051D01*
X31626266Y-268299546D01*
X31555801Y-268219717D01*
X31529488Y-268157727D01*
X31521013Y-268051586D01*
X31556690Y-267963282D01*
X31636518Y-267892818D01*
X31698508Y-267866504D01*
X31804650Y-267858030D01*
X32025408Y-267947222D01*
X32140025Y-268044888D01*
X32342055Y-268434667D02*
X32268924Y-269124143D01*
X32623915Y-268753981D01*
X32622137Y-269266850D01*
X33048481Y-268720082D01*
X33438260Y-268518051D02*
X34056382Y-268767788D01*
X33063653Y-269445235D01*
X33681776Y-269694972D01*
X38432953Y-251071054D02*
X38547570Y-251168720D01*
X38768328Y-251257912D01*
X38874469Y-251249438D01*
X38936459Y-251223124D01*
X39016288Y-251152660D01*
X39051964Y-251064356D01*
X39043490Y-250958215D01*
X39017177Y-250896225D01*
X38946712Y-250816396D01*
X38787944Y-250700891D01*
X38717479Y-250621063D01*
X38691166Y-250559073D01*
X38682691Y-250452931D01*
X38718368Y-250364628D01*
X38798196Y-250294163D01*
X38860186Y-250267850D01*
X38966328Y-250259375D01*
X39187086Y-250348567D01*
X39301702Y-250446234D01*
X39503733Y-250836012D02*
X39430602Y-251525489D01*
X39785592Y-251155326D01*
X39783815Y-251668196D01*
X40210159Y-251121427D01*
X40376513Y-251599509D02*
X40818029Y-251777893D01*
X40181179Y-251828742D02*
X40864847Y-251026427D01*
X40799302Y-252078479D01*
X70228253Y-273624001D02*
X70342869Y-273721668D01*
X70563627Y-273810860D01*
X70669769Y-273802385D01*
X70731759Y-273776072D01*
X70811587Y-273705607D01*
X70847264Y-273617304D01*
X70838789Y-273511162D01*
X70812476Y-273449172D01*
X70742011Y-273369344D01*
X70583243Y-273253838D01*
X70512778Y-273174010D01*
X70486465Y-273112020D01*
X70477990Y-273005878D01*
X70513667Y-272917575D01*
X70593496Y-272847110D01*
X70655486Y-272820797D01*
X70761627Y-272812322D01*
X70982385Y-272901514D01*
X71097002Y-272999181D01*
X71299033Y-273388960D02*
X71225901Y-274078436D01*
X71580892Y-273708273D01*
X71579114Y-274221143D01*
X72005458Y-273674374D01*
X72674430Y-274560962D02*
X72612440Y-274587275D01*
X72462146Y-274577911D01*
X72373843Y-274542235D01*
X72259227Y-274444568D01*
X72206600Y-274320588D01*
X72198126Y-274214446D01*
X72225328Y-274020001D01*
X72278843Y-273887546D01*
X72394348Y-273728778D01*
X72474177Y-273658314D01*
X72598157Y-273605687D01*
X72748450Y-273615051D01*
X72836753Y-273650728D01*
X72951370Y-273748394D01*
X72977683Y-273810384D01*
X64907549Y-235882651D02*
X65022166Y-235980318D01*
X65242924Y-236069510D01*
X65349065Y-236061035D01*
X65411055Y-236034722D01*
X65490884Y-235964257D01*
X65526561Y-235875954D01*
X65518086Y-235769813D01*
X65491773Y-235707823D01*
X65421308Y-235627994D01*
X65262540Y-235512489D01*
X65192075Y-235432660D01*
X65165762Y-235370670D01*
X65157287Y-235264529D01*
X65192964Y-235176226D01*
X65272792Y-235105761D01*
X65334782Y-235079448D01*
X65440924Y-235070973D01*
X65661682Y-235160165D01*
X65776298Y-235257832D01*
X65978329Y-235647610D02*
X65905198Y-236337086D01*
X66260188Y-235966924D01*
X66258411Y-236479794D01*
X66684755Y-235933025D01*
X67074534Y-235730994D02*
X66920685Y-236747370D01*
X67364868Y-236156449D01*
X67273898Y-236890077D01*
X67869263Y-236052085D01*
X21498081Y-239914782D02*
X21612698Y-240012449D01*
X21833456Y-240101641D01*
X21939597Y-240093166D01*
X22001587Y-240066853D01*
X22081416Y-239996388D01*
X22117093Y-239908085D01*
X22108618Y-239801943D01*
X22082305Y-239739953D01*
X22011840Y-239660125D01*
X21853072Y-239544620D01*
X21782607Y-239464791D01*
X21756294Y-239402801D01*
X21747819Y-239296659D01*
X21783496Y-239208356D01*
X21863324Y-239137891D01*
X21925314Y-239111578D01*
X22031456Y-239103103D01*
X22252214Y-239192295D01*
X22366830Y-239289962D01*
X22568861Y-239679741D02*
X22495730Y-240369217D01*
X22850720Y-239999055D01*
X22848943Y-240511924D01*
X23275287Y-239965155D01*
X23620914Y-239745286D02*
X24150733Y-239959347D01*
X23511217Y-240779500D02*
X23885824Y-239852317D01*
X24148067Y-240728652D02*
X24589583Y-240907036D01*
X23952733Y-240957885D02*
X24636401Y-240155570D01*
X24570856Y-241207622D01*
X25385201Y-240971692D02*
X25499817Y-241069359D01*
X25526130Y-241131349D01*
X25534605Y-241237491D01*
X25481090Y-241369946D01*
X25401262Y-241440410D01*
X25339272Y-241466724D01*
X25233130Y-241475198D01*
X24879917Y-241332491D01*
X25254524Y-240405307D01*
X25563585Y-240530176D01*
X25634050Y-240610005D01*
X25660363Y-240671995D01*
X25668838Y-240778136D01*
X25633161Y-240866439D01*
X25553332Y-240936904D01*
X25491342Y-240963217D01*
X25385201Y-240971692D01*
X25076140Y-240846823D01*
X57878327Y-253534821D02*
X57992944Y-253632488D01*
X58213702Y-253721680D01*
X58319844Y-253713205D01*
X58381834Y-253686892D01*
X58461662Y-253616427D01*
X58497339Y-253528124D01*
X58488864Y-253421982D01*
X58462551Y-253359992D01*
X58392086Y-253280164D01*
X58233318Y-253164659D01*
X58162853Y-253084830D01*
X58136540Y-253022840D01*
X58128065Y-252916699D01*
X58163742Y-252828395D01*
X58243570Y-252757931D01*
X58305560Y-252731617D01*
X58411702Y-252723143D01*
X58632460Y-252812335D01*
X58747077Y-252910001D01*
X58949107Y-253299780D02*
X58875976Y-253989256D01*
X59230967Y-253619094D01*
X59229189Y-254131963D01*
X59655533Y-253585195D01*
X59732695Y-254284034D02*
X59847312Y-254381701D01*
X60068070Y-254470893D01*
X60174211Y-254462418D01*
X60236201Y-254436105D01*
X60316030Y-254365640D01*
X60351707Y-254277337D01*
X60343232Y-254171196D01*
X60316919Y-254109206D01*
X60246454Y-254029377D01*
X60087686Y-253913872D01*
X60017221Y-253834043D01*
X59990908Y-253772053D01*
X59982433Y-253665912D01*
X60018110Y-253577609D01*
X60097938Y-253507144D01*
X60159928Y-253480831D01*
X60266070Y-253472356D01*
X60486828Y-253561548D01*
X60601444Y-253659215D01*
X28505227Y-222253693D02*
X28619844Y-222351360D01*
X28840602Y-222440552D01*
X28946743Y-222432077D01*
X29008733Y-222405764D01*
X29088562Y-222335299D01*
X29124239Y-222246996D01*
X29115764Y-222140854D01*
X29089451Y-222078864D01*
X29018986Y-221999036D01*
X28860218Y-221883530D01*
X28789753Y-221803702D01*
X28763440Y-221741712D01*
X28754965Y-221635570D01*
X28790642Y-221547267D01*
X28870470Y-221476802D01*
X28932460Y-221450489D01*
X29038602Y-221442014D01*
X29259360Y-221531206D01*
X29373976Y-221628873D01*
X29576007Y-222018652D02*
X29502876Y-222708128D01*
X29857866Y-222337966D01*
X29856089Y-222850835D01*
X30282433Y-222304066D01*
X30582131Y-222579228D02*
X30891192Y-222704097D01*
X30827424Y-223243280D02*
X30385908Y-223064896D01*
X30760515Y-222137712D01*
X31202031Y-222316096D01*
X31198476Y-223341836D02*
X31313092Y-223439503D01*
X31533850Y-223528695D01*
X31639992Y-223520220D01*
X31701982Y-223493907D01*
X31781810Y-223423442D01*
X31817487Y-223335139D01*
X31809012Y-223228997D01*
X31782699Y-223167007D01*
X31712234Y-223087179D01*
X31553466Y-222971673D01*
X31483001Y-222891845D01*
X31456688Y-222829855D01*
X31448213Y-222723713D01*
X31483890Y-222635410D01*
X31563719Y-222564945D01*
X31625709Y-222538632D01*
X31731850Y-222530157D01*
X31952608Y-222619349D01*
X32067225Y-222717016D01*
X32673317Y-223886352D02*
X32611327Y-223912665D01*
X32461034Y-223903301D01*
X32372731Y-223867625D01*
X32258114Y-223769958D01*
X32205488Y-223645978D01*
X32197013Y-223539836D01*
X32224215Y-223345391D01*
X32277730Y-223212936D01*
X32393236Y-223054168D01*
X32473064Y-222983704D01*
X32597044Y-222931077D01*
X32747337Y-222940441D01*
X32835641Y-222976118D01*
X32950257Y-223073784D01*
X32976570Y-223135774D01*
X136758571Y-313822380D02*
X136758571Y-312822380D01*
X137091904Y-313536666D01*
X137425238Y-312822380D01*
X137425238Y-313822380D01*
X138044285Y-313822380D02*
X137949047Y-313774761D01*
X137901428Y-313727142D01*
X137853809Y-313631904D01*
X137853809Y-313346190D01*
X137901428Y-313250952D01*
X137949047Y-313203333D01*
X138044285Y-313155714D01*
X138187142Y-313155714D01*
X138282380Y-313203333D01*
X138330000Y-313250952D01*
X138377619Y-313346190D01*
X138377619Y-313631904D01*
X138330000Y-313727142D01*
X138282380Y-313774761D01*
X138187142Y-313822380D01*
X138044285Y-313822380D01*
X139234761Y-313155714D02*
X139234761Y-313822380D01*
X138806190Y-313155714D02*
X138806190Y-313679523D01*
X138853809Y-313774761D01*
X138949047Y-313822380D01*
X139091904Y-313822380D01*
X139187142Y-313774761D01*
X139234761Y-313727142D01*
X139710952Y-313155714D02*
X139710952Y-313822380D01*
X139710952Y-313250952D02*
X139758571Y-313203333D01*
X139853809Y-313155714D01*
X139996666Y-313155714D01*
X140091904Y-313203333D01*
X140139523Y-313298571D01*
X140139523Y-313822380D01*
X140472857Y-313155714D02*
X140853809Y-313155714D01*
X140615714Y-312822380D02*
X140615714Y-313679523D01*
X140663333Y-313774761D01*
X140758571Y-313822380D01*
X140853809Y-313822380D01*
X141187142Y-313822380D02*
X141187142Y-313155714D01*
X141187142Y-312822380D02*
X141139523Y-312870000D01*
X141187142Y-312917619D01*
X141234761Y-312870000D01*
X141187142Y-312822380D01*
X141187142Y-312917619D01*
X141663333Y-313155714D02*
X141663333Y-313822380D01*
X141663333Y-313250952D02*
X141710952Y-313203333D01*
X141806190Y-313155714D01*
X141949047Y-313155714D01*
X142044285Y-313203333D01*
X142091904Y-313298571D01*
X142091904Y-313822380D01*
X142996666Y-313155714D02*
X142996666Y-313965238D01*
X142949047Y-314060476D01*
X142901428Y-314108095D01*
X142806190Y-314155714D01*
X142663333Y-314155714D01*
X142568095Y-314108095D01*
X142996666Y-313774761D02*
X142901428Y-313822380D01*
X142710952Y-313822380D01*
X142615714Y-313774761D01*
X142568095Y-313727142D01*
X142520476Y-313631904D01*
X142520476Y-313346190D01*
X142568095Y-313250952D01*
X142615714Y-313203333D01*
X142710952Y-313155714D01*
X142901428Y-313155714D01*
X142996666Y-313203333D01*
X143472857Y-313822380D02*
X143472857Y-312822380D01*
X143472857Y-313298571D02*
X144044285Y-313298571D01*
X144044285Y-313822380D02*
X144044285Y-312822380D01*
X144663333Y-313822380D02*
X144568095Y-313774761D01*
X144520476Y-313727142D01*
X144472857Y-313631904D01*
X144472857Y-313346190D01*
X144520476Y-313250952D01*
X144568095Y-313203333D01*
X144663333Y-313155714D01*
X144806190Y-313155714D01*
X144901428Y-313203333D01*
X144949047Y-313250952D01*
X144996666Y-313346190D01*
X144996666Y-313631904D01*
X144949047Y-313727142D01*
X144901428Y-313774761D01*
X144806190Y-313822380D01*
X144663333Y-313822380D01*
X145568095Y-313822380D02*
X145472857Y-313774761D01*
X145425238Y-313679523D01*
X145425238Y-312822380D01*
X146330000Y-313774761D02*
X146234761Y-313822380D01*
X146044285Y-313822380D01*
X145949047Y-313774761D01*
X145901428Y-313679523D01*
X145901428Y-313298571D01*
X145949047Y-313203333D01*
X146044285Y-313155714D01*
X146234761Y-313155714D01*
X146330000Y-313203333D01*
X146377619Y-313298571D01*
X146377619Y-313393809D01*
X145901428Y-313489047D01*
X146568095Y-313917619D02*
X147330000Y-313917619D01*
X147568095Y-313822380D02*
X147568095Y-312822380D01*
X147949047Y-312822380D01*
X148044285Y-312870000D01*
X148091904Y-312917619D01*
X148139523Y-313012857D01*
X148139523Y-313155714D01*
X148091904Y-313250952D01*
X148044285Y-313298571D01*
X147949047Y-313346190D01*
X147568095Y-313346190D01*
X148996666Y-313822380D02*
X148996666Y-313298571D01*
X148949047Y-313203333D01*
X148853809Y-313155714D01*
X148663333Y-313155714D01*
X148568095Y-313203333D01*
X148996666Y-313774761D02*
X148901428Y-313822380D01*
X148663333Y-313822380D01*
X148568095Y-313774761D01*
X148520476Y-313679523D01*
X148520476Y-313584285D01*
X148568095Y-313489047D01*
X148663333Y-313441428D01*
X148901428Y-313441428D01*
X148996666Y-313393809D01*
X149901428Y-313822380D02*
X149901428Y-312822380D01*
X149901428Y-313774761D02*
X149806190Y-313822380D01*
X149615714Y-313822380D01*
X149520476Y-313774761D01*
X149472857Y-313727142D01*
X149425238Y-313631904D01*
X149425238Y-313346190D01*
X149472857Y-313250952D01*
X149520476Y-313203333D01*
X149615714Y-313155714D01*
X149806190Y-313155714D01*
X149901428Y-313203333D01*
X142868095Y-304422380D02*
X142868095Y-303422380D01*
X142868095Y-303898571D02*
X143439523Y-303898571D01*
X143439523Y-304422380D02*
X143439523Y-303422380D01*
X143868095Y-303517619D02*
X143915714Y-303470000D01*
X144010952Y-303422380D01*
X144249047Y-303422380D01*
X144344285Y-303470000D01*
X144391904Y-303517619D01*
X144439523Y-303612857D01*
X144439523Y-303708095D01*
X144391904Y-303850952D01*
X143820476Y-304422380D01*
X144439523Y-304422380D01*
X108229305Y-343557104D02*
X108238677Y-343623792D01*
X108190734Y-343766541D01*
X108133418Y-343842601D01*
X108009414Y-343928034D01*
X107876038Y-343946779D01*
X107771320Y-343927493D01*
X107590541Y-343850892D01*
X107476450Y-343764919D01*
X107352987Y-343612257D01*
X107305584Y-343516911D01*
X107286839Y-343383535D01*
X107334783Y-343240786D01*
X107392098Y-343164726D01*
X107516102Y-343079293D01*
X107582790Y-343069920D01*
X108649259Y-343158056D02*
X108553914Y-343205459D01*
X108487225Y-343214831D01*
X108382507Y-343195546D01*
X108154325Y-343023599D01*
X108106923Y-342928253D01*
X108097550Y-342861565D01*
X108116836Y-342756846D01*
X108202809Y-342642756D01*
X108298155Y-342595353D01*
X108364843Y-342585981D01*
X108469562Y-342605266D01*
X108697743Y-342777213D01*
X108745146Y-342872559D01*
X108754519Y-342939247D01*
X108735233Y-343043966D01*
X108649259Y-343158056D01*
X108575362Y-342148362D02*
X109107785Y-342549572D01*
X108651422Y-342205678D02*
X108642050Y-342138990D01*
X108661335Y-342034271D01*
X108747309Y-341920181D01*
X108842655Y-341872778D01*
X108947373Y-341892063D01*
X109365706Y-342207300D01*
X109119861Y-341425787D02*
X109652285Y-341826997D01*
X109195921Y-341483103D02*
X109186549Y-341416415D01*
X109205834Y-341311696D01*
X109291808Y-341197606D01*
X109387154Y-341150203D01*
X109491872Y-341169488D01*
X109910205Y-341484725D01*
X110129555Y-341351889D02*
X110588081Y-340743405D01*
X109971305Y-339742002D02*
X110028621Y-339665941D01*
X110123967Y-339618539D01*
X110190655Y-339609166D01*
X110295374Y-339628452D01*
X110476153Y-339705053D01*
X110666304Y-339848342D01*
X110789767Y-340001004D01*
X110837170Y-340096350D01*
X110846542Y-340163038D01*
X110827257Y-340267756D01*
X110769941Y-340343817D01*
X110674595Y-340391220D01*
X110607907Y-340400592D01*
X110503189Y-340381307D01*
X110322410Y-340304705D01*
X110132258Y-340161416D01*
X110008795Y-340008754D01*
X109961392Y-339913408D01*
X109952020Y-339846720D01*
X109971305Y-339742002D01*
X111543703Y-339317000D02*
X111199809Y-339773363D01*
X111371756Y-339545181D02*
X110573121Y-338943366D01*
X110629896Y-339105401D01*
X110648640Y-339238777D01*
X110629355Y-339343495D01*
X111744308Y-339050788D02*
X111527121Y-338231245D01*
X111211885Y-338649578D02*
X112059545Y-338632455D01*
X111604803Y-337574277D02*
X111662119Y-337498216D01*
X111757465Y-337450814D01*
X111824153Y-337441441D01*
X111928872Y-337460727D01*
X112109651Y-337537328D01*
X112299802Y-337680617D01*
X112423265Y-337833279D01*
X112470668Y-337928625D01*
X112480040Y-337995313D01*
X112460755Y-338100031D01*
X112403439Y-338176092D01*
X112308093Y-338223495D01*
X112241405Y-338232867D01*
X112136686Y-338213582D01*
X111955908Y-338136980D01*
X111765756Y-337993691D01*
X111642293Y-337841029D01*
X111594890Y-337745684D01*
X111585518Y-337678995D01*
X111604803Y-337574277D01*
X112587462Y-336824125D02*
X113119885Y-337225335D01*
X112139930Y-336785014D02*
X112567095Y-337405033D01*
X112939647Y-336910640D01*
X113367893Y-337054470D02*
X113826419Y-336445985D01*
X113675920Y-335617070D02*
X113475315Y-335883282D01*
X113893648Y-336198518D02*
X113095012Y-335596703D01*
X113381591Y-335216401D01*
X114600722Y-335181074D02*
X114581436Y-335285792D01*
X114466805Y-335437913D01*
X114371459Y-335485316D01*
X114266740Y-335466030D01*
X113962498Y-335236767D01*
X113915096Y-335141421D01*
X113934381Y-335036703D01*
X114049012Y-334884582D01*
X114144358Y-334837179D01*
X114249077Y-334856465D01*
X114325137Y-334913781D01*
X114114619Y-335351399D01*
X114925330Y-334829429D02*
X114392907Y-334428219D01*
X114468967Y-334485535D02*
X114459595Y-334418847D01*
X114478880Y-334314128D01*
X114564854Y-334200037D01*
X114660200Y-334152635D01*
X114764918Y-334171920D01*
X115183251Y-334487157D01*
X114764918Y-334171920D02*
X114717516Y-334076574D01*
X114736801Y-333971856D01*
X114822775Y-333857765D01*
X114918121Y-333810362D01*
X115022839Y-333829648D01*
X115441172Y-334144884D01*
X115985671Y-333422309D02*
X115567338Y-333107073D01*
X115462620Y-333087787D01*
X115367274Y-333135190D01*
X115252643Y-333287311D01*
X115233357Y-333392029D01*
X115947641Y-333393651D02*
X115928355Y-333498370D01*
X115785066Y-333688521D01*
X115689720Y-333735924D01*
X115585002Y-333716638D01*
X115508941Y-333659323D01*
X115461539Y-333563977D01*
X115480824Y-333459258D01*
X115624113Y-333269107D01*
X115643399Y-333164389D01*
X116358223Y-332927916D02*
X116262877Y-332975318D01*
X116158159Y-332956033D01*
X115473614Y-332440192D01*
X116778719Y-332290774D02*
X116759433Y-332395492D01*
X116644802Y-332547613D01*
X116549456Y-332595016D01*
X116444738Y-332575730D01*
X116140495Y-332346468D01*
X116093093Y-332251122D01*
X116112378Y-332146403D01*
X116227010Y-331994282D01*
X116322356Y-331946879D01*
X116427074Y-331966165D01*
X116503135Y-332023481D01*
X116292617Y-332461099D01*
X106113579Y-332780462D02*
X105683711Y-333350916D01*
X105559707Y-333436349D01*
X105426331Y-333455094D01*
X105283582Y-333407151D01*
X105207522Y-333349835D01*
X106473515Y-333647948D02*
X106207303Y-333447343D01*
X105892067Y-333865676D02*
X106493882Y-333067041D01*
X106874184Y-333353619D01*
X107083080Y-333630285D02*
X107149769Y-333620912D01*
X107254487Y-333640198D01*
X107444638Y-333783487D01*
X107492041Y-333878833D01*
X107501413Y-333945521D01*
X107482128Y-334050240D01*
X107424812Y-334126300D01*
X107300808Y-334211733D01*
X106500551Y-334324202D01*
X106994944Y-334696754D01*
X107862971Y-334098724D02*
X108357365Y-334471276D01*
X107861890Y-334574913D01*
X107975981Y-334660886D01*
X108023383Y-334756232D01*
X108032756Y-334822921D01*
X108013470Y-334927639D01*
X107870181Y-335117790D01*
X107774835Y-335165193D01*
X107708147Y-335174565D01*
X107603428Y-335155280D01*
X107375247Y-334983333D01*
X107327844Y-334887987D01*
X107318472Y-334821299D01*
X150882380Y-295241428D02*
X149882380Y-295241428D01*
X150596666Y-294908095D01*
X149882380Y-294574761D01*
X150882380Y-294574761D01*
X150882380Y-293955714D02*
X150834761Y-294050952D01*
X150787142Y-294098571D01*
X150691904Y-294146190D01*
X150406190Y-294146190D01*
X150310952Y-294098571D01*
X150263333Y-294050952D01*
X150215714Y-293955714D01*
X150215714Y-293812857D01*
X150263333Y-293717619D01*
X150310952Y-293670000D01*
X150406190Y-293622380D01*
X150691904Y-293622380D01*
X150787142Y-293670000D01*
X150834761Y-293717619D01*
X150882380Y-293812857D01*
X150882380Y-293955714D01*
X150215714Y-292765238D02*
X150882380Y-292765238D01*
X150215714Y-293193809D02*
X150739523Y-293193809D01*
X150834761Y-293146190D01*
X150882380Y-293050952D01*
X150882380Y-292908095D01*
X150834761Y-292812857D01*
X150787142Y-292765238D01*
X150215714Y-292289047D02*
X150882380Y-292289047D01*
X150310952Y-292289047D02*
X150263333Y-292241428D01*
X150215714Y-292146190D01*
X150215714Y-292003333D01*
X150263333Y-291908095D01*
X150358571Y-291860476D01*
X150882380Y-291860476D01*
X150215714Y-291527142D02*
X150215714Y-291146190D01*
X149882380Y-291384285D02*
X150739523Y-291384285D01*
X150834761Y-291336666D01*
X150882380Y-291241428D01*
X150882380Y-291146190D01*
X150882380Y-290812857D02*
X150215714Y-290812857D01*
X149882380Y-290812857D02*
X149930000Y-290860476D01*
X149977619Y-290812857D01*
X149930000Y-290765238D01*
X149882380Y-290812857D01*
X149977619Y-290812857D01*
X150215714Y-290336666D02*
X150882380Y-290336666D01*
X150310952Y-290336666D02*
X150263333Y-290289047D01*
X150215714Y-290193809D01*
X150215714Y-290050952D01*
X150263333Y-289955714D01*
X150358571Y-289908095D01*
X150882380Y-289908095D01*
X150215714Y-289003333D02*
X151025238Y-289003333D01*
X151120476Y-289050952D01*
X151168095Y-289098571D01*
X151215714Y-289193809D01*
X151215714Y-289336666D01*
X151168095Y-289431904D01*
X150834761Y-289003333D02*
X150882380Y-289098571D01*
X150882380Y-289289047D01*
X150834761Y-289384285D01*
X150787142Y-289431904D01*
X150691904Y-289479523D01*
X150406190Y-289479523D01*
X150310952Y-289431904D01*
X150263333Y-289384285D01*
X150215714Y-289289047D01*
X150215714Y-289098571D01*
X150263333Y-289003333D01*
X150882380Y-288527142D02*
X149882380Y-288527142D01*
X150358571Y-288527142D02*
X150358571Y-287955714D01*
X150882380Y-287955714D02*
X149882380Y-287955714D01*
X150882380Y-287336666D02*
X150834761Y-287431904D01*
X150787142Y-287479523D01*
X150691904Y-287527142D01*
X150406190Y-287527142D01*
X150310952Y-287479523D01*
X150263333Y-287431904D01*
X150215714Y-287336666D01*
X150215714Y-287193809D01*
X150263333Y-287098571D01*
X150310952Y-287050952D01*
X150406190Y-287003333D01*
X150691904Y-287003333D01*
X150787142Y-287050952D01*
X150834761Y-287098571D01*
X150882380Y-287193809D01*
X150882380Y-287336666D01*
X150882380Y-286431904D02*
X150834761Y-286527142D01*
X150739523Y-286574761D01*
X149882380Y-286574761D01*
X150834761Y-285670000D02*
X150882380Y-285765238D01*
X150882380Y-285955714D01*
X150834761Y-286050952D01*
X150739523Y-286098571D01*
X150358571Y-286098571D01*
X150263333Y-286050952D01*
X150215714Y-285955714D01*
X150215714Y-285765238D01*
X150263333Y-285670000D01*
X150358571Y-285622380D01*
X150453809Y-285622380D01*
X150549047Y-286098571D01*
X150977619Y-285431904D02*
X150977619Y-284670000D01*
X150882380Y-284431904D02*
X149882380Y-284431904D01*
X149882380Y-284050952D01*
X149930000Y-283955714D01*
X149977619Y-283908095D01*
X150072857Y-283860476D01*
X150215714Y-283860476D01*
X150310952Y-283908095D01*
X150358571Y-283955714D01*
X150406190Y-284050952D01*
X150406190Y-284431904D01*
X150882380Y-283003333D02*
X150358571Y-283003333D01*
X150263333Y-283050952D01*
X150215714Y-283146190D01*
X150215714Y-283336666D01*
X150263333Y-283431904D01*
X150834761Y-283003333D02*
X150882380Y-283098571D01*
X150882380Y-283336666D01*
X150834761Y-283431904D01*
X150739523Y-283479523D01*
X150644285Y-283479523D01*
X150549047Y-283431904D01*
X150501428Y-283336666D01*
X150501428Y-283098571D01*
X150453809Y-283003333D01*
X150882380Y-282098571D02*
X149882380Y-282098571D01*
X150834761Y-282098571D02*
X150882380Y-282193809D01*
X150882380Y-282384285D01*
X150834761Y-282479523D01*
X150787142Y-282527142D01*
X150691904Y-282574761D01*
X150406190Y-282574761D01*
X150310952Y-282527142D01*
X150263333Y-282479523D01*
X150215714Y-282384285D01*
X150215714Y-282193809D01*
X150263333Y-282098571D01*
X143882380Y-289131904D02*
X142882380Y-289131904D01*
X143358571Y-289131904D02*
X143358571Y-288560476D01*
X143882380Y-288560476D02*
X142882380Y-288560476D01*
X143882380Y-287560476D02*
X143882380Y-288131904D01*
X143882380Y-287846190D02*
X142882380Y-287846190D01*
X143025238Y-287941428D01*
X143120476Y-288036666D01*
X143168095Y-288131904D01*
X170060966Y-332768574D02*
X169994278Y-332759202D01*
X169870274Y-332673769D01*
X169812958Y-332597708D01*
X169765015Y-332454960D01*
X169783760Y-332321583D01*
X169831162Y-332226237D01*
X169954625Y-332073576D01*
X170068716Y-331987602D01*
X170249495Y-331911001D01*
X170354213Y-331891715D01*
X170487590Y-331910460D01*
X170611594Y-331995893D01*
X170668909Y-332071954D01*
X170716853Y-332214702D01*
X170707480Y-332281390D01*
X170328800Y-333282253D02*
X170309514Y-333177535D01*
X170318886Y-333110846D01*
X170366289Y-333015500D01*
X170594471Y-332843553D01*
X170699189Y-332824268D01*
X170765877Y-332833640D01*
X170861223Y-332881043D01*
X170947197Y-332995134D01*
X170966482Y-333099852D01*
X170957110Y-333166540D01*
X170909707Y-333261886D01*
X170681526Y-333433833D01*
X170576807Y-333453119D01*
X170510119Y-333443746D01*
X170414773Y-333396344D01*
X170328800Y-333282253D01*
X171319749Y-333489527D02*
X170787325Y-333890737D01*
X171243688Y-333546843D02*
X171310377Y-333556215D01*
X171405722Y-333603618D01*
X171491696Y-333717709D01*
X171510982Y-333822427D01*
X171463579Y-333917773D01*
X171045246Y-334233009D01*
X171864248Y-334212102D02*
X171331825Y-334613312D01*
X171788188Y-334269418D02*
X171854876Y-334278790D01*
X171950222Y-334326193D01*
X172036195Y-334440284D01*
X172055481Y-334545002D01*
X172008078Y-334640348D01*
X171589745Y-334955584D01*
X171656974Y-335203051D02*
X172115500Y-335811536D01*
X173248117Y-335494677D02*
X173305432Y-335570738D01*
X173324718Y-335675456D01*
X173315345Y-335742144D01*
X173267943Y-335837490D01*
X173144479Y-335990152D01*
X172954328Y-336133441D01*
X172773549Y-336210042D01*
X172668831Y-336229328D01*
X172602143Y-336219956D01*
X172506797Y-336172553D01*
X172449481Y-336096492D01*
X172430196Y-335991774D01*
X172439568Y-335925086D01*
X172486971Y-335829740D01*
X172610434Y-335677078D01*
X172800585Y-335533789D01*
X172981364Y-335457188D01*
X173086082Y-335437902D01*
X173152771Y-335447275D01*
X173248117Y-335494677D01*
X173223243Y-337123309D02*
X172879349Y-336666946D01*
X173051296Y-336895128D02*
X173849932Y-336293313D01*
X173678525Y-336303226D01*
X173545149Y-336284481D01*
X173449803Y-336237078D01*
X173423848Y-337389521D02*
X174271508Y-337406644D01*
X173956272Y-336988311D02*
X173739085Y-337807854D01*
X174881614Y-337662402D02*
X174938930Y-337738463D01*
X174958216Y-337843181D01*
X174948843Y-337909869D01*
X174901441Y-338005215D01*
X174777977Y-338157877D01*
X174587826Y-338301166D01*
X174407047Y-338377767D01*
X174302329Y-338397053D01*
X174235641Y-338387680D01*
X174140295Y-338340278D01*
X174082979Y-338264217D01*
X174063693Y-338159499D01*
X174073066Y-338092811D01*
X174120469Y-337997465D01*
X174243932Y-337844803D01*
X174434083Y-337701514D01*
X174614862Y-337624913D01*
X174719580Y-337605627D01*
X174786268Y-337615000D01*
X174881614Y-337662402D01*
X175331849Y-338813764D02*
X174799425Y-339214974D01*
X175492802Y-338394350D02*
X174779059Y-338634066D01*
X175151611Y-339128460D01*
X174895312Y-339500471D02*
X175353838Y-340108955D01*
X176192125Y-340192766D02*
X175991520Y-339926554D01*
X175573188Y-340241791D02*
X176371823Y-339639976D01*
X176658402Y-340020279D01*
X176356322Y-341201920D02*
X176260976Y-341154517D01*
X176146345Y-341002396D01*
X176127059Y-340897678D01*
X176174462Y-340802332D01*
X176478704Y-340573069D01*
X176583422Y-340553783D01*
X176678768Y-340601186D01*
X176793400Y-340753307D01*
X176812685Y-340858026D01*
X176765283Y-340953372D01*
X176689222Y-341010687D01*
X176326583Y-340687700D01*
X176604870Y-341610880D02*
X177137294Y-341209670D01*
X177061234Y-341266986D02*
X177127922Y-341276358D01*
X177223268Y-341323761D01*
X177309241Y-341437852D01*
X177328527Y-341542570D01*
X177281124Y-341637916D01*
X176862791Y-341953153D01*
X177281124Y-341637916D02*
X177385842Y-341618631D01*
X177481188Y-341666034D01*
X177567162Y-341780124D01*
X177586447Y-341884843D01*
X177539045Y-341980189D01*
X177120712Y-342295425D01*
X177665211Y-343018000D02*
X178083544Y-342702764D01*
X178130947Y-342607418D01*
X178111661Y-342502699D01*
X177997030Y-342350578D01*
X177901684Y-342303176D01*
X177703241Y-342989342D02*
X177607896Y-342941940D01*
X177464606Y-342751788D01*
X177445321Y-342647070D01*
X177492723Y-342551724D01*
X177568784Y-342494408D01*
X177673502Y-342475123D01*
X177768848Y-342522525D01*
X177912138Y-342712677D01*
X178007484Y-342760079D01*
X178037763Y-343512393D02*
X178018478Y-343407675D01*
X178065881Y-343312329D01*
X178750425Y-342796488D01*
X178534319Y-344092220D02*
X178438973Y-344044817D01*
X178324342Y-343892696D01*
X178305057Y-343787978D01*
X178352459Y-343692632D01*
X178656701Y-343463369D01*
X178761420Y-343444083D01*
X178856766Y-343491486D01*
X178971397Y-343643607D01*
X178990683Y-343748326D01*
X178943280Y-343843672D01*
X178867219Y-343900987D01*
X178504580Y-343578000D01*
X178366607Y-334320766D02*
X178796475Y-334891220D01*
X178844418Y-335033968D01*
X178825674Y-335167345D01*
X178740241Y-335291348D01*
X178664180Y-335348664D01*
X179299700Y-334213885D02*
X179033489Y-334414490D01*
X179348725Y-334832823D02*
X178746910Y-334034187D01*
X179127213Y-333747609D01*
X179355394Y-333575661D02*
X179849788Y-333203109D01*
X179812839Y-333707956D01*
X179926929Y-333621983D01*
X180031648Y-333602697D01*
X180098336Y-333612070D01*
X180193682Y-333659472D01*
X180336971Y-333849624D01*
X180356257Y-333954342D01*
X180346884Y-334021030D01*
X180299482Y-334116376D01*
X180071300Y-334288323D01*
X179966582Y-334307609D01*
X179899893Y-334298236D01*
X180115999Y-333002504D02*
X180610393Y-332629952D01*
X180573444Y-333134799D01*
X180687535Y-333048826D01*
X180792253Y-333029540D01*
X180858941Y-333038913D01*
X180954287Y-333086315D01*
X181097576Y-333276467D01*
X181116862Y-333381185D01*
X181107489Y-333447873D01*
X181060087Y-333543219D01*
X180831905Y-333715166D01*
X180727187Y-333734452D01*
X180660499Y-333725079D01*
X189461151Y-228639321D02*
X189399161Y-228613008D01*
X189301494Y-228498391D01*
X189265817Y-228410088D01*
X189256454Y-228259795D01*
X189309080Y-228135815D01*
X189379545Y-228055986D01*
X189538313Y-227940481D01*
X189670768Y-227886966D01*
X189865213Y-227859764D01*
X189971354Y-227868239D01*
X190095334Y-227920865D01*
X190193001Y-228035481D01*
X190228678Y-228123785D01*
X190238042Y-228274078D01*
X190211729Y-228336068D01*
X189586909Y-229204817D02*
X189595384Y-229098675D01*
X189621697Y-229036685D01*
X189692162Y-228956857D01*
X189957071Y-228849826D01*
X190063213Y-228858301D01*
X190125203Y-228884614D01*
X190205031Y-228955079D01*
X190258547Y-229087534D01*
X190250072Y-229193676D01*
X190223759Y-229255666D01*
X190153294Y-229335494D01*
X189888384Y-229442525D01*
X189782242Y-229434050D01*
X189720252Y-229407737D01*
X189640424Y-229337272D01*
X189586909Y-229204817D01*
X190490446Y-229661505D02*
X189872323Y-229911243D01*
X190402143Y-229697182D02*
X190464133Y-229723495D01*
X190543961Y-229793960D01*
X190597476Y-229926415D01*
X190589002Y-230032556D01*
X190518537Y-230112385D01*
X190032869Y-230308607D01*
X190829376Y-230500386D02*
X190211253Y-230750123D01*
X190741072Y-230536063D02*
X190803062Y-230562376D01*
X190882891Y-230632841D01*
X190936406Y-230765295D01*
X190927931Y-230871437D01*
X190857467Y-230951265D01*
X190371799Y-231147488D01*
X190372688Y-231403923D02*
X190658102Y-232110349D01*
X191834135Y-232097430D02*
X191869812Y-232185733D01*
X191861337Y-232291875D01*
X191835024Y-232353865D01*
X191764559Y-232433693D01*
X191605791Y-232549198D01*
X191385033Y-232638390D01*
X191190588Y-232665592D01*
X191084446Y-232657118D01*
X191022456Y-232630804D01*
X190942628Y-232560340D01*
X190906951Y-232472036D01*
X190915426Y-232365895D01*
X190941739Y-232303905D01*
X191012204Y-232224076D01*
X191170972Y-232108571D01*
X191391730Y-232019379D01*
X191586175Y-231992177D01*
X191692316Y-232000652D01*
X191754306Y-232026965D01*
X191834135Y-232097430D01*
X191388588Y-233664130D02*
X191174527Y-233134310D01*
X191281558Y-233399220D02*
X192208742Y-233024614D01*
X192040610Y-232989826D01*
X191916630Y-232937199D01*
X191836801Y-232866734D01*
X191513457Y-233973191D02*
X192327802Y-234209121D01*
X192131580Y-233723453D02*
X191709679Y-234458859D01*
X192850924Y-234614072D02*
X192886601Y-234702375D01*
X192878126Y-234808516D01*
X192851813Y-234870506D01*
X192781348Y-234950335D01*
X192622580Y-235065840D01*
X192401822Y-235155032D01*
X192207377Y-235182234D01*
X192101236Y-235173759D01*
X192039246Y-235147446D01*
X191959417Y-235076981D01*
X191923740Y-234988678D01*
X191932215Y-234882537D01*
X191958528Y-234820547D01*
X192028993Y-234740718D01*
X192187761Y-234625213D01*
X192408519Y-234536021D01*
X192602964Y-234508819D01*
X192709106Y-234517294D01*
X192771096Y-234543607D01*
X192850924Y-234614072D01*
X192987823Y-235842731D02*
X192369701Y-236092468D01*
X193251844Y-235479265D02*
X192500378Y-235526084D01*
X192732277Y-236100054D01*
X192388428Y-236393055D02*
X192673842Y-237099481D01*
X193461874Y-237397401D02*
X193337005Y-237088340D01*
X192851338Y-237284562D02*
X193778522Y-236909955D01*
X193956906Y-237351472D01*
X193359288Y-238414666D02*
X193279459Y-238344201D01*
X193208106Y-238167594D01*
X193216581Y-238061453D01*
X193287045Y-237981624D01*
X193640258Y-237838917D01*
X193746400Y-237847392D01*
X193826228Y-237917857D01*
X193897582Y-238094463D01*
X193889107Y-238200605D01*
X193818642Y-238280433D01*
X193730339Y-238316110D01*
X193463652Y-237910271D01*
X193493520Y-238874020D02*
X194111643Y-238624282D01*
X194023340Y-238659959D02*
X194085330Y-238686272D01*
X194165158Y-238756737D01*
X194218673Y-238889192D01*
X194210199Y-238995334D01*
X194139734Y-239075162D01*
X193654066Y-239271385D01*
X194139734Y-239075162D02*
X194245875Y-239083637D01*
X194325704Y-239154102D01*
X194379219Y-239286557D01*
X194370744Y-239392698D01*
X194300279Y-239472527D01*
X193814612Y-239668749D01*
X194153542Y-240507630D02*
X194639209Y-240311407D01*
X194709674Y-240231579D01*
X194718149Y-240125437D01*
X194646795Y-239948831D01*
X194566967Y-239878366D01*
X194197693Y-240489791D02*
X194117865Y-240419326D01*
X194028673Y-240198568D01*
X194037147Y-240092427D01*
X194107612Y-240012598D01*
X194195916Y-239976922D01*
X194302057Y-239985396D01*
X194381886Y-240055861D01*
X194471078Y-240276619D01*
X194550906Y-240347084D01*
X194385441Y-241081601D02*
X194393916Y-240975459D01*
X194464380Y-240895631D01*
X195259109Y-240574539D01*
X194715007Y-241770188D02*
X194635179Y-241699723D01*
X194563825Y-241523117D01*
X194572300Y-241416975D01*
X194642765Y-241337147D01*
X194995977Y-241194439D01*
X195102119Y-241202914D01*
X195181948Y-241273379D01*
X195253301Y-241449986D01*
X195244826Y-241556127D01*
X195174362Y-241635956D01*
X195086058Y-241671632D01*
X194819371Y-241265793D01*
X184880308Y-237218105D02*
X185147884Y-237880379D01*
X185157248Y-238030672D01*
X185104621Y-238154652D01*
X184990005Y-238252319D01*
X184901702Y-238287996D01*
X185809269Y-237356368D02*
X185500208Y-237481237D01*
X185696431Y-237966904D02*
X185321824Y-237039721D01*
X185763340Y-236861336D01*
X186028250Y-236754306D02*
X186602221Y-236522407D01*
X186435867Y-237000488D01*
X186568322Y-236946973D01*
X186674463Y-236955448D01*
X186736453Y-236981761D01*
X186816282Y-237052226D01*
X186905474Y-237272984D01*
X186896999Y-237379126D01*
X186870686Y-237441116D01*
X186800221Y-237520944D01*
X186535311Y-237627975D01*
X186429170Y-237619500D01*
X186367180Y-237593187D01*
X187176192Y-236290507D02*
X187264495Y-236254831D01*
X187370637Y-236263305D01*
X187432627Y-236289618D01*
X187512455Y-236360083D01*
X187627960Y-236518851D01*
X187717152Y-236739609D01*
X187744354Y-236934054D01*
X187735880Y-237040196D01*
X187709566Y-237102186D01*
X187639102Y-237182014D01*
X187550798Y-237217691D01*
X187444657Y-237209216D01*
X187382667Y-237182903D01*
X187302838Y-237112438D01*
X187187333Y-236953670D01*
X187098141Y-236732912D01*
X187070939Y-236538467D01*
X187079414Y-236432326D01*
X187105727Y-236370336D01*
X187176192Y-236290507D01*
X180489258Y-211772041D02*
X180427268Y-211745728D01*
X180329601Y-211631111D01*
X180293924Y-211542808D01*
X180284561Y-211392515D01*
X180337187Y-211268535D01*
X180407652Y-211188706D01*
X180566420Y-211073201D01*
X180698875Y-211019686D01*
X180893320Y-210992484D01*
X180999461Y-211000959D01*
X181123441Y-211053585D01*
X181221108Y-211168201D01*
X181256785Y-211256505D01*
X181266149Y-211406798D01*
X181239836Y-211468788D01*
X180615016Y-212337537D02*
X180623491Y-212231395D01*
X180649804Y-212169405D01*
X180720269Y-212089577D01*
X180985178Y-211982546D01*
X181091320Y-211991021D01*
X181153310Y-212017334D01*
X181233138Y-212087799D01*
X181286654Y-212220254D01*
X181278179Y-212326396D01*
X181251866Y-212388386D01*
X181181401Y-212468214D01*
X180916491Y-212575245D01*
X180810349Y-212566770D01*
X180748359Y-212540457D01*
X180668531Y-212469992D01*
X180615016Y-212337537D01*
X181518553Y-212794225D02*
X180900430Y-213043963D01*
X181430250Y-212829902D02*
X181492240Y-212856215D01*
X181572068Y-212926680D01*
X181625583Y-213059135D01*
X181617109Y-213165276D01*
X181546644Y-213245105D01*
X181060976Y-213441327D01*
X181857483Y-213633106D02*
X181239360Y-213882843D01*
X181769179Y-213668783D02*
X181831169Y-213695096D01*
X181910998Y-213765561D01*
X181964513Y-213898015D01*
X181956038Y-214004157D01*
X181885574Y-214083985D01*
X181399906Y-214280208D01*
X181400795Y-214536643D02*
X181686209Y-215243069D01*
X182862242Y-215230150D02*
X182897919Y-215318453D01*
X182889444Y-215424595D01*
X182863131Y-215486585D01*
X182792666Y-215566413D01*
X182633898Y-215681918D01*
X182413140Y-215771110D01*
X182218695Y-215798312D01*
X182112553Y-215789838D01*
X182050563Y-215763524D01*
X181970735Y-215693060D01*
X181935058Y-215604756D01*
X181943533Y-215498615D01*
X181969846Y-215436625D01*
X182040311Y-215356796D01*
X182199079Y-215241291D01*
X182419837Y-215152099D01*
X182614282Y-215124897D01*
X182720423Y-215133372D01*
X182782413Y-215159685D01*
X182862242Y-215230150D01*
X182416695Y-216796850D02*
X182202634Y-216267030D01*
X182309665Y-216531940D02*
X183236849Y-216157334D01*
X183068717Y-216122546D01*
X182944737Y-216069919D01*
X182864908Y-215999454D01*
X182541564Y-217105911D02*
X183355909Y-217341841D01*
X183159687Y-216856173D02*
X182737786Y-217591579D01*
X183879031Y-217746792D02*
X183914708Y-217835095D01*
X183906233Y-217941236D01*
X183879920Y-218003226D01*
X183809455Y-218083055D01*
X183650687Y-218198560D01*
X183429929Y-218287752D01*
X183235484Y-218314954D01*
X183129343Y-218306479D01*
X183067353Y-218280166D01*
X182987524Y-218209701D01*
X182951847Y-218121398D01*
X182960322Y-218015257D01*
X182986635Y-217953267D01*
X183057100Y-217873438D01*
X183215868Y-217757933D01*
X183436626Y-217668741D01*
X183631071Y-217641539D01*
X183737213Y-217650014D01*
X183799203Y-217676327D01*
X183879031Y-217746792D01*
X184015930Y-218975451D02*
X183397808Y-219225188D01*
X184279951Y-218611985D02*
X183528485Y-218658804D01*
X183760384Y-219232774D01*
X183416535Y-219525775D02*
X183701949Y-220232201D01*
X184489981Y-220530121D02*
X184365112Y-220221060D01*
X183879445Y-220417282D02*
X184806629Y-220042675D01*
X184985013Y-220484192D01*
X184387395Y-221547386D02*
X184307566Y-221476921D01*
X184236213Y-221300314D01*
X184244688Y-221194173D01*
X184315152Y-221114344D01*
X184668365Y-220971637D01*
X184774507Y-220980112D01*
X184854335Y-221050577D01*
X184925689Y-221227183D01*
X184917214Y-221333325D01*
X184846749Y-221413153D01*
X184758446Y-221448830D01*
X184491759Y-221042991D01*
X184521627Y-222006740D02*
X185139750Y-221757002D01*
X185051447Y-221792679D02*
X185113437Y-221818992D01*
X185193265Y-221889457D01*
X185246780Y-222021912D01*
X185238306Y-222128054D01*
X185167841Y-222207882D01*
X184682173Y-222404105D01*
X185167841Y-222207882D02*
X185273982Y-222216357D01*
X185353811Y-222286822D01*
X185407326Y-222419277D01*
X185398851Y-222525418D01*
X185328386Y-222605247D01*
X184842719Y-222801469D01*
X185181649Y-223640350D02*
X185667316Y-223444127D01*
X185737781Y-223364299D01*
X185746256Y-223258157D01*
X185674902Y-223081551D01*
X185595074Y-223011086D01*
X185225800Y-223622511D02*
X185145972Y-223552046D01*
X185056780Y-223331288D01*
X185065254Y-223225147D01*
X185135719Y-223145318D01*
X185224023Y-223109642D01*
X185330164Y-223118116D01*
X185409993Y-223188581D01*
X185499185Y-223409339D01*
X185579013Y-223479804D01*
X185413548Y-224214321D02*
X185422023Y-224108179D01*
X185492487Y-224028351D01*
X186287216Y-223707259D01*
X185743114Y-224902908D02*
X185663286Y-224832443D01*
X185591932Y-224655837D01*
X185600407Y-224549695D01*
X185670872Y-224469867D01*
X186024084Y-224327159D01*
X186130226Y-224335634D01*
X186210055Y-224406099D01*
X186281408Y-224582706D01*
X186272933Y-224688847D01*
X186202469Y-224768676D01*
X186114165Y-224804352D01*
X185847478Y-224398513D01*
X175908415Y-220350825D02*
X176175991Y-221013099D01*
X176185355Y-221163392D01*
X176132728Y-221287372D01*
X176018112Y-221385039D01*
X175929809Y-221420716D01*
X176837376Y-220489088D02*
X176528315Y-220613957D01*
X176724538Y-221099624D02*
X176349931Y-220172441D01*
X176791447Y-219994056D01*
X177056357Y-219887026D02*
X177630328Y-219655127D01*
X177463974Y-220133208D01*
X177596429Y-220079693D01*
X177702570Y-220088168D01*
X177764560Y-220114481D01*
X177844389Y-220184946D01*
X177933581Y-220405704D01*
X177925106Y-220511846D01*
X177898793Y-220573836D01*
X177828328Y-220653664D01*
X177563418Y-220760695D01*
X177457277Y-220752220D01*
X177395287Y-220725907D01*
X178887967Y-220225542D02*
X178358147Y-220439603D01*
X178623057Y-220332573D02*
X178248450Y-219405389D01*
X178213662Y-219573521D01*
X178161036Y-219697501D01*
X178090571Y-219777329D01*
X85010241Y-258840448D02*
X85036554Y-258902438D01*
X85027191Y-259052732D01*
X84991514Y-259141035D01*
X84893847Y-259255651D01*
X84769867Y-259308278D01*
X84663726Y-259316752D01*
X84469281Y-259289550D01*
X84336826Y-259236035D01*
X84178058Y-259120530D01*
X84107593Y-259040701D01*
X84054967Y-258916721D01*
X84064330Y-258766428D01*
X84100007Y-258678125D01*
X84197674Y-258563509D01*
X84259664Y-258537195D01*
X85312605Y-258346306D02*
X85232777Y-258416771D01*
X85170787Y-258443084D01*
X85064645Y-258451559D01*
X84799736Y-258344528D01*
X84729271Y-258264700D01*
X84702958Y-258202710D01*
X84694483Y-258096568D01*
X84747998Y-257964113D01*
X84827827Y-257893648D01*
X84889817Y-257867335D01*
X84995958Y-257858860D01*
X85260868Y-257965891D01*
X85331333Y-258045719D01*
X85357646Y-258107709D01*
X85366121Y-258213851D01*
X85312605Y-258346306D01*
X84979897Y-257390142D02*
X85598020Y-257639880D01*
X85068201Y-257425819D02*
X85041887Y-257363829D01*
X85033413Y-257257687D01*
X85086928Y-257125233D01*
X85166756Y-257054768D01*
X85272898Y-257046293D01*
X85758566Y-257242515D01*
X85318827Y-256551262D02*
X85936950Y-256800999D01*
X85407130Y-256586938D02*
X85380817Y-256524948D01*
X85372342Y-256418807D01*
X85425858Y-256286352D01*
X85505686Y-256215887D01*
X85611828Y-256207412D01*
X86097495Y-256403635D01*
X86274991Y-256218554D02*
X86560405Y-255512128D01*
X85705464Y-254704480D02*
X85741141Y-254616177D01*
X85820969Y-254545712D01*
X85882959Y-254519399D01*
X85989101Y-254510924D01*
X86183546Y-254538126D01*
X86404304Y-254627318D01*
X86563072Y-254742823D01*
X86633537Y-254822652D01*
X86659850Y-254884642D01*
X86668325Y-254990783D01*
X86632648Y-255079086D01*
X86552819Y-255149551D01*
X86490829Y-255175864D01*
X86384688Y-255184339D01*
X86190243Y-255157137D01*
X85969485Y-255067945D01*
X85810717Y-254952440D01*
X85740252Y-254872612D01*
X85713939Y-254810622D01*
X85705464Y-254704480D01*
X87114285Y-253886993D02*
X86900224Y-254416812D01*
X87007254Y-254151903D02*
X86080070Y-253777296D01*
X86176848Y-253919114D01*
X86229475Y-254043095D01*
X86237950Y-254149236D01*
X87239154Y-253577932D02*
X86817254Y-252842526D01*
X86621031Y-253328194D02*
X87435376Y-253092264D01*
X86722253Y-252187838D02*
X86757930Y-252099535D01*
X86837758Y-252029070D01*
X86899748Y-252002757D01*
X87005890Y-251994282D01*
X87200335Y-252021484D01*
X87421093Y-252110676D01*
X87579861Y-252226181D01*
X87650326Y-252306010D01*
X87676639Y-252368000D01*
X87685114Y-252474141D01*
X87649437Y-252562445D01*
X87569609Y-252632909D01*
X87507619Y-252659223D01*
X87401477Y-252667697D01*
X87207032Y-252640495D01*
X86986274Y-252551303D01*
X86827506Y-252435798D01*
X86757041Y-252355970D01*
X86730728Y-252293980D01*
X86722253Y-252187838D01*
X87477275Y-251208917D02*
X88095397Y-251458654D01*
X87034870Y-251286967D02*
X87607952Y-251775302D01*
X87839851Y-251201331D01*
X88290731Y-251229421D02*
X88576145Y-250522996D01*
X88216235Y-249761277D02*
X88091367Y-250070338D01*
X88577034Y-250266561D02*
X87649850Y-249891954D01*
X87828235Y-249450438D01*
X88996681Y-249100780D02*
X89005156Y-249206922D01*
X88933802Y-249383529D01*
X88853974Y-249453993D01*
X88747832Y-249462468D01*
X88394620Y-249319761D01*
X88324155Y-249239932D01*
X88315680Y-249133791D01*
X88387034Y-248957184D01*
X88466862Y-248886720D01*
X88573004Y-248878245D01*
X88661307Y-248913922D01*
X88571226Y-249391114D01*
X89219217Y-248677103D02*
X88601094Y-248427365D01*
X88689398Y-248463042D02*
X88663084Y-248401052D01*
X88654610Y-248294910D01*
X88708125Y-248162455D01*
X88787953Y-248091990D01*
X88894095Y-248083516D01*
X89379763Y-248279738D01*
X88894095Y-248083516D02*
X88823630Y-248003687D01*
X88815155Y-247897546D01*
X88868671Y-247765091D01*
X88948499Y-247694626D01*
X89054641Y-247686151D01*
X89540308Y-247882374D01*
X89879238Y-247043493D02*
X89393570Y-246847271D01*
X89287429Y-246855745D01*
X89207600Y-246926210D01*
X89136247Y-247102817D01*
X89144722Y-247208958D01*
X89835087Y-247025655D02*
X89843561Y-247131796D01*
X89754369Y-247352554D01*
X89674541Y-247423019D01*
X89568399Y-247431494D01*
X89480096Y-247395817D01*
X89409631Y-247315989D01*
X89401156Y-247209847D01*
X89490348Y-246989089D01*
X89481874Y-246882947D01*
X90111137Y-246469522D02*
X90031309Y-246539987D01*
X89925167Y-246548462D01*
X89130438Y-246227370D01*
X90352400Y-245745258D02*
X90360875Y-245851400D01*
X90289522Y-246028006D01*
X90209693Y-246098471D01*
X90103552Y-246106946D01*
X89750339Y-245964238D01*
X89679874Y-245884410D01*
X89671399Y-245778268D01*
X89742753Y-245601662D01*
X89822581Y-245531197D01*
X89928723Y-245522722D01*
X90017026Y-245558399D01*
X89926945Y-246035592D01*
X92379147Y-253908425D02*
X92111571Y-254570700D01*
X92013904Y-254685316D01*
X91889924Y-254737942D01*
X91739631Y-254728579D01*
X91651328Y-254692902D01*
X92951341Y-254653194D02*
X92642279Y-254528326D01*
X92446057Y-255013993D02*
X92820663Y-254086809D01*
X93262180Y-254265194D01*
X93535564Y-254478366D02*
X93597554Y-254452052D01*
X93703696Y-254443578D01*
X93924454Y-254532770D01*
X93994919Y-254612598D01*
X94021232Y-254674588D01*
X94029707Y-254780730D01*
X93994030Y-254869033D01*
X93896363Y-254983649D01*
X93152483Y-255299408D01*
X93726454Y-255531307D01*
X94609486Y-255888075D02*
X94079666Y-255674014D01*
X94344576Y-255781045D02*
X94719183Y-254853861D01*
X94577364Y-254950639D01*
X94453384Y-255003265D01*
X94347243Y-255011740D01*
X196578676Y-246255814D02*
X196516686Y-246229501D01*
X196419019Y-246114884D01*
X196383342Y-246026581D01*
X196373979Y-245876288D01*
X196426605Y-245752308D01*
X196497070Y-245672479D01*
X196655838Y-245556974D01*
X196788293Y-245503459D01*
X196982738Y-245476257D01*
X197088879Y-245484732D01*
X197212859Y-245537358D01*
X197310526Y-245651974D01*
X197346203Y-245740278D01*
X197355567Y-245890571D01*
X197329254Y-245952561D01*
X196704434Y-246821310D02*
X196712909Y-246715168D01*
X196739222Y-246653178D01*
X196809687Y-246573350D01*
X197074596Y-246466319D01*
X197180738Y-246474794D01*
X197242728Y-246501107D01*
X197322556Y-246571572D01*
X197376072Y-246704027D01*
X197367597Y-246810169D01*
X197341284Y-246872159D01*
X197270819Y-246951987D01*
X197005909Y-247059018D01*
X196899767Y-247050543D01*
X196837777Y-247024230D01*
X196757949Y-246953765D01*
X196704434Y-246821310D01*
X197607971Y-247277998D02*
X196989848Y-247527736D01*
X197519668Y-247313675D02*
X197581658Y-247339988D01*
X197661486Y-247410453D01*
X197715001Y-247542908D01*
X197706527Y-247649049D01*
X197636062Y-247728878D01*
X197150394Y-247925100D01*
X197946901Y-248116879D02*
X197328778Y-248366616D01*
X197858597Y-248152556D02*
X197920587Y-248178869D01*
X198000416Y-248249334D01*
X198053931Y-248381788D01*
X198045456Y-248487930D01*
X197974992Y-248567758D01*
X197489324Y-248763981D01*
X197490213Y-249020416D02*
X197775627Y-249726842D01*
X198951660Y-249713923D02*
X198987337Y-249802226D01*
X198978862Y-249908368D01*
X198952549Y-249970358D01*
X198882084Y-250050186D01*
X198723316Y-250165691D01*
X198502558Y-250254883D01*
X198308113Y-250282085D01*
X198201971Y-250273611D01*
X198139981Y-250247297D01*
X198060153Y-250176833D01*
X198024476Y-250088529D01*
X198032951Y-249982388D01*
X198059264Y-249920398D01*
X198129729Y-249840569D01*
X198288497Y-249725064D01*
X198509255Y-249635872D01*
X198703700Y-249608670D01*
X198809841Y-249617145D01*
X198871831Y-249643458D01*
X198951660Y-249713923D01*
X198506113Y-251280623D02*
X198292052Y-250750803D01*
X198399083Y-251015713D02*
X199326267Y-250641107D01*
X199158135Y-250606319D01*
X199034155Y-250553692D01*
X198954326Y-250483227D01*
X198630982Y-251589684D02*
X199445327Y-251825614D01*
X199249105Y-251339946D02*
X198827204Y-252075352D01*
X199968449Y-252230565D02*
X200004126Y-252318868D01*
X199995651Y-252425009D01*
X199969338Y-252486999D01*
X199898873Y-252566828D01*
X199740105Y-252682333D01*
X199519347Y-252771525D01*
X199324902Y-252798727D01*
X199218761Y-252790252D01*
X199156771Y-252763939D01*
X199076942Y-252693474D01*
X199041265Y-252605171D01*
X199049740Y-252499030D01*
X199076053Y-252437040D01*
X199146518Y-252357211D01*
X199305286Y-252241706D01*
X199526044Y-252152514D01*
X199720489Y-252125312D01*
X199826631Y-252133787D01*
X199888621Y-252160100D01*
X199968449Y-252230565D01*
X200105348Y-253459224D02*
X199487226Y-253708961D01*
X200369369Y-253095758D02*
X199617903Y-253142577D01*
X199849802Y-253716547D01*
X199505953Y-254009548D02*
X199791367Y-254715974D01*
X200579399Y-255013894D02*
X200454530Y-254704833D01*
X199968863Y-254901055D02*
X200896047Y-254526448D01*
X201074431Y-254967965D01*
X200476813Y-256031159D02*
X200396984Y-255960694D01*
X200325631Y-255784087D01*
X200334106Y-255677946D01*
X200404570Y-255598117D01*
X200757783Y-255455410D01*
X200863925Y-255463885D01*
X200943753Y-255534350D01*
X201015107Y-255710956D01*
X201006632Y-255817098D01*
X200936167Y-255896926D01*
X200847864Y-255932603D01*
X200581177Y-255526764D01*
X200611045Y-256490513D02*
X201229168Y-256240775D01*
X201140865Y-256276452D02*
X201202855Y-256302765D01*
X201282683Y-256373230D01*
X201336198Y-256505685D01*
X201327724Y-256611827D01*
X201257259Y-256691655D01*
X200771591Y-256887878D01*
X201257259Y-256691655D02*
X201363400Y-256700130D01*
X201443229Y-256770595D01*
X201496744Y-256903050D01*
X201488269Y-257009191D01*
X201417804Y-257089020D01*
X200932137Y-257285242D01*
X201271067Y-258124123D02*
X201756734Y-257927900D01*
X201827199Y-257848072D01*
X201835674Y-257741930D01*
X201764320Y-257565324D01*
X201684492Y-257494859D01*
X201315218Y-258106284D02*
X201235390Y-258035819D01*
X201146198Y-257815061D01*
X201154672Y-257708920D01*
X201225137Y-257629091D01*
X201313441Y-257593415D01*
X201419582Y-257601889D01*
X201499411Y-257672354D01*
X201588603Y-257893112D01*
X201668431Y-257963577D01*
X201502966Y-258698094D02*
X201511441Y-258591952D01*
X201581905Y-258512124D01*
X202376634Y-258191032D01*
X201832532Y-259386681D02*
X201752704Y-259316216D01*
X201681350Y-259139610D01*
X201689825Y-259033468D01*
X201760290Y-258953640D01*
X202113502Y-258810932D01*
X202219644Y-258819407D01*
X202299473Y-258889872D01*
X202370826Y-259066479D01*
X202362351Y-259172620D01*
X202291887Y-259252449D01*
X202203583Y-259288125D01*
X201936896Y-258882286D01*
X191997833Y-254834598D02*
X192265409Y-255496872D01*
X192274773Y-255647165D01*
X192222146Y-255771145D01*
X192107530Y-255868812D01*
X192019227Y-255904489D01*
X192926794Y-254972861D02*
X192617733Y-255097730D01*
X192813956Y-255583397D02*
X192439349Y-254656214D01*
X192880865Y-254477829D01*
X193225603Y-254441264D02*
X193251916Y-254379274D01*
X193322381Y-254299445D01*
X193543139Y-254210253D01*
X193649281Y-254218728D01*
X193711271Y-254245041D01*
X193791099Y-254315506D01*
X193826776Y-254403809D01*
X193836140Y-254554103D01*
X193520381Y-255297983D01*
X194094352Y-255066083D01*
X194535868Y-254887699D02*
X194712475Y-254816346D01*
X194782940Y-254736517D01*
X194809253Y-254674527D01*
X194844041Y-254506396D01*
X194816839Y-254311951D01*
X194674132Y-253958738D01*
X194594303Y-253888273D01*
X194532313Y-253861960D01*
X194426172Y-253853485D01*
X194249565Y-253924839D01*
X194179100Y-254004667D01*
X194152787Y-254066657D01*
X194144312Y-254172799D01*
X194233504Y-254393557D01*
X194313333Y-254464022D01*
X194375323Y-254490335D01*
X194481464Y-254498810D01*
X194658071Y-254427456D01*
X194728536Y-254347628D01*
X194754849Y-254285638D01*
X194763324Y-254179496D01*
X99496672Y-236291932D02*
X99229096Y-236954207D01*
X99131429Y-237068823D01*
X99007449Y-237121449D01*
X98857156Y-237112086D01*
X98768853Y-237076409D01*
X100068866Y-237036701D02*
X99759804Y-236911833D01*
X99563582Y-237397500D02*
X99938188Y-236470316D01*
X100379705Y-236648701D01*
X100653089Y-236861873D02*
X100715079Y-236835559D01*
X100821221Y-236827085D01*
X101041979Y-236916277D01*
X101112444Y-236996105D01*
X101138757Y-237058095D01*
X101147232Y-237164237D01*
X101111555Y-237252540D01*
X101013888Y-237367156D01*
X100270008Y-237682915D01*
X100843979Y-237914814D01*
X101792556Y-237219530D02*
X101880859Y-237255206D01*
X101951324Y-237335035D01*
X101977637Y-237397025D01*
X101986112Y-237503167D01*
X101958910Y-237697611D01*
X101869718Y-237918369D01*
X101754213Y-238077137D01*
X101674384Y-238147602D01*
X101612394Y-238173915D01*
X101506253Y-238182390D01*
X101417950Y-238146713D01*
X101347485Y-238066885D01*
X101321172Y-238004895D01*
X101312697Y-237898753D01*
X101339899Y-237704309D01*
X101429091Y-237483550D01*
X101544596Y-237324782D01*
X101624424Y-237254318D01*
X101686414Y-237228004D01*
X101792556Y-237219530D01*
X249207200Y-280373215D02*
X248719754Y-280056568D01*
X248677380Y-280587276D02*
X248302774Y-279660092D01*
X248655987Y-279517385D01*
X248762128Y-279525860D01*
X248824118Y-279552173D01*
X248903947Y-279622638D01*
X248957462Y-279755093D01*
X248948987Y-279861234D01*
X248922674Y-279923224D01*
X248852209Y-280003053D01*
X248498996Y-280145760D01*
X250001929Y-280052124D02*
X249805706Y-279566456D01*
X249725878Y-279495991D01*
X249619736Y-279487516D01*
X249443130Y-279558870D01*
X249372665Y-279638698D01*
X249984090Y-280007972D02*
X249913625Y-280087801D01*
X249692867Y-280176993D01*
X249586726Y-280168518D01*
X249506897Y-280098053D01*
X249471220Y-280009750D01*
X249479695Y-279903608D01*
X249550160Y-279823780D01*
X249770918Y-279734588D01*
X249841383Y-279654759D01*
X250443445Y-279873740D02*
X250193707Y-279255617D01*
X250068838Y-278946556D02*
X250042525Y-279008546D01*
X250104515Y-279034859D01*
X250130828Y-278972869D01*
X250068838Y-278946556D01*
X250104515Y-279034859D01*
X250822971Y-279669042D02*
X250929112Y-279677517D01*
X251105719Y-279606164D01*
X251176184Y-279526335D01*
X251184659Y-279420193D01*
X251166820Y-279376042D01*
X251086992Y-279305577D01*
X250980850Y-279297102D01*
X250848395Y-279350617D01*
X250742254Y-279342143D01*
X250662425Y-279271678D01*
X250644587Y-279227526D01*
X250653062Y-279121385D01*
X250723526Y-279041556D01*
X250855981Y-278988041D01*
X250962123Y-278996516D01*
X251970913Y-279205244D02*
X251900448Y-279285072D01*
X251723842Y-279356426D01*
X251617700Y-279347951D01*
X251537871Y-279277486D01*
X251395164Y-278924273D01*
X251403639Y-278818132D01*
X251474104Y-278738303D01*
X251650710Y-278666950D01*
X251756852Y-278675424D01*
X251836680Y-278745889D01*
X251872357Y-278834192D01*
X251466518Y-279100880D01*
X252430267Y-279071011D02*
X252180530Y-278452889D01*
X252251883Y-278629495D02*
X252260358Y-278523353D01*
X252286671Y-278461363D01*
X252357136Y-278381535D01*
X252445439Y-278345858D01*
X252819157Y-279016607D02*
X253525583Y-278731193D01*
X253823503Y-277943161D02*
X253514442Y-278068030D01*
X253710664Y-278553697D02*
X253336057Y-277626514D01*
X253777574Y-277448129D01*
X254840768Y-278045747D02*
X254770303Y-278125576D01*
X254593696Y-278196929D01*
X254487555Y-278188454D01*
X254407726Y-278117990D01*
X254265019Y-277764777D01*
X254273494Y-277658635D01*
X254343959Y-277578807D01*
X254520565Y-277507453D01*
X254626707Y-277515928D01*
X254706535Y-277586393D01*
X254742212Y-277674696D01*
X254336373Y-277941383D01*
X255300122Y-277911515D02*
X255050384Y-277293392D01*
X255086061Y-277381695D02*
X255112374Y-277319705D01*
X255182839Y-277239877D01*
X255315294Y-277186362D01*
X255421436Y-277194836D01*
X255501264Y-277265301D01*
X255697487Y-277750969D01*
X255501264Y-277265301D02*
X255509739Y-277159160D01*
X255580204Y-277079331D01*
X255712659Y-277025816D01*
X255818800Y-277034291D01*
X255898629Y-277104756D01*
X256094851Y-277590423D01*
X256933732Y-277251493D02*
X256737509Y-276765826D01*
X256657681Y-276695361D01*
X256551539Y-276686886D01*
X256374933Y-276758240D01*
X256304468Y-276838068D01*
X256915893Y-277207342D02*
X256845429Y-277287170D01*
X256624670Y-277376362D01*
X256518529Y-277367888D01*
X256438700Y-277297423D01*
X256403024Y-277209120D01*
X256411498Y-277102978D01*
X256481963Y-277023149D01*
X256702721Y-276933957D01*
X256773186Y-276854129D01*
X257507703Y-277019594D02*
X257401561Y-277011119D01*
X257321733Y-276940655D01*
X257000641Y-276145926D01*
X258196290Y-276690028D02*
X258125825Y-276769856D01*
X257949219Y-276841210D01*
X257843077Y-276832735D01*
X257763249Y-276762270D01*
X257620541Y-276409058D01*
X257629016Y-276302916D01*
X257699481Y-276223088D01*
X257876088Y-276151734D01*
X257982229Y-276160209D01*
X258062058Y-276230673D01*
X258097734Y-276318977D01*
X257691895Y-276585664D01*
X255963530Y-283430590D02*
X255301256Y-283698166D01*
X255150963Y-283707530D01*
X255026983Y-283654903D01*
X254929316Y-283540287D01*
X254893639Y-283451984D01*
X255825267Y-284359551D02*
X255700398Y-284050490D01*
X255214731Y-284246713D02*
X256141915Y-283872106D01*
X256320299Y-284313622D01*
X255553661Y-285085593D02*
X255625014Y-285262200D01*
X255704843Y-285332665D01*
X255766833Y-285358978D01*
X255934964Y-285393766D01*
X256129409Y-285366564D01*
X256482622Y-285223857D01*
X256553087Y-285144028D01*
X256579400Y-285082038D01*
X256587875Y-284975896D01*
X256516521Y-284799290D01*
X256436693Y-284728825D01*
X256374703Y-284702512D01*
X256268561Y-284694037D01*
X256047803Y-284783229D01*
X255977338Y-284863058D01*
X255951025Y-284925048D01*
X255942550Y-285031189D01*
X256013904Y-285207796D01*
X256093732Y-285278261D01*
X256155722Y-285304574D01*
X256261864Y-285313049D01*
X77892715Y-276456941D02*
X77919028Y-276518931D01*
X77909665Y-276669225D01*
X77873988Y-276757528D01*
X77776321Y-276872144D01*
X77652341Y-276924771D01*
X77546200Y-276933245D01*
X77351755Y-276906043D01*
X77219300Y-276852528D01*
X77060532Y-276737023D01*
X76990067Y-276657194D01*
X76937441Y-276533214D01*
X76946804Y-276382921D01*
X76982481Y-276294618D01*
X77080148Y-276180002D01*
X77142138Y-276153688D01*
X78195079Y-275962799D02*
X78115251Y-276033264D01*
X78053261Y-276059577D01*
X77947119Y-276068052D01*
X77682210Y-275961021D01*
X77611745Y-275881193D01*
X77585432Y-275819203D01*
X77576957Y-275713061D01*
X77630472Y-275580606D01*
X77710301Y-275510141D01*
X77772291Y-275483828D01*
X77878432Y-275475353D01*
X78143342Y-275582384D01*
X78213807Y-275662212D01*
X78240120Y-275724202D01*
X78248595Y-275830344D01*
X78195079Y-275962799D01*
X77862371Y-275006635D02*
X78480494Y-275256373D01*
X77950675Y-275042312D02*
X77924361Y-274980322D01*
X77915887Y-274874180D01*
X77969402Y-274741726D01*
X78049230Y-274671261D01*
X78155372Y-274662786D01*
X78641040Y-274859008D01*
X78201301Y-274167755D02*
X78819424Y-274417492D01*
X78289604Y-274203431D02*
X78263291Y-274141441D01*
X78254816Y-274035300D01*
X78308332Y-273902845D01*
X78388160Y-273832380D01*
X78494302Y-273823905D01*
X78979969Y-274020128D01*
X79157465Y-273835047D02*
X79442879Y-273128621D01*
X78587938Y-272320973D02*
X78623615Y-272232670D01*
X78703443Y-272162205D01*
X78765433Y-272135892D01*
X78871575Y-272127417D01*
X79066020Y-272154619D01*
X79286778Y-272243811D01*
X79445546Y-272359316D01*
X79516011Y-272439145D01*
X79542324Y-272501135D01*
X79550799Y-272607276D01*
X79515122Y-272695579D01*
X79435293Y-272766044D01*
X79373303Y-272792357D01*
X79267162Y-272800832D01*
X79072717Y-272773630D01*
X78851959Y-272684438D01*
X78693191Y-272568933D01*
X78622726Y-272489105D01*
X78596413Y-272427115D01*
X78587938Y-272320973D01*
X79996759Y-271503486D02*
X79782698Y-272033305D01*
X79889728Y-271768396D02*
X78962544Y-271393789D01*
X79059322Y-271535607D01*
X79111949Y-271659588D01*
X79120424Y-271765729D01*
X80121628Y-271194425D02*
X79699728Y-270459019D01*
X79503505Y-270944687D02*
X80317850Y-270708757D01*
X79604727Y-269804331D02*
X79640404Y-269716028D01*
X79720232Y-269645563D01*
X79782222Y-269619250D01*
X79888364Y-269610775D01*
X80082809Y-269637977D01*
X80303567Y-269727169D01*
X80462335Y-269842674D01*
X80532800Y-269922503D01*
X80559113Y-269984493D01*
X80567588Y-270090634D01*
X80531911Y-270178938D01*
X80452083Y-270249402D01*
X80390093Y-270275716D01*
X80283951Y-270284190D01*
X80089506Y-270256988D01*
X79868748Y-270167796D01*
X79709980Y-270052291D01*
X79639515Y-269972463D01*
X79613202Y-269910473D01*
X79604727Y-269804331D01*
X80359749Y-268825410D02*
X80977871Y-269075147D01*
X79917344Y-268903460D02*
X80490426Y-269391795D01*
X80722325Y-268817824D01*
X81173205Y-268845914D02*
X81458619Y-268139489D01*
X81098709Y-267377770D02*
X80973841Y-267686831D01*
X81459508Y-267883054D02*
X80532324Y-267508447D01*
X80710709Y-267066931D01*
X81879155Y-266717273D02*
X81887630Y-266823415D01*
X81816276Y-267000022D01*
X81736448Y-267070486D01*
X81630306Y-267078961D01*
X81277094Y-266936254D01*
X81206629Y-266856425D01*
X81198154Y-266750284D01*
X81269508Y-266573677D01*
X81349336Y-266503213D01*
X81455478Y-266494738D01*
X81543781Y-266530415D01*
X81453700Y-267007607D01*
X82101691Y-266293596D02*
X81483568Y-266043858D01*
X81571872Y-266079535D02*
X81545558Y-266017545D01*
X81537084Y-265911403D01*
X81590599Y-265778948D01*
X81670427Y-265708483D01*
X81776569Y-265700009D01*
X82262237Y-265896231D01*
X81776569Y-265700009D02*
X81706104Y-265620180D01*
X81697629Y-265514039D01*
X81751145Y-265381584D01*
X81830973Y-265311119D01*
X81937115Y-265302644D01*
X82422782Y-265498867D01*
X82761712Y-264659986D02*
X82276044Y-264463764D01*
X82169903Y-264472238D01*
X82090074Y-264542703D01*
X82018721Y-264719310D01*
X82027196Y-264825451D01*
X82717561Y-264642148D02*
X82726035Y-264748289D01*
X82636843Y-264969047D01*
X82557015Y-265039512D01*
X82450873Y-265047987D01*
X82362570Y-265012310D01*
X82292105Y-264932482D01*
X82283630Y-264826340D01*
X82372822Y-264605582D01*
X82364348Y-264499440D01*
X82993611Y-264086015D02*
X82913783Y-264156480D01*
X82807641Y-264164955D01*
X82012912Y-263843863D01*
X83234874Y-263361751D02*
X83243349Y-263467893D01*
X83171996Y-263644499D01*
X83092167Y-263714964D01*
X82986026Y-263723439D01*
X82632813Y-263580731D01*
X82562348Y-263500903D01*
X82553873Y-263394761D01*
X82625227Y-263218155D01*
X82705055Y-263147690D01*
X82811197Y-263139215D01*
X82899500Y-263174892D01*
X82809419Y-263652085D01*
X85261621Y-271524918D02*
X84994045Y-272187193D01*
X84896378Y-272301809D01*
X84772398Y-272354435D01*
X84622105Y-272345072D01*
X84533802Y-272309395D01*
X85833815Y-272269687D02*
X85524753Y-272144819D01*
X85328531Y-272630486D02*
X85703137Y-271703302D01*
X86144654Y-271881687D01*
X86418038Y-272094859D02*
X86480028Y-272068545D01*
X86586170Y-272060071D01*
X86806928Y-272149263D01*
X86877393Y-272229091D01*
X86903706Y-272291081D01*
X86912181Y-272397223D01*
X86876504Y-272485526D01*
X86778837Y-272600142D01*
X86034957Y-272915901D01*
X86608928Y-273147800D01*
X87301070Y-272451627D02*
X87363060Y-272425314D01*
X87469202Y-272416839D01*
X87689960Y-272506031D01*
X87760425Y-272585859D01*
X87786738Y-272647849D01*
X87795213Y-272753991D01*
X87759536Y-272842294D01*
X87661869Y-272956911D01*
X86917989Y-273272669D01*
X87491960Y-273504568D01*
X203696201Y-263872307D02*
X203634211Y-263845994D01*
X203536544Y-263731377D01*
X203500867Y-263643074D01*
X203491504Y-263492781D01*
X203544130Y-263368801D01*
X203614595Y-263288972D01*
X203773363Y-263173467D01*
X203905818Y-263119952D01*
X204100263Y-263092750D01*
X204206404Y-263101225D01*
X204330384Y-263153851D01*
X204428051Y-263268467D01*
X204463728Y-263356771D01*
X204473092Y-263507064D01*
X204446779Y-263569054D01*
X203821959Y-264437803D02*
X203830434Y-264331661D01*
X203856747Y-264269671D01*
X203927212Y-264189843D01*
X204192121Y-264082812D01*
X204298263Y-264091287D01*
X204360253Y-264117600D01*
X204440081Y-264188065D01*
X204493597Y-264320520D01*
X204485122Y-264426662D01*
X204458809Y-264488652D01*
X204388344Y-264568480D01*
X204123434Y-264675511D01*
X204017292Y-264667036D01*
X203955302Y-264640723D01*
X203875474Y-264570258D01*
X203821959Y-264437803D01*
X204725496Y-264894491D02*
X204107373Y-265144229D01*
X204637193Y-264930168D02*
X204699183Y-264956481D01*
X204779011Y-265026946D01*
X204832526Y-265159401D01*
X204824052Y-265265542D01*
X204753587Y-265345371D01*
X204267919Y-265541593D01*
X205064426Y-265733372D02*
X204446303Y-265983109D01*
X204976122Y-265769049D02*
X205038112Y-265795362D01*
X205117941Y-265865827D01*
X205171456Y-265998281D01*
X205162981Y-266104423D01*
X205092517Y-266184251D01*
X204606849Y-266380474D01*
X204607738Y-266636909D02*
X204893152Y-267343335D01*
X206069185Y-267330416D02*
X206104862Y-267418719D01*
X206096387Y-267524861D01*
X206070074Y-267586851D01*
X205999609Y-267666679D01*
X205840841Y-267782184D01*
X205620083Y-267871376D01*
X205425638Y-267898578D01*
X205319496Y-267890104D01*
X205257506Y-267863790D01*
X205177678Y-267793326D01*
X205142001Y-267705022D01*
X205150476Y-267598881D01*
X205176789Y-267536891D01*
X205247254Y-267457062D01*
X205406022Y-267341557D01*
X205626780Y-267252365D01*
X205821225Y-267225163D01*
X205927366Y-267233638D01*
X205989356Y-267259951D01*
X206069185Y-267330416D01*
X205623638Y-268897116D02*
X205409577Y-268367296D01*
X205516608Y-268632206D02*
X206443792Y-268257600D01*
X206275660Y-268222812D01*
X206151680Y-268170185D01*
X206071851Y-268099720D01*
X205748507Y-269206177D02*
X206562852Y-269442107D01*
X206366630Y-268956439D02*
X205944729Y-269691845D01*
X207085974Y-269847058D02*
X207121651Y-269935361D01*
X207113176Y-270041502D01*
X207086863Y-270103492D01*
X207016398Y-270183321D01*
X206857630Y-270298826D01*
X206636872Y-270388018D01*
X206442427Y-270415220D01*
X206336286Y-270406745D01*
X206274296Y-270380432D01*
X206194467Y-270309967D01*
X206158790Y-270221664D01*
X206167265Y-270115523D01*
X206193578Y-270053533D01*
X206264043Y-269973704D01*
X206422811Y-269858199D01*
X206643569Y-269769007D01*
X206838014Y-269741805D01*
X206944156Y-269750280D01*
X207006146Y-269776593D01*
X207085974Y-269847058D01*
X207222873Y-271075717D02*
X206604751Y-271325454D01*
X207486894Y-270712251D02*
X206735428Y-270759070D01*
X206967327Y-271333040D01*
X206623478Y-271626041D02*
X206908892Y-272332467D01*
X207696924Y-272630387D02*
X207572055Y-272321326D01*
X207086388Y-272517548D02*
X208013572Y-272142941D01*
X208191956Y-272584458D01*
X207594338Y-273647652D02*
X207514509Y-273577187D01*
X207443156Y-273400580D01*
X207451631Y-273294439D01*
X207522095Y-273214610D01*
X207875308Y-273071903D01*
X207981450Y-273080378D01*
X208061278Y-273150843D01*
X208132632Y-273327449D01*
X208124157Y-273433591D01*
X208053692Y-273513419D01*
X207965389Y-273549096D01*
X207698702Y-273143257D01*
X207728570Y-274107006D02*
X208346693Y-273857268D01*
X208258390Y-273892945D02*
X208320380Y-273919258D01*
X208400208Y-273989723D01*
X208453723Y-274122178D01*
X208445249Y-274228320D01*
X208374784Y-274308148D01*
X207889116Y-274504371D01*
X208374784Y-274308148D02*
X208480925Y-274316623D01*
X208560754Y-274387088D01*
X208614269Y-274519543D01*
X208605794Y-274625684D01*
X208535329Y-274705513D01*
X208049662Y-274901735D01*
X208388592Y-275740616D02*
X208874259Y-275544393D01*
X208944724Y-275464565D01*
X208953199Y-275358423D01*
X208881845Y-275181817D01*
X208802017Y-275111352D01*
X208432743Y-275722777D02*
X208352915Y-275652312D01*
X208263723Y-275431554D01*
X208272197Y-275325413D01*
X208342662Y-275245584D01*
X208430966Y-275209908D01*
X208537107Y-275218382D01*
X208616936Y-275288847D01*
X208706128Y-275509605D01*
X208785956Y-275580070D01*
X208620491Y-276314587D02*
X208628966Y-276208445D01*
X208699430Y-276128617D01*
X209494159Y-275807525D01*
X208950057Y-277003174D02*
X208870229Y-276932709D01*
X208798875Y-276756103D01*
X208807350Y-276649961D01*
X208877815Y-276570133D01*
X209231027Y-276427425D01*
X209337169Y-276435900D01*
X209416998Y-276506365D01*
X209488351Y-276682972D01*
X209479876Y-276789113D01*
X209409412Y-276868942D01*
X209321108Y-276904618D01*
X209054421Y-276498779D01*
X199115358Y-272451091D02*
X199382934Y-273113365D01*
X199392298Y-273263658D01*
X199339671Y-273387638D01*
X199225055Y-273485305D01*
X199136752Y-273520982D01*
X200044319Y-272589354D02*
X199735258Y-272714223D01*
X199931481Y-273199890D02*
X199556874Y-272272707D01*
X199998390Y-272094322D01*
X200343128Y-272057757D02*
X200369441Y-271995767D01*
X200439906Y-271915938D01*
X200660664Y-271826746D01*
X200766806Y-271835221D01*
X200828796Y-271861534D01*
X200908624Y-271931999D01*
X200944301Y-272020302D01*
X200953665Y-272170596D01*
X200637906Y-272914476D01*
X201211877Y-272682576D01*
X201527636Y-271938696D02*
X201421494Y-271930221D01*
X201359504Y-271903908D01*
X201279676Y-271833443D01*
X201261837Y-271789292D01*
X201270312Y-271683150D01*
X201296625Y-271621160D01*
X201367090Y-271541332D01*
X201543697Y-271469978D01*
X201649838Y-271478453D01*
X201711828Y-271504766D01*
X201791657Y-271575231D01*
X201809495Y-271619383D01*
X201801020Y-271725524D01*
X201774707Y-271787514D01*
X201704242Y-271867343D01*
X201527636Y-271938696D01*
X201457171Y-272018525D01*
X201430858Y-272080515D01*
X201422383Y-272186656D01*
X201493737Y-272363263D01*
X201573565Y-272433728D01*
X201635555Y-272460041D01*
X201741697Y-272468516D01*
X201918303Y-272397162D01*
X201988768Y-272317334D01*
X202015081Y-272255343D01*
X202023556Y-272149202D01*
X201952202Y-271972595D01*
X201872374Y-271902131D01*
X201810384Y-271875817D01*
X201704242Y-271867343D01*
X108910081Y-219603036D02*
X108642505Y-220265311D01*
X108544838Y-220379927D01*
X108420858Y-220432553D01*
X108270565Y-220423190D01*
X108182262Y-220387513D01*
X109482275Y-220347805D02*
X109173213Y-220222937D01*
X108976991Y-220708604D02*
X109351598Y-219781421D01*
X109793114Y-219959805D01*
X110058023Y-220066835D02*
X110631994Y-220298734D01*
X110180226Y-220527078D01*
X110312681Y-220580594D01*
X110383145Y-220660422D01*
X110409459Y-220722412D01*
X110417933Y-220828554D01*
X110328741Y-221049312D01*
X110248913Y-221119777D01*
X110186923Y-221146090D01*
X110080781Y-221154565D01*
X109815872Y-221047534D01*
X109745407Y-220967706D01*
X109719094Y-220905716D01*
M02*
