M48
; DRILL file {KiCad (5.1.4)-1} date 5/28/2025 2:17:58 PM
; FORMAT={-:-/ absolute / metric / decimal}
; #@! TF.CreationDate,2025-05-28T14:17:58-04:00
; #@! TF.GenerationSoftware,Kicad,Pcbnew,(5.1.4)-1
; #@! TF.FileFunction,Plated,1,2,PTH
FMAT,2
METRIC
T1C0.400
T2C0.600
T3C0.800
T4C1.000
T5C6.000
T6C8.400
%
G90
G05
T1
X20.498Y-225.552
X22.758Y-248.666
X23.292Y-247.447
X29.28Y-230.384
X39.04Y-209.88
X39.986Y-272.231
X40.411Y-230.302
X44.577Y-249.961
X49.835Y-237.725
X54.585Y-274.65
X58.572Y-215.011
X58.928Y-232.715
X63.525Y-252.882
X66.275Y-242.589
X74.193Y-277.825
X78.156Y-217.322
X78.588Y-235.204
X80.95Y-260.325
X87.122Y-245.237
X210.083Y-223.799
X214.429Y-236.928
X222.596Y-253.628
X227.631Y-216.582
X229.714Y-271.649
X232.435Y-282.067
X235.56Y-281.635
X235.712Y-233.604
X238.862Y-281.457
X242.086Y-251.538
X247.701Y-209.347
X249.203Y-268.83
X255.346Y-227.94
X258.801Y-254.025
X262.788Y-246.024
X263.931Y-247.675
T2
X138.93Y-288.67
X140.248Y-285.488
X140.248Y-291.852
X143.43Y-284.17
X143.43Y-293.17
X146.612Y-285.488
X146.612Y-291.852
X147.93Y-288.67
T3
X137.03Y-303.97
X138.875Y-299.515
X138.875Y-308.425
X143.33Y-297.67
X143.33Y-310.27
X147.785Y-299.515
X147.785Y-308.425
X149.63Y-303.97
T4
X82.672Y-271.069
X85.027Y-272.021
X87.382Y-272.972
X89.737Y-273.924
X176.642Y-336.306
X178.671Y-334.777
X180.699Y-333.249
X182.728Y-331.72
X173.729Y-221.822
X176.084Y-220.871
X178.439Y-219.919
X180.794Y-218.968
X96.907Y-235.836
X99.262Y-236.788
X101.617Y-237.739
X103.972Y-238.691
X29.428Y-288.088
X30.38Y-285.733
X31.331Y-283.378
X32.283Y-281.023
X196.936Y-273.922
X199.291Y-272.971
X201.646Y-272.019
X204.001Y-271.068
X105.879Y-218.969
X108.234Y-219.92
X110.589Y-220.872
X112.944Y-221.823
X182.701Y-238.689
X185.056Y-237.738
X187.411Y-236.786
X189.766Y-235.835
X89.789Y-253.453
X92.144Y-254.404
X94.499Y-255.356
X96.855Y-256.307
X103.73Y-331.67
X105.759Y-333.199
X107.787Y-334.727
X109.816Y-336.256
X254.314Y-280.81
X255.265Y-283.165
X256.217Y-285.52
X257.168Y-287.875
X189.818Y-256.306
X192.173Y-255.354
X194.528Y-254.403
X196.883Y-253.451
T5
X143.43Y-288.67
T6
X143.33Y-303.97
T0
M30
