G04 #@! TF.GenerationSoftware,KiCad,Pcbnew,(5.1.4)-1*
G04 #@! TF.CreationDate,2025-05-28T14:17:52-04:00*
G04 #@! TF.ProjectId,ThumbsUp,5468756d-6273-4557-902e-6b696361645f,rev?*
G04 #@! TF.SameCoordinates,Original*
G04 #@! TF.FileFunction,Other,ECO2*
%FSLAX46Y46*%
G04 Gerber Fmt 4.6, Leading zero omitted, Abs format (unit mm)*
G04 Created by KiCad (PCBNEW (5.1.4)-1) date 2025-05-28 14:17:52*
%MOMM*%
%LPD*%
G04 APERTURE LIST*
%ADD10C,0.150000*%
G04 APERTURE END LIST*
D10*
X199964151Y-219419167D02*
X195142795Y-221367121D01*
X195142795Y-221367121D02*
X196341537Y-224334109D01*
X196341537Y-224334109D02*
X201162893Y-222386155D01*
X199964151Y-219419167D02*
X201162893Y-222386155D01*
X200204976Y-208536520D02*
X187409839Y-213706091D01*
X192579410Y-226501228D02*
X205374547Y-221331657D01*
X192579410Y-226501228D02*
X187409839Y-213706091D01*
X200204976Y-208536520D02*
X205374547Y-221331657D01*
X238943203Y-214455955D02*
X234121847Y-216403909D01*
X234121847Y-216403909D02*
X235320589Y-219370897D01*
X235320589Y-219370897D02*
X240141945Y-217422943D01*
X238943203Y-214455955D02*
X240141945Y-217422943D01*
X239184028Y-203573308D02*
X226388891Y-208742879D01*
X231558462Y-221538016D02*
X244353599Y-216368445D01*
X231558462Y-221538016D02*
X226388891Y-208742879D01*
X239184028Y-203573308D02*
X244353599Y-216368445D01*
X219453677Y-216937561D02*
X214632321Y-218885515D01*
X214632321Y-218885515D02*
X215831063Y-221852503D01*
X215831063Y-221852503D02*
X220652419Y-219904549D01*
X219453677Y-216937561D02*
X220652419Y-219904549D01*
X219694502Y-206054914D02*
X206899365Y-211224485D01*
X212068936Y-224019622D02*
X224864073Y-218850051D01*
X212068936Y-224019622D02*
X206899365Y-211224485D01*
X219694502Y-206054914D02*
X224864073Y-218850051D01*
X255061270Y-203629694D02*
X250239914Y-205577648D01*
X250239914Y-205577648D02*
X251438656Y-208544636D01*
X251438656Y-208544636D02*
X256260012Y-206596682D01*
X255061270Y-203629694D02*
X256260012Y-206596682D01*
X255302095Y-192747047D02*
X242506958Y-197916618D01*
X247676529Y-210711755D02*
X260471666Y-205542184D01*
X247676529Y-210711755D02*
X242506958Y-197916618D01*
X255302095Y-192747047D02*
X260471666Y-205542184D01*
X240806253Y-269787041D02*
X235984897Y-271734995D01*
X235984897Y-271734995D02*
X237183639Y-274701983D01*
X237183639Y-274701983D02*
X242004995Y-272754029D01*
X240806253Y-269787041D02*
X242004995Y-272754029D01*
X241047078Y-258904394D02*
X228251941Y-264073965D01*
X233421512Y-276869102D02*
X246216649Y-271699531D01*
X233421512Y-276869102D02*
X228251941Y-264073965D01*
X241047078Y-258904394D02*
X246216649Y-271699531D01*
X233688728Y-252170547D02*
X228867372Y-254118501D01*
X228867372Y-254118501D02*
X230066114Y-257085489D01*
X230066114Y-257085489D02*
X234887470Y-255137535D01*
X233688728Y-252170547D02*
X234887470Y-255137535D01*
X233929553Y-241287900D02*
X221134416Y-246457471D01*
X226303987Y-259252608D02*
X239099124Y-254083037D01*
X226303987Y-259252608D02*
X221134416Y-246457471D01*
X233929553Y-241287900D02*
X239099124Y-254083037D01*
X276413846Y-256479174D02*
X271592490Y-258427128D01*
X271592490Y-258427128D02*
X272791232Y-261394116D01*
X272791232Y-261394116D02*
X277612588Y-259446162D01*
X276413846Y-256479174D02*
X277612588Y-259446162D01*
X276654671Y-245596527D02*
X263859534Y-250766098D01*
X269029105Y-263561235D02*
X281824242Y-258391664D01*
X269029105Y-263561235D02*
X263859534Y-250766098D01*
X276654671Y-245596527D02*
X281824242Y-258391664D01*
X226571202Y-234554054D02*
X221749846Y-236502008D01*
X221749846Y-236502008D02*
X222948588Y-239468996D01*
X222948588Y-239468996D02*
X227769944Y-237521042D01*
X226571202Y-234554054D02*
X227769944Y-237521042D01*
X226812027Y-223671407D02*
X214016890Y-228840978D01*
X219186461Y-241636115D02*
X231981598Y-236466544D01*
X219186461Y-241636115D02*
X214016890Y-228840978D01*
X226812027Y-223671407D02*
X231981598Y-236466544D01*
X269296321Y-238862681D02*
X264474965Y-240810635D01*
X264474965Y-240810635D02*
X265673707Y-243777623D01*
X265673707Y-243777623D02*
X270495063Y-241829669D01*
X269296321Y-238862681D02*
X270495063Y-241829669D01*
X269537146Y-227980034D02*
X256742009Y-233149605D01*
X261911580Y-245944742D02*
X274706717Y-240775171D01*
X261911580Y-245944742D02*
X256742009Y-233149605D01*
X269537146Y-227980034D02*
X274706717Y-240775171D01*
X50022383Y-208713451D02*
X54843739Y-210661405D01*
X54843739Y-210661405D02*
X56042481Y-207694417D01*
X56042481Y-207694417D02*
X51221125Y-205746463D01*
X50022383Y-208713451D02*
X51221125Y-205746463D01*
X42289427Y-216374481D02*
X55084564Y-221544052D01*
X60254135Y-208748915D02*
X47458998Y-203579344D01*
X60254135Y-208748915D02*
X55084564Y-221544052D01*
X42289427Y-216374481D02*
X47458998Y-203579344D01*
X33904316Y-197887191D02*
X38725672Y-199835145D01*
X38725672Y-199835145D02*
X39924414Y-196868157D01*
X39924414Y-196868157D02*
X35103058Y-194920203D01*
X33904316Y-197887191D02*
X35103058Y-194920203D01*
X26171360Y-205548221D02*
X38966497Y-210717792D01*
X44136068Y-197922655D02*
X31340931Y-192753084D01*
X44136068Y-197922655D02*
X38966497Y-210717792D01*
X26171360Y-205548221D02*
X31340931Y-192753084D01*
X262178796Y-221246188D02*
X257357440Y-223194142D01*
X257357440Y-223194142D02*
X258556182Y-226161130D01*
X258556182Y-226161130D02*
X263377538Y-224213176D01*
X262178796Y-221246188D02*
X263377538Y-224213176D01*
X262419621Y-210363541D02*
X249624484Y-215533112D01*
X254794055Y-228328249D02*
X267589192Y-223158678D01*
X254794055Y-228328249D02*
X249624484Y-215533112D01*
X262419621Y-210363541D02*
X267589192Y-223158678D01*
X253178254Y-249688941D02*
X248356898Y-251636895D01*
X248356898Y-251636895D02*
X249555640Y-254603883D01*
X249555640Y-254603883D02*
X254376996Y-252655929D01*
X253178254Y-249688941D02*
X254376996Y-252655929D01*
X253419079Y-238806294D02*
X240623942Y-243975865D01*
X245793513Y-256771002D02*
X258588650Y-251601431D01*
X245793513Y-256771002D02*
X240623942Y-243975865D01*
X253419079Y-238806294D02*
X258588650Y-251601431D01*
X246060729Y-232072448D02*
X241239373Y-234020402D01*
X241239373Y-234020402D02*
X242438115Y-236987390D01*
X242438115Y-236987390D02*
X247259471Y-235039436D01*
X246060729Y-232072448D02*
X247259471Y-235039436D01*
X246301554Y-221189801D02*
X233506417Y-226359372D01*
X238675988Y-239154509D02*
X251471125Y-233984938D01*
X238675988Y-239154509D02*
X233506417Y-226359372D01*
X246301554Y-221189801D02*
X251471125Y-233984938D01*
X89001436Y-213676663D02*
X93822792Y-215624617D01*
X93822792Y-215624617D02*
X95021534Y-212657629D01*
X95021534Y-212657629D02*
X90200178Y-210709675D01*
X89001436Y-213676663D02*
X90200178Y-210709675D01*
X81268480Y-221337693D02*
X94063617Y-226507264D01*
X99233188Y-213712127D02*
X86438051Y-208542556D01*
X99233188Y-213712127D02*
X94063617Y-226507264D01*
X81268480Y-221337693D02*
X86438051Y-208542556D01*
X69511909Y-211195057D02*
X74333265Y-213143011D01*
X74333265Y-213143011D02*
X75532007Y-210176023D01*
X75532007Y-210176023D02*
X70710651Y-208228069D01*
X69511909Y-211195057D02*
X70710651Y-208228069D01*
X61778953Y-218856087D02*
X74574090Y-224025658D01*
X79743661Y-211230521D02*
X66948524Y-206060950D01*
X79743661Y-211230521D02*
X74574090Y-224025658D01*
X61778953Y-218856087D02*
X66948524Y-206060950D01*
X260295779Y-267305435D02*
X255474423Y-269253389D01*
X255474423Y-269253389D02*
X256673165Y-272220377D01*
X256673165Y-272220377D02*
X261494521Y-270272423D01*
X260295779Y-267305435D02*
X261494521Y-270272423D01*
X260536604Y-256422788D02*
X247741467Y-261592359D01*
X252911038Y-274387496D02*
X265706175Y-269217925D01*
X252911038Y-274387496D02*
X247741467Y-261592359D01*
X260536604Y-256422788D02*
X265706175Y-269217925D01*
X214199202Y-254652153D02*
X209377846Y-256600107D01*
X209377846Y-256600107D02*
X210576588Y-259567095D01*
X210576588Y-259567095D02*
X215397944Y-257619141D01*
X214199202Y-254652153D02*
X215397944Y-257619141D01*
X214440027Y-243769506D02*
X201644890Y-248939077D01*
X206814461Y-261734214D02*
X219609598Y-256564643D01*
X206814461Y-261734214D02*
X201644890Y-248939077D01*
X214440027Y-243769506D02*
X219609598Y-256564643D01*
X207081676Y-237035660D02*
X202260320Y-238983614D01*
X202260320Y-238983614D02*
X203459062Y-241950602D01*
X203459062Y-241950602D02*
X208280418Y-240002648D01*
X207081676Y-237035660D02*
X208280418Y-240002648D01*
X207322501Y-226153013D02*
X194527364Y-231322584D01*
X199696935Y-244117721D02*
X212492072Y-238948150D01*
X199696935Y-244117721D02*
X194527364Y-231322584D01*
X207322501Y-226153013D02*
X212492072Y-238948150D01*
X221316727Y-272268647D02*
X216495371Y-274216601D01*
X216495371Y-274216601D02*
X217694113Y-277183589D01*
X217694113Y-277183589D02*
X222515469Y-275235635D01*
X221316727Y-272268647D02*
X222515469Y-275235635D01*
X221557552Y-261386000D02*
X208762415Y-266555571D01*
X213931986Y-279350708D02*
X226727123Y-274181137D01*
X213931986Y-279350708D02*
X208762415Y-266555571D01*
X221557552Y-261386000D02*
X226727123Y-274181137D01*
X42904858Y-226329945D02*
X47726214Y-228277899D01*
X47726214Y-228277899D02*
X48924956Y-225310911D01*
X48924956Y-225310911D02*
X44103600Y-223362957D01*
X42904858Y-226329945D02*
X44103600Y-223362957D01*
X35171902Y-233990975D02*
X47967039Y-239160546D01*
X53136610Y-226365409D02*
X40341473Y-221195838D01*
X53136610Y-226365409D02*
X47967039Y-239160546D01*
X35171902Y-233990975D02*
X40341473Y-221195838D01*
X81883910Y-231293157D02*
X86705266Y-233241111D01*
X86705266Y-233241111D02*
X87904008Y-230274123D01*
X87904008Y-230274123D02*
X83082652Y-228326169D01*
X81883910Y-231293157D02*
X83082652Y-228326169D01*
X74150954Y-238954187D02*
X86946091Y-244123758D01*
X92115662Y-231328621D02*
X79320525Y-226159050D01*
X92115662Y-231328621D02*
X86946091Y-244123758D01*
X74150954Y-238954187D02*
X79320525Y-226159050D01*
X12551741Y-250736670D02*
X17373097Y-252684624D01*
X17373097Y-252684624D02*
X18571839Y-249717636D01*
X18571839Y-249717636D02*
X13750483Y-247769682D01*
X12551741Y-250736670D02*
X13750483Y-247769682D01*
X4818785Y-258397700D02*
X17613922Y-263567271D01*
X22783493Y-250772134D02*
X9988356Y-245602563D01*
X22783493Y-250772134D02*
X17613922Y-263567271D01*
X4818785Y-258397700D02*
X9988356Y-245602563D01*
X48159334Y-264044537D02*
X52980690Y-265992491D01*
X52980690Y-265992491D02*
X54179432Y-263025503D01*
X54179432Y-263025503D02*
X49358076Y-261077549D01*
X48159334Y-264044537D02*
X49358076Y-261077549D01*
X40426378Y-271705567D02*
X53221515Y-276875138D01*
X58391086Y-264080001D02*
X45595949Y-258910430D01*
X58391086Y-264080001D02*
X53221515Y-276875138D01*
X40426378Y-271705567D02*
X45595949Y-258910430D01*
X74766385Y-248909650D02*
X79587741Y-250857604D01*
X79587741Y-250857604D02*
X80786483Y-247890616D01*
X80786483Y-247890616D02*
X75965127Y-245942662D01*
X74766385Y-248909650D02*
X75965127Y-245942662D01*
X67033429Y-256570680D02*
X79828566Y-261740251D01*
X84998137Y-248945114D02*
X72203000Y-243775543D01*
X84998137Y-248945114D02*
X79828566Y-261740251D01*
X67033429Y-256570680D02*
X72203000Y-243775543D01*
X28669807Y-261562931D02*
X33491163Y-263510885D01*
X33491163Y-263510885D02*
X34689905Y-260543897D01*
X34689905Y-260543897D02*
X29868549Y-258595943D01*
X28669807Y-261562931D02*
X29868549Y-258595943D01*
X20936851Y-269223961D02*
X33731988Y-274393532D01*
X38901559Y-261598395D02*
X26106422Y-256428824D01*
X38901559Y-261598395D02*
X33731988Y-274393532D01*
X20936851Y-269223961D02*
X26106422Y-256428824D01*
X35787333Y-243946438D02*
X40608689Y-245894392D01*
X40608689Y-245894392D02*
X41807431Y-242927404D01*
X41807431Y-242927404D02*
X36986075Y-240979450D01*
X35787333Y-243946438D02*
X36986075Y-240979450D01*
X28054377Y-251607468D02*
X40849514Y-256777039D01*
X46019085Y-243981902D02*
X33223948Y-238812331D01*
X46019085Y-243981902D02*
X40849514Y-256777039D01*
X28054377Y-251607468D02*
X33223948Y-238812331D01*
X67648860Y-266526143D02*
X72470216Y-268474097D01*
X72470216Y-268474097D02*
X73668958Y-265507109D01*
X73668958Y-265507109D02*
X68847602Y-263559155D01*
X67648860Y-266526143D02*
X68847602Y-263559155D01*
X59915904Y-274187173D02*
X72711041Y-279356744D01*
X77880612Y-266561607D02*
X65085475Y-261392036D01*
X77880612Y-266561607D02*
X72711041Y-279356744D01*
X59915904Y-274187173D02*
X65085475Y-261392036D01*
X62394384Y-228811551D02*
X67215740Y-230759505D01*
X67215740Y-230759505D02*
X68414482Y-227792517D01*
X68414482Y-227792517D02*
X63593126Y-225844563D01*
X62394384Y-228811551D02*
X63593126Y-225844563D01*
X54661428Y-236472581D02*
X67456565Y-241642152D01*
X72626136Y-228847015D02*
X59830999Y-223677444D01*
X72626136Y-228847015D02*
X67456565Y-241642152D01*
X54661428Y-236472581D02*
X59830999Y-223677444D01*
X19669266Y-233120177D02*
X24490622Y-235068131D01*
X24490622Y-235068131D02*
X25689364Y-232101143D01*
X25689364Y-232101143D02*
X20868008Y-230153189D01*
X19669266Y-233120177D02*
X20868008Y-230153189D01*
X11936310Y-240781207D02*
X24731447Y-245950778D01*
X29901018Y-233155641D02*
X17105881Y-227986070D01*
X29901018Y-233155641D02*
X24731447Y-245950778D01*
X11936310Y-240781207D02*
X17105881Y-227986070D01*
X55276859Y-246428044D02*
X60098215Y-248375998D01*
X60098215Y-248375998D02*
X61296957Y-245409010D01*
X61296957Y-245409010D02*
X56475601Y-243461056D01*
X55276859Y-246428044D02*
X56475601Y-243461056D01*
X47543903Y-254089074D02*
X60339040Y-259258645D01*
X65508611Y-246463508D02*
X52713474Y-241293937D01*
X65508611Y-246463508D02*
X60339040Y-259258645D01*
X47543903Y-254089074D02*
X52713474Y-241293937D01*
X26786791Y-215503684D02*
X31608147Y-217451638D01*
X31608147Y-217451638D02*
X32806889Y-214484650D01*
X32806889Y-214484650D02*
X27985533Y-212536696D01*
X26786791Y-215503684D02*
X27985533Y-212536696D01*
X19053835Y-223164714D02*
X31848972Y-228334285D01*
X37018543Y-215539148D02*
X24223406Y-210369577D01*
X37018543Y-215539148D02*
X31848972Y-228334285D01*
X19053835Y-223164714D02*
X24223406Y-210369577D01*
M02*
