%FSLAX45Y45*%
G04 Gerber Fmt 4.5, Leading zero omitted, Abs format (unit mm)*
G04 Created by KiCad (PCBNEW (5.1.4)-1) date 2025-05-28 14:17:58*
%MOMM*%
%LPD*%
G04 APERTURE LIST*
%ADD10C,0.050000*%
%ADD11C,0.200000*%
%ADD12C,0.300000*%
G04 APERTURE END LIST*
D10*
X25356660Y-23640920D02*
G75*
G03X25356660Y-23640920I-160000J0D01*
G01*
X3629780Y-23638380D02*
G75*
G03X3629780Y-23638380I-160000J0D01*
G01*
X7702020Y-22880320D02*
G75*
G03X7702020Y-22880320I-160000J0D01*
G01*
X21281880Y-22880320D02*
G75*
G03X21281880Y-22880320I-160000J0D01*
G01*
X22774280Y-26203300D02*
G75*
G03X22774280Y-26203300I-160000J0D01*
G01*
X6207080Y-26205840D02*
G75*
G03X6207080Y-26205840I-160000J0D01*
G01*
X9648730Y-23313641D02*
X10946788Y-23838090D01*
X16188730Y-24566359D02*
X17486788Y-24041910D01*
X19009327Y-23319192D02*
X17711270Y-23843641D01*
X12990673Y-24659192D02*
X14288730Y-25183641D01*
X14251270Y-25276359D02*
G75*
G03X14288730Y-25183641I18730J46359D01*
G01*
X12990673Y-24659192D02*
G75*
G03X12953212Y-24751910I-18730J-46359D01*
G01*
X10909327Y-23930808D02*
X9611270Y-23406359D01*
X12569327Y-24600808D02*
X11271270Y-24076359D01*
X11308730Y-23983641D02*
X12606788Y-24508090D01*
X10909327Y-23930808D02*
G75*
G03X10946788Y-23838090I18730J46359D01*
G01*
X16188730Y-24566359D02*
G75*
G02X16151270Y-24473641I-18730J46359D01*
G01*
X17449327Y-23949192D02*
G75*
G02X17486788Y-24041910I18730J-46359D01*
G01*
X17748730Y-23936359D02*
G75*
G02X17711270Y-23843641I-18730J46359D01*
G01*
X12569327Y-24600808D02*
G75*
G03X12606788Y-24508090I18730J46359D01*
G01*
X17748730Y-23936359D02*
X19046788Y-23411910D01*
X19009327Y-23319192D02*
G75*
G02X19046788Y-23411910I18730J-46359D01*
G01*
X14251270Y-25276359D02*
X12953212Y-24751910D01*
X9648730Y-23313641D02*
G75*
G03X9611270Y-23406359I-18730J-46359D01*
G01*
X17449327Y-23949192D02*
X16151270Y-24473641D01*
X11308730Y-23983641D02*
G75*
G03X11271270Y-24076359I-18730J-46359D01*
G01*
X24729192Y-21650673D02*
X25253641Y-22948730D01*
X24729192Y-21650673D02*
G75*
G02X24821910Y-21613212I46359J18730D01*
G01*
X15699327Y-24659192D02*
G75*
G02X15736788Y-24751910I18730J-46359D01*
G01*
X25429192Y-23390673D02*
X25953641Y-24688730D01*
X26046359Y-24651270D02*
G75*
G02X25953641Y-24688730I-46359J-18730D01*
G01*
X26129192Y-25130673D02*
X26653641Y-26428730D01*
X14438730Y-25276359D02*
G75*
G02X14401270Y-25183641I-18730J46359D01*
G01*
X14438730Y-25276359D02*
X15736788Y-24751910D01*
X26746359Y-26391270D02*
X26221910Y-25093212D01*
X25848453Y-20639034D02*
G75*
G02X25885914Y-20731753I18730J-46359D01*
G01*
X26746359Y-26391270D02*
G75*
G02X26653641Y-26428730I-46359J-18730D01*
G01*
X25429192Y-23390673D02*
G75*
G02X25521910Y-23353212I46359J18730D01*
G01*
X25346359Y-22911270D02*
X24821910Y-21613212D01*
X25848453Y-20639034D02*
X24921270Y-21013641D01*
X26046359Y-24651270D02*
X25521910Y-23353212D01*
X25346359Y-22911270D02*
G75*
G02X25253641Y-22948730I-46359J-18730D01*
G01*
X24093641Y-20068730D02*
G75*
G02X24186359Y-20031270I46359J18730D01*
G01*
X24958730Y-21106359D02*
X25885914Y-20731753D01*
X24093641Y-20068730D02*
X24468247Y-20995914D01*
X24560966Y-20958453D02*
G75*
G02X24468247Y-20995914I-46359J-18730D01*
G01*
X15699327Y-24659192D02*
X14401270Y-25183641D01*
X24958730Y-21106359D02*
G75*
G02X24921270Y-21013641I-18730J46359D01*
G01*
X26129192Y-25130673D02*
G75*
G02X26221910Y-25093212I46359J18730D01*
G01*
X24560966Y-20958454D02*
X24186359Y-20031270D01*
X1909192Y-26399327D02*
G75*
G03X2001910Y-26436788I46359J-18730D01*
G01*
X8118730Y-22123641D02*
G75*
G03X8081270Y-22216359I-18730J-46359D01*
G01*
X2821547Y-20639034D02*
G75*
G03X2784086Y-20731753I-18730J-46359D01*
G01*
X3920808Y-21690673D02*
X3396359Y-22988730D01*
X3711270Y-21106359D02*
G75*
G03X3748730Y-21013641I18730J46359D01*
G01*
X4500966Y-20251547D02*
G75*
G03X4408247Y-20214086I-46359J18730D01*
G01*
X2526359Y-25138730D02*
X2001910Y-26436788D01*
X2821546Y-20639034D02*
X3748730Y-21013641D01*
X3920808Y-21690673D02*
G75*
G03X3828090Y-21653212I-46359J18730D01*
G01*
X9379327Y-22740808D02*
X8081270Y-22216359D01*
X4033641Y-21141270D02*
G75*
G03X4126359Y-21178730I46359J-18730D01*
G01*
X3303641Y-22951270D02*
X3828090Y-21653212D01*
X3711270Y-21106359D02*
X2784086Y-20731753D01*
X4500966Y-20251547D02*
X4126359Y-21178730D01*
X3210808Y-23450673D02*
X2686359Y-24748730D01*
X3303641Y-22951270D02*
G75*
G03X3396359Y-22988730I46359J-18730D01*
G01*
X4033641Y-21141270D02*
X4408247Y-20214086D01*
X2593641Y-24711270D02*
G75*
G03X2686359Y-24748730I46359J-18730D01*
G01*
X2593641Y-24711270D02*
X3118090Y-23413212D01*
X3210808Y-23450673D02*
G75*
G03X3118090Y-23413212I-46359J18730D01*
G01*
X1909192Y-26399327D02*
X2433641Y-25101270D01*
X2526359Y-25138730D02*
G75*
G03X2433641Y-25101270I-46359J18730D01*
G01*
X7429327Y-22500808D02*
G75*
G03X7466788Y-22408090I18730J46359D01*
G01*
X4218730Y-21633641D02*
G75*
G03X4181270Y-21726359I-18730J-46359D01*
G01*
X4218730Y-21633641D02*
X5516788Y-22158090D01*
X23178730Y-22256359D02*
X24476788Y-21731910D01*
X7429327Y-22500808D02*
X6131270Y-21976359D01*
X22499327Y-21879192D02*
G75*
G02X22536788Y-21971910I18730J-46359D01*
G01*
X19288730Y-22746359D02*
G75*
G02X19251270Y-22653641I-18730J46359D01*
G01*
X19288730Y-22746359D02*
X20586788Y-22221910D01*
X6168730Y-21883641D02*
X7466788Y-22408090D01*
X5479327Y-22250808D02*
G75*
G03X5516788Y-22158090I18730J46359D01*
G01*
X6168730Y-21883641D02*
G75*
G03X6131270Y-21976359I-18730J-46359D01*
G01*
X22499327Y-21879192D02*
X21201270Y-22403641D01*
X21238730Y-22496359D02*
G75*
G02X21201270Y-22403641I-18730J46359D01*
G01*
X24439327Y-21639192D02*
X23141270Y-22163641D01*
X23178730Y-22256359D02*
G75*
G02X23141270Y-22163641I-18730J46359D01*
G01*
X24439327Y-21639192D02*
G75*
G02X24476788Y-21731910I18730J-46359D01*
G01*
X8118730Y-22123641D02*
X9416788Y-22648090D01*
X20549327Y-22129192D02*
G75*
G02X20586788Y-22221910I18730J-46359D01*
G01*
X21238730Y-22496359D02*
X22536788Y-21971910D01*
X20549327Y-22129192D02*
X19251270Y-22653641D01*
X5479327Y-22250808D02*
X4181270Y-21726359D01*
X9379327Y-22740808D02*
G75*
G03X9416788Y-22648090I18730J46359D01*
G01*
X21209900Y-28990900D02*
G75*
G03X21209900Y-28990900I-150000J0D01*
G01*
X7754000Y-29008680D02*
G75*
G03X7754000Y-29008680I-150000J0D01*
G01*
X18398309Y-21217855D02*
X20159958Y-20506102D01*
X25465689Y-19009568D02*
X22239090Y-20313199D01*
X20159958Y-20506102D02*
X20810853Y-20782391D01*
X15503000Y-22787000D02*
X14503663Y-23190451D01*
X25465689Y-19009568D02*
X25752083Y-19131135D01*
X26837444Y-26889485D02*
X26737980Y-27123807D01*
X26959011Y-26603091D02*
X26837444Y-26889485D01*
X18193855Y-21699517D02*
X15503000Y-22787000D01*
X28312700Y-26056165D02*
X26959011Y-26603091D01*
X22108911Y-20257941D02*
X22239090Y-20313199D01*
X1706316Y-26603091D02*
X1827883Y-26889485D01*
X352627Y-26056165D02*
X1706316Y-26603091D01*
X10267018Y-21217855D02*
X10471472Y-21699517D01*
X2782995Y-28850036D02*
X2849304Y-29006251D01*
X2919433Y-27524636D02*
X3123887Y-28006299D01*
X10267018Y-21217855D02*
X8505369Y-20506102D01*
X2849304Y-29006251D02*
X6604399Y-30523408D01*
X28434267Y-25769771D02*
X25752083Y-19131135D01*
X18398309Y-21217855D02*
X18193855Y-21699517D01*
X10471472Y-21699517D02*
X13162327Y-22787000D01*
X3199637Y-19009568D02*
X6426237Y-20313199D01*
X3123887Y-28006299D02*
X2782995Y-28850036D01*
X231060Y-25769771D02*
X352627Y-26056165D01*
X14503663Y-23190451D02*
X14161663Y-23190451D01*
X6556416Y-20257941D02*
X6426237Y-20313199D01*
X20810853Y-20782391D02*
X22108911Y-20257941D01*
X1827883Y-26889485D02*
X1927346Y-27123807D01*
X8505369Y-20506102D02*
X7854473Y-20782391D01*
X231060Y-25769771D02*
X2913243Y-19131135D01*
X28434267Y-25769771D02*
X28312700Y-26056165D01*
X3199637Y-19009568D02*
X2913243Y-19131135D01*
X1927346Y-27123807D02*
X2919433Y-27524636D01*
X13162327Y-22787000D02*
X14161663Y-23190451D01*
X25541440Y-28006299D02*
X25882332Y-28850036D01*
X7854473Y-20782391D02*
X6556416Y-20257941D01*
X25882332Y-28850036D02*
X25816023Y-29006251D01*
X26737980Y-27123807D02*
X25745894Y-27524636D01*
X22060928Y-30523408D02*
X17636182Y-33853426D01*
X11029145Y-33853426D02*
X17636182Y-33853426D01*
X25745894Y-27524636D02*
X25541440Y-28006299D01*
X6604399Y-30523408D02*
X11029145Y-33853426D01*
X25816023Y-29006251D02*
X22060928Y-30523408D01*
D11*
X2029780Y-22535200D02*
X2069780Y-22575200D01*
X2069780Y-22535200D02*
X2029780Y-22575200D01*
X2255840Y-24846600D02*
X2295840Y-24886600D01*
X2295840Y-24846600D02*
X2255840Y-24886600D01*
X2309180Y-24724680D02*
X2349180Y-24764680D01*
X2349180Y-24724680D02*
X2309180Y-24764680D01*
X2908013Y-23018407D02*
X2948013Y-23058407D01*
X2948013Y-23018407D02*
X2908013Y-23058407D01*
X3883980Y-20968020D02*
X3923980Y-21008020D01*
X3923980Y-20968020D02*
X3883980Y-21008020D01*
X3978567Y-27203113D02*
X4018567Y-27243113D01*
X4018567Y-27203113D02*
X3978567Y-27243113D01*
X4021140Y-23010180D02*
X4061140Y-23050180D01*
X4061140Y-23010180D02*
X4021140Y-23050180D01*
X4437700Y-24976140D02*
X4477700Y-25016140D01*
X4477700Y-24976140D02*
X4437700Y-25016140D01*
X4963480Y-23752523D02*
X5003480Y-23792523D01*
X5003480Y-23752523D02*
X4963480Y-23792523D01*
X5438460Y-27445020D02*
X5478460Y-27485020D01*
X5478460Y-27445020D02*
X5438460Y-27485020D01*
X5837240Y-21481100D02*
X5877240Y-21521100D01*
X5877240Y-21481100D02*
X5837240Y-21521100D01*
X5872800Y-23251480D02*
X5912800Y-23291480D01*
X5912800Y-23251480D02*
X5872800Y-23291480D01*
X6332540Y-25268240D02*
X6372540Y-25308240D01*
X6372540Y-25268240D02*
X6332540Y-25308240D01*
X6607523Y-24238877D02*
X6647523Y-24278877D01*
X6647523Y-24238877D02*
X6607523Y-24278877D01*
X7399340Y-27762520D02*
X7439340Y-27802520D01*
X7439340Y-27762520D02*
X7399340Y-27802520D01*
X7795580Y-21712240D02*
X7835580Y-21752240D01*
X7835580Y-21712240D02*
X7795580Y-21752240D01*
X7838760Y-23500400D02*
X7878760Y-23540400D01*
X7878760Y-23500400D02*
X7838760Y-23540400D01*
X8074980Y-26012460D02*
X8114980Y-26052460D01*
X8114980Y-26012460D02*
X8074980Y-26052460D01*
X8692200Y-24503700D02*
X8732200Y-24543700D01*
X8732200Y-24503700D02*
X8692200Y-24543700D01*
X20988340Y-22359940D02*
X21028340Y-22399940D01*
X21028340Y-22359940D02*
X20988340Y-22399940D01*
X21422852Y-23672751D02*
X21462852Y-23712751D01*
X21462852Y-23672751D02*
X21422852Y-23712751D01*
X22239617Y-25342843D02*
X22279617Y-25382843D01*
X22279617Y-25342843D02*
X22239617Y-25382843D01*
X22743146Y-21638246D02*
X22783146Y-21678246D01*
X22783146Y-21638246D02*
X22743146Y-21678246D01*
X22951370Y-27144910D02*
X22991370Y-27184910D01*
X22991370Y-27144910D02*
X22951370Y-27184910D01*
X23223540Y-28186686D02*
X23263540Y-28226686D01*
X23263540Y-28186686D02*
X23223540Y-28226686D01*
X23535960Y-28143520D02*
X23575960Y-28183520D01*
X23575960Y-28143520D02*
X23535960Y-28183520D01*
X23551200Y-23340380D02*
X23591200Y-23380380D01*
X23591200Y-23340380D02*
X23551200Y-23380380D01*
X23866160Y-28125740D02*
X23906160Y-28165740D01*
X23906160Y-28125740D02*
X23866160Y-28165740D01*
X24188570Y-25133790D02*
X24228570Y-25173790D01*
X24228570Y-25133790D02*
X24188570Y-25173790D01*
X24750080Y-20914680D02*
X24790080Y-20954680D01*
X24790080Y-20914680D02*
X24750080Y-20954680D01*
X24900322Y-26862978D02*
X24940322Y-26902978D01*
X24940322Y-26862978D02*
X24900322Y-26902978D01*
X25514620Y-22773960D02*
X25554620Y-22813960D01*
X25554620Y-22773960D02*
X25514620Y-22813960D01*
X25860060Y-25382540D02*
X25900060Y-25422540D01*
X25900060Y-25382540D02*
X25860060Y-25422540D01*
X26258840Y-24582440D02*
X26298840Y-24622440D01*
X26298840Y-24582440D02*
X26258840Y-24622440D01*
X26373140Y-24747540D02*
X26413140Y-24787540D01*
X26413140Y-24747540D02*
X26373140Y-24787540D01*
X13923000Y-28867000D02*
G75*
G03X13923000Y-28867000I-30000J0D01*
G01*
X14054802Y-28548802D02*
G75*
G03X14054802Y-28548802I-30000J0D01*
G01*
X14054802Y-29185198D02*
G75*
G03X14054802Y-29185198I-30000J0D01*
G01*
X14373000Y-28417000D02*
G75*
G03X14373000Y-28417000I-30000J0D01*
G01*
X14373000Y-29317000D02*
G75*
G03X14373000Y-29317000I-30000J0D01*
G01*
X14691198Y-28548802D02*
G75*
G03X14691198Y-28548802I-30000J0D01*
G01*
X14691198Y-29185198D02*
G75*
G03X14691198Y-29185198I-30000J0D01*
G01*
X14823000Y-28867000D02*
G75*
G03X14823000Y-28867000I-30000J0D01*
G01*
X13703000Y-30357000D02*
X13703000Y-30437000D01*
X13663000Y-30397000D02*
X13743000Y-30397000D01*
X13887523Y-29911523D02*
X13887523Y-29991523D01*
X13847523Y-29951523D02*
X13927523Y-29951523D01*
X13887523Y-30802477D02*
X13887523Y-30882477D01*
X13847523Y-30842477D02*
X13927523Y-30842477D01*
X14333000Y-29727000D02*
X14333000Y-29807000D01*
X14293000Y-29767000D02*
X14373000Y-29767000D01*
X14333000Y-30987000D02*
X14333000Y-31067000D01*
X14293000Y-31027000D02*
X14373000Y-31027000D01*
X14778477Y-29911523D02*
X14778477Y-29991523D01*
X14738477Y-29951523D02*
X14818477Y-29951523D01*
X14778477Y-30802477D02*
X14778477Y-30882477D01*
X14738477Y-30842477D02*
X14818477Y-30842477D01*
X14963000Y-30357000D02*
X14963000Y-30437000D01*
X14923000Y-30397000D02*
X15003000Y-30397000D01*
X8302541Y-27142277D02*
X8302541Y-27071565D01*
X8231829Y-27071565D01*
X8231829Y-27142277D01*
X8302541Y-27142277D01*
X8538046Y-27237427D02*
X8538046Y-27166715D01*
X8467334Y-27166715D01*
X8467334Y-27237427D01*
X8538046Y-27237427D01*
X8773550Y-27332577D02*
X8773550Y-27261865D01*
X8702839Y-27261865D01*
X8702839Y-27332577D01*
X8773550Y-27332577D01*
X9009055Y-27427727D02*
X9009055Y-27357015D01*
X8938344Y-27357015D01*
X8938344Y-27427727D01*
X9009055Y-27427727D01*
X17699572Y-33665948D02*
X17699572Y-33595237D01*
X17628860Y-33595237D01*
X17628860Y-33665948D01*
X17699572Y-33665948D01*
X17902425Y-33513087D02*
X17902425Y-33442376D01*
X17831714Y-33442376D01*
X17831714Y-33513087D01*
X17902425Y-33513087D01*
X18105278Y-33360226D02*
X18105278Y-33289515D01*
X18034567Y-33289515D01*
X18034567Y-33360226D01*
X18105278Y-33360226D01*
X18308132Y-33207365D02*
X18308132Y-33136654D01*
X18237420Y-33136654D01*
X18237420Y-33207365D01*
X18308132Y-33207365D01*
X17408249Y-22217558D02*
X17408249Y-22146846D01*
X17337537Y-22146846D01*
X17337537Y-22217558D01*
X17408249Y-22217558D01*
X17643753Y-22122408D02*
X17643753Y-22051696D01*
X17573042Y-22051696D01*
X17573042Y-22122408D01*
X17643753Y-22122408D01*
X17879258Y-22027258D02*
X17879258Y-21956546D01*
X17808547Y-21956546D01*
X17808547Y-22027258D01*
X17879258Y-22027258D01*
X18114763Y-21932108D02*
X18114763Y-21861396D01*
X18044051Y-21861396D01*
X18044051Y-21932108D01*
X18114763Y-21932108D01*
X9726046Y-23618978D02*
X9726046Y-23548267D01*
X9655335Y-23548267D01*
X9655335Y-23618978D01*
X9726046Y-23618978D01*
X9961551Y-23714128D02*
X9961551Y-23643417D01*
X9890839Y-23643417D01*
X9890839Y-23714128D01*
X9961551Y-23714128D01*
X10197055Y-23809278D02*
X10197055Y-23738567D01*
X10126344Y-23738567D01*
X10126344Y-23809278D01*
X10197055Y-23809278D01*
X10432560Y-23904428D02*
X10432560Y-23833717D01*
X10361849Y-23833717D01*
X10361849Y-23904428D01*
X10432560Y-23904428D01*
X2978172Y-28844162D02*
X2978172Y-28773451D01*
X2907461Y-28773451D01*
X2907461Y-28844162D01*
X2978172Y-28844162D01*
X3073322Y-28608658D02*
X3073322Y-28537946D01*
X3002611Y-28537946D01*
X3002611Y-28608658D01*
X3073322Y-28608658D01*
X3168472Y-28373153D02*
X3168472Y-28302442D01*
X3097761Y-28302442D01*
X3097761Y-28373153D01*
X3168472Y-28373153D01*
X3263622Y-28137648D02*
X3263622Y-28066937D01*
X3192911Y-28066937D01*
X3192911Y-28137648D01*
X3263622Y-28137648D01*
X19728943Y-27427584D02*
X19728943Y-27356873D01*
X19658232Y-27356873D01*
X19658232Y-27427584D01*
X19728943Y-27427584D01*
X19964448Y-27332434D02*
X19964448Y-27261723D01*
X19893736Y-27261723D01*
X19893736Y-27332434D01*
X19964448Y-27332434D01*
X20199952Y-27237284D02*
X20199952Y-27166573D01*
X20129241Y-27166573D01*
X20129241Y-27237284D01*
X20199952Y-27237284D01*
X20435457Y-27142134D02*
X20435457Y-27071423D01*
X20364746Y-27071423D01*
X20364746Y-27142134D01*
X20435457Y-27142134D01*
X10623235Y-21932250D02*
X10623235Y-21861539D01*
X10552524Y-21861539D01*
X10552524Y-21932250D01*
X10623235Y-21932250D01*
X10858740Y-22027400D02*
X10858740Y-21956689D01*
X10788029Y-21956689D01*
X10788029Y-22027400D01*
X10858740Y-22027400D01*
X11094245Y-22122550D02*
X11094245Y-22051839D01*
X11023533Y-22051839D01*
X11023533Y-22122550D01*
X11094245Y-22122550D01*
X11329749Y-22217700D02*
X11329749Y-22146989D01*
X11259038Y-22146989D01*
X11259038Y-22217700D01*
X11329749Y-22217700D01*
X18305438Y-23904286D02*
X18305438Y-23833574D01*
X18234727Y-23833574D01*
X18234727Y-23904286D01*
X18305438Y-23904286D01*
X18540943Y-23809136D02*
X18540943Y-23738424D01*
X18470231Y-23738424D01*
X18470231Y-23809136D01*
X18540943Y-23809136D01*
X18776447Y-23713986D02*
X18776447Y-23643274D01*
X18705736Y-23643274D01*
X18705736Y-23713986D01*
X18776447Y-23713986D01*
X19011952Y-23618836D02*
X19011952Y-23548124D01*
X18941241Y-23548124D01*
X18941241Y-23618836D01*
X19011952Y-23618836D01*
X9014293Y-25380627D02*
X9014293Y-25309916D01*
X8943582Y-25309916D01*
X8943582Y-25380627D01*
X9014293Y-25380627D01*
X9249798Y-25475777D02*
X9249798Y-25405066D01*
X9179087Y-25405066D01*
X9179087Y-25475777D01*
X9249798Y-25475777D01*
X9485303Y-25570927D02*
X9485303Y-25500216D01*
X9414591Y-25500216D01*
X9414591Y-25570927D01*
X9485303Y-25570927D01*
X9720808Y-25666078D02*
X9720808Y-25595366D01*
X9650096Y-25595366D01*
X9650096Y-25666078D01*
X9720808Y-25666078D01*
X10408356Y-33202356D02*
X10408356Y-33131644D01*
X10337644Y-33131644D01*
X10337644Y-33202356D01*
X10408356Y-33202356D01*
X10611209Y-33355217D02*
X10611209Y-33284505D01*
X10540498Y-33284505D01*
X10540498Y-33355217D01*
X10611209Y-33355217D01*
X10814063Y-33508078D02*
X10814063Y-33437366D01*
X10743351Y-33437366D01*
X10743351Y-33508078D01*
X10814063Y-33508078D01*
X11016916Y-33660939D02*
X11016916Y-33590227D01*
X10946205Y-33590227D01*
X10946205Y-33660939D01*
X11016916Y-33660939D01*
X25466751Y-28116314D02*
X25466751Y-28045603D01*
X25396039Y-28045603D01*
X25396039Y-28116314D01*
X25466751Y-28116314D01*
X25561901Y-28351819D02*
X25561901Y-28281108D01*
X25491189Y-28281108D01*
X25491189Y-28351819D01*
X25561901Y-28351819D01*
X25657051Y-28587324D02*
X25657051Y-28516612D01*
X25586339Y-28516612D01*
X25586339Y-28587324D01*
X25657051Y-28587324D01*
X25752201Y-28822828D02*
X25752201Y-28752117D01*
X25681490Y-28752117D01*
X25681490Y-28822828D01*
X25752201Y-28822828D01*
X19017190Y-25665935D02*
X19017190Y-25595224D01*
X18946479Y-25595224D01*
X18946479Y-25665935D01*
X19017190Y-25665935D01*
X19252695Y-25570785D02*
X19252695Y-25500074D01*
X19181984Y-25500074D01*
X19181984Y-25570785D01*
X19252695Y-25570785D01*
X19488200Y-25475635D02*
X19488200Y-25404924D01*
X19417488Y-25404924D01*
X19417488Y-25475635D01*
X19488200Y-25475635D01*
X19723705Y-25380485D02*
X19723705Y-25309773D01*
X19652993Y-25309773D01*
X19652993Y-25380485D01*
X19723705Y-25380485D01*
X14343000Y-29167000D02*
X14643000Y-28867000D01*
X14343000Y-28567000D01*
X14043000Y-28867000D01*
X14343000Y-29167000D01*
X13913000Y-29977000D02*
X14753000Y-30817000D01*
X14753000Y-29977000D02*
X13913000Y-30817000D01*
X14753000Y-30397000D02*
G75*
G03X14753000Y-30397000I-420000J0D01*
G01*
D12*
X514989Y-34321640D02*
X514989Y-34021640D01*
X586417Y-34021640D01*
X629274Y-34035926D01*
X657846Y-34064497D01*
X672132Y-34093069D01*
X686417Y-34150212D01*
X686417Y-34193069D01*
X672132Y-34250212D01*
X657846Y-34278783D01*
X629274Y-34307354D01*
X586417Y-34321640D01*
X514989Y-34321640D01*
X814989Y-34321640D02*
X814989Y-34121640D01*
X814989Y-34178783D02*
X829274Y-34150212D01*
X843560Y-34135926D01*
X872131Y-34121640D01*
X900703Y-34121640D01*
X1000703Y-34321640D02*
X1000703Y-34121640D01*
X1000703Y-34021640D02*
X986417Y-34035926D01*
X1000703Y-34050212D01*
X1014989Y-34035926D01*
X1000703Y-34021640D01*
X1000703Y-34050212D01*
X1186417Y-34321640D02*
X1157846Y-34307354D01*
X1143560Y-34278783D01*
X1143560Y-34021640D01*
X1343560Y-34321640D02*
X1314989Y-34307354D01*
X1300703Y-34278783D01*
X1300703Y-34021640D01*
X1686417Y-34321640D02*
X1686417Y-34021640D01*
X1786417Y-34235926D01*
X1886417Y-34021640D01*
X1886417Y-34321640D01*
X2157846Y-34321640D02*
X2157846Y-34164497D01*
X2143560Y-34135926D01*
X2114989Y-34121640D01*
X2057846Y-34121640D01*
X2029274Y-34135926D01*
X2157846Y-34307354D02*
X2129274Y-34321640D01*
X2057846Y-34321640D01*
X2029274Y-34307354D01*
X2014989Y-34278783D01*
X2014989Y-34250212D01*
X2029274Y-34221640D01*
X2057846Y-34207354D01*
X2129274Y-34207354D01*
X2157846Y-34193069D01*
X2300703Y-34121640D02*
X2300703Y-34421640D01*
X2300703Y-34135926D02*
X2329274Y-34121640D01*
X2386417Y-34121640D01*
X2414989Y-34135926D01*
X2429274Y-34150212D01*
X2443560Y-34178783D01*
X2443560Y-34264497D01*
X2429274Y-34293069D01*
X2414989Y-34307354D01*
X2386417Y-34321640D01*
X2329274Y-34321640D01*
X2300703Y-34307354D01*
X2572132Y-34293069D02*
X2586417Y-34307354D01*
X2572132Y-34321640D01*
X2557846Y-34307354D01*
X2572132Y-34293069D01*
X2572132Y-34321640D01*
X2572132Y-34135926D02*
X2586417Y-34150212D01*
X2572132Y-34164497D01*
X2557846Y-34150212D01*
X2572132Y-34135926D01*
X2572132Y-34164497D01*
X188560Y-34795926D02*
X228560Y-34835926D01*
X228560Y-34795926D02*
X188560Y-34835926D01*
X572132Y-34651640D02*
X600703Y-34651640D01*
X629274Y-34665926D01*
X643560Y-34680212D01*
X657846Y-34708783D01*
X672132Y-34765926D01*
X672132Y-34837354D01*
X657846Y-34894497D01*
X643560Y-34923069D01*
X629274Y-34937354D01*
X600703Y-34951640D01*
X572132Y-34951640D01*
X543560Y-34937354D01*
X529274Y-34923069D01*
X514989Y-34894497D01*
X500703Y-34837354D01*
X500703Y-34765926D01*
X514989Y-34708783D01*
X529274Y-34680212D01*
X543560Y-34665926D01*
X572132Y-34651640D01*
X800703Y-34923069D02*
X814989Y-34937354D01*
X800703Y-34951640D01*
X786417Y-34937354D01*
X800703Y-34923069D01*
X800703Y-34951640D01*
X1072132Y-34751640D02*
X1072132Y-34951640D01*
X1000703Y-34637354D02*
X929274Y-34851640D01*
X1114989Y-34851640D01*
X1286417Y-34651640D02*
X1314989Y-34651640D01*
X1343560Y-34665926D01*
X1357846Y-34680212D01*
X1372132Y-34708783D01*
X1386417Y-34765926D01*
X1386417Y-34837354D01*
X1372132Y-34894497D01*
X1357846Y-34923069D01*
X1343560Y-34937354D01*
X1314989Y-34951640D01*
X1286417Y-34951640D01*
X1257846Y-34937354D01*
X1243560Y-34923069D01*
X1229274Y-34894497D01*
X1214989Y-34837354D01*
X1214989Y-34765926D01*
X1229274Y-34708783D01*
X1243560Y-34680212D01*
X1257846Y-34665926D01*
X1286417Y-34651640D01*
X1514989Y-34951640D02*
X1514989Y-34751640D01*
X1514989Y-34780212D02*
X1529274Y-34765926D01*
X1557846Y-34751640D01*
X1600703Y-34751640D01*
X1629274Y-34765926D01*
X1643560Y-34794497D01*
X1643560Y-34951640D01*
X1643560Y-34794497D02*
X1657846Y-34765926D01*
X1686417Y-34751640D01*
X1729274Y-34751640D01*
X1757846Y-34765926D01*
X1772131Y-34794497D01*
X1772131Y-34951640D01*
X1914989Y-34951640D02*
X1914989Y-34751640D01*
X1914989Y-34780212D02*
X1929274Y-34765926D01*
X1957846Y-34751640D01*
X2000703Y-34751640D01*
X2029274Y-34765926D01*
X2043560Y-34794497D01*
X2043560Y-34951640D01*
X2043560Y-34794497D02*
X2057846Y-34765926D01*
X2086417Y-34751640D01*
X2129274Y-34751640D01*
X2157846Y-34765926D01*
X2172132Y-34794497D01*
X2172132Y-34951640D01*
X2757846Y-34637354D02*
X2500703Y-35023069D01*
X3143560Y-34651640D02*
X3172131Y-34651640D01*
X3200703Y-34665926D01*
X3214989Y-34680212D01*
X3229274Y-34708783D01*
X3243560Y-34765926D01*
X3243560Y-34837354D01*
X3229274Y-34894497D01*
X3214989Y-34923069D01*
X3200703Y-34937354D01*
X3172131Y-34951640D01*
X3143560Y-34951640D01*
X3114989Y-34937354D01*
X3100703Y-34923069D01*
X3086417Y-34894497D01*
X3072131Y-34837354D01*
X3072131Y-34765926D01*
X3086417Y-34708783D01*
X3100703Y-34680212D01*
X3114989Y-34665926D01*
X3143560Y-34651640D01*
X3372131Y-34923069D02*
X3386417Y-34937354D01*
X3372131Y-34951640D01*
X3357846Y-34937354D01*
X3372131Y-34923069D01*
X3372131Y-34951640D01*
X3572131Y-34651640D02*
X3600703Y-34651640D01*
X3629274Y-34665926D01*
X3643560Y-34680212D01*
X3657846Y-34708783D01*
X3672131Y-34765926D01*
X3672131Y-34837354D01*
X3657846Y-34894497D01*
X3643560Y-34923069D01*
X3629274Y-34937354D01*
X3600703Y-34951640D01*
X3572131Y-34951640D01*
X3543560Y-34937354D01*
X3529274Y-34923069D01*
X3514989Y-34894497D01*
X3500703Y-34837354D01*
X3500703Y-34765926D01*
X3514989Y-34708783D01*
X3529274Y-34680212D01*
X3543560Y-34665926D01*
X3572131Y-34651640D01*
X3957846Y-34951640D02*
X3786417Y-34951640D01*
X3872131Y-34951640D02*
X3872131Y-34651640D01*
X3843560Y-34694497D01*
X3814989Y-34723069D01*
X3786417Y-34737354D01*
X4214989Y-34651640D02*
X4157846Y-34651640D01*
X4129274Y-34665926D01*
X4114989Y-34680212D01*
X4086417Y-34723069D01*
X4072131Y-34780212D01*
X4072131Y-34894497D01*
X4086417Y-34923069D01*
X4100703Y-34937354D01*
X4129274Y-34951640D01*
X4186417Y-34951640D01*
X4214989Y-34937354D01*
X4229274Y-34923069D01*
X4243560Y-34894497D01*
X4243560Y-34823069D01*
X4229274Y-34794497D01*
X4214989Y-34780212D01*
X4186417Y-34765926D01*
X4129274Y-34765926D01*
X4100703Y-34780212D01*
X4086417Y-34794497D01*
X4072131Y-34823069D01*
X4357846Y-34651640D02*
X4357846Y-34708783D01*
X4472132Y-34651640D02*
X4472132Y-34708783D01*
X4914989Y-35065926D02*
X4900703Y-35051640D01*
X4872132Y-35008783D01*
X4857846Y-34980212D01*
X4843560Y-34937354D01*
X4829274Y-34865926D01*
X4829274Y-34808783D01*
X4843560Y-34737354D01*
X4857846Y-34694497D01*
X4872132Y-34665926D01*
X4900703Y-34623069D01*
X4914989Y-34608783D01*
X5000703Y-34651640D02*
X5186417Y-34651640D01*
X5086417Y-34765926D01*
X5129274Y-34765926D01*
X5157846Y-34780212D01*
X5172132Y-34794497D01*
X5186417Y-34823069D01*
X5186417Y-34894497D01*
X5172132Y-34923069D01*
X5157846Y-34937354D01*
X5129274Y-34951640D01*
X5043560Y-34951640D01*
X5014989Y-34937354D01*
X5000703Y-34923069D01*
X5457846Y-34651640D02*
X5314989Y-34651640D01*
X5300703Y-34794497D01*
X5314989Y-34780212D01*
X5343560Y-34765926D01*
X5414989Y-34765926D01*
X5443560Y-34780212D01*
X5457846Y-34794497D01*
X5472132Y-34823069D01*
X5472132Y-34894497D01*
X5457846Y-34923069D01*
X5443560Y-34937354D01*
X5414989Y-34951640D01*
X5343560Y-34951640D01*
X5314989Y-34937354D01*
X5300703Y-34923069D01*
X5829274Y-34951640D02*
X5829274Y-34651640D01*
X5957846Y-34951640D02*
X5957846Y-34794497D01*
X5943560Y-34765926D01*
X5914989Y-34751640D01*
X5872131Y-34751640D01*
X5843560Y-34765926D01*
X5829274Y-34780212D01*
X6143560Y-34951640D02*
X6114989Y-34937354D01*
X6100703Y-34923069D01*
X6086417Y-34894497D01*
X6086417Y-34808783D01*
X6100703Y-34780212D01*
X6114989Y-34765926D01*
X6143560Y-34751640D01*
X6186417Y-34751640D01*
X6214989Y-34765926D01*
X6229274Y-34780212D01*
X6243560Y-34808783D01*
X6243560Y-34894497D01*
X6229274Y-34923069D01*
X6214989Y-34937354D01*
X6186417Y-34951640D01*
X6143560Y-34951640D01*
X6414989Y-34951640D02*
X6386417Y-34937354D01*
X6372131Y-34908783D01*
X6372131Y-34651640D01*
X6643560Y-34937354D02*
X6614989Y-34951640D01*
X6557846Y-34951640D01*
X6529274Y-34937354D01*
X6514989Y-34908783D01*
X6514989Y-34794497D01*
X6529274Y-34765926D01*
X6557846Y-34751640D01*
X6614989Y-34751640D01*
X6643560Y-34765926D01*
X6657846Y-34794497D01*
X6657846Y-34823069D01*
X6514989Y-34851640D01*
X6772131Y-34937354D02*
X6800703Y-34951640D01*
X6857846Y-34951640D01*
X6886417Y-34937354D01*
X6900703Y-34908783D01*
X6900703Y-34894497D01*
X6886417Y-34865926D01*
X6857846Y-34851640D01*
X6814989Y-34851640D01*
X6786417Y-34837354D01*
X6772131Y-34808783D01*
X6772131Y-34794497D01*
X6786417Y-34765926D01*
X6814989Y-34751640D01*
X6857846Y-34751640D01*
X6886417Y-34765926D01*
X7000703Y-35065926D02*
X7014989Y-35051640D01*
X7043560Y-35008783D01*
X7057846Y-34980212D01*
X7072131Y-34937354D01*
X7086417Y-34865926D01*
X7086417Y-34808783D01*
X7072131Y-34737354D01*
X7057846Y-34694497D01*
X7043560Y-34665926D01*
X7014989Y-34623069D01*
X7000703Y-34608783D01*
X228560Y-35211926D02*
G75*
G03X228560Y-35211926I-30000J0D01*
G01*
X572132Y-35047640D02*
X600703Y-35047640D01*
X629274Y-35061926D01*
X643560Y-35076212D01*
X657846Y-35104783D01*
X672132Y-35161926D01*
X672132Y-35233354D01*
X657846Y-35290497D01*
X643560Y-35319069D01*
X629274Y-35333354D01*
X600703Y-35347640D01*
X572132Y-35347640D01*
X543560Y-35333354D01*
X529274Y-35319069D01*
X514989Y-35290497D01*
X500703Y-35233354D01*
X500703Y-35161926D01*
X514989Y-35104783D01*
X529274Y-35076212D01*
X543560Y-35061926D01*
X572132Y-35047640D01*
X800703Y-35319069D02*
X814989Y-35333354D01*
X800703Y-35347640D01*
X786417Y-35333354D01*
X800703Y-35319069D01*
X800703Y-35347640D01*
X1072132Y-35047640D02*
X1014989Y-35047640D01*
X986417Y-35061926D01*
X972131Y-35076212D01*
X943560Y-35119069D01*
X929274Y-35176212D01*
X929274Y-35290497D01*
X943560Y-35319069D01*
X957846Y-35333354D01*
X986417Y-35347640D01*
X1043560Y-35347640D01*
X1072132Y-35333354D01*
X1086417Y-35319069D01*
X1100703Y-35290497D01*
X1100703Y-35219069D01*
X1086417Y-35190497D01*
X1072132Y-35176212D01*
X1043560Y-35161926D01*
X986417Y-35161926D01*
X957846Y-35176212D01*
X943560Y-35190497D01*
X929274Y-35219069D01*
X1286417Y-35047640D02*
X1314989Y-35047640D01*
X1343560Y-35061926D01*
X1357846Y-35076212D01*
X1372132Y-35104783D01*
X1386417Y-35161926D01*
X1386417Y-35233354D01*
X1372132Y-35290497D01*
X1357846Y-35319069D01*
X1343560Y-35333354D01*
X1314989Y-35347640D01*
X1286417Y-35347640D01*
X1257846Y-35333354D01*
X1243560Y-35319069D01*
X1229274Y-35290497D01*
X1214989Y-35233354D01*
X1214989Y-35161926D01*
X1229274Y-35104783D01*
X1243560Y-35076212D01*
X1257846Y-35061926D01*
X1286417Y-35047640D01*
X1514989Y-35347640D02*
X1514989Y-35147640D01*
X1514989Y-35176212D02*
X1529274Y-35161926D01*
X1557846Y-35147640D01*
X1600703Y-35147640D01*
X1629274Y-35161926D01*
X1643560Y-35190497D01*
X1643560Y-35347640D01*
X1643560Y-35190497D02*
X1657846Y-35161926D01*
X1686417Y-35147640D01*
X1729274Y-35147640D01*
X1757846Y-35161926D01*
X1772131Y-35190497D01*
X1772131Y-35347640D01*
X1914989Y-35347640D02*
X1914989Y-35147640D01*
X1914989Y-35176212D02*
X1929274Y-35161926D01*
X1957846Y-35147640D01*
X2000703Y-35147640D01*
X2029274Y-35161926D01*
X2043560Y-35190497D01*
X2043560Y-35347640D01*
X2043560Y-35190497D02*
X2057846Y-35161926D01*
X2086417Y-35147640D01*
X2129274Y-35147640D01*
X2157846Y-35161926D01*
X2172132Y-35190497D01*
X2172132Y-35347640D01*
X2757846Y-35033354D02*
X2500703Y-35419069D01*
X3143560Y-35047640D02*
X3172131Y-35047640D01*
X3200703Y-35061926D01*
X3214989Y-35076212D01*
X3229274Y-35104783D01*
X3243560Y-35161926D01*
X3243560Y-35233354D01*
X3229274Y-35290497D01*
X3214989Y-35319069D01*
X3200703Y-35333354D01*
X3172131Y-35347640D01*
X3143560Y-35347640D01*
X3114989Y-35333354D01*
X3100703Y-35319069D01*
X3086417Y-35290497D01*
X3072131Y-35233354D01*
X3072131Y-35161926D01*
X3086417Y-35104783D01*
X3100703Y-35076212D01*
X3114989Y-35061926D01*
X3143560Y-35047640D01*
X3372131Y-35319069D02*
X3386417Y-35333354D01*
X3372131Y-35347640D01*
X3357846Y-35333354D01*
X3372131Y-35319069D01*
X3372131Y-35347640D01*
X3572131Y-35047640D02*
X3600703Y-35047640D01*
X3629274Y-35061926D01*
X3643560Y-35076212D01*
X3657846Y-35104783D01*
X3672131Y-35161926D01*
X3672131Y-35233354D01*
X3657846Y-35290497D01*
X3643560Y-35319069D01*
X3629274Y-35333354D01*
X3600703Y-35347640D01*
X3572131Y-35347640D01*
X3543560Y-35333354D01*
X3529274Y-35319069D01*
X3514989Y-35290497D01*
X3500703Y-35233354D01*
X3500703Y-35161926D01*
X3514989Y-35104783D01*
X3529274Y-35076212D01*
X3543560Y-35061926D01*
X3572131Y-35047640D01*
X3786417Y-35076212D02*
X3800703Y-35061926D01*
X3829274Y-35047640D01*
X3900703Y-35047640D01*
X3929274Y-35061926D01*
X3943560Y-35076212D01*
X3957846Y-35104783D01*
X3957846Y-35133354D01*
X3943560Y-35176212D01*
X3772131Y-35347640D01*
X3957846Y-35347640D01*
X4214989Y-35147640D02*
X4214989Y-35347640D01*
X4143560Y-35033354D02*
X4072131Y-35247640D01*
X4257846Y-35247640D01*
X4357846Y-35047640D02*
X4357846Y-35104783D01*
X4472132Y-35047640D02*
X4472132Y-35104783D01*
X4914989Y-35461926D02*
X4900703Y-35447640D01*
X4872132Y-35404783D01*
X4857846Y-35376212D01*
X4843560Y-35333354D01*
X4829274Y-35261926D01*
X4829274Y-35204783D01*
X4843560Y-35133354D01*
X4857846Y-35090497D01*
X4872132Y-35061926D01*
X4900703Y-35019069D01*
X4914989Y-35004783D01*
X5072132Y-35176212D02*
X5043560Y-35161926D01*
X5029274Y-35147640D01*
X5014989Y-35119069D01*
X5014989Y-35104783D01*
X5029274Y-35076212D01*
X5043560Y-35061926D01*
X5072132Y-35047640D01*
X5129274Y-35047640D01*
X5157846Y-35061926D01*
X5172132Y-35076212D01*
X5186417Y-35104783D01*
X5186417Y-35119069D01*
X5172132Y-35147640D01*
X5157846Y-35161926D01*
X5129274Y-35176212D01*
X5072132Y-35176212D01*
X5043560Y-35190497D01*
X5029274Y-35204783D01*
X5014989Y-35233354D01*
X5014989Y-35290497D01*
X5029274Y-35319069D01*
X5043560Y-35333354D01*
X5072132Y-35347640D01*
X5129274Y-35347640D01*
X5157846Y-35333354D01*
X5172132Y-35319069D01*
X5186417Y-35290497D01*
X5186417Y-35233354D01*
X5172132Y-35204783D01*
X5157846Y-35190497D01*
X5129274Y-35176212D01*
X5543560Y-35347640D02*
X5543560Y-35047640D01*
X5672131Y-35347640D02*
X5672131Y-35190497D01*
X5657846Y-35161926D01*
X5629274Y-35147640D01*
X5586417Y-35147640D01*
X5557846Y-35161926D01*
X5543560Y-35176212D01*
X5857846Y-35347640D02*
X5829274Y-35333354D01*
X5814989Y-35319069D01*
X5800703Y-35290497D01*
X5800703Y-35204783D01*
X5814989Y-35176212D01*
X5829274Y-35161926D01*
X5857846Y-35147640D01*
X5900703Y-35147640D01*
X5929274Y-35161926D01*
X5943560Y-35176212D01*
X5957846Y-35204783D01*
X5957846Y-35290497D01*
X5943560Y-35319069D01*
X5929274Y-35333354D01*
X5900703Y-35347640D01*
X5857846Y-35347640D01*
X6129274Y-35347640D02*
X6100703Y-35333354D01*
X6086417Y-35304783D01*
X6086417Y-35047640D01*
X6357846Y-35333354D02*
X6329274Y-35347640D01*
X6272131Y-35347640D01*
X6243560Y-35333354D01*
X6229274Y-35304783D01*
X6229274Y-35190497D01*
X6243560Y-35161926D01*
X6272131Y-35147640D01*
X6329274Y-35147640D01*
X6357846Y-35161926D01*
X6372131Y-35190497D01*
X6372131Y-35219069D01*
X6229274Y-35247640D01*
X6486417Y-35333354D02*
X6514989Y-35347640D01*
X6572131Y-35347640D01*
X6600703Y-35333354D01*
X6614989Y-35304783D01*
X6614989Y-35290497D01*
X6600703Y-35261926D01*
X6572131Y-35247640D01*
X6529274Y-35247640D01*
X6500703Y-35233354D01*
X6486417Y-35204783D01*
X6486417Y-35190497D01*
X6500703Y-35161926D01*
X6529274Y-35147640D01*
X6572131Y-35147640D01*
X6600703Y-35161926D01*
X6714989Y-35461926D02*
X6729274Y-35447640D01*
X6757846Y-35404783D01*
X6772131Y-35376212D01*
X6786417Y-35333354D01*
X6800703Y-35261926D01*
X6800703Y-35204783D01*
X6786417Y-35133354D01*
X6772131Y-35090497D01*
X6757846Y-35061926D01*
X6729274Y-35019069D01*
X6714989Y-35004783D01*
X188560Y-35567926D02*
X188560Y-35647926D01*
X148560Y-35607926D02*
X228560Y-35607926D01*
X572132Y-35443640D02*
X600703Y-35443640D01*
X629274Y-35457926D01*
X643560Y-35472212D01*
X657846Y-35500783D01*
X672132Y-35557926D01*
X672132Y-35629354D01*
X657846Y-35686497D01*
X643560Y-35715069D01*
X629274Y-35729354D01*
X600703Y-35743640D01*
X572132Y-35743640D01*
X543560Y-35729354D01*
X529274Y-35715069D01*
X514989Y-35686497D01*
X500703Y-35629354D01*
X500703Y-35557926D01*
X514989Y-35500783D01*
X529274Y-35472212D01*
X543560Y-35457926D01*
X572132Y-35443640D01*
X800703Y-35715069D02*
X814989Y-35729354D01*
X800703Y-35743640D01*
X786417Y-35729354D01*
X800703Y-35715069D01*
X800703Y-35743640D01*
X986417Y-35572212D02*
X957846Y-35557926D01*
X943560Y-35543640D01*
X929274Y-35515069D01*
X929274Y-35500783D01*
X943560Y-35472212D01*
X957846Y-35457926D01*
X986417Y-35443640D01*
X1043560Y-35443640D01*
X1072132Y-35457926D01*
X1086417Y-35472212D01*
X1100703Y-35500783D01*
X1100703Y-35515069D01*
X1086417Y-35543640D01*
X1072132Y-35557926D01*
X1043560Y-35572212D01*
X986417Y-35572212D01*
X957846Y-35586497D01*
X943560Y-35600783D01*
X929274Y-35629354D01*
X929274Y-35686497D01*
X943560Y-35715069D01*
X957846Y-35729354D01*
X986417Y-35743640D01*
X1043560Y-35743640D01*
X1072132Y-35729354D01*
X1086417Y-35715069D01*
X1100703Y-35686497D01*
X1100703Y-35629354D01*
X1086417Y-35600783D01*
X1072132Y-35586497D01*
X1043560Y-35572212D01*
X1286417Y-35443640D02*
X1314989Y-35443640D01*
X1343560Y-35457926D01*
X1357846Y-35472212D01*
X1372132Y-35500783D01*
X1386417Y-35557926D01*
X1386417Y-35629354D01*
X1372132Y-35686497D01*
X1357846Y-35715069D01*
X1343560Y-35729354D01*
X1314989Y-35743640D01*
X1286417Y-35743640D01*
X1257846Y-35729354D01*
X1243560Y-35715069D01*
X1229274Y-35686497D01*
X1214989Y-35629354D01*
X1214989Y-35557926D01*
X1229274Y-35500783D01*
X1243560Y-35472212D01*
X1257846Y-35457926D01*
X1286417Y-35443640D01*
X1514989Y-35743640D02*
X1514989Y-35543640D01*
X1514989Y-35572212D02*
X1529274Y-35557926D01*
X1557846Y-35543640D01*
X1600703Y-35543640D01*
X1629274Y-35557926D01*
X1643560Y-35586497D01*
X1643560Y-35743640D01*
X1643560Y-35586497D02*
X1657846Y-35557926D01*
X1686417Y-35543640D01*
X1729274Y-35543640D01*
X1757846Y-35557926D01*
X1772131Y-35586497D01*
X1772131Y-35743640D01*
X1914989Y-35743640D02*
X1914989Y-35543640D01*
X1914989Y-35572212D02*
X1929274Y-35557926D01*
X1957846Y-35543640D01*
X2000703Y-35543640D01*
X2029274Y-35557926D01*
X2043560Y-35586497D01*
X2043560Y-35743640D01*
X2043560Y-35586497D02*
X2057846Y-35557926D01*
X2086417Y-35543640D01*
X2129274Y-35543640D01*
X2157846Y-35557926D01*
X2172132Y-35586497D01*
X2172132Y-35743640D01*
X2757846Y-35429354D02*
X2500703Y-35815069D01*
X3143560Y-35443640D02*
X3172131Y-35443640D01*
X3200703Y-35457926D01*
X3214989Y-35472212D01*
X3229274Y-35500783D01*
X3243560Y-35557926D01*
X3243560Y-35629354D01*
X3229274Y-35686497D01*
X3214989Y-35715069D01*
X3200703Y-35729354D01*
X3172131Y-35743640D01*
X3143560Y-35743640D01*
X3114989Y-35729354D01*
X3100703Y-35715069D01*
X3086417Y-35686497D01*
X3072131Y-35629354D01*
X3072131Y-35557926D01*
X3086417Y-35500783D01*
X3100703Y-35472212D01*
X3114989Y-35457926D01*
X3143560Y-35443640D01*
X3372131Y-35715069D02*
X3386417Y-35729354D01*
X3372131Y-35743640D01*
X3357846Y-35729354D01*
X3372131Y-35715069D01*
X3372131Y-35743640D01*
X3572131Y-35443640D02*
X3600703Y-35443640D01*
X3629274Y-35457926D01*
X3643560Y-35472212D01*
X3657846Y-35500783D01*
X3672131Y-35557926D01*
X3672131Y-35629354D01*
X3657846Y-35686497D01*
X3643560Y-35715069D01*
X3629274Y-35729354D01*
X3600703Y-35743640D01*
X3572131Y-35743640D01*
X3543560Y-35729354D01*
X3529274Y-35715069D01*
X3514989Y-35686497D01*
X3500703Y-35629354D01*
X3500703Y-35557926D01*
X3514989Y-35500783D01*
X3529274Y-35472212D01*
X3543560Y-35457926D01*
X3572131Y-35443640D01*
X3772131Y-35443640D02*
X3957846Y-35443640D01*
X3857846Y-35557926D01*
X3900703Y-35557926D01*
X3929274Y-35572212D01*
X3943560Y-35586497D01*
X3957846Y-35615069D01*
X3957846Y-35686497D01*
X3943560Y-35715069D01*
X3929274Y-35729354D01*
X3900703Y-35743640D01*
X3814989Y-35743640D01*
X3786417Y-35729354D01*
X3772131Y-35715069D01*
X4243560Y-35743640D02*
X4072131Y-35743640D01*
X4157846Y-35743640D02*
X4157846Y-35443640D01*
X4129274Y-35486497D01*
X4100703Y-35515069D01*
X4072131Y-35529354D01*
X4357846Y-35443640D02*
X4357846Y-35500783D01*
X4472132Y-35443640D02*
X4472132Y-35500783D01*
X4914989Y-35857926D02*
X4900703Y-35843640D01*
X4872132Y-35800783D01*
X4857846Y-35772212D01*
X4843560Y-35729354D01*
X4829274Y-35657926D01*
X4829274Y-35600783D01*
X4843560Y-35529354D01*
X4857846Y-35486497D01*
X4872132Y-35457926D01*
X4900703Y-35415069D01*
X4914989Y-35400783D01*
X5072132Y-35572212D02*
X5043560Y-35557926D01*
X5029274Y-35543640D01*
X5014989Y-35515069D01*
X5014989Y-35500783D01*
X5029274Y-35472212D01*
X5043560Y-35457926D01*
X5072132Y-35443640D01*
X5129274Y-35443640D01*
X5157846Y-35457926D01*
X5172132Y-35472212D01*
X5186417Y-35500783D01*
X5186417Y-35515069D01*
X5172132Y-35543640D01*
X5157846Y-35557926D01*
X5129274Y-35572212D01*
X5072132Y-35572212D01*
X5043560Y-35586497D01*
X5029274Y-35600783D01*
X5014989Y-35629354D01*
X5014989Y-35686497D01*
X5029274Y-35715069D01*
X5043560Y-35729354D01*
X5072132Y-35743640D01*
X5129274Y-35743640D01*
X5157846Y-35729354D01*
X5172132Y-35715069D01*
X5186417Y-35686497D01*
X5186417Y-35629354D01*
X5172132Y-35600783D01*
X5157846Y-35586497D01*
X5129274Y-35572212D01*
X5543560Y-35743640D02*
X5543560Y-35443640D01*
X5672131Y-35743640D02*
X5672131Y-35586497D01*
X5657846Y-35557926D01*
X5629274Y-35543640D01*
X5586417Y-35543640D01*
X5557846Y-35557926D01*
X5543560Y-35572212D01*
X5857846Y-35743640D02*
X5829274Y-35729354D01*
X5814989Y-35715069D01*
X5800703Y-35686497D01*
X5800703Y-35600783D01*
X5814989Y-35572212D01*
X5829274Y-35557926D01*
X5857846Y-35543640D01*
X5900703Y-35543640D01*
X5929274Y-35557926D01*
X5943560Y-35572212D01*
X5957846Y-35600783D01*
X5957846Y-35686497D01*
X5943560Y-35715069D01*
X5929274Y-35729354D01*
X5900703Y-35743640D01*
X5857846Y-35743640D01*
X6129274Y-35743640D02*
X6100703Y-35729354D01*
X6086417Y-35700783D01*
X6086417Y-35443640D01*
X6357846Y-35729354D02*
X6329274Y-35743640D01*
X6272131Y-35743640D01*
X6243560Y-35729354D01*
X6229274Y-35700783D01*
X6229274Y-35586497D01*
X6243560Y-35557926D01*
X6272131Y-35543640D01*
X6329274Y-35543640D01*
X6357846Y-35557926D01*
X6372131Y-35586497D01*
X6372131Y-35615069D01*
X6229274Y-35643640D01*
X6486417Y-35729354D02*
X6514989Y-35743640D01*
X6572131Y-35743640D01*
X6600703Y-35729354D01*
X6614989Y-35700783D01*
X6614989Y-35686497D01*
X6600703Y-35657926D01*
X6572131Y-35643640D01*
X6529274Y-35643640D01*
X6500703Y-35629354D01*
X6486417Y-35600783D01*
X6486417Y-35586497D01*
X6500703Y-35557926D01*
X6529274Y-35543640D01*
X6572131Y-35543640D01*
X6600703Y-35557926D01*
X6714989Y-35857926D02*
X6729274Y-35843640D01*
X6757846Y-35800783D01*
X6772131Y-35772212D01*
X6786417Y-35729354D01*
X6800703Y-35657926D01*
X6800703Y-35600783D01*
X6786417Y-35529354D01*
X6772131Y-35486497D01*
X6757846Y-35457926D01*
X6729274Y-35415069D01*
X6714989Y-35400783D01*
X213916Y-36039282D02*
X213916Y-35968570D01*
X143204Y-35968570D01*
X143204Y-36039282D01*
X213916Y-36039282D01*
X672132Y-36139640D02*
X500703Y-36139640D01*
X586417Y-36139640D02*
X586417Y-35839640D01*
X557846Y-35882497D01*
X529274Y-35911069D01*
X500703Y-35925354D01*
X800703Y-36111069D02*
X814989Y-36125354D01*
X800703Y-36139640D01*
X786417Y-36125354D01*
X800703Y-36111069D01*
X800703Y-36139640D01*
X1000703Y-35839640D02*
X1029274Y-35839640D01*
X1057846Y-35853926D01*
X1072132Y-35868212D01*
X1086417Y-35896783D01*
X1100703Y-35953926D01*
X1100703Y-36025354D01*
X1086417Y-36082497D01*
X1072132Y-36111069D01*
X1057846Y-36125354D01*
X1029274Y-36139640D01*
X1000703Y-36139640D01*
X972131Y-36125354D01*
X957846Y-36111069D01*
X943560Y-36082497D01*
X929274Y-36025354D01*
X929274Y-35953926D01*
X943560Y-35896783D01*
X957846Y-35868212D01*
X972131Y-35853926D01*
X1000703Y-35839640D01*
X1286417Y-35839640D02*
X1314989Y-35839640D01*
X1343560Y-35853926D01*
X1357846Y-35868212D01*
X1372132Y-35896783D01*
X1386417Y-35953926D01*
X1386417Y-36025354D01*
X1372132Y-36082497D01*
X1357846Y-36111069D01*
X1343560Y-36125354D01*
X1314989Y-36139640D01*
X1286417Y-36139640D01*
X1257846Y-36125354D01*
X1243560Y-36111069D01*
X1229274Y-36082497D01*
X1214989Y-36025354D01*
X1214989Y-35953926D01*
X1229274Y-35896783D01*
X1243560Y-35868212D01*
X1257846Y-35853926D01*
X1286417Y-35839640D01*
X1514989Y-36139640D02*
X1514989Y-35939640D01*
X1514989Y-35968212D02*
X1529274Y-35953926D01*
X1557846Y-35939640D01*
X1600703Y-35939640D01*
X1629274Y-35953926D01*
X1643560Y-35982497D01*
X1643560Y-36139640D01*
X1643560Y-35982497D02*
X1657846Y-35953926D01*
X1686417Y-35939640D01*
X1729274Y-35939640D01*
X1757846Y-35953926D01*
X1772131Y-35982497D01*
X1772131Y-36139640D01*
X1914989Y-36139640D02*
X1914989Y-35939640D01*
X1914989Y-35968212D02*
X1929274Y-35953926D01*
X1957846Y-35939640D01*
X2000703Y-35939640D01*
X2029274Y-35953926D01*
X2043560Y-35982497D01*
X2043560Y-36139640D01*
X2043560Y-35982497D02*
X2057846Y-35953926D01*
X2086417Y-35939640D01*
X2129274Y-35939640D01*
X2157846Y-35953926D01*
X2172132Y-35982497D01*
X2172132Y-36139640D01*
X2757846Y-35825354D02*
X2500703Y-36211069D01*
X3143560Y-35839640D02*
X3172131Y-35839640D01*
X3200703Y-35853926D01*
X3214989Y-35868212D01*
X3229274Y-35896783D01*
X3243560Y-35953926D01*
X3243560Y-36025354D01*
X3229274Y-36082497D01*
X3214989Y-36111069D01*
X3200703Y-36125354D01*
X3172131Y-36139640D01*
X3143560Y-36139640D01*
X3114989Y-36125354D01*
X3100703Y-36111069D01*
X3086417Y-36082497D01*
X3072131Y-36025354D01*
X3072131Y-35953926D01*
X3086417Y-35896783D01*
X3100703Y-35868212D01*
X3114989Y-35853926D01*
X3143560Y-35839640D01*
X3372131Y-36111069D02*
X3386417Y-36125354D01*
X3372131Y-36139640D01*
X3357846Y-36125354D01*
X3372131Y-36111069D01*
X3372131Y-36139640D01*
X3572131Y-35839640D02*
X3600703Y-35839640D01*
X3629274Y-35853926D01*
X3643560Y-35868212D01*
X3657846Y-35896783D01*
X3672131Y-35953926D01*
X3672131Y-36025354D01*
X3657846Y-36082497D01*
X3643560Y-36111069D01*
X3629274Y-36125354D01*
X3600703Y-36139640D01*
X3572131Y-36139640D01*
X3543560Y-36125354D01*
X3529274Y-36111069D01*
X3514989Y-36082497D01*
X3500703Y-36025354D01*
X3500703Y-35953926D01*
X3514989Y-35896783D01*
X3529274Y-35868212D01*
X3543560Y-35853926D01*
X3572131Y-35839640D01*
X3772131Y-35839640D02*
X3957846Y-35839640D01*
X3857846Y-35953926D01*
X3900703Y-35953926D01*
X3929274Y-35968212D01*
X3943560Y-35982497D01*
X3957846Y-36011069D01*
X3957846Y-36082497D01*
X3943560Y-36111069D01*
X3929274Y-36125354D01*
X3900703Y-36139640D01*
X3814989Y-36139640D01*
X3786417Y-36125354D01*
X3772131Y-36111069D01*
X4100703Y-36139640D02*
X4157846Y-36139640D01*
X4186417Y-36125354D01*
X4200703Y-36111069D01*
X4229274Y-36068212D01*
X4243560Y-36011069D01*
X4243560Y-35896783D01*
X4229274Y-35868212D01*
X4214989Y-35853926D01*
X4186417Y-35839640D01*
X4129274Y-35839640D01*
X4100703Y-35853926D01*
X4086417Y-35868212D01*
X4072131Y-35896783D01*
X4072131Y-35968212D01*
X4086417Y-35996783D01*
X4100703Y-36011069D01*
X4129274Y-36025354D01*
X4186417Y-36025354D01*
X4214989Y-36011069D01*
X4229274Y-35996783D01*
X4243560Y-35968212D01*
X4357846Y-35839640D02*
X4357846Y-35896783D01*
X4472132Y-35839640D02*
X4472132Y-35896783D01*
X4914989Y-36253926D02*
X4900703Y-36239640D01*
X4872132Y-36196783D01*
X4857846Y-36168212D01*
X4843560Y-36125354D01*
X4829274Y-36053926D01*
X4829274Y-35996783D01*
X4843560Y-35925354D01*
X4857846Y-35882497D01*
X4872132Y-35853926D01*
X4900703Y-35811069D01*
X4914989Y-35796783D01*
X5157846Y-35939640D02*
X5157846Y-36139640D01*
X5086417Y-35825354D02*
X5014989Y-36039640D01*
X5200703Y-36039640D01*
X5357846Y-35968212D02*
X5329274Y-35953926D01*
X5314989Y-35939640D01*
X5300703Y-35911069D01*
X5300703Y-35896783D01*
X5314989Y-35868212D01*
X5329274Y-35853926D01*
X5357846Y-35839640D01*
X5414989Y-35839640D01*
X5443560Y-35853926D01*
X5457846Y-35868212D01*
X5472132Y-35896783D01*
X5472132Y-35911069D01*
X5457846Y-35939640D01*
X5443560Y-35953926D01*
X5414989Y-35968212D01*
X5357846Y-35968212D01*
X5329274Y-35982497D01*
X5314989Y-35996783D01*
X5300703Y-36025354D01*
X5300703Y-36082497D01*
X5314989Y-36111069D01*
X5329274Y-36125354D01*
X5357846Y-36139640D01*
X5414989Y-36139640D01*
X5443560Y-36125354D01*
X5457846Y-36111069D01*
X5472132Y-36082497D01*
X5472132Y-36025354D01*
X5457846Y-35996783D01*
X5443560Y-35982497D01*
X5414989Y-35968212D01*
X5829274Y-36139640D02*
X5829274Y-35839640D01*
X5957846Y-36139640D02*
X5957846Y-35982497D01*
X5943560Y-35953926D01*
X5914989Y-35939640D01*
X5872131Y-35939640D01*
X5843560Y-35953926D01*
X5829274Y-35968212D01*
X6143560Y-36139640D02*
X6114989Y-36125354D01*
X6100703Y-36111069D01*
X6086417Y-36082497D01*
X6086417Y-35996783D01*
X6100703Y-35968212D01*
X6114989Y-35953926D01*
X6143560Y-35939640D01*
X6186417Y-35939640D01*
X6214989Y-35953926D01*
X6229274Y-35968212D01*
X6243560Y-35996783D01*
X6243560Y-36082497D01*
X6229274Y-36111069D01*
X6214989Y-36125354D01*
X6186417Y-36139640D01*
X6143560Y-36139640D01*
X6414989Y-36139640D02*
X6386417Y-36125354D01*
X6372131Y-36096783D01*
X6372131Y-35839640D01*
X6643560Y-36125354D02*
X6614989Y-36139640D01*
X6557846Y-36139640D01*
X6529274Y-36125354D01*
X6514989Y-36096783D01*
X6514989Y-35982497D01*
X6529274Y-35953926D01*
X6557846Y-35939640D01*
X6614989Y-35939640D01*
X6643560Y-35953926D01*
X6657846Y-35982497D01*
X6657846Y-36011069D01*
X6514989Y-36039640D01*
X6772131Y-36125354D02*
X6800703Y-36139640D01*
X6857846Y-36139640D01*
X6886417Y-36125354D01*
X6900703Y-36096783D01*
X6900703Y-36082497D01*
X6886417Y-36053926D01*
X6857846Y-36039640D01*
X6814989Y-36039640D01*
X6786417Y-36025354D01*
X6772131Y-35996783D01*
X6772131Y-35982497D01*
X6786417Y-35953926D01*
X6814989Y-35939640D01*
X6857846Y-35939640D01*
X6886417Y-35953926D01*
X7000703Y-36253926D02*
X7014989Y-36239640D01*
X7043560Y-36196783D01*
X7057846Y-36168212D01*
X7072131Y-36125354D01*
X7086417Y-36053926D01*
X7086417Y-35996783D01*
X7072131Y-35925354D01*
X7057846Y-35882497D01*
X7043560Y-35853926D01*
X7014989Y-35811069D01*
X7000703Y-35796783D01*
X-71440Y-36699926D02*
X228560Y-36399926D01*
X-71440Y-36099926D01*
X-371440Y-36399926D01*
X-71440Y-36699926D01*
X643560Y-36235640D02*
X586417Y-36235640D01*
X557846Y-36249926D01*
X543560Y-36264212D01*
X514989Y-36307069D01*
X500703Y-36364212D01*
X500703Y-36478497D01*
X514989Y-36507069D01*
X529274Y-36521354D01*
X557846Y-36535640D01*
X614989Y-36535640D01*
X643560Y-36521354D01*
X657846Y-36507069D01*
X672132Y-36478497D01*
X672132Y-36407069D01*
X657846Y-36378497D01*
X643560Y-36364212D01*
X614989Y-36349926D01*
X557846Y-36349926D01*
X529274Y-36364212D01*
X514989Y-36378497D01*
X500703Y-36407069D01*
X800703Y-36507069D02*
X814989Y-36521354D01*
X800703Y-36535640D01*
X786417Y-36521354D01*
X800703Y-36507069D01*
X800703Y-36535640D01*
X1000703Y-36235640D02*
X1029274Y-36235640D01*
X1057846Y-36249926D01*
X1072132Y-36264212D01*
X1086417Y-36292783D01*
X1100703Y-36349926D01*
X1100703Y-36421354D01*
X1086417Y-36478497D01*
X1072132Y-36507069D01*
X1057846Y-36521354D01*
X1029274Y-36535640D01*
X1000703Y-36535640D01*
X972131Y-36521354D01*
X957846Y-36507069D01*
X943560Y-36478497D01*
X929274Y-36421354D01*
X929274Y-36349926D01*
X943560Y-36292783D01*
X957846Y-36264212D01*
X972131Y-36249926D01*
X1000703Y-36235640D01*
X1286417Y-36235640D02*
X1314989Y-36235640D01*
X1343560Y-36249926D01*
X1357846Y-36264212D01*
X1372132Y-36292783D01*
X1386417Y-36349926D01*
X1386417Y-36421354D01*
X1372132Y-36478497D01*
X1357846Y-36507069D01*
X1343560Y-36521354D01*
X1314989Y-36535640D01*
X1286417Y-36535640D01*
X1257846Y-36521354D01*
X1243560Y-36507069D01*
X1229274Y-36478497D01*
X1214989Y-36421354D01*
X1214989Y-36349926D01*
X1229274Y-36292783D01*
X1243560Y-36264212D01*
X1257846Y-36249926D01*
X1286417Y-36235640D01*
X1514989Y-36535640D02*
X1514989Y-36335640D01*
X1514989Y-36364212D02*
X1529274Y-36349926D01*
X1557846Y-36335640D01*
X1600703Y-36335640D01*
X1629274Y-36349926D01*
X1643560Y-36378497D01*
X1643560Y-36535640D01*
X1643560Y-36378497D02*
X1657846Y-36349926D01*
X1686417Y-36335640D01*
X1729274Y-36335640D01*
X1757846Y-36349926D01*
X1772131Y-36378497D01*
X1772131Y-36535640D01*
X1914989Y-36535640D02*
X1914989Y-36335640D01*
X1914989Y-36364212D02*
X1929274Y-36349926D01*
X1957846Y-36335640D01*
X2000703Y-36335640D01*
X2029274Y-36349926D01*
X2043560Y-36378497D01*
X2043560Y-36535640D01*
X2043560Y-36378497D02*
X2057846Y-36349926D01*
X2086417Y-36335640D01*
X2129274Y-36335640D01*
X2157846Y-36349926D01*
X2172132Y-36378497D01*
X2172132Y-36535640D01*
X2757846Y-36221354D02*
X2500703Y-36607069D01*
X3143560Y-36235640D02*
X3172131Y-36235640D01*
X3200703Y-36249926D01*
X3214989Y-36264212D01*
X3229274Y-36292783D01*
X3243560Y-36349926D01*
X3243560Y-36421354D01*
X3229274Y-36478497D01*
X3214989Y-36507069D01*
X3200703Y-36521354D01*
X3172131Y-36535640D01*
X3143560Y-36535640D01*
X3114989Y-36521354D01*
X3100703Y-36507069D01*
X3086417Y-36478497D01*
X3072131Y-36421354D01*
X3072131Y-36349926D01*
X3086417Y-36292783D01*
X3100703Y-36264212D01*
X3114989Y-36249926D01*
X3143560Y-36235640D01*
X3372131Y-36507069D02*
X3386417Y-36521354D01*
X3372131Y-36535640D01*
X3357846Y-36521354D01*
X3372131Y-36507069D01*
X3372131Y-36535640D01*
X3500703Y-36264212D02*
X3514989Y-36249926D01*
X3543560Y-36235640D01*
X3614989Y-36235640D01*
X3643560Y-36249926D01*
X3657846Y-36264212D01*
X3672131Y-36292783D01*
X3672131Y-36321354D01*
X3657846Y-36364212D01*
X3486417Y-36535640D01*
X3672131Y-36535640D01*
X3772131Y-36235640D02*
X3957846Y-36235640D01*
X3857846Y-36349926D01*
X3900703Y-36349926D01*
X3929274Y-36364212D01*
X3943560Y-36378497D01*
X3957846Y-36407069D01*
X3957846Y-36478497D01*
X3943560Y-36507069D01*
X3929274Y-36521354D01*
X3900703Y-36535640D01*
X3814989Y-36535640D01*
X3786417Y-36521354D01*
X3772131Y-36507069D01*
X4214989Y-36235640D02*
X4157846Y-36235640D01*
X4129274Y-36249926D01*
X4114989Y-36264212D01*
X4086417Y-36307069D01*
X4072131Y-36364212D01*
X4072131Y-36478497D01*
X4086417Y-36507069D01*
X4100703Y-36521354D01*
X4129274Y-36535640D01*
X4186417Y-36535640D01*
X4214989Y-36521354D01*
X4229274Y-36507069D01*
X4243560Y-36478497D01*
X4243560Y-36407069D01*
X4229274Y-36378497D01*
X4214989Y-36364212D01*
X4186417Y-36349926D01*
X4129274Y-36349926D01*
X4100703Y-36364212D01*
X4086417Y-36378497D01*
X4072131Y-36407069D01*
X4357846Y-36235640D02*
X4357846Y-36292783D01*
X4472132Y-36235640D02*
X4472132Y-36292783D01*
X4914989Y-36649926D02*
X4900703Y-36635640D01*
X4872132Y-36592783D01*
X4857846Y-36564212D01*
X4843560Y-36521354D01*
X4829274Y-36449926D01*
X4829274Y-36392783D01*
X4843560Y-36321354D01*
X4857846Y-36278497D01*
X4872132Y-36249926D01*
X4900703Y-36207069D01*
X4914989Y-36192783D01*
X5186417Y-36535640D02*
X5014989Y-36535640D01*
X5100703Y-36535640D02*
X5100703Y-36235640D01*
X5072132Y-36278497D01*
X5043560Y-36307069D01*
X5014989Y-36321354D01*
X5543560Y-36535640D02*
X5543560Y-36235640D01*
X5672131Y-36535640D02*
X5672131Y-36378497D01*
X5657846Y-36349926D01*
X5629274Y-36335640D01*
X5586417Y-36335640D01*
X5557846Y-36349926D01*
X5543560Y-36364212D01*
X5857846Y-36535640D02*
X5829274Y-36521354D01*
X5814989Y-36507069D01*
X5800703Y-36478497D01*
X5800703Y-36392783D01*
X5814989Y-36364212D01*
X5829274Y-36349926D01*
X5857846Y-36335640D01*
X5900703Y-36335640D01*
X5929274Y-36349926D01*
X5943560Y-36364212D01*
X5957846Y-36392783D01*
X5957846Y-36478497D01*
X5943560Y-36507069D01*
X5929274Y-36521354D01*
X5900703Y-36535640D01*
X5857846Y-36535640D01*
X6129274Y-36535640D02*
X6100703Y-36521354D01*
X6086417Y-36492783D01*
X6086417Y-36235640D01*
X6357846Y-36521354D02*
X6329274Y-36535640D01*
X6272131Y-36535640D01*
X6243560Y-36521354D01*
X6229274Y-36492783D01*
X6229274Y-36378497D01*
X6243560Y-36349926D01*
X6272131Y-36335640D01*
X6329274Y-36335640D01*
X6357846Y-36349926D01*
X6372131Y-36378497D01*
X6372131Y-36407069D01*
X6229274Y-36435640D01*
X6472131Y-36649926D02*
X6486417Y-36635640D01*
X6514989Y-36592783D01*
X6529274Y-36564212D01*
X6543560Y-36521354D01*
X6557846Y-36449926D01*
X6557846Y-36392783D01*
X6543560Y-36321354D01*
X6529274Y-36278497D01*
X6514989Y-36249926D01*
X6486417Y-36207069D01*
X6472131Y-36192783D01*
X-611440Y-36709926D02*
X228560Y-37549926D01*
X228560Y-36709926D02*
X-611440Y-37549926D01*
X228560Y-37129926D02*
G75*
G03X228560Y-37129926I-420000J0D01*
G01*
X557846Y-37094212D02*
X529274Y-37079926D01*
X514989Y-37065640D01*
X500703Y-37037069D01*
X500703Y-37022783D01*
X514989Y-36994212D01*
X529274Y-36979926D01*
X557846Y-36965640D01*
X614989Y-36965640D01*
X643560Y-36979926D01*
X657846Y-36994212D01*
X672132Y-37022783D01*
X672132Y-37037069D01*
X657846Y-37065640D01*
X643560Y-37079926D01*
X614989Y-37094212D01*
X557846Y-37094212D01*
X529274Y-37108497D01*
X514989Y-37122783D01*
X500703Y-37151354D01*
X500703Y-37208497D01*
X514989Y-37237069D01*
X529274Y-37251354D01*
X557846Y-37265640D01*
X614989Y-37265640D01*
X643560Y-37251354D01*
X657846Y-37237069D01*
X672132Y-37208497D01*
X672132Y-37151354D01*
X657846Y-37122783D01*
X643560Y-37108497D01*
X614989Y-37094212D01*
X800703Y-37237069D02*
X814989Y-37251354D01*
X800703Y-37265640D01*
X786417Y-37251354D01*
X800703Y-37237069D01*
X800703Y-37265640D01*
X1072132Y-37065640D02*
X1072132Y-37265640D01*
X1000703Y-36951354D02*
X929274Y-37165640D01*
X1114989Y-37165640D01*
X1286417Y-36965640D02*
X1314989Y-36965640D01*
X1343560Y-36979926D01*
X1357846Y-36994212D01*
X1372132Y-37022783D01*
X1386417Y-37079926D01*
X1386417Y-37151354D01*
X1372132Y-37208497D01*
X1357846Y-37237069D01*
X1343560Y-37251354D01*
X1314989Y-37265640D01*
X1286417Y-37265640D01*
X1257846Y-37251354D01*
X1243560Y-37237069D01*
X1229274Y-37208497D01*
X1214989Y-37151354D01*
X1214989Y-37079926D01*
X1229274Y-37022783D01*
X1243560Y-36994212D01*
X1257846Y-36979926D01*
X1286417Y-36965640D01*
X1514989Y-37265640D02*
X1514989Y-37065640D01*
X1514989Y-37094212D02*
X1529274Y-37079926D01*
X1557846Y-37065640D01*
X1600703Y-37065640D01*
X1629274Y-37079926D01*
X1643560Y-37108497D01*
X1643560Y-37265640D01*
X1643560Y-37108497D02*
X1657846Y-37079926D01*
X1686417Y-37065640D01*
X1729274Y-37065640D01*
X1757846Y-37079926D01*
X1772131Y-37108497D01*
X1772131Y-37265640D01*
X1914989Y-37265640D02*
X1914989Y-37065640D01*
X1914989Y-37094212D02*
X1929274Y-37079926D01*
X1957846Y-37065640D01*
X2000703Y-37065640D01*
X2029274Y-37079926D01*
X2043560Y-37108497D01*
X2043560Y-37265640D01*
X2043560Y-37108497D02*
X2057846Y-37079926D01*
X2086417Y-37065640D01*
X2129274Y-37065640D01*
X2157846Y-37079926D01*
X2172132Y-37108497D01*
X2172132Y-37265640D01*
X2757846Y-36951354D02*
X2500703Y-37337069D01*
X3143560Y-36965640D02*
X3172131Y-36965640D01*
X3200703Y-36979926D01*
X3214989Y-36994212D01*
X3229274Y-37022783D01*
X3243560Y-37079926D01*
X3243560Y-37151354D01*
X3229274Y-37208497D01*
X3214989Y-37237069D01*
X3200703Y-37251354D01*
X3172131Y-37265640D01*
X3143560Y-37265640D01*
X3114989Y-37251354D01*
X3100703Y-37237069D01*
X3086417Y-37208497D01*
X3072131Y-37151354D01*
X3072131Y-37079926D01*
X3086417Y-37022783D01*
X3100703Y-36994212D01*
X3114989Y-36979926D01*
X3143560Y-36965640D01*
X3372131Y-37237069D02*
X3386417Y-37251354D01*
X3372131Y-37265640D01*
X3357846Y-37251354D01*
X3372131Y-37237069D01*
X3372131Y-37265640D01*
X3486417Y-36965640D02*
X3672131Y-36965640D01*
X3572131Y-37079926D01*
X3614989Y-37079926D01*
X3643560Y-37094212D01*
X3657846Y-37108497D01*
X3672131Y-37137069D01*
X3672131Y-37208497D01*
X3657846Y-37237069D01*
X3643560Y-37251354D01*
X3614989Y-37265640D01*
X3529274Y-37265640D01*
X3500703Y-37251354D01*
X3486417Y-37237069D01*
X3772131Y-36965640D02*
X3957846Y-36965640D01*
X3857846Y-37079926D01*
X3900703Y-37079926D01*
X3929274Y-37094212D01*
X3943560Y-37108497D01*
X3957846Y-37137069D01*
X3957846Y-37208497D01*
X3943560Y-37237069D01*
X3929274Y-37251354D01*
X3900703Y-37265640D01*
X3814989Y-37265640D01*
X3786417Y-37251354D01*
X3772131Y-37237069D01*
X4243560Y-37265640D02*
X4072131Y-37265640D01*
X4157846Y-37265640D02*
X4157846Y-36965640D01*
X4129274Y-37008497D01*
X4100703Y-37037069D01*
X4072131Y-37051354D01*
X4357846Y-36965640D02*
X4357846Y-37022783D01*
X4472132Y-36965640D02*
X4472132Y-37022783D01*
X4914989Y-37379926D02*
X4900703Y-37365640D01*
X4872132Y-37322783D01*
X4857846Y-37294212D01*
X4843560Y-37251354D01*
X4829274Y-37179926D01*
X4829274Y-37122783D01*
X4843560Y-37051354D01*
X4857846Y-37008497D01*
X4872132Y-36979926D01*
X4900703Y-36937069D01*
X4914989Y-36922783D01*
X5186417Y-37265640D02*
X5014989Y-37265640D01*
X5100703Y-37265640D02*
X5100703Y-36965640D01*
X5072132Y-37008497D01*
X5043560Y-37037069D01*
X5014989Y-37051354D01*
X5543560Y-37265640D02*
X5543560Y-36965640D01*
X5672131Y-37265640D02*
X5672131Y-37108497D01*
X5657846Y-37079926D01*
X5629274Y-37065640D01*
X5586417Y-37065640D01*
X5557846Y-37079926D01*
X5543560Y-37094212D01*
X5857846Y-37265640D02*
X5829274Y-37251354D01*
X5814989Y-37237069D01*
X5800703Y-37208497D01*
X5800703Y-37122783D01*
X5814989Y-37094212D01*
X5829274Y-37079926D01*
X5857846Y-37065640D01*
X5900703Y-37065640D01*
X5929274Y-37079926D01*
X5943560Y-37094212D01*
X5957846Y-37122783D01*
X5957846Y-37208497D01*
X5943560Y-37237069D01*
X5929274Y-37251354D01*
X5900703Y-37265640D01*
X5857846Y-37265640D01*
X6129274Y-37265640D02*
X6100703Y-37251354D01*
X6086417Y-37222783D01*
X6086417Y-36965640D01*
X6357846Y-37251354D02*
X6329274Y-37265640D01*
X6272131Y-37265640D01*
X6243560Y-37251354D01*
X6229274Y-37222783D01*
X6229274Y-37108497D01*
X6243560Y-37079926D01*
X6272131Y-37065640D01*
X6329274Y-37065640D01*
X6357846Y-37079926D01*
X6372131Y-37108497D01*
X6372131Y-37137069D01*
X6229274Y-37165640D01*
X6472131Y-37379926D02*
X6486417Y-37365640D01*
X6514989Y-37322783D01*
X6529274Y-37294212D01*
X6543560Y-37251354D01*
X6557846Y-37179926D01*
X6557846Y-37122783D01*
X6543560Y-37051354D01*
X6529274Y-37008497D01*
X6514989Y-36979926D01*
X6486417Y-36937069D01*
X6472131Y-36922783D01*
M02*
