G04 #@! TF.GenerationSoftware,KiCad,Pcbnew,(5.1.4)-1*
G04 #@! TF.CreationDate,2025-05-28T14:17:52-04:00*
G04 #@! TF.ProjectId,ThumbsUp,5468756d-6273-4557-902e-6b696361645f,rev?*
G04 #@! TF.SameCoordinates,Original*
G04 #@! TF.FileFunction,Other,User*
%FSLAX46Y46*%
G04 Gerber Fmt 4.6, Leading zero omitted, Abs format (unit mm)*
G04 Created by KiCad (PCBNEW (5.1.4)-1) date 2025-05-28 14:17:52*
%MOMM*%
%LPD*%
G04 APERTURE LIST*
%ADD10C,0.127000*%
%ADD11C,0.150000*%
%ADD12C,0.120000*%
G04 APERTURE END LIST*
D10*
X190140734Y-219397507D02*
X193942188Y-217861620D01*
X188679768Y-215781490D02*
X190140734Y-219397507D01*
X198684021Y-209043172D02*
X200332290Y-213122781D01*
X195047342Y-215258038D02*
G75*
G03X193942188Y-217861620I749214J-1854368D01*
G01*
X198684021Y-209043172D02*
X190061211Y-212527013D01*
D11*
X201559073Y-211322101D02*
X199204026Y-212273602D01*
X187193287Y-217126256D02*
X188144788Y-219481303D01*
X199204026Y-212273602D02*
X198252526Y-209918555D01*
X193432122Y-216591078D02*
G75*
G03X193432122Y-216591078I-1524000J0D01*
G01*
X188144788Y-219481303D02*
X190499835Y-218529802D01*
X200607573Y-208967054D02*
X201559073Y-211322101D01*
D10*
X190061211Y-212527013D02*
G75*
G03X188679768Y-215781490I936517J-2317960D01*
G01*
D11*
X198252526Y-209918555D02*
X200607573Y-208967054D01*
D10*
X195047342Y-215258039D02*
X200332290Y-213122781D01*
D11*
X198368238Y-211857279D02*
G75*
G03X198368238Y-211857279I-1524000J0D01*
G01*
X189548334Y-216174755D02*
X187193287Y-217126256D01*
X190499835Y-218529802D02*
X189548334Y-216174755D01*
D12*
X187752584Y-216156096D02*
X186816068Y-213838136D01*
X186816068Y-213838136D02*
X189134028Y-212901620D01*
D10*
X229119786Y-214434295D02*
X232921240Y-212898408D01*
X227658820Y-210818278D02*
X229119786Y-214434295D01*
X237663073Y-204079960D02*
X239311342Y-208159569D01*
X234026394Y-210294826D02*
G75*
G03X232921240Y-212898408I749214J-1854368D01*
G01*
X237663073Y-204079960D02*
X229040263Y-207563801D01*
D11*
X240538125Y-206358889D02*
X238183078Y-207310390D01*
X226172339Y-212163044D02*
X227123840Y-214518091D01*
X238183078Y-207310390D02*
X237231578Y-204955343D01*
X232411174Y-211627866D02*
G75*
G03X232411174Y-211627866I-1524000J0D01*
G01*
X227123840Y-214518091D02*
X229478887Y-213566590D01*
X239586625Y-204003842D02*
X240538125Y-206358889D01*
D10*
X229040263Y-207563801D02*
G75*
G03X227658820Y-210818278I936517J-2317960D01*
G01*
D11*
X237231578Y-204955343D02*
X239586625Y-204003842D01*
D10*
X234026394Y-210294827D02*
X239311342Y-208159569D01*
D11*
X237347290Y-206894067D02*
G75*
G03X237347290Y-206894067I-1524000J0D01*
G01*
X228527386Y-211211543D02*
X226172339Y-212163044D01*
X229478887Y-213566590D02*
X228527386Y-211211543D01*
D12*
X226731636Y-211192884D02*
X225795120Y-208874924D01*
X225795120Y-208874924D02*
X228113080Y-207938408D01*
D10*
X209630260Y-216915901D02*
X213431714Y-215380014D01*
X208169294Y-213299884D02*
X209630260Y-216915901D01*
X218173547Y-206561566D02*
X219821816Y-210641175D01*
X214536868Y-212776432D02*
G75*
G03X213431714Y-215380014I749214J-1854368D01*
G01*
X218173547Y-206561566D02*
X209550737Y-210045407D01*
D11*
X221048599Y-208840495D02*
X218693552Y-209791996D01*
X206682813Y-214644650D02*
X207634314Y-216999697D01*
X218693552Y-209791996D02*
X217742052Y-207436949D01*
X212921648Y-214109472D02*
G75*
G03X212921648Y-214109472I-1524000J0D01*
G01*
X207634314Y-216999697D02*
X209989361Y-216048196D01*
X220097099Y-206485448D02*
X221048599Y-208840495D01*
D10*
X209550737Y-210045407D02*
G75*
G03X208169294Y-213299884I936517J-2317960D01*
G01*
D11*
X217742052Y-207436949D02*
X220097099Y-206485448D01*
D10*
X214536868Y-212776433D02*
X219821816Y-210641175D01*
D11*
X217857764Y-209375673D02*
G75*
G03X217857764Y-209375673I-1524000J0D01*
G01*
X209037860Y-213693149D02*
X206682813Y-214644650D01*
X209989361Y-216048196D02*
X209037860Y-213693149D01*
D12*
X207242110Y-213674490D02*
X206305594Y-211356530D01*
X206305594Y-211356530D02*
X208623554Y-210420014D01*
D10*
X245237853Y-203608034D02*
X249039307Y-202072147D01*
X243776887Y-199992017D02*
X245237853Y-203608034D01*
X253781140Y-193253699D02*
X255429409Y-197333308D01*
X250144461Y-199468565D02*
G75*
G03X249039307Y-202072147I749214J-1854368D01*
G01*
X253781140Y-193253699D02*
X245158330Y-196737540D01*
D11*
X256656192Y-195532628D02*
X254301145Y-196484129D01*
X242290406Y-201336783D02*
X243241907Y-203691830D01*
X254301145Y-196484129D02*
X253349645Y-194129082D01*
X248529241Y-200801605D02*
G75*
G03X248529241Y-200801605I-1524000J0D01*
G01*
X243241907Y-203691830D02*
X245596954Y-202740329D01*
X255704692Y-193177581D02*
X256656192Y-195532628D01*
D10*
X245158330Y-196737540D02*
G75*
G03X243776887Y-199992017I936517J-2317960D01*
G01*
D11*
X253349645Y-194129082D02*
X255704692Y-193177581D01*
D10*
X250144461Y-199468566D02*
X255429409Y-197333308D01*
D11*
X253465357Y-196067806D02*
G75*
G03X253465357Y-196067806I-1524000J0D01*
G01*
X244645453Y-200385282D02*
X242290406Y-201336783D01*
X245596954Y-202740329D02*
X244645453Y-200385282D01*
D12*
X242849703Y-200366623D02*
X241913187Y-198048663D01*
X241913187Y-198048663D02*
X244231147Y-197112147D01*
D10*
X230982836Y-269765381D02*
X234784290Y-268229494D01*
X229521870Y-266149364D02*
X230982836Y-269765381D01*
X239526123Y-259411046D02*
X241174392Y-263490655D01*
X235889444Y-265625912D02*
G75*
G03X234784290Y-268229494I749214J-1854368D01*
G01*
X239526123Y-259411046D02*
X230903313Y-262894887D01*
D11*
X242401175Y-261689975D02*
X240046128Y-262641476D01*
X228035389Y-267494130D02*
X228986890Y-269849177D01*
X240046128Y-262641476D02*
X239094628Y-260286429D01*
X234274224Y-266958952D02*
G75*
G03X234274224Y-266958952I-1524000J0D01*
G01*
X228986890Y-269849177D02*
X231341937Y-268897676D01*
X241449675Y-259334928D02*
X242401175Y-261689975D01*
D10*
X230903313Y-262894887D02*
G75*
G03X229521870Y-266149364I936517J-2317960D01*
G01*
D11*
X239094628Y-260286429D02*
X241449675Y-259334928D01*
D10*
X235889444Y-265625913D02*
X241174392Y-263490655D01*
D11*
X239210340Y-262225153D02*
G75*
G03X239210340Y-262225153I-1524000J0D01*
G01*
X230390436Y-266542629D02*
X228035389Y-267494130D01*
X231341937Y-268897676D02*
X230390436Y-266542629D01*
D12*
X228594686Y-266523970D02*
X227658170Y-264206010D01*
X227658170Y-264206010D02*
X229976130Y-263269494D01*
D10*
X223865311Y-252148887D02*
X227666765Y-250613000D01*
X222404345Y-248532870D02*
X223865311Y-252148887D01*
X232408598Y-241794552D02*
X234056867Y-245874161D01*
X228771919Y-248009418D02*
G75*
G03X227666765Y-250613000I749214J-1854368D01*
G01*
X232408598Y-241794552D02*
X223785788Y-245278393D01*
D11*
X235283650Y-244073481D02*
X232928603Y-245024982D01*
X220917864Y-249877636D02*
X221869365Y-252232683D01*
X232928603Y-245024982D02*
X231977103Y-242669935D01*
X227156699Y-249342458D02*
G75*
G03X227156699Y-249342458I-1524000J0D01*
G01*
X221869365Y-252232683D02*
X224224412Y-251281182D01*
X234332150Y-241718434D02*
X235283650Y-244073481D01*
D10*
X223785788Y-245278393D02*
G75*
G03X222404345Y-248532870I936517J-2317960D01*
G01*
D11*
X231977103Y-242669935D02*
X234332150Y-241718434D01*
D10*
X228771919Y-248009419D02*
X234056867Y-245874161D01*
D11*
X232092815Y-244608659D02*
G75*
G03X232092815Y-244608659I-1524000J0D01*
G01*
X223272911Y-248926135D02*
X220917864Y-249877636D01*
X224224412Y-251281182D02*
X223272911Y-248926135D01*
D12*
X221477161Y-248907476D02*
X220540645Y-246589516D01*
X220540645Y-246589516D02*
X222858605Y-245653000D01*
D10*
X266590429Y-256457514D02*
X270391883Y-254921627D01*
X265129463Y-252841497D02*
X266590429Y-256457514D01*
X275133716Y-246103179D02*
X276781985Y-250182788D01*
X271497037Y-252318045D02*
G75*
G03X270391883Y-254921627I749214J-1854368D01*
G01*
X275133716Y-246103179D02*
X266510906Y-249587020D01*
D11*
X278008768Y-248382108D02*
X275653721Y-249333609D01*
X263642982Y-254186263D02*
X264594483Y-256541310D01*
X275653721Y-249333609D02*
X274702221Y-246978562D01*
X269881817Y-253651085D02*
G75*
G03X269881817Y-253651085I-1524000J0D01*
G01*
X264594483Y-256541310D02*
X266949530Y-255589809D01*
X277057268Y-246027061D02*
X278008768Y-248382108D01*
D10*
X266510906Y-249587020D02*
G75*
G03X265129463Y-252841497I936517J-2317960D01*
G01*
D11*
X274702221Y-246978562D02*
X277057268Y-246027061D01*
D10*
X271497037Y-252318046D02*
X276781985Y-250182788D01*
D11*
X274817933Y-248917286D02*
G75*
G03X274817933Y-248917286I-1524000J0D01*
G01*
X265998029Y-253234762D02*
X263642982Y-254186263D01*
X266949530Y-255589809D02*
X265998029Y-253234762D01*
D12*
X264202279Y-253216103D02*
X263265763Y-250898143D01*
X263265763Y-250898143D02*
X265583723Y-249961627D01*
D10*
X216747785Y-234532394D02*
X220549239Y-232996507D01*
X215286819Y-230916377D02*
X216747785Y-234532394D01*
X225291072Y-224178059D02*
X226939341Y-228257668D01*
X221654393Y-230392925D02*
G75*
G03X220549239Y-232996507I749214J-1854368D01*
G01*
X225291072Y-224178059D02*
X216668262Y-227661900D01*
D11*
X228166124Y-226456988D02*
X225811077Y-227408489D01*
X213800338Y-232261143D02*
X214751839Y-234616190D01*
X225811077Y-227408489D02*
X224859577Y-225053442D01*
X220039173Y-231725965D02*
G75*
G03X220039173Y-231725965I-1524000J0D01*
G01*
X214751839Y-234616190D02*
X217106886Y-233664689D01*
X227214624Y-224101941D02*
X228166124Y-226456988D01*
D10*
X216668262Y-227661900D02*
G75*
G03X215286819Y-230916377I936517J-2317960D01*
G01*
D11*
X224859577Y-225053442D02*
X227214624Y-224101941D01*
D10*
X221654393Y-230392926D02*
X226939341Y-228257668D01*
D11*
X224975289Y-226992166D02*
G75*
G03X224975289Y-226992166I-1524000J0D01*
G01*
X216155385Y-231309642D02*
X213800338Y-232261143D01*
X217106886Y-233664689D02*
X216155385Y-231309642D01*
D12*
X214359635Y-231290983D02*
X213423119Y-228973023D01*
X213423119Y-228973023D02*
X215741079Y-228036507D01*
D10*
X259472904Y-238841021D02*
X263274358Y-237305134D01*
X258011938Y-235225004D02*
X259472904Y-238841021D01*
X268016191Y-228486686D02*
X269664460Y-232566295D01*
X264379512Y-234701552D02*
G75*
G03X263274358Y-237305134I749214J-1854368D01*
G01*
X268016191Y-228486686D02*
X259393381Y-231970527D01*
D11*
X270891243Y-230765615D02*
X268536196Y-231717116D01*
X256525457Y-236569770D02*
X257476958Y-238924817D01*
X268536196Y-231717116D02*
X267584696Y-229362069D01*
X262764292Y-236034592D02*
G75*
G03X262764292Y-236034592I-1524000J0D01*
G01*
X257476958Y-238924817D02*
X259832005Y-237973316D01*
X269939743Y-228410568D02*
X270891243Y-230765615D01*
D10*
X259393381Y-231970527D02*
G75*
G03X258011938Y-235225004I936517J-2317960D01*
G01*
D11*
X267584696Y-229362069D02*
X269939743Y-228410568D01*
D10*
X264379512Y-234701553D02*
X269664460Y-232566295D01*
D11*
X267700408Y-231300793D02*
G75*
G03X267700408Y-231300793I-1524000J0D01*
G01*
X258880504Y-235618269D02*
X256525457Y-236569770D01*
X259832005Y-237973316D02*
X258880504Y-235618269D01*
D12*
X257084754Y-235599610D02*
X256148238Y-233281650D01*
X256148238Y-233281650D02*
X258466198Y-232345134D01*
D10*
X57073712Y-215552951D02*
X53272258Y-214017064D01*
X55612746Y-219168968D02*
X57073712Y-215552951D01*
X43735460Y-217066570D02*
X45383729Y-212986961D01*
X50668678Y-215122218D02*
G75*
G03X53272258Y-214017064I749213J1854367D01*
G01*
X43735460Y-217066570D02*
X52358270Y-220550411D01*
D11*
X43250398Y-213430066D02*
X45605445Y-214381567D01*
X57616185Y-219234221D02*
X58567686Y-216879174D01*
X45605445Y-214381567D02*
X44653945Y-216736614D01*
X55376851Y-216343996D02*
G75*
G03X55376851Y-216343996I-1524000J0D01*
G01*
X58567686Y-216879174D02*
X56212639Y-215927673D01*
X42298898Y-215785113D02*
X43250398Y-213430066D01*
D10*
X52358271Y-220550411D02*
G75*
G03X55612746Y-219168968I936516J2317959D01*
G01*
D11*
X44653945Y-216736614D02*
X42298898Y-215785113D01*
D10*
X50668677Y-215122219D02*
X45383729Y-212986961D01*
D11*
X48537733Y-216320291D02*
G75*
G03X48537733Y-216320291I-1524000J0D01*
G01*
X55261138Y-218282720D02*
X57616185Y-219234221D01*
X56212639Y-215927673D02*
X55261138Y-218282720D01*
D12*
X56539930Y-219543575D02*
X55603414Y-221861534D01*
X55603414Y-221861534D02*
X53285454Y-220925018D01*
D10*
X40955645Y-204726691D02*
X37154191Y-203190804D01*
X39494679Y-208342708D02*
X40955645Y-204726691D01*
X27617393Y-206240310D02*
X29265662Y-202160701D01*
X34550611Y-204295958D02*
G75*
G03X37154191Y-203190804I749213J1854367D01*
G01*
X27617393Y-206240310D02*
X36240203Y-209724151D01*
D11*
X27132331Y-202603806D02*
X29487378Y-203555307D01*
X41498118Y-208407961D02*
X42449619Y-206052914D01*
X29487378Y-203555307D02*
X28535878Y-205910354D01*
X39258784Y-205517736D02*
G75*
G03X39258784Y-205517736I-1524000J0D01*
G01*
X42449619Y-206052914D02*
X40094572Y-205101413D01*
X26180831Y-204958853D02*
X27132331Y-202603806D01*
D10*
X36240204Y-209724151D02*
G75*
G03X39494679Y-208342708I936516J2317959D01*
G01*
D11*
X28535878Y-205910354D02*
X26180831Y-204958853D01*
D10*
X34550610Y-204295959D02*
X29265662Y-202160701D01*
D11*
X32419666Y-205494031D02*
G75*
G03X32419666Y-205494031I-1524000J0D01*
G01*
X39143071Y-207456460D02*
X41498118Y-208407961D01*
X40094572Y-205101413D02*
X39143071Y-207456460D01*
D12*
X40421863Y-208717315D02*
X39485347Y-211035274D01*
X39485347Y-211035274D02*
X37167387Y-210098758D01*
D10*
X252355379Y-221224528D02*
X256156833Y-219688641D01*
X250894413Y-217608511D02*
X252355379Y-221224528D01*
X260898666Y-210870193D02*
X262546935Y-214949802D01*
X257261987Y-217085059D02*
G75*
G03X256156833Y-219688641I749214J-1854368D01*
G01*
X260898666Y-210870193D02*
X252275856Y-214354034D01*
D11*
X263773718Y-213149122D02*
X261418671Y-214100623D01*
X249407932Y-218953277D02*
X250359433Y-221308324D01*
X261418671Y-214100623D02*
X260467171Y-211745576D01*
X255646767Y-218418099D02*
G75*
G03X255646767Y-218418099I-1524000J0D01*
G01*
X250359433Y-221308324D02*
X252714480Y-220356823D01*
X262822218Y-210794075D02*
X263773718Y-213149122D01*
D10*
X252275856Y-214354034D02*
G75*
G03X250894413Y-217608511I936517J-2317960D01*
G01*
D11*
X260467171Y-211745576D02*
X262822218Y-210794075D01*
D10*
X257261987Y-217085060D02*
X262546935Y-214949802D01*
D11*
X260582883Y-213684300D02*
G75*
G03X260582883Y-213684300I-1524000J0D01*
G01*
X251762979Y-218001776D02*
X249407932Y-218953277D01*
X252714480Y-220356823D02*
X251762979Y-218001776D01*
D12*
X249967229Y-217983117D02*
X249030713Y-215665157D01*
X249030713Y-215665157D02*
X251348673Y-214728641D01*
D10*
X243354837Y-249667281D02*
X247156291Y-248131394D01*
X241893871Y-246051264D02*
X243354837Y-249667281D01*
X251898124Y-239312946D02*
X253546393Y-243392555D01*
X248261445Y-245527812D02*
G75*
G03X247156291Y-248131394I749214J-1854368D01*
G01*
X251898124Y-239312946D02*
X243275314Y-242796787D01*
D11*
X254773176Y-241591875D02*
X252418129Y-242543376D01*
X240407390Y-247396030D02*
X241358891Y-249751077D01*
X252418129Y-242543376D02*
X251466629Y-240188329D01*
X246646225Y-246860852D02*
G75*
G03X246646225Y-246860852I-1524000J0D01*
G01*
X241358891Y-249751077D02*
X243713938Y-248799576D01*
X253821676Y-239236828D02*
X254773176Y-241591875D01*
D10*
X243275314Y-242796787D02*
G75*
G03X241893871Y-246051264I936517J-2317960D01*
G01*
D11*
X251466629Y-240188329D02*
X253821676Y-239236828D01*
D10*
X248261445Y-245527813D02*
X253546393Y-243392555D01*
D11*
X251582341Y-242127053D02*
G75*
G03X251582341Y-242127053I-1524000J0D01*
G01*
X242762437Y-246444529D02*
X240407390Y-247396030D01*
X243713938Y-248799576D02*
X242762437Y-246444529D01*
D12*
X240966687Y-246425870D02*
X240030171Y-244107910D01*
X240030171Y-244107910D02*
X242348131Y-243171394D01*
D10*
X236237312Y-232050788D02*
X240038766Y-230514901D01*
X234776346Y-228434771D02*
X236237312Y-232050788D01*
X244780599Y-221696453D02*
X246428868Y-225776062D01*
X241143920Y-227911319D02*
G75*
G03X240038766Y-230514901I749214J-1854368D01*
G01*
X244780599Y-221696453D02*
X236157789Y-225180294D01*
D11*
X247655651Y-223975382D02*
X245300604Y-224926883D01*
X233289865Y-229779537D02*
X234241366Y-232134584D01*
X245300604Y-224926883D02*
X244349104Y-222571836D01*
X239528700Y-229244359D02*
G75*
G03X239528700Y-229244359I-1524000J0D01*
G01*
X234241366Y-232134584D02*
X236596413Y-231183083D01*
X246704151Y-221620335D02*
X247655651Y-223975382D01*
D10*
X236157789Y-225180294D02*
G75*
G03X234776346Y-228434771I936517J-2317960D01*
G01*
D11*
X244349104Y-222571836D02*
X246704151Y-221620335D01*
D10*
X241143920Y-227911320D02*
X246428868Y-225776062D01*
D11*
X244464816Y-224510560D02*
G75*
G03X244464816Y-224510560I-1524000J0D01*
G01*
X235644912Y-228828036D02*
X233289865Y-229779537D01*
X236596413Y-231183083D02*
X235644912Y-228828036D01*
D12*
X233849162Y-228809377D02*
X232912646Y-226491417D01*
X232912646Y-226491417D02*
X235230606Y-225554901D01*
D10*
X96052765Y-220516163D02*
X92251311Y-218980276D01*
X94591799Y-224132180D02*
X96052765Y-220516163D01*
X82714513Y-222029782D02*
X84362782Y-217950173D01*
X89647731Y-220085430D02*
G75*
G03X92251311Y-218980276I749213J1854367D01*
G01*
X82714513Y-222029782D02*
X91337323Y-225513623D01*
D11*
X82229451Y-218393278D02*
X84584498Y-219344779D01*
X96595238Y-224197433D02*
X97546739Y-221842386D01*
X84584498Y-219344779D02*
X83632998Y-221699826D01*
X94355904Y-221307208D02*
G75*
G03X94355904Y-221307208I-1524000J0D01*
G01*
X97546739Y-221842386D02*
X95191692Y-220890885D01*
X81277951Y-220748325D02*
X82229451Y-218393278D01*
D10*
X91337324Y-225513623D02*
G75*
G03X94591799Y-224132180I936516J2317959D01*
G01*
D11*
X83632998Y-221699826D02*
X81277951Y-220748325D01*
D10*
X89647730Y-220085431D02*
X84362782Y-217950173D01*
D11*
X87516786Y-221283503D02*
G75*
G03X87516786Y-221283503I-1524000J0D01*
G01*
X94240191Y-223245932D02*
X96595238Y-224197433D01*
X95191692Y-220890885D02*
X94240191Y-223245932D01*
D12*
X95518983Y-224506787D02*
X94582467Y-226824746D01*
X94582467Y-226824746D02*
X92264507Y-225888230D01*
D10*
X76563238Y-218034557D02*
X72761784Y-216498670D01*
X75102272Y-221650574D02*
X76563238Y-218034557D01*
X63224986Y-219548176D02*
X64873255Y-215468567D01*
X70158204Y-217603824D02*
G75*
G03X72761784Y-216498670I749213J1854367D01*
G01*
X63224986Y-219548176D02*
X71847796Y-223032017D01*
D11*
X62739924Y-215911672D02*
X65094971Y-216863173D01*
X77105711Y-221715827D02*
X78057212Y-219360780D01*
X65094971Y-216863173D02*
X64143471Y-219218220D01*
X74866377Y-218825602D02*
G75*
G03X74866377Y-218825602I-1524000J0D01*
G01*
X78057212Y-219360780D02*
X75702165Y-218409279D01*
X61788424Y-218266719D02*
X62739924Y-215911672D01*
D10*
X71847797Y-223032017D02*
G75*
G03X75102272Y-221650574I936516J2317959D01*
G01*
D11*
X64143471Y-219218220D02*
X61788424Y-218266719D01*
D10*
X70158203Y-217603825D02*
X64873255Y-215468567D01*
D11*
X68027259Y-218801897D02*
G75*
G03X68027259Y-218801897I-1524000J0D01*
G01*
X74750664Y-220764326D02*
X77105711Y-221715827D01*
X75702165Y-218409279D02*
X74750664Y-220764326D01*
D12*
X76029456Y-222025181D02*
X75092940Y-224343140D01*
X75092940Y-224343140D02*
X72774980Y-223406624D01*
D10*
X250472362Y-267283775D02*
X254273816Y-265747888D01*
X249011396Y-263667758D02*
X250472362Y-267283775D01*
X259015649Y-256929440D02*
X260663918Y-261009049D01*
X255378970Y-263144306D02*
G75*
G03X254273816Y-265747888I749214J-1854368D01*
G01*
X259015649Y-256929440D02*
X250392839Y-260413281D01*
D11*
X261890701Y-259208369D02*
X259535654Y-260159870D01*
X247524915Y-265012524D02*
X248476416Y-267367571D01*
X259535654Y-260159870D02*
X258584154Y-257804823D01*
X253763750Y-264477346D02*
G75*
G03X253763750Y-264477346I-1524000J0D01*
G01*
X248476416Y-267367571D02*
X250831463Y-266416070D01*
X260939201Y-256853322D02*
X261890701Y-259208369D01*
D10*
X250392839Y-260413281D02*
G75*
G03X249011396Y-263667758I936517J-2317960D01*
G01*
D11*
X258584154Y-257804823D02*
X260939201Y-256853322D01*
D10*
X255378970Y-263144307D02*
X260663918Y-261009049D01*
D11*
X258699866Y-259743547D02*
G75*
G03X258699866Y-259743547I-1524000J0D01*
G01*
X249879962Y-264061023D02*
X247524915Y-265012524D01*
X250831463Y-266416070D02*
X249879962Y-264061023D01*
D12*
X248084212Y-264042364D02*
X247147696Y-261724404D01*
X247147696Y-261724404D02*
X249465656Y-260787888D01*
D10*
X204375785Y-254630493D02*
X208177239Y-253094606D01*
X202914819Y-251014476D02*
X204375785Y-254630493D01*
X212919072Y-244276158D02*
X214567341Y-248355767D01*
X209282393Y-250491024D02*
G75*
G03X208177239Y-253094606I749214J-1854368D01*
G01*
X212919072Y-244276158D02*
X204296262Y-247759999D01*
D11*
X215794124Y-246555087D02*
X213439077Y-247506588D01*
X201428338Y-252359242D02*
X202379839Y-254714289D01*
X213439077Y-247506588D02*
X212487577Y-245151541D01*
X207667173Y-251824064D02*
G75*
G03X207667173Y-251824064I-1524000J0D01*
G01*
X202379839Y-254714289D02*
X204734886Y-253762788D01*
X214842624Y-244200040D02*
X215794124Y-246555087D01*
D10*
X204296262Y-247759999D02*
G75*
G03X202914819Y-251014476I936517J-2317960D01*
G01*
D11*
X212487577Y-245151541D02*
X214842624Y-244200040D01*
D10*
X209282393Y-250491025D02*
X214567341Y-248355767D01*
D11*
X212603289Y-247090265D02*
G75*
G03X212603289Y-247090265I-1524000J0D01*
G01*
X203783385Y-251407741D02*
X201428338Y-252359242D01*
X204734886Y-253762788D02*
X203783385Y-251407741D01*
D12*
X201987635Y-251389082D02*
X201051119Y-249071122D01*
X201051119Y-249071122D02*
X203369079Y-248134606D01*
D10*
X197258259Y-237014000D02*
X201059713Y-235478113D01*
X195797293Y-233397983D02*
X197258259Y-237014000D01*
X205801546Y-226659665D02*
X207449815Y-230739274D01*
X202164867Y-232874531D02*
G75*
G03X201059713Y-235478113I749214J-1854368D01*
G01*
X205801546Y-226659665D02*
X197178736Y-230143506D01*
D11*
X208676598Y-228938594D02*
X206321551Y-229890095D01*
X194310812Y-234742749D02*
X195262313Y-237097796D01*
X206321551Y-229890095D02*
X205370051Y-227535048D01*
X200549647Y-234207571D02*
G75*
G03X200549647Y-234207571I-1524000J0D01*
G01*
X195262313Y-237097796D02*
X197617360Y-236146295D01*
X207725098Y-226583547D02*
X208676598Y-228938594D01*
D10*
X197178736Y-230143506D02*
G75*
G03X195797293Y-233397983I936517J-2317960D01*
G01*
D11*
X205370051Y-227535048D02*
X207725098Y-226583547D01*
D10*
X202164867Y-232874532D02*
X207449815Y-230739274D01*
D11*
X205485763Y-229473772D02*
G75*
G03X205485763Y-229473772I-1524000J0D01*
G01*
X196665859Y-233791248D02*
X194310812Y-234742749D01*
X197617360Y-236146295D02*
X196665859Y-233791248D01*
D12*
X194870109Y-233772589D02*
X193933593Y-231454629D01*
X193933593Y-231454629D02*
X196251553Y-230518113D01*
D10*
X211493310Y-272246987D02*
X215294764Y-270711100D01*
X210032344Y-268630970D02*
X211493310Y-272246987D01*
X220036597Y-261892652D02*
X221684866Y-265972261D01*
X216399918Y-268107518D02*
G75*
G03X215294764Y-270711100I749214J-1854368D01*
G01*
X220036597Y-261892652D02*
X211413787Y-265376493D01*
D11*
X222911649Y-264171581D02*
X220556602Y-265123082D01*
X208545863Y-269975736D02*
X209497364Y-272330783D01*
X220556602Y-265123082D02*
X219605102Y-262768035D01*
X214784698Y-269440558D02*
G75*
G03X214784698Y-269440558I-1524000J0D01*
G01*
X209497364Y-272330783D02*
X211852411Y-271379282D01*
X221960149Y-261816534D02*
X222911649Y-264171581D01*
D10*
X211413787Y-265376493D02*
G75*
G03X210032344Y-268630970I936517J-2317960D01*
G01*
D11*
X219605102Y-262768035D02*
X221960149Y-261816534D01*
D10*
X216399918Y-268107519D02*
X221684866Y-265972261D01*
D11*
X219720814Y-264706759D02*
G75*
G03X219720814Y-264706759I-1524000J0D01*
G01*
X210900910Y-269024235D02*
X208545863Y-269975736D01*
X211852411Y-271379282D02*
X210900910Y-269024235D01*
D12*
X209105160Y-269005576D02*
X208168644Y-266687616D01*
X208168644Y-266687616D02*
X210486604Y-265751100D01*
D10*
X49956187Y-233169445D02*
X46154733Y-231633558D01*
X48495221Y-236785462D02*
X49956187Y-233169445D01*
X36617935Y-234683064D02*
X38266204Y-230603455D01*
X43551153Y-232738712D02*
G75*
G03X46154733Y-231633558I749213J1854367D01*
G01*
X36617935Y-234683064D02*
X45240745Y-238166905D01*
D11*
X36132873Y-231046560D02*
X38487920Y-231998061D01*
X50498660Y-236850715D02*
X51450161Y-234495668D01*
X38487920Y-231998061D02*
X37536420Y-234353108D01*
X48259326Y-233960490D02*
G75*
G03X48259326Y-233960490I-1524000J0D01*
G01*
X51450161Y-234495668D02*
X49095114Y-233544167D01*
X35181373Y-233401607D02*
X36132873Y-231046560D01*
D10*
X45240746Y-238166905D02*
G75*
G03X48495221Y-236785462I936516J2317959D01*
G01*
D11*
X37536420Y-234353108D02*
X35181373Y-233401607D01*
D10*
X43551152Y-232738713D02*
X38266204Y-230603455D01*
D11*
X41420208Y-233936785D02*
G75*
G03X41420208Y-233936785I-1524000J0D01*
G01*
X48143613Y-235899214D02*
X50498660Y-236850715D01*
X49095114Y-233544167D02*
X48143613Y-235899214D01*
D12*
X49422405Y-237160069D02*
X48485889Y-239478028D01*
X48485889Y-239478028D02*
X46167929Y-238541512D01*
D10*
X88935239Y-238132657D02*
X85133785Y-236596770D01*
X87474273Y-241748674D02*
X88935239Y-238132657D01*
X75596987Y-239646276D02*
X77245256Y-235566667D01*
X82530205Y-237701924D02*
G75*
G03X85133785Y-236596770I749213J1854367D01*
G01*
X75596987Y-239646276D02*
X84219797Y-243130117D01*
D11*
X75111925Y-236009772D02*
X77466972Y-236961273D01*
X89477712Y-241813927D02*
X90429213Y-239458880D01*
X77466972Y-236961273D02*
X76515472Y-239316320D01*
X87238378Y-238923702D02*
G75*
G03X87238378Y-238923702I-1524000J0D01*
G01*
X90429213Y-239458880D02*
X88074166Y-238507379D01*
X74160425Y-238364819D02*
X75111925Y-236009772D01*
D10*
X84219798Y-243130117D02*
G75*
G03X87474273Y-241748674I936516J2317959D01*
G01*
D11*
X76515472Y-239316320D02*
X74160425Y-238364819D01*
D10*
X82530204Y-237701925D02*
X77245256Y-235566667D01*
D11*
X80399260Y-238899997D02*
G75*
G03X80399260Y-238899997I-1524000J0D01*
G01*
X87122665Y-240862426D02*
X89477712Y-241813927D01*
X88074166Y-238507379D02*
X87122665Y-240862426D01*
D12*
X88401457Y-242123281D02*
X87464941Y-244441240D01*
X87464941Y-244441240D02*
X85146981Y-243504724D01*
D10*
X19603070Y-257576170D02*
X15801616Y-256040283D01*
X18142104Y-261192187D02*
X19603070Y-257576170D01*
X6264818Y-259089789D02*
X7913087Y-255010180D01*
X13198036Y-257145437D02*
G75*
G03X15801616Y-256040283I749213J1854367D01*
G01*
X6264818Y-259089789D02*
X14887628Y-262573630D01*
D11*
X5779756Y-255453285D02*
X8134803Y-256404786D01*
X20145543Y-261257440D02*
X21097044Y-258902393D01*
X8134803Y-256404786D02*
X7183303Y-258759833D01*
X17906209Y-258367215D02*
G75*
G03X17906209Y-258367215I-1524000J0D01*
G01*
X21097044Y-258902393D02*
X18741997Y-257950892D01*
X4828256Y-257808332D02*
X5779756Y-255453285D01*
D10*
X14887629Y-262573630D02*
G75*
G03X18142104Y-261192187I936516J2317959D01*
G01*
D11*
X7183303Y-258759833D02*
X4828256Y-257808332D01*
D10*
X13198035Y-257145438D02*
X7913087Y-255010180D01*
D11*
X11067091Y-258343510D02*
G75*
G03X11067091Y-258343510I-1524000J0D01*
G01*
X17790496Y-260305939D02*
X20145543Y-261257440D01*
X18741997Y-257950892D02*
X17790496Y-260305939D01*
D12*
X19069288Y-261566794D02*
X18132772Y-263884753D01*
X18132772Y-263884753D02*
X15814812Y-262948237D01*
D10*
X55210663Y-270884037D02*
X51409209Y-269348150D01*
X53749697Y-274500054D02*
X55210663Y-270884037D01*
X41872411Y-272397656D02*
X43520680Y-268318047D01*
X48805629Y-270453304D02*
G75*
G03X51409209Y-269348150I749213J1854367D01*
G01*
X41872411Y-272397656D02*
X50495221Y-275881497D01*
D11*
X41387349Y-268761152D02*
X43742396Y-269712653D01*
X55753136Y-274565307D02*
X56704637Y-272210260D01*
X43742396Y-269712653D02*
X42790896Y-272067700D01*
X53513802Y-271675082D02*
G75*
G03X53513802Y-271675082I-1524000J0D01*
G01*
X56704637Y-272210260D02*
X54349590Y-271258759D01*
X40435849Y-271116199D02*
X41387349Y-268761152D01*
D10*
X50495222Y-275881497D02*
G75*
G03X53749697Y-274500054I936516J2317959D01*
G01*
D11*
X42790896Y-272067700D02*
X40435849Y-271116199D01*
D10*
X48805628Y-270453305D02*
X43520680Y-268318047D01*
D11*
X46674684Y-271651377D02*
G75*
G03X46674684Y-271651377I-1524000J0D01*
G01*
X53398089Y-273613806D02*
X55753136Y-274565307D01*
X54349590Y-271258759D02*
X53398089Y-273613806D01*
D12*
X54676881Y-274874661D02*
X53740365Y-277192620D01*
X53740365Y-277192620D02*
X51422405Y-276256104D01*
D10*
X81817714Y-255749150D02*
X78016260Y-254213263D01*
X80356748Y-259365167D02*
X81817714Y-255749150D01*
X68479462Y-257262769D02*
X70127731Y-253183160D01*
X75412680Y-255318417D02*
G75*
G03X78016260Y-254213263I749213J1854367D01*
G01*
X68479462Y-257262769D02*
X77102272Y-260746610D01*
D11*
X67994400Y-253626265D02*
X70349447Y-254577766D01*
X82360187Y-259430420D02*
X83311688Y-257075373D01*
X70349447Y-254577766D02*
X69397947Y-256932813D01*
X80120853Y-256540195D02*
G75*
G03X80120853Y-256540195I-1524000J0D01*
G01*
X83311688Y-257075373D02*
X80956641Y-256123872D01*
X67042900Y-255981312D02*
X67994400Y-253626265D01*
D10*
X77102273Y-260746610D02*
G75*
G03X80356748Y-259365167I936516J2317959D01*
G01*
D11*
X69397947Y-256932813D02*
X67042900Y-255981312D01*
D10*
X75412679Y-255318418D02*
X70127731Y-253183160D01*
D11*
X73281735Y-256516490D02*
G75*
G03X73281735Y-256516490I-1524000J0D01*
G01*
X80005140Y-258478919D02*
X82360187Y-259430420D01*
X80956641Y-256123872D02*
X80005140Y-258478919D01*
D12*
X81283932Y-259739774D02*
X80347416Y-262057733D01*
X80347416Y-262057733D02*
X78029456Y-261121217D01*
D10*
X35721136Y-268402431D02*
X31919682Y-266866544D01*
X34260170Y-272018448D02*
X35721136Y-268402431D01*
X22382884Y-269916050D02*
X24031153Y-265836441D01*
X29316102Y-267971698D02*
G75*
G03X31919682Y-266866544I749213J1854367D01*
G01*
X22382884Y-269916050D02*
X31005694Y-273399891D01*
D11*
X21897822Y-266279546D02*
X24252869Y-267231047D01*
X36263609Y-272083701D02*
X37215110Y-269728654D01*
X24252869Y-267231047D02*
X23301369Y-269586094D01*
X34024275Y-269193476D02*
G75*
G03X34024275Y-269193476I-1524000J0D01*
G01*
X37215110Y-269728654D02*
X34860063Y-268777153D01*
X20946322Y-268634593D02*
X21897822Y-266279546D01*
D10*
X31005695Y-273399891D02*
G75*
G03X34260170Y-272018448I936516J2317959D01*
G01*
D11*
X23301369Y-269586094D02*
X20946322Y-268634593D01*
D10*
X29316101Y-267971699D02*
X24031153Y-265836441D01*
D11*
X27185157Y-269169771D02*
G75*
G03X27185157Y-269169771I-1524000J0D01*
G01*
X33908562Y-271132200D02*
X36263609Y-272083701D01*
X34860063Y-268777153D02*
X33908562Y-271132200D01*
D12*
X35187354Y-272393055D02*
X34250838Y-274711014D01*
X34250838Y-274711014D02*
X31932878Y-273774498D01*
D10*
X42838662Y-250785938D02*
X39037208Y-249250051D01*
X41377696Y-254401955D02*
X42838662Y-250785938D01*
X29500410Y-252299557D02*
X31148679Y-248219948D01*
X36433628Y-250355205D02*
G75*
G03X39037208Y-249250051I749213J1854367D01*
G01*
X29500410Y-252299557D02*
X38123220Y-255783398D01*
D11*
X29015348Y-248663053D02*
X31370395Y-249614554D01*
X43381135Y-254467208D02*
X44332636Y-252112161D01*
X31370395Y-249614554D02*
X30418895Y-251969601D01*
X41141801Y-251576983D02*
G75*
G03X41141801Y-251576983I-1524000J0D01*
G01*
X44332636Y-252112161D02*
X41977589Y-251160660D01*
X28063848Y-251018100D02*
X29015348Y-248663053D01*
D10*
X38123221Y-255783398D02*
G75*
G03X41377696Y-254401955I936516J2317959D01*
G01*
D11*
X30418895Y-251969601D02*
X28063848Y-251018100D01*
D10*
X36433627Y-250355206D02*
X31148679Y-248219948D01*
D11*
X34302683Y-251553278D02*
G75*
G03X34302683Y-251553278I-1524000J0D01*
G01*
X41026088Y-253515707D02*
X43381135Y-254467208D01*
X41977589Y-251160660D02*
X41026088Y-253515707D01*
D12*
X42304880Y-254776562D02*
X41368364Y-257094521D01*
X41368364Y-257094521D02*
X39050404Y-256158005D01*
D10*
X74700189Y-273365643D02*
X70898735Y-271829756D01*
X73239223Y-276981660D02*
X74700189Y-273365643D01*
X61361937Y-274879262D02*
X63010206Y-270799653D01*
X68295155Y-272934910D02*
G75*
G03X70898735Y-271829756I749213J1854367D01*
G01*
X61361937Y-274879262D02*
X69984747Y-278363103D01*
D11*
X60876875Y-271242758D02*
X63231922Y-272194259D01*
X75242662Y-277046913D02*
X76194163Y-274691866D01*
X63231922Y-272194259D02*
X62280422Y-274549306D01*
X73003328Y-274156688D02*
G75*
G03X73003328Y-274156688I-1524000J0D01*
G01*
X76194163Y-274691866D02*
X73839116Y-273740365D01*
X59925375Y-273597805D02*
X60876875Y-271242758D01*
D10*
X69984748Y-278363103D02*
G75*
G03X73239223Y-276981660I936516J2317959D01*
G01*
D11*
X62280422Y-274549306D02*
X59925375Y-273597805D01*
D10*
X68295154Y-272934911D02*
X63010206Y-270799653D01*
D11*
X66164210Y-274132983D02*
G75*
G03X66164210Y-274132983I-1524000J0D01*
G01*
X72887615Y-276095412D02*
X75242662Y-277046913D01*
X73839116Y-273740365D02*
X72887615Y-276095412D01*
D12*
X74166407Y-277356267D02*
X73229891Y-279674226D01*
X73229891Y-279674226D02*
X70911931Y-278737710D01*
D10*
X69445713Y-235651051D02*
X65644259Y-234115164D01*
X67984747Y-239267068D02*
X69445713Y-235651051D01*
X56107461Y-237164670D02*
X57755730Y-233085061D01*
X63040679Y-235220318D02*
G75*
G03X65644259Y-234115164I749213J1854367D01*
G01*
X56107461Y-237164670D02*
X64730271Y-240648511D01*
D11*
X55622399Y-233528166D02*
X57977446Y-234479667D01*
X69988186Y-239332321D02*
X70939687Y-236977274D01*
X57977446Y-234479667D02*
X57025946Y-236834714D01*
X67748852Y-236442096D02*
G75*
G03X67748852Y-236442096I-1524000J0D01*
G01*
X70939687Y-236977274D02*
X68584640Y-236025773D01*
X54670899Y-235883213D02*
X55622399Y-233528166D01*
D10*
X64730272Y-240648511D02*
G75*
G03X67984747Y-239267068I936516J2317959D01*
G01*
D11*
X57025946Y-236834714D02*
X54670899Y-235883213D01*
D10*
X63040678Y-235220319D02*
X57755730Y-233085061D01*
D11*
X60909734Y-236418391D02*
G75*
G03X60909734Y-236418391I-1524000J0D01*
G01*
X67633139Y-238380820D02*
X69988186Y-239332321D01*
X68584640Y-236025773D02*
X67633139Y-238380820D01*
D12*
X68911931Y-239641675D02*
X67975415Y-241959634D01*
X67975415Y-241959634D02*
X65657455Y-241023118D01*
D10*
X26720595Y-239959677D02*
X22919141Y-238423790D01*
X25259629Y-243575694D02*
X26720595Y-239959677D01*
X13382343Y-241473296D02*
X15030612Y-237393687D01*
X20315561Y-239528944D02*
G75*
G03X22919141Y-238423790I749213J1854367D01*
G01*
X13382343Y-241473296D02*
X22005153Y-244957137D01*
D11*
X12897281Y-237836792D02*
X15252328Y-238788293D01*
X27263068Y-243640947D02*
X28214569Y-241285900D01*
X15252328Y-238788293D02*
X14300828Y-241143340D01*
X25023734Y-240750722D02*
G75*
G03X25023734Y-240750722I-1524000J0D01*
G01*
X28214569Y-241285900D02*
X25859522Y-240334399D01*
X11945781Y-240191839D02*
X12897281Y-237836792D01*
D10*
X22005154Y-244957137D02*
G75*
G03X25259629Y-243575694I936516J2317959D01*
G01*
D11*
X14300828Y-241143340D02*
X11945781Y-240191839D01*
D10*
X20315560Y-239528945D02*
X15030612Y-237393687D01*
D11*
X18184616Y-240727017D02*
G75*
G03X18184616Y-240727017I-1524000J0D01*
G01*
X24908021Y-242689446D02*
X27263068Y-243640947D01*
X25859522Y-240334399D02*
X24908021Y-242689446D01*
D12*
X26186813Y-243950301D02*
X25250297Y-246268260D01*
X25250297Y-246268260D02*
X22932337Y-245331744D01*
D10*
X62328188Y-253267544D02*
X58526734Y-251731657D01*
X60867222Y-256883561D02*
X62328188Y-253267544D01*
X48989936Y-254781163D02*
X50638205Y-250701554D01*
X55923154Y-252836811D02*
G75*
G03X58526734Y-251731657I749213J1854367D01*
G01*
X48989936Y-254781163D02*
X57612746Y-258265004D01*
D11*
X48504874Y-251144659D02*
X50859921Y-252096160D01*
X62870661Y-256948814D02*
X63822162Y-254593767D01*
X50859921Y-252096160D02*
X49908421Y-254451207D01*
X60631327Y-254058589D02*
G75*
G03X60631327Y-254058589I-1524000J0D01*
G01*
X63822162Y-254593767D02*
X61467115Y-253642266D01*
X47553374Y-253499706D02*
X48504874Y-251144659D01*
D10*
X57612747Y-258265004D02*
G75*
G03X60867222Y-256883561I936516J2317959D01*
G01*
D11*
X49908421Y-254451207D02*
X47553374Y-253499706D01*
D10*
X55923153Y-252836812D02*
X50638205Y-250701554D01*
D11*
X53792209Y-254034884D02*
G75*
G03X53792209Y-254034884I-1524000J0D01*
G01*
X60515614Y-255997313D02*
X62870661Y-256948814D01*
X61467115Y-253642266D02*
X60515614Y-255997313D01*
D12*
X61794406Y-257258168D02*
X60857890Y-259576127D01*
X60857890Y-259576127D02*
X58539930Y-258639611D01*
D10*
X33838120Y-222343184D02*
X30036666Y-220807297D01*
X32377154Y-225959201D02*
X33838120Y-222343184D01*
X20499868Y-223856803D02*
X22148137Y-219777194D01*
X27433086Y-221912451D02*
G75*
G03X30036666Y-220807297I749213J1854367D01*
G01*
X20499868Y-223856803D02*
X29122678Y-227340644D01*
D11*
X20014806Y-220220299D02*
X22369853Y-221171800D01*
X34380593Y-226024454D02*
X35332094Y-223669407D01*
X22369853Y-221171800D02*
X21418353Y-223526847D01*
X32141259Y-223134229D02*
G75*
G03X32141259Y-223134229I-1524000J0D01*
G01*
X35332094Y-223669407D02*
X32977047Y-222717906D01*
X19063306Y-222575346D02*
X20014806Y-220220299D01*
D10*
X29122679Y-227340644D02*
G75*
G03X32377154Y-225959201I936516J2317959D01*
G01*
D11*
X21418353Y-223526847D02*
X19063306Y-222575346D01*
D10*
X27433085Y-221912452D02*
X22148137Y-219777194D01*
D11*
X25302141Y-223110524D02*
G75*
G03X25302141Y-223110524I-1524000J0D01*
G01*
X32025546Y-225072953D02*
X34380593Y-226024454D01*
X32977047Y-222717906D02*
X32025546Y-225072953D01*
D12*
X33304338Y-226333808D02*
X32367822Y-228651767D01*
X32367822Y-228651767D02*
X30049862Y-227715251D01*
M02*
