M48
; DRILL file {KiCad (5.1.4)-1} date 5/28/2025 3:25:04 PM
; FORMAT={-:-/ absolute / metric / decimal}
; #@! TF.CreationDate,2025-05-28T15:25:04-04:00
; #@! TF.GenerationSoftware,Kicad,Pcbnew,(5.1.4)-1
; #@! TF.FileFunction,Plated,1,2,PTH
FMAT,2
METRIC
T1C0.400
T2C0.750
T3C0.800
T4C1.000
T5C1.050
T6C1.092
%
G90
G05
T1
X49.505Y-107.696
X49.606Y-99.111
X50.825Y-102.26
X73.145Y-107.972
X76.784Y-97.993
X91.973Y-95.809
X94.971Y-124.104
X95.225Y-104.496
X98.933Y-78.384
X99.136Y-127.965
X99.155Y-107.93
X100.355Y-68.33
X101.93Y-130.912
X103.454Y-130.861
X104.877Y-130.912
X106.35Y-130.861
X106.401Y-127.914
X107.823Y-130.861
X109.195Y-110.947
X109.296Y-130.759
X110.922Y-47.701
X111.176Y-111.912
X115.087Y-91.796
X115.138Y-94.742
X115.24Y-93.218
X115.24Y-96.215
X115.291Y-97.739
X115.291Y-99.111
X117.434Y-84.795
X124.13Y-82.601
X124.181Y-84.074
X124.231Y-81.077
X124.231Y-87.071
X124.282Y-85.446
X126.213Y-88.138
X126.263Y-92.1
X126.721Y-76.962
X126.771Y-74.625
X127.997Y-74.428
X128.753Y-61.824
X128.803Y-63.195
X128.803Y-66.243
X128.803Y-87.274
X128.854Y-64.821
X128.854Y-67.767
X128.94Y-84.684
X130.442Y-94.59
X130.733Y-114.691
X130.886Y-68.631
X131.226Y-115.803
X133.071Y-61.316
X133.788Y-134.042
X134.762Y-134.457
X135.517Y-130.268
X137.516Y-134.429
X139.243Y-134.429
X139.251Y-135.883
X139.42Y-136.869
X144.77Y-118.196
X144.77Y-129.098
X144.77Y-141.13
X144.805Y-144.628
X149.098Y-111.201
X149.644Y-130.923
X150.098Y-124.87
X153.409Y-125.628
X157.607Y-61.595
X157.734Y-63.119
X157.734Y-67.501
X157.861Y-64.516
X157.861Y-65.913
X158.877Y-71.882
X163.73Y-140.27
X165.354Y-77.851
X165.481Y-76.454
X165.481Y-79.375
X165.481Y-80.772
X165.481Y-82.359
X172.466Y-94.996
X172.529Y-96.393
X172.529Y-99.314
X172.529Y-100.838
X172.593Y-97.853
X173.99Y-44.386
X180.569Y-126.898
X180.657Y-62.23
X182.855Y-126.035
X184.277Y-130.196
X186.96Y-129.098
X187.071Y-136.093
X187.706Y-79.566
X187.706Y-109.029
X188.595Y-106.883
X189.103Y-108.966
X190.564Y-109.029
X192.087Y-109.029
X193.611Y-108.902
X195.072Y-97.282
X205.511Y-110.084
X207.109Y-99.928
X207.645Y-109.236
X229.184Y-109.169
X231.709Y-99.4
T2
X139.48Y-144.57
T3
X135.48Y-144.57
X137.48Y-144.57
T4
X29.325Y-99.335
X30.277Y-96.98
X31.228Y-94.625
X32.18Y-92.27
X182.601Y-49.939
X184.956Y-48.988
X187.311Y-48.036
X189.666Y-47.085
X196.836Y-85.172
X199.191Y-84.221
X201.546Y-83.269
X203.901Y-82.318
X168.233Y-141.723
X169.761Y-143.752
X171.29Y-145.78
X172.819Y-147.809
X105.779Y-30.219
X108.134Y-31.17
X110.489Y-32.122
X112.844Y-33.073
X78.644Y-124.134
X80.673Y-125.663
X82.701Y-127.191
X84.73Y-128.72
X254.214Y-92.06
X255.165Y-94.415
X256.117Y-96.77
X257.068Y-99.125
X136.8Y-103.0
X139.34Y-103.0
X189.718Y-67.556
X192.073Y-66.604
X194.428Y-65.653
X196.783Y-64.701
X82.572Y-82.319
X84.927Y-83.271
X87.282Y-84.222
X89.637Y-85.174
X96.807Y-47.086
X99.162Y-48.038
X101.517Y-48.989
X103.872Y-49.941
X143.23Y-73.22
X143.23Y-75.76
X143.23Y-78.3
X143.23Y-80.84
X133.48Y-144.57
X141.48Y-144.57
X203.599Y-127.46
X205.627Y-125.931
X207.656Y-124.402
X209.684Y-122.874
X89.689Y-64.703
X92.044Y-65.654
X94.399Y-66.606
X96.755Y-67.557
X173.629Y-33.072
X175.984Y-32.121
X178.339Y-31.169
X180.694Y-30.218
X113.644Y-147.808
X115.173Y-145.78
X116.702Y-143.751
X118.23Y-141.722
X176.544Y-147.556
X178.573Y-146.027
X180.601Y-144.499
X182.63Y-142.97
X103.63Y-142.97
X105.659Y-144.499
X107.687Y-146.027
X109.716Y-147.556
T5
X151.03Y-143.42
X151.03Y-147.92
X154.28Y-141.17
X157.53Y-143.42
X157.53Y-147.92
T6
X135.839Y-69.291
X135.839Y-71.831
X135.839Y-74.371
X135.839Y-76.911
X135.839Y-79.451
X135.839Y-81.991
X135.839Y-84.531
X135.839Y-87.071
X135.839Y-89.611
X135.839Y-92.151
X135.839Y-94.691
X135.839Y-97.231
X138.379Y-92.151
X140.919Y-92.151
X143.459Y-92.151
X151.079Y-69.291
X151.079Y-71.831
X151.079Y-74.371
X151.079Y-76.911
X151.079Y-79.451
X151.079Y-81.991
X151.079Y-84.531
X151.079Y-87.071
X151.079Y-89.611
X151.079Y-92.151
X151.079Y-94.691
X151.079Y-97.231
T0
M30
