G04 #@! TF.GenerationSoftware,KiCad,Pcbnew,(5.1.4)-1*
G04 #@! TF.CreationDate,2025-05-28T14:21:51-04:00*
G04 #@! TF.ProjectId,ThumbsUp,5468756d-6273-4557-902e-6b696361645f,rev?*
G04 #@! TF.SameCoordinates,Original*
G04 #@! TF.FileFunction,Other,ECO2*
%FSLAX46Y46*%
G04 Gerber Fmt 4.6, Leading zero omitted, Abs format (unit mm)*
G04 Created by KiCad (PCBNEW (5.1.4)-1) date 2025-05-28 14:21:51*
%MOMM*%
%LPD*%
G04 APERTURE LIST*
%ADD10C,0.150000*%
G04 APERTURE END LIST*
D10*
X184120691Y-42422612D02*
X179299335Y-44370566D01*
X179299335Y-44370566D02*
X180498077Y-47337554D01*
X180498077Y-47337554D02*
X185319433Y-45389600D01*
X184120691Y-42422612D02*
X185319433Y-45389600D01*
X184361516Y-31539965D02*
X171566379Y-36709536D01*
X176735950Y-49504673D02*
X189531087Y-44335102D01*
X176735950Y-49504673D02*
X171566379Y-36709536D01*
X184361516Y-31539965D02*
X189531087Y-44335102D01*
X104746887Y-36721315D02*
X109568243Y-38669269D01*
X109568243Y-38669269D02*
X110766985Y-35702281D01*
X110766985Y-35702281D02*
X105945629Y-33754327D01*
X104746887Y-36721315D02*
X105945629Y-33754327D01*
X97013931Y-44382345D02*
X109809068Y-49551916D01*
X114978639Y-36756779D02*
X102183502Y-31587208D01*
X114978639Y-36756779D02*
X109809068Y-49551916D01*
X97013931Y-44382345D02*
X102183502Y-31587208D01*
X247823778Y-98653534D02*
X243002422Y-100601488D01*
X243002422Y-100601488D02*
X244201164Y-103568476D01*
X244201164Y-103568476D02*
X249022520Y-101620522D01*
X247823778Y-98653534D02*
X249022520Y-101620522D01*
X248064603Y-87770887D02*
X235269466Y-92940458D01*
X240439037Y-105735595D02*
X253234174Y-100566024D01*
X240439037Y-105735595D02*
X235269466Y-92940458D01*
X248064603Y-87770887D02*
X253234174Y-100566024D01*
X166129591Y-48612953D02*
X161308235Y-50560907D01*
X161308235Y-50560907D02*
X162506977Y-53527895D01*
X162506977Y-53527895D02*
X167328333Y-51579941D01*
X166129591Y-48612953D02*
X167328333Y-51579941D01*
X166370416Y-37730306D02*
X153575279Y-42899877D01*
X158744850Y-55695014D02*
X171539987Y-50525443D01*
X158744850Y-55695014D02*
X153575279Y-42899877D01*
X166370416Y-37730306D02*
X171539987Y-50525443D01*
X122635996Y-42870449D02*
X127457352Y-44818403D01*
X127457352Y-44818403D02*
X128656094Y-41851415D01*
X128656094Y-41851415D02*
X123834738Y-39903461D01*
X122635996Y-42870449D02*
X123834738Y-39903461D01*
X114903040Y-50531479D02*
X127698177Y-55701050D01*
X132867748Y-42905913D02*
X120072611Y-37736342D01*
X132867748Y-42905913D02*
X127698177Y-55701050D01*
X114903040Y-50531479D02*
X120072611Y-37736342D01*
X101283420Y-95719929D02*
X106104776Y-97667883D01*
X106104776Y-97667883D02*
X107303518Y-94700895D01*
X107303518Y-94700895D02*
X102482162Y-92752941D01*
X101283420Y-95719929D02*
X102482162Y-92752941D01*
X93550464Y-103380959D02*
X106345601Y-108550530D01*
X111515172Y-95755393D02*
X98720035Y-90585822D01*
X111515172Y-95755393D02*
X106345601Y-108550530D01*
X93550464Y-103380959D02*
X98720035Y-90585822D01*
X115518470Y-60486943D02*
X120339826Y-62434897D01*
X120339826Y-62434897D02*
X121538568Y-59467909D01*
X121538568Y-59467909D02*
X116717212Y-57519955D01*
X115518470Y-60486943D02*
X116717212Y-57519955D01*
X107785514Y-68147973D02*
X120580651Y-73317544D01*
X125750222Y-60522407D02*
X112955085Y-55352836D01*
X125750222Y-60522407D02*
X120580651Y-73317544D01*
X107785514Y-68147973D02*
X112955085Y-55352836D01*
X83292320Y-89529588D02*
X88113676Y-91477542D01*
X88113676Y-91477542D02*
X89312418Y-88510554D01*
X89312418Y-88510554D02*
X84491062Y-86562600D01*
X83292320Y-89529588D02*
X84491062Y-86562600D01*
X75559364Y-97190618D02*
X88354501Y-102360189D01*
X93524072Y-89565052D02*
X80728935Y-84395481D01*
X93524072Y-89565052D02*
X88354501Y-102360189D01*
X75559364Y-97190618D02*
X80728935Y-84395481D01*
X187482167Y-101462433D02*
X182660811Y-103410387D01*
X182660811Y-103410387D02*
X183859553Y-106377375D01*
X183859553Y-106377375D02*
X188680909Y-104429421D01*
X187482167Y-101462433D02*
X188680909Y-104429421D01*
X187722992Y-90579786D02*
X174927855Y-95749357D01*
X180097426Y-108544494D02*
X192892563Y-103374923D01*
X180097426Y-108544494D02*
X174927855Y-95749357D01*
X187722992Y-90579786D02*
X192892563Y-103374923D01*
X108400945Y-78103436D02*
X113222301Y-80051390D01*
X113222301Y-80051390D02*
X114421043Y-77084402D01*
X114421043Y-77084402D02*
X109599687Y-75136448D01*
X108400945Y-78103436D02*
X109599687Y-75136448D01*
X100667989Y-85764466D02*
X113463126Y-90934037D01*
X118632697Y-78138900D02*
X105837560Y-72969329D01*
X118632697Y-78138900D02*
X113463126Y-90934037D01*
X100667989Y-85764466D02*
X105837560Y-72969329D01*
X180364641Y-83845939D02*
X175543285Y-85793893D01*
X175543285Y-85793893D02*
X176742027Y-88760881D01*
X176742027Y-88760881D02*
X181563383Y-86812927D01*
X180364641Y-83845939D02*
X181563383Y-86812927D01*
X180605466Y-72963292D02*
X167810329Y-78132863D01*
X172979900Y-90928000D02*
X185775037Y-85758429D01*
X172979900Y-90928000D02*
X167810329Y-78132863D01*
X180605466Y-72963292D02*
X185775037Y-85758429D01*
X205473267Y-95272091D02*
X200651911Y-97220045D01*
X200651911Y-97220045D02*
X201850653Y-100187033D01*
X201850653Y-100187033D02*
X206672009Y-98239079D01*
X205473267Y-95272091D02*
X206672009Y-98239079D01*
X205714092Y-84389444D02*
X192918955Y-89559015D01*
X198088526Y-102354152D02*
X210883663Y-97184581D01*
X198088526Y-102354152D02*
X192918955Y-89559015D01*
X205714092Y-84389444D02*
X210883663Y-97184581D01*
X198355741Y-77655598D02*
X193534385Y-79603552D01*
X193534385Y-79603552D02*
X194733127Y-82570540D01*
X194733127Y-82570540D02*
X199554483Y-80622586D01*
X198355741Y-77655598D02*
X199554483Y-80622586D01*
X198596566Y-66772951D02*
X185801429Y-71942522D01*
X190971000Y-84737659D02*
X203766137Y-79568088D01*
X190971000Y-84737659D02*
X185801429Y-71942522D01*
X198596566Y-66772951D02*
X203766137Y-79568088D01*
X191238216Y-60039105D02*
X186416860Y-61987059D01*
X186416860Y-61987059D02*
X187615602Y-64954047D01*
X187615602Y-64954047D02*
X192436958Y-63006093D01*
X191238216Y-60039105D02*
X192436958Y-63006093D01*
X191479041Y-49156458D02*
X178683904Y-54326029D01*
X183853475Y-67121166D02*
X196648612Y-61951595D01*
X183853475Y-67121166D02*
X178683904Y-54326029D01*
X191479041Y-49156458D02*
X196648612Y-61951595D01*
X228334252Y-101135140D02*
X223512896Y-103083094D01*
X223512896Y-103083094D02*
X224711638Y-106050082D01*
X224711638Y-106050082D02*
X229532994Y-104102128D01*
X228334252Y-101135140D02*
X229532994Y-104102128D01*
X228575077Y-90252493D02*
X215779940Y-95422064D01*
X220949511Y-108217201D02*
X233744648Y-103047630D01*
X220949511Y-108217201D02*
X215779940Y-95422064D01*
X228575077Y-90252493D02*
X233744648Y-103047630D01*
X173247116Y-66229446D02*
X168425760Y-68177400D01*
X168425760Y-68177400D02*
X169624502Y-71144388D01*
X169624502Y-71144388D02*
X174445858Y-69196434D01*
X173247116Y-66229446D02*
X174445858Y-69196434D01*
X173487941Y-55346799D02*
X160692804Y-60516370D01*
X165862375Y-73311507D02*
X178657512Y-68141936D01*
X165862375Y-73311507D02*
X160692804Y-60516370D01*
X173487941Y-55346799D02*
X178657512Y-68141936D01*
X90511837Y-71954302D02*
X95333193Y-73902256D01*
X95333193Y-73902256D02*
X96531935Y-70935268D01*
X96531935Y-70935268D02*
X91710579Y-68987314D01*
X90511837Y-71954302D02*
X91710579Y-68987314D01*
X82778881Y-79615332D02*
X95574018Y-84784903D01*
X100743589Y-71989766D02*
X87948452Y-66820195D01*
X100743589Y-71989766D02*
X95574018Y-84784903D01*
X82778881Y-79615332D02*
X87948452Y-66820195D01*
X40941808Y-92911030D02*
X45763164Y-94858984D01*
X45763164Y-94858984D02*
X46961906Y-91891996D01*
X46961906Y-91891996D02*
X42140550Y-89944042D01*
X40941808Y-92911030D02*
X42140550Y-89944042D01*
X33208852Y-100572060D02*
X46003989Y-105741631D01*
X51173560Y-92946494D02*
X38378423Y-87776923D01*
X51173560Y-92946494D02*
X46003989Y-105741631D01*
X33208852Y-100572060D02*
X38378423Y-87776923D01*
X97629362Y-54337808D02*
X102450718Y-56285762D01*
X102450718Y-56285762D02*
X103649460Y-53318774D01*
X103649460Y-53318774D02*
X98828104Y-51370820D01*
X97629362Y-54337808D02*
X98828104Y-51370820D01*
X89896406Y-61998838D02*
X102691543Y-67168409D01*
X107861114Y-54373272D02*
X95065977Y-49203701D01*
X107861114Y-54373272D02*
X102691543Y-67168409D01*
X89896406Y-61998838D02*
X95065977Y-49203701D01*
X60431335Y-95392636D02*
X65252691Y-97340590D01*
X65252691Y-97340590D02*
X66451433Y-94373602D01*
X66451433Y-94373602D02*
X61630077Y-92425648D01*
X60431335Y-95392636D02*
X61630077Y-92425648D01*
X52698379Y-103053666D02*
X65493516Y-108223237D01*
X70663087Y-95428100D02*
X57867950Y-90258529D01*
X70663087Y-95428100D02*
X65493516Y-108223237D01*
X52698379Y-103053666D02*
X57867950Y-90258529D01*
M02*
