M48
; DRILL file {KiCad (5.1.4)-1} date 5/28/2025 2:21:55 PM
; FORMAT={-:-/ absolute / metric / decimal}
; #@! TF.CreationDate,2025-05-28T14:21:55-04:00
; #@! TF.GenerationSoftware,Kicad,Pcbnew,(5.1.4)-1
; #@! TF.FileFunction,NonPlated,1,2,NPTH
FMAT,2
METRIC
T1C1.702
T2C1.750
T3C3.000
T4C3.988
T5C4.950
%
G90
G05
T1
X239.152Y-98.814
X249.351Y-94.693
X93.779Y-56.126
X103.978Y-60.246
X118.786Y-44.658
X128.985Y-48.779
X171.693Y-84.006
X181.892Y-79.885
X175.449Y-42.583
X185.648Y-38.462
X182.567Y-60.199
X192.766Y-56.078
X164.576Y-66.389
X174.775Y-62.269
X97.433Y-97.508
X107.632Y-101.629
X157.458Y-48.773
X167.657Y-44.652
X79.442Y-91.317
X89.641Y-95.438
X104.551Y-79.891
X114.75Y-84.012
X56.581Y-97.181
X66.78Y-101.301
X196.802Y-95.432
X207.001Y-91.311
X219.663Y-101.295
X229.862Y-97.175
X100.897Y-38.509
X111.096Y-42.63
X86.662Y-73.742
X96.861Y-77.863
X111.668Y-62.275
X121.867Y-66.396
X37.092Y-94.699
X47.291Y-98.82
X178.811Y-101.622
X189.01Y-97.502
X189.684Y-77.816
X199.883Y-73.695
T2
X112.058Y-62.432
X121.478Y-66.238
X37.481Y-94.856
X46.901Y-98.662
X179.2Y-101.465
X188.62Y-97.659
X190.074Y-77.658
X199.494Y-73.852
X239.542Y-98.656
X248.962Y-94.85
X94.169Y-56.283
X103.589Y-60.089
X119.175Y-44.816
X128.595Y-48.622
X172.083Y-83.849
X181.503Y-80.043
X175.839Y-42.425
X185.259Y-38.619
X182.956Y-60.042
X192.376Y-56.236
X164.965Y-66.232
X174.385Y-62.426
X97.823Y-97.665
X107.243Y-101.471
X157.848Y-48.616
X167.268Y-44.81
X79.832Y-91.475
X89.252Y-95.281
X104.94Y-80.049
X114.36Y-83.855
X56.971Y-97.338
X66.391Y-101.144
X197.191Y-95.275
X206.611Y-91.469
X220.052Y-101.138
X229.472Y-97.332
X101.286Y-38.667
X110.706Y-42.473
X87.051Y-73.9
X96.471Y-77.706
T3
X112.51Y-68.094
X118.997Y-58.818
X119.349Y-68.117
X122.809Y-62.731
X37.933Y-100.518
X44.42Y-91.243
X44.772Y-100.542
X48.232Y-95.155
X179.426Y-98.634
X180.679Y-104.912
X184.362Y-93.901
X186.139Y-105.079
X190.3Y-74.828
X191.553Y-81.105
X195.236Y-70.094
X197.013Y-81.272
X239.768Y-95.825
X241.021Y-102.103
X244.704Y-91.092
X246.481Y-102.27
X94.621Y-61.945
X101.108Y-52.669
X101.46Y-61.968
X104.919Y-56.582
X119.627Y-50.477
X126.114Y-41.202
X126.466Y-50.501
X129.926Y-45.115
X172.309Y-81.018
X173.562Y-87.296
X177.245Y-76.284
X179.022Y-87.462
X176.065Y-39.595
X177.318Y-45.872
X181.001Y-34.861
X182.778Y-46.039
X183.182Y-57.211
X184.435Y-63.489
X188.118Y-52.477
X189.895Y-63.656
X165.191Y-63.401
X166.444Y-69.679
X170.127Y-58.668
X171.904Y-69.846
X98.275Y-103.327
X104.762Y-94.051
X105.114Y-103.35
X108.574Y-97.964
X158.074Y-45.785
X159.326Y-52.063
X163.01Y-41.051
X164.787Y-52.229
X80.284Y-97.136
X86.771Y-87.861
X87.123Y-97.16
X90.582Y-91.774
X105.392Y-85.71
X111.879Y-76.435
X112.231Y-85.734
X115.691Y-80.348
X57.423Y-102.999
X63.91Y-93.724
X64.262Y-103.023
X67.721Y-97.637
X197.417Y-92.444
X198.67Y-98.722
X202.353Y-87.71
X204.13Y-98.889
X220.278Y-98.307
X221.531Y-104.585
X225.214Y-93.573
X226.991Y-104.752
X101.738Y-44.328
X108.225Y-35.053
X108.577Y-44.352
X112.037Y-38.966
X87.503Y-79.561
X93.99Y-70.286
X94.342Y-79.585
X97.802Y-74.199
T4
X116.768Y-64.335
X42.191Y-96.759
X183.91Y-99.562
X194.784Y-75.755
X244.252Y-96.753
X98.879Y-58.186
X123.885Y-46.719
X176.793Y-81.946
X180.549Y-40.522
X187.666Y-58.139
X169.675Y-64.329
X102.533Y-99.568
X162.558Y-46.713
X84.542Y-93.378
X109.65Y-81.952
X61.681Y-99.241
X201.901Y-93.372
X224.762Y-99.235
X105.996Y-40.57
X91.761Y-75.803
T5
X201.901Y-93.372
X224.762Y-99.235
X105.996Y-40.57
X91.761Y-75.803
X116.768Y-64.335
X42.191Y-96.759
X183.91Y-99.562
X194.784Y-75.755
X244.252Y-96.753
X98.879Y-58.186
X123.885Y-46.719
X176.793Y-81.946
X180.549Y-40.522
X187.666Y-58.139
X169.675Y-64.329
X102.533Y-99.568
X162.558Y-46.713
X84.542Y-93.378
X109.65Y-81.952
X61.681Y-99.241
T0
M30
