G04 #@! TF.GenerationSoftware,KiCad,Pcbnew,(5.1.4)-1*
G04 #@! TF.CreationDate,2025-05-28T14:21:51-04:00*
G04 #@! TF.ProjectId,ThumbsUp,5468756d-6273-4557-902e-6b696361645f,rev?*
G04 #@! TF.SameCoordinates,Original*
G04 #@! TF.FileFunction,Drawing*
%FSLAX46Y46*%
G04 Gerber Fmt 4.6, Leading zero omitted, Abs format (unit mm)*
G04 Created by KiCad (PCBNEW (5.1.4)-1) date 2025-05-28 14:21:51*
%MOMM*%
%LPD*%
G04 APERTURE LIST*
%ADD10C,0.150000*%
%ADD11C,0.200000*%
%ADD12C,0.100000*%
G04 APERTURE END LIST*
D10*
X173290568Y-35905065D02*
X171436200Y-36654278D01*
X171436200Y-36654278D02*
X172185413Y-38508646D01*
X185165987Y-33264154D02*
X184416774Y-31409786D01*
X184416774Y-31409786D02*
X182562406Y-32158999D01*
X184416774Y-31409786D02*
X185165987Y-33264154D01*
X182562406Y-32158999D02*
X184416774Y-31409786D01*
X171436200Y-36654278D02*
X172185413Y-38508646D01*
X173290568Y-35905065D02*
X171436200Y-36654278D01*
D11*
X147015200Y-63957200D02*
X147015200Y-69037200D01*
X139649200Y-63957200D02*
X147015200Y-63957200D01*
X139649200Y-69037200D02*
X139649200Y-63957200D01*
X147015200Y-69037200D02*
X139649200Y-69037200D01*
D10*
X108009958Y-48932882D02*
X109864326Y-49682095D01*
X109864326Y-49682095D02*
X110613539Y-47827727D01*
X97632965Y-42583235D02*
X96883752Y-44437603D01*
X96883752Y-44437603D02*
X98738120Y-45186816D01*
X96883752Y-44437603D02*
X97632965Y-42583235D01*
X98738120Y-45186816D02*
X96883752Y-44437603D01*
X109864326Y-49682095D02*
X110613539Y-47827727D01*
X108009958Y-48932882D02*
X109864326Y-49682095D01*
X236993655Y-92135987D02*
X235139287Y-92885200D01*
X235139287Y-92885200D02*
X235888500Y-94739568D01*
X248869074Y-89495076D02*
X248119861Y-87640708D01*
X248119861Y-87640708D02*
X246265493Y-88389921D01*
X248119861Y-87640708D02*
X248869074Y-89495076D01*
X246265493Y-88389921D02*
X248119861Y-87640708D01*
X235139287Y-92885200D02*
X235888500Y-94739568D01*
X236993655Y-92135987D02*
X235139287Y-92885200D01*
X155299468Y-42095406D02*
X153445100Y-42844619D01*
X153445100Y-42844619D02*
X154194313Y-44698987D01*
X167174887Y-39454495D02*
X166425674Y-37600127D01*
X166425674Y-37600127D02*
X164571306Y-38349340D01*
X166425674Y-37600127D02*
X167174887Y-39454495D01*
X164571306Y-38349340D02*
X166425674Y-37600127D01*
X153445100Y-42844619D02*
X154194313Y-44698987D01*
X155299468Y-42095406D02*
X153445100Y-42844619D01*
X125899067Y-55082016D02*
X127753435Y-55831229D01*
X127753435Y-55831229D02*
X128502648Y-53976861D01*
X115522074Y-48732369D02*
X114772861Y-50586737D01*
X114772861Y-50586737D02*
X116627229Y-51335950D01*
X114772861Y-50586737D02*
X115522074Y-48732369D01*
X116627229Y-51335950D02*
X114772861Y-50586737D01*
X127753435Y-55831229D02*
X128502648Y-53976861D01*
X125899067Y-55082016D02*
X127753435Y-55831229D01*
X104546491Y-107931496D02*
X106400859Y-108680709D01*
X106400859Y-108680709D02*
X107150072Y-106826341D01*
X94169498Y-101581849D02*
X93420285Y-103436217D01*
X93420285Y-103436217D02*
X95274653Y-104185430D01*
X93420285Y-103436217D02*
X94169498Y-101581849D01*
X95274653Y-104185430D02*
X93420285Y-103436217D01*
X106400859Y-108680709D02*
X107150072Y-106826341D01*
X104546491Y-107931496D02*
X106400859Y-108680709D01*
X118781541Y-72698510D02*
X120635909Y-73447723D01*
X120635909Y-73447723D02*
X121385122Y-71593355D01*
X108404548Y-66348863D02*
X107655335Y-68203231D01*
X107655335Y-68203231D02*
X109509703Y-68952444D01*
X107655335Y-68203231D02*
X108404548Y-66348863D01*
X109509703Y-68952444D02*
X107655335Y-68203231D01*
X120635909Y-73447723D02*
X121385122Y-71593355D01*
X118781541Y-72698510D02*
X120635909Y-73447723D01*
X86555391Y-101741155D02*
X88409759Y-102490368D01*
X88409759Y-102490368D02*
X89158972Y-100636000D01*
X76178398Y-95391508D02*
X75429185Y-97245876D01*
X75429185Y-97245876D02*
X77283553Y-97995089D01*
X75429185Y-97245876D02*
X76178398Y-95391508D01*
X77283553Y-97995089D02*
X75429185Y-97245876D01*
X88409759Y-102490368D02*
X89158972Y-100636000D01*
X86555391Y-101741155D02*
X88409759Y-102490368D01*
X176652044Y-94944886D02*
X174797676Y-95694099D01*
X174797676Y-95694099D02*
X175546889Y-97548467D01*
X188527463Y-92303975D02*
X187778250Y-90449607D01*
X187778250Y-90449607D02*
X185923882Y-91198820D01*
X187778250Y-90449607D02*
X188527463Y-92303975D01*
X185923882Y-91198820D02*
X187778250Y-90449607D01*
X174797676Y-95694099D02*
X175546889Y-97548467D01*
X176652044Y-94944886D02*
X174797676Y-95694099D01*
X111664016Y-90315003D02*
X113518384Y-91064216D01*
X113518384Y-91064216D02*
X114267597Y-89209848D01*
X101287023Y-83965356D02*
X100537810Y-85819724D01*
X100537810Y-85819724D02*
X102392178Y-86568937D01*
X100537810Y-85819724D02*
X101287023Y-83965356D01*
X102392178Y-86568937D02*
X100537810Y-85819724D01*
X113518384Y-91064216D02*
X114267597Y-89209848D01*
X111664016Y-90315003D02*
X113518384Y-91064216D01*
X169534518Y-77328392D02*
X167680150Y-78077605D01*
X167680150Y-78077605D02*
X168429363Y-79931973D01*
X181409937Y-74687481D02*
X180660724Y-72833113D01*
X180660724Y-72833113D02*
X178806356Y-73582326D01*
X180660724Y-72833113D02*
X181409937Y-74687481D01*
X178806356Y-73582326D02*
X180660724Y-72833113D01*
X167680150Y-78077605D02*
X168429363Y-79931973D01*
X169534518Y-77328392D02*
X167680150Y-78077605D01*
X194643144Y-88754544D02*
X192788776Y-89503757D01*
X192788776Y-89503757D02*
X193537989Y-91358125D01*
X206518563Y-86113633D02*
X205769350Y-84259265D01*
X205769350Y-84259265D02*
X203914982Y-85008478D01*
X205769350Y-84259265D02*
X206518563Y-86113633D01*
X203914982Y-85008478D02*
X205769350Y-84259265D01*
X192788776Y-89503757D02*
X193537989Y-91358125D01*
X194643144Y-88754544D02*
X192788776Y-89503757D01*
X187525618Y-71138051D02*
X185671250Y-71887264D01*
X185671250Y-71887264D02*
X186420463Y-73741632D01*
X199401037Y-68497140D02*
X198651824Y-66642772D01*
X198651824Y-66642772D02*
X196797456Y-67391985D01*
X198651824Y-66642772D02*
X199401037Y-68497140D01*
X196797456Y-67391985D02*
X198651824Y-66642772D01*
X185671250Y-71887264D02*
X186420463Y-73741632D01*
X187525618Y-71138051D02*
X185671250Y-71887264D01*
X180408093Y-53521558D02*
X178553725Y-54270771D01*
X178553725Y-54270771D02*
X179302938Y-56125139D01*
X192283512Y-50880647D02*
X191534299Y-49026279D01*
X191534299Y-49026279D02*
X189679931Y-49775492D01*
X191534299Y-49026279D02*
X192283512Y-50880647D01*
X189679931Y-49775492D02*
X191534299Y-49026279D01*
X178553725Y-54270771D02*
X179302938Y-56125139D01*
X180408093Y-53521558D02*
X178553725Y-54270771D01*
X217504129Y-94617593D02*
X215649761Y-95366806D01*
X215649761Y-95366806D02*
X216398974Y-97221174D01*
X229379548Y-91976682D02*
X228630335Y-90122314D01*
X228630335Y-90122314D02*
X226775967Y-90871527D01*
X228630335Y-90122314D02*
X229379548Y-91976682D01*
X226775967Y-90871527D02*
X228630335Y-90122314D01*
X215649761Y-95366806D02*
X216398974Y-97221174D01*
X217504129Y-94617593D02*
X215649761Y-95366806D01*
X162416993Y-59711899D02*
X160562625Y-60461112D01*
X160562625Y-60461112D02*
X161311838Y-62315480D01*
X174292412Y-57070988D02*
X173543199Y-55216620D01*
X173543199Y-55216620D02*
X171688831Y-55965833D01*
X173543199Y-55216620D02*
X174292412Y-57070988D01*
X171688831Y-55965833D02*
X173543199Y-55216620D01*
X160562625Y-60461112D02*
X161311838Y-62315480D01*
X162416993Y-59711899D02*
X160562625Y-60461112D01*
X93774908Y-84165869D02*
X95629276Y-84915082D01*
X95629276Y-84915082D02*
X96378489Y-83060714D01*
X83397915Y-77816222D02*
X82648702Y-79670590D01*
X82648702Y-79670590D02*
X84503070Y-80419803D01*
X82648702Y-79670590D02*
X83397915Y-77816222D01*
X84503070Y-80419803D02*
X82648702Y-79670590D01*
X95629276Y-84915082D02*
X96378489Y-83060714D01*
X93774908Y-84165869D02*
X95629276Y-84915082D01*
X44204879Y-105122597D02*
X46059247Y-105871810D01*
X46059247Y-105871810D02*
X46808460Y-104017442D01*
X33827886Y-98772950D02*
X33078673Y-100627318D01*
X33078673Y-100627318D02*
X34933041Y-101376531D01*
X33078673Y-100627318D02*
X33827886Y-98772950D01*
X34933041Y-101376531D02*
X33078673Y-100627318D01*
X46059247Y-105871810D02*
X46808460Y-104017442D01*
X44204879Y-105122597D02*
X46059247Y-105871810D01*
X100892433Y-66549375D02*
X102746801Y-67298588D01*
X102746801Y-67298588D02*
X103496014Y-65444220D01*
X90515440Y-60199728D02*
X89766227Y-62054096D01*
X89766227Y-62054096D02*
X91620595Y-62803309D01*
X89766227Y-62054096D02*
X90515440Y-60199728D01*
X91620595Y-62803309D02*
X89766227Y-62054096D01*
X102746801Y-67298588D02*
X103496014Y-65444220D01*
X100892433Y-66549375D02*
X102746801Y-67298588D01*
X63694406Y-107604203D02*
X65548774Y-108353416D01*
X65548774Y-108353416D02*
X66297987Y-106499048D01*
X53317413Y-101254556D02*
X52568200Y-103108924D01*
X52568200Y-103108924D02*
X54422568Y-103858137D01*
X52568200Y-103108924D02*
X53317413Y-101254556D01*
X54422568Y-103858137D02*
X52568200Y-103108924D01*
X65548774Y-108353416D02*
X66297987Y-106499048D01*
X63694406Y-107604203D02*
X65548774Y-108353416D01*
D12*
X131730000Y-141420000D02*
X131730000Y-147720000D01*
X143230000Y-141420000D02*
X131730000Y-141420000D01*
X143230000Y-147720000D02*
X143230000Y-141420000D01*
X131730000Y-147720000D02*
X143230000Y-147720000D01*
D11*
X133180000Y-142420000D02*
X133180000Y-146720000D01*
X141780000Y-142420000D02*
X133180000Y-142420000D01*
X141780000Y-146720000D02*
X141780000Y-142420000D01*
X133180000Y-146720000D02*
X141780000Y-146720000D01*
D12*
X149242000Y-139383000D02*
X149242000Y-149707000D01*
X159317000Y-139383000D02*
X149242000Y-139383000D01*
X159317000Y-149707000D02*
X159317000Y-139383000D01*
X149242000Y-149707000D02*
X159317000Y-149707000D01*
D11*
X151280000Y-142670000D02*
X151280000Y-148670000D01*
X157280000Y-142670000D02*
X151280000Y-142670000D01*
X157280000Y-148670000D02*
X157280000Y-142670000D01*
X151280000Y-148670000D02*
X157280000Y-148670000D01*
D10*
X178292576Y-38497425D02*
X177805131Y-38180778D01*
X177762757Y-38711486D02*
X177388150Y-37784302D01*
X177741363Y-37641595D01*
X177847505Y-37650070D01*
X177909495Y-37676383D01*
X177989323Y-37746848D01*
X178042839Y-37879303D01*
X178034364Y-37985444D01*
X178008051Y-38047434D01*
X177937586Y-38127263D01*
X177584373Y-38269970D01*
X178493718Y-37851212D02*
X178802780Y-37726343D01*
X179131457Y-38158495D02*
X178689941Y-38336880D01*
X178315334Y-37409696D01*
X178756850Y-37231312D01*
X179641660Y-37387413D02*
X179332599Y-37512282D01*
X179528821Y-37997950D02*
X179154215Y-37070766D01*
X179595731Y-36892382D01*
X180081399Y-36696159D02*
X180170591Y-36916917D01*
X179914156Y-36917806D02*
X180170591Y-36916917D01*
X180355672Y-36739422D01*
X180109489Y-37147039D02*
X180170591Y-36916917D01*
X180374399Y-37040009D01*
X180787824Y-36410745D02*
X180877016Y-36631503D01*
X180620582Y-36632392D02*
X180877016Y-36631503D01*
X181062098Y-36454008D01*
X180815915Y-36861625D02*
X180877016Y-36631503D01*
X181080825Y-36754594D01*
X103401198Y-43433335D02*
X103270521Y-42866950D01*
X102871379Y-43219274D02*
X103245986Y-42292091D01*
X103599199Y-42434798D01*
X103669663Y-42514626D01*
X103695977Y-42576616D01*
X103704451Y-42682758D01*
X103650936Y-42815213D01*
X103571108Y-42885678D01*
X103509118Y-42911991D01*
X103402976Y-42920466D01*
X103049763Y-42777758D01*
X103994785Y-43108213D02*
X104303847Y-43233082D01*
X104240079Y-43772265D02*
X103798563Y-43593881D01*
X104173170Y-42666697D01*
X104614686Y-42845081D01*
X105142727Y-43572012D02*
X104833666Y-43447143D01*
X104637444Y-43932811D02*
X105012050Y-43005627D01*
X105453566Y-43184011D01*
X105939234Y-43380234D02*
X105850042Y-43600992D01*
X105664961Y-43423496D02*
X105850042Y-43600992D01*
X106106477Y-43601880D01*
X105646234Y-43724083D02*
X105850042Y-43600992D01*
X105911143Y-43831113D01*
X106645660Y-43665648D02*
X106556468Y-43886406D01*
X106371387Y-43708911D02*
X106556468Y-43886406D01*
X106812903Y-43887295D01*
X106352659Y-44009497D02*
X106556468Y-43886406D01*
X106617569Y-44116528D01*
X241995663Y-94728347D02*
X241508218Y-94411700D01*
X241465844Y-94942408D02*
X241091237Y-94015224D01*
X241444450Y-93872517D01*
X241550592Y-93880992D01*
X241612582Y-93907305D01*
X241692410Y-93977770D01*
X241745926Y-94110225D01*
X241737451Y-94216366D01*
X241711138Y-94278356D01*
X241640673Y-94358185D01*
X241287460Y-94500892D01*
X242196805Y-94082134D02*
X242505867Y-93957265D01*
X242834544Y-94389417D02*
X242393028Y-94567802D01*
X242018421Y-93640618D01*
X242459937Y-93462234D01*
X243344747Y-93618335D02*
X243035686Y-93743204D01*
X243231908Y-94228872D02*
X242857302Y-93301688D01*
X243298818Y-93123304D01*
X243784486Y-92927081D02*
X243873678Y-93147839D01*
X243617243Y-93148728D02*
X243873678Y-93147839D01*
X244058759Y-92970344D01*
X243812576Y-93377961D02*
X243873678Y-93147839D01*
X244077486Y-93270931D01*
X244490911Y-92641667D02*
X244580103Y-92862425D01*
X244323669Y-92863314D02*
X244580103Y-92862425D01*
X244765185Y-92684930D01*
X244519002Y-93092547D02*
X244580103Y-92862425D01*
X244783912Y-92985516D01*
X160301476Y-44687766D02*
X159814031Y-44371119D01*
X159771657Y-44901827D02*
X159397050Y-43974643D01*
X159750263Y-43831936D01*
X159856405Y-43840411D01*
X159918395Y-43866724D01*
X159998223Y-43937189D01*
X160051739Y-44069644D01*
X160043264Y-44175785D01*
X160016951Y-44237775D01*
X159946486Y-44317604D01*
X159593273Y-44460311D01*
X160502618Y-44041553D02*
X160811680Y-43916684D01*
X161140357Y-44348836D02*
X160698841Y-44527221D01*
X160324234Y-43600037D01*
X160765750Y-43421653D01*
X161650560Y-43577754D02*
X161341499Y-43702623D01*
X161537721Y-44188291D02*
X161163115Y-43261107D01*
X161604631Y-43082723D01*
X162090299Y-42886500D02*
X162179491Y-43107258D01*
X161923056Y-43108147D02*
X162179491Y-43107258D01*
X162364572Y-42929763D01*
X162118389Y-43337380D02*
X162179491Y-43107258D01*
X162383299Y-43230350D01*
X162796724Y-42601086D02*
X162885916Y-42821844D01*
X162629482Y-42822733D02*
X162885916Y-42821844D01*
X163070998Y-42644349D01*
X162824815Y-43051966D02*
X162885916Y-42821844D01*
X163089725Y-42944935D01*
X121290307Y-49582469D02*
X121159630Y-49016084D01*
X120760488Y-49368408D02*
X121135095Y-48441225D01*
X121488308Y-48583932D01*
X121558772Y-48663760D01*
X121585086Y-48725750D01*
X121593560Y-48831892D01*
X121540045Y-48964347D01*
X121460217Y-49034812D01*
X121398227Y-49061125D01*
X121292085Y-49069600D01*
X120938872Y-48926892D01*
X121883894Y-49257347D02*
X122192956Y-49382216D01*
X122129188Y-49921399D02*
X121687672Y-49743015D01*
X122062279Y-48815831D01*
X122503795Y-48994215D01*
X123031836Y-49721146D02*
X122722775Y-49596277D01*
X122526553Y-50081945D02*
X122901159Y-49154761D01*
X123342675Y-49333145D01*
X123828343Y-49529368D02*
X123739151Y-49750126D01*
X123554070Y-49572630D02*
X123739151Y-49750126D01*
X123995586Y-49751014D01*
X123535343Y-49873217D02*
X123739151Y-49750126D01*
X123800252Y-49980247D01*
X124534769Y-49814782D02*
X124445577Y-50035540D01*
X124260496Y-49858045D02*
X124445577Y-50035540D01*
X124702012Y-50036429D01*
X124241768Y-50158631D02*
X124445577Y-50035540D01*
X124506678Y-50265662D01*
X99937731Y-102431949D02*
X99807054Y-101865564D01*
X99407912Y-102217888D02*
X99782519Y-101290705D01*
X100135732Y-101433412D01*
X100206196Y-101513240D01*
X100232510Y-101575230D01*
X100240984Y-101681372D01*
X100187469Y-101813827D01*
X100107641Y-101884292D01*
X100045651Y-101910605D01*
X99939509Y-101919080D01*
X99586296Y-101776372D01*
X100531318Y-102106827D02*
X100840380Y-102231696D01*
X100776612Y-102770879D02*
X100335096Y-102592495D01*
X100709703Y-101665311D01*
X101151219Y-101843695D01*
X101679260Y-102570626D02*
X101370199Y-102445757D01*
X101173977Y-102931425D02*
X101548583Y-102004241D01*
X101990099Y-102182625D01*
X102475767Y-102378848D02*
X102386575Y-102599606D01*
X102201494Y-102422110D02*
X102386575Y-102599606D01*
X102643010Y-102600494D01*
X102182767Y-102722697D02*
X102386575Y-102599606D01*
X102447676Y-102829727D01*
X103182193Y-102664262D02*
X103093001Y-102885020D01*
X102907920Y-102707525D02*
X103093001Y-102885020D01*
X103349436Y-102885909D01*
X102889192Y-103008111D02*
X103093001Y-102885020D01*
X103154102Y-103115142D01*
X114172781Y-67198963D02*
X114042104Y-66632578D01*
X113642962Y-66984902D02*
X114017569Y-66057719D01*
X114370782Y-66200426D01*
X114441246Y-66280254D01*
X114467560Y-66342244D01*
X114476034Y-66448386D01*
X114422519Y-66580841D01*
X114342691Y-66651306D01*
X114280701Y-66677619D01*
X114174559Y-66686094D01*
X113821346Y-66543386D01*
X114766368Y-66873841D02*
X115075430Y-66998710D01*
X115011662Y-67537893D02*
X114570146Y-67359509D01*
X114944753Y-66432325D01*
X115386269Y-66610709D01*
X115914310Y-67337640D02*
X115605249Y-67212771D01*
X115409027Y-67698439D02*
X115783633Y-66771255D01*
X116225149Y-66949639D01*
X116710817Y-67145862D02*
X116621625Y-67366620D01*
X116436544Y-67189124D02*
X116621625Y-67366620D01*
X116878060Y-67367508D01*
X116417817Y-67489711D02*
X116621625Y-67366620D01*
X116682726Y-67596741D01*
X117417243Y-67431276D02*
X117328051Y-67652034D01*
X117142970Y-67474539D02*
X117328051Y-67652034D01*
X117584486Y-67652923D01*
X117124242Y-67775125D02*
X117328051Y-67652034D01*
X117389152Y-67882156D01*
X81946631Y-96241608D02*
X81815954Y-95675223D01*
X81416812Y-96027547D02*
X81791419Y-95100364D01*
X82144632Y-95243071D01*
X82215096Y-95322899D01*
X82241410Y-95384889D01*
X82249884Y-95491031D01*
X82196369Y-95623486D01*
X82116541Y-95693951D01*
X82054551Y-95720264D01*
X81948409Y-95728739D01*
X81595196Y-95586031D01*
X82540218Y-95916486D02*
X82849280Y-96041355D01*
X82785512Y-96580538D02*
X82343996Y-96402154D01*
X82718603Y-95474970D01*
X83160119Y-95653354D01*
X83688160Y-96380285D02*
X83379099Y-96255416D01*
X83182877Y-96741084D02*
X83557483Y-95813900D01*
X83998999Y-95992284D01*
X84484667Y-96188507D02*
X84395475Y-96409265D01*
X84210394Y-96231769D02*
X84395475Y-96409265D01*
X84651910Y-96410153D01*
X84191667Y-96532356D02*
X84395475Y-96409265D01*
X84456576Y-96639386D01*
X85191093Y-96473921D02*
X85101901Y-96694679D01*
X84916820Y-96517184D02*
X85101901Y-96694679D01*
X85358336Y-96695568D01*
X84898092Y-96817770D02*
X85101901Y-96694679D01*
X85163002Y-96924801D01*
X181654052Y-97537246D02*
X181166607Y-97220599D01*
X181124233Y-97751307D02*
X180749626Y-96824123D01*
X181102839Y-96681416D01*
X181208981Y-96689891D01*
X181270971Y-96716204D01*
X181350799Y-96786669D01*
X181404315Y-96919124D01*
X181395840Y-97025265D01*
X181369527Y-97087255D01*
X181299062Y-97167084D01*
X180945849Y-97309791D01*
X181855194Y-96891033D02*
X182164256Y-96766164D01*
X182492933Y-97198316D02*
X182051417Y-97376701D01*
X181676810Y-96449517D01*
X182118326Y-96271133D01*
X183003136Y-96427234D02*
X182694075Y-96552103D01*
X182890297Y-97037771D02*
X182515691Y-96110587D01*
X182957207Y-95932203D01*
X183442875Y-95735980D02*
X183532067Y-95956738D01*
X183275632Y-95957627D02*
X183532067Y-95956738D01*
X183717148Y-95779243D01*
X183470965Y-96186860D02*
X183532067Y-95956738D01*
X183735875Y-96079830D01*
X184149300Y-95450566D02*
X184238492Y-95671324D01*
X183982058Y-95672213D02*
X184238492Y-95671324D01*
X184423574Y-95493829D01*
X184177391Y-95901446D02*
X184238492Y-95671324D01*
X184442301Y-95794415D01*
X107055256Y-84815456D02*
X106924579Y-84249071D01*
X106525437Y-84601395D02*
X106900044Y-83674212D01*
X107253257Y-83816919D01*
X107323721Y-83896747D01*
X107350035Y-83958737D01*
X107358509Y-84064879D01*
X107304994Y-84197334D01*
X107225166Y-84267799D01*
X107163176Y-84294112D01*
X107057034Y-84302587D01*
X106703821Y-84159879D01*
X107648843Y-84490334D02*
X107957905Y-84615203D01*
X107894137Y-85154386D02*
X107452621Y-84976002D01*
X107827228Y-84048818D01*
X108268744Y-84227202D01*
X108796785Y-84954133D02*
X108487724Y-84829264D01*
X108291502Y-85314932D02*
X108666108Y-84387748D01*
X109107624Y-84566132D01*
X109593292Y-84762355D02*
X109504100Y-84983113D01*
X109319019Y-84805617D02*
X109504100Y-84983113D01*
X109760535Y-84984001D01*
X109300292Y-85106204D02*
X109504100Y-84983113D01*
X109565201Y-85213234D01*
X110299718Y-85047769D02*
X110210526Y-85268527D01*
X110025445Y-85091032D02*
X110210526Y-85268527D01*
X110466961Y-85269416D01*
X110006717Y-85391618D02*
X110210526Y-85268527D01*
X110271627Y-85498649D01*
X174536526Y-79920752D02*
X174049081Y-79604105D01*
X174006707Y-80134813D02*
X173632100Y-79207629D01*
X173985313Y-79064922D01*
X174091455Y-79073397D01*
X174153445Y-79099710D01*
X174233273Y-79170175D01*
X174286789Y-79302630D01*
X174278314Y-79408771D01*
X174252001Y-79470761D01*
X174181536Y-79550590D01*
X173828323Y-79693297D01*
X174737668Y-79274539D02*
X175046730Y-79149670D01*
X175375407Y-79581822D02*
X174933891Y-79760207D01*
X174559284Y-78833023D01*
X175000800Y-78654639D01*
X175885610Y-78810740D02*
X175576549Y-78935609D01*
X175772771Y-79421277D02*
X175398165Y-78494093D01*
X175839681Y-78315709D01*
X176325349Y-78119486D02*
X176414541Y-78340244D01*
X176158106Y-78341133D02*
X176414541Y-78340244D01*
X176599622Y-78162749D01*
X176353439Y-78570366D02*
X176414541Y-78340244D01*
X176618349Y-78463336D01*
X177031774Y-77834072D02*
X177120966Y-78054830D01*
X176864532Y-78055719D02*
X177120966Y-78054830D01*
X177306048Y-77877335D01*
X177059865Y-78284952D02*
X177120966Y-78054830D01*
X177324775Y-78177921D01*
X199645152Y-91346904D02*
X199157707Y-91030257D01*
X199115333Y-91560965D02*
X198740726Y-90633781D01*
X199093939Y-90491074D01*
X199200081Y-90499549D01*
X199262071Y-90525862D01*
X199341899Y-90596327D01*
X199395415Y-90728782D01*
X199386940Y-90834923D01*
X199360627Y-90896913D01*
X199290162Y-90976742D01*
X198936949Y-91119449D01*
X199846294Y-90700691D02*
X200155356Y-90575822D01*
X200484033Y-91007974D02*
X200042517Y-91186359D01*
X199667910Y-90259175D01*
X200109426Y-90080791D01*
X200994236Y-90236892D02*
X200685175Y-90361761D01*
X200881397Y-90847429D02*
X200506791Y-89920245D01*
X200948307Y-89741861D01*
X201433975Y-89545638D02*
X201523167Y-89766396D01*
X201266732Y-89767285D02*
X201523167Y-89766396D01*
X201708248Y-89588901D01*
X201462065Y-89996518D02*
X201523167Y-89766396D01*
X201726975Y-89889488D01*
X202140400Y-89260224D02*
X202229592Y-89480982D01*
X201973158Y-89481871D02*
X202229592Y-89480982D01*
X202414674Y-89303487D01*
X202168491Y-89711104D02*
X202229592Y-89480982D01*
X202433401Y-89604073D01*
X192527626Y-73730411D02*
X192040181Y-73413764D01*
X191997807Y-73944472D02*
X191623200Y-73017288D01*
X191976413Y-72874581D01*
X192082555Y-72883056D01*
X192144545Y-72909369D01*
X192224373Y-72979834D01*
X192277889Y-73112289D01*
X192269414Y-73218430D01*
X192243101Y-73280420D01*
X192172636Y-73360249D01*
X191819423Y-73502956D01*
X192728768Y-73084198D02*
X193037830Y-72959329D01*
X193366507Y-73391481D02*
X192924991Y-73569866D01*
X192550384Y-72642682D01*
X192991900Y-72464298D01*
X193876710Y-72620399D02*
X193567649Y-72745268D01*
X193763871Y-73230936D02*
X193389265Y-72303752D01*
X193830781Y-72125368D01*
X194316449Y-71929145D02*
X194405641Y-72149903D01*
X194149206Y-72150792D02*
X194405641Y-72149903D01*
X194590722Y-71972408D01*
X194344539Y-72380025D02*
X194405641Y-72149903D01*
X194609449Y-72272995D01*
X195022874Y-71643731D02*
X195112066Y-71864489D01*
X194855632Y-71865378D02*
X195112066Y-71864489D01*
X195297148Y-71686994D01*
X195050965Y-72094611D02*
X195112066Y-71864489D01*
X195315875Y-71987580D01*
X185410101Y-56113918D02*
X184922656Y-55797271D01*
X184880282Y-56327979D02*
X184505675Y-55400795D01*
X184858888Y-55258088D01*
X184965030Y-55266563D01*
X185027020Y-55292876D01*
X185106848Y-55363341D01*
X185160364Y-55495796D01*
X185151889Y-55601937D01*
X185125576Y-55663927D01*
X185055111Y-55743756D01*
X184701898Y-55886463D01*
X185611243Y-55467705D02*
X185920305Y-55342836D01*
X186248982Y-55774988D02*
X185807466Y-55953373D01*
X185432859Y-55026189D01*
X185874375Y-54847805D01*
X186759185Y-55003906D02*
X186450124Y-55128775D01*
X186646346Y-55614443D02*
X186271740Y-54687259D01*
X186713256Y-54508875D01*
X187198924Y-54312652D02*
X187288116Y-54533410D01*
X187031681Y-54534299D02*
X187288116Y-54533410D01*
X187473197Y-54355915D01*
X187227014Y-54763532D02*
X187288116Y-54533410D01*
X187491924Y-54656502D01*
X187905349Y-54027238D02*
X187994541Y-54247996D01*
X187738107Y-54248885D02*
X187994541Y-54247996D01*
X188179623Y-54070501D01*
X187933440Y-54478118D02*
X187994541Y-54247996D01*
X188198350Y-54371087D01*
X222506137Y-97209953D02*
X222018692Y-96893306D01*
X221976318Y-97424014D02*
X221601711Y-96496830D01*
X221954924Y-96354123D01*
X222061066Y-96362598D01*
X222123056Y-96388911D01*
X222202884Y-96459376D01*
X222256400Y-96591831D01*
X222247925Y-96697972D01*
X222221612Y-96759962D01*
X222151147Y-96839791D01*
X221797934Y-96982498D01*
X222707279Y-96563740D02*
X223016341Y-96438871D01*
X223345018Y-96871023D02*
X222903502Y-97049408D01*
X222528895Y-96122224D01*
X222970411Y-95943840D01*
X223855221Y-96099941D02*
X223546160Y-96224810D01*
X223742382Y-96710478D02*
X223367776Y-95783294D01*
X223809292Y-95604910D01*
X224294960Y-95408687D02*
X224384152Y-95629445D01*
X224127717Y-95630334D02*
X224384152Y-95629445D01*
X224569233Y-95451950D01*
X224323050Y-95859567D02*
X224384152Y-95629445D01*
X224587960Y-95752537D01*
X225001385Y-95123273D02*
X225090577Y-95344031D01*
X224834143Y-95344920D02*
X225090577Y-95344031D01*
X225275659Y-95166536D01*
X225029476Y-95574153D02*
X225090577Y-95344031D01*
X225294386Y-95467122D01*
X167419001Y-62304259D02*
X166931556Y-61987612D01*
X166889182Y-62518320D02*
X166514575Y-61591136D01*
X166867788Y-61448429D01*
X166973930Y-61456904D01*
X167035920Y-61483217D01*
X167115748Y-61553682D01*
X167169264Y-61686137D01*
X167160789Y-61792278D01*
X167134476Y-61854268D01*
X167064011Y-61934097D01*
X166710798Y-62076804D01*
X167620143Y-61658046D02*
X167929205Y-61533177D01*
X168257882Y-61965329D02*
X167816366Y-62143714D01*
X167441759Y-61216530D01*
X167883275Y-61038146D01*
X168768085Y-61194247D02*
X168459024Y-61319116D01*
X168655246Y-61804784D02*
X168280640Y-60877600D01*
X168722156Y-60699216D01*
X169207824Y-60502993D02*
X169297016Y-60723751D01*
X169040581Y-60724640D02*
X169297016Y-60723751D01*
X169482097Y-60546256D01*
X169235914Y-60953873D02*
X169297016Y-60723751D01*
X169500824Y-60846843D01*
X169914249Y-60217579D02*
X170003441Y-60438337D01*
X169747007Y-60439226D02*
X170003441Y-60438337D01*
X170188523Y-60260842D01*
X169942340Y-60668459D02*
X170003441Y-60438337D01*
X170207250Y-60561428D01*
X89166148Y-78666322D02*
X89035471Y-78099937D01*
X88636329Y-78452261D02*
X89010936Y-77525078D01*
X89364149Y-77667785D01*
X89434613Y-77747613D01*
X89460927Y-77809603D01*
X89469401Y-77915745D01*
X89415886Y-78048200D01*
X89336058Y-78118665D01*
X89274068Y-78144978D01*
X89167926Y-78153453D01*
X88814713Y-78010745D01*
X89759735Y-78341200D02*
X90068797Y-78466069D01*
X90005029Y-79005252D02*
X89563513Y-78826868D01*
X89938120Y-77899684D01*
X90379636Y-78078068D01*
X90907677Y-78804999D02*
X90598616Y-78680130D01*
X90402394Y-79165798D02*
X90777000Y-78238614D01*
X91218516Y-78416998D01*
X91704184Y-78613221D02*
X91614992Y-78833979D01*
X91429911Y-78656483D02*
X91614992Y-78833979D01*
X91871427Y-78834867D01*
X91411184Y-78957070D02*
X91614992Y-78833979D01*
X91676093Y-79064100D01*
X92410610Y-78898635D02*
X92321418Y-79119393D01*
X92136337Y-78941898D02*
X92321418Y-79119393D01*
X92577853Y-79120282D01*
X92117609Y-79242484D02*
X92321418Y-79119393D01*
X92382519Y-79349515D01*
X39596119Y-99623050D02*
X39465442Y-99056665D01*
X39066300Y-99408989D02*
X39440907Y-98481806D01*
X39794120Y-98624513D01*
X39864584Y-98704341D01*
X39890898Y-98766331D01*
X39899372Y-98872473D01*
X39845857Y-99004928D01*
X39766029Y-99075393D01*
X39704039Y-99101706D01*
X39597897Y-99110181D01*
X39244684Y-98967473D01*
X40189706Y-99297928D02*
X40498768Y-99422797D01*
X40435000Y-99961980D02*
X39993484Y-99783596D01*
X40368091Y-98856412D01*
X40809607Y-99034796D01*
X41337648Y-99761727D02*
X41028587Y-99636858D01*
X40832365Y-100122526D02*
X41206971Y-99195342D01*
X41648487Y-99373726D01*
X42134155Y-99569949D02*
X42044963Y-99790707D01*
X41859882Y-99613211D02*
X42044963Y-99790707D01*
X42301398Y-99791595D01*
X41841155Y-99913798D02*
X42044963Y-99790707D01*
X42106064Y-100020828D01*
X42840581Y-99855363D02*
X42751389Y-100076121D01*
X42566308Y-99898626D02*
X42751389Y-100076121D01*
X43007824Y-100077010D01*
X42547580Y-100199212D02*
X42751389Y-100076121D01*
X42812490Y-100306243D01*
X96283673Y-61049828D02*
X96152996Y-60483443D01*
X95753854Y-60835767D02*
X96128461Y-59908584D01*
X96481674Y-60051291D01*
X96552138Y-60131119D01*
X96578452Y-60193109D01*
X96586926Y-60299251D01*
X96533411Y-60431706D01*
X96453583Y-60502171D01*
X96391593Y-60528484D01*
X96285451Y-60536959D01*
X95932238Y-60394251D01*
X96877260Y-60724706D02*
X97186322Y-60849575D01*
X97122554Y-61388758D02*
X96681038Y-61210374D01*
X97055645Y-60283190D01*
X97497161Y-60461574D01*
X98025202Y-61188505D02*
X97716141Y-61063636D01*
X97519919Y-61549304D02*
X97894525Y-60622120D01*
X98336041Y-60800504D01*
X98821709Y-60996727D02*
X98732517Y-61217485D01*
X98547436Y-61039989D02*
X98732517Y-61217485D01*
X98988952Y-61218373D01*
X98528709Y-61340576D02*
X98732517Y-61217485D01*
X98793618Y-61447606D01*
X99528135Y-61282141D02*
X99438943Y-61502899D01*
X99253862Y-61325404D02*
X99438943Y-61502899D01*
X99695378Y-61503788D01*
X99235134Y-61625990D02*
X99438943Y-61502899D01*
X99500044Y-61733021D01*
X59085646Y-102104656D02*
X58954969Y-101538271D01*
X58555827Y-101890595D02*
X58930434Y-100963412D01*
X59283647Y-101106119D01*
X59354111Y-101185947D01*
X59380425Y-101247937D01*
X59388899Y-101354079D01*
X59335384Y-101486534D01*
X59255556Y-101556999D01*
X59193566Y-101583312D01*
X59087424Y-101591787D01*
X58734211Y-101449079D01*
X59679233Y-101779534D02*
X59988295Y-101904403D01*
X59924527Y-102443586D02*
X59483011Y-102265202D01*
X59857618Y-101338018D01*
X60299134Y-101516402D01*
X60827175Y-102243333D02*
X60518114Y-102118464D01*
X60321892Y-102604132D02*
X60696498Y-101676948D01*
X61138014Y-101855332D01*
X61623682Y-102051555D02*
X61534490Y-102272313D01*
X61349409Y-102094817D02*
X61534490Y-102272313D01*
X61790925Y-102273201D01*
X61330682Y-102395404D02*
X61534490Y-102272313D01*
X61595591Y-102502434D01*
X62330108Y-102336969D02*
X62240916Y-102557727D01*
X62055835Y-102380232D02*
X62240916Y-102557727D01*
X62497351Y-102558616D01*
X62037107Y-102680818D02*
X62240916Y-102557727D01*
X62302017Y-102787849D01*
M02*
