%FSLAX45Y45*%
G04 Gerber Fmt 4.5, Leading zero omitted, Abs format (unit mm)*
G04 Created by KiCad (PCBNEW (5.1.4)-1) date 2025-05-28 15:25:05*
%MOMM*%
%LPD*%
G04 APERTURE LIST*
%ADD10C,0.050000*%
%ADD11C,0.200000*%
%ADD12C,0.300000*%
G04 APERTURE END LIST*
D10*
X8755540Y-11152960D02*
G75*
G03X8755540Y-11152960I-160000J0D01*
G01*
X20215540Y-11152960D02*
G75*
G03X20215540Y-11152960I-160000J0D01*
G01*
X10535540Y-6992960D02*
G75*
G03X10535540Y-6992960I-160000J0D01*
G01*
X18435540Y-6992960D02*
G75*
G03X18435540Y-6992960I-160000J0D01*
G01*
X18886635Y-4469295D02*
G75*
G02X18924096Y-4562013I18730J-46359D01*
G01*
X18924096Y-4562013D02*
X18089630Y-4899159D01*
X18089630Y-4899159D02*
G75*
G02X18052170Y-4806441I-18730J46359D01*
G01*
X18052170Y-4806441D02*
X18886635Y-4469295D01*
X15560000Y-11090000D02*
G75*
G02X15560000Y-10990000I0J50000D01*
G01*
X16060000Y-10990000D02*
G75*
G02X16060000Y-11090000I0J-50000D01*
G01*
X15560000Y-12440000D02*
G75*
G02X15560000Y-12340000I0J50000D01*
G01*
X16060000Y-12340000D02*
G75*
G02X16060000Y-12440000I0J-50000D01*
G01*
X15560000Y-12440000D02*
X16060000Y-12440000D01*
X16060000Y-12340000D02*
X15560000Y-12340000D01*
X16060000Y-10990000D02*
X15560000Y-10990000D01*
X15560000Y-11090000D02*
X16060000Y-11090000D01*
X9740673Y-4449192D02*
X11038730Y-4973641D01*
X11001270Y-5066359D02*
G75*
G03X11038730Y-4973641I18730J46359D01*
G01*
X11001270Y-5066359D02*
X9703212Y-4541910D01*
X9740673Y-4449192D02*
G75*
G03X9703212Y-4541910I-18730J-46359D01*
G01*
X11470673Y-5049192D02*
X12768730Y-5573641D01*
X12731270Y-5666359D02*
G75*
G03X12768730Y-5573641I18730J46359D01*
G01*
X12731270Y-5666359D02*
X11433212Y-5141910D01*
X11470673Y-5049192D02*
G75*
G03X11433212Y-5141910I-18730J-46359D01*
G01*
X17169327Y-5059192D02*
X15871270Y-5583641D01*
X15908730Y-5676359D02*
G75*
G02X15871270Y-5583641I-18730J46359D01*
G01*
X15908730Y-5676359D02*
X17206788Y-5151910D01*
X17169327Y-5059192D02*
G75*
G02X17206788Y-5151910I18730J-46359D01*
G01*
X17937240Y-12321540D02*
G75*
G03X17937240Y-12321540I-150000J0D01*
G01*
X11016500Y-12379960D02*
G75*
G03X11016500Y-12379960I-150000J0D01*
G01*
X7743840Y-10128860D02*
G75*
G03X7743840Y-10128860I-150000J0D01*
G01*
X21202280Y-10116160D02*
G75*
G03X21202280Y-10116160I-150000J0D01*
G01*
X13692000Y-6712000D02*
X14953000Y-6712000D01*
X15173000Y-6492000D02*
X14953000Y-6712000D01*
X13472327Y-6492000D02*
X13692000Y-6712000D01*
X4056515Y-8800312D02*
X3143855Y-9057124D01*
X5298941Y-9302285D02*
X4056515Y-8800312D01*
X7312797Y-9576668D02*
X5949837Y-9025997D01*
X3143855Y-9057124D02*
X3113887Y-9131299D01*
X10461472Y-2824517D02*
X10083952Y-2984764D01*
X10083952Y-2984764D02*
X7446722Y-9512139D01*
X7312797Y-9576668D02*
X7446722Y-9512139D01*
X5949837Y-9025997D02*
X5298941Y-9302285D01*
X15173000Y-4092000D02*
X15493000Y-3912000D01*
X18183855Y-2824517D02*
X15493000Y-3912000D01*
X10461472Y-2824517D02*
X13152327Y-3912000D01*
X13472327Y-4092000D02*
X13152327Y-3912000D01*
X13472327Y-4092000D02*
X13472327Y-6492000D01*
X2839304Y-10131251D02*
X6594399Y-11648408D01*
X3113887Y-9131299D02*
X2772995Y-9975036D01*
X2772995Y-9975036D02*
X2839304Y-10131251D01*
X6594399Y-11648408D02*
X11019145Y-14978426D01*
X25501471Y-9057124D02*
X25531440Y-9131299D01*
X25872332Y-9975036D02*
X25806023Y-10131251D01*
X25806023Y-10131251D02*
X22050928Y-11648408D01*
X23346385Y-9302285D02*
X24588812Y-8800312D01*
X21332530Y-9576668D02*
X21198605Y-9512139D01*
X22050928Y-11648408D02*
X17626182Y-14978426D01*
X21332530Y-9576668D02*
X22695490Y-9025997D01*
X25531440Y-9131299D02*
X25872332Y-9975036D01*
X18561374Y-2984764D02*
X21198605Y-9512139D01*
X18183855Y-2824517D02*
X18561374Y-2984764D01*
X24588812Y-8800312D02*
X25501471Y-9057124D01*
X22695490Y-9025997D02*
X23346385Y-9302285D01*
X11019145Y-14978426D02*
X17626182Y-14978426D01*
X15173000Y-4092000D02*
X15173000Y-6492000D01*
D11*
X4930460Y-10749600D02*
X4970460Y-10789600D01*
X4970460Y-10749600D02*
X4930460Y-10789600D01*
X4940620Y-9891080D02*
X4980620Y-9931080D01*
X4980620Y-9891080D02*
X4940620Y-9931080D01*
X5062540Y-10206040D02*
X5102540Y-10246040D01*
X5102540Y-10206040D02*
X5062540Y-10246040D01*
X7294540Y-10777240D02*
X7334540Y-10817240D01*
X7334540Y-10777240D02*
X7294540Y-10817240D01*
X7658420Y-9779320D02*
X7698420Y-9819320D01*
X7698420Y-9779320D02*
X7658420Y-9819320D01*
X9177340Y-9560880D02*
X9217340Y-9600880D01*
X9217340Y-9560880D02*
X9177340Y-9600880D01*
X9477060Y-12390440D02*
X9517060Y-12430440D01*
X9517060Y-12390440D02*
X9477060Y-12430440D01*
X9502460Y-10429560D02*
X9542460Y-10469560D01*
X9542460Y-10429560D02*
X9502460Y-10469560D01*
X9873300Y-7818440D02*
X9913300Y-7858440D01*
X9913300Y-7818440D02*
X9873300Y-7858440D01*
X9893620Y-12776520D02*
X9933620Y-12816520D01*
X9933620Y-12776520D02*
X9893620Y-12816520D01*
X9895540Y-10772960D02*
X9935540Y-10812960D01*
X9935540Y-10772960D02*
X9895540Y-10812960D01*
X10015540Y-6812960D02*
X10055540Y-6852960D01*
X10055540Y-6812960D02*
X10015540Y-6852960D01*
X10173020Y-13071160D02*
X10213020Y-13111160D01*
X10213020Y-13071160D02*
X10173020Y-13111160D01*
X10325420Y-13066080D02*
X10365420Y-13106080D01*
X10365420Y-13066080D02*
X10325420Y-13106080D01*
X10467660Y-13071160D02*
X10507660Y-13111160D01*
X10507660Y-13071160D02*
X10467660Y-13111160D01*
X10614980Y-13066080D02*
X10654980Y-13106080D01*
X10654980Y-13066080D02*
X10614980Y-13106080D01*
X10620060Y-12771440D02*
X10660060Y-12811440D01*
X10660060Y-12771440D02*
X10620060Y-12811440D01*
X10762300Y-13066080D02*
X10802300Y-13106080D01*
X10802300Y-13066080D02*
X10762300Y-13106080D01*
X10899460Y-11074720D02*
X10939460Y-11114720D01*
X10939460Y-11074720D02*
X10899460Y-11114720D01*
X10909620Y-13055920D02*
X10949620Y-13095920D01*
X10949620Y-13055920D02*
X10909620Y-13095920D01*
X11072180Y-4750120D02*
X11112180Y-4790120D01*
X11112180Y-4750120D02*
X11072180Y-4790120D01*
X11097580Y-11171240D02*
X11137580Y-11211240D01*
X11137580Y-11171240D02*
X11097580Y-11211240D01*
X11488740Y-9159560D02*
X11528740Y-9199560D01*
X11528740Y-9159560D02*
X11488740Y-9199560D01*
X11493820Y-9454200D02*
X11533820Y-9494200D01*
X11533820Y-9454200D02*
X11493820Y-9494200D01*
X11503980Y-9301800D02*
X11543980Y-9341800D01*
X11543980Y-9301800D02*
X11503980Y-9341800D01*
X11503980Y-9601520D02*
X11543980Y-9641520D01*
X11543980Y-9601520D02*
X11503980Y-9641520D01*
X11509060Y-9753920D02*
X11549060Y-9793920D01*
X11549060Y-9753920D02*
X11509060Y-9793920D01*
X11509060Y-9891080D02*
X11549060Y-9931080D01*
X11549060Y-9891080D02*
X11509060Y-9931080D01*
X11723388Y-8459488D02*
X11763388Y-8499488D01*
X11763388Y-8459488D02*
X11723388Y-8499488D01*
X12392980Y-8240080D02*
X12432980Y-8280080D01*
X12432980Y-8240080D02*
X12392980Y-8280080D01*
X12398060Y-8387400D02*
X12438060Y-8427400D01*
X12438060Y-8387400D02*
X12398060Y-8427400D01*
X12403140Y-8087680D02*
X12443140Y-8127680D01*
X12443140Y-8087680D02*
X12403140Y-8127680D01*
X12403140Y-8687120D02*
X12443140Y-8727120D01*
X12443140Y-8687120D02*
X12403140Y-8727120D01*
X12408220Y-8524560D02*
X12448220Y-8564560D01*
X12448220Y-8524560D02*
X12408220Y-8564560D01*
X12601260Y-8793800D02*
X12641260Y-8833800D01*
X12641260Y-8793800D02*
X12601260Y-8833800D01*
X12606340Y-9190040D02*
X12646340Y-9230040D01*
X12646340Y-9190040D02*
X12606340Y-9230040D01*
X12652060Y-7676200D02*
X12692060Y-7716200D01*
X12692060Y-7676200D02*
X12652060Y-7716200D01*
X12657140Y-7442520D02*
X12697140Y-7482520D01*
X12697140Y-7442520D02*
X12657140Y-7482520D01*
X12779667Y-7422807D02*
X12819667Y-7462807D01*
X12819667Y-7422807D02*
X12779667Y-7462807D01*
X12855260Y-6162360D02*
X12895260Y-6202360D01*
X12895260Y-6162360D02*
X12855260Y-6202360D01*
X12860340Y-6299520D02*
X12900340Y-6339520D01*
X12900340Y-6299520D02*
X12860340Y-6339520D01*
X12860340Y-6604320D02*
X12900340Y-6644320D01*
X12900340Y-6604320D02*
X12860340Y-6644320D01*
X12860340Y-8707440D02*
X12900340Y-8747440D01*
X12900340Y-8707440D02*
X12860340Y-8747440D01*
X12865420Y-6462080D02*
X12905420Y-6502080D01*
X12905420Y-6462080D02*
X12865420Y-6502080D01*
X12865420Y-6756720D02*
X12905420Y-6796720D01*
X12905420Y-6756720D02*
X12865420Y-6796720D01*
X12873999Y-8448360D02*
X12913999Y-8488360D01*
X12913999Y-8448360D02*
X12873999Y-8488360D01*
X13024179Y-9438960D02*
X13064179Y-9478960D01*
X13064179Y-9438960D02*
X13024179Y-9478960D01*
X13053264Y-11449059D02*
X13093264Y-11489059D01*
X13093264Y-11449059D02*
X13053264Y-11489059D01*
X13068620Y-6843080D02*
X13108620Y-6883080D01*
X13108620Y-6843080D02*
X13068620Y-6883080D01*
X13102627Y-11560321D02*
X13142627Y-11600321D01*
X13142627Y-11560321D02*
X13102627Y-11600321D01*
X13287060Y-6111560D02*
X13327060Y-6151560D01*
X13327060Y-6111560D02*
X13287060Y-6151560D01*
X13358787Y-13384187D02*
X13398787Y-13424187D01*
X13398787Y-13384187D02*
X13358787Y-13424187D01*
X13456224Y-13425744D02*
X13496224Y-13465744D01*
X13496224Y-13425744D02*
X13456224Y-13465744D01*
X13531695Y-13006758D02*
X13571695Y-13046758D01*
X13571695Y-13006758D02*
X13531695Y-13046758D01*
X13731560Y-13422942D02*
X13771560Y-13462942D01*
X13771560Y-13422942D02*
X13731560Y-13462942D01*
X13904280Y-13422942D02*
X13944280Y-13462942D01*
X13944280Y-13422942D02*
X13904280Y-13462942D01*
X13905122Y-13568343D02*
X13945122Y-13608343D01*
X13945122Y-13568343D02*
X13905122Y-13608343D01*
X13922018Y-13666907D02*
X13962018Y-13706907D01*
X13962018Y-13666907D02*
X13922018Y-13706907D01*
X14457000Y-11799620D02*
X14497000Y-11839620D01*
X14497000Y-11799620D02*
X14457000Y-11839620D01*
X14457000Y-12889820D02*
X14497000Y-12929820D01*
X14497000Y-12889820D02*
X14457000Y-12929820D01*
X14457000Y-14093000D02*
X14497000Y-14133000D01*
X14497000Y-14093000D02*
X14457000Y-14133000D01*
X14460540Y-14442760D02*
X14500540Y-14482760D01*
X14500540Y-14442760D02*
X14460540Y-14482760D01*
X14889803Y-11100120D02*
X14929803Y-11140120D01*
X14929803Y-11100120D02*
X14889803Y-11140120D01*
X14944402Y-13072294D02*
X14984402Y-13112294D01*
X14984402Y-13072294D02*
X14944402Y-13112294D01*
X14989803Y-12467000D02*
X15029803Y-12507000D01*
X15029803Y-12467000D02*
X14989803Y-12507000D01*
X15320900Y-12542800D02*
X15360900Y-12582800D01*
X15360900Y-12542800D02*
X15320900Y-12582800D01*
X15740700Y-6139500D02*
X15780700Y-6179500D01*
X15780700Y-6139500D02*
X15740700Y-6179500D01*
X15753400Y-6291900D02*
X15793400Y-6331900D01*
X15793400Y-6291900D02*
X15753400Y-6331900D01*
X15753400Y-6730050D02*
X15793400Y-6770050D01*
X15793400Y-6730050D02*
X15753400Y-6770050D01*
X15766100Y-6431600D02*
X15806100Y-6471600D01*
X15806100Y-6431600D02*
X15766100Y-6471600D01*
X15766100Y-6571300D02*
X15806100Y-6611300D01*
X15806100Y-6571300D02*
X15766100Y-6611300D01*
X15867700Y-7168200D02*
X15907700Y-7208200D01*
X15907700Y-7168200D02*
X15867700Y-7208200D01*
X16353000Y-14007000D02*
X16393000Y-14047000D01*
X16393000Y-14007000D02*
X16353000Y-14047000D01*
X16515400Y-7765100D02*
X16555400Y-7805100D01*
X16555400Y-7765100D02*
X16515400Y-7805100D01*
X16528100Y-7625400D02*
X16568100Y-7665400D01*
X16568100Y-7625400D02*
X16528100Y-7665400D01*
X16528100Y-7917500D02*
X16568100Y-7957500D01*
X16568100Y-7917500D02*
X16528100Y-7957500D01*
X16528100Y-8057200D02*
X16568100Y-8097200D01*
X16568100Y-8057200D02*
X16528100Y-8097200D01*
X16528100Y-8215950D02*
X16568100Y-8255950D01*
X16568100Y-8215950D02*
X16528100Y-8255950D01*
X17226600Y-9479600D02*
X17266600Y-9519600D01*
X17266600Y-9479600D02*
X17226600Y-9519600D01*
X17232950Y-9619300D02*
X17272950Y-9659300D01*
X17272950Y-9619300D02*
X17232950Y-9659300D01*
X17232950Y-9911400D02*
X17272950Y-9951400D01*
X17272950Y-9911400D02*
X17232950Y-9951400D01*
X17232950Y-10063800D02*
X17272950Y-10103800D01*
X17272950Y-10063800D02*
X17232950Y-10103800D01*
X17239300Y-9765350D02*
X17279300Y-9805350D01*
X17279300Y-9765350D02*
X17239300Y-9805350D01*
X17379000Y-4418650D02*
X17419000Y-4458650D01*
X17419000Y-4418650D02*
X17379000Y-4458650D01*
X18036860Y-12669840D02*
X18076860Y-12709840D01*
X18076860Y-12669840D02*
X18036860Y-12709840D01*
X18045750Y-6203000D02*
X18085750Y-6243000D01*
X18085750Y-6203000D02*
X18045750Y-6243000D01*
X18265460Y-12583480D02*
X18305460Y-12623480D01*
X18305460Y-12583480D02*
X18265460Y-12623480D01*
X18407700Y-12999593D02*
X18447700Y-13039593D01*
X18447700Y-12999593D02*
X18407700Y-13039593D01*
X18676008Y-12889820D02*
X18716008Y-12929820D01*
X18716008Y-12889820D02*
X18676008Y-12929820D01*
X18687100Y-13589320D02*
X18727100Y-13629320D01*
X18727100Y-13589320D02*
X18687100Y-13629320D01*
X18750600Y-7936550D02*
X18790600Y-7976550D01*
X18790600Y-7936550D02*
X18750600Y-7976550D01*
X18750600Y-10882950D02*
X18790600Y-10922950D01*
X18790600Y-10882950D02*
X18750600Y-10922950D01*
X18839500Y-10668320D02*
X18879500Y-10708320D01*
X18879500Y-10668320D02*
X18839500Y-10708320D01*
X18890300Y-10876600D02*
X18930300Y-10916600D01*
X18930300Y-10876600D02*
X18890300Y-10916600D01*
X19036350Y-10882950D02*
X19076350Y-10922950D01*
X19076350Y-10882950D02*
X19036350Y-10922950D01*
X19188750Y-10882950D02*
X19228750Y-10922950D01*
X19228750Y-10882950D02*
X19188750Y-10922950D01*
X19341150Y-10870250D02*
X19381150Y-10910250D01*
X19381150Y-10870250D02*
X19341150Y-10910250D01*
X19487200Y-9708200D02*
X19527200Y-9748200D01*
X19527200Y-9708200D02*
X19487200Y-9748200D01*
X20531140Y-10988360D02*
X20571140Y-11028360D01*
X20571140Y-10988360D02*
X20531140Y-11028360D01*
X20690900Y-9972800D02*
X20730900Y-10012800D01*
X20730900Y-9972800D02*
X20690900Y-10012800D01*
X20744500Y-10903581D02*
X20784500Y-10943581D01*
X20784500Y-10903581D02*
X20744500Y-10943581D01*
X22898420Y-10896920D02*
X22938420Y-10936920D01*
X22938420Y-10896920D02*
X22898420Y-10936920D01*
X23150900Y-9920040D02*
X23190900Y-9960040D01*
X23190900Y-9920040D02*
X23150900Y-9960040D01*
X13985500Y-14457000D02*
G75*
G03X13985500Y-14457000I-37500J0D01*
G01*
X13548000Y-14417000D02*
X13548000Y-14497000D01*
X13508000Y-14457000D02*
X13588000Y-14457000D01*
X13748000Y-14417000D02*
X13748000Y-14497000D01*
X13708000Y-14457000D02*
X13788000Y-14457000D01*
X2967905Y-9968870D02*
X2967905Y-9898158D01*
X2897194Y-9898158D01*
X2897194Y-9968870D01*
X2967905Y-9968870D01*
X3063056Y-9733365D02*
X3063056Y-9662654D01*
X2992344Y-9662654D01*
X2992344Y-9733365D01*
X3063056Y-9733365D01*
X3158206Y-9497860D02*
X3158206Y-9427149D01*
X3087494Y-9427149D01*
X3087494Y-9497860D01*
X3158206Y-9497860D01*
X3253356Y-9262356D02*
X3253356Y-9191644D01*
X3182644Y-9191644D01*
X3182644Y-9262356D01*
X3253356Y-9262356D01*
X18295438Y-5029286D02*
X18295438Y-4958574D01*
X18224727Y-4958574D01*
X18224727Y-5029286D01*
X18295438Y-5029286D01*
X18530943Y-4934136D02*
X18530943Y-4863424D01*
X18460231Y-4863424D01*
X18460231Y-4934136D01*
X18530943Y-4934136D01*
X18766447Y-4838986D02*
X18766447Y-4768274D01*
X18695736Y-4768274D01*
X18695736Y-4838986D01*
X18766447Y-4838986D01*
X19001952Y-4743836D02*
X19001952Y-4673124D01*
X18931241Y-4673124D01*
X18931241Y-4743836D01*
X19001952Y-4743836D01*
X19718943Y-8552584D02*
X19718943Y-8481873D01*
X19648232Y-8481873D01*
X19648232Y-8552584D01*
X19718943Y-8552584D01*
X19954448Y-8457434D02*
X19954448Y-8386723D01*
X19883736Y-8386723D01*
X19883736Y-8457434D01*
X19954448Y-8457434D01*
X20189952Y-8362284D02*
X20189952Y-8291573D01*
X20119241Y-8291573D01*
X20119241Y-8362284D01*
X20189952Y-8362284D01*
X20425457Y-8267134D02*
X20425457Y-8196423D01*
X20354746Y-8196423D01*
X20354746Y-8267134D01*
X20425457Y-8267134D01*
X16858629Y-14207667D02*
X16858629Y-14136956D01*
X16787918Y-14136956D01*
X16787918Y-14207667D01*
X16858629Y-14207667D01*
X17011490Y-14410521D02*
X17011490Y-14339809D01*
X16940779Y-14339809D01*
X16940779Y-14410521D01*
X17011490Y-14410521D01*
X17164351Y-14613374D02*
X17164351Y-14542663D01*
X17093640Y-14542663D01*
X17093640Y-14613374D01*
X17164351Y-14613374D01*
X17317212Y-14816228D02*
X17317212Y-14745516D01*
X17246501Y-14745516D01*
X17246501Y-14816228D01*
X17317212Y-14816228D01*
X10613235Y-3057250D02*
X10613235Y-2986539D01*
X10542524Y-2986539D01*
X10542524Y-3057250D01*
X10613235Y-3057250D01*
X10848740Y-3152400D02*
X10848740Y-3081689D01*
X10778029Y-3081689D01*
X10778029Y-3152400D01*
X10848740Y-3152400D01*
X11084245Y-3247550D02*
X11084245Y-3176839D01*
X11013533Y-3176839D01*
X11013533Y-3247550D01*
X11084245Y-3247550D01*
X11319749Y-3342700D02*
X11319749Y-3271989D01*
X11249038Y-3271989D01*
X11249038Y-3342700D01*
X11319749Y-3342700D01*
X7899795Y-12448773D02*
X7899795Y-12378061D01*
X7829084Y-12378061D01*
X7829084Y-12448773D01*
X7899795Y-12448773D01*
X8102649Y-12601634D02*
X8102649Y-12530922D01*
X8031937Y-12530922D01*
X8031937Y-12601634D01*
X8102649Y-12601634D01*
X8305502Y-12754495D02*
X8305502Y-12683783D01*
X8234791Y-12683783D01*
X8234791Y-12754495D01*
X8305502Y-12754495D01*
X8508356Y-12907356D02*
X8508356Y-12836644D01*
X8437644Y-12836644D01*
X8437644Y-12907356D01*
X8508356Y-12907356D01*
X25456751Y-9241314D02*
X25456751Y-9170603D01*
X25386039Y-9170603D01*
X25386039Y-9241314D01*
X25456751Y-9241314D01*
X25551901Y-9476819D02*
X25551901Y-9406108D01*
X25481189Y-9406108D01*
X25481189Y-9476819D01*
X25551901Y-9476819D01*
X25647051Y-9712324D02*
X25647051Y-9641612D01*
X25576339Y-9641612D01*
X25576339Y-9712324D01*
X25647051Y-9712324D01*
X25742201Y-9947829D02*
X25742201Y-9877117D01*
X25671490Y-9877117D01*
X25671490Y-9947829D01*
X25742201Y-9947829D01*
X13715356Y-10335356D02*
X13715356Y-10264644D01*
X13644644Y-10264644D01*
X13644644Y-10335356D01*
X13715356Y-10335356D01*
X13969356Y-10335356D02*
X13969356Y-10264644D01*
X13898644Y-10264644D01*
X13898644Y-10335356D01*
X13969356Y-10335356D01*
X19007190Y-6790935D02*
X19007190Y-6720224D01*
X18936479Y-6720224D01*
X18936479Y-6790935D01*
X19007190Y-6790935D01*
X19242695Y-6695785D02*
X19242695Y-6625074D01*
X19171984Y-6625074D01*
X19171984Y-6695785D01*
X19242695Y-6695785D01*
X19478200Y-6600635D02*
X19478200Y-6529924D01*
X19407488Y-6529924D01*
X19407488Y-6600635D01*
X19478200Y-6600635D01*
X19713705Y-6505485D02*
X19713705Y-6434773D01*
X19642993Y-6434773D01*
X19642993Y-6505485D01*
X19713705Y-6505485D01*
X8292541Y-8267277D02*
X8292541Y-8196565D01*
X8221829Y-8196565D01*
X8221829Y-8267277D01*
X8292541Y-8267277D01*
X8528046Y-8362427D02*
X8528046Y-8291715D01*
X8457334Y-8291715D01*
X8457334Y-8362427D01*
X8528046Y-8362427D01*
X8763550Y-8457577D02*
X8763550Y-8386865D01*
X8692839Y-8386865D01*
X8692839Y-8457577D01*
X8763550Y-8457577D01*
X8999055Y-8552727D02*
X8999055Y-8482016D01*
X8928344Y-8482016D01*
X8928344Y-8552727D01*
X8999055Y-8552727D01*
X9716046Y-4743978D02*
X9716046Y-4673267D01*
X9645335Y-4673267D01*
X9645335Y-4743978D01*
X9716046Y-4743978D01*
X9951551Y-4839128D02*
X9951551Y-4768417D01*
X9880839Y-4768417D01*
X9880839Y-4839128D01*
X9951551Y-4839128D01*
X10187055Y-4934278D02*
X10187055Y-4863567D01*
X10116344Y-4863567D01*
X10116344Y-4934278D01*
X10187055Y-4934278D01*
X10422560Y-5029428D02*
X10422560Y-4958717D01*
X10351849Y-4958717D01*
X10351849Y-5029428D01*
X10422560Y-5029428D01*
X14358356Y-7357356D02*
X14358356Y-7286644D01*
X14287644Y-7286644D01*
X14287644Y-7357356D01*
X14358356Y-7357356D01*
X14358356Y-7611356D02*
X14358356Y-7540644D01*
X14287644Y-7540644D01*
X14287644Y-7611356D01*
X14358356Y-7611356D01*
X14358356Y-7865356D02*
X14358356Y-7794644D01*
X14287644Y-7794644D01*
X14287644Y-7865356D01*
X14358356Y-7865356D01*
X14358356Y-8119356D02*
X14358356Y-8048644D01*
X14287644Y-8048644D01*
X14287644Y-8119356D01*
X14358356Y-8119356D01*
X13383356Y-14492356D02*
X13383356Y-14421644D01*
X13312644Y-14421644D01*
X13312644Y-14492356D01*
X13383356Y-14492356D01*
X14183356Y-14492356D02*
X14183356Y-14421644D01*
X14112644Y-14421644D01*
X14112644Y-14492356D01*
X14183356Y-14492356D01*
X20395232Y-12781320D02*
X20395232Y-12710609D01*
X20324521Y-12710609D01*
X20324521Y-12781320D01*
X20395232Y-12781320D01*
X20598086Y-12628459D02*
X20598086Y-12557748D01*
X20527374Y-12557748D01*
X20527374Y-12628459D01*
X20598086Y-12628459D01*
X20800939Y-12475598D02*
X20800939Y-12404887D01*
X20730228Y-12404887D01*
X20730228Y-12475598D01*
X20800939Y-12475598D01*
X21003793Y-12322737D02*
X21003793Y-12252026D01*
X20933081Y-12252026D01*
X20933081Y-12322737D01*
X21003793Y-12322737D01*
X9004293Y-6505627D02*
X9004293Y-6434916D01*
X8933582Y-6434916D01*
X8933582Y-6505627D01*
X9004293Y-6505627D01*
X9239798Y-6600777D02*
X9239798Y-6530066D01*
X9169087Y-6530066D01*
X9169087Y-6600777D01*
X9239798Y-6600777D01*
X9475303Y-6695927D02*
X9475303Y-6625216D01*
X9404591Y-6625216D01*
X9404591Y-6695927D01*
X9475303Y-6695927D01*
X9710808Y-6791078D02*
X9710808Y-6720366D01*
X9640096Y-6720366D01*
X9640096Y-6791078D01*
X9710808Y-6791078D01*
X17398249Y-3342558D02*
X17398249Y-3271846D01*
X17327537Y-3271846D01*
X17327537Y-3342558D01*
X17398249Y-3342558D01*
X17633753Y-3247408D02*
X17633753Y-3176696D01*
X17563042Y-3176696D01*
X17563042Y-3247408D01*
X17633753Y-3247408D01*
X17869258Y-3152258D02*
X17869258Y-3081546D01*
X17798547Y-3081546D01*
X17798547Y-3152258D01*
X17869258Y-3152258D01*
X18104763Y-3057108D02*
X18104763Y-2986396D01*
X18034051Y-2986396D01*
X18034051Y-3057108D01*
X18104763Y-3057108D01*
X11399793Y-14816165D02*
X11399793Y-14745454D01*
X11329082Y-14745454D01*
X11329082Y-14816165D01*
X11399793Y-14816165D01*
X11552654Y-14613312D02*
X11552654Y-14542600D01*
X11481943Y-14542600D01*
X11481943Y-14613312D01*
X11552654Y-14613312D01*
X11705515Y-14410458D02*
X11705515Y-14339747D01*
X11634804Y-14339747D01*
X11634804Y-14410458D01*
X11705515Y-14410458D01*
X11858376Y-14207605D02*
X11858376Y-14136893D01*
X11787665Y-14136893D01*
X11787665Y-14207605D01*
X11858376Y-14207605D01*
X17689795Y-14790939D02*
X17689795Y-14720227D01*
X17619084Y-14720227D01*
X17619084Y-14790939D01*
X17689795Y-14790939D01*
X17892649Y-14638078D02*
X17892649Y-14567366D01*
X17821938Y-14567366D01*
X17821938Y-14638078D01*
X17892649Y-14638078D01*
X18095502Y-14485217D02*
X18095502Y-14414505D01*
X18024791Y-14414505D01*
X18024791Y-14485217D01*
X18095502Y-14485217D01*
X18298356Y-14332356D02*
X18298356Y-14261644D01*
X18227644Y-14261644D01*
X18227644Y-14332356D01*
X18298356Y-14332356D01*
X10398356Y-14332356D02*
X10398356Y-14261644D01*
X10327644Y-14261644D01*
X10327644Y-14332356D01*
X10398356Y-14332356D01*
X10601209Y-14485217D02*
X10601209Y-14414505D01*
X10530498Y-14414505D01*
X10530498Y-14485217D01*
X10601209Y-14485217D01*
X10804063Y-14638078D02*
X10804063Y-14567366D01*
X10733351Y-14567366D01*
X10733351Y-14638078D01*
X10804063Y-14638078D01*
X11006916Y-14790939D02*
X11006916Y-14720227D01*
X10936205Y-14720227D01*
X10936205Y-14790939D01*
X11006916Y-14790939D01*
X15103000Y-14394500D02*
X15155500Y-14342000D01*
X15103000Y-14289500D01*
X15050500Y-14342000D01*
X15103000Y-14394500D01*
X15103000Y-14844500D02*
X15155500Y-14792000D01*
X15103000Y-14739500D01*
X15050500Y-14792000D01*
X15103000Y-14844500D01*
X15428000Y-14169500D02*
X15480500Y-14117000D01*
X15428000Y-14064500D01*
X15375500Y-14117000D01*
X15428000Y-14169500D01*
X15753000Y-14394500D02*
X15805500Y-14342000D01*
X15753000Y-14289500D01*
X15700500Y-14342000D01*
X15753000Y-14394500D01*
X15753000Y-14844500D02*
X15805500Y-14792000D01*
X15753000Y-14739500D01*
X15700500Y-14792000D01*
X15753000Y-14844500D01*
X13529310Y-6874510D02*
X13638530Y-6983730D01*
X13638530Y-6874510D02*
X13529310Y-6983730D01*
X13638530Y-6929120D02*
G75*
G03X13638530Y-6929120I-54610J0D01*
G01*
X13529310Y-7128510D02*
X13638530Y-7237730D01*
X13638530Y-7128510D02*
X13529310Y-7237730D01*
X13638530Y-7183120D02*
G75*
G03X13638530Y-7183120I-54610J0D01*
G01*
X13529310Y-7382510D02*
X13638530Y-7491730D01*
X13638530Y-7382510D02*
X13529310Y-7491730D01*
X13638530Y-7437120D02*
G75*
G03X13638530Y-7437120I-54610J0D01*
G01*
X13529310Y-7636510D02*
X13638530Y-7745730D01*
X13638530Y-7636510D02*
X13529310Y-7745730D01*
X13638530Y-7691120D02*
G75*
G03X13638530Y-7691120I-54610J0D01*
G01*
X13529310Y-7890510D02*
X13638530Y-7999730D01*
X13638530Y-7890510D02*
X13529310Y-7999730D01*
X13638530Y-7945120D02*
G75*
G03X13638530Y-7945120I-54610J0D01*
G01*
X13529310Y-8144510D02*
X13638530Y-8253730D01*
X13638530Y-8144510D02*
X13529310Y-8253730D01*
X13638530Y-8199120D02*
G75*
G03X13638530Y-8199120I-54610J0D01*
G01*
X13529310Y-8398510D02*
X13638530Y-8507730D01*
X13638530Y-8398510D02*
X13529310Y-8507730D01*
X13638530Y-8453120D02*
G75*
G03X13638530Y-8453120I-54610J0D01*
G01*
X13529310Y-8652510D02*
X13638530Y-8761730D01*
X13638530Y-8652510D02*
X13529310Y-8761730D01*
X13638530Y-8707120D02*
G75*
G03X13638530Y-8707120I-54610J0D01*
G01*
X13529310Y-8906510D02*
X13638530Y-9015730D01*
X13638530Y-8906510D02*
X13529310Y-9015730D01*
X13638530Y-8961120D02*
G75*
G03X13638530Y-8961120I-54610J0D01*
G01*
X13529310Y-9160510D02*
X13638530Y-9269730D01*
X13638530Y-9160510D02*
X13529310Y-9269730D01*
X13638530Y-9215120D02*
G75*
G03X13638530Y-9215120I-54610J0D01*
G01*
X13529310Y-9414510D02*
X13638530Y-9523730D01*
X13638530Y-9414510D02*
X13529310Y-9523730D01*
X13638530Y-9469120D02*
G75*
G03X13638530Y-9469120I-54610J0D01*
G01*
X13529310Y-9668510D02*
X13638530Y-9777730D01*
X13638530Y-9668510D02*
X13529310Y-9777730D01*
X13638530Y-9723120D02*
G75*
G03X13638530Y-9723120I-54610J0D01*
G01*
X13783310Y-9160510D02*
X13892530Y-9269730D01*
X13892530Y-9160510D02*
X13783310Y-9269730D01*
X13892530Y-9215120D02*
G75*
G03X13892530Y-9215120I-54610J0D01*
G01*
X14037310Y-9160510D02*
X14146530Y-9269730D01*
X14146530Y-9160510D02*
X14037310Y-9269730D01*
X14146530Y-9215120D02*
G75*
G03X14146530Y-9215120I-54610J0D01*
G01*
X14291310Y-9160510D02*
X14400530Y-9269730D01*
X14400530Y-9160510D02*
X14291310Y-9269730D01*
X14400530Y-9215120D02*
G75*
G03X14400530Y-9215120I-54610J0D01*
G01*
X15053310Y-6874510D02*
X15162530Y-6983730D01*
X15162530Y-6874510D02*
X15053310Y-6983730D01*
X15162530Y-6929120D02*
G75*
G03X15162530Y-6929120I-54610J0D01*
G01*
X15053310Y-7128510D02*
X15162530Y-7237730D01*
X15162530Y-7128510D02*
X15053310Y-7237730D01*
X15162530Y-7183120D02*
G75*
G03X15162530Y-7183120I-54610J0D01*
G01*
X15053310Y-7382510D02*
X15162530Y-7491730D01*
X15162530Y-7382510D02*
X15053310Y-7491730D01*
X15162530Y-7437120D02*
G75*
G03X15162530Y-7437120I-54610J0D01*
G01*
X15053310Y-7636510D02*
X15162530Y-7745730D01*
X15162530Y-7636510D02*
X15053310Y-7745730D01*
X15162530Y-7691120D02*
G75*
G03X15162530Y-7691120I-54610J0D01*
G01*
X15053310Y-7890510D02*
X15162530Y-7999730D01*
X15162530Y-7890510D02*
X15053310Y-7999730D01*
X15162530Y-7945120D02*
G75*
G03X15162530Y-7945120I-54610J0D01*
G01*
X15053310Y-8144510D02*
X15162530Y-8253730D01*
X15162530Y-8144510D02*
X15053310Y-8253730D01*
X15162530Y-8199120D02*
G75*
G03X15162530Y-8199120I-54610J0D01*
G01*
X15053310Y-8398510D02*
X15162530Y-8507730D01*
X15162530Y-8398510D02*
X15053310Y-8507730D01*
X15162530Y-8453120D02*
G75*
G03X15162530Y-8453120I-54610J0D01*
G01*
X15053310Y-8652510D02*
X15162530Y-8761730D01*
X15162530Y-8652510D02*
X15053310Y-8761730D01*
X15162530Y-8707120D02*
G75*
G03X15162530Y-8707120I-54610J0D01*
G01*
X15053310Y-8906510D02*
X15162530Y-9015730D01*
X15162530Y-8906510D02*
X15053310Y-9015730D01*
X15162530Y-8961120D02*
G75*
G03X15162530Y-8961120I-54610J0D01*
G01*
X15053310Y-9160510D02*
X15162530Y-9269730D01*
X15162530Y-9160510D02*
X15053310Y-9269730D01*
X15162530Y-9215120D02*
G75*
G03X15162530Y-9215120I-54610J0D01*
G01*
X15053310Y-9414510D02*
X15162530Y-9523730D01*
X15162530Y-9414510D02*
X15053310Y-9523730D01*
X15162530Y-9469120D02*
G75*
G03X15162530Y-9469120I-54610J0D01*
G01*
X15053310Y-9668510D02*
X15162530Y-9777730D01*
X15162530Y-9668510D02*
X15053310Y-9777730D01*
X15162530Y-9723120D02*
G75*
G03X15162530Y-9723120I-54610J0D01*
G01*
D12*
X3056923Y-15446640D02*
X3056923Y-15146640D01*
X3128352Y-15146640D01*
X3171209Y-15160926D01*
X3199780Y-15189497D01*
X3214066Y-15218069D01*
X3228352Y-15275212D01*
X3228352Y-15318069D01*
X3214066Y-15375212D01*
X3199780Y-15403783D01*
X3171209Y-15432354D01*
X3128352Y-15446640D01*
X3056923Y-15446640D01*
X3356923Y-15446640D02*
X3356923Y-15246640D01*
X3356923Y-15303783D02*
X3371209Y-15275212D01*
X3385495Y-15260926D01*
X3414066Y-15246640D01*
X3442637Y-15246640D01*
X3542637Y-15446640D02*
X3542637Y-15246640D01*
X3542637Y-15146640D02*
X3528352Y-15160926D01*
X3542637Y-15175212D01*
X3556923Y-15160926D01*
X3542637Y-15146640D01*
X3542637Y-15175212D01*
X3728352Y-15446640D02*
X3699780Y-15432354D01*
X3685495Y-15403783D01*
X3685495Y-15146640D01*
X3885495Y-15446640D02*
X3856923Y-15432354D01*
X3842637Y-15403783D01*
X3842637Y-15146640D01*
X4228352Y-15446640D02*
X4228352Y-15146640D01*
X4328352Y-15360926D01*
X4428352Y-15146640D01*
X4428352Y-15446640D01*
X4699780Y-15446640D02*
X4699780Y-15289497D01*
X4685495Y-15260926D01*
X4656923Y-15246640D01*
X4599780Y-15246640D01*
X4571209Y-15260926D01*
X4699780Y-15432354D02*
X4671209Y-15446640D01*
X4599780Y-15446640D01*
X4571209Y-15432354D01*
X4556923Y-15403783D01*
X4556923Y-15375212D01*
X4571209Y-15346640D01*
X4599780Y-15332354D01*
X4671209Y-15332354D01*
X4699780Y-15318069D01*
X4842638Y-15246640D02*
X4842638Y-15546640D01*
X4842638Y-15260926D02*
X4871209Y-15246640D01*
X4928352Y-15246640D01*
X4956923Y-15260926D01*
X4971209Y-15275212D01*
X4985495Y-15303783D01*
X4985495Y-15389497D01*
X4971209Y-15418069D01*
X4956923Y-15432354D01*
X4928352Y-15446640D01*
X4871209Y-15446640D01*
X4842638Y-15432354D01*
X5114066Y-15418069D02*
X5128352Y-15432354D01*
X5114066Y-15446640D01*
X5099780Y-15432354D01*
X5114066Y-15418069D01*
X5114066Y-15446640D01*
X5114066Y-15260926D02*
X5128352Y-15275212D01*
X5114066Y-15289497D01*
X5099780Y-15275212D01*
X5114066Y-15260926D01*
X5114066Y-15289497D01*
X2730495Y-15920926D02*
X2770495Y-15960926D01*
X2770495Y-15920926D02*
X2730495Y-15960926D01*
X3114066Y-15776640D02*
X3142637Y-15776640D01*
X3171209Y-15790926D01*
X3185495Y-15805212D01*
X3199780Y-15833783D01*
X3214066Y-15890926D01*
X3214066Y-15962354D01*
X3199780Y-16019497D01*
X3185495Y-16048069D01*
X3171209Y-16062354D01*
X3142637Y-16076640D01*
X3114066Y-16076640D01*
X3085495Y-16062354D01*
X3071209Y-16048069D01*
X3056923Y-16019497D01*
X3042637Y-15962354D01*
X3042637Y-15890926D01*
X3056923Y-15833783D01*
X3071209Y-15805212D01*
X3085495Y-15790926D01*
X3114066Y-15776640D01*
X3342637Y-16048069D02*
X3356923Y-16062354D01*
X3342637Y-16076640D01*
X3328352Y-16062354D01*
X3342637Y-16048069D01*
X3342637Y-16076640D01*
X3614066Y-15876640D02*
X3614066Y-16076640D01*
X3542637Y-15762354D02*
X3471209Y-15976640D01*
X3656923Y-15976640D01*
X3828352Y-15776640D02*
X3856923Y-15776640D01*
X3885495Y-15790926D01*
X3899780Y-15805212D01*
X3914066Y-15833783D01*
X3928352Y-15890926D01*
X3928352Y-15962354D01*
X3914066Y-16019497D01*
X3899780Y-16048069D01*
X3885495Y-16062354D01*
X3856923Y-16076640D01*
X3828352Y-16076640D01*
X3799780Y-16062354D01*
X3785495Y-16048069D01*
X3771209Y-16019497D01*
X3756923Y-15962354D01*
X3756923Y-15890926D01*
X3771209Y-15833783D01*
X3785495Y-15805212D01*
X3799780Y-15790926D01*
X3828352Y-15776640D01*
X4056923Y-16076640D02*
X4056923Y-15876640D01*
X4056923Y-15905212D02*
X4071209Y-15890926D01*
X4099780Y-15876640D01*
X4142637Y-15876640D01*
X4171209Y-15890926D01*
X4185495Y-15919497D01*
X4185495Y-16076640D01*
X4185495Y-15919497D02*
X4199780Y-15890926D01*
X4228352Y-15876640D01*
X4271209Y-15876640D01*
X4299780Y-15890926D01*
X4314066Y-15919497D01*
X4314066Y-16076640D01*
X4456923Y-16076640D02*
X4456923Y-15876640D01*
X4456923Y-15905212D02*
X4471209Y-15890926D01*
X4499780Y-15876640D01*
X4542638Y-15876640D01*
X4571209Y-15890926D01*
X4585495Y-15919497D01*
X4585495Y-16076640D01*
X4585495Y-15919497D02*
X4599780Y-15890926D01*
X4628352Y-15876640D01*
X4671209Y-15876640D01*
X4699780Y-15890926D01*
X4714066Y-15919497D01*
X4714066Y-16076640D01*
X5299780Y-15762354D02*
X5042638Y-16148069D01*
X5685495Y-15776640D02*
X5714066Y-15776640D01*
X5742637Y-15790926D01*
X5756923Y-15805212D01*
X5771209Y-15833783D01*
X5785495Y-15890926D01*
X5785495Y-15962354D01*
X5771209Y-16019497D01*
X5756923Y-16048069D01*
X5742637Y-16062354D01*
X5714066Y-16076640D01*
X5685495Y-16076640D01*
X5656923Y-16062354D01*
X5642637Y-16048069D01*
X5628352Y-16019497D01*
X5614066Y-15962354D01*
X5614066Y-15890926D01*
X5628352Y-15833783D01*
X5642637Y-15805212D01*
X5656923Y-15790926D01*
X5685495Y-15776640D01*
X5914066Y-16048069D02*
X5928352Y-16062354D01*
X5914066Y-16076640D01*
X5899780Y-16062354D01*
X5914066Y-16048069D01*
X5914066Y-16076640D01*
X6114066Y-15776640D02*
X6142637Y-15776640D01*
X6171209Y-15790926D01*
X6185495Y-15805212D01*
X6199780Y-15833783D01*
X6214066Y-15890926D01*
X6214066Y-15962354D01*
X6199780Y-16019497D01*
X6185495Y-16048069D01*
X6171209Y-16062354D01*
X6142637Y-16076640D01*
X6114066Y-16076640D01*
X6085495Y-16062354D01*
X6071209Y-16048069D01*
X6056923Y-16019497D01*
X6042637Y-15962354D01*
X6042637Y-15890926D01*
X6056923Y-15833783D01*
X6071209Y-15805212D01*
X6085495Y-15790926D01*
X6114066Y-15776640D01*
X6499780Y-16076640D02*
X6328352Y-16076640D01*
X6414066Y-16076640D02*
X6414066Y-15776640D01*
X6385495Y-15819497D01*
X6356923Y-15848069D01*
X6328352Y-15862354D01*
X6756923Y-15776640D02*
X6699780Y-15776640D01*
X6671209Y-15790926D01*
X6656923Y-15805212D01*
X6628352Y-15848069D01*
X6614066Y-15905212D01*
X6614066Y-16019497D01*
X6628352Y-16048069D01*
X6642637Y-16062354D01*
X6671209Y-16076640D01*
X6728352Y-16076640D01*
X6756923Y-16062354D01*
X6771209Y-16048069D01*
X6785495Y-16019497D01*
X6785495Y-15948069D01*
X6771209Y-15919497D01*
X6756923Y-15905212D01*
X6728352Y-15890926D01*
X6671209Y-15890926D01*
X6642637Y-15905212D01*
X6628352Y-15919497D01*
X6614066Y-15948069D01*
X6899780Y-15776640D02*
X6899780Y-15833783D01*
X7014066Y-15776640D02*
X7014066Y-15833783D01*
X7456923Y-16190926D02*
X7442637Y-16176640D01*
X7414066Y-16133783D01*
X7399780Y-16105212D01*
X7385495Y-16062354D01*
X7371209Y-15990926D01*
X7371209Y-15933783D01*
X7385495Y-15862354D01*
X7399780Y-15819497D01*
X7414066Y-15790926D01*
X7442637Y-15748069D01*
X7456923Y-15733783D01*
X7728352Y-16076640D02*
X7556923Y-16076640D01*
X7642637Y-16076640D02*
X7642637Y-15776640D01*
X7614066Y-15819497D01*
X7585495Y-15848069D01*
X7556923Y-15862354D01*
X7914066Y-15776640D02*
X7942637Y-15776640D01*
X7971209Y-15790926D01*
X7985495Y-15805212D01*
X7999780Y-15833783D01*
X8014066Y-15890926D01*
X8014066Y-15962354D01*
X7999780Y-16019497D01*
X7985495Y-16048069D01*
X7971209Y-16062354D01*
X7942637Y-16076640D01*
X7914066Y-16076640D01*
X7885495Y-16062354D01*
X7871209Y-16048069D01*
X7856923Y-16019497D01*
X7842637Y-15962354D01*
X7842637Y-15890926D01*
X7856923Y-15833783D01*
X7871209Y-15805212D01*
X7885495Y-15790926D01*
X7914066Y-15776640D01*
X8114066Y-15776640D02*
X8299780Y-15776640D01*
X8199780Y-15890926D01*
X8242637Y-15890926D01*
X8271209Y-15905212D01*
X8285495Y-15919497D01*
X8299780Y-15948069D01*
X8299780Y-16019497D01*
X8285495Y-16048069D01*
X8271209Y-16062354D01*
X8242637Y-16076640D01*
X8156923Y-16076640D01*
X8128352Y-16062354D01*
X8114066Y-16048069D01*
X8656923Y-16076640D02*
X8656923Y-15776640D01*
X8785495Y-16076640D02*
X8785495Y-15919497D01*
X8771209Y-15890926D01*
X8742638Y-15876640D01*
X8699780Y-15876640D01*
X8671209Y-15890926D01*
X8656923Y-15905212D01*
X8971209Y-16076640D02*
X8942638Y-16062354D01*
X8928352Y-16048069D01*
X8914066Y-16019497D01*
X8914066Y-15933783D01*
X8928352Y-15905212D01*
X8942638Y-15890926D01*
X8971209Y-15876640D01*
X9014066Y-15876640D01*
X9042638Y-15890926D01*
X9056923Y-15905212D01*
X9071209Y-15933783D01*
X9071209Y-16019497D01*
X9056923Y-16048069D01*
X9042638Y-16062354D01*
X9014066Y-16076640D01*
X8971209Y-16076640D01*
X9242638Y-16076640D02*
X9214066Y-16062354D01*
X9199780Y-16033783D01*
X9199780Y-15776640D01*
X9471209Y-16062354D02*
X9442638Y-16076640D01*
X9385495Y-16076640D01*
X9356923Y-16062354D01*
X9342638Y-16033783D01*
X9342638Y-15919497D01*
X9356923Y-15890926D01*
X9385495Y-15876640D01*
X9442638Y-15876640D01*
X9471209Y-15890926D01*
X9485495Y-15919497D01*
X9485495Y-15948069D01*
X9342638Y-15976640D01*
X9599780Y-16062354D02*
X9628352Y-16076640D01*
X9685495Y-16076640D01*
X9714066Y-16062354D01*
X9728352Y-16033783D01*
X9728352Y-16019497D01*
X9714066Y-15990926D01*
X9685495Y-15976640D01*
X9642638Y-15976640D01*
X9614066Y-15962354D01*
X9599780Y-15933783D01*
X9599780Y-15919497D01*
X9614066Y-15890926D01*
X9642638Y-15876640D01*
X9685495Y-15876640D01*
X9714066Y-15890926D01*
X9828352Y-16190926D02*
X9842638Y-16176640D01*
X9871209Y-16133783D01*
X9885495Y-16105212D01*
X9899780Y-16062354D01*
X9914066Y-15990926D01*
X9914066Y-15933783D01*
X9899780Y-15862354D01*
X9885495Y-15819497D01*
X9871209Y-15790926D01*
X9842638Y-15748069D01*
X9828352Y-15733783D01*
X2770495Y-16336926D02*
G75*
G03X2770495Y-16336926I-37500J0D01*
G01*
X3114066Y-16172640D02*
X3142637Y-16172640D01*
X3171209Y-16186926D01*
X3185495Y-16201212D01*
X3199780Y-16229783D01*
X3214066Y-16286926D01*
X3214066Y-16358354D01*
X3199780Y-16415497D01*
X3185495Y-16444069D01*
X3171209Y-16458354D01*
X3142637Y-16472640D01*
X3114066Y-16472640D01*
X3085495Y-16458354D01*
X3071209Y-16444069D01*
X3056923Y-16415497D01*
X3042637Y-16358354D01*
X3042637Y-16286926D01*
X3056923Y-16229783D01*
X3071209Y-16201212D01*
X3085495Y-16186926D01*
X3114066Y-16172640D01*
X3342637Y-16444069D02*
X3356923Y-16458354D01*
X3342637Y-16472640D01*
X3328352Y-16458354D01*
X3342637Y-16444069D01*
X3342637Y-16472640D01*
X3456923Y-16172640D02*
X3656923Y-16172640D01*
X3528352Y-16472640D01*
X3914066Y-16172640D02*
X3771209Y-16172640D01*
X3756923Y-16315497D01*
X3771209Y-16301212D01*
X3799780Y-16286926D01*
X3871209Y-16286926D01*
X3899780Y-16301212D01*
X3914066Y-16315497D01*
X3928352Y-16344069D01*
X3928352Y-16415497D01*
X3914066Y-16444069D01*
X3899780Y-16458354D01*
X3871209Y-16472640D01*
X3799780Y-16472640D01*
X3771209Y-16458354D01*
X3756923Y-16444069D01*
X4056923Y-16472640D02*
X4056923Y-16272640D01*
X4056923Y-16301212D02*
X4071209Y-16286926D01*
X4099780Y-16272640D01*
X4142637Y-16272640D01*
X4171209Y-16286926D01*
X4185495Y-16315497D01*
X4185495Y-16472640D01*
X4185495Y-16315497D02*
X4199780Y-16286926D01*
X4228352Y-16272640D01*
X4271209Y-16272640D01*
X4299780Y-16286926D01*
X4314066Y-16315497D01*
X4314066Y-16472640D01*
X4456923Y-16472640D02*
X4456923Y-16272640D01*
X4456923Y-16301212D02*
X4471209Y-16286926D01*
X4499780Y-16272640D01*
X4542638Y-16272640D01*
X4571209Y-16286926D01*
X4585495Y-16315497D01*
X4585495Y-16472640D01*
X4585495Y-16315497D02*
X4599780Y-16286926D01*
X4628352Y-16272640D01*
X4671209Y-16272640D01*
X4699780Y-16286926D01*
X4714066Y-16315497D01*
X4714066Y-16472640D01*
X5299780Y-16158354D02*
X5042638Y-16544069D01*
X5685495Y-16172640D02*
X5714066Y-16172640D01*
X5742637Y-16186926D01*
X5756923Y-16201212D01*
X5771209Y-16229783D01*
X5785495Y-16286926D01*
X5785495Y-16358354D01*
X5771209Y-16415497D01*
X5756923Y-16444069D01*
X5742637Y-16458354D01*
X5714066Y-16472640D01*
X5685495Y-16472640D01*
X5656923Y-16458354D01*
X5642637Y-16444069D01*
X5628352Y-16415497D01*
X5614066Y-16358354D01*
X5614066Y-16286926D01*
X5628352Y-16229783D01*
X5642637Y-16201212D01*
X5656923Y-16186926D01*
X5685495Y-16172640D01*
X5914066Y-16444069D02*
X5928352Y-16458354D01*
X5914066Y-16472640D01*
X5899780Y-16458354D01*
X5914066Y-16444069D01*
X5914066Y-16472640D01*
X6114066Y-16172640D02*
X6142637Y-16172640D01*
X6171209Y-16186926D01*
X6185495Y-16201212D01*
X6199780Y-16229783D01*
X6214066Y-16286926D01*
X6214066Y-16358354D01*
X6199780Y-16415497D01*
X6185495Y-16444069D01*
X6171209Y-16458354D01*
X6142637Y-16472640D01*
X6114066Y-16472640D01*
X6085495Y-16458354D01*
X6071209Y-16444069D01*
X6056923Y-16415497D01*
X6042637Y-16358354D01*
X6042637Y-16286926D01*
X6056923Y-16229783D01*
X6071209Y-16201212D01*
X6085495Y-16186926D01*
X6114066Y-16172640D01*
X6314066Y-16172640D02*
X6499780Y-16172640D01*
X6399780Y-16286926D01*
X6442637Y-16286926D01*
X6471209Y-16301212D01*
X6485495Y-16315497D01*
X6499780Y-16344069D01*
X6499780Y-16415497D01*
X6485495Y-16444069D01*
X6471209Y-16458354D01*
X6442637Y-16472640D01*
X6356923Y-16472640D01*
X6328352Y-16458354D01*
X6314066Y-16444069D01*
X6685495Y-16172640D02*
X6714066Y-16172640D01*
X6742637Y-16186926D01*
X6756923Y-16201212D01*
X6771209Y-16229783D01*
X6785495Y-16286926D01*
X6785495Y-16358354D01*
X6771209Y-16415497D01*
X6756923Y-16444069D01*
X6742637Y-16458354D01*
X6714066Y-16472640D01*
X6685495Y-16472640D01*
X6656923Y-16458354D01*
X6642637Y-16444069D01*
X6628352Y-16415497D01*
X6614066Y-16358354D01*
X6614066Y-16286926D01*
X6628352Y-16229783D01*
X6642637Y-16201212D01*
X6656923Y-16186926D01*
X6685495Y-16172640D01*
X6899780Y-16172640D02*
X6899780Y-16229783D01*
X7014066Y-16172640D02*
X7014066Y-16229783D01*
X7456923Y-16586926D02*
X7442637Y-16572640D01*
X7414066Y-16529783D01*
X7399780Y-16501212D01*
X7385495Y-16458354D01*
X7371209Y-16386926D01*
X7371209Y-16329783D01*
X7385495Y-16258354D01*
X7399780Y-16215497D01*
X7414066Y-16186926D01*
X7442637Y-16144069D01*
X7456923Y-16129783D01*
X7728352Y-16472640D02*
X7556923Y-16472640D01*
X7642637Y-16472640D02*
X7642637Y-16172640D01*
X7614066Y-16215497D01*
X7585495Y-16244069D01*
X7556923Y-16258354D01*
X8085495Y-16472640D02*
X8085495Y-16172640D01*
X8214066Y-16472640D02*
X8214066Y-16315497D01*
X8199780Y-16286926D01*
X8171209Y-16272640D01*
X8128352Y-16272640D01*
X8099780Y-16286926D01*
X8085495Y-16301212D01*
X8399780Y-16472640D02*
X8371209Y-16458354D01*
X8356923Y-16444069D01*
X8342637Y-16415497D01*
X8342637Y-16329783D01*
X8356923Y-16301212D01*
X8371209Y-16286926D01*
X8399780Y-16272640D01*
X8442638Y-16272640D01*
X8471209Y-16286926D01*
X8485495Y-16301212D01*
X8499780Y-16329783D01*
X8499780Y-16415497D01*
X8485495Y-16444069D01*
X8471209Y-16458354D01*
X8442638Y-16472640D01*
X8399780Y-16472640D01*
X8671209Y-16472640D02*
X8642638Y-16458354D01*
X8628352Y-16429783D01*
X8628352Y-16172640D01*
X8899780Y-16458354D02*
X8871209Y-16472640D01*
X8814066Y-16472640D01*
X8785495Y-16458354D01*
X8771209Y-16429783D01*
X8771209Y-16315497D01*
X8785495Y-16286926D01*
X8814066Y-16272640D01*
X8871209Y-16272640D01*
X8899780Y-16286926D01*
X8914066Y-16315497D01*
X8914066Y-16344069D01*
X8771209Y-16372640D01*
X9014066Y-16586926D02*
X9028352Y-16572640D01*
X9056923Y-16529783D01*
X9071209Y-16501212D01*
X9085495Y-16458354D01*
X9099780Y-16386926D01*
X9099780Y-16329783D01*
X9085495Y-16258354D01*
X9071209Y-16215497D01*
X9056923Y-16186926D01*
X9028352Y-16144069D01*
X9014066Y-16129783D01*
X2730495Y-16692926D02*
X2730495Y-16772926D01*
X2690495Y-16732926D02*
X2770495Y-16732926D01*
X3114066Y-16568640D02*
X3142637Y-16568640D01*
X3171209Y-16582926D01*
X3185495Y-16597212D01*
X3199780Y-16625783D01*
X3214066Y-16682926D01*
X3214066Y-16754354D01*
X3199780Y-16811497D01*
X3185495Y-16840069D01*
X3171209Y-16854354D01*
X3142637Y-16868640D01*
X3114066Y-16868640D01*
X3085495Y-16854354D01*
X3071209Y-16840069D01*
X3056923Y-16811497D01*
X3042637Y-16754354D01*
X3042637Y-16682926D01*
X3056923Y-16625783D01*
X3071209Y-16597212D01*
X3085495Y-16582926D01*
X3114066Y-16568640D01*
X3342637Y-16840069D02*
X3356923Y-16854354D01*
X3342637Y-16868640D01*
X3328352Y-16854354D01*
X3342637Y-16840069D01*
X3342637Y-16868640D01*
X3528352Y-16697212D02*
X3499780Y-16682926D01*
X3485495Y-16668640D01*
X3471209Y-16640069D01*
X3471209Y-16625783D01*
X3485495Y-16597212D01*
X3499780Y-16582926D01*
X3528352Y-16568640D01*
X3585495Y-16568640D01*
X3614066Y-16582926D01*
X3628352Y-16597212D01*
X3642637Y-16625783D01*
X3642637Y-16640069D01*
X3628352Y-16668640D01*
X3614066Y-16682926D01*
X3585495Y-16697212D01*
X3528352Y-16697212D01*
X3499780Y-16711497D01*
X3485495Y-16725783D01*
X3471209Y-16754354D01*
X3471209Y-16811497D01*
X3485495Y-16840069D01*
X3499780Y-16854354D01*
X3528352Y-16868640D01*
X3585495Y-16868640D01*
X3614066Y-16854354D01*
X3628352Y-16840069D01*
X3642637Y-16811497D01*
X3642637Y-16754354D01*
X3628352Y-16725783D01*
X3614066Y-16711497D01*
X3585495Y-16697212D01*
X3828352Y-16568640D02*
X3856923Y-16568640D01*
X3885495Y-16582926D01*
X3899780Y-16597212D01*
X3914066Y-16625783D01*
X3928352Y-16682926D01*
X3928352Y-16754354D01*
X3914066Y-16811497D01*
X3899780Y-16840069D01*
X3885495Y-16854354D01*
X3856923Y-16868640D01*
X3828352Y-16868640D01*
X3799780Y-16854354D01*
X3785495Y-16840069D01*
X3771209Y-16811497D01*
X3756923Y-16754354D01*
X3756923Y-16682926D01*
X3771209Y-16625783D01*
X3785495Y-16597212D01*
X3799780Y-16582926D01*
X3828352Y-16568640D01*
X4056923Y-16868640D02*
X4056923Y-16668640D01*
X4056923Y-16697212D02*
X4071209Y-16682926D01*
X4099780Y-16668640D01*
X4142637Y-16668640D01*
X4171209Y-16682926D01*
X4185495Y-16711497D01*
X4185495Y-16868640D01*
X4185495Y-16711497D02*
X4199780Y-16682926D01*
X4228352Y-16668640D01*
X4271209Y-16668640D01*
X4299780Y-16682926D01*
X4314066Y-16711497D01*
X4314066Y-16868640D01*
X4456923Y-16868640D02*
X4456923Y-16668640D01*
X4456923Y-16697212D02*
X4471209Y-16682926D01*
X4499780Y-16668640D01*
X4542638Y-16668640D01*
X4571209Y-16682926D01*
X4585495Y-16711497D01*
X4585495Y-16868640D01*
X4585495Y-16711497D02*
X4599780Y-16682926D01*
X4628352Y-16668640D01*
X4671209Y-16668640D01*
X4699780Y-16682926D01*
X4714066Y-16711497D01*
X4714066Y-16868640D01*
X5299780Y-16554354D02*
X5042638Y-16940069D01*
X5685495Y-16568640D02*
X5714066Y-16568640D01*
X5742637Y-16582926D01*
X5756923Y-16597212D01*
X5771209Y-16625783D01*
X5785495Y-16682926D01*
X5785495Y-16754354D01*
X5771209Y-16811497D01*
X5756923Y-16840069D01*
X5742637Y-16854354D01*
X5714066Y-16868640D01*
X5685495Y-16868640D01*
X5656923Y-16854354D01*
X5642637Y-16840069D01*
X5628352Y-16811497D01*
X5614066Y-16754354D01*
X5614066Y-16682926D01*
X5628352Y-16625783D01*
X5642637Y-16597212D01*
X5656923Y-16582926D01*
X5685495Y-16568640D01*
X5914066Y-16840069D02*
X5928352Y-16854354D01*
X5914066Y-16868640D01*
X5899780Y-16854354D01*
X5914066Y-16840069D01*
X5914066Y-16868640D01*
X6114066Y-16568640D02*
X6142637Y-16568640D01*
X6171209Y-16582926D01*
X6185495Y-16597212D01*
X6199780Y-16625783D01*
X6214066Y-16682926D01*
X6214066Y-16754354D01*
X6199780Y-16811497D01*
X6185495Y-16840069D01*
X6171209Y-16854354D01*
X6142637Y-16868640D01*
X6114066Y-16868640D01*
X6085495Y-16854354D01*
X6071209Y-16840069D01*
X6056923Y-16811497D01*
X6042637Y-16754354D01*
X6042637Y-16682926D01*
X6056923Y-16625783D01*
X6071209Y-16597212D01*
X6085495Y-16582926D01*
X6114066Y-16568640D01*
X6314066Y-16568640D02*
X6499780Y-16568640D01*
X6399780Y-16682926D01*
X6442637Y-16682926D01*
X6471209Y-16697212D01*
X6485495Y-16711497D01*
X6499780Y-16740069D01*
X6499780Y-16811497D01*
X6485495Y-16840069D01*
X6471209Y-16854354D01*
X6442637Y-16868640D01*
X6356923Y-16868640D01*
X6328352Y-16854354D01*
X6314066Y-16840069D01*
X6785495Y-16868640D02*
X6614066Y-16868640D01*
X6699780Y-16868640D02*
X6699780Y-16568640D01*
X6671209Y-16611497D01*
X6642637Y-16640069D01*
X6614066Y-16654354D01*
X6899780Y-16568640D02*
X6899780Y-16625783D01*
X7014066Y-16568640D02*
X7014066Y-16625783D01*
X7456923Y-16982926D02*
X7442637Y-16968640D01*
X7414066Y-16925783D01*
X7399780Y-16897212D01*
X7385495Y-16854354D01*
X7371209Y-16782926D01*
X7371209Y-16725783D01*
X7385495Y-16654354D01*
X7399780Y-16611497D01*
X7414066Y-16582926D01*
X7442637Y-16540069D01*
X7456923Y-16525783D01*
X7556923Y-16597212D02*
X7571209Y-16582926D01*
X7599780Y-16568640D01*
X7671209Y-16568640D01*
X7699780Y-16582926D01*
X7714066Y-16597212D01*
X7728352Y-16625783D01*
X7728352Y-16654354D01*
X7714066Y-16697212D01*
X7542637Y-16868640D01*
X7728352Y-16868640D01*
X8085495Y-16868640D02*
X8085495Y-16568640D01*
X8214066Y-16868640D02*
X8214066Y-16711497D01*
X8199780Y-16682926D01*
X8171209Y-16668640D01*
X8128352Y-16668640D01*
X8099780Y-16682926D01*
X8085495Y-16697212D01*
X8399780Y-16868640D02*
X8371209Y-16854354D01*
X8356923Y-16840069D01*
X8342637Y-16811497D01*
X8342637Y-16725783D01*
X8356923Y-16697212D01*
X8371209Y-16682926D01*
X8399780Y-16668640D01*
X8442638Y-16668640D01*
X8471209Y-16682926D01*
X8485495Y-16697212D01*
X8499780Y-16725783D01*
X8499780Y-16811497D01*
X8485495Y-16840069D01*
X8471209Y-16854354D01*
X8442638Y-16868640D01*
X8399780Y-16868640D01*
X8671209Y-16868640D02*
X8642638Y-16854354D01*
X8628352Y-16825783D01*
X8628352Y-16568640D01*
X8899780Y-16854354D02*
X8871209Y-16868640D01*
X8814066Y-16868640D01*
X8785495Y-16854354D01*
X8771209Y-16825783D01*
X8771209Y-16711497D01*
X8785495Y-16682926D01*
X8814066Y-16668640D01*
X8871209Y-16668640D01*
X8899780Y-16682926D01*
X8914066Y-16711497D01*
X8914066Y-16740069D01*
X8771209Y-16768640D01*
X9028352Y-16854354D02*
X9056923Y-16868640D01*
X9114066Y-16868640D01*
X9142638Y-16854354D01*
X9156923Y-16825783D01*
X9156923Y-16811497D01*
X9142638Y-16782926D01*
X9114066Y-16768640D01*
X9071209Y-16768640D01*
X9042638Y-16754354D01*
X9028352Y-16725783D01*
X9028352Y-16711497D01*
X9042638Y-16682926D01*
X9071209Y-16668640D01*
X9114066Y-16668640D01*
X9142638Y-16682926D01*
X9256923Y-16982926D02*
X9271209Y-16968640D01*
X9299780Y-16925783D01*
X9314066Y-16897212D01*
X9328352Y-16854354D01*
X9342638Y-16782926D01*
X9342638Y-16725783D01*
X9328352Y-16654354D01*
X9314066Y-16611497D01*
X9299780Y-16582926D01*
X9271209Y-16540069D01*
X9256923Y-16525783D01*
X2755850Y-17164282D02*
X2755850Y-17093570D01*
X2685139Y-17093570D01*
X2685139Y-17164282D01*
X2755850Y-17164282D01*
X3214066Y-17264640D02*
X3042637Y-17264640D01*
X3128352Y-17264640D02*
X3128352Y-16964640D01*
X3099780Y-17007497D01*
X3071209Y-17036069D01*
X3042637Y-17050354D01*
X3342637Y-17236069D02*
X3356923Y-17250354D01*
X3342637Y-17264640D01*
X3328352Y-17250354D01*
X3342637Y-17236069D01*
X3342637Y-17264640D01*
X3542637Y-16964640D02*
X3571209Y-16964640D01*
X3599780Y-16978926D01*
X3614066Y-16993212D01*
X3628352Y-17021783D01*
X3642637Y-17078926D01*
X3642637Y-17150354D01*
X3628352Y-17207497D01*
X3614066Y-17236069D01*
X3599780Y-17250354D01*
X3571209Y-17264640D01*
X3542637Y-17264640D01*
X3514066Y-17250354D01*
X3499780Y-17236069D01*
X3485495Y-17207497D01*
X3471209Y-17150354D01*
X3471209Y-17078926D01*
X3485495Y-17021783D01*
X3499780Y-16993212D01*
X3514066Y-16978926D01*
X3542637Y-16964640D01*
X3828352Y-16964640D02*
X3856923Y-16964640D01*
X3885495Y-16978926D01*
X3899780Y-16993212D01*
X3914066Y-17021783D01*
X3928352Y-17078926D01*
X3928352Y-17150354D01*
X3914066Y-17207497D01*
X3899780Y-17236069D01*
X3885495Y-17250354D01*
X3856923Y-17264640D01*
X3828352Y-17264640D01*
X3799780Y-17250354D01*
X3785495Y-17236069D01*
X3771209Y-17207497D01*
X3756923Y-17150354D01*
X3756923Y-17078926D01*
X3771209Y-17021783D01*
X3785495Y-16993212D01*
X3799780Y-16978926D01*
X3828352Y-16964640D01*
X4056923Y-17264640D02*
X4056923Y-17064640D01*
X4056923Y-17093212D02*
X4071209Y-17078926D01*
X4099780Y-17064640D01*
X4142637Y-17064640D01*
X4171209Y-17078926D01*
X4185495Y-17107497D01*
X4185495Y-17264640D01*
X4185495Y-17107497D02*
X4199780Y-17078926D01*
X4228352Y-17064640D01*
X4271209Y-17064640D01*
X4299780Y-17078926D01*
X4314066Y-17107497D01*
X4314066Y-17264640D01*
X4456923Y-17264640D02*
X4456923Y-17064640D01*
X4456923Y-17093212D02*
X4471209Y-17078926D01*
X4499780Y-17064640D01*
X4542638Y-17064640D01*
X4571209Y-17078926D01*
X4585495Y-17107497D01*
X4585495Y-17264640D01*
X4585495Y-17107497D02*
X4599780Y-17078926D01*
X4628352Y-17064640D01*
X4671209Y-17064640D01*
X4699780Y-17078926D01*
X4714066Y-17107497D01*
X4714066Y-17264640D01*
X5299780Y-16950354D02*
X5042638Y-17336069D01*
X5685495Y-16964640D02*
X5714066Y-16964640D01*
X5742637Y-16978926D01*
X5756923Y-16993212D01*
X5771209Y-17021783D01*
X5785495Y-17078926D01*
X5785495Y-17150354D01*
X5771209Y-17207497D01*
X5756923Y-17236069D01*
X5742637Y-17250354D01*
X5714066Y-17264640D01*
X5685495Y-17264640D01*
X5656923Y-17250354D01*
X5642637Y-17236069D01*
X5628352Y-17207497D01*
X5614066Y-17150354D01*
X5614066Y-17078926D01*
X5628352Y-17021783D01*
X5642637Y-16993212D01*
X5656923Y-16978926D01*
X5685495Y-16964640D01*
X5914066Y-17236069D02*
X5928352Y-17250354D01*
X5914066Y-17264640D01*
X5899780Y-17250354D01*
X5914066Y-17236069D01*
X5914066Y-17264640D01*
X6114066Y-16964640D02*
X6142637Y-16964640D01*
X6171209Y-16978926D01*
X6185495Y-16993212D01*
X6199780Y-17021783D01*
X6214066Y-17078926D01*
X6214066Y-17150354D01*
X6199780Y-17207497D01*
X6185495Y-17236069D01*
X6171209Y-17250354D01*
X6142637Y-17264640D01*
X6114066Y-17264640D01*
X6085495Y-17250354D01*
X6071209Y-17236069D01*
X6056923Y-17207497D01*
X6042637Y-17150354D01*
X6042637Y-17078926D01*
X6056923Y-17021783D01*
X6071209Y-16993212D01*
X6085495Y-16978926D01*
X6114066Y-16964640D01*
X6314066Y-16964640D02*
X6499780Y-16964640D01*
X6399780Y-17078926D01*
X6442637Y-17078926D01*
X6471209Y-17093212D01*
X6485495Y-17107497D01*
X6499780Y-17136069D01*
X6499780Y-17207497D01*
X6485495Y-17236069D01*
X6471209Y-17250354D01*
X6442637Y-17264640D01*
X6356923Y-17264640D01*
X6328352Y-17250354D01*
X6314066Y-17236069D01*
X6642637Y-17264640D02*
X6699780Y-17264640D01*
X6728352Y-17250354D01*
X6742637Y-17236069D01*
X6771209Y-17193212D01*
X6785495Y-17136069D01*
X6785495Y-17021783D01*
X6771209Y-16993212D01*
X6756923Y-16978926D01*
X6728352Y-16964640D01*
X6671209Y-16964640D01*
X6642637Y-16978926D01*
X6628352Y-16993212D01*
X6614066Y-17021783D01*
X6614066Y-17093212D01*
X6628352Y-17121783D01*
X6642637Y-17136069D01*
X6671209Y-17150354D01*
X6728352Y-17150354D01*
X6756923Y-17136069D01*
X6771209Y-17121783D01*
X6785495Y-17093212D01*
X6899780Y-16964640D02*
X6899780Y-17021783D01*
X7014066Y-16964640D02*
X7014066Y-17021783D01*
X7456923Y-17378926D02*
X7442637Y-17364640D01*
X7414066Y-17321783D01*
X7399780Y-17293212D01*
X7385495Y-17250354D01*
X7371209Y-17178926D01*
X7371209Y-17121783D01*
X7385495Y-17050354D01*
X7399780Y-17007497D01*
X7414066Y-16978926D01*
X7442637Y-16936069D01*
X7456923Y-16921783D01*
X7542637Y-16964640D02*
X7742637Y-16964640D01*
X7614066Y-17264640D01*
X7842637Y-16993212D02*
X7856923Y-16978926D01*
X7885495Y-16964640D01*
X7956923Y-16964640D01*
X7985495Y-16978926D01*
X7999780Y-16993212D01*
X8014066Y-17021783D01*
X8014066Y-17050354D01*
X7999780Y-17093212D01*
X7828352Y-17264640D01*
X8014066Y-17264640D01*
X8371209Y-17264640D02*
X8371209Y-16964640D01*
X8499780Y-17264640D02*
X8499780Y-17107497D01*
X8485495Y-17078926D01*
X8456923Y-17064640D01*
X8414066Y-17064640D01*
X8385495Y-17078926D01*
X8371209Y-17093212D01*
X8685495Y-17264640D02*
X8656923Y-17250354D01*
X8642638Y-17236069D01*
X8628352Y-17207497D01*
X8628352Y-17121783D01*
X8642638Y-17093212D01*
X8656923Y-17078926D01*
X8685495Y-17064640D01*
X8728352Y-17064640D01*
X8756923Y-17078926D01*
X8771209Y-17093212D01*
X8785495Y-17121783D01*
X8785495Y-17207497D01*
X8771209Y-17236069D01*
X8756923Y-17250354D01*
X8728352Y-17264640D01*
X8685495Y-17264640D01*
X8956923Y-17264640D02*
X8928352Y-17250354D01*
X8914066Y-17221783D01*
X8914066Y-16964640D01*
X9185495Y-17250354D02*
X9156923Y-17264640D01*
X9099780Y-17264640D01*
X9071209Y-17250354D01*
X9056923Y-17221783D01*
X9056923Y-17107497D01*
X9071209Y-17078926D01*
X9099780Y-17064640D01*
X9156923Y-17064640D01*
X9185495Y-17078926D01*
X9199780Y-17107497D01*
X9199780Y-17136069D01*
X9056923Y-17164640D01*
X9314066Y-17250354D02*
X9342638Y-17264640D01*
X9399780Y-17264640D01*
X9428352Y-17250354D01*
X9442638Y-17221783D01*
X9442638Y-17207497D01*
X9428352Y-17178926D01*
X9399780Y-17164640D01*
X9356923Y-17164640D01*
X9328352Y-17150354D01*
X9314066Y-17121783D01*
X9314066Y-17107497D01*
X9328352Y-17078926D01*
X9356923Y-17064640D01*
X9399780Y-17064640D01*
X9428352Y-17078926D01*
X9542638Y-17378926D02*
X9556923Y-17364640D01*
X9585495Y-17321783D01*
X9599780Y-17293212D01*
X9614066Y-17250354D01*
X9628352Y-17178926D01*
X9628352Y-17121783D01*
X9614066Y-17050354D01*
X9599780Y-17007497D01*
X9585495Y-16978926D01*
X9556923Y-16936069D01*
X9542638Y-16921783D01*
X2717995Y-17577426D02*
X2770495Y-17524926D01*
X2717995Y-17472426D01*
X2665495Y-17524926D01*
X2717995Y-17577426D01*
X3214066Y-17660640D02*
X3042637Y-17660640D01*
X3128352Y-17660640D02*
X3128352Y-17360640D01*
X3099780Y-17403497D01*
X3071209Y-17432069D01*
X3042637Y-17446354D01*
X3342637Y-17632069D02*
X3356923Y-17646354D01*
X3342637Y-17660640D01*
X3328352Y-17646354D01*
X3342637Y-17632069D01*
X3342637Y-17660640D01*
X3542637Y-17360640D02*
X3571209Y-17360640D01*
X3599780Y-17374926D01*
X3614066Y-17389212D01*
X3628352Y-17417783D01*
X3642637Y-17474926D01*
X3642637Y-17546354D01*
X3628352Y-17603497D01*
X3614066Y-17632069D01*
X3599780Y-17646354D01*
X3571209Y-17660640D01*
X3542637Y-17660640D01*
X3514066Y-17646354D01*
X3499780Y-17632069D01*
X3485495Y-17603497D01*
X3471209Y-17546354D01*
X3471209Y-17474926D01*
X3485495Y-17417783D01*
X3499780Y-17389212D01*
X3514066Y-17374926D01*
X3542637Y-17360640D01*
X3914066Y-17360640D02*
X3771209Y-17360640D01*
X3756923Y-17503497D01*
X3771209Y-17489212D01*
X3799780Y-17474926D01*
X3871209Y-17474926D01*
X3899780Y-17489212D01*
X3914066Y-17503497D01*
X3928352Y-17532069D01*
X3928352Y-17603497D01*
X3914066Y-17632069D01*
X3899780Y-17646354D01*
X3871209Y-17660640D01*
X3799780Y-17660640D01*
X3771209Y-17646354D01*
X3756923Y-17632069D01*
X4056923Y-17660640D02*
X4056923Y-17460640D01*
X4056923Y-17489212D02*
X4071209Y-17474926D01*
X4099780Y-17460640D01*
X4142637Y-17460640D01*
X4171209Y-17474926D01*
X4185495Y-17503497D01*
X4185495Y-17660640D01*
X4185495Y-17503497D02*
X4199780Y-17474926D01*
X4228352Y-17460640D01*
X4271209Y-17460640D01*
X4299780Y-17474926D01*
X4314066Y-17503497D01*
X4314066Y-17660640D01*
X4456923Y-17660640D02*
X4456923Y-17460640D01*
X4456923Y-17489212D02*
X4471209Y-17474926D01*
X4499780Y-17460640D01*
X4542638Y-17460640D01*
X4571209Y-17474926D01*
X4585495Y-17503497D01*
X4585495Y-17660640D01*
X4585495Y-17503497D02*
X4599780Y-17474926D01*
X4628352Y-17460640D01*
X4671209Y-17460640D01*
X4699780Y-17474926D01*
X4714066Y-17503497D01*
X4714066Y-17660640D01*
X5299780Y-17346354D02*
X5042638Y-17732069D01*
X5685495Y-17360640D02*
X5714066Y-17360640D01*
X5742637Y-17374926D01*
X5756923Y-17389212D01*
X5771209Y-17417783D01*
X5785495Y-17474926D01*
X5785495Y-17546354D01*
X5771209Y-17603497D01*
X5756923Y-17632069D01*
X5742637Y-17646354D01*
X5714066Y-17660640D01*
X5685495Y-17660640D01*
X5656923Y-17646354D01*
X5642637Y-17632069D01*
X5628352Y-17603497D01*
X5614066Y-17546354D01*
X5614066Y-17474926D01*
X5628352Y-17417783D01*
X5642637Y-17389212D01*
X5656923Y-17374926D01*
X5685495Y-17360640D01*
X5914066Y-17632069D02*
X5928352Y-17646354D01*
X5914066Y-17660640D01*
X5899780Y-17646354D01*
X5914066Y-17632069D01*
X5914066Y-17660640D01*
X6114066Y-17360640D02*
X6142637Y-17360640D01*
X6171209Y-17374926D01*
X6185495Y-17389212D01*
X6199780Y-17417783D01*
X6214066Y-17474926D01*
X6214066Y-17546354D01*
X6199780Y-17603497D01*
X6185495Y-17632069D01*
X6171209Y-17646354D01*
X6142637Y-17660640D01*
X6114066Y-17660640D01*
X6085495Y-17646354D01*
X6071209Y-17632069D01*
X6056923Y-17603497D01*
X6042637Y-17546354D01*
X6042637Y-17474926D01*
X6056923Y-17417783D01*
X6071209Y-17389212D01*
X6085495Y-17374926D01*
X6114066Y-17360640D01*
X6471209Y-17460640D02*
X6471209Y-17660640D01*
X6399780Y-17346354D02*
X6328352Y-17560640D01*
X6514066Y-17560640D01*
X6785495Y-17660640D02*
X6614066Y-17660640D01*
X6699780Y-17660640D02*
X6699780Y-17360640D01*
X6671209Y-17403497D01*
X6642637Y-17432069D01*
X6614066Y-17446354D01*
X6899780Y-17360640D02*
X6899780Y-17417783D01*
X7014066Y-17360640D02*
X7014066Y-17417783D01*
X7456923Y-17774926D02*
X7442637Y-17760640D01*
X7414066Y-17717783D01*
X7399780Y-17689212D01*
X7385495Y-17646354D01*
X7371209Y-17574926D01*
X7371209Y-17517783D01*
X7385495Y-17446354D01*
X7399780Y-17403497D01*
X7414066Y-17374926D01*
X7442637Y-17332069D01*
X7456923Y-17317783D01*
X7714066Y-17360640D02*
X7571209Y-17360640D01*
X7556923Y-17503497D01*
X7571209Y-17489212D01*
X7599780Y-17474926D01*
X7671209Y-17474926D01*
X7699780Y-17489212D01*
X7714066Y-17503497D01*
X7728352Y-17532069D01*
X7728352Y-17603497D01*
X7714066Y-17632069D01*
X7699780Y-17646354D01*
X7671209Y-17660640D01*
X7599780Y-17660640D01*
X7571209Y-17646354D01*
X7556923Y-17632069D01*
X8085495Y-17660640D02*
X8085495Y-17360640D01*
X8214066Y-17660640D02*
X8214066Y-17503497D01*
X8199780Y-17474926D01*
X8171209Y-17460640D01*
X8128352Y-17460640D01*
X8099780Y-17474926D01*
X8085495Y-17489212D01*
X8399780Y-17660640D02*
X8371209Y-17646354D01*
X8356923Y-17632069D01*
X8342637Y-17603497D01*
X8342637Y-17517783D01*
X8356923Y-17489212D01*
X8371209Y-17474926D01*
X8399780Y-17460640D01*
X8442638Y-17460640D01*
X8471209Y-17474926D01*
X8485495Y-17489212D01*
X8499780Y-17517783D01*
X8499780Y-17603497D01*
X8485495Y-17632069D01*
X8471209Y-17646354D01*
X8442638Y-17660640D01*
X8399780Y-17660640D01*
X8671209Y-17660640D02*
X8642638Y-17646354D01*
X8628352Y-17617783D01*
X8628352Y-17360640D01*
X8899780Y-17646354D02*
X8871209Y-17660640D01*
X8814066Y-17660640D01*
X8785495Y-17646354D01*
X8771209Y-17617783D01*
X8771209Y-17503497D01*
X8785495Y-17474926D01*
X8814066Y-17460640D01*
X8871209Y-17460640D01*
X8899780Y-17474926D01*
X8914066Y-17503497D01*
X8914066Y-17532069D01*
X8771209Y-17560640D01*
X9028352Y-17646354D02*
X9056923Y-17660640D01*
X9114066Y-17660640D01*
X9142638Y-17646354D01*
X9156923Y-17617783D01*
X9156923Y-17603497D01*
X9142638Y-17574926D01*
X9114066Y-17560640D01*
X9071209Y-17560640D01*
X9042638Y-17546354D01*
X9028352Y-17517783D01*
X9028352Y-17503497D01*
X9042638Y-17474926D01*
X9071209Y-17460640D01*
X9114066Y-17460640D01*
X9142638Y-17474926D01*
X9256923Y-17774926D02*
X9271209Y-17760640D01*
X9299780Y-17717783D01*
X9314066Y-17689212D01*
X9328352Y-17646354D01*
X9342638Y-17574926D01*
X9342638Y-17517783D01*
X9328352Y-17446354D01*
X9314066Y-17403497D01*
X9299780Y-17374926D01*
X9271209Y-17332069D01*
X9256923Y-17317783D01*
X2661275Y-17866316D02*
X2770495Y-17975536D01*
X2770495Y-17866316D02*
X2661275Y-17975536D01*
X2770495Y-17920926D02*
G75*
G03X2770495Y-17920926I-54610J0D01*
G01*
X3214066Y-18056640D02*
X3042637Y-18056640D01*
X3128352Y-18056640D02*
X3128352Y-17756640D01*
X3099780Y-17799497D01*
X3071209Y-17828069D01*
X3042637Y-17842354D01*
X3342637Y-18028069D02*
X3356923Y-18042354D01*
X3342637Y-18056640D01*
X3328352Y-18042354D01*
X3342637Y-18028069D01*
X3342637Y-18056640D01*
X3542637Y-17756640D02*
X3571209Y-17756640D01*
X3599780Y-17770926D01*
X3614066Y-17785212D01*
X3628352Y-17813783D01*
X3642637Y-17870926D01*
X3642637Y-17942354D01*
X3628352Y-17999497D01*
X3614066Y-18028069D01*
X3599780Y-18042354D01*
X3571209Y-18056640D01*
X3542637Y-18056640D01*
X3514066Y-18042354D01*
X3499780Y-18028069D01*
X3485495Y-17999497D01*
X3471209Y-17942354D01*
X3471209Y-17870926D01*
X3485495Y-17813783D01*
X3499780Y-17785212D01*
X3514066Y-17770926D01*
X3542637Y-17756640D01*
X3785495Y-18056640D02*
X3842637Y-18056640D01*
X3871209Y-18042354D01*
X3885495Y-18028069D01*
X3914066Y-17985212D01*
X3928352Y-17928069D01*
X3928352Y-17813783D01*
X3914066Y-17785212D01*
X3899780Y-17770926D01*
X3871209Y-17756640D01*
X3814066Y-17756640D01*
X3785495Y-17770926D01*
X3771209Y-17785212D01*
X3756923Y-17813783D01*
X3756923Y-17885212D01*
X3771209Y-17913783D01*
X3785495Y-17928069D01*
X3814066Y-17942354D01*
X3871209Y-17942354D01*
X3899780Y-17928069D01*
X3914066Y-17913783D01*
X3928352Y-17885212D01*
X4056923Y-18056640D02*
X4056923Y-17856640D01*
X4056923Y-17885212D02*
X4071209Y-17870926D01*
X4099780Y-17856640D01*
X4142637Y-17856640D01*
X4171209Y-17870926D01*
X4185495Y-17899497D01*
X4185495Y-18056640D01*
X4185495Y-17899497D02*
X4199780Y-17870926D01*
X4228352Y-17856640D01*
X4271209Y-17856640D01*
X4299780Y-17870926D01*
X4314066Y-17899497D01*
X4314066Y-18056640D01*
X4456923Y-18056640D02*
X4456923Y-17856640D01*
X4456923Y-17885212D02*
X4471209Y-17870926D01*
X4499780Y-17856640D01*
X4542638Y-17856640D01*
X4571209Y-17870926D01*
X4585495Y-17899497D01*
X4585495Y-18056640D01*
X4585495Y-17899497D02*
X4599780Y-17870926D01*
X4628352Y-17856640D01*
X4671209Y-17856640D01*
X4699780Y-17870926D01*
X4714066Y-17899497D01*
X4714066Y-18056640D01*
X5299780Y-17742354D02*
X5042638Y-18128069D01*
X5685495Y-17756640D02*
X5714066Y-17756640D01*
X5742637Y-17770926D01*
X5756923Y-17785212D01*
X5771209Y-17813783D01*
X5785495Y-17870926D01*
X5785495Y-17942354D01*
X5771209Y-17999497D01*
X5756923Y-18028069D01*
X5742637Y-18042354D01*
X5714066Y-18056640D01*
X5685495Y-18056640D01*
X5656923Y-18042354D01*
X5642637Y-18028069D01*
X5628352Y-17999497D01*
X5614066Y-17942354D01*
X5614066Y-17870926D01*
X5628352Y-17813783D01*
X5642637Y-17785212D01*
X5656923Y-17770926D01*
X5685495Y-17756640D01*
X5914066Y-18028069D02*
X5928352Y-18042354D01*
X5914066Y-18056640D01*
X5899780Y-18042354D01*
X5914066Y-18028069D01*
X5914066Y-18056640D01*
X6114066Y-17756640D02*
X6142637Y-17756640D01*
X6171209Y-17770926D01*
X6185495Y-17785212D01*
X6199780Y-17813783D01*
X6214066Y-17870926D01*
X6214066Y-17942354D01*
X6199780Y-17999497D01*
X6185495Y-18028069D01*
X6171209Y-18042354D01*
X6142637Y-18056640D01*
X6114066Y-18056640D01*
X6085495Y-18042354D01*
X6071209Y-18028069D01*
X6056923Y-17999497D01*
X6042637Y-17942354D01*
X6042637Y-17870926D01*
X6056923Y-17813783D01*
X6071209Y-17785212D01*
X6085495Y-17770926D01*
X6114066Y-17756640D01*
X6471209Y-17856640D02*
X6471209Y-18056640D01*
X6399780Y-17742354D02*
X6328352Y-17956640D01*
X6514066Y-17956640D01*
X6599780Y-17756640D02*
X6785495Y-17756640D01*
X6685495Y-17870926D01*
X6728352Y-17870926D01*
X6756923Y-17885212D01*
X6771209Y-17899497D01*
X6785495Y-17928069D01*
X6785495Y-17999497D01*
X6771209Y-18028069D01*
X6756923Y-18042354D01*
X6728352Y-18056640D01*
X6642637Y-18056640D01*
X6614066Y-18042354D01*
X6599780Y-18028069D01*
X6899780Y-17756640D02*
X6899780Y-17813783D01*
X7014066Y-17756640D02*
X7014066Y-17813783D01*
X7456923Y-18170926D02*
X7442637Y-18156640D01*
X7414066Y-18113783D01*
X7399780Y-18085212D01*
X7385495Y-18042354D01*
X7371209Y-17970926D01*
X7371209Y-17913783D01*
X7385495Y-17842354D01*
X7399780Y-17799497D01*
X7414066Y-17770926D01*
X7442637Y-17728069D01*
X7456923Y-17713783D01*
X7556923Y-17785212D02*
X7571209Y-17770926D01*
X7599780Y-17756640D01*
X7671209Y-17756640D01*
X7699780Y-17770926D01*
X7714066Y-17785212D01*
X7728352Y-17813783D01*
X7728352Y-17842354D01*
X7714066Y-17885212D01*
X7542637Y-18056640D01*
X7728352Y-18056640D01*
X7828352Y-17756640D02*
X8028352Y-17756640D01*
X7899780Y-18056640D01*
X8371209Y-18056640D02*
X8371209Y-17756640D01*
X8499780Y-18056640D02*
X8499780Y-17899497D01*
X8485495Y-17870926D01*
X8456923Y-17856640D01*
X8414066Y-17856640D01*
X8385495Y-17870926D01*
X8371209Y-17885212D01*
X8685495Y-18056640D02*
X8656923Y-18042354D01*
X8642638Y-18028069D01*
X8628352Y-17999497D01*
X8628352Y-17913783D01*
X8642638Y-17885212D01*
X8656923Y-17870926D01*
X8685495Y-17856640D01*
X8728352Y-17856640D01*
X8756923Y-17870926D01*
X8771209Y-17885212D01*
X8785495Y-17913783D01*
X8785495Y-17999497D01*
X8771209Y-18028069D01*
X8756923Y-18042354D01*
X8728352Y-18056640D01*
X8685495Y-18056640D01*
X8956923Y-18056640D02*
X8928352Y-18042354D01*
X8914066Y-18013783D01*
X8914066Y-17756640D01*
X9185495Y-18042354D02*
X9156923Y-18056640D01*
X9099780Y-18056640D01*
X9071209Y-18042354D01*
X9056923Y-18013783D01*
X9056923Y-17899497D01*
X9071209Y-17870926D01*
X9099780Y-17856640D01*
X9156923Y-17856640D01*
X9185495Y-17870926D01*
X9199780Y-17899497D01*
X9199780Y-17928069D01*
X9056923Y-17956640D01*
X9314066Y-18042354D02*
X9342638Y-18056640D01*
X9399780Y-18056640D01*
X9428352Y-18042354D01*
X9442638Y-18013783D01*
X9442638Y-17999497D01*
X9428352Y-17970926D01*
X9399780Y-17956640D01*
X9356923Y-17956640D01*
X9328352Y-17942354D01*
X9314066Y-17913783D01*
X9314066Y-17899497D01*
X9328352Y-17870926D01*
X9356923Y-17856640D01*
X9399780Y-17856640D01*
X9428352Y-17870926D01*
X9542638Y-18170926D02*
X9556923Y-18156640D01*
X9585495Y-18113783D01*
X9599780Y-18085212D01*
X9614066Y-18042354D01*
X9628352Y-17970926D01*
X9628352Y-17913783D01*
X9614066Y-17842354D01*
X9599780Y-17799497D01*
X9585495Y-17770926D01*
X9556923Y-17728069D01*
X9542638Y-17713783D01*
M02*
