G04 #@! TF.GenerationSoftware,KiCad,Pcbnew,(5.1.4)-1*
G04 #@! TF.CreationDate,2025-05-28T14:21:51-04:00*
G04 #@! TF.ProjectId,ThumbsUp,5468756d-6273-4557-902e-6b696361645f,rev?*
G04 #@! TF.SameCoordinates,Original*
G04 #@! TF.FileFunction,Other,User*
%FSLAX46Y46*%
G04 Gerber Fmt 4.6, Leading zero omitted, Abs format (unit mm)*
G04 Created by KiCad (PCBNEW (5.1.4)-1) date 2025-05-28 14:21:51*
%MOMM*%
%LPD*%
G04 APERTURE LIST*
%ADD10C,0.050000*%
%ADD11C,0.127000*%
%ADD12C,0.150000*%
%ADD13C,0.120000*%
G04 APERTURE END LIST*
D10*
X128958200Y-68467200D02*
X131458200Y-68467200D01*
X131458200Y-68467200D02*
X131458200Y-67067200D01*
X131458200Y-67067200D02*
X128958200Y-67067200D01*
X128958200Y-67067200D02*
X128958200Y-68467200D01*
X128958200Y-61023200D02*
X131458200Y-61023200D01*
X131458200Y-61023200D02*
X131458200Y-59623200D01*
X131458200Y-59623200D02*
X128958200Y-59623200D01*
X128958200Y-59623200D02*
X128958200Y-61023200D01*
X157541000Y-66745485D02*
X157541000Y-65345485D01*
X155041000Y-66745485D02*
X157541000Y-66745485D01*
X155041000Y-65345485D02*
X155041000Y-66745485D01*
X157541000Y-65345485D02*
X155041000Y-65345485D01*
X157541000Y-68264000D02*
X157541000Y-66864000D01*
X155041000Y-68264000D02*
X157541000Y-68264000D01*
X155041000Y-66864000D02*
X155041000Y-68264000D01*
X157541000Y-66864000D02*
X155041000Y-66864000D01*
X157541000Y-63838971D02*
X157541000Y-62438971D01*
X155041000Y-63838971D02*
X157541000Y-63838971D01*
X155041000Y-62438971D02*
X155041000Y-63838971D01*
X157541000Y-62438971D02*
X155041000Y-62438971D01*
X157541000Y-65292228D02*
X157541000Y-63892228D01*
X155041000Y-65292228D02*
X157541000Y-65292228D01*
X155041000Y-63892228D02*
X155041000Y-65292228D01*
X157541000Y-63892228D02*
X155041000Y-63892228D01*
X157541000Y-60898000D02*
X157541000Y-59498000D01*
X155041000Y-60898000D02*
X157541000Y-60898000D01*
X155041000Y-59498000D02*
X155041000Y-60898000D01*
X157541000Y-59498000D02*
X155041000Y-59498000D01*
X157541000Y-62385714D02*
X157541000Y-60985714D01*
X155041000Y-62385714D02*
X157541000Y-62385714D01*
X155041000Y-60985714D02*
X155041000Y-62385714D01*
X157541000Y-60985714D02*
X155041000Y-60985714D01*
X108573800Y-130725000D02*
X108573800Y-128225000D01*
X108573800Y-128225000D02*
X107173800Y-128225000D01*
X107173800Y-128225000D02*
X107173800Y-130725000D01*
X107173800Y-130725000D02*
X108573800Y-130725000D01*
X73597200Y-108723200D02*
X76097200Y-108723200D01*
X76097200Y-108723200D02*
X76097200Y-107323200D01*
X76097200Y-107323200D02*
X73597200Y-107323200D01*
X73597200Y-107323200D02*
X73597200Y-108723200D01*
X110047000Y-130725000D02*
X110047000Y-128225000D01*
X110047000Y-128225000D02*
X108647000Y-128225000D01*
X108647000Y-128225000D02*
X108647000Y-130725000D01*
X108647000Y-130725000D02*
X110047000Y-130725000D01*
X172406000Y-98664800D02*
X169906000Y-98664800D01*
X169906000Y-98664800D02*
X169906000Y-100064800D01*
X169906000Y-100064800D02*
X172406000Y-100064800D01*
X172406000Y-100064800D02*
X172406000Y-98664800D01*
X165334000Y-75790999D02*
X162834000Y-75790999D01*
X162834000Y-75790999D02*
X162834000Y-77190999D01*
X162834000Y-77190999D02*
X165334000Y-77190999D01*
X165334000Y-77190999D02*
X165334000Y-75790999D01*
X186993500Y-109089500D02*
X186993500Y-111589500D01*
X186993500Y-111589500D02*
X188393500Y-111589500D01*
X188393500Y-111589500D02*
X188393500Y-109089500D01*
X188393500Y-109089500D02*
X186993500Y-109089500D01*
X189933500Y-109089500D02*
X189933500Y-111589500D01*
X189933500Y-111589500D02*
X191333500Y-111589500D01*
X191333500Y-111589500D02*
X191333500Y-109089500D01*
X191333500Y-109089500D02*
X189933500Y-109089500D01*
X128958200Y-62512000D02*
X131458200Y-62512000D01*
X131458200Y-62512000D02*
X131458200Y-61112000D01*
X131458200Y-61112000D02*
X128958200Y-61112000D01*
X128958200Y-61112000D02*
X128958200Y-62512000D01*
X128958200Y-66978400D02*
X131458200Y-66978400D01*
X131458200Y-66978400D02*
X131458200Y-65578400D01*
X131458200Y-65578400D02*
X128958200Y-65578400D01*
X128958200Y-65578400D02*
X128958200Y-66978400D01*
X207357500Y-107509000D02*
X207357500Y-105009000D01*
X207357500Y-105009000D02*
X205957500Y-105009000D01*
X205957500Y-105009000D02*
X205957500Y-107509000D01*
X205957500Y-107509000D02*
X207357500Y-107509000D01*
X128958200Y-65489600D02*
X131458200Y-65489600D01*
X131458200Y-65489600D02*
X131458200Y-64089600D01*
X131458200Y-64089600D02*
X128958200Y-64089600D01*
X128958200Y-64089600D02*
X128958200Y-65489600D01*
X128958200Y-64000800D02*
X131458200Y-64000800D01*
X131458200Y-64000800D02*
X131458200Y-62600800D01*
X131458200Y-62600800D02*
X128958200Y-62600800D01*
X128958200Y-62600800D02*
X128958200Y-64000800D01*
X172406000Y-94245200D02*
X169906000Y-94245200D01*
X169906000Y-94245200D02*
X169906000Y-95645200D01*
X169906000Y-95645200D02*
X172406000Y-95645200D01*
X172406000Y-95645200D02*
X172406000Y-94245200D01*
X188463500Y-109089500D02*
X188463500Y-111589500D01*
X188463500Y-111589500D02*
X189863500Y-111589500D01*
X189863500Y-111589500D02*
X189863500Y-109089500D01*
X189863500Y-109089500D02*
X188463500Y-109089500D01*
X191403500Y-109089500D02*
X191403500Y-111589500D01*
X191403500Y-111589500D02*
X192803500Y-111589500D01*
X192803500Y-111589500D02*
X192803500Y-109089500D01*
X192803500Y-109089500D02*
X191403500Y-109089500D01*
X172406000Y-95718400D02*
X169906000Y-95718400D01*
X169906000Y-95718400D02*
X169906000Y-97118400D01*
X169906000Y-97118400D02*
X172406000Y-97118400D01*
X172406000Y-97118400D02*
X172406000Y-95718400D01*
X172406000Y-97191600D02*
X169906000Y-97191600D01*
X169906000Y-97191600D02*
X169906000Y-98591600D01*
X169906000Y-98591600D02*
X172406000Y-98591600D01*
X172406000Y-98591600D02*
X172406000Y-97191600D01*
X205887500Y-107509000D02*
X205887500Y-105009000D01*
X205887500Y-105009000D02*
X204487500Y-105009000D01*
X204487500Y-105009000D02*
X204487500Y-107509000D01*
X204487500Y-107509000D02*
X205887500Y-107509000D01*
X165334000Y-77256799D02*
X162834000Y-77256799D01*
X162834000Y-77256799D02*
X162834000Y-78656799D01*
X162834000Y-78656799D02*
X165334000Y-78656799D01*
X165334000Y-78656799D02*
X165334000Y-77256799D01*
X165334000Y-78722599D02*
X162834000Y-78722599D01*
X162834000Y-78722599D02*
X162834000Y-80122599D01*
X162834000Y-80122599D02*
X165334000Y-80122599D01*
X165334000Y-80122599D02*
X165334000Y-78722599D01*
X165334000Y-80188399D02*
X162834000Y-80188399D01*
X162834000Y-80188399D02*
X162834000Y-81588399D01*
X162834000Y-81588399D02*
X165334000Y-81588399D01*
X165334000Y-81588399D02*
X165334000Y-80188399D01*
X115502600Y-93918000D02*
X118002600Y-93918000D01*
X118002600Y-93918000D02*
X118002600Y-92518000D01*
X118002600Y-92518000D02*
X115502600Y-92518000D01*
X115502600Y-92518000D02*
X115502600Y-93918000D01*
X124353000Y-87771200D02*
X126853000Y-87771200D01*
X126853000Y-87771200D02*
X126853000Y-86371200D01*
X126853000Y-86371200D02*
X124353000Y-86371200D01*
X124353000Y-86371200D02*
X124353000Y-87771200D01*
X73597200Y-107224600D02*
X76097200Y-107224600D01*
X76097200Y-107224600D02*
X76097200Y-105824600D01*
X76097200Y-105824600D02*
X73597200Y-105824600D01*
X73597200Y-105824600D02*
X73597200Y-107224600D01*
X102681000Y-130725000D02*
X102681000Y-128225000D01*
X102681000Y-128225000D02*
X101281000Y-128225000D01*
X101281000Y-128225000D02*
X101281000Y-130725000D01*
X101281000Y-130725000D02*
X102681000Y-130725000D01*
X202947500Y-107509000D02*
X202947500Y-105009000D01*
X202947500Y-105009000D02*
X201547500Y-105009000D01*
X201547500Y-105009000D02*
X201547500Y-107509000D01*
X201547500Y-107509000D02*
X202947500Y-107509000D01*
X204417500Y-107509000D02*
X204417500Y-105009000D01*
X204417500Y-105009000D02*
X203017500Y-105009000D01*
X203017500Y-105009000D02*
X203017500Y-107509000D01*
X203017500Y-107509000D02*
X204417500Y-107509000D01*
X172406000Y-100138000D02*
X169906000Y-100138000D01*
X169906000Y-100138000D02*
X169906000Y-101538000D01*
X169906000Y-101538000D02*
X172406000Y-101538000D01*
X172406000Y-101538000D02*
X172406000Y-100138000D01*
X185545500Y-109111500D02*
X185545500Y-111611500D01*
X185545500Y-111611500D02*
X186945500Y-111611500D01*
X186945500Y-111611500D02*
X186945500Y-109111500D01*
X186945500Y-109111500D02*
X185545500Y-109111500D01*
X192911500Y-109051000D02*
X192911500Y-111551000D01*
X192911500Y-111551000D02*
X194311500Y-111551000D01*
X194311500Y-111551000D02*
X194311500Y-109051000D01*
X194311500Y-109051000D02*
X192911500Y-109051000D01*
X172406000Y-92772000D02*
X169906000Y-92772000D01*
X169906000Y-92772000D02*
X169906000Y-94172000D01*
X169906000Y-94172000D02*
X172406000Y-94172000D01*
X172406000Y-94172000D02*
X172406000Y-92772000D01*
X109254200Y-110275600D02*
X111754200Y-110275600D01*
X111754200Y-110275600D02*
X111754200Y-108875600D01*
X111754200Y-108875600D02*
X109254200Y-108875600D01*
X109254200Y-108875600D02*
X109254200Y-110275600D01*
X115502600Y-92444800D02*
X118002600Y-92444800D01*
X118002600Y-92444800D02*
X118002600Y-91044800D01*
X118002600Y-91044800D02*
X115502600Y-91044800D01*
X115502600Y-91044800D02*
X115502600Y-92444800D01*
X165332500Y-74293500D02*
X162832500Y-74293500D01*
X162832500Y-74293500D02*
X162832500Y-75693500D01*
X162832500Y-75693500D02*
X165332500Y-75693500D01*
X165332500Y-75693500D02*
X165332500Y-74293500D01*
X124341800Y-80354400D02*
X126841800Y-80354400D01*
X126841800Y-80354400D02*
X126841800Y-78954400D01*
X126841800Y-78954400D02*
X124341800Y-78954400D01*
X124341800Y-78954400D02*
X124341800Y-80354400D01*
X99709200Y-130713800D02*
X99709200Y-128213800D01*
X99709200Y-128213800D02*
X98309200Y-128213800D01*
X98309200Y-128213800D02*
X98309200Y-130713800D01*
X98309200Y-130713800D02*
X99709200Y-130713800D01*
X165334000Y-81659500D02*
X162834000Y-81659500D01*
X162834000Y-81659500D02*
X162834000Y-83059500D01*
X162834000Y-83059500D02*
X165334000Y-83059500D01*
X165334000Y-83059500D02*
X165334000Y-81659500D01*
X101207800Y-130713800D02*
X101207800Y-128213800D01*
X101207800Y-128213800D02*
X99807800Y-128213800D01*
X99807800Y-128213800D02*
X99807800Y-130713800D01*
X99807800Y-130713800D02*
X101207800Y-130713800D01*
X109254200Y-111748800D02*
X111754200Y-111748800D01*
X111754200Y-111748800D02*
X111754200Y-110348800D01*
X111754200Y-110348800D02*
X109254200Y-110348800D01*
X109254200Y-110348800D02*
X109254200Y-111748800D01*
X115502600Y-99851440D02*
X118002600Y-99851440D01*
X118002600Y-99851440D02*
X118002600Y-98451440D01*
X118002600Y-98451440D02*
X115502600Y-98451440D01*
X115502600Y-98451440D02*
X115502600Y-99851440D01*
X115502600Y-96884720D02*
X118002600Y-96884720D01*
X118002600Y-96884720D02*
X118002600Y-95484720D01*
X118002600Y-95484720D02*
X115502600Y-95484720D01*
X115502600Y-95484720D02*
X115502600Y-96884720D01*
X124341800Y-81814046D02*
X126841800Y-81814046D01*
X126841800Y-81814046D02*
X126841800Y-80414046D01*
X126841800Y-80414046D02*
X124341800Y-80414046D01*
X124341800Y-80414046D02*
X124341800Y-81814046D01*
X115502600Y-98368080D02*
X118002600Y-98368080D01*
X118002600Y-98368080D02*
X118002600Y-96968080D01*
X118002600Y-96968080D02*
X115502600Y-96968080D01*
X115502600Y-96968080D02*
X115502600Y-98368080D01*
X107100600Y-130725000D02*
X107100600Y-128225000D01*
X107100600Y-128225000D02*
X105700600Y-128225000D01*
X105700600Y-128225000D02*
X105700600Y-130725000D01*
X105700600Y-130725000D02*
X107100600Y-130725000D01*
X105627400Y-130725000D02*
X105627400Y-128225000D01*
X105627400Y-128225000D02*
X104227400Y-128225000D01*
X104227400Y-128225000D02*
X104227400Y-130725000D01*
X104227400Y-130725000D02*
X105627400Y-130725000D01*
X124341800Y-86287116D02*
X126841800Y-86287116D01*
X126841800Y-86287116D02*
X126841800Y-84887116D01*
X126841800Y-84887116D02*
X124341800Y-84887116D01*
X124341800Y-84887116D02*
X124341800Y-86287116D01*
D11*
X174297274Y-42400952D02*
X178098728Y-40865065D01*
X172836308Y-38784935D02*
X174297274Y-42400952D01*
X182840561Y-32046617D02*
X184488830Y-36126226D01*
X179203882Y-38261483D02*
G75*
G03X178098728Y-40865065I749214J-1854368D01*
G01*
X182840561Y-32046617D02*
X174217751Y-35530458D01*
D12*
X185715613Y-34325546D02*
X183360566Y-35277047D01*
X171349827Y-40129701D02*
X172301328Y-42484748D01*
X183360566Y-35277047D02*
X182409066Y-32922000D01*
X177588662Y-39594523D02*
G75*
G03X177588662Y-39594523I-1524000J0D01*
G01*
X172301328Y-42484748D02*
X174656375Y-41533247D01*
X184764113Y-31970499D02*
X185715613Y-34325546D01*
D11*
X174217751Y-35530458D02*
G75*
G03X172836308Y-38784935I936517J-2317960D01*
G01*
D12*
X182409066Y-32922000D02*
X184764113Y-31970499D01*
D11*
X179203882Y-38261484D02*
X184488830Y-36126226D01*
D12*
X182524778Y-34860724D02*
G75*
G03X182524778Y-34860724I-1524000J0D01*
G01*
X173704874Y-39178200D02*
X171349827Y-40129701D01*
X174656375Y-41533247D02*
X173704874Y-39178200D01*
D13*
X171909124Y-39159541D02*
X170972608Y-36841581D01*
X170972608Y-36841581D02*
X173290568Y-35905065D01*
D10*
X115502600Y-95401360D02*
X118002600Y-95401360D01*
X118002600Y-95401360D02*
X118002600Y-94001360D01*
X118002600Y-94001360D02*
X115502600Y-94001360D01*
X115502600Y-94001360D02*
X115502600Y-95401360D01*
X104154200Y-130725000D02*
X104154200Y-128225000D01*
X104154200Y-128225000D02*
X102754200Y-128225000D01*
X102754200Y-128225000D02*
X102754200Y-130725000D01*
X102754200Y-130725000D02*
X104154200Y-130725000D01*
X124341800Y-83305069D02*
X126841800Y-83305069D01*
X126841800Y-83305069D02*
X126841800Y-81905069D01*
X126841800Y-81905069D02*
X124341800Y-81905069D01*
X124341800Y-81905069D02*
X124341800Y-83305069D01*
X124341800Y-84796092D02*
X126841800Y-84796092D01*
X126841800Y-84796092D02*
X126841800Y-83396092D01*
X126841800Y-83396092D02*
X124341800Y-83396092D01*
X124341800Y-83396092D02*
X124341800Y-84796092D01*
D11*
X111798216Y-43560815D02*
X107996762Y-42024928D01*
X110337250Y-47176832D02*
X111798216Y-43560815D01*
X98459964Y-45074434D02*
X100108233Y-40994825D01*
X105393182Y-43130082D02*
G75*
G03X107996762Y-42024928I749213J1854367D01*
G01*
X98459964Y-45074434D02*
X107082774Y-48558275D01*
D12*
X97974902Y-41437930D02*
X100329949Y-42389431D01*
X112340689Y-47242085D02*
X113292190Y-44887038D01*
X100329949Y-42389431D02*
X99378449Y-44744478D01*
X110101355Y-44351860D02*
G75*
G03X110101355Y-44351860I-1524000J0D01*
G01*
X113292190Y-44887038D02*
X110937143Y-43935537D01*
X97023402Y-43792977D02*
X97974902Y-41437930D01*
D11*
X107082775Y-48558275D02*
G75*
G03X110337250Y-47176832I936516J2317959D01*
G01*
D12*
X99378449Y-44744478D02*
X97023402Y-43792977D01*
D11*
X105393181Y-43130083D02*
X100108233Y-40994825D01*
D12*
X103262237Y-44328155D02*
G75*
G03X103262237Y-44328155I-1524000J0D01*
G01*
X109985642Y-46290584D02*
X112340689Y-47242085D01*
X110937143Y-43935537D02*
X109985642Y-46290584D01*
D13*
X111264434Y-47551439D02*
X110327918Y-49869398D01*
X110327918Y-49869398D02*
X108009958Y-48932882D01*
D11*
X238000361Y-98631874D02*
X241801815Y-97095987D01*
X236539395Y-95015857D02*
X238000361Y-98631874D01*
X246543648Y-88277539D02*
X248191917Y-92357148D01*
X242906969Y-94492405D02*
G75*
G03X241801815Y-97095987I749214J-1854368D01*
G01*
X246543648Y-88277539D02*
X237920838Y-91761380D01*
D12*
X249418700Y-90556468D02*
X247063653Y-91507969D01*
X235052914Y-96360623D02*
X236004415Y-98715670D01*
X247063653Y-91507969D02*
X246112153Y-89152922D01*
X241291749Y-95825445D02*
G75*
G03X241291749Y-95825445I-1524000J0D01*
G01*
X236004415Y-98715670D02*
X238359462Y-97764169D01*
X248467200Y-88201421D02*
X249418700Y-90556468D01*
D11*
X237920838Y-91761380D02*
G75*
G03X236539395Y-95015857I936517J-2317960D01*
G01*
D12*
X246112153Y-89152922D02*
X248467200Y-88201421D01*
D11*
X242906969Y-94492406D02*
X248191917Y-92357148D01*
D12*
X246227865Y-91091646D02*
G75*
G03X246227865Y-91091646I-1524000J0D01*
G01*
X237407961Y-95409122D02*
X235052914Y-96360623D01*
X238359462Y-97764169D02*
X237407961Y-95409122D01*
D13*
X235612211Y-95390463D02*
X234675695Y-93072503D01*
X234675695Y-93072503D02*
X236993655Y-92135987D01*
D11*
X156306174Y-48591293D02*
X160107628Y-47055406D01*
X154845208Y-44975276D02*
X156306174Y-48591293D01*
X164849461Y-38236958D02*
X166497730Y-42316567D01*
X161212782Y-44451824D02*
G75*
G03X160107628Y-47055406I749214J-1854368D01*
G01*
X164849461Y-38236958D02*
X156226651Y-41720799D01*
D12*
X167724513Y-40515887D02*
X165369466Y-41467388D01*
X153358727Y-46320042D02*
X154310228Y-48675089D01*
X165369466Y-41467388D02*
X164417966Y-39112341D01*
X159597562Y-45784864D02*
G75*
G03X159597562Y-45784864I-1524000J0D01*
G01*
X154310228Y-48675089D02*
X156665275Y-47723588D01*
X166773013Y-38160840D02*
X167724513Y-40515887D01*
D11*
X156226651Y-41720799D02*
G75*
G03X154845208Y-44975276I936517J-2317960D01*
G01*
D12*
X164417966Y-39112341D02*
X166773013Y-38160840D01*
D11*
X161212782Y-44451825D02*
X166497730Y-42316567D01*
D12*
X164533678Y-41051065D02*
G75*
G03X164533678Y-41051065I-1524000J0D01*
G01*
X155713774Y-45368541D02*
X153358727Y-46320042D01*
X156665275Y-47723588D02*
X155713774Y-45368541D01*
D13*
X153918024Y-45349882D02*
X152981508Y-43031922D01*
X152981508Y-43031922D02*
X155299468Y-42095406D01*
D11*
X129687325Y-49709949D02*
X125885871Y-48174062D01*
X128226359Y-53325966D02*
X129687325Y-49709949D01*
X116349073Y-51223568D02*
X117997342Y-47143959D01*
X123282291Y-49279216D02*
G75*
G03X125885871Y-48174062I749213J1854367D01*
G01*
X116349073Y-51223568D02*
X124971883Y-54707409D01*
D12*
X115864011Y-47587064D02*
X118219058Y-48538565D01*
X130229798Y-53391219D02*
X131181299Y-51036172D01*
X118219058Y-48538565D02*
X117267558Y-50893612D01*
X127990464Y-50500994D02*
G75*
G03X127990464Y-50500994I-1524000J0D01*
G01*
X131181299Y-51036172D02*
X128826252Y-50084671D01*
X114912511Y-49942111D02*
X115864011Y-47587064D01*
D11*
X124971884Y-54707409D02*
G75*
G03X128226359Y-53325966I936516J2317959D01*
G01*
D12*
X117267558Y-50893612D02*
X114912511Y-49942111D01*
D11*
X123282290Y-49279217D02*
X117997342Y-47143959D01*
D12*
X121151346Y-50477289D02*
G75*
G03X121151346Y-50477289I-1524000J0D01*
G01*
X127874751Y-52439718D02*
X130229798Y-53391219D01*
X128826252Y-50084671D02*
X127874751Y-52439718D01*
D13*
X129153543Y-53700573D02*
X128217027Y-56018532D01*
X128217027Y-56018532D02*
X125899067Y-55082016D01*
D11*
X108334749Y-102559429D02*
X104533295Y-101023542D01*
X106873783Y-106175446D02*
X108334749Y-102559429D01*
X94996497Y-104073048D02*
X96644766Y-99993439D01*
X101929715Y-102128696D02*
G75*
G03X104533295Y-101023542I749213J1854367D01*
G01*
X94996497Y-104073048D02*
X103619307Y-107556889D01*
D12*
X94511435Y-100436544D02*
X96866482Y-101388045D01*
X108877222Y-106240699D02*
X109828723Y-103885652D01*
X96866482Y-101388045D02*
X95914982Y-103743092D01*
X106637888Y-103350474D02*
G75*
G03X106637888Y-103350474I-1524000J0D01*
G01*
X109828723Y-103885652D02*
X107473676Y-102934151D01*
X93559935Y-102791591D02*
X94511435Y-100436544D01*
D11*
X103619308Y-107556889D02*
G75*
G03X106873783Y-106175446I936516J2317959D01*
G01*
D12*
X95914982Y-103743092D02*
X93559935Y-102791591D01*
D11*
X101929714Y-102128697D02*
X96644766Y-99993439D01*
D12*
X99798770Y-103326769D02*
G75*
G03X99798770Y-103326769I-1524000J0D01*
G01*
X106522175Y-105289198D02*
X108877222Y-106240699D01*
X107473676Y-102934151D02*
X106522175Y-105289198D01*
D13*
X107800967Y-106550053D02*
X106864451Y-108868012D01*
X106864451Y-108868012D02*
X104546491Y-107931496D01*
D11*
X122569799Y-67326443D02*
X118768345Y-65790556D01*
X121108833Y-70942460D02*
X122569799Y-67326443D01*
X109231547Y-68840062D02*
X110879816Y-64760453D01*
X116164765Y-66895710D02*
G75*
G03X118768345Y-65790556I749213J1854367D01*
G01*
X109231547Y-68840062D02*
X117854357Y-72323903D01*
D12*
X108746485Y-65203558D02*
X111101532Y-66155059D01*
X123112272Y-71007713D02*
X124063773Y-68652666D01*
X111101532Y-66155059D02*
X110150032Y-68510106D01*
X120872938Y-68117488D02*
G75*
G03X120872938Y-68117488I-1524000J0D01*
G01*
X124063773Y-68652666D02*
X121708726Y-67701165D01*
X107794985Y-67558605D02*
X108746485Y-65203558D01*
D11*
X117854358Y-72323903D02*
G75*
G03X121108833Y-70942460I936516J2317959D01*
G01*
D12*
X110150032Y-68510106D02*
X107794985Y-67558605D01*
D11*
X116164764Y-66895711D02*
X110879816Y-64760453D01*
D12*
X114033820Y-68093783D02*
G75*
G03X114033820Y-68093783I-1524000J0D01*
G01*
X120757225Y-70056212D02*
X123112272Y-71007713D01*
X121708726Y-67701165D02*
X120757225Y-70056212D01*
D13*
X122036017Y-71317067D02*
X121099501Y-73635026D01*
X121099501Y-73635026D02*
X118781541Y-72698510D01*
D11*
X90343649Y-96369088D02*
X86542195Y-94833201D01*
X88882683Y-99985105D02*
X90343649Y-96369088D01*
X77005397Y-97882707D02*
X78653666Y-93803098D01*
X83938615Y-95938355D02*
G75*
G03X86542195Y-94833201I749213J1854367D01*
G01*
X77005397Y-97882707D02*
X85628207Y-101366548D01*
D12*
X76520335Y-94246203D02*
X78875382Y-95197704D01*
X90886122Y-100050358D02*
X91837623Y-97695311D01*
X78875382Y-95197704D02*
X77923882Y-97552751D01*
X88646788Y-97160133D02*
G75*
G03X88646788Y-97160133I-1524000J0D01*
G01*
X91837623Y-97695311D02*
X89482576Y-96743810D01*
X75568835Y-96601250D02*
X76520335Y-94246203D01*
D11*
X85628208Y-101366548D02*
G75*
G03X88882683Y-99985105I936516J2317959D01*
G01*
D12*
X77923882Y-97552751D02*
X75568835Y-96601250D01*
D11*
X83938614Y-95938356D02*
X78653666Y-93803098D01*
D12*
X81807670Y-97136428D02*
G75*
G03X81807670Y-97136428I-1524000J0D01*
G01*
X88531075Y-99098857D02*
X90886122Y-100050358D01*
X89482576Y-96743810D02*
X88531075Y-99098857D01*
D13*
X89809867Y-100359712D02*
X88873351Y-102677671D01*
X88873351Y-102677671D02*
X86555391Y-101741155D01*
D11*
X177658750Y-101440773D02*
X181460204Y-99904886D01*
X176197784Y-97824756D02*
X177658750Y-101440773D01*
X186202037Y-91086438D02*
X187850306Y-95166047D01*
X182565358Y-97301304D02*
G75*
G03X181460204Y-99904886I749214J-1854368D01*
G01*
X186202037Y-91086438D02*
X177579227Y-94570279D01*
D12*
X189077089Y-93365367D02*
X186722042Y-94316868D01*
X174711303Y-99169522D02*
X175662804Y-101524569D01*
X186722042Y-94316868D02*
X185770542Y-91961821D01*
X180950138Y-98634344D02*
G75*
G03X180950138Y-98634344I-1524000J0D01*
G01*
X175662804Y-101524569D02*
X178017851Y-100573068D01*
X188125589Y-91010320D02*
X189077089Y-93365367D01*
D11*
X177579227Y-94570279D02*
G75*
G03X176197784Y-97824756I936517J-2317960D01*
G01*
D12*
X185770542Y-91961821D02*
X188125589Y-91010320D01*
D11*
X182565358Y-97301305D02*
X187850306Y-95166047D01*
D12*
X185886254Y-93900545D02*
G75*
G03X185886254Y-93900545I-1524000J0D01*
G01*
X177066350Y-98218021D02*
X174711303Y-99169522D01*
X178017851Y-100573068D02*
X177066350Y-98218021D01*
D13*
X175270600Y-98199362D02*
X174334084Y-95881402D01*
X174334084Y-95881402D02*
X176652044Y-94944886D01*
D11*
X115452274Y-84942936D02*
X111650820Y-83407049D01*
X113991308Y-88558953D02*
X115452274Y-84942936D01*
X102114022Y-86456555D02*
X103762291Y-82376946D01*
X109047240Y-84512203D02*
G75*
G03X111650820Y-83407049I749213J1854367D01*
G01*
X102114022Y-86456555D02*
X110736832Y-89940396D01*
D12*
X101628960Y-82820051D02*
X103984007Y-83771552D01*
X115994747Y-88624206D02*
X116946248Y-86269159D01*
X103984007Y-83771552D02*
X103032507Y-86126599D01*
X113755413Y-85733981D02*
G75*
G03X113755413Y-85733981I-1524000J0D01*
G01*
X116946248Y-86269159D02*
X114591201Y-85317658D01*
X100677460Y-85175098D02*
X101628960Y-82820051D01*
D11*
X110736833Y-89940396D02*
G75*
G03X113991308Y-88558953I936516J2317959D01*
G01*
D12*
X103032507Y-86126599D02*
X100677460Y-85175098D01*
D11*
X109047239Y-84512204D02*
X103762291Y-82376946D01*
D12*
X106916295Y-85710276D02*
G75*
G03X106916295Y-85710276I-1524000J0D01*
G01*
X113639700Y-87672705D02*
X115994747Y-88624206D01*
X114591201Y-85317658D02*
X113639700Y-87672705D01*
D13*
X114918492Y-88933560D02*
X113981976Y-91251519D01*
X113981976Y-91251519D02*
X111664016Y-90315003D01*
D11*
X170541224Y-83824279D02*
X174342678Y-82288392D01*
X169080258Y-80208262D02*
X170541224Y-83824279D01*
X179084511Y-73469944D02*
X180732780Y-77549553D01*
X175447832Y-79684810D02*
G75*
G03X174342678Y-82288392I749214J-1854368D01*
G01*
X179084511Y-73469944D02*
X170461701Y-76953785D01*
D12*
X181959563Y-75748873D02*
X179604516Y-76700374D01*
X167593777Y-81553028D02*
X168545278Y-83908075D01*
X179604516Y-76700374D02*
X178653016Y-74345327D01*
X173832612Y-81017850D02*
G75*
G03X173832612Y-81017850I-1524000J0D01*
G01*
X168545278Y-83908075D02*
X170900325Y-82956574D01*
X181008063Y-73393826D02*
X181959563Y-75748873D01*
D11*
X170461701Y-76953785D02*
G75*
G03X169080258Y-80208262I936517J-2317960D01*
G01*
D12*
X178653016Y-74345327D02*
X181008063Y-73393826D01*
D11*
X175447832Y-79684811D02*
X180732780Y-77549553D01*
D12*
X178768728Y-76284051D02*
G75*
G03X178768728Y-76284051I-1524000J0D01*
G01*
X169948824Y-80601527D02*
X167593777Y-81553028D01*
X170900325Y-82956574D02*
X169948824Y-80601527D01*
D13*
X168153074Y-80582868D02*
X167216558Y-78264908D01*
X167216558Y-78264908D02*
X169534518Y-77328392D01*
D11*
X195649850Y-95250431D02*
X199451304Y-93714544D01*
X194188884Y-91634414D02*
X195649850Y-95250431D01*
X204193137Y-84896096D02*
X205841406Y-88975705D01*
X200556458Y-91110962D02*
G75*
G03X199451304Y-93714544I749214J-1854368D01*
G01*
X204193137Y-84896096D02*
X195570327Y-88379937D01*
D12*
X207068189Y-87175025D02*
X204713142Y-88126526D01*
X192702403Y-92979180D02*
X193653904Y-95334227D01*
X204713142Y-88126526D02*
X203761642Y-85771479D01*
X198941238Y-92444002D02*
G75*
G03X198941238Y-92444002I-1524000J0D01*
G01*
X193653904Y-95334227D02*
X196008951Y-94382726D01*
X206116689Y-84819978D02*
X207068189Y-87175025D01*
D11*
X195570327Y-88379937D02*
G75*
G03X194188884Y-91634414I936517J-2317960D01*
G01*
D12*
X203761642Y-85771479D02*
X206116689Y-84819978D01*
D11*
X200556458Y-91110963D02*
X205841406Y-88975705D01*
D12*
X203877354Y-87710203D02*
G75*
G03X203877354Y-87710203I-1524000J0D01*
G01*
X195057450Y-92027679D02*
X192702403Y-92979180D01*
X196008951Y-94382726D02*
X195057450Y-92027679D01*
D13*
X193261700Y-92009020D02*
X192325184Y-89691060D01*
X192325184Y-89691060D02*
X194643144Y-88754544D01*
D11*
X188532324Y-77633938D02*
X192333778Y-76098051D01*
X187071358Y-74017921D02*
X188532324Y-77633938D01*
X197075611Y-67279603D02*
X198723880Y-71359212D01*
X193438932Y-73494469D02*
G75*
G03X192333778Y-76098051I749214J-1854368D01*
G01*
X197075611Y-67279603D02*
X188452801Y-70763444D01*
D12*
X199950663Y-69558532D02*
X197595616Y-70510033D01*
X185584877Y-75362687D02*
X186536378Y-77717734D01*
X197595616Y-70510033D02*
X196644116Y-68154986D01*
X191823712Y-74827509D02*
G75*
G03X191823712Y-74827509I-1524000J0D01*
G01*
X186536378Y-77717734D02*
X188891425Y-76766233D01*
X198999163Y-67203485D02*
X199950663Y-69558532D01*
D11*
X188452801Y-70763444D02*
G75*
G03X187071358Y-74017921I936517J-2317960D01*
G01*
D12*
X196644116Y-68154986D02*
X198999163Y-67203485D01*
D11*
X193438932Y-73494470D02*
X198723880Y-71359212D01*
D12*
X196759828Y-70093710D02*
G75*
G03X196759828Y-70093710I-1524000J0D01*
G01*
X187939924Y-74411186D02*
X185584877Y-75362687D01*
X188891425Y-76766233D02*
X187939924Y-74411186D01*
D13*
X186144174Y-74392527D02*
X185207658Y-72074567D01*
X185207658Y-72074567D02*
X187525618Y-71138051D01*
D11*
X181414799Y-60017445D02*
X185216253Y-58481558D01*
X179953833Y-56401428D02*
X181414799Y-60017445D01*
X189958086Y-49663110D02*
X191606355Y-53742719D01*
X186321407Y-55877976D02*
G75*
G03X185216253Y-58481558I749214J-1854368D01*
G01*
X189958086Y-49663110D02*
X181335276Y-53146951D01*
D12*
X192833138Y-51942039D02*
X190478091Y-52893540D01*
X178467352Y-57746194D02*
X179418853Y-60101241D01*
X190478091Y-52893540D02*
X189526591Y-50538493D01*
X184706187Y-57211016D02*
G75*
G03X184706187Y-57211016I-1524000J0D01*
G01*
X179418853Y-60101241D02*
X181773900Y-59149740D01*
X191881638Y-49586992D02*
X192833138Y-51942039D01*
D11*
X181335276Y-53146951D02*
G75*
G03X179953833Y-56401428I936517J-2317960D01*
G01*
D12*
X189526591Y-50538493D02*
X191881638Y-49586992D01*
D11*
X186321407Y-55877977D02*
X191606355Y-53742719D01*
D12*
X189642303Y-52477217D02*
G75*
G03X189642303Y-52477217I-1524000J0D01*
G01*
X180822399Y-56794693D02*
X178467352Y-57746194D01*
X181773900Y-59149740D02*
X180822399Y-56794693D01*
D13*
X179026649Y-56776034D02*
X178090133Y-54458074D01*
X178090133Y-54458074D02*
X180408093Y-53521558D01*
D11*
X218510835Y-101113480D02*
X222312289Y-99577593D01*
X217049869Y-97497463D02*
X218510835Y-101113480D01*
X227054122Y-90759145D02*
X228702391Y-94838754D01*
X223417443Y-96974011D02*
G75*
G03X222312289Y-99577593I749214J-1854368D01*
G01*
X227054122Y-90759145D02*
X218431312Y-94242986D01*
D12*
X229929174Y-93038074D02*
X227574127Y-93989575D01*
X215563388Y-98842229D02*
X216514889Y-101197276D01*
X227574127Y-93989575D02*
X226622627Y-91634528D01*
X221802223Y-98307051D02*
G75*
G03X221802223Y-98307051I-1524000J0D01*
G01*
X216514889Y-101197276D02*
X218869936Y-100245775D01*
X228977674Y-90683027D02*
X229929174Y-93038074D01*
D11*
X218431312Y-94242986D02*
G75*
G03X217049869Y-97497463I936517J-2317960D01*
G01*
D12*
X226622627Y-91634528D02*
X228977674Y-90683027D01*
D11*
X223417443Y-96974012D02*
X228702391Y-94838754D01*
D12*
X226738339Y-93573252D02*
G75*
G03X226738339Y-93573252I-1524000J0D01*
G01*
X217918435Y-97890728D02*
X215563388Y-98842229D01*
X218869936Y-100245775D02*
X217918435Y-97890728D01*
D13*
X216122685Y-97872069D02*
X215186169Y-95554109D01*
X215186169Y-95554109D02*
X217504129Y-94617593D01*
D11*
X163423699Y-66207786D02*
X167225153Y-64671899D01*
X161962733Y-62591769D02*
X163423699Y-66207786D01*
X171966986Y-55853451D02*
X173615255Y-59933060D01*
X168330307Y-62068317D02*
G75*
G03X167225153Y-64671899I749214J-1854368D01*
G01*
X171966986Y-55853451D02*
X163344176Y-59337292D01*
D12*
X174842038Y-58132380D02*
X172486991Y-59083881D01*
X160476252Y-63936535D02*
X161427753Y-66291582D01*
X172486991Y-59083881D02*
X171535491Y-56728834D01*
X166715087Y-63401357D02*
G75*
G03X166715087Y-63401357I-1524000J0D01*
G01*
X161427753Y-66291582D02*
X163782800Y-65340081D01*
X173890538Y-55777333D02*
X174842038Y-58132380D01*
D11*
X163344176Y-59337292D02*
G75*
G03X161962733Y-62591769I936517J-2317960D01*
G01*
D12*
X171535491Y-56728834D02*
X173890538Y-55777333D01*
D11*
X168330307Y-62068318D02*
X173615255Y-59933060D01*
D12*
X171651203Y-58667558D02*
G75*
G03X171651203Y-58667558I-1524000J0D01*
G01*
X162831299Y-62985034D02*
X160476252Y-63936535D01*
X163782800Y-65340081D02*
X162831299Y-62985034D01*
D13*
X161035549Y-62966375D02*
X160099033Y-60648415D01*
X160099033Y-60648415D02*
X162416993Y-59711899D01*
D11*
X97563166Y-78793802D02*
X93761712Y-77257915D01*
X96102200Y-82409819D02*
X97563166Y-78793802D01*
X84224914Y-80307421D02*
X85873183Y-76227812D01*
X91158132Y-78363069D02*
G75*
G03X93761712Y-77257915I749213J1854367D01*
G01*
X84224914Y-80307421D02*
X92847724Y-83791262D01*
D12*
X83739852Y-76670917D02*
X86094899Y-77622418D01*
X98105639Y-82475072D02*
X99057140Y-80120025D01*
X86094899Y-77622418D02*
X85143399Y-79977465D01*
X95866305Y-79584847D02*
G75*
G03X95866305Y-79584847I-1524000J0D01*
G01*
X99057140Y-80120025D02*
X96702093Y-79168524D01*
X82788352Y-79025964D02*
X83739852Y-76670917D01*
D11*
X92847725Y-83791262D02*
G75*
G03X96102200Y-82409819I936516J2317959D01*
G01*
D12*
X85143399Y-79977465D02*
X82788352Y-79025964D01*
D11*
X91158131Y-78363070D02*
X85873183Y-76227812D01*
D12*
X89027187Y-79561142D02*
G75*
G03X89027187Y-79561142I-1524000J0D01*
G01*
X95750592Y-81523571D02*
X98105639Y-82475072D01*
X96702093Y-79168524D02*
X95750592Y-81523571D01*
D13*
X97029384Y-82784426D02*
X96092868Y-85102385D01*
X96092868Y-85102385D02*
X93774908Y-84165869D01*
D11*
X47993137Y-99750530D02*
X44191683Y-98214643D01*
X46532171Y-103366547D02*
X47993137Y-99750530D01*
X34654885Y-101264149D02*
X36303154Y-97184540D01*
X41588103Y-99319797D02*
G75*
G03X44191683Y-98214643I749213J1854367D01*
G01*
X34654885Y-101264149D02*
X43277695Y-104747990D01*
D12*
X34169823Y-97627645D02*
X36524870Y-98579146D01*
X48535610Y-103431800D02*
X49487111Y-101076753D01*
X36524870Y-98579146D02*
X35573370Y-100934193D01*
X46296276Y-100541575D02*
G75*
G03X46296276Y-100541575I-1524000J0D01*
G01*
X49487111Y-101076753D02*
X47132064Y-100125252D01*
X33218323Y-99982692D02*
X34169823Y-97627645D01*
D11*
X43277696Y-104747990D02*
G75*
G03X46532171Y-103366547I936516J2317959D01*
G01*
D12*
X35573370Y-100934193D02*
X33218323Y-99982692D01*
D11*
X41588102Y-99319798D02*
X36303154Y-97184540D01*
D12*
X39457158Y-100517870D02*
G75*
G03X39457158Y-100517870I-1524000J0D01*
G01*
X46180563Y-102480299D02*
X48535610Y-103431800D01*
X47132064Y-100125252D02*
X46180563Y-102480299D01*
D13*
X47459355Y-103741154D02*
X46522839Y-106059113D01*
X46522839Y-106059113D02*
X44204879Y-105122597D01*
D11*
X104680691Y-61177308D02*
X100879237Y-59641421D01*
X103219725Y-64793325D02*
X104680691Y-61177308D01*
X91342439Y-62690927D02*
X92990708Y-58611318D01*
X98275657Y-60746575D02*
G75*
G03X100879237Y-59641421I749213J1854367D01*
G01*
X91342439Y-62690927D02*
X99965249Y-66174768D01*
D12*
X90857377Y-59054423D02*
X93212424Y-60005924D01*
X105223164Y-64858578D02*
X106174665Y-62503531D01*
X93212424Y-60005924D02*
X92260924Y-62360971D01*
X102983830Y-61968353D02*
G75*
G03X102983830Y-61968353I-1524000J0D01*
G01*
X106174665Y-62503531D02*
X103819618Y-61552030D01*
X89905877Y-61409470D02*
X90857377Y-59054423D01*
D11*
X99965250Y-66174768D02*
G75*
G03X103219725Y-64793325I936516J2317959D01*
G01*
D12*
X92260924Y-62360971D02*
X89905877Y-61409470D01*
D11*
X98275656Y-60746576D02*
X92990708Y-58611318D01*
D12*
X96144712Y-61944648D02*
G75*
G03X96144712Y-61944648I-1524000J0D01*
G01*
X102868117Y-63907077D02*
X105223164Y-64858578D01*
X103819618Y-61552030D02*
X102868117Y-63907077D01*
D13*
X104146909Y-65167932D02*
X103210393Y-67485891D01*
X103210393Y-67485891D02*
X100892433Y-66549375D01*
D11*
X67482664Y-102232136D02*
X63681210Y-100696249D01*
X66021698Y-105848153D02*
X67482664Y-102232136D01*
X54144412Y-103745755D02*
X55792681Y-99666146D01*
X61077630Y-101801403D02*
G75*
G03X63681210Y-100696249I749213J1854367D01*
G01*
X54144412Y-103745755D02*
X62767222Y-107229596D01*
D12*
X53659350Y-100109251D02*
X56014397Y-101060752D01*
X68025137Y-105913406D02*
X68976638Y-103558359D01*
X56014397Y-101060752D02*
X55062897Y-103415799D01*
X65785803Y-103023181D02*
G75*
G03X65785803Y-103023181I-1524000J0D01*
G01*
X68976638Y-103558359D02*
X66621591Y-102606858D01*
X52707850Y-102464298D02*
X53659350Y-100109251D01*
D11*
X62767223Y-107229596D02*
G75*
G03X66021698Y-105848153I936516J2317959D01*
G01*
D12*
X55062897Y-103415799D02*
X52707850Y-102464298D01*
D11*
X61077629Y-101801404D02*
X55792681Y-99666146D01*
D12*
X58946685Y-102999476D02*
G75*
G03X58946685Y-102999476I-1524000J0D01*
G01*
X65670090Y-104961905D02*
X68025137Y-105913406D01*
X66621591Y-102606858D02*
X65670090Y-104961905D01*
D13*
X66948882Y-106222760D02*
X66012366Y-108540719D01*
X66012366Y-108540719D02*
X63694406Y-107604203D01*
D10*
X101109189Y-143324277D02*
X103275723Y-140449189D01*
X110053907Y-150064605D02*
X101109189Y-143324277D01*
X112220441Y-147189517D02*
X110053907Y-150064605D01*
X103275723Y-140449189D02*
X112220441Y-147189517D01*
X182984277Y-140449189D02*
X185150811Y-143324277D01*
X174039559Y-147189517D02*
X182984277Y-140449189D01*
X176206093Y-150064605D02*
X174039559Y-147189517D01*
X185150811Y-143324277D02*
X176206093Y-150064605D01*
X99097741Y-66562580D02*
X97749157Y-69900442D01*
X88713282Y-62366986D02*
X99097741Y-66562580D01*
X87364698Y-65704848D02*
X88713282Y-62366986D01*
X97749157Y-69900442D02*
X87364698Y-65704848D01*
X115187159Y-32078807D02*
X113838575Y-35416669D01*
X104802700Y-27883213D02*
X115187159Y-32078807D01*
X103454116Y-31221075D02*
X104802700Y-27883213D01*
X113838575Y-35416669D02*
X103454116Y-31221075D01*
X31185361Y-89926777D02*
X34523223Y-91275361D01*
X26989767Y-100311236D02*
X31185361Y-89926777D01*
X30327629Y-101659820D02*
X26989767Y-100311236D01*
X34523223Y-91275361D02*
X30327629Y-101659820D01*
X91980215Y-84179073D02*
X90631631Y-87516935D01*
X81595756Y-79983479D02*
X91980215Y-84179073D01*
X80247172Y-83321341D02*
X81595756Y-79983479D01*
X90631631Y-87516935D02*
X80247172Y-83321341D01*
X106215266Y-48946087D02*
X104866682Y-52283949D01*
X95830807Y-44750493D02*
X106215266Y-48946087D01*
X94482223Y-48088355D02*
X95830807Y-44750493D01*
X104866682Y-52283949D02*
X94482223Y-48088355D01*
X181606183Y-52282524D02*
X180257599Y-48944662D01*
X191990642Y-48086930D02*
X181606183Y-52282524D01*
X190642058Y-44749068D02*
X191990642Y-48086930D01*
X180257599Y-48944662D02*
X190642058Y-44749068D01*
X162830000Y-136327500D02*
X162830000Y-139687500D01*
X164730000Y-136327500D02*
X162830000Y-136327500D01*
X164730000Y-139687500D02*
X164730000Y-136327500D01*
X162830000Y-139687500D02*
X164730000Y-139687500D01*
X135000000Y-104800000D02*
X135000000Y-101200000D01*
X141150000Y-104800000D02*
X135000000Y-104800000D01*
X141150000Y-101200000D02*
X141150000Y-104800000D01*
X135000000Y-101200000D02*
X141150000Y-101200000D01*
X188723708Y-69899017D02*
X187375124Y-66561155D01*
X199108167Y-65703423D02*
X188723708Y-69899017D01*
X197759583Y-62365561D02*
X199108167Y-65703423D01*
X187375124Y-66561155D02*
X197759583Y-62365561D01*
X162730000Y-139700000D02*
X162730000Y-136340000D01*
X160830000Y-139700000D02*
X162730000Y-139700000D01*
X160830000Y-136340000D02*
X160830000Y-139700000D01*
X162730000Y-136340000D02*
X160830000Y-136340000D01*
X195841233Y-87515510D02*
X194492649Y-84177648D01*
X206225692Y-83319916D02*
X195841233Y-87515510D01*
X204877108Y-79982054D02*
X206225692Y-83319916D01*
X194492649Y-84177648D02*
X204877108Y-79982054D01*
X259411676Y-100119367D02*
X256073814Y-101467951D01*
X255216082Y-89734908D02*
X259411676Y-100119367D01*
X251878220Y-91083492D02*
X255216082Y-89734908D01*
X256073814Y-101467951D02*
X251878220Y-91083492D01*
X172634290Y-35415244D02*
X171285706Y-32077382D01*
X183018749Y-31219650D02*
X172634290Y-35415244D01*
X181670165Y-27881788D02*
X183018749Y-31219650D01*
X171285706Y-32077382D02*
X181670165Y-27881788D01*
M02*
