%FSLAX45Y45*%
G04 Gerber Fmt 4.5, Leading zero omitted, Abs format (unit mm)*
G04 Created by KiCad (PCBNEW (5.1.4)-1) date 2025-05-28 14:21:53*
%MOMM*%
%LPD*%
G04 APERTURE LIST*
%ADD10C,0.050000*%
%ADD11C,0.200000*%
%ADD12C,0.300000*%
G04 APERTURE END LIST*
D10*
X15560000Y-12440000D02*
X16060000Y-12440000D01*
X18924096Y-4562013D02*
X18089630Y-4899159D01*
X15560000Y-11090000D02*
G75*
G02X15560000Y-10990000I0J50000D01*
G01*
X10535540Y-6992960D02*
G75*
G03X10535540Y-6992960I-160000J0D01*
G01*
X18435540Y-6992960D02*
G75*
G03X18435540Y-6992960I-160000J0D01*
G01*
X18089630Y-4899159D02*
G75*
G02X18052170Y-4806441I-18730J46359D01*
G01*
X18052170Y-4806441D02*
X18886635Y-4469295D01*
X18886635Y-4469295D02*
G75*
G02X18924096Y-4562013I18730J-46359D01*
G01*
X16060000Y-10990000D02*
G75*
G02X16060000Y-11090000I0J-50000D01*
G01*
X15560000Y-12440000D02*
G75*
G02X15560000Y-12340000I0J50000D01*
G01*
X16060000Y-12340000D02*
G75*
G02X16060000Y-12440000I0J-50000D01*
G01*
X8755540Y-11152960D02*
G75*
G03X8755540Y-11152960I-160000J0D01*
G01*
X20215540Y-11152960D02*
G75*
G03X20215540Y-11152960I-160000J0D01*
G01*
X15560000Y-11090000D02*
X16060000Y-11090000D01*
X16060000Y-10990000D02*
X15560000Y-10990000D01*
X16060000Y-12340000D02*
X15560000Y-12340000D01*
X9740673Y-4449192D02*
X11038730Y-4973641D01*
X11470673Y-5049192D02*
G75*
G03X11433212Y-5141910I-18730J-46359D01*
G01*
X17169327Y-5059192D02*
X15871270Y-5583641D01*
X15908730Y-5676359D02*
X17206788Y-5151910D01*
X11470673Y-5049192D02*
X12768730Y-5573641D01*
X15908730Y-5676359D02*
G75*
G02X15871270Y-5583641I-18730J46359D01*
G01*
X7743840Y-10128860D02*
G75*
G03X7743840Y-10128860I-150000J0D01*
G01*
X21202280Y-10116160D02*
G75*
G03X21202280Y-10116160I-150000J0D01*
G01*
X11001270Y-5066359D02*
G75*
G03X11038730Y-4973641I18730J46359D01*
G01*
X17169327Y-5059192D02*
G75*
G02X17206788Y-5151910I18730J-46359D01*
G01*
X11001270Y-5066359D02*
X9703212Y-4541910D01*
X9740673Y-4449192D02*
G75*
G03X9703212Y-4541910I-18730J-46359D01*
G01*
X17937240Y-12321540D02*
G75*
G03X17937240Y-12321540I-150000J0D01*
G01*
X12731270Y-5666359D02*
G75*
G03X12768730Y-5573641I18730J46359D01*
G01*
X11016500Y-12379960D02*
G75*
G03X11016500Y-12379960I-150000J0D01*
G01*
X12731270Y-5666359D02*
X11433212Y-5141910D01*
X13692000Y-6712000D02*
X14953000Y-6712000D01*
X13472327Y-6492000D02*
X13692000Y-6712000D01*
X5949837Y-9025997D02*
X5298941Y-9302285D01*
X10461472Y-2824517D02*
X10083952Y-2984764D01*
X3143855Y-9057124D02*
X3113887Y-9131299D01*
X7312797Y-9576668D02*
X7446722Y-9512139D01*
X7312797Y-9576668D02*
X5949837Y-9025997D01*
X15173000Y-6492000D02*
X14953000Y-6712000D01*
X4056515Y-8800312D02*
X3143855Y-9057124D01*
X5298941Y-9302285D02*
X4056515Y-8800312D01*
X10083952Y-2984764D02*
X7446722Y-9512139D01*
X25501471Y-9057124D02*
X25531440Y-9131299D01*
X25872332Y-9975036D02*
X25806023Y-10131251D01*
X13472327Y-4092000D02*
X13152327Y-3912000D01*
X3113887Y-9131299D02*
X2772995Y-9975036D01*
X18183855Y-2824517D02*
X15493000Y-3912000D01*
X2839304Y-10131251D02*
X6594399Y-11648408D01*
X6594399Y-11648408D02*
X11019145Y-14978426D01*
X25806023Y-10131251D02*
X22050928Y-11648408D01*
X23346385Y-9302285D02*
X24588812Y-8800312D01*
X13472327Y-4092000D02*
X13472327Y-6492000D01*
X15173000Y-4092000D02*
X15493000Y-3912000D01*
X2772995Y-9975036D02*
X2839304Y-10131251D01*
X21332530Y-9576668D02*
X21198605Y-9512139D01*
X10461472Y-2824517D02*
X13152327Y-3912000D01*
X21332530Y-9576668D02*
X22695490Y-9025997D01*
X22695490Y-9025997D02*
X23346385Y-9302285D01*
X18561374Y-2984764D02*
X21198605Y-9512139D01*
X25531440Y-9131299D02*
X25872332Y-9975036D01*
X18183855Y-2824517D02*
X18561374Y-2984764D01*
X11019145Y-14978426D02*
X17626182Y-14978426D01*
X24588812Y-8800312D02*
X25501471Y-9057124D01*
X15173000Y-4092000D02*
X15173000Y-6492000D01*
X22050928Y-11648408D02*
X17626182Y-14978426D01*
D11*
X23830141Y-9796268D02*
X24000321Y-9966448D01*
X24000321Y-9796268D02*
X23830141Y-9966448D01*
X24850043Y-9384201D02*
X25020223Y-9554381D01*
X25020223Y-9384201D02*
X24850043Y-9554381D01*
X9292835Y-5527482D02*
X9463015Y-5697662D01*
X9463015Y-5527482D02*
X9292835Y-5697662D01*
X10312737Y-5939549D02*
X10482917Y-6109729D01*
X10482917Y-5939549D02*
X10312737Y-6109729D01*
X11793498Y-4380746D02*
X11963678Y-4550926D01*
X11963678Y-4380746D02*
X11793498Y-4550926D01*
X12813400Y-4792813D02*
X12983580Y-4962993D01*
X12983580Y-4792813D02*
X12813400Y-4962993D01*
X17084227Y-8315508D02*
X17254407Y-8485688D01*
X17254407Y-8315508D02*
X17084227Y-8485688D01*
X18104129Y-7903441D02*
X18274309Y-8073621D01*
X18274309Y-7903441D02*
X18104129Y-8073621D01*
X17459832Y-4173175D02*
X17630012Y-4343356D01*
X17630012Y-4173175D02*
X17459832Y-4343356D01*
X18479734Y-3761108D02*
X18649914Y-3931288D01*
X18649914Y-3761108D02*
X18479734Y-3931288D01*
X18171585Y-5934825D02*
X18341765Y-6105005D01*
X18341765Y-5934825D02*
X18171585Y-6105005D01*
X19191487Y-5522758D02*
X19361667Y-5692938D01*
X19361667Y-5522758D02*
X19191487Y-5692938D01*
X16372475Y-6553859D02*
X16542655Y-6724039D01*
X16542655Y-6553859D02*
X16372475Y-6724039D01*
X17392377Y-6141792D02*
X17562557Y-6311972D01*
X17562557Y-6141792D02*
X17392377Y-6311972D01*
X9658241Y-9665694D02*
X9828421Y-9835874D01*
X9828421Y-9665694D02*
X9658241Y-9835874D01*
X10678143Y-10077761D02*
X10848323Y-10247941D01*
X10848323Y-10077761D02*
X10678143Y-10247941D01*
X15660722Y-4792210D02*
X15830902Y-4962390D01*
X15830902Y-4792210D02*
X15660722Y-4962390D01*
X16680624Y-4380142D02*
X16850804Y-4550322D01*
X16850804Y-4380142D02*
X16680624Y-4550322D01*
X7859131Y-9046660D02*
X8029311Y-9216840D01*
X8029311Y-9046660D02*
X7859131Y-9216840D01*
X8879033Y-9458727D02*
X9049213Y-9628907D01*
X9049213Y-9458727D02*
X8879033Y-9628907D01*
X10369993Y-7904045D02*
X10540173Y-8074225D01*
X10540173Y-7904045D02*
X10369993Y-8074225D01*
X11389895Y-8316112D02*
X11560075Y-8486292D01*
X11560075Y-8316112D02*
X11389895Y-8486292D01*
X5573032Y-9632965D02*
X5743212Y-9803145D01*
X5743212Y-9632965D02*
X5573032Y-9803145D01*
X6592934Y-10045032D02*
X6763114Y-10215212D01*
X6763114Y-10045032D02*
X6592934Y-10215212D01*
X19595090Y-9458123D02*
X19765270Y-9628303D01*
X19765270Y-9458123D02*
X19595090Y-9628303D01*
X20614992Y-9046056D02*
X20785172Y-9216236D01*
X20785172Y-9046056D02*
X20614992Y-9216236D01*
X21881188Y-10044428D02*
X22051368Y-10214608D01*
X22051368Y-10044428D02*
X21881188Y-10214608D01*
X22901090Y-9632361D02*
X23071270Y-9802541D01*
X23071270Y-9632361D02*
X22901090Y-9802541D01*
X10004587Y-3765833D02*
X10174767Y-3936013D01*
X10174767Y-3765833D02*
X10004587Y-3936013D01*
X11024490Y-4177900D02*
X11194670Y-4348080D01*
X11194670Y-4177900D02*
X11024490Y-4348080D01*
X8581082Y-7289131D02*
X8751262Y-7459311D01*
X8751262Y-7289131D02*
X8581082Y-7459311D01*
X9600985Y-7701198D02*
X9771165Y-7871378D01*
X9771165Y-7701198D02*
X9600985Y-7871378D01*
X11081746Y-6142395D02*
X11251926Y-6312575D01*
X11251926Y-6142395D02*
X11081746Y-6312575D01*
X12101648Y-6554463D02*
X12271828Y-6724643D01*
X12271828Y-6554463D02*
X12101648Y-6724643D01*
X3624079Y-9384804D02*
X3794259Y-9554984D01*
X3794259Y-9384804D02*
X3624079Y-9554984D01*
X4643982Y-9796871D02*
X4814162Y-9967051D01*
X4814162Y-9796871D02*
X4643982Y-9967051D01*
X17795980Y-10077158D02*
X17966160Y-10247338D01*
X17966160Y-10077158D02*
X17795980Y-10247338D01*
X18815882Y-9665090D02*
X18986062Y-9835270D01*
X18986062Y-9665090D02*
X18815882Y-9835270D01*
X18883337Y-7696474D02*
X19053517Y-7866654D01*
X19053517Y-7696474D02*
X18883337Y-7866654D01*
X19903239Y-7284407D02*
X20073419Y-7454587D01*
X20073419Y-7284407D02*
X19903239Y-7454587D01*
X11293277Y-6243219D02*
G75*
G03X11293277Y-6243219I-87500J0D01*
G01*
X12235296Y-6623819D02*
G75*
G03X12235296Y-6623819I-87500J0D01*
G01*
X3835611Y-9485628D02*
G75*
G03X3835611Y-9485628I-87500J0D01*
G01*
X4777630Y-9866228D02*
G75*
G03X4777630Y-9866228I-87500J0D01*
G01*
X18007512Y-10146514D02*
G75*
G03X18007512Y-10146514I-87500J0D01*
G01*
X18949530Y-9765914D02*
G75*
G03X18949530Y-9765914I-87500J0D01*
G01*
X19094869Y-7765831D02*
G75*
G03X19094869Y-7765831I-87500J0D01*
G01*
X20036888Y-7385230D02*
G75*
G03X20036888Y-7385230I-87500J0D01*
G01*
X24041673Y-9865624D02*
G75*
G03X24041673Y-9865624I-87500J0D01*
G01*
X24983691Y-9485024D02*
G75*
G03X24983691Y-9485024I-87500J0D01*
G01*
X9504367Y-5628305D02*
G75*
G03X9504367Y-5628305I-87500J0D01*
G01*
X10446385Y-6008906D02*
G75*
G03X10446385Y-6008906I-87500J0D01*
G01*
X12005030Y-4481570D02*
G75*
G03X12005030Y-4481570I-87500J0D01*
G01*
X12947049Y-4862170D02*
G75*
G03X12947049Y-4862170I-87500J0D01*
G01*
X17295759Y-8384865D02*
G75*
G03X17295759Y-8384865I-87500J0D01*
G01*
X18237778Y-8004264D02*
G75*
G03X18237778Y-8004264I-87500J0D01*
G01*
X17671364Y-4242532D02*
G75*
G03X17671364Y-4242532I-87500J0D01*
G01*
X18613383Y-3861932D02*
G75*
G03X18613383Y-3861932I-87500J0D01*
G01*
X18383116Y-6004181D02*
G75*
G03X18383116Y-6004181I-87500J0D01*
G01*
X19325135Y-5623581D02*
G75*
G03X19325135Y-5623581I-87500J0D01*
G01*
X16584006Y-6623215D02*
G75*
G03X16584006Y-6623215I-87500J0D01*
G01*
X17526025Y-6242615D02*
G75*
G03X17526025Y-6242615I-87500J0D01*
G01*
X9869772Y-9766518D02*
G75*
G03X9869772Y-9766518I-87500J0D01*
G01*
X10811791Y-10147118D02*
G75*
G03X10811791Y-10147118I-87500J0D01*
G01*
X15872254Y-4861566D02*
G75*
G03X15872254Y-4861566I-87500J0D01*
G01*
X16814273Y-4480966D02*
G75*
G03X16814273Y-4480966I-87500J0D01*
G01*
X8070662Y-9147483D02*
G75*
G03X8070662Y-9147483I-87500J0D01*
G01*
X9012681Y-9528084D02*
G75*
G03X9012681Y-9528084I-87500J0D01*
G01*
X10581525Y-8004868D02*
G75*
G03X10581525Y-8004868I-87500J0D01*
G01*
X11523544Y-8385468D02*
G75*
G03X11523544Y-8385468I-87500J0D01*
G01*
X5784564Y-9733788D02*
G75*
G03X5784564Y-9733788I-87500J0D01*
G01*
X6726583Y-10114388D02*
G75*
G03X6726583Y-10114388I-87500J0D01*
G01*
X19806622Y-9527480D02*
G75*
G03X19806622Y-9527480I-87500J0D01*
G01*
X20748640Y-9146880D02*
G75*
G03X20748640Y-9146880I-87500J0D01*
G01*
X22092720Y-10113785D02*
G75*
G03X22092720Y-10113785I-87500J0D01*
G01*
X23034739Y-9733185D02*
G75*
G03X23034739Y-9733185I-87500J0D01*
G01*
X10216119Y-3866656D02*
G75*
G03X10216119Y-3866656I-87500J0D01*
G01*
X11158138Y-4247256D02*
G75*
G03X11158138Y-4247256I-87500J0D01*
G01*
X8792614Y-7389955D02*
G75*
G03X8792614Y-7389955I-87500J0D01*
G01*
X9734633Y-7770555D02*
G75*
G03X9734633Y-7770555I-87500J0D01*
G01*
X11250982Y-6659378D02*
X11250982Y-6959378D01*
X11100982Y-6809378D02*
X11400982Y-6809378D01*
X11899678Y-5731845D02*
X11899678Y-6031845D01*
X11749678Y-5881845D02*
X12049678Y-5881845D01*
X11934894Y-6661749D02*
X11934894Y-6961749D01*
X11784894Y-6811749D02*
X12084894Y-6811749D01*
X12280856Y-6123128D02*
X12280856Y-6423128D01*
X12130856Y-6273128D02*
X12430856Y-6273128D01*
X3793316Y-9901787D02*
X3793316Y-10201787D01*
X3643316Y-10051787D02*
X3943316Y-10051787D01*
X4442012Y-8974253D02*
X4442012Y-9274253D01*
X4292012Y-9124253D02*
X4592012Y-9124253D01*
X4477228Y-9904158D02*
X4477228Y-10204158D01*
X4327228Y-10054158D02*
X4627228Y-10054158D01*
X4823190Y-9365537D02*
X4823190Y-9665537D01*
X4673190Y-9515537D02*
X4973190Y-9515537D01*
X17942614Y-9713434D02*
X17942614Y-10013434D01*
X17792614Y-9863434D02*
X18092614Y-9863434D01*
X18067906Y-10341211D02*
X18067906Y-10641211D01*
X17917906Y-10491211D02*
X18217906Y-10491211D01*
X18436225Y-9240055D02*
X18436225Y-9540055D01*
X18286225Y-9390055D02*
X18586225Y-9390055D01*
X18613912Y-10357888D02*
X18613912Y-10657888D01*
X18463912Y-10507888D02*
X18763912Y-10507888D01*
X19029971Y-7332751D02*
X19029971Y-7632751D01*
X18879971Y-7482751D02*
X19179971Y-7482751D01*
X19155264Y-7960528D02*
X19155264Y-8260528D01*
X19005264Y-8110528D02*
X19305264Y-8110528D01*
X19523583Y-6859371D02*
X19523583Y-7159371D01*
X19373583Y-7009371D02*
X19673583Y-7009371D01*
X19701269Y-7977205D02*
X19701269Y-8277205D01*
X19551269Y-8127205D02*
X19851269Y-8127205D01*
X23976775Y-9432545D02*
X23976775Y-9732545D01*
X23826775Y-9582545D02*
X24126775Y-9582545D01*
X24102067Y-10060321D02*
X24102067Y-10360321D01*
X23952067Y-10210321D02*
X24252067Y-10210321D01*
X24470386Y-8959165D02*
X24470386Y-9259165D01*
X24320386Y-9109165D02*
X24620386Y-9109165D01*
X24648073Y-10076999D02*
X24648073Y-10376999D01*
X24498073Y-10226999D02*
X24798073Y-10226999D01*
X9462071Y-6044465D02*
X9462071Y-6344465D01*
X9312071Y-6194465D02*
X9612071Y-6194465D01*
X10110767Y-5116931D02*
X10110767Y-5416931D01*
X9960767Y-5266931D02*
X10260767Y-5266931D01*
X10145983Y-6046835D02*
X10145983Y-6346835D01*
X9995983Y-6196835D02*
X10295983Y-6196835D01*
X10491945Y-5508215D02*
X10491945Y-5808215D01*
X10341945Y-5658215D02*
X10641945Y-5658215D01*
X11962735Y-4897729D02*
X11962735Y-5197729D01*
X11812735Y-5047729D02*
X12112735Y-5047729D01*
X12611430Y-3970195D02*
X12611430Y-4270195D01*
X12461430Y-4120195D02*
X12761430Y-4120195D01*
X12646646Y-4900099D02*
X12646646Y-5200099D01*
X12496646Y-5050099D02*
X12796646Y-5050099D01*
X12992609Y-4361479D02*
X12992609Y-4661479D01*
X12842609Y-4511479D02*
X13142609Y-4511479D01*
X17230861Y-7951785D02*
X17230861Y-8251785D01*
X17080861Y-8101785D02*
X17380861Y-8101785D01*
X17356154Y-8579562D02*
X17356154Y-8879562D01*
X17206154Y-8729562D02*
X17506154Y-8729562D01*
X17724473Y-7478405D02*
X17724473Y-7778405D01*
X17574473Y-7628405D02*
X17874473Y-7628405D01*
X17902159Y-8596239D02*
X17902159Y-8896239D01*
X17752159Y-8746239D02*
X18052159Y-8746239D01*
X17606466Y-3809452D02*
X17606466Y-4109452D01*
X17456466Y-3959452D02*
X17756466Y-3959452D01*
X17731759Y-4437229D02*
X17731759Y-4737229D01*
X17581759Y-4587229D02*
X17881759Y-4587229D01*
X18100078Y-3336072D02*
X18100078Y-3636072D01*
X17950078Y-3486072D02*
X18250078Y-3486072D01*
X18277764Y-4453906D02*
X18277764Y-4753906D01*
X18127764Y-4603906D02*
X18427764Y-4603906D01*
X18318219Y-5571102D02*
X18318219Y-5871102D01*
X18168219Y-5721102D02*
X18468219Y-5721102D01*
X18443511Y-6198878D02*
X18443511Y-6498878D01*
X18293511Y-6348878D02*
X18593511Y-6348878D01*
X18811830Y-5097722D02*
X18811830Y-5397722D01*
X18661830Y-5247722D02*
X18961830Y-5247722D01*
X18989517Y-6215556D02*
X18989517Y-6515556D01*
X18839517Y-6365556D02*
X19139517Y-6365556D01*
X16519109Y-6190136D02*
X16519109Y-6490136D01*
X16369109Y-6340136D02*
X16669109Y-6340136D01*
X16644401Y-6817912D02*
X16644401Y-7117912D01*
X16494401Y-6967912D02*
X16794401Y-6967912D01*
X17012720Y-5716756D02*
X17012720Y-6016756D01*
X16862720Y-5866756D02*
X17162720Y-5866756D01*
X17190407Y-6834590D02*
X17190407Y-7134590D01*
X17040407Y-6984590D02*
X17340407Y-6984590D01*
X9827477Y-10182677D02*
X9827477Y-10482677D01*
X9677477Y-10332677D02*
X9977477Y-10332677D01*
X10476173Y-9255143D02*
X10476173Y-9555143D01*
X10326173Y-9405143D02*
X10626173Y-9405143D01*
X10511389Y-10185047D02*
X10511389Y-10485047D01*
X10361389Y-10335047D02*
X10661389Y-10335047D01*
X10857351Y-9646427D02*
X10857351Y-9946427D01*
X10707351Y-9796427D02*
X11007351Y-9796427D01*
X15807356Y-4428486D02*
X15807356Y-4728486D01*
X15657356Y-4578486D02*
X15957356Y-4578486D01*
X15932649Y-5056263D02*
X15932649Y-5356263D01*
X15782649Y-5206263D02*
X16082649Y-5206263D01*
X16300968Y-3955106D02*
X16300968Y-4255107D01*
X16150968Y-4105106D02*
X16450968Y-4105106D01*
X16478654Y-5072940D02*
X16478654Y-5372940D01*
X16328654Y-5222940D02*
X16628654Y-5222940D01*
X8028367Y-9563643D02*
X8028367Y-9863643D01*
X7878367Y-9713643D02*
X8178367Y-9713643D01*
X8677063Y-8636109D02*
X8677063Y-8936109D01*
X8527063Y-8786109D02*
X8827063Y-8786109D01*
X8712279Y-9566013D02*
X8712279Y-9866013D01*
X8562279Y-9716013D02*
X8862279Y-9716013D01*
X9058241Y-9027393D02*
X9058241Y-9327393D01*
X8908241Y-9177393D02*
X9208241Y-9177393D01*
X10539230Y-8421028D02*
X10539230Y-8721028D01*
X10389230Y-8571028D02*
X10689230Y-8571028D01*
X11187925Y-7493494D02*
X11187925Y-7793494D01*
X11037925Y-7643494D02*
X11337925Y-7643494D01*
X11223141Y-8423398D02*
X11223141Y-8723398D01*
X11073141Y-8573398D02*
X11373141Y-8573398D01*
X11569104Y-7884778D02*
X11569104Y-8184778D01*
X11419104Y-8034778D02*
X11719104Y-8034778D01*
X5742268Y-10149948D02*
X5742268Y-10449948D01*
X5592269Y-10299948D02*
X5892268Y-10299948D01*
X6390964Y-9222414D02*
X6390964Y-9522414D01*
X6240964Y-9372414D02*
X6540964Y-9372414D01*
X6426180Y-10152318D02*
X6426180Y-10452318D01*
X6276180Y-10302318D02*
X6576180Y-10302318D01*
X6772143Y-9613698D02*
X6772143Y-9913698D01*
X6622143Y-9763698D02*
X6922143Y-9763698D01*
X19741724Y-9094400D02*
X19741724Y-9394400D01*
X19591724Y-9244400D02*
X19891724Y-9244400D01*
X19867016Y-9722177D02*
X19867016Y-10022177D01*
X19717016Y-9872177D02*
X20017016Y-9872177D01*
X20235335Y-8621020D02*
X20235335Y-8921020D01*
X20085335Y-8771020D02*
X20385335Y-8771020D01*
X20413022Y-9738854D02*
X20413022Y-10038854D01*
X20263022Y-9888854D02*
X20563022Y-9888854D01*
X22027822Y-9680705D02*
X22027822Y-9980705D01*
X21877822Y-9830705D02*
X22177822Y-9830705D01*
X22153115Y-10308482D02*
X22153115Y-10608482D01*
X22003115Y-10458482D02*
X22303115Y-10458482D01*
X22521434Y-9207325D02*
X22521434Y-9507325D01*
X22371434Y-9357325D02*
X22671434Y-9357325D01*
X22699120Y-10325159D02*
X22699120Y-10625159D01*
X22549120Y-10475159D02*
X22849120Y-10475159D01*
X10173824Y-4282816D02*
X10173824Y-4582816D01*
X10023824Y-4432816D02*
X10323824Y-4432816D01*
X10822519Y-3355282D02*
X10822519Y-3655282D01*
X10672519Y-3505282D02*
X10972519Y-3505282D01*
X10857736Y-4285186D02*
X10857736Y-4585186D01*
X10707736Y-4435186D02*
X11007736Y-4435186D01*
X11203698Y-3746566D02*
X11203698Y-4046566D01*
X11053698Y-3896566D02*
X11353698Y-3896566D01*
X8750319Y-7806114D02*
X8750319Y-8106114D01*
X8600319Y-7956114D02*
X8900319Y-7956114D01*
X9399014Y-6878580D02*
X9399014Y-7178580D01*
X9249014Y-7028580D02*
X9549014Y-7028580D01*
X9434231Y-7808485D02*
X9434231Y-8108485D01*
X9284231Y-7958485D02*
X9584231Y-7958485D01*
X9780193Y-7269864D02*
X9780193Y-7569864D01*
X9630193Y-7419864D02*
X9930193Y-7419864D01*
X11817778Y-6574510D02*
X11817778Y-6292528D01*
X11535795Y-6292528D01*
X11535795Y-6574510D01*
X11817778Y-6574510D01*
X4360112Y-9816919D02*
X4360112Y-9534936D01*
X4078129Y-9534936D01*
X4078129Y-9816919D01*
X4360112Y-9816919D01*
X18532012Y-10097205D02*
X18532012Y-9815223D01*
X18250030Y-9815223D01*
X18250030Y-10097205D01*
X18532012Y-10097205D01*
X19619370Y-7716522D02*
X19619370Y-7434539D01*
X19337387Y-7434539D01*
X19337387Y-7716522D01*
X19619370Y-7716522D01*
X24566173Y-9816316D02*
X24566173Y-9534333D01*
X24284191Y-9534333D01*
X24284191Y-9816316D01*
X24566173Y-9816316D01*
X10028867Y-5959597D02*
X10028867Y-5677614D01*
X9746885Y-5677614D01*
X9746885Y-5959597D01*
X10028867Y-5959597D01*
X12529531Y-4812861D02*
X12529531Y-4530878D01*
X12247548Y-4530878D01*
X12247548Y-4812861D01*
X12529531Y-4812861D01*
X17820260Y-8335556D02*
X17820260Y-8053573D01*
X17538277Y-8053573D01*
X17538277Y-8335556D01*
X17820260Y-8335556D01*
X18195865Y-4193223D02*
X18195865Y-3911240D01*
X17913882Y-3911240D01*
X17913882Y-4193223D01*
X18195865Y-4193223D01*
X18907617Y-5954873D02*
X18907617Y-5672890D01*
X18625634Y-5672890D01*
X18625634Y-5954873D01*
X18907617Y-5954873D01*
X17108507Y-6573907D02*
X17108507Y-6291924D01*
X16826524Y-6291924D01*
X16826524Y-6573907D01*
X17108507Y-6573907D01*
X10394273Y-10097809D02*
X10394273Y-9815826D01*
X10112290Y-9815826D01*
X10112290Y-10097809D01*
X10394273Y-10097809D01*
X16396755Y-4812257D02*
X16396755Y-4530275D01*
X16114772Y-4530275D01*
X16114772Y-4812257D01*
X16396755Y-4812257D01*
X8595163Y-9478775D02*
X8595163Y-9196792D01*
X8313180Y-9196792D01*
X8313180Y-9478775D01*
X8595163Y-9478775D01*
X11106026Y-8336160D02*
X11106026Y-8054177D01*
X10824043Y-8054177D01*
X10824043Y-8336160D01*
X11106026Y-8336160D01*
X6309065Y-10065080D02*
X6309065Y-9783097D01*
X6027082Y-9783097D01*
X6027082Y-10065080D01*
X6309065Y-10065080D01*
X20331122Y-9478171D02*
X20331122Y-9196188D01*
X20049140Y-9196188D01*
X20049140Y-9478171D01*
X20331122Y-9478171D01*
X22617221Y-10064476D02*
X22617221Y-9782493D01*
X22335238Y-9782493D01*
X22335238Y-10064476D01*
X22617221Y-10064476D01*
X10740620Y-4197948D02*
X10740620Y-3915965D01*
X10458637Y-3915965D01*
X10458637Y-4197948D01*
X10740620Y-4197948D01*
X9317115Y-7721246D02*
X9317115Y-7439263D01*
X9035132Y-7439263D01*
X9035132Y-7721246D01*
X9317115Y-7721246D01*
X20190131Y-9584680D02*
X20437631Y-9337180D01*
X20190131Y-9089680D01*
X19942631Y-9337180D01*
X20190131Y-9584680D01*
X22476229Y-10170985D02*
X22723729Y-9923485D01*
X22476229Y-9675985D01*
X22228729Y-9923485D01*
X22476229Y-10170985D01*
X10599629Y-4304456D02*
X10847129Y-4056956D01*
X10599629Y-3809456D01*
X10352129Y-4056956D01*
X10599629Y-4304456D01*
X9176124Y-7827755D02*
X9423624Y-7580255D01*
X9176124Y-7332755D01*
X8928624Y-7580255D01*
X9176124Y-7827755D01*
X11676787Y-6681019D02*
X11924287Y-6433519D01*
X11676787Y-6186019D01*
X11429287Y-6433519D01*
X11676787Y-6681019D01*
X4219121Y-9923428D02*
X4466621Y-9675928D01*
X4219121Y-9428428D01*
X3971621Y-9675928D01*
X4219121Y-9923428D01*
X18391021Y-10203714D02*
X18638521Y-9956214D01*
X18391021Y-9708714D01*
X18143521Y-9956214D01*
X18391021Y-10203714D01*
X19478378Y-7823030D02*
X19725878Y-7575530D01*
X19478378Y-7328030D01*
X19230878Y-7575530D01*
X19478378Y-7823030D01*
X24425182Y-9922824D02*
X24672682Y-9675324D01*
X24425182Y-9427824D01*
X24177682Y-9675324D01*
X24425182Y-9922824D01*
X9887876Y-6066105D02*
X10135376Y-5818605D01*
X9887876Y-5571106D01*
X9640376Y-5818605D01*
X9887876Y-6066105D01*
X12388539Y-4919370D02*
X12636039Y-4671870D01*
X12388539Y-4424370D01*
X12141039Y-4671870D01*
X12388539Y-4919370D01*
X17679268Y-8442065D02*
X17926768Y-8194565D01*
X17679268Y-7947065D01*
X17431768Y-8194565D01*
X17679268Y-8442065D01*
X18054873Y-4299732D02*
X18302373Y-4052232D01*
X18054873Y-3804732D01*
X17807373Y-4052232D01*
X18054873Y-4299732D01*
X18766626Y-6061381D02*
X19014126Y-5813881D01*
X18766626Y-5566381D01*
X18519126Y-5813881D01*
X18766626Y-6061381D01*
X16967516Y-6680415D02*
X17215016Y-6432915D01*
X16967516Y-6185415D01*
X16720016Y-6432915D01*
X16967516Y-6680415D01*
X10253282Y-10204318D02*
X10500782Y-9956818D01*
X10253282Y-9709318D01*
X10005782Y-9956818D01*
X10253282Y-10204318D01*
X16255763Y-4918766D02*
X16503263Y-4671266D01*
X16255763Y-4423766D01*
X16008263Y-4671266D01*
X16255763Y-4918766D01*
X8454172Y-9585284D02*
X8701672Y-9337784D01*
X8454172Y-9090284D01*
X8206672Y-9337784D01*
X8454172Y-9585284D01*
X10965034Y-8442668D02*
X11212534Y-8195168D01*
X10965034Y-7947668D01*
X10717534Y-8195168D01*
X10965034Y-8442668D01*
X6168073Y-10171588D02*
X6415573Y-9924088D01*
X6168073Y-9676588D01*
X5920573Y-9924088D01*
X6168073Y-10171588D01*
D12*
X3056923Y-15446640D02*
X3056923Y-15146640D01*
X3128352Y-15146640D01*
X3171209Y-15160926D01*
X3199780Y-15189497D01*
X3214066Y-15218069D01*
X3228352Y-15275212D01*
X3228352Y-15318069D01*
X3214066Y-15375212D01*
X3199780Y-15403783D01*
X3171209Y-15432354D01*
X3128352Y-15446640D01*
X3056923Y-15446640D01*
X3356923Y-15446640D02*
X3356923Y-15246640D01*
X3356923Y-15303783D02*
X3371209Y-15275212D01*
X3385495Y-15260926D01*
X3414066Y-15246640D01*
X3442637Y-15246640D01*
X3542637Y-15446640D02*
X3542637Y-15246640D01*
X3542637Y-15146640D02*
X3528352Y-15160926D01*
X3542637Y-15175212D01*
X3556923Y-15160926D01*
X3542637Y-15146640D01*
X3542637Y-15175212D01*
X3728352Y-15446640D02*
X3699780Y-15432354D01*
X3685495Y-15403783D01*
X3685495Y-15146640D01*
X3885495Y-15446640D02*
X3856923Y-15432354D01*
X3842637Y-15403783D01*
X3842637Y-15146640D01*
X4228352Y-15446640D02*
X4228352Y-15146640D01*
X4328352Y-15360926D01*
X4428352Y-15146640D01*
X4428352Y-15446640D01*
X4699780Y-15446640D02*
X4699780Y-15289497D01*
X4685495Y-15260926D01*
X4656923Y-15246640D01*
X4599780Y-15246640D01*
X4571209Y-15260926D01*
X4699780Y-15432354D02*
X4671209Y-15446640D01*
X4599780Y-15446640D01*
X4571209Y-15432354D01*
X4556923Y-15403783D01*
X4556923Y-15375212D01*
X4571209Y-15346640D01*
X4599780Y-15332354D01*
X4671209Y-15332354D01*
X4699780Y-15318069D01*
X4842638Y-15246640D02*
X4842638Y-15546640D01*
X4842638Y-15260926D02*
X4871209Y-15246640D01*
X4928352Y-15246640D01*
X4956923Y-15260926D01*
X4971209Y-15275212D01*
X4985495Y-15303783D01*
X4985495Y-15389497D01*
X4971209Y-15418069D01*
X4956923Y-15432354D01*
X4928352Y-15446640D01*
X4871209Y-15446640D01*
X4842638Y-15432354D01*
X5114066Y-15418069D02*
X5128352Y-15432354D01*
X5114066Y-15446640D01*
X5099780Y-15432354D01*
X5114066Y-15418069D01*
X5114066Y-15446640D01*
X5114066Y-15260926D02*
X5128352Y-15275212D01*
X5114066Y-15289497D01*
X5099780Y-15275212D01*
X5114066Y-15260926D01*
X5114066Y-15289497D01*
X2600315Y-15855836D02*
X2770495Y-16026016D01*
X2770495Y-15855836D02*
X2600315Y-16026016D01*
X3214066Y-16076640D02*
X3042637Y-16076640D01*
X3128352Y-16076640D02*
X3128352Y-15776640D01*
X3099780Y-15819497D01*
X3071209Y-15848069D01*
X3042637Y-15862354D01*
X3342637Y-16048069D02*
X3356923Y-16062354D01*
X3342637Y-16076640D01*
X3328352Y-16062354D01*
X3342637Y-16048069D01*
X3342637Y-16076640D01*
X3456923Y-15776640D02*
X3656923Y-15776640D01*
X3528352Y-16076640D01*
X3828352Y-15776640D02*
X3856923Y-15776640D01*
X3885495Y-15790926D01*
X3899780Y-15805212D01*
X3914066Y-15833783D01*
X3928352Y-15890926D01*
X3928352Y-15962354D01*
X3914066Y-16019497D01*
X3899780Y-16048069D01*
X3885495Y-16062354D01*
X3856923Y-16076640D01*
X3828352Y-16076640D01*
X3799780Y-16062354D01*
X3785495Y-16048069D01*
X3771209Y-16019497D01*
X3756923Y-15962354D01*
X3756923Y-15890926D01*
X3771209Y-15833783D01*
X3785495Y-15805212D01*
X3799780Y-15790926D01*
X3828352Y-15776640D01*
X4056923Y-16076640D02*
X4056923Y-15876640D01*
X4056923Y-15905212D02*
X4071209Y-15890926D01*
X4099780Y-15876640D01*
X4142637Y-15876640D01*
X4171209Y-15890926D01*
X4185495Y-15919497D01*
X4185495Y-16076640D01*
X4185495Y-15919497D02*
X4199780Y-15890926D01*
X4228352Y-15876640D01*
X4271209Y-15876640D01*
X4299780Y-15890926D01*
X4314066Y-15919497D01*
X4314066Y-16076640D01*
X4456923Y-16076640D02*
X4456923Y-15876640D01*
X4456923Y-15905212D02*
X4471209Y-15890926D01*
X4499780Y-15876640D01*
X4542638Y-15876640D01*
X4571209Y-15890926D01*
X4585495Y-15919497D01*
X4585495Y-16076640D01*
X4585495Y-15919497D02*
X4599780Y-15890926D01*
X4628352Y-15876640D01*
X4671209Y-15876640D01*
X4699780Y-15890926D01*
X4714066Y-15919497D01*
X4714066Y-16076640D01*
X5299780Y-15762354D02*
X5042638Y-16148069D01*
X5685495Y-15776640D02*
X5714066Y-15776640D01*
X5742637Y-15790926D01*
X5756923Y-15805212D01*
X5771209Y-15833783D01*
X5785495Y-15890926D01*
X5785495Y-15962354D01*
X5771209Y-16019497D01*
X5756923Y-16048069D01*
X5742637Y-16062354D01*
X5714066Y-16076640D01*
X5685495Y-16076640D01*
X5656923Y-16062354D01*
X5642637Y-16048069D01*
X5628352Y-16019497D01*
X5614066Y-15962354D01*
X5614066Y-15890926D01*
X5628352Y-15833783D01*
X5642637Y-15805212D01*
X5656923Y-15790926D01*
X5685495Y-15776640D01*
X5914066Y-16048069D02*
X5928352Y-16062354D01*
X5914066Y-16076640D01*
X5899780Y-16062354D01*
X5914066Y-16048069D01*
X5914066Y-16076640D01*
X6114066Y-15776640D02*
X6142637Y-15776640D01*
X6171209Y-15790926D01*
X6185495Y-15805212D01*
X6199780Y-15833783D01*
X6214066Y-15890926D01*
X6214066Y-15962354D01*
X6199780Y-16019497D01*
X6185495Y-16048069D01*
X6171209Y-16062354D01*
X6142637Y-16076640D01*
X6114066Y-16076640D01*
X6085495Y-16062354D01*
X6071209Y-16048069D01*
X6056923Y-16019497D01*
X6042637Y-15962354D01*
X6042637Y-15890926D01*
X6056923Y-15833783D01*
X6071209Y-15805212D01*
X6085495Y-15790926D01*
X6114066Y-15776640D01*
X6471209Y-15776640D02*
X6414066Y-15776640D01*
X6385495Y-15790926D01*
X6371209Y-15805212D01*
X6342637Y-15848069D01*
X6328352Y-15905212D01*
X6328352Y-16019497D01*
X6342637Y-16048069D01*
X6356923Y-16062354D01*
X6385495Y-16076640D01*
X6442637Y-16076640D01*
X6471209Y-16062354D01*
X6485495Y-16048069D01*
X6499780Y-16019497D01*
X6499780Y-15948069D01*
X6485495Y-15919497D01*
X6471209Y-15905212D01*
X6442637Y-15890926D01*
X6385495Y-15890926D01*
X6356923Y-15905212D01*
X6342637Y-15919497D01*
X6328352Y-15948069D01*
X6599780Y-15776640D02*
X6799780Y-15776640D01*
X6671209Y-16076640D01*
X6899780Y-15776640D02*
X6899780Y-15833783D01*
X7014066Y-15776640D02*
X7014066Y-15833783D01*
X7456923Y-16190926D02*
X7442637Y-16176640D01*
X7414066Y-16133783D01*
X7399780Y-16105212D01*
X7385495Y-16062354D01*
X7371209Y-15990926D01*
X7371209Y-15933783D01*
X7385495Y-15862354D01*
X7399780Y-15819497D01*
X7414066Y-15790926D01*
X7442637Y-15748069D01*
X7456923Y-15733783D01*
X7699780Y-15876640D02*
X7699780Y-16076640D01*
X7628352Y-15762354D02*
X7556923Y-15976640D01*
X7742637Y-15976640D01*
X7914066Y-15776640D02*
X7942637Y-15776640D01*
X7971209Y-15790926D01*
X7985495Y-15805212D01*
X7999780Y-15833783D01*
X8014066Y-15890926D01*
X8014066Y-15962354D01*
X7999780Y-16019497D01*
X7985495Y-16048069D01*
X7971209Y-16062354D01*
X7942637Y-16076640D01*
X7914066Y-16076640D01*
X7885495Y-16062354D01*
X7871209Y-16048069D01*
X7856923Y-16019497D01*
X7842637Y-15962354D01*
X7842637Y-15890926D01*
X7856923Y-15833783D01*
X7871209Y-15805212D01*
X7885495Y-15790926D01*
X7914066Y-15776640D01*
X8371209Y-16076640D02*
X8371209Y-15776640D01*
X8499780Y-16076640D02*
X8499780Y-15919497D01*
X8485495Y-15890926D01*
X8456923Y-15876640D01*
X8414066Y-15876640D01*
X8385495Y-15890926D01*
X8371209Y-15905212D01*
X8685495Y-16076640D02*
X8656923Y-16062354D01*
X8642638Y-16048069D01*
X8628352Y-16019497D01*
X8628352Y-15933783D01*
X8642638Y-15905212D01*
X8656923Y-15890926D01*
X8685495Y-15876640D01*
X8728352Y-15876640D01*
X8756923Y-15890926D01*
X8771209Y-15905212D01*
X8785495Y-15933783D01*
X8785495Y-16019497D01*
X8771209Y-16048069D01*
X8756923Y-16062354D01*
X8728352Y-16076640D01*
X8685495Y-16076640D01*
X8956923Y-16076640D02*
X8928352Y-16062354D01*
X8914066Y-16033783D01*
X8914066Y-15776640D01*
X9185495Y-16062354D02*
X9156923Y-16076640D01*
X9099780Y-16076640D01*
X9071209Y-16062354D01*
X9056923Y-16033783D01*
X9056923Y-15919497D01*
X9071209Y-15890926D01*
X9099780Y-15876640D01*
X9156923Y-15876640D01*
X9185495Y-15890926D01*
X9199780Y-15919497D01*
X9199780Y-15948069D01*
X9056923Y-15976640D01*
X9314066Y-16062354D02*
X9342638Y-16076640D01*
X9399780Y-16076640D01*
X9428352Y-16062354D01*
X9442638Y-16033783D01*
X9442638Y-16019497D01*
X9428352Y-15990926D01*
X9399780Y-15976640D01*
X9356923Y-15976640D01*
X9328352Y-15962354D01*
X9314066Y-15933783D01*
X9314066Y-15919497D01*
X9328352Y-15890926D01*
X9356923Y-15876640D01*
X9399780Y-15876640D01*
X9428352Y-15890926D01*
X9542638Y-16190926D02*
X9556923Y-16176640D01*
X9585495Y-16133783D01*
X9599780Y-16105212D01*
X9614066Y-16062354D01*
X9628352Y-15990926D01*
X9628352Y-15933783D01*
X9614066Y-15862354D01*
X9599780Y-15819497D01*
X9585495Y-15790926D01*
X9556923Y-15748069D01*
X9542638Y-15733783D01*
X10085495Y-16190926D02*
X10071209Y-16176640D01*
X10042638Y-16133783D01*
X10028352Y-16105212D01*
X10014066Y-16062354D01*
X9999780Y-15990926D01*
X9999780Y-15933783D01*
X10014066Y-15862354D01*
X10028352Y-15819497D01*
X10042638Y-15790926D01*
X10071209Y-15748069D01*
X10085495Y-15733783D01*
X10199780Y-15876640D02*
X10199780Y-16076640D01*
X10199780Y-15905212D02*
X10214066Y-15890926D01*
X10242638Y-15876640D01*
X10285495Y-15876640D01*
X10314066Y-15890926D01*
X10328352Y-15919497D01*
X10328352Y-16076640D01*
X10514066Y-16076640D02*
X10485495Y-16062354D01*
X10471209Y-16048069D01*
X10456923Y-16019497D01*
X10456923Y-15933783D01*
X10471209Y-15905212D01*
X10485495Y-15890926D01*
X10514066Y-15876640D01*
X10556923Y-15876640D01*
X10585495Y-15890926D01*
X10599780Y-15905212D01*
X10614066Y-15933783D01*
X10614066Y-16019497D01*
X10599780Y-16048069D01*
X10585495Y-16062354D01*
X10556923Y-16076640D01*
X10514066Y-16076640D01*
X10699780Y-15876640D02*
X10814066Y-15876640D01*
X10742638Y-15776640D02*
X10742638Y-16033783D01*
X10756923Y-16062354D01*
X10785495Y-16076640D01*
X10814066Y-16076640D01*
X11142638Y-15876640D02*
X11142638Y-16176640D01*
X11142638Y-15890926D02*
X11171209Y-15876640D01*
X11228352Y-15876640D01*
X11256923Y-15890926D01*
X11271209Y-15905212D01*
X11285495Y-15933783D01*
X11285495Y-16019497D01*
X11271209Y-16048069D01*
X11256923Y-16062354D01*
X11228352Y-16076640D01*
X11171209Y-16076640D01*
X11142638Y-16062354D01*
X11456923Y-16076640D02*
X11428352Y-16062354D01*
X11414066Y-16033783D01*
X11414066Y-15776640D01*
X11699780Y-16076640D02*
X11699780Y-15919497D01*
X11685495Y-15890926D01*
X11656923Y-15876640D01*
X11599780Y-15876640D01*
X11571209Y-15890926D01*
X11699780Y-16062354D02*
X11671209Y-16076640D01*
X11599780Y-16076640D01*
X11571209Y-16062354D01*
X11556923Y-16033783D01*
X11556923Y-16005212D01*
X11571209Y-15976640D01*
X11599780Y-15962354D01*
X11671209Y-15962354D01*
X11699780Y-15948069D01*
X11799780Y-15876640D02*
X11914066Y-15876640D01*
X11842637Y-15776640D02*
X11842637Y-16033783D01*
X11856923Y-16062354D01*
X11885495Y-16076640D01*
X11914066Y-16076640D01*
X12128352Y-16062354D02*
X12099780Y-16076640D01*
X12042637Y-16076640D01*
X12014066Y-16062354D01*
X11999780Y-16033783D01*
X11999780Y-15919497D01*
X12014066Y-15890926D01*
X12042637Y-15876640D01*
X12099780Y-15876640D01*
X12128352Y-15890926D01*
X12142637Y-15919497D01*
X12142637Y-15948069D01*
X11999780Y-15976640D01*
X12399780Y-16076640D02*
X12399780Y-15776640D01*
X12399780Y-16062354D02*
X12371209Y-16076640D01*
X12314066Y-16076640D01*
X12285495Y-16062354D01*
X12271209Y-16048069D01*
X12256923Y-16019497D01*
X12256923Y-15933783D01*
X12271209Y-15905212D01*
X12285495Y-15890926D01*
X12314066Y-15876640D01*
X12371209Y-15876640D01*
X12399780Y-15890926D01*
X12514066Y-16190926D02*
X12528352Y-16176640D01*
X12556923Y-16133783D01*
X12571209Y-16105212D01*
X12585495Y-16062354D01*
X12599780Y-15990926D01*
X12599780Y-15933783D01*
X12585495Y-15862354D01*
X12571209Y-15819497D01*
X12556923Y-15790926D01*
X12528352Y-15748069D01*
X12514066Y-15733783D01*
X2770495Y-16336926D02*
G75*
G03X2770495Y-16336926I-87500J0D01*
G01*
X3214066Y-16472640D02*
X3042637Y-16472640D01*
X3128352Y-16472640D02*
X3128352Y-16172640D01*
X3099780Y-16215497D01*
X3071209Y-16244069D01*
X3042637Y-16258354D01*
X3342637Y-16444069D02*
X3356923Y-16458354D01*
X3342637Y-16472640D01*
X3328352Y-16458354D01*
X3342637Y-16444069D01*
X3342637Y-16472640D01*
X3456923Y-16172640D02*
X3656923Y-16172640D01*
X3528352Y-16472640D01*
X3914066Y-16172640D02*
X3771209Y-16172640D01*
X3756923Y-16315497D01*
X3771209Y-16301212D01*
X3799780Y-16286926D01*
X3871209Y-16286926D01*
X3899780Y-16301212D01*
X3914066Y-16315497D01*
X3928352Y-16344069D01*
X3928352Y-16415497D01*
X3914066Y-16444069D01*
X3899780Y-16458354D01*
X3871209Y-16472640D01*
X3799780Y-16472640D01*
X3771209Y-16458354D01*
X3756923Y-16444069D01*
X4056923Y-16472640D02*
X4056923Y-16272640D01*
X4056923Y-16301212D02*
X4071209Y-16286926D01*
X4099780Y-16272640D01*
X4142637Y-16272640D01*
X4171209Y-16286926D01*
X4185495Y-16315497D01*
X4185495Y-16472640D01*
X4185495Y-16315497D02*
X4199780Y-16286926D01*
X4228352Y-16272640D01*
X4271209Y-16272640D01*
X4299780Y-16286926D01*
X4314066Y-16315497D01*
X4314066Y-16472640D01*
X4456923Y-16472640D02*
X4456923Y-16272640D01*
X4456923Y-16301212D02*
X4471209Y-16286926D01*
X4499780Y-16272640D01*
X4542638Y-16272640D01*
X4571209Y-16286926D01*
X4585495Y-16315497D01*
X4585495Y-16472640D01*
X4585495Y-16315497D02*
X4599780Y-16286926D01*
X4628352Y-16272640D01*
X4671209Y-16272640D01*
X4699780Y-16286926D01*
X4714066Y-16315497D01*
X4714066Y-16472640D01*
X5299780Y-16158354D02*
X5042638Y-16544069D01*
X5685495Y-16172640D02*
X5714066Y-16172640D01*
X5742637Y-16186926D01*
X5756923Y-16201212D01*
X5771209Y-16229783D01*
X5785495Y-16286926D01*
X5785495Y-16358354D01*
X5771209Y-16415497D01*
X5756923Y-16444069D01*
X5742637Y-16458354D01*
X5714066Y-16472640D01*
X5685495Y-16472640D01*
X5656923Y-16458354D01*
X5642637Y-16444069D01*
X5628352Y-16415497D01*
X5614066Y-16358354D01*
X5614066Y-16286926D01*
X5628352Y-16229783D01*
X5642637Y-16201212D01*
X5656923Y-16186926D01*
X5685495Y-16172640D01*
X5914066Y-16444069D02*
X5928352Y-16458354D01*
X5914066Y-16472640D01*
X5899780Y-16458354D01*
X5914066Y-16444069D01*
X5914066Y-16472640D01*
X6114066Y-16172640D02*
X6142637Y-16172640D01*
X6171209Y-16186926D01*
X6185495Y-16201212D01*
X6199780Y-16229783D01*
X6214066Y-16286926D01*
X6214066Y-16358354D01*
X6199780Y-16415497D01*
X6185495Y-16444069D01*
X6171209Y-16458354D01*
X6142637Y-16472640D01*
X6114066Y-16472640D01*
X6085495Y-16458354D01*
X6071209Y-16444069D01*
X6056923Y-16415497D01*
X6042637Y-16358354D01*
X6042637Y-16286926D01*
X6056923Y-16229783D01*
X6071209Y-16201212D01*
X6085495Y-16186926D01*
X6114066Y-16172640D01*
X6471209Y-16172640D02*
X6414066Y-16172640D01*
X6385495Y-16186926D01*
X6371209Y-16201212D01*
X6342637Y-16244069D01*
X6328352Y-16301212D01*
X6328352Y-16415497D01*
X6342637Y-16444069D01*
X6356923Y-16458354D01*
X6385495Y-16472640D01*
X6442637Y-16472640D01*
X6471209Y-16458354D01*
X6485495Y-16444069D01*
X6499780Y-16415497D01*
X6499780Y-16344069D01*
X6485495Y-16315497D01*
X6471209Y-16301212D01*
X6442637Y-16286926D01*
X6385495Y-16286926D01*
X6356923Y-16301212D01*
X6342637Y-16315497D01*
X6328352Y-16344069D01*
X6642637Y-16472640D02*
X6699780Y-16472640D01*
X6728352Y-16458354D01*
X6742637Y-16444069D01*
X6771209Y-16401212D01*
X6785495Y-16344069D01*
X6785495Y-16229783D01*
X6771209Y-16201212D01*
X6756923Y-16186926D01*
X6728352Y-16172640D01*
X6671209Y-16172640D01*
X6642637Y-16186926D01*
X6628352Y-16201212D01*
X6614066Y-16229783D01*
X6614066Y-16301212D01*
X6628352Y-16329783D01*
X6642637Y-16344069D01*
X6671209Y-16358354D01*
X6728352Y-16358354D01*
X6756923Y-16344069D01*
X6771209Y-16329783D01*
X6785495Y-16301212D01*
X6899780Y-16172640D02*
X6899780Y-16229783D01*
X7014066Y-16172640D02*
X7014066Y-16229783D01*
X7456923Y-16586926D02*
X7442637Y-16572640D01*
X7414066Y-16529783D01*
X7399780Y-16501212D01*
X7385495Y-16458354D01*
X7371209Y-16386926D01*
X7371209Y-16329783D01*
X7385495Y-16258354D01*
X7399780Y-16215497D01*
X7414066Y-16186926D01*
X7442637Y-16144069D01*
X7456923Y-16129783D01*
X7699780Y-16272640D02*
X7699780Y-16472640D01*
X7628352Y-16158354D02*
X7556923Y-16372640D01*
X7742637Y-16372640D01*
X7914066Y-16172640D02*
X7942637Y-16172640D01*
X7971209Y-16186926D01*
X7985495Y-16201212D01*
X7999780Y-16229783D01*
X8014066Y-16286926D01*
X8014066Y-16358354D01*
X7999780Y-16415497D01*
X7985495Y-16444069D01*
X7971209Y-16458354D01*
X7942637Y-16472640D01*
X7914066Y-16472640D01*
X7885495Y-16458354D01*
X7871209Y-16444069D01*
X7856923Y-16415497D01*
X7842637Y-16358354D01*
X7842637Y-16286926D01*
X7856923Y-16229783D01*
X7871209Y-16201212D01*
X7885495Y-16186926D01*
X7914066Y-16172640D01*
X8371209Y-16472640D02*
X8371209Y-16172640D01*
X8499780Y-16472640D02*
X8499780Y-16315497D01*
X8485495Y-16286926D01*
X8456923Y-16272640D01*
X8414066Y-16272640D01*
X8385495Y-16286926D01*
X8371209Y-16301212D01*
X8685495Y-16472640D02*
X8656923Y-16458354D01*
X8642638Y-16444069D01*
X8628352Y-16415497D01*
X8628352Y-16329783D01*
X8642638Y-16301212D01*
X8656923Y-16286926D01*
X8685495Y-16272640D01*
X8728352Y-16272640D01*
X8756923Y-16286926D01*
X8771209Y-16301212D01*
X8785495Y-16329783D01*
X8785495Y-16415497D01*
X8771209Y-16444069D01*
X8756923Y-16458354D01*
X8728352Y-16472640D01*
X8685495Y-16472640D01*
X8956923Y-16472640D02*
X8928352Y-16458354D01*
X8914066Y-16429783D01*
X8914066Y-16172640D01*
X9185495Y-16458354D02*
X9156923Y-16472640D01*
X9099780Y-16472640D01*
X9071209Y-16458354D01*
X9056923Y-16429783D01*
X9056923Y-16315497D01*
X9071209Y-16286926D01*
X9099780Y-16272640D01*
X9156923Y-16272640D01*
X9185495Y-16286926D01*
X9199780Y-16315497D01*
X9199780Y-16344069D01*
X9056923Y-16372640D01*
X9314066Y-16458354D02*
X9342638Y-16472640D01*
X9399780Y-16472640D01*
X9428352Y-16458354D01*
X9442638Y-16429783D01*
X9442638Y-16415497D01*
X9428352Y-16386926D01*
X9399780Y-16372640D01*
X9356923Y-16372640D01*
X9328352Y-16358354D01*
X9314066Y-16329783D01*
X9314066Y-16315497D01*
X9328352Y-16286926D01*
X9356923Y-16272640D01*
X9399780Y-16272640D01*
X9428352Y-16286926D01*
X9542638Y-16586926D02*
X9556923Y-16572640D01*
X9585495Y-16529783D01*
X9599780Y-16501212D01*
X9614066Y-16458354D01*
X9628352Y-16386926D01*
X9628352Y-16329783D01*
X9614066Y-16258354D01*
X9599780Y-16215497D01*
X9585495Y-16186926D01*
X9556923Y-16144069D01*
X9542638Y-16129783D01*
X10085495Y-16586926D02*
X10071209Y-16572640D01*
X10042638Y-16529783D01*
X10028352Y-16501212D01*
X10014066Y-16458354D01*
X9999780Y-16386926D01*
X9999780Y-16329783D01*
X10014066Y-16258354D01*
X10028352Y-16215497D01*
X10042638Y-16186926D01*
X10071209Y-16144069D01*
X10085495Y-16129783D01*
X10199780Y-16272640D02*
X10199780Y-16472640D01*
X10199780Y-16301212D02*
X10214066Y-16286926D01*
X10242638Y-16272640D01*
X10285495Y-16272640D01*
X10314066Y-16286926D01*
X10328352Y-16315497D01*
X10328352Y-16472640D01*
X10514066Y-16472640D02*
X10485495Y-16458354D01*
X10471209Y-16444069D01*
X10456923Y-16415497D01*
X10456923Y-16329783D01*
X10471209Y-16301212D01*
X10485495Y-16286926D01*
X10514066Y-16272640D01*
X10556923Y-16272640D01*
X10585495Y-16286926D01*
X10599780Y-16301212D01*
X10614066Y-16329783D01*
X10614066Y-16415497D01*
X10599780Y-16444069D01*
X10585495Y-16458354D01*
X10556923Y-16472640D01*
X10514066Y-16472640D01*
X10699780Y-16272640D02*
X10814066Y-16272640D01*
X10742638Y-16172640D02*
X10742638Y-16429783D01*
X10756923Y-16458354D01*
X10785495Y-16472640D01*
X10814066Y-16472640D01*
X11142638Y-16272640D02*
X11142638Y-16572640D01*
X11142638Y-16286926D02*
X11171209Y-16272640D01*
X11228352Y-16272640D01*
X11256923Y-16286926D01*
X11271209Y-16301212D01*
X11285495Y-16329783D01*
X11285495Y-16415497D01*
X11271209Y-16444069D01*
X11256923Y-16458354D01*
X11228352Y-16472640D01*
X11171209Y-16472640D01*
X11142638Y-16458354D01*
X11456923Y-16472640D02*
X11428352Y-16458354D01*
X11414066Y-16429783D01*
X11414066Y-16172640D01*
X11699780Y-16472640D02*
X11699780Y-16315497D01*
X11685495Y-16286926D01*
X11656923Y-16272640D01*
X11599780Y-16272640D01*
X11571209Y-16286926D01*
X11699780Y-16458354D02*
X11671209Y-16472640D01*
X11599780Y-16472640D01*
X11571209Y-16458354D01*
X11556923Y-16429783D01*
X11556923Y-16401212D01*
X11571209Y-16372640D01*
X11599780Y-16358354D01*
X11671209Y-16358354D01*
X11699780Y-16344069D01*
X11799780Y-16272640D02*
X11914066Y-16272640D01*
X11842637Y-16172640D02*
X11842637Y-16429783D01*
X11856923Y-16458354D01*
X11885495Y-16472640D01*
X11914066Y-16472640D01*
X12128352Y-16458354D02*
X12099780Y-16472640D01*
X12042637Y-16472640D01*
X12014066Y-16458354D01*
X11999780Y-16429783D01*
X11999780Y-16315497D01*
X12014066Y-16286926D01*
X12042637Y-16272640D01*
X12099780Y-16272640D01*
X12128352Y-16286926D01*
X12142637Y-16315497D01*
X12142637Y-16344069D01*
X11999780Y-16372640D01*
X12399780Y-16472640D02*
X12399780Y-16172640D01*
X12399780Y-16458354D02*
X12371209Y-16472640D01*
X12314066Y-16472640D01*
X12285495Y-16458354D01*
X12271209Y-16444069D01*
X12256923Y-16415497D01*
X12256923Y-16329783D01*
X12271209Y-16301212D01*
X12285495Y-16286926D01*
X12314066Y-16272640D01*
X12371209Y-16272640D01*
X12399780Y-16286926D01*
X12514066Y-16586926D02*
X12528352Y-16572640D01*
X12556923Y-16529783D01*
X12571209Y-16501212D01*
X12585495Y-16458354D01*
X12599780Y-16386926D01*
X12599780Y-16329783D01*
X12585495Y-16258354D01*
X12571209Y-16215497D01*
X12556923Y-16186926D01*
X12528352Y-16144069D01*
X12514066Y-16129783D01*
X2620495Y-16582926D02*
X2620495Y-16882926D01*
X2470495Y-16732926D02*
X2770495Y-16732926D01*
X3028352Y-16568640D02*
X3214066Y-16568640D01*
X3114066Y-16682926D01*
X3156923Y-16682926D01*
X3185495Y-16697212D01*
X3199780Y-16711497D01*
X3214066Y-16740069D01*
X3214066Y-16811497D01*
X3199780Y-16840069D01*
X3185495Y-16854354D01*
X3156923Y-16868640D01*
X3071209Y-16868640D01*
X3042637Y-16854354D01*
X3028352Y-16840069D01*
X3342637Y-16840069D02*
X3356923Y-16854354D01*
X3342637Y-16868640D01*
X3328352Y-16854354D01*
X3342637Y-16840069D01*
X3342637Y-16868640D01*
X3542637Y-16568640D02*
X3571209Y-16568640D01*
X3599780Y-16582926D01*
X3614066Y-16597212D01*
X3628352Y-16625783D01*
X3642637Y-16682926D01*
X3642637Y-16754354D01*
X3628352Y-16811497D01*
X3614066Y-16840069D01*
X3599780Y-16854354D01*
X3571209Y-16868640D01*
X3542637Y-16868640D01*
X3514066Y-16854354D01*
X3499780Y-16840069D01*
X3485495Y-16811497D01*
X3471209Y-16754354D01*
X3471209Y-16682926D01*
X3485495Y-16625783D01*
X3499780Y-16597212D01*
X3514066Y-16582926D01*
X3542637Y-16568640D01*
X3828352Y-16568640D02*
X3856923Y-16568640D01*
X3885495Y-16582926D01*
X3899780Y-16597212D01*
X3914066Y-16625783D01*
X3928352Y-16682926D01*
X3928352Y-16754354D01*
X3914066Y-16811497D01*
X3899780Y-16840069D01*
X3885495Y-16854354D01*
X3856923Y-16868640D01*
X3828352Y-16868640D01*
X3799780Y-16854354D01*
X3785495Y-16840069D01*
X3771209Y-16811497D01*
X3756923Y-16754354D01*
X3756923Y-16682926D01*
X3771209Y-16625783D01*
X3785495Y-16597212D01*
X3799780Y-16582926D01*
X3828352Y-16568640D01*
X4056923Y-16868640D02*
X4056923Y-16668640D01*
X4056923Y-16697212D02*
X4071209Y-16682926D01*
X4099780Y-16668640D01*
X4142637Y-16668640D01*
X4171209Y-16682926D01*
X4185495Y-16711497D01*
X4185495Y-16868640D01*
X4185495Y-16711497D02*
X4199780Y-16682926D01*
X4228352Y-16668640D01*
X4271209Y-16668640D01*
X4299780Y-16682926D01*
X4314066Y-16711497D01*
X4314066Y-16868640D01*
X4456923Y-16868640D02*
X4456923Y-16668640D01*
X4456923Y-16697212D02*
X4471209Y-16682926D01*
X4499780Y-16668640D01*
X4542638Y-16668640D01*
X4571209Y-16682926D01*
X4585495Y-16711497D01*
X4585495Y-16868640D01*
X4585495Y-16711497D02*
X4599780Y-16682926D01*
X4628352Y-16668640D01*
X4671209Y-16668640D01*
X4699780Y-16682926D01*
X4714066Y-16711497D01*
X4714066Y-16868640D01*
X5299780Y-16554354D02*
X5042638Y-16940069D01*
X5685495Y-16568640D02*
X5714066Y-16568640D01*
X5742637Y-16582926D01*
X5756923Y-16597212D01*
X5771209Y-16625783D01*
X5785495Y-16682926D01*
X5785495Y-16754354D01*
X5771209Y-16811497D01*
X5756923Y-16840069D01*
X5742637Y-16854354D01*
X5714066Y-16868640D01*
X5685495Y-16868640D01*
X5656923Y-16854354D01*
X5642637Y-16840069D01*
X5628352Y-16811497D01*
X5614066Y-16754354D01*
X5614066Y-16682926D01*
X5628352Y-16625783D01*
X5642637Y-16597212D01*
X5656923Y-16582926D01*
X5685495Y-16568640D01*
X5914066Y-16840069D02*
X5928352Y-16854354D01*
X5914066Y-16868640D01*
X5899780Y-16854354D01*
X5914066Y-16840069D01*
X5914066Y-16868640D01*
X6214066Y-16868640D02*
X6042637Y-16868640D01*
X6128352Y-16868640D02*
X6128352Y-16568640D01*
X6099780Y-16611497D01*
X6071209Y-16640069D01*
X6042637Y-16654354D01*
X6499780Y-16868640D02*
X6328352Y-16868640D01*
X6414066Y-16868640D02*
X6414066Y-16568640D01*
X6385495Y-16611497D01*
X6356923Y-16640069D01*
X6328352Y-16654354D01*
X6671209Y-16697212D02*
X6642637Y-16682926D01*
X6628352Y-16668640D01*
X6614066Y-16640069D01*
X6614066Y-16625783D01*
X6628352Y-16597212D01*
X6642637Y-16582926D01*
X6671209Y-16568640D01*
X6728352Y-16568640D01*
X6756923Y-16582926D01*
X6771209Y-16597212D01*
X6785495Y-16625783D01*
X6785495Y-16640069D01*
X6771209Y-16668640D01*
X6756923Y-16682926D01*
X6728352Y-16697212D01*
X6671209Y-16697212D01*
X6642637Y-16711497D01*
X6628352Y-16725783D01*
X6614066Y-16754354D01*
X6614066Y-16811497D01*
X6628352Y-16840069D01*
X6642637Y-16854354D01*
X6671209Y-16868640D01*
X6728352Y-16868640D01*
X6756923Y-16854354D01*
X6771209Y-16840069D01*
X6785495Y-16811497D01*
X6785495Y-16754354D01*
X6771209Y-16725783D01*
X6756923Y-16711497D01*
X6728352Y-16697212D01*
X6899780Y-16568640D02*
X6899780Y-16625783D01*
X7014066Y-16568640D02*
X7014066Y-16625783D01*
X7456923Y-16982926D02*
X7442637Y-16968640D01*
X7414066Y-16925783D01*
X7399780Y-16897212D01*
X7385495Y-16854354D01*
X7371209Y-16782926D01*
X7371209Y-16725783D01*
X7385495Y-16654354D01*
X7399780Y-16611497D01*
X7414066Y-16582926D01*
X7442637Y-16540069D01*
X7456923Y-16525783D01*
X7614066Y-16697212D02*
X7585495Y-16682926D01*
X7571209Y-16668640D01*
X7556923Y-16640069D01*
X7556923Y-16625783D01*
X7571209Y-16597212D01*
X7585495Y-16582926D01*
X7614066Y-16568640D01*
X7671209Y-16568640D01*
X7699780Y-16582926D01*
X7714066Y-16597212D01*
X7728352Y-16625783D01*
X7728352Y-16640069D01*
X7714066Y-16668640D01*
X7699780Y-16682926D01*
X7671209Y-16697212D01*
X7614066Y-16697212D01*
X7585495Y-16711497D01*
X7571209Y-16725783D01*
X7556923Y-16754354D01*
X7556923Y-16811497D01*
X7571209Y-16840069D01*
X7585495Y-16854354D01*
X7614066Y-16868640D01*
X7671209Y-16868640D01*
X7699780Y-16854354D01*
X7714066Y-16840069D01*
X7728352Y-16811497D01*
X7728352Y-16754354D01*
X7714066Y-16725783D01*
X7699780Y-16711497D01*
X7671209Y-16697212D01*
X7914066Y-16568640D02*
X7942637Y-16568640D01*
X7971209Y-16582926D01*
X7985495Y-16597212D01*
X7999780Y-16625783D01*
X8014066Y-16682926D01*
X8014066Y-16754354D01*
X7999780Y-16811497D01*
X7985495Y-16840069D01*
X7971209Y-16854354D01*
X7942637Y-16868640D01*
X7914066Y-16868640D01*
X7885495Y-16854354D01*
X7871209Y-16840069D01*
X7856923Y-16811497D01*
X7842637Y-16754354D01*
X7842637Y-16682926D01*
X7856923Y-16625783D01*
X7871209Y-16597212D01*
X7885495Y-16582926D01*
X7914066Y-16568640D01*
X8371209Y-16868640D02*
X8371209Y-16568640D01*
X8499780Y-16868640D02*
X8499780Y-16711497D01*
X8485495Y-16682926D01*
X8456923Y-16668640D01*
X8414066Y-16668640D01*
X8385495Y-16682926D01*
X8371209Y-16697212D01*
X8685495Y-16868640D02*
X8656923Y-16854354D01*
X8642638Y-16840069D01*
X8628352Y-16811497D01*
X8628352Y-16725783D01*
X8642638Y-16697212D01*
X8656923Y-16682926D01*
X8685495Y-16668640D01*
X8728352Y-16668640D01*
X8756923Y-16682926D01*
X8771209Y-16697212D01*
X8785495Y-16725783D01*
X8785495Y-16811497D01*
X8771209Y-16840069D01*
X8756923Y-16854354D01*
X8728352Y-16868640D01*
X8685495Y-16868640D01*
X8956923Y-16868640D02*
X8928352Y-16854354D01*
X8914066Y-16825783D01*
X8914066Y-16568640D01*
X9185495Y-16854354D02*
X9156923Y-16868640D01*
X9099780Y-16868640D01*
X9071209Y-16854354D01*
X9056923Y-16825783D01*
X9056923Y-16711497D01*
X9071209Y-16682926D01*
X9099780Y-16668640D01*
X9156923Y-16668640D01*
X9185495Y-16682926D01*
X9199780Y-16711497D01*
X9199780Y-16740069D01*
X9056923Y-16768640D01*
X9314066Y-16854354D02*
X9342638Y-16868640D01*
X9399780Y-16868640D01*
X9428352Y-16854354D01*
X9442638Y-16825783D01*
X9442638Y-16811497D01*
X9428352Y-16782926D01*
X9399780Y-16768640D01*
X9356923Y-16768640D01*
X9328352Y-16754354D01*
X9314066Y-16725783D01*
X9314066Y-16711497D01*
X9328352Y-16682926D01*
X9356923Y-16668640D01*
X9399780Y-16668640D01*
X9428352Y-16682926D01*
X9542638Y-16982926D02*
X9556923Y-16968640D01*
X9585495Y-16925783D01*
X9599780Y-16897212D01*
X9614066Y-16854354D01*
X9628352Y-16782926D01*
X9628352Y-16725783D01*
X9614066Y-16654354D01*
X9599780Y-16611497D01*
X9585495Y-16582926D01*
X9556923Y-16540069D01*
X9542638Y-16525783D01*
X10085495Y-16982926D02*
X10071209Y-16968640D01*
X10042638Y-16925783D01*
X10028352Y-16897212D01*
X10014066Y-16854354D01*
X9999780Y-16782926D01*
X9999780Y-16725783D01*
X10014066Y-16654354D01*
X10028352Y-16611497D01*
X10042638Y-16582926D01*
X10071209Y-16540069D01*
X10085495Y-16525783D01*
X10199780Y-16668640D02*
X10199780Y-16868640D01*
X10199780Y-16697212D02*
X10214066Y-16682926D01*
X10242638Y-16668640D01*
X10285495Y-16668640D01*
X10314066Y-16682926D01*
X10328352Y-16711497D01*
X10328352Y-16868640D01*
X10514066Y-16868640D02*
X10485495Y-16854354D01*
X10471209Y-16840069D01*
X10456923Y-16811497D01*
X10456923Y-16725783D01*
X10471209Y-16697212D01*
X10485495Y-16682926D01*
X10514066Y-16668640D01*
X10556923Y-16668640D01*
X10585495Y-16682926D01*
X10599780Y-16697212D01*
X10614066Y-16725783D01*
X10614066Y-16811497D01*
X10599780Y-16840069D01*
X10585495Y-16854354D01*
X10556923Y-16868640D01*
X10514066Y-16868640D01*
X10699780Y-16668640D02*
X10814066Y-16668640D01*
X10742638Y-16568640D02*
X10742638Y-16825783D01*
X10756923Y-16854354D01*
X10785495Y-16868640D01*
X10814066Y-16868640D01*
X11142638Y-16668640D02*
X11142638Y-16968640D01*
X11142638Y-16682926D02*
X11171209Y-16668640D01*
X11228352Y-16668640D01*
X11256923Y-16682926D01*
X11271209Y-16697212D01*
X11285495Y-16725783D01*
X11285495Y-16811497D01*
X11271209Y-16840069D01*
X11256923Y-16854354D01*
X11228352Y-16868640D01*
X11171209Y-16868640D01*
X11142638Y-16854354D01*
X11456923Y-16868640D02*
X11428352Y-16854354D01*
X11414066Y-16825783D01*
X11414066Y-16568640D01*
X11699780Y-16868640D02*
X11699780Y-16711497D01*
X11685495Y-16682926D01*
X11656923Y-16668640D01*
X11599780Y-16668640D01*
X11571209Y-16682926D01*
X11699780Y-16854354D02*
X11671209Y-16868640D01*
X11599780Y-16868640D01*
X11571209Y-16854354D01*
X11556923Y-16825783D01*
X11556923Y-16797212D01*
X11571209Y-16768640D01*
X11599780Y-16754354D01*
X11671209Y-16754354D01*
X11699780Y-16740069D01*
X11799780Y-16668640D02*
X11914066Y-16668640D01*
X11842637Y-16568640D02*
X11842637Y-16825783D01*
X11856923Y-16854354D01*
X11885495Y-16868640D01*
X11914066Y-16868640D01*
X12128352Y-16854354D02*
X12099780Y-16868640D01*
X12042637Y-16868640D01*
X12014066Y-16854354D01*
X11999780Y-16825783D01*
X11999780Y-16711497D01*
X12014066Y-16682926D01*
X12042637Y-16668640D01*
X12099780Y-16668640D01*
X12128352Y-16682926D01*
X12142637Y-16711497D01*
X12142637Y-16740069D01*
X11999780Y-16768640D01*
X12399780Y-16868640D02*
X12399780Y-16568640D01*
X12399780Y-16854354D02*
X12371209Y-16868640D01*
X12314066Y-16868640D01*
X12285495Y-16854354D01*
X12271209Y-16840069D01*
X12256923Y-16811497D01*
X12256923Y-16725783D01*
X12271209Y-16697212D01*
X12285495Y-16682926D01*
X12314066Y-16668640D01*
X12371209Y-16668640D01*
X12399780Y-16682926D01*
X12514066Y-16982926D02*
X12528352Y-16968640D01*
X12556923Y-16925783D01*
X12571209Y-16897212D01*
X12585495Y-16854354D01*
X12599780Y-16782926D01*
X12599780Y-16725783D01*
X12585495Y-16654354D01*
X12571209Y-16611497D01*
X12556923Y-16582926D01*
X12528352Y-16540069D01*
X12514066Y-16525783D01*
X2712096Y-17303917D02*
X2712096Y-17021935D01*
X2430113Y-17021935D01*
X2430113Y-17303917D01*
X2712096Y-17303917D01*
X3028352Y-16998640D02*
X3214066Y-16998640D01*
X3114066Y-17112926D01*
X3156923Y-17112926D01*
X3185495Y-17127212D01*
X3199780Y-17141497D01*
X3214066Y-17170069D01*
X3214066Y-17241497D01*
X3199780Y-17270069D01*
X3185495Y-17284354D01*
X3156923Y-17298640D01*
X3071209Y-17298640D01*
X3042637Y-17284354D01*
X3028352Y-17270069D01*
X3342637Y-17270069D02*
X3356923Y-17284354D01*
X3342637Y-17298640D01*
X3328352Y-17284354D01*
X3342637Y-17270069D01*
X3342637Y-17298640D01*
X3499780Y-17298640D02*
X3556923Y-17298640D01*
X3585495Y-17284354D01*
X3599780Y-17270069D01*
X3628352Y-17227212D01*
X3642637Y-17170069D01*
X3642637Y-17055783D01*
X3628352Y-17027212D01*
X3614066Y-17012926D01*
X3585495Y-16998640D01*
X3528352Y-16998640D01*
X3499780Y-17012926D01*
X3485495Y-17027212D01*
X3471209Y-17055783D01*
X3471209Y-17127212D01*
X3485495Y-17155783D01*
X3499780Y-17170069D01*
X3528352Y-17184354D01*
X3585495Y-17184354D01*
X3614066Y-17170069D01*
X3628352Y-17155783D01*
X3642637Y-17127212D01*
X3785495Y-17298640D02*
X3842637Y-17298640D01*
X3871209Y-17284354D01*
X3885495Y-17270069D01*
X3914066Y-17227212D01*
X3928352Y-17170069D01*
X3928352Y-17055783D01*
X3914066Y-17027212D01*
X3899780Y-17012926D01*
X3871209Y-16998640D01*
X3814066Y-16998640D01*
X3785495Y-17012926D01*
X3771209Y-17027212D01*
X3756923Y-17055783D01*
X3756923Y-17127212D01*
X3771209Y-17155783D01*
X3785495Y-17170069D01*
X3814066Y-17184354D01*
X3871209Y-17184354D01*
X3899780Y-17170069D01*
X3914066Y-17155783D01*
X3928352Y-17127212D01*
X4056923Y-17298640D02*
X4056923Y-17098640D01*
X4056923Y-17127212D02*
X4071209Y-17112926D01*
X4099780Y-17098640D01*
X4142637Y-17098640D01*
X4171209Y-17112926D01*
X4185495Y-17141497D01*
X4185495Y-17298640D01*
X4185495Y-17141497D02*
X4199780Y-17112926D01*
X4228352Y-17098640D01*
X4271209Y-17098640D01*
X4299780Y-17112926D01*
X4314066Y-17141497D01*
X4314066Y-17298640D01*
X4456923Y-17298640D02*
X4456923Y-17098640D01*
X4456923Y-17127212D02*
X4471209Y-17112926D01*
X4499780Y-17098640D01*
X4542638Y-17098640D01*
X4571209Y-17112926D01*
X4585495Y-17141497D01*
X4585495Y-17298640D01*
X4585495Y-17141497D02*
X4599780Y-17112926D01*
X4628352Y-17098640D01*
X4671209Y-17098640D01*
X4699780Y-17112926D01*
X4714066Y-17141497D01*
X4714066Y-17298640D01*
X5299780Y-16984354D02*
X5042638Y-17370069D01*
X5685495Y-16998640D02*
X5714066Y-16998640D01*
X5742637Y-17012926D01*
X5756923Y-17027212D01*
X5771209Y-17055783D01*
X5785495Y-17112926D01*
X5785495Y-17184354D01*
X5771209Y-17241497D01*
X5756923Y-17270069D01*
X5742637Y-17284354D01*
X5714066Y-17298640D01*
X5685495Y-17298640D01*
X5656923Y-17284354D01*
X5642637Y-17270069D01*
X5628352Y-17241497D01*
X5614066Y-17184354D01*
X5614066Y-17112926D01*
X5628352Y-17055783D01*
X5642637Y-17027212D01*
X5656923Y-17012926D01*
X5685495Y-16998640D01*
X5914066Y-17270069D02*
X5928352Y-17284354D01*
X5914066Y-17298640D01*
X5899780Y-17284354D01*
X5914066Y-17270069D01*
X5914066Y-17298640D01*
X6214066Y-17298640D02*
X6042637Y-17298640D01*
X6128352Y-17298640D02*
X6128352Y-16998640D01*
X6099780Y-17041497D01*
X6071209Y-17070069D01*
X6042637Y-17084354D01*
X6485495Y-16998640D02*
X6342637Y-16998640D01*
X6328352Y-17141497D01*
X6342637Y-17127212D01*
X6371209Y-17112926D01*
X6442637Y-17112926D01*
X6471209Y-17127212D01*
X6485495Y-17141497D01*
X6499780Y-17170069D01*
X6499780Y-17241497D01*
X6485495Y-17270069D01*
X6471209Y-17284354D01*
X6442637Y-17298640D01*
X6371209Y-17298640D01*
X6342637Y-17284354D01*
X6328352Y-17270069D01*
X6599780Y-16998640D02*
X6799780Y-16998640D01*
X6671209Y-17298640D01*
X6899780Y-16998640D02*
X6899780Y-17055783D01*
X7014066Y-16998640D02*
X7014066Y-17055783D01*
X7456923Y-17412926D02*
X7442637Y-17398640D01*
X7414066Y-17355783D01*
X7399780Y-17327212D01*
X7385495Y-17284354D01*
X7371209Y-17212926D01*
X7371209Y-17155783D01*
X7385495Y-17084354D01*
X7399780Y-17041497D01*
X7414066Y-17012926D01*
X7442637Y-16970069D01*
X7456923Y-16955783D01*
X7556923Y-17027212D02*
X7571209Y-17012926D01*
X7599780Y-16998640D01*
X7671209Y-16998640D01*
X7699780Y-17012926D01*
X7714066Y-17027212D01*
X7728352Y-17055783D01*
X7728352Y-17084354D01*
X7714066Y-17127212D01*
X7542637Y-17298640D01*
X7728352Y-17298640D01*
X7914066Y-16998640D02*
X7942637Y-16998640D01*
X7971209Y-17012926D01*
X7985495Y-17027212D01*
X7999780Y-17055783D01*
X8014066Y-17112926D01*
X8014066Y-17184354D01*
X7999780Y-17241497D01*
X7985495Y-17270069D01*
X7971209Y-17284354D01*
X7942637Y-17298640D01*
X7914066Y-17298640D01*
X7885495Y-17284354D01*
X7871209Y-17270069D01*
X7856923Y-17241497D01*
X7842637Y-17184354D01*
X7842637Y-17112926D01*
X7856923Y-17055783D01*
X7871209Y-17027212D01*
X7885495Y-17012926D01*
X7914066Y-16998640D01*
X8371209Y-17298640D02*
X8371209Y-16998640D01*
X8499780Y-17298640D02*
X8499780Y-17141497D01*
X8485495Y-17112926D01*
X8456923Y-17098640D01*
X8414066Y-17098640D01*
X8385495Y-17112926D01*
X8371209Y-17127212D01*
X8685495Y-17298640D02*
X8656923Y-17284354D01*
X8642638Y-17270069D01*
X8628352Y-17241497D01*
X8628352Y-17155783D01*
X8642638Y-17127212D01*
X8656923Y-17112926D01*
X8685495Y-17098640D01*
X8728352Y-17098640D01*
X8756923Y-17112926D01*
X8771209Y-17127212D01*
X8785495Y-17155783D01*
X8785495Y-17241497D01*
X8771209Y-17270069D01*
X8756923Y-17284354D01*
X8728352Y-17298640D01*
X8685495Y-17298640D01*
X8956923Y-17298640D02*
X8928352Y-17284354D01*
X8914066Y-17255783D01*
X8914066Y-16998640D01*
X9185495Y-17284354D02*
X9156923Y-17298640D01*
X9099780Y-17298640D01*
X9071209Y-17284354D01*
X9056923Y-17255783D01*
X9056923Y-17141497D01*
X9071209Y-17112926D01*
X9099780Y-17098640D01*
X9156923Y-17098640D01*
X9185495Y-17112926D01*
X9199780Y-17141497D01*
X9199780Y-17170069D01*
X9056923Y-17198640D01*
X9314066Y-17284354D02*
X9342638Y-17298640D01*
X9399780Y-17298640D01*
X9428352Y-17284354D01*
X9442638Y-17255783D01*
X9442638Y-17241497D01*
X9428352Y-17212926D01*
X9399780Y-17198640D01*
X9356923Y-17198640D01*
X9328352Y-17184354D01*
X9314066Y-17155783D01*
X9314066Y-17141497D01*
X9328352Y-17112926D01*
X9356923Y-17098640D01*
X9399780Y-17098640D01*
X9428352Y-17112926D01*
X9542638Y-17412926D02*
X9556923Y-17398640D01*
X9585495Y-17355783D01*
X9599780Y-17327212D01*
X9614066Y-17284354D01*
X9628352Y-17212926D01*
X9628352Y-17155783D01*
X9614066Y-17084354D01*
X9599780Y-17041497D01*
X9585495Y-17012926D01*
X9556923Y-16970069D01*
X9542638Y-16955783D01*
X10085495Y-17412926D02*
X10071209Y-17398640D01*
X10042638Y-17355783D01*
X10028352Y-17327212D01*
X10014066Y-17284354D01*
X9999780Y-17212926D01*
X9999780Y-17155783D01*
X10014066Y-17084354D01*
X10028352Y-17041497D01*
X10042638Y-17012926D01*
X10071209Y-16970069D01*
X10085495Y-16955783D01*
X10199780Y-17098640D02*
X10199780Y-17298640D01*
X10199780Y-17127212D02*
X10214066Y-17112926D01*
X10242638Y-17098640D01*
X10285495Y-17098640D01*
X10314066Y-17112926D01*
X10328352Y-17141497D01*
X10328352Y-17298640D01*
X10514066Y-17298640D02*
X10485495Y-17284354D01*
X10471209Y-17270069D01*
X10456923Y-17241497D01*
X10456923Y-17155783D01*
X10471209Y-17127212D01*
X10485495Y-17112926D01*
X10514066Y-17098640D01*
X10556923Y-17098640D01*
X10585495Y-17112926D01*
X10599780Y-17127212D01*
X10614066Y-17155783D01*
X10614066Y-17241497D01*
X10599780Y-17270069D01*
X10585495Y-17284354D01*
X10556923Y-17298640D01*
X10514066Y-17298640D01*
X10699780Y-17098640D02*
X10814066Y-17098640D01*
X10742638Y-16998640D02*
X10742638Y-17255783D01*
X10756923Y-17284354D01*
X10785495Y-17298640D01*
X10814066Y-17298640D01*
X11142638Y-17098640D02*
X11142638Y-17398640D01*
X11142638Y-17112926D02*
X11171209Y-17098640D01*
X11228352Y-17098640D01*
X11256923Y-17112926D01*
X11271209Y-17127212D01*
X11285495Y-17155783D01*
X11285495Y-17241497D01*
X11271209Y-17270069D01*
X11256923Y-17284354D01*
X11228352Y-17298640D01*
X11171209Y-17298640D01*
X11142638Y-17284354D01*
X11456923Y-17298640D02*
X11428352Y-17284354D01*
X11414066Y-17255783D01*
X11414066Y-16998640D01*
X11699780Y-17298640D02*
X11699780Y-17141497D01*
X11685495Y-17112926D01*
X11656923Y-17098640D01*
X11599780Y-17098640D01*
X11571209Y-17112926D01*
X11699780Y-17284354D02*
X11671209Y-17298640D01*
X11599780Y-17298640D01*
X11571209Y-17284354D01*
X11556923Y-17255783D01*
X11556923Y-17227212D01*
X11571209Y-17198640D01*
X11599780Y-17184354D01*
X11671209Y-17184354D01*
X11699780Y-17170069D01*
X11799780Y-17098640D02*
X11914066Y-17098640D01*
X11842637Y-16998640D02*
X11842637Y-17255783D01*
X11856923Y-17284354D01*
X11885495Y-17298640D01*
X11914066Y-17298640D01*
X12128352Y-17284354D02*
X12099780Y-17298640D01*
X12042637Y-17298640D01*
X12014066Y-17284354D01*
X11999780Y-17255783D01*
X11999780Y-17141497D01*
X12014066Y-17112926D01*
X12042637Y-17098640D01*
X12099780Y-17098640D01*
X12128352Y-17112926D01*
X12142637Y-17141497D01*
X12142637Y-17170069D01*
X11999780Y-17198640D01*
X12399780Y-17298640D02*
X12399780Y-16998640D01*
X12399780Y-17284354D02*
X12371209Y-17298640D01*
X12314066Y-17298640D01*
X12285495Y-17284354D01*
X12271209Y-17270069D01*
X12256923Y-17241497D01*
X12256923Y-17155783D01*
X12271209Y-17127212D01*
X12285495Y-17112926D01*
X12314066Y-17098640D01*
X12371209Y-17098640D01*
X12399780Y-17112926D01*
X12514066Y-17412926D02*
X12528352Y-17398640D01*
X12556923Y-17355783D01*
X12571209Y-17327212D01*
X12585495Y-17284354D01*
X12599780Y-17212926D01*
X12599780Y-17155783D01*
X12585495Y-17084354D01*
X12571209Y-17041497D01*
X12556923Y-17012926D01*
X12528352Y-16970069D01*
X12514066Y-16955783D01*
X2522995Y-17939206D02*
X2770495Y-17691706D01*
X2522995Y-17444206D01*
X2275495Y-17691706D01*
X2522995Y-17939206D01*
X3185495Y-17627420D02*
X3185495Y-17827420D01*
X3114066Y-17513134D02*
X3042637Y-17727420D01*
X3228352Y-17727420D01*
X3342637Y-17798849D02*
X3356923Y-17813134D01*
X3342637Y-17827420D01*
X3328352Y-17813134D01*
X3342637Y-17798849D01*
X3342637Y-17827420D01*
X3499780Y-17827420D02*
X3556923Y-17827420D01*
X3585495Y-17813134D01*
X3599780Y-17798849D01*
X3628352Y-17755992D01*
X3642637Y-17698849D01*
X3642637Y-17584563D01*
X3628352Y-17555992D01*
X3614066Y-17541706D01*
X3585495Y-17527420D01*
X3528352Y-17527420D01*
X3499780Y-17541706D01*
X3485495Y-17555992D01*
X3471209Y-17584563D01*
X3471209Y-17655992D01*
X3485495Y-17684563D01*
X3499780Y-17698849D01*
X3528352Y-17713134D01*
X3585495Y-17713134D01*
X3614066Y-17698849D01*
X3628352Y-17684563D01*
X3642637Y-17655992D01*
X3914066Y-17527420D02*
X3771209Y-17527420D01*
X3756923Y-17670277D01*
X3771209Y-17655992D01*
X3799780Y-17641706D01*
X3871209Y-17641706D01*
X3899780Y-17655992D01*
X3914066Y-17670277D01*
X3928352Y-17698849D01*
X3928352Y-17770277D01*
X3914066Y-17798849D01*
X3899780Y-17813134D01*
X3871209Y-17827420D01*
X3799780Y-17827420D01*
X3771209Y-17813134D01*
X3756923Y-17798849D01*
X4056923Y-17827420D02*
X4056923Y-17627420D01*
X4056923Y-17655992D02*
X4071209Y-17641706D01*
X4099780Y-17627420D01*
X4142637Y-17627420D01*
X4171209Y-17641706D01*
X4185495Y-17670277D01*
X4185495Y-17827420D01*
X4185495Y-17670277D02*
X4199780Y-17641706D01*
X4228352Y-17627420D01*
X4271209Y-17627420D01*
X4299780Y-17641706D01*
X4314066Y-17670277D01*
X4314066Y-17827420D01*
X4456923Y-17827420D02*
X4456923Y-17627420D01*
X4456923Y-17655992D02*
X4471209Y-17641706D01*
X4499780Y-17627420D01*
X4542638Y-17627420D01*
X4571209Y-17641706D01*
X4585495Y-17670277D01*
X4585495Y-17827420D01*
X4585495Y-17670277D02*
X4599780Y-17641706D01*
X4628352Y-17627420D01*
X4671209Y-17627420D01*
X4699780Y-17641706D01*
X4714066Y-17670277D01*
X4714066Y-17827420D01*
X5299780Y-17513134D02*
X5042638Y-17898849D01*
X5685495Y-17527420D02*
X5714066Y-17527420D01*
X5742637Y-17541706D01*
X5756923Y-17555992D01*
X5771209Y-17584563D01*
X5785495Y-17641706D01*
X5785495Y-17713134D01*
X5771209Y-17770277D01*
X5756923Y-17798849D01*
X5742637Y-17813134D01*
X5714066Y-17827420D01*
X5685495Y-17827420D01*
X5656923Y-17813134D01*
X5642637Y-17798849D01*
X5628352Y-17770277D01*
X5614066Y-17713134D01*
X5614066Y-17641706D01*
X5628352Y-17584563D01*
X5642637Y-17555992D01*
X5656923Y-17541706D01*
X5685495Y-17527420D01*
X5914066Y-17798849D02*
X5928352Y-17813134D01*
X5914066Y-17827420D01*
X5899780Y-17813134D01*
X5914066Y-17798849D01*
X5914066Y-17827420D01*
X6214066Y-17827420D02*
X6042637Y-17827420D01*
X6128352Y-17827420D02*
X6128352Y-17527420D01*
X6099780Y-17570277D01*
X6071209Y-17598849D01*
X6042637Y-17613134D01*
X6356923Y-17827420D02*
X6414066Y-17827420D01*
X6442637Y-17813134D01*
X6456923Y-17798849D01*
X6485495Y-17755992D01*
X6499780Y-17698849D01*
X6499780Y-17584563D01*
X6485495Y-17555992D01*
X6471209Y-17541706D01*
X6442637Y-17527420D01*
X6385495Y-17527420D01*
X6356923Y-17541706D01*
X6342637Y-17555992D01*
X6328352Y-17584563D01*
X6328352Y-17655992D01*
X6342637Y-17684563D01*
X6356923Y-17698849D01*
X6385495Y-17713134D01*
X6442637Y-17713134D01*
X6471209Y-17698849D01*
X6485495Y-17684563D01*
X6499780Y-17655992D01*
X6771209Y-17527420D02*
X6628352Y-17527420D01*
X6614066Y-17670277D01*
X6628352Y-17655992D01*
X6656923Y-17641706D01*
X6728352Y-17641706D01*
X6756923Y-17655992D01*
X6771209Y-17670277D01*
X6785495Y-17698849D01*
X6785495Y-17770277D01*
X6771209Y-17798849D01*
X6756923Y-17813134D01*
X6728352Y-17827420D01*
X6656923Y-17827420D01*
X6628352Y-17813134D01*
X6614066Y-17798849D01*
X6899780Y-17527420D02*
X6899780Y-17584563D01*
X7014066Y-17527420D02*
X7014066Y-17584563D01*
X7456923Y-17941706D02*
X7442637Y-17927420D01*
X7414066Y-17884563D01*
X7399780Y-17855992D01*
X7385495Y-17813134D01*
X7371209Y-17741706D01*
X7371209Y-17684563D01*
X7385495Y-17613134D01*
X7399780Y-17570277D01*
X7414066Y-17541706D01*
X7442637Y-17498849D01*
X7456923Y-17484563D01*
X7556923Y-17555992D02*
X7571209Y-17541706D01*
X7599780Y-17527420D01*
X7671209Y-17527420D01*
X7699780Y-17541706D01*
X7714066Y-17555992D01*
X7728352Y-17584563D01*
X7728352Y-17613134D01*
X7714066Y-17655992D01*
X7542637Y-17827420D01*
X7728352Y-17827420D01*
X7914066Y-17527420D02*
X7942637Y-17527420D01*
X7971209Y-17541706D01*
X7985495Y-17555992D01*
X7999780Y-17584563D01*
X8014066Y-17641706D01*
X8014066Y-17713134D01*
X7999780Y-17770277D01*
X7985495Y-17798849D01*
X7971209Y-17813134D01*
X7942637Y-17827420D01*
X7914066Y-17827420D01*
X7885495Y-17813134D01*
X7871209Y-17798849D01*
X7856923Y-17770277D01*
X7842637Y-17713134D01*
X7842637Y-17641706D01*
X7856923Y-17584563D01*
X7871209Y-17555992D01*
X7885495Y-17541706D01*
X7914066Y-17527420D01*
X8371209Y-17827420D02*
X8371209Y-17527420D01*
X8499780Y-17827420D02*
X8499780Y-17670277D01*
X8485495Y-17641706D01*
X8456923Y-17627420D01*
X8414066Y-17627420D01*
X8385495Y-17641706D01*
X8371209Y-17655992D01*
X8685495Y-17827420D02*
X8656923Y-17813134D01*
X8642638Y-17798849D01*
X8628352Y-17770277D01*
X8628352Y-17684563D01*
X8642638Y-17655992D01*
X8656923Y-17641706D01*
X8685495Y-17627420D01*
X8728352Y-17627420D01*
X8756923Y-17641706D01*
X8771209Y-17655992D01*
X8785495Y-17684563D01*
X8785495Y-17770277D01*
X8771209Y-17798849D01*
X8756923Y-17813134D01*
X8728352Y-17827420D01*
X8685495Y-17827420D01*
X8956923Y-17827420D02*
X8928352Y-17813134D01*
X8914066Y-17784563D01*
X8914066Y-17527420D01*
X9185495Y-17813134D02*
X9156923Y-17827420D01*
X9099780Y-17827420D01*
X9071209Y-17813134D01*
X9056923Y-17784563D01*
X9056923Y-17670277D01*
X9071209Y-17641706D01*
X9099780Y-17627420D01*
X9156923Y-17627420D01*
X9185495Y-17641706D01*
X9199780Y-17670277D01*
X9199780Y-17698849D01*
X9056923Y-17727420D01*
X9314066Y-17813134D02*
X9342638Y-17827420D01*
X9399780Y-17827420D01*
X9428352Y-17813134D01*
X9442638Y-17784563D01*
X9442638Y-17770277D01*
X9428352Y-17741706D01*
X9399780Y-17727420D01*
X9356923Y-17727420D01*
X9328352Y-17713134D01*
X9314066Y-17684563D01*
X9314066Y-17670277D01*
X9328352Y-17641706D01*
X9356923Y-17627420D01*
X9399780Y-17627420D01*
X9428352Y-17641706D01*
X9542638Y-17941706D02*
X9556923Y-17927420D01*
X9585495Y-17884563D01*
X9599780Y-17855992D01*
X9614066Y-17813134D01*
X9628352Y-17741706D01*
X9628352Y-17684563D01*
X9614066Y-17613134D01*
X9599780Y-17570277D01*
X9585495Y-17541706D01*
X9556923Y-17498849D01*
X9542638Y-17484563D01*
X10085495Y-17941706D02*
X10071209Y-17927420D01*
X10042638Y-17884563D01*
X10028352Y-17855992D01*
X10014066Y-17813134D01*
X9999780Y-17741706D01*
X9999780Y-17684563D01*
X10014066Y-17613134D01*
X10028352Y-17570277D01*
X10042638Y-17541706D01*
X10071209Y-17498849D01*
X10085495Y-17484563D01*
X10199780Y-17627420D02*
X10199780Y-17827420D01*
X10199780Y-17655992D02*
X10214066Y-17641706D01*
X10242638Y-17627420D01*
X10285495Y-17627420D01*
X10314066Y-17641706D01*
X10328352Y-17670277D01*
X10328352Y-17827420D01*
X10514066Y-17827420D02*
X10485495Y-17813134D01*
X10471209Y-17798849D01*
X10456923Y-17770277D01*
X10456923Y-17684563D01*
X10471209Y-17655992D01*
X10485495Y-17641706D01*
X10514066Y-17627420D01*
X10556923Y-17627420D01*
X10585495Y-17641706D01*
X10599780Y-17655992D01*
X10614066Y-17684563D01*
X10614066Y-17770277D01*
X10599780Y-17798849D01*
X10585495Y-17813134D01*
X10556923Y-17827420D01*
X10514066Y-17827420D01*
X10699780Y-17627420D02*
X10814066Y-17627420D01*
X10742638Y-17527420D02*
X10742638Y-17784563D01*
X10756923Y-17813134D01*
X10785495Y-17827420D01*
X10814066Y-17827420D01*
X11142638Y-17627420D02*
X11142638Y-17927420D01*
X11142638Y-17641706D02*
X11171209Y-17627420D01*
X11228352Y-17627420D01*
X11256923Y-17641706D01*
X11271209Y-17655992D01*
X11285495Y-17684563D01*
X11285495Y-17770277D01*
X11271209Y-17798849D01*
X11256923Y-17813134D01*
X11228352Y-17827420D01*
X11171209Y-17827420D01*
X11142638Y-17813134D01*
X11456923Y-17827420D02*
X11428352Y-17813134D01*
X11414066Y-17784563D01*
X11414066Y-17527420D01*
X11699780Y-17827420D02*
X11699780Y-17670277D01*
X11685495Y-17641706D01*
X11656923Y-17627420D01*
X11599780Y-17627420D01*
X11571209Y-17641706D01*
X11699780Y-17813134D02*
X11671209Y-17827420D01*
X11599780Y-17827420D01*
X11571209Y-17813134D01*
X11556923Y-17784563D01*
X11556923Y-17755992D01*
X11571209Y-17727420D01*
X11599780Y-17713134D01*
X11671209Y-17713134D01*
X11699780Y-17698849D01*
X11799780Y-17627420D02*
X11914066Y-17627420D01*
X11842637Y-17527420D02*
X11842637Y-17784563D01*
X11856923Y-17813134D01*
X11885495Y-17827420D01*
X11914066Y-17827420D01*
X12128352Y-17813134D02*
X12099780Y-17827420D01*
X12042637Y-17827420D01*
X12014066Y-17813134D01*
X11999780Y-17784563D01*
X11999780Y-17670277D01*
X12014066Y-17641706D01*
X12042637Y-17627420D01*
X12099780Y-17627420D01*
X12128352Y-17641706D01*
X12142637Y-17670277D01*
X12142637Y-17698849D01*
X11999780Y-17727420D01*
X12399780Y-17827420D02*
X12399780Y-17527420D01*
X12399780Y-17813134D02*
X12371209Y-17827420D01*
X12314066Y-17827420D01*
X12285495Y-17813134D01*
X12271209Y-17798849D01*
X12256923Y-17770277D01*
X12256923Y-17684563D01*
X12271209Y-17655992D01*
X12285495Y-17641706D01*
X12314066Y-17627420D01*
X12371209Y-17627420D01*
X12399780Y-17641706D01*
X12514066Y-17941706D02*
X12528352Y-17927420D01*
X12556923Y-17884563D01*
X12571209Y-17855992D01*
X12585495Y-17813134D01*
X12599780Y-17741706D01*
X12599780Y-17684563D01*
X12585495Y-17613134D01*
X12571209Y-17570277D01*
X12556923Y-17541706D01*
X12528352Y-17498849D01*
X12514066Y-17484563D01*
M02*
