G04 #@! TF.GenerationSoftware,KiCad,Pcbnew,(5.1.4)-1*
G04 #@! TF.CreationDate,2025-05-28T14:21:51-04:00*
G04 #@! TF.ProjectId,ThumbsUp,5468756d-6273-4557-902e-6b696361645f,rev?*
G04 #@! TF.SameCoordinates,Original*
G04 #@! TF.FileFunction,Other,User*
%FSLAX46Y46*%
G04 Gerber Fmt 4.6, Leading zero omitted, Abs format (unit mm)*
G04 Created by KiCad (PCBNEW (5.1.4)-1) date 2025-05-28 14:21:51*
%MOMM*%
%LPD*%
G04 APERTURE LIST*
%ADD10C,0.050000*%
G04 APERTURE END LIST*
D10*
X111135598Y-148146399D02*
X117875926Y-139201681D01*
X113970754Y-150282842D02*
X111135598Y-148146399D01*
X120711082Y-141338124D02*
X113970754Y-150282842D01*
X117875926Y-139201681D02*
X120711082Y-141338124D01*
X78306093Y-121625395D02*
X87250811Y-128365723D01*
X76169650Y-124460551D02*
X78306093Y-121625395D01*
X85114368Y-131200879D02*
X76169650Y-124460551D01*
X87250811Y-128365723D02*
X85114368Y-131200879D01*
X172452252Y-150313557D02*
X165711924Y-141368839D01*
X175287408Y-148177114D02*
X172452252Y-150313557D01*
X168547080Y-139232396D02*
X175287408Y-148177114D01*
X165711924Y-141368839D02*
X168547080Y-139232396D01*
X201093927Y-127093334D02*
X210038645Y-120353006D01*
X203230370Y-129928490D02*
X201093927Y-127093334D01*
X212175088Y-123188162D02*
X203230370Y-129928490D01*
X210038645Y-120353006D02*
X212175088Y-123188162D01*
X141430000Y-82620000D02*
X141430000Y-71420000D01*
X144980000Y-82620000D02*
X141430000Y-82620000D01*
X144980000Y-71420000D02*
X144980000Y-82620000D01*
X141430000Y-71420000D02*
X144980000Y-71420000D01*
M02*
