%FSLAX45Y45*%
G04 Gerber Fmt 4.5, Leading zero omitted, Abs format (unit mm)*
G04 Created by KiCad (PCBNEW (5.1.4)-1) date 2025-05-28 10:39:36*
%MOMM*%
%LPD*%
G04 APERTURE LIST*
%ADD10C,0.050000*%
%ADD11C,0.200000*%
%ADD12C,0.300000*%
G04 APERTURE END LIST*
D10*
X19236370Y-21830817D02*
X19163668Y-19790931D01*
X19449451Y-27902886D02*
X19793078Y-28178005D01*
X24097781Y-28029756D02*
X19793078Y-28178005D01*
X19236370Y-21830817D02*
X19449451Y-27902886D01*
X19861669Y-21318863D02*
G75*
G02X19768583Y-21232059I-3141J89945D01*
G01*
X20861060Y-21283963D02*
X19861669Y-21318863D01*
X19649766Y-19835354D02*
X20089498Y-19819999D01*
X19661188Y-20735504D02*
X19647228Y-20335748D01*
X20968962Y-19789287D02*
X20529230Y-19804643D01*
X21056401Y-21147063D02*
X21041045Y-20707331D01*
X20947864Y-21190877D02*
G75*
G02X20861060Y-21283963I-89945J-3141D01*
G01*
X20509940Y-19825329D02*
G75*
G02X20529230Y-19804643I19988J698D01*
G01*
X21017821Y-21188434D02*
X20947864Y-21190877D01*
X19611187Y-19876726D02*
G75*
G02X19649766Y-19835354I39976J1396D01*
G01*
X20110184Y-19839288D02*
X20509940Y-19825329D01*
X20968962Y-19789287D02*
G75*
G02X21010334Y-19827867I1396J-39976D01*
G01*
X19611187Y-19876726D02*
X19626542Y-20316458D01*
X19641898Y-20756190D02*
G75*
G02X19661188Y-20735504I19988J698D01*
G01*
X21020360Y-20688041D02*
G75*
G02X21041045Y-20707331I698J-19988D01*
G01*
X21010334Y-19827867D02*
X21025690Y-20267599D01*
X21006400Y-20288284D02*
X21020359Y-20688041D01*
X21056401Y-21147063D02*
G75*
G02X21017821Y-21188434I-39976J-1396D01*
G01*
X19698626Y-21234502D02*
X19768583Y-21232059D01*
X20089498Y-19819999D02*
G75*
G02X20110184Y-19839288I698J-19988D01*
G01*
X21025690Y-20267599D02*
G75*
G02X21006400Y-20288284I-19988J-698D01*
G01*
X19698626Y-21234501D02*
G75*
G02X19657254Y-21195922I-1396J39976D01*
G01*
X19657254Y-21195922D02*
X19641898Y-20756190D01*
X19647228Y-20335748D02*
G75*
G02X19626542Y-20316458I-698J19988D01*
G01*
X21776154Y-21760276D02*
G75*
G02X21683068Y-21673472I-3141J89945D01*
G01*
X22775545Y-21725376D02*
X21776154Y-21760276D01*
X21564252Y-20276767D02*
X22003984Y-20261412D01*
X21575673Y-21176917D02*
X21561714Y-20777161D01*
X22883447Y-20230700D02*
X22443715Y-20246056D01*
X22970886Y-21588476D02*
X22955531Y-21148744D01*
X22862349Y-21632290D02*
G75*
G02X22775545Y-21725376I-89945J-3141D01*
G01*
X22424426Y-20266742D02*
G75*
G02X22443715Y-20246056I19988J698D01*
G01*
X22932307Y-21629847D02*
X22862349Y-21632290D01*
X21525672Y-20318139D02*
G75*
G02X21564252Y-20276767I39976J1396D01*
G01*
X22024669Y-20280701D02*
X22424426Y-20266742D01*
X22883448Y-20230700D02*
G75*
G02X22924819Y-20269280I1396J-39976D01*
G01*
X21525672Y-20318139D02*
X21541028Y-20757871D01*
X21556384Y-21197603D02*
G75*
G02X21575673Y-21176917I19988J698D01*
G01*
X22934845Y-21129454D02*
G75*
G02X22955531Y-21148744I698J-19988D01*
G01*
X22924819Y-20269280D02*
X22940175Y-20709012D01*
X22920885Y-20729698D02*
X22934845Y-21129454D01*
X22970887Y-21588476D02*
G75*
G02X22932307Y-21629847I-39976J-1396D01*
G01*
X21613111Y-21675915D02*
X21683068Y-21673472D01*
X22003984Y-20261412D02*
G75*
G02X22024669Y-20280701I698J-19988D01*
G01*
X22940175Y-20709012D02*
G75*
G02X22920885Y-20729698I-19988J-698D01*
G01*
X21613111Y-21675915D02*
G75*
G02X21571739Y-21637335I-1396J39976D01*
G01*
X21571739Y-21637335D02*
X21556384Y-21197603D01*
X21561714Y-20777161D02*
G75*
G02X21541028Y-20757871I-698J19988D01*
G01*
X23695086Y-22189473D02*
G75*
G02X23602000Y-22102669I-3141J89945D01*
G01*
X24694477Y-22154573D02*
X23695086Y-22189473D01*
X23483183Y-20705964D02*
X23922915Y-20690609D01*
X23494605Y-21606114D02*
X23480645Y-21206358D01*
X24802379Y-20659897D02*
X24362647Y-20675253D01*
X24889818Y-22017673D02*
X24874462Y-21577941D01*
X24781281Y-22061487D02*
G75*
G02X24694477Y-22154573I-89945J-3141D01*
G01*
X24343357Y-20695939D02*
G75*
G02X24362647Y-20675253I19988J698D01*
G01*
X24851239Y-22059044D02*
X24781281Y-22061487D01*
X23444604Y-20747336D02*
G75*
G02X23483183Y-20705964I39976J1396D01*
G01*
X23943601Y-20709898D02*
X24343357Y-20695939D01*
X24802379Y-20659897D02*
G75*
G02X24843751Y-20698477I1396J-39976D01*
G01*
X23444604Y-20747336D02*
X23459959Y-21187068D01*
X23475315Y-21626800D02*
G75*
G02X23494605Y-21606114I19988J698D01*
G01*
X24853777Y-21558651D02*
G75*
G02X24874462Y-21577941I698J-19988D01*
G01*
X24843751Y-20698477D02*
X24859107Y-21138209D01*
X24839817Y-21158895D02*
X24853777Y-21558651D01*
X24889818Y-22017673D02*
G75*
G02X24851239Y-22059044I-39976J-1396D01*
G01*
X23532043Y-22105112D02*
X23602000Y-22102669D01*
X23922915Y-20690609D02*
G75*
G02X23943601Y-20709898I698J-19988D01*
G01*
X24859107Y-21138209D02*
G75*
G02X24839817Y-21158895I-19988J-698D01*
G01*
X23532043Y-22105112D02*
G75*
G02X23490671Y-22066532I-1396J39976D01*
G01*
X23490671Y-22066532D02*
X23475315Y-21626800D01*
X23480645Y-21206358D02*
G75*
G02X23459959Y-21187068I-698J19988D01*
G01*
X25584635Y-21725772D02*
G75*
G02X25491549Y-21638968I-3141J89945D01*
G01*
X26584026Y-21690873D02*
X25584635Y-21725772D01*
X25372732Y-20242264D02*
X25812464Y-20226908D01*
X25384154Y-21142413D02*
X25370194Y-20742657D01*
X26691928Y-20196196D02*
X26252196Y-20211552D01*
X26779367Y-21553972D02*
X26764011Y-21114240D01*
X26670830Y-21597786D02*
G75*
G02X26584026Y-21690873I-89945J-3141D01*
G01*
X26232906Y-20232238D02*
G75*
G02X26252196Y-20211552I19988J698D01*
G01*
X26740787Y-21595343D02*
X26670830Y-21597786D01*
X25334152Y-20283635D02*
G75*
G02X25372732Y-20242264I39976J1396D01*
G01*
X25833150Y-20246198D02*
X26232906Y-20232238D01*
X26691928Y-20196196D02*
G75*
G02X26733300Y-20234776I1396J-39976D01*
G01*
X25334152Y-20283635D02*
X25349508Y-20723367D01*
X25364864Y-21163099D02*
G75*
G02X25384154Y-21142413I19988J698D01*
G01*
X26743325Y-21094950D02*
G75*
G02X26764011Y-21114240I698J-19988D01*
G01*
X26733300Y-20234776D02*
X26748655Y-20674508D01*
X26729366Y-20695194D02*
X26743325Y-21094950D01*
X26779367Y-21553972D02*
G75*
G02X26740787Y-21595343I-39976J-1396D01*
G01*
X25421591Y-21641411D02*
X25491549Y-21638968D01*
X25812464Y-20226908D02*
G75*
G02X25833150Y-20246198I698J-19988D01*
G01*
X26748655Y-20674508D02*
G75*
G02X26729366Y-20695194I-19988J-698D01*
G01*
X25421591Y-21641411D02*
G75*
G02X25380220Y-21602831I-1396J39976D01*
G01*
X25380220Y-21602831D02*
X25364864Y-21163099D01*
X25370194Y-20742657D02*
G75*
G02X25349508Y-20723367I-698J19988D01*
G01*
X21501079Y-22084020D02*
G75*
G03X21501079Y-22084020I-160000J0D01*
G01*
X25069979Y-24192407D02*
G75*
G03X25069979Y-24192407I-160000J0D01*
G01*
X21766950Y-25717031D02*
G75*
G03X21766950Y-25717031I-160000J0D01*
G01*
X25276747Y-25911262D02*
X25325606Y-27310409D01*
X25425545Y-27306919D02*
G75*
G02X25325606Y-27310409I-49970J-1745D01*
G01*
X25276747Y-25911261D02*
G75*
G02X25376686Y-25907772I49970J1745D01*
G01*
X25214077Y-24036782D02*
G75*
G02X25314016Y-24033292I49970J1745D01*
G01*
X25425545Y-27306919D02*
X25376686Y-25907772D01*
X25095241Y-20458392D02*
G75*
G02X25195180Y-20454902I49970J1745D01*
G01*
X25230080Y-21454293D02*
G75*
G02X25130141Y-21457783I-49970J-1745D01*
G01*
X25095241Y-20458392D02*
X25130141Y-21457783D01*
X25230080Y-21454293D02*
X25195180Y-20454902D01*
X25151407Y-22162303D02*
X25200266Y-23561450D01*
X25151407Y-22162303D02*
G75*
G02X25251346Y-22158813I49970J1745D01*
G01*
X25300206Y-23557960D02*
G75*
G02X25200266Y-23561450I-49970J-1745D01*
G01*
X25300206Y-23557960D02*
X25251346Y-22158813D01*
X25362875Y-25432439D02*
G75*
G02X25262936Y-25435929I-49970J-1745D01*
G01*
X25214077Y-24036782D02*
X25262936Y-25435929D01*
X25362875Y-25432440D02*
X25314016Y-24033292D01*
X27224224Y-27300200D02*
X27012036Y-27527744D01*
X19350356Y-19590297D02*
X19163668Y-19790931D01*
X21249199Y-19523988D02*
X21766344Y-20006234D01*
X19350356Y-19590297D02*
X21249199Y-19523988D01*
X26746800Y-19932374D02*
X26974344Y-20144562D01*
X25340737Y-27806241D02*
X25167129Y-27992413D01*
X27012036Y-27527744D02*
X25552925Y-27578697D01*
X21766344Y-20006234D02*
X23165491Y-19957375D01*
X23165491Y-19957375D02*
X23268920Y-20053824D01*
X27224224Y-27300200D02*
X26974344Y-20144562D01*
X25552925Y-27578697D02*
X25340737Y-27806241D01*
X26746800Y-19932374D02*
X23268920Y-20053824D01*
X25167129Y-27992413D02*
X24097781Y-28029756D01*
X19764750Y-23137080D02*
X20204482Y-23121724D01*
X19744032Y-23679202D02*
X19759388Y-24118934D01*
X20642786Y-23627805D02*
G75*
G02X20662075Y-23607119I19988J698D01*
G01*
X22139394Y-24056840D02*
G75*
G02X22160080Y-24076130I698J-19988D01*
G01*
X21101807Y-23591763D02*
X20662075Y-23607119D01*
X20710935Y-25006266D02*
G75*
G02X20690249Y-24986976I-698J19988D01*
G01*
X21101807Y-23591763D02*
G75*
G02X21143179Y-23630343I1396J-39976D01*
G01*
X19782612Y-23637831D02*
X20222343Y-23622475D01*
X19713353Y-22238327D02*
G75*
G02X19692667Y-22219037I-698J19988D01*
G01*
X20290493Y-25000936D02*
G75*
G02X20271203Y-25021622I-19988J-698D01*
G01*
X19790099Y-24998398D02*
X19774744Y-24558666D01*
X22627985Y-25440632D02*
G75*
G02X22607300Y-25421342I-698J19988D01*
G01*
X21158535Y-24070075D02*
G75*
G02X21139245Y-24090761I-19988J-698D01*
G01*
X21707150Y-25432764D02*
X21691794Y-24993032D01*
X20623529Y-23087079D02*
X20223772Y-23101039D01*
X19744032Y-23679202D02*
G75*
G02X19782612Y-23637831I39976J1396D01*
G01*
X19831471Y-25036978D02*
G75*
G02X19790099Y-24998398I-1396J39976D01*
G01*
X21122526Y-23049641D02*
G75*
G02X21083946Y-23091013I-39976J-1396D01*
G01*
X21083946Y-23091013D02*
X20644214Y-23106369D01*
X19727313Y-22638083D02*
X19713353Y-22238327D01*
X19780074Y-24138224D02*
G75*
G02X19759388Y-24118934I-698J19988D01*
G01*
X19794033Y-24537980D02*
X19780074Y-24138224D01*
X23056296Y-24525126D02*
X23070255Y-24924882D01*
X19715891Y-21737933D02*
X20155623Y-21722577D01*
X21691794Y-24993032D02*
G75*
G02X21711084Y-24972346I19988J698D01*
G01*
X21661083Y-24113568D02*
G75*
G02X21699662Y-24072196I39976J1396D01*
G01*
X19677311Y-21779305D02*
X19692667Y-22219037D01*
X21122526Y-23049641D02*
X21107170Y-22609909D01*
X20690249Y-24986976D02*
X20290493Y-25000936D01*
X21189246Y-24949539D02*
G75*
G02X21150667Y-24990910I-39976J-1396D01*
G01*
X19831471Y-25036978D02*
X20271203Y-25021622D01*
X23018858Y-24026129D02*
G75*
G02X23060230Y-24064708I1396J-39976D01*
G01*
X22160080Y-24076130D02*
X22559836Y-24062170D01*
X23067717Y-25425276D02*
X22627985Y-25440632D01*
X20176309Y-21741867D02*
X20576065Y-21727907D01*
X23075585Y-24504440D02*
G75*
G02X23056296Y-24525126I-19988J-698D01*
G01*
X21697124Y-24572589D02*
G75*
G02X21676438Y-24553300I-698J19988D01*
G01*
X23018858Y-24026129D02*
X22579126Y-24041485D01*
X23106297Y-25383904D02*
G75*
G02X23067717Y-25425276I-39976J-1396D01*
G01*
X21072525Y-22190863D02*
X21086484Y-22590620D01*
X19774744Y-24558666D02*
G75*
G02X19794033Y-24537980I19988J698D01*
G01*
X21189246Y-24949539D02*
X21173891Y-24509807D01*
X21153205Y-24490517D02*
G75*
G02X21173891Y-24509807I698J-19988D01*
G01*
X23070255Y-24924883D02*
G75*
G02X23090941Y-24944172I698J-19988D01*
G01*
X21748522Y-25471343D02*
X22188253Y-25455987D01*
X23060230Y-24064708D02*
X23075585Y-24504440D01*
X19677311Y-21779305D02*
G75*
G02X19715891Y-21737933I39976J1396D01*
G01*
X21076459Y-21730445D02*
X21091814Y-22170177D01*
X21661083Y-24113568D02*
X21676438Y-24553300D01*
X20243029Y-23641765D02*
X20642786Y-23627805D01*
X22607300Y-25421342D02*
X22207543Y-25435302D01*
X21748522Y-25471343D02*
G75*
G02X21707150Y-25432764I-1396J39976D01*
G01*
X22559836Y-24062170D02*
G75*
G02X22579126Y-24041485I19988J698D01*
G01*
X21091814Y-22170178D02*
G75*
G02X21072525Y-22190863I-19988J-698D01*
G01*
X21086484Y-22590620D02*
G75*
G02X21107170Y-22609909I698J-19988D01*
G01*
X20576065Y-21727908D02*
G75*
G02X20595355Y-21707222I19988J698D01*
G01*
X20222344Y-23622475D02*
G75*
G02X20243029Y-23641765I698J-19988D01*
G01*
X21139245Y-24090761D02*
X21153205Y-24490517D01*
X21150667Y-24990910D02*
X20710935Y-25006266D01*
X19723379Y-23098501D02*
X19708023Y-22658769D01*
X19708023Y-22658769D02*
G75*
G02X19727313Y-22638083I19988J698D01*
G01*
X20223772Y-23101039D02*
G75*
G02X20204482Y-23121724I-19988J-698D01*
G01*
X21143179Y-23630343D02*
X21158535Y-24070075D01*
X21035087Y-21691866D02*
G75*
G02X21076459Y-21730445I1396J-39976D01*
G01*
X23576639Y-24544729D02*
G75*
G02X23615218Y-24503357I39976J1396D01*
G01*
X24971852Y-24956287D02*
X24985812Y-25356044D01*
X24934414Y-24457290D02*
G75*
G02X24975786Y-24495869I1396J-39976D01*
G01*
X25549569Y-25436794D02*
X25989301Y-25421439D01*
X25940442Y-24022292D02*
G75*
G02X25961127Y-24041581I698J-19988D01*
G01*
X24475393Y-24493331D02*
G75*
G02X24494682Y-24472646I19988J698D01*
G01*
X25500710Y-24037647D02*
X25940442Y-24022292D01*
X24975786Y-24495869D02*
X24991142Y-24935601D01*
X26861277Y-24030160D02*
X26876633Y-24469892D01*
X26907344Y-25349356D02*
X26891989Y-24909624D01*
X25616289Y-27336692D02*
G75*
G02X25574918Y-27298112I-1396J39976D01*
G01*
X25462130Y-24079019D02*
X25477486Y-24518751D01*
X26819905Y-23991580D02*
G75*
G02X26861277Y-24030160I1396J-39976D01*
G01*
X26007162Y-25922189D02*
G75*
G02X26027848Y-25941479I698J-19988D01*
G01*
X25462130Y-24079019D02*
G75*
G02X25500710Y-24037647I39976J1396D01*
G01*
X26495753Y-27305981D02*
G75*
G02X26475068Y-27286691I-698J19988D01*
G01*
X21711084Y-24972346D02*
X21697124Y-24572589D01*
X23664078Y-25902504D02*
G75*
G02X23622706Y-25863925I-1396J39976D01*
G01*
X24543542Y-25871793D02*
G75*
G02X24522856Y-25852503I-698J19988D01*
G01*
X25021853Y-25815065D02*
X25006498Y-25375333D01*
X25549569Y-25436794D02*
G75*
G02X25508197Y-25398215I-1396J39976D01*
G01*
X23607350Y-25424193D02*
G75*
G02X23626640Y-25403507I19988J698D01*
G01*
X25512131Y-24937797D02*
X25498172Y-24538041D01*
X24934414Y-24457290D02*
X24494682Y-24472646D01*
X25021853Y-25815065D02*
G75*
G02X24983274Y-25856437I-39976J-1396D01*
G01*
X24983274Y-25856437D02*
X24543542Y-25871793D01*
X26008591Y-25400753D02*
G75*
G02X25989301Y-25421439I-19988J-698D01*
G01*
X24054950Y-24488001D02*
G75*
G02X24075636Y-24507291I698J-19988D01*
G01*
X23626640Y-25403507D02*
X23612680Y-25003751D01*
X24123100Y-25866463D02*
G75*
G02X24103810Y-25887148I-19988J-698D01*
G01*
X26938023Y-26790231D02*
G75*
G02X26958709Y-26809521I698J-19988D01*
G01*
X23612681Y-25003750D02*
G75*
G02X23591995Y-24984461I-698J19988D01*
G01*
X24075636Y-24507291D02*
X24475393Y-24493331D01*
X25574918Y-27298112D02*
X25559562Y-26858381D01*
X26408347Y-25386793D02*
X26008591Y-25400753D01*
X25559562Y-26858380D02*
G75*
G02X25578852Y-26837695I19988J698D01*
G01*
X25498172Y-24538041D02*
G75*
G02X25477486Y-24518751I-698J19988D01*
G01*
X23106297Y-25383904D02*
X23090941Y-24944172D01*
X26886626Y-25891478D02*
X26446894Y-25906833D01*
X26360884Y-24027622D02*
G75*
G02X26380174Y-24006936I19988J698D01*
G01*
X26924064Y-26390475D02*
X26938023Y-26790231D01*
X25564892Y-26437938D02*
G75*
G02X25544206Y-26418649I-698J19988D01*
G01*
X26974065Y-27249253D02*
G75*
G02X26935485Y-27290625I-39976J-1396D01*
G01*
X23664078Y-25902504D02*
X24103810Y-25887148D01*
X25961127Y-24041581D02*
X26360884Y-24027622D01*
X24985812Y-25356044D02*
G75*
G02X25006498Y-25375333I698J-19988D01*
G01*
X26876633Y-24469892D02*
G75*
G02X26857343Y-24490577I-19988J-698D01*
G01*
X23615218Y-24503357D02*
X24054950Y-24488001D01*
X26907344Y-25349356D02*
G75*
G02X26868765Y-25390727I-39976J-1396D01*
G01*
X25528851Y-25978917D02*
G75*
G02X25567430Y-25937545I39976J1396D01*
G01*
X24522856Y-25852503D02*
X24123100Y-25866463D01*
X26429033Y-25406083D02*
G75*
G02X26408347Y-25386793I-698J19988D01*
G01*
X26886626Y-25891478D02*
G75*
G02X26927998Y-25930057I1396J-39976D01*
G01*
X21699662Y-24072196D02*
X22139394Y-24056840D01*
X26868765Y-25390727D02*
X26429033Y-25406083D01*
X25492842Y-24958483D02*
G75*
G02X25512131Y-24937797I19988J698D01*
G01*
X26819905Y-23991580D02*
X26380174Y-24006936D01*
X22207543Y-25435302D02*
G75*
G02X22188253Y-25455987I-19988J-698D01*
G01*
X24991142Y-24935601D02*
G75*
G02X24971852Y-24956287I-19988J-698D01*
G01*
X23576639Y-24544729D02*
X23591995Y-24984461D01*
X26871303Y-24890334D02*
G75*
G02X26891989Y-24909624I698J-19988D01*
G01*
X25508197Y-25398215D02*
X25492842Y-24958483D01*
X23622706Y-25863925D02*
X23607350Y-25424193D01*
X26857343Y-24490577D02*
X26871303Y-24890334D01*
X20775306Y-26905309D02*
G75*
G02X20754620Y-26886019I-698J19988D01*
G01*
X25001135Y-26357187D02*
X24561403Y-26372543D01*
X21813748Y-27368036D02*
G75*
G02X21772376Y-27329457I-1396J39976D01*
G01*
X21762350Y-26469283D02*
G75*
G02X21741665Y-26449993I-698J19988D01*
G01*
X26075311Y-27300650D02*
G75*
G02X26056021Y-27321336I-19988J-698D01*
G01*
X26943353Y-26369789D02*
G75*
G02X26924064Y-26390475I-19988J-698D01*
G01*
X25052532Y-27255941D02*
G75*
G02X25073218Y-27275231I698J-19988D01*
G01*
X23689427Y-27763822D02*
X23674071Y-27324090D01*
X23674071Y-27324090D02*
G75*
G02X23693361Y-27303404I19988J698D01*
G01*
X25057862Y-26835499D02*
G75*
G02X25038572Y-26856185I-19988J-698D01*
G01*
X22204620Y-25953534D02*
G75*
G02X22225306Y-25972823I698J-19988D01*
G01*
X22693212Y-27337325D02*
G75*
G02X22672526Y-27318035I-698J19988D01*
G01*
X23730798Y-27802402D02*
G75*
G02X23689427Y-27763822I-1396J39976D01*
G01*
X26935485Y-27290625D02*
X26495753Y-27305981D01*
X26927998Y-25930057D02*
X26943353Y-26369789D01*
X25042506Y-26395767D02*
X25057862Y-26835499D01*
X24589576Y-27752401D02*
X24189820Y-27766360D01*
X23643359Y-26444626D02*
G75*
G02X23681939Y-26403255I39976J1396D01*
G01*
X23135482Y-26821576D02*
G75*
G02X23156167Y-26840866I698J-19988D01*
G01*
X23121522Y-26421819D02*
X23135482Y-26821576D01*
X25001135Y-26357187D02*
G75*
G02X25042506Y-26395767I1396J-39976D01*
G01*
X23171523Y-27280597D02*
G75*
G02X23132944Y-27321969I-39976J-1396D01*
G01*
X25049994Y-27756335D02*
X24610262Y-27771690D01*
X23132944Y-27321969D02*
X22693212Y-27337325D01*
X24142357Y-26407189D02*
X24542113Y-26393229D01*
X23681939Y-26403255D02*
X24121671Y-26387899D01*
X21757020Y-26889725D02*
G75*
G02X21776310Y-26869039I19988J698D01*
G01*
X23140812Y-26401134D02*
G75*
G02X23121522Y-26421819I-19988J-698D01*
G01*
X21772376Y-27329457D02*
X21757020Y-26889725D01*
X22672526Y-27318035D02*
X22272770Y-27331995D01*
X22272770Y-27331995D02*
G75*
G02X22253480Y-27352681I-19988J-698D01*
G01*
X21764888Y-25968889D02*
X22204620Y-25953534D01*
X25567430Y-25937545D02*
X26007162Y-25922189D01*
X21776310Y-26869039D02*
X21762350Y-26469283D01*
X23171523Y-27280598D02*
X23156167Y-26840866D01*
X23084084Y-25922822D02*
X22644352Y-25938178D01*
X25578852Y-26837695D02*
X25564892Y-26437938D01*
X23125456Y-25961402D02*
X23140812Y-26401134D01*
X26475068Y-27286691D02*
X26075311Y-27300650D01*
X26974065Y-27249253D02*
X26958709Y-26809521D01*
X24121671Y-26387899D02*
G75*
G02X24142357Y-26407189I698J-19988D01*
G01*
X24610262Y-27771690D02*
G75*
G02X24589576Y-27752401I-698J19988D01*
G01*
X25038572Y-26856185D02*
X25052532Y-27255941D01*
X25528851Y-25978917D02*
X25544206Y-26418649D01*
X23679401Y-26903648D02*
G75*
G02X23658715Y-26884358I-698J19988D01*
G01*
X25088574Y-27714963D02*
G75*
G02X25049994Y-27756335I-39976J-1396D01*
G01*
X23643359Y-26444626D02*
X23658715Y-26884358D01*
X26427604Y-25927519D02*
G75*
G02X26446894Y-25906833I19988J698D01*
G01*
X25088574Y-27714963D02*
X25073218Y-27275231D01*
X21726309Y-26010261D02*
G75*
G02X21764888Y-25968889I39976J1396D01*
G01*
X23084084Y-25922822D02*
G75*
G02X23125456Y-25961402I1396J-39976D01*
G01*
X24189820Y-27766360D02*
G75*
G02X24170530Y-27787046I-19988J-698D01*
G01*
X22625063Y-25958864D02*
G75*
G02X22644352Y-25938178I19988J698D01*
G01*
X26027848Y-25941479D02*
X26427604Y-25927519D01*
X24542113Y-26393229D02*
G75*
G02X24561403Y-26372543I19988J698D01*
G01*
X23730798Y-27802402D02*
X24170530Y-27787046D01*
X21726309Y-26010261D02*
X21741665Y-26449993D01*
X22225306Y-25972823D02*
X22625062Y-25958864D01*
X25616289Y-27336692D02*
X26056021Y-27321336D01*
X20286715Y-25521518D02*
G75*
G02X20307401Y-25540807I698J-19988D01*
G01*
X19895842Y-26936020D02*
G75*
G02X19854471Y-26897441I-1396J39976D01*
G01*
X21166179Y-25490806D02*
X20726447Y-25506162D01*
X23693361Y-27303404D02*
X23679401Y-26903648D01*
X21813748Y-27368036D02*
X22253480Y-27352681D01*
X21222906Y-25969118D02*
G75*
G02X21203616Y-25989803I-19988J-698D01*
G01*
X20307401Y-25540807D02*
X20707157Y-25526848D01*
X19844445Y-26037267D02*
G75*
G02X19823759Y-26017977I-698J19988D01*
G01*
X19846983Y-25536873D02*
X20286715Y-25521517D01*
X21207550Y-25529385D02*
X21222906Y-25969117D01*
X21253618Y-26848581D02*
X21238262Y-26408849D01*
X19854471Y-26897441D02*
X19839115Y-26457709D01*
X21215038Y-26889953D02*
X20775306Y-26905309D01*
X19839115Y-26457709D02*
G75*
G02X19858405Y-26437023I19988J698D01*
G01*
X19858405Y-26437023D02*
X19844445Y-26037267D01*
X21217576Y-26389560D02*
G75*
G02X21238262Y-26408849I698J-19988D01*
G01*
X19808403Y-25578245D02*
X19823759Y-26017977D01*
X20354864Y-26899979D02*
G75*
G02X20335574Y-26920665I-19988J-698D01*
G01*
X19808403Y-25578245D02*
G75*
G02X19846983Y-25536873I39976J1396D01*
G01*
X20707157Y-25526847D02*
G75*
G02X20726447Y-25506162I19988J698D01*
G01*
X20754620Y-26886019D02*
X20354864Y-26899979D01*
X21253618Y-26848581D02*
G75*
G02X21215038Y-26889953I-39976J-1396D01*
G01*
X21166179Y-25490806D02*
G75*
G02X21207550Y-25529385I1396J-39976D01*
G01*
X19895842Y-26936020D02*
X20335574Y-26920665D01*
X21203616Y-25989803D02*
X21217576Y-26389560D01*
X26803727Y-22992785D02*
G75*
G02X26824413Y-23012075I698J-19988D01*
G01*
X25444556Y-23040249D02*
X25430596Y-22640492D01*
X26839769Y-23451807D02*
G75*
G02X26801189Y-23493179I-39976J-1396D01*
G01*
X25941015Y-23503204D02*
G75*
G02X25921725Y-23523890I-19988J-698D01*
G01*
X25433134Y-22140099D02*
X25872866Y-22124743D01*
X26361457Y-23508534D02*
G75*
G02X26340772Y-23489245I-698J19988D01*
G01*
X26839769Y-23451807D02*
X26824413Y-23012075D01*
X24008061Y-22609743D02*
X24407817Y-22595783D01*
X26801189Y-23493179D02*
X26361457Y-23508535D01*
X25425266Y-23060934D02*
G75*
G02X25444556Y-23040249I19988J698D01*
G01*
X25893552Y-22144033D02*
X26293308Y-22130073D01*
X26809057Y-22572343D02*
G75*
G02X26789768Y-22593029I-19988J-698D01*
G01*
X26293308Y-22130073D02*
G75*
G02X26312598Y-22109388I19988J698D01*
G01*
X25394554Y-22181471D02*
X25409910Y-22621203D01*
X24915698Y-23958889D02*
X24475966Y-23974244D01*
X25481994Y-23539246D02*
G75*
G02X25440622Y-23500667I-1396J39976D01*
G01*
X26789768Y-22593029D02*
X26803727Y-22992785D01*
X23555131Y-23966376D02*
X23539775Y-23526644D01*
X23987375Y-22590453D02*
G75*
G02X24008061Y-22609743I698J-19988D01*
G01*
X24475966Y-23974244D02*
G75*
G02X24455280Y-23954955I-698J19988D01*
G01*
X23539775Y-23526644D02*
G75*
G02X23559065Y-23505959I19988J698D01*
G01*
X23545105Y-23106202D02*
G75*
G02X23524419Y-23086912I-698J19988D01*
G01*
X25872866Y-22124743D02*
G75*
G02X25893552Y-22144033I698J-19988D01*
G01*
X24954278Y-23917517D02*
G75*
G02X24915698Y-23958889I-39976J-1396D01*
G01*
X23509063Y-22647180D02*
G75*
G02X23547643Y-22605809I39976J1396D01*
G01*
X25481993Y-23539246D02*
X25921725Y-23523890D01*
X24866839Y-22559741D02*
G75*
G02X24908210Y-22598321I1396J-39976D01*
G01*
X24923566Y-23038053D02*
G75*
G02X24904276Y-23058739I-19988J-698D01*
G01*
X24908210Y-22598321D02*
X24923566Y-23038053D01*
X26752330Y-22094032D02*
X26312598Y-22109388D01*
X24407817Y-22595783D02*
G75*
G02X24427107Y-22575097I19988J698D01*
G01*
X23509063Y-22647180D02*
X23524419Y-23086912D01*
X24455280Y-23954955D02*
X24055524Y-23968914D01*
X23559065Y-23505959D02*
X23545105Y-23106202D01*
X24055524Y-23968914D02*
G75*
G02X24036234Y-23989600I-19988J-698D01*
G01*
X26793702Y-22132611D02*
X26809057Y-22572343D01*
X23596502Y-24004956D02*
X24036234Y-23989600D01*
X23547643Y-22605809D02*
X23987375Y-22590453D01*
X26340772Y-23489245D02*
X25941015Y-23503205D01*
X24954278Y-23917517D02*
X24938922Y-23477785D01*
X25430596Y-22640492D02*
G75*
G02X25409910Y-22621203I-698J19988D01*
G01*
X25394555Y-22181471D02*
G75*
G02X25433134Y-22140099I39976J1396D01*
G01*
X24918236Y-23458495D02*
G75*
G02X24938922Y-23477785I698J-19988D01*
G01*
X26752330Y-22094032D02*
G75*
G02X26793702Y-22132611I1396J-39976D01*
G01*
X23596502Y-24004956D02*
G75*
G02X23555131Y-23966376I-1396J39976D01*
G01*
X24866839Y-22559741D02*
X24427107Y-22575097D01*
X24904276Y-23058739D02*
X24918236Y-23458495D01*
X25440622Y-23500667D02*
X25425266Y-23060935D01*
X22989575Y-22625228D02*
X23003535Y-23024985D01*
X21630404Y-22672692D02*
G75*
G02X21609718Y-22653402I-698J19988D01*
G01*
X21594362Y-22213670D02*
G75*
G02X21632942Y-22172299I39976J1396D01*
G01*
X22561265Y-23540734D02*
G75*
G02X22540579Y-23521444I-698J19988D01*
G01*
X23003535Y-23024985D02*
G75*
G02X23024221Y-23044275I698J-19988D01*
G01*
X21681801Y-23571446D02*
X22121533Y-23556090D01*
X22072674Y-22156943D02*
G75*
G02X22093359Y-22176233I698J-19988D01*
G01*
X21625074Y-23093134D02*
G75*
G02X21644363Y-23072448I19988J698D01*
G01*
X22093359Y-22176233D02*
X22493116Y-22162273D01*
X23008865Y-22604543D02*
G75*
G02X22989575Y-22625228I-19988J-698D01*
G01*
X21594362Y-22213670D02*
X21609718Y-22653402D01*
X22540579Y-23521444D02*
X22140823Y-23535404D01*
X21644363Y-23072448D02*
X21630404Y-22672692D01*
X21640429Y-23532866D02*
X21625074Y-23093134D01*
X22493116Y-22162273D02*
G75*
G02X22512405Y-22141587I19988J698D01*
G01*
X22952137Y-22126231D02*
G75*
G02X22993509Y-22164811I1396J-39976D01*
G01*
X20155623Y-21722577D02*
G75*
G02X20176309Y-21741867I698J-19988D01*
G01*
X21035087Y-21691866D02*
X20595355Y-21707222D01*
X23039576Y-23484007D02*
G75*
G02X23000997Y-23525378I-39976J-1396D01*
G01*
X22140823Y-23535404D02*
G75*
G02X22121533Y-23556090I-19988J-698D01*
G01*
X23039576Y-23484007D02*
X23024221Y-23044275D01*
X22952137Y-22126231D02*
X22512405Y-22141587D01*
X21681801Y-23571446D02*
G75*
G02X21640429Y-23532866I-1396J39976D01*
G01*
X23000997Y-23525378D02*
X22561265Y-23540734D01*
X21632942Y-22172299D02*
X22072674Y-22156943D01*
X22993509Y-22164811D02*
X23008865Y-22604543D01*
X19764750Y-23137080D02*
G75*
G02X19723379Y-23098501I-1396J39976D01*
G01*
X20644214Y-23106369D02*
G75*
G02X20623529Y-23087079I-698J19988D01*
G01*
D11*
D12*
X19447596Y-28646219D02*
X19447596Y-28346219D01*
X19519025Y-28346219D01*
X19561882Y-28360505D01*
X19590453Y-28389076D01*
X19604739Y-28417648D01*
X19619025Y-28474790D01*
X19619025Y-28517648D01*
X19604739Y-28574790D01*
X19590453Y-28603362D01*
X19561882Y-28631933D01*
X19519025Y-28646219D01*
X19447596Y-28646219D01*
X19747596Y-28646219D02*
X19747596Y-28446219D01*
X19747596Y-28503362D02*
X19761882Y-28474790D01*
X19776168Y-28460505D01*
X19804739Y-28446219D01*
X19833310Y-28446219D01*
X19933310Y-28646219D02*
X19933310Y-28446219D01*
X19933310Y-28346219D02*
X19919025Y-28360505D01*
X19933310Y-28374790D01*
X19947596Y-28360505D01*
X19933310Y-28346219D01*
X19933310Y-28374790D01*
X20119025Y-28646219D02*
X20090453Y-28631933D01*
X20076168Y-28603362D01*
X20076168Y-28346219D01*
X20276168Y-28646219D02*
X20247596Y-28631933D01*
X20233310Y-28603362D01*
X20233310Y-28346219D01*
X20619025Y-28646219D02*
X20619025Y-28346219D01*
X20719025Y-28560505D01*
X20819025Y-28346219D01*
X20819025Y-28646219D01*
X21090453Y-28646219D02*
X21090453Y-28489076D01*
X21076168Y-28460505D01*
X21047596Y-28446219D01*
X20990453Y-28446219D01*
X20961882Y-28460505D01*
X21090453Y-28631933D02*
X21061882Y-28646219D01*
X20990453Y-28646219D01*
X20961882Y-28631933D01*
X20947596Y-28603362D01*
X20947596Y-28574790D01*
X20961882Y-28546219D01*
X20990453Y-28531933D01*
X21061882Y-28531933D01*
X21090453Y-28517648D01*
X21233310Y-28446219D02*
X21233310Y-28746219D01*
X21233310Y-28460505D02*
X21261882Y-28446219D01*
X21319025Y-28446219D01*
X21347596Y-28460505D01*
X21361882Y-28474790D01*
X21376168Y-28503362D01*
X21376168Y-28589076D01*
X21361882Y-28617648D01*
X21347596Y-28631933D01*
X21319025Y-28646219D01*
X21261882Y-28646219D01*
X21233310Y-28631933D01*
X21504739Y-28617648D02*
X21519025Y-28631933D01*
X21504739Y-28646219D01*
X21490453Y-28631933D01*
X21504739Y-28617648D01*
X21504739Y-28646219D01*
X21504739Y-28460505D02*
X21519025Y-28474790D01*
X21504739Y-28489076D01*
X21490453Y-28474790D01*
X21504739Y-28460505D01*
X21504739Y-28489076D01*
M02*
