G04 #@! TF.GenerationSoftware,KiCad,Pcbnew,9.0.2*
G04 #@! TF.CreationDate,2025-05-27T21:30:54-04:00*
G04 #@! TF.ProjectId,ThumbsUp_SwitchPlates,5468756d-6273-4557-905f-537769746368,rev?*
G04 #@! TF.SameCoordinates,Original*
G04 #@! TF.FileFunction,OtherDrawing,Comment*
%FSLAX46Y46*%
G04 Gerber Fmt 4.6, Leading zero omitted, Abs format (unit mm)*
G04 Created by KiCad (PCBNEW 9.0.2) date 2025-05-27 21:30:54*
%MOMM*%
%LPD*%
G01*
G04 APERTURE LIST*
%ADD10C,0.150000*%
G04 #@! TA.AperFunction,Profile*
%ADD11C,0.050000*%
G04 #@! TD*
G04 APERTURE END LIST*
D10*
X151647624Y-68589130D02*
X151160178Y-68272483D01*
X151117804Y-68803191D02*
X150743198Y-67876007D01*
X150743198Y-67876007D02*
X151096411Y-67733300D01*
X151096411Y-67733300D02*
X151202552Y-67741774D01*
X151202552Y-67741774D02*
X151264542Y-67768088D01*
X151264542Y-67768088D02*
X151344371Y-67838552D01*
X151344371Y-67838552D02*
X151397886Y-67971007D01*
X151397886Y-67971007D02*
X151389411Y-68077149D01*
X151389411Y-68077149D02*
X151363098Y-68139139D01*
X151363098Y-68139139D02*
X151292633Y-68218967D01*
X151292633Y-68218967D02*
X150939420Y-68361675D01*
X151848766Y-67942916D02*
X152157827Y-67818048D01*
X152486504Y-68250200D02*
X152044988Y-68428584D01*
X152044988Y-68428584D02*
X151670382Y-67501400D01*
X151670382Y-67501400D02*
X152111898Y-67323016D01*
X152996708Y-67479118D02*
X152687646Y-67603987D01*
X152883869Y-68089654D02*
X152509262Y-67162470D01*
X152509262Y-67162470D02*
X152950778Y-66984086D01*
X153436446Y-66787864D02*
X153525638Y-67008622D01*
X153269203Y-67009511D02*
X153525638Y-67008622D01*
X153525638Y-67008622D02*
X153710720Y-66831127D01*
X153464537Y-67238744D02*
X153525638Y-67008622D01*
X153525638Y-67008622D02*
X153729447Y-67131713D01*
X154142872Y-66502449D02*
X154232064Y-66723207D01*
X153975630Y-66724096D02*
X154232064Y-66723207D01*
X154232064Y-66723207D02*
X154417146Y-66545712D01*
X154170963Y-66953329D02*
X154232064Y-66723207D01*
X154232064Y-66723207D02*
X154435873Y-66846298D01*
X135529557Y-79415391D02*
X135042111Y-79098744D01*
X134999737Y-79629452D02*
X134625131Y-78702268D01*
X134625131Y-78702268D02*
X134978344Y-78559561D01*
X134978344Y-78559561D02*
X135084485Y-78568035D01*
X135084485Y-78568035D02*
X135146475Y-78594349D01*
X135146475Y-78594349D02*
X135226304Y-78664813D01*
X135226304Y-78664813D02*
X135279819Y-78797268D01*
X135279819Y-78797268D02*
X135271344Y-78903410D01*
X135271344Y-78903410D02*
X135245031Y-78965400D01*
X135245031Y-78965400D02*
X135174566Y-79045228D01*
X135174566Y-79045228D02*
X134821353Y-79187936D01*
X135730699Y-78769177D02*
X136039760Y-78644309D01*
X136368437Y-79076461D02*
X135926921Y-79254845D01*
X135926921Y-79254845D02*
X135552315Y-78327661D01*
X135552315Y-78327661D02*
X135993831Y-78149277D01*
X136878641Y-78305379D02*
X136569579Y-78430248D01*
X136765802Y-78915915D02*
X136391195Y-77988731D01*
X136391195Y-77988731D02*
X136832711Y-77810347D01*
X137318379Y-77614125D02*
X137407571Y-77834883D01*
X137151136Y-77835772D02*
X137407571Y-77834883D01*
X137407571Y-77834883D02*
X137592653Y-77657388D01*
X137346470Y-78065005D02*
X137407571Y-77834883D01*
X137407571Y-77834883D02*
X137611380Y-77957974D01*
X138024805Y-77328710D02*
X138113997Y-77549468D01*
X137857563Y-77550357D02*
X138113997Y-77549468D01*
X138113997Y-77549468D02*
X138299079Y-77371973D01*
X138052896Y-77779590D02*
X138113997Y-77549468D01*
X138113997Y-77549468D02*
X138317806Y-77672559D01*
X116040031Y-81896997D02*
X115552585Y-81580350D01*
X115510211Y-82111058D02*
X115135605Y-81183874D01*
X115135605Y-81183874D02*
X115488818Y-81041167D01*
X115488818Y-81041167D02*
X115594959Y-81049641D01*
X115594959Y-81049641D02*
X115656949Y-81075955D01*
X115656949Y-81075955D02*
X115736778Y-81146419D01*
X115736778Y-81146419D02*
X115790293Y-81278874D01*
X115790293Y-81278874D02*
X115781818Y-81385016D01*
X115781818Y-81385016D02*
X115755505Y-81447006D01*
X115755505Y-81447006D02*
X115685040Y-81526834D01*
X115685040Y-81526834D02*
X115331827Y-81669542D01*
X116241173Y-81250783D02*
X116550234Y-81125915D01*
X116878911Y-81558067D02*
X116437395Y-81736451D01*
X116437395Y-81736451D02*
X116062789Y-80809267D01*
X116062789Y-80809267D02*
X116504305Y-80630883D01*
X117389115Y-80786985D02*
X117080053Y-80911854D01*
X117276276Y-81397521D02*
X116901669Y-80470337D01*
X116901669Y-80470337D02*
X117343185Y-80291953D01*
X117828853Y-80095731D02*
X117918045Y-80316489D01*
X117661610Y-80317378D02*
X117918045Y-80316489D01*
X117918045Y-80316489D02*
X118103127Y-80138994D01*
X117856944Y-80546611D02*
X117918045Y-80316489D01*
X117918045Y-80316489D02*
X118121854Y-80439580D01*
X118535279Y-79810316D02*
X118624471Y-80031074D01*
X118368037Y-80031963D02*
X118624471Y-80031074D01*
X118624471Y-80031074D02*
X118809553Y-79853579D01*
X118563370Y-80261196D02*
X118624471Y-80031074D01*
X118624471Y-80031074D02*
X118828280Y-80154165D01*
X96550505Y-84378603D02*
X96063059Y-84061956D01*
X96020685Y-84592664D02*
X95646079Y-83665480D01*
X95646079Y-83665480D02*
X95999292Y-83522773D01*
X95999292Y-83522773D02*
X96105433Y-83531247D01*
X96105433Y-83531247D02*
X96167423Y-83557561D01*
X96167423Y-83557561D02*
X96247252Y-83628025D01*
X96247252Y-83628025D02*
X96300767Y-83760480D01*
X96300767Y-83760480D02*
X96292292Y-83866622D01*
X96292292Y-83866622D02*
X96265979Y-83928612D01*
X96265979Y-83928612D02*
X96195514Y-84008440D01*
X96195514Y-84008440D02*
X95842301Y-84151148D01*
X96751647Y-83732389D02*
X97060708Y-83607521D01*
X97389385Y-84039673D02*
X96947869Y-84218057D01*
X96947869Y-84218057D02*
X96573263Y-83290873D01*
X96573263Y-83290873D02*
X97014779Y-83112489D01*
X97899589Y-83268591D02*
X97590527Y-83393460D01*
X97786750Y-83879127D02*
X97412143Y-82951943D01*
X97412143Y-82951943D02*
X97853659Y-82773559D01*
X98339327Y-82577337D02*
X98428519Y-82798095D01*
X98172084Y-82798984D02*
X98428519Y-82798095D01*
X98428519Y-82798095D02*
X98613601Y-82620600D01*
X98367418Y-83028217D02*
X98428519Y-82798095D01*
X98428519Y-82798095D02*
X98632328Y-82921186D01*
X99045753Y-82291922D02*
X99134945Y-82512680D01*
X98878511Y-82513569D02*
X99134945Y-82512680D01*
X99134945Y-82512680D02*
X99320027Y-82335185D01*
X99073844Y-82742802D02*
X99134945Y-82512680D01*
X99134945Y-82512680D02*
X99338754Y-82635771D01*
X173000200Y-121438610D02*
X172512754Y-121121963D01*
X172470380Y-121652671D02*
X172095774Y-120725487D01*
X172095774Y-120725487D02*
X172448987Y-120582780D01*
X172448987Y-120582780D02*
X172555128Y-120591254D01*
X172555128Y-120591254D02*
X172617118Y-120617568D01*
X172617118Y-120617568D02*
X172696947Y-120688032D01*
X172696947Y-120688032D02*
X172750462Y-120820487D01*
X172750462Y-120820487D02*
X172741987Y-120926629D01*
X172741987Y-120926629D02*
X172715674Y-120988619D01*
X172715674Y-120988619D02*
X172645209Y-121068447D01*
X172645209Y-121068447D02*
X172291996Y-121211155D01*
X173201342Y-120792396D02*
X173510403Y-120667528D01*
X173839080Y-121099680D02*
X173397564Y-121278064D01*
X173397564Y-121278064D02*
X173022958Y-120350880D01*
X173022958Y-120350880D02*
X173464474Y-120172496D01*
X174349284Y-120328598D02*
X174040222Y-120453467D01*
X174236445Y-120939134D02*
X173861838Y-120011950D01*
X173861838Y-120011950D02*
X174303354Y-119833566D01*
X174789022Y-119637344D02*
X174878214Y-119858102D01*
X174621779Y-119858991D02*
X174878214Y-119858102D01*
X174878214Y-119858102D02*
X175063296Y-119680607D01*
X174817113Y-120088224D02*
X174878214Y-119858102D01*
X174878214Y-119858102D02*
X175082023Y-119981193D01*
X175495448Y-119351929D02*
X175584640Y-119572687D01*
X175328206Y-119573576D02*
X175584640Y-119572687D01*
X175584640Y-119572687D02*
X175769722Y-119395192D01*
X175523539Y-119802809D02*
X175584640Y-119572687D01*
X175584640Y-119572687D02*
X175788449Y-119695778D01*
X165882675Y-103822117D02*
X165395229Y-103505470D01*
X165352855Y-104036178D02*
X164978249Y-103108994D01*
X164978249Y-103108994D02*
X165331462Y-102966287D01*
X165331462Y-102966287D02*
X165437603Y-102974761D01*
X165437603Y-102974761D02*
X165499593Y-103001075D01*
X165499593Y-103001075D02*
X165579422Y-103071539D01*
X165579422Y-103071539D02*
X165632937Y-103203994D01*
X165632937Y-103203994D02*
X165624462Y-103310136D01*
X165624462Y-103310136D02*
X165598149Y-103372126D01*
X165598149Y-103372126D02*
X165527684Y-103451954D01*
X165527684Y-103451954D02*
X165174471Y-103594662D01*
X166083817Y-103175903D02*
X166392878Y-103051035D01*
X166721555Y-103483187D02*
X166280039Y-103661571D01*
X166280039Y-103661571D02*
X165905433Y-102734387D01*
X165905433Y-102734387D02*
X166346949Y-102556003D01*
X167231759Y-102712105D02*
X166922697Y-102836974D01*
X167118920Y-103322641D02*
X166744313Y-102395457D01*
X166744313Y-102395457D02*
X167185829Y-102217073D01*
X167671497Y-102020851D02*
X167760689Y-102241609D01*
X167504254Y-102242498D02*
X167760689Y-102241609D01*
X167760689Y-102241609D02*
X167945771Y-102064114D01*
X167699588Y-102471731D02*
X167760689Y-102241609D01*
X167760689Y-102241609D02*
X167964498Y-102364700D01*
X168377923Y-101735436D02*
X168467115Y-101956194D01*
X168210681Y-101957083D02*
X168467115Y-101956194D01*
X168467115Y-101956194D02*
X168652197Y-101778699D01*
X168406014Y-102186316D02*
X168467115Y-101956194D01*
X168467115Y-101956194D02*
X168670924Y-102079285D01*
X158765150Y-86205624D02*
X158277704Y-85888977D01*
X158235330Y-86419685D02*
X157860724Y-85492501D01*
X157860724Y-85492501D02*
X158213937Y-85349794D01*
X158213937Y-85349794D02*
X158320078Y-85358268D01*
X158320078Y-85358268D02*
X158382068Y-85384582D01*
X158382068Y-85384582D02*
X158461897Y-85455046D01*
X158461897Y-85455046D02*
X158515412Y-85587501D01*
X158515412Y-85587501D02*
X158506937Y-85693643D01*
X158506937Y-85693643D02*
X158480624Y-85755633D01*
X158480624Y-85755633D02*
X158410159Y-85835461D01*
X158410159Y-85835461D02*
X158056946Y-85978169D01*
X158966292Y-85559410D02*
X159275353Y-85434542D01*
X159604030Y-85866694D02*
X159162514Y-86045078D01*
X159162514Y-86045078D02*
X158787908Y-85117894D01*
X158787908Y-85117894D02*
X159229424Y-84939510D01*
X160114234Y-85095612D02*
X159805172Y-85220481D01*
X160001395Y-85706148D02*
X159626788Y-84778964D01*
X159626788Y-84778964D02*
X160068304Y-84600580D01*
X160553972Y-84404358D02*
X160643164Y-84625116D01*
X160386729Y-84626005D02*
X160643164Y-84625116D01*
X160643164Y-84625116D02*
X160828246Y-84447621D01*
X160582063Y-84855238D02*
X160643164Y-84625116D01*
X160643164Y-84625116D02*
X160846973Y-84748207D01*
X161260398Y-84118943D02*
X161349590Y-84339701D01*
X161093156Y-84340590D02*
X161349590Y-84339701D01*
X161349590Y-84339701D02*
X161534672Y-84162206D01*
X161288489Y-84569823D02*
X161349590Y-84339701D01*
X161349590Y-84339701D02*
X161553399Y-84462792D01*
X156882133Y-132264871D02*
X156394687Y-131948224D01*
X156352313Y-132478932D02*
X155977707Y-131551748D01*
X155977707Y-131551748D02*
X156330920Y-131409041D01*
X156330920Y-131409041D02*
X156437061Y-131417515D01*
X156437061Y-131417515D02*
X156499051Y-131443829D01*
X156499051Y-131443829D02*
X156578880Y-131514293D01*
X156578880Y-131514293D02*
X156632395Y-131646748D01*
X156632395Y-131646748D02*
X156623920Y-131752890D01*
X156623920Y-131752890D02*
X156597607Y-131814880D01*
X156597607Y-131814880D02*
X156527142Y-131894708D01*
X156527142Y-131894708D02*
X156173929Y-132037416D01*
X157083275Y-131618657D02*
X157392336Y-131493789D01*
X157721013Y-131925941D02*
X157279497Y-132104325D01*
X157279497Y-132104325D02*
X156904891Y-131177141D01*
X156904891Y-131177141D02*
X157346407Y-130998757D01*
X158231217Y-131154859D02*
X157922155Y-131279728D01*
X158118378Y-131765395D02*
X157743771Y-130838211D01*
X157743771Y-130838211D02*
X158185287Y-130659827D01*
X158670955Y-130463605D02*
X158760147Y-130684363D01*
X158503712Y-130685252D02*
X158760147Y-130684363D01*
X158760147Y-130684363D02*
X158945229Y-130506868D01*
X158699046Y-130914485D02*
X158760147Y-130684363D01*
X158760147Y-130684363D02*
X158963956Y-130807454D01*
X159377381Y-130178190D02*
X159466573Y-130398948D01*
X159210139Y-130399837D02*
X159466573Y-130398948D01*
X159466573Y-130398948D02*
X159651655Y-130221453D01*
X159405472Y-130629070D02*
X159466573Y-130398948D01*
X159466573Y-130398948D02*
X159670382Y-130522039D01*
X149764608Y-114648377D02*
X149277162Y-114331730D01*
X149234788Y-114862438D02*
X148860182Y-113935254D01*
X148860182Y-113935254D02*
X149213395Y-113792547D01*
X149213395Y-113792547D02*
X149319536Y-113801021D01*
X149319536Y-113801021D02*
X149381526Y-113827335D01*
X149381526Y-113827335D02*
X149461355Y-113897799D01*
X149461355Y-113897799D02*
X149514870Y-114030254D01*
X149514870Y-114030254D02*
X149506395Y-114136396D01*
X149506395Y-114136396D02*
X149480082Y-114198386D01*
X149480082Y-114198386D02*
X149409617Y-114278214D01*
X149409617Y-114278214D02*
X149056404Y-114420922D01*
X149965750Y-114002163D02*
X150274811Y-113877295D01*
X150603488Y-114309447D02*
X150161972Y-114487831D01*
X150161972Y-114487831D02*
X149787366Y-113560647D01*
X149787366Y-113560647D02*
X150228882Y-113382263D01*
X151113692Y-113538365D02*
X150804630Y-113663234D01*
X151000853Y-114148901D02*
X150626246Y-113221717D01*
X150626246Y-113221717D02*
X151067762Y-113043333D01*
X151553430Y-112847111D02*
X151642622Y-113067869D01*
X151386187Y-113068758D02*
X151642622Y-113067869D01*
X151642622Y-113067869D02*
X151827704Y-112890374D01*
X151581521Y-113297991D02*
X151642622Y-113067869D01*
X151642622Y-113067869D02*
X151846431Y-113190960D01*
X152259856Y-112561696D02*
X152349048Y-112782454D01*
X152092614Y-112783343D02*
X152349048Y-112782454D01*
X152349048Y-112782454D02*
X152534130Y-112604959D01*
X152287947Y-113012576D02*
X152349048Y-112782454D01*
X152349048Y-112782454D02*
X152552857Y-112905545D01*
X142647083Y-97031884D02*
X142159637Y-96715237D01*
X142117263Y-97245945D02*
X141742657Y-96318761D01*
X141742657Y-96318761D02*
X142095870Y-96176054D01*
X142095870Y-96176054D02*
X142202011Y-96184528D01*
X142202011Y-96184528D02*
X142264001Y-96210842D01*
X142264001Y-96210842D02*
X142343830Y-96281306D01*
X142343830Y-96281306D02*
X142397345Y-96413761D01*
X142397345Y-96413761D02*
X142388870Y-96519903D01*
X142388870Y-96519903D02*
X142362557Y-96581893D01*
X142362557Y-96581893D02*
X142292092Y-96661721D01*
X142292092Y-96661721D02*
X141938879Y-96804429D01*
X142848225Y-96385670D02*
X143157286Y-96260802D01*
X143485963Y-96692954D02*
X143044447Y-96871338D01*
X143044447Y-96871338D02*
X142669841Y-95944154D01*
X142669841Y-95944154D02*
X143111357Y-95765770D01*
X143996167Y-95921872D02*
X143687105Y-96046741D01*
X143883328Y-96532408D02*
X143508721Y-95605224D01*
X143508721Y-95605224D02*
X143950237Y-95426840D01*
X144435905Y-95230618D02*
X144525097Y-95451376D01*
X144268662Y-95452265D02*
X144525097Y-95451376D01*
X144525097Y-95451376D02*
X144710179Y-95273881D01*
X144463996Y-95681498D02*
X144525097Y-95451376D01*
X144525097Y-95451376D02*
X144728906Y-95574467D01*
X145142331Y-94945203D02*
X145231523Y-95165961D01*
X144975089Y-95166850D02*
X145231523Y-95165961D01*
X145231523Y-95165961D02*
X145416605Y-94988466D01*
X145170422Y-95396083D02*
X145231523Y-95165961D01*
X145231523Y-95165961D02*
X145435332Y-95289052D01*
X137392607Y-134746477D02*
X136905161Y-134429830D01*
X136862787Y-134960538D02*
X136488181Y-134033354D01*
X136488181Y-134033354D02*
X136841394Y-133890647D01*
X136841394Y-133890647D02*
X136947535Y-133899121D01*
X136947535Y-133899121D02*
X137009525Y-133925435D01*
X137009525Y-133925435D02*
X137089354Y-133995899D01*
X137089354Y-133995899D02*
X137142869Y-134128354D01*
X137142869Y-134128354D02*
X137134394Y-134234496D01*
X137134394Y-134234496D02*
X137108081Y-134296486D01*
X137108081Y-134296486D02*
X137037616Y-134376314D01*
X137037616Y-134376314D02*
X136684403Y-134519022D01*
X137593749Y-134100263D02*
X137902810Y-133975395D01*
X138231487Y-134407547D02*
X137789971Y-134585931D01*
X137789971Y-134585931D02*
X137415365Y-133658747D01*
X137415365Y-133658747D02*
X137856881Y-133480363D01*
X138741691Y-133636465D02*
X138432629Y-133761334D01*
X138628852Y-134247001D02*
X138254245Y-133319817D01*
X138254245Y-133319817D02*
X138695761Y-133141433D01*
X139181429Y-132945211D02*
X139270621Y-133165969D01*
X139014186Y-133166858D02*
X139270621Y-133165969D01*
X139270621Y-133165969D02*
X139455703Y-132988474D01*
X139209520Y-133396091D02*
X139270621Y-133165969D01*
X139270621Y-133165969D02*
X139474430Y-133289060D01*
X139887855Y-132659796D02*
X139977047Y-132880554D01*
X139720613Y-132881443D02*
X139977047Y-132880554D01*
X139977047Y-132880554D02*
X140162129Y-132703059D01*
X139915946Y-133110676D02*
X139977047Y-132880554D01*
X139977047Y-132880554D02*
X140180856Y-133003645D01*
X130275082Y-117129983D02*
X129787636Y-116813336D01*
X129745262Y-117344044D02*
X129370656Y-116416860D01*
X129370656Y-116416860D02*
X129723869Y-116274153D01*
X129723869Y-116274153D02*
X129830010Y-116282627D01*
X129830010Y-116282627D02*
X129892000Y-116308941D01*
X129892000Y-116308941D02*
X129971829Y-116379405D01*
X129971829Y-116379405D02*
X130025344Y-116511860D01*
X130025344Y-116511860D02*
X130016869Y-116618002D01*
X130016869Y-116618002D02*
X129990556Y-116679992D01*
X129990556Y-116679992D02*
X129920091Y-116759820D01*
X129920091Y-116759820D02*
X129566878Y-116902528D01*
X130476224Y-116483769D02*
X130785285Y-116358901D01*
X131113962Y-116791053D02*
X130672446Y-116969437D01*
X130672446Y-116969437D02*
X130297840Y-116042253D01*
X130297840Y-116042253D02*
X130739356Y-115863869D01*
X131624166Y-116019971D02*
X131315104Y-116144840D01*
X131511327Y-116630507D02*
X131136720Y-115703323D01*
X131136720Y-115703323D02*
X131578236Y-115524939D01*
X132063904Y-115328717D02*
X132153096Y-115549475D01*
X131896661Y-115550364D02*
X132153096Y-115549475D01*
X132153096Y-115549475D02*
X132338178Y-115371980D01*
X132091995Y-115779597D02*
X132153096Y-115549475D01*
X132153096Y-115549475D02*
X132356905Y-115672566D01*
X132770330Y-115043302D02*
X132859522Y-115264060D01*
X132603088Y-115264949D02*
X132859522Y-115264060D01*
X132859522Y-115264060D02*
X133044604Y-115086565D01*
X132798421Y-115494182D02*
X132859522Y-115264060D01*
X132859522Y-115264060D02*
X133063331Y-115387151D01*
X123157556Y-99513490D02*
X122670110Y-99196843D01*
X122627736Y-99727551D02*
X122253130Y-98800367D01*
X122253130Y-98800367D02*
X122606343Y-98657660D01*
X122606343Y-98657660D02*
X122712484Y-98666134D01*
X122712484Y-98666134D02*
X122774474Y-98692448D01*
X122774474Y-98692448D02*
X122854303Y-98762912D01*
X122854303Y-98762912D02*
X122907818Y-98895367D01*
X122907818Y-98895367D02*
X122899343Y-99001509D01*
X122899343Y-99001509D02*
X122873030Y-99063499D01*
X122873030Y-99063499D02*
X122802565Y-99143327D01*
X122802565Y-99143327D02*
X122449352Y-99286035D01*
X123358698Y-98867276D02*
X123667759Y-98742408D01*
X123996436Y-99174560D02*
X123554920Y-99352944D01*
X123554920Y-99352944D02*
X123180314Y-98425760D01*
X123180314Y-98425760D02*
X123621830Y-98247376D01*
X124506640Y-98403478D02*
X124197578Y-98528347D01*
X124393801Y-99014014D02*
X124019194Y-98086830D01*
X124019194Y-98086830D02*
X124460710Y-97908446D01*
X124946378Y-97712224D02*
X125035570Y-97932982D01*
X124779135Y-97933871D02*
X125035570Y-97932982D01*
X125035570Y-97932982D02*
X125220652Y-97755487D01*
X124974469Y-98163104D02*
X125035570Y-97932982D01*
X125035570Y-97932982D02*
X125239379Y-98056073D01*
X125652804Y-97426809D02*
X125741996Y-97647567D01*
X125485562Y-97648456D02*
X125741996Y-97647567D01*
X125741996Y-97647567D02*
X125927078Y-97470072D01*
X125680895Y-97877689D02*
X125741996Y-97647567D01*
X125741996Y-97647567D02*
X125945805Y-97770658D01*
X117903081Y-137228083D02*
X117415635Y-136911436D01*
X117373261Y-137442144D02*
X116998655Y-136514960D01*
X116998655Y-136514960D02*
X117351868Y-136372253D01*
X117351868Y-136372253D02*
X117458009Y-136380727D01*
X117458009Y-136380727D02*
X117519999Y-136407041D01*
X117519999Y-136407041D02*
X117599828Y-136477505D01*
X117599828Y-136477505D02*
X117653343Y-136609960D01*
X117653343Y-136609960D02*
X117644868Y-136716102D01*
X117644868Y-136716102D02*
X117618555Y-136778092D01*
X117618555Y-136778092D02*
X117548090Y-136857920D01*
X117548090Y-136857920D02*
X117194877Y-137000628D01*
X118104223Y-136581869D02*
X118413284Y-136457001D01*
X118741961Y-136889153D02*
X118300445Y-137067537D01*
X118300445Y-137067537D02*
X117925839Y-136140353D01*
X117925839Y-136140353D02*
X118367355Y-135961969D01*
X119252165Y-136118071D02*
X118943103Y-136242940D01*
X119139326Y-136728607D02*
X118764719Y-135801423D01*
X118764719Y-135801423D02*
X119206235Y-135623039D01*
X119691903Y-135426817D02*
X119781095Y-135647575D01*
X119524660Y-135648464D02*
X119781095Y-135647575D01*
X119781095Y-135647575D02*
X119966177Y-135470080D01*
X119719994Y-135877697D02*
X119781095Y-135647575D01*
X119781095Y-135647575D02*
X119984904Y-135770666D01*
X120398329Y-135141402D02*
X120487521Y-135362160D01*
X120231087Y-135363049D02*
X120487521Y-135362160D01*
X120487521Y-135362160D02*
X120672603Y-135184665D01*
X120426420Y-135592282D02*
X120487521Y-135362160D01*
X120487521Y-135362160D02*
X120691330Y-135485251D01*
X110785556Y-119611589D02*
X110298110Y-119294942D01*
X110255736Y-119825650D02*
X109881130Y-118898466D01*
X109881130Y-118898466D02*
X110234343Y-118755759D01*
X110234343Y-118755759D02*
X110340484Y-118764233D01*
X110340484Y-118764233D02*
X110402474Y-118790547D01*
X110402474Y-118790547D02*
X110482303Y-118861011D01*
X110482303Y-118861011D02*
X110535818Y-118993466D01*
X110535818Y-118993466D02*
X110527343Y-119099608D01*
X110527343Y-119099608D02*
X110501030Y-119161598D01*
X110501030Y-119161598D02*
X110430565Y-119241426D01*
X110430565Y-119241426D02*
X110077352Y-119384134D01*
X110986698Y-118965375D02*
X111295759Y-118840507D01*
X111624436Y-119272659D02*
X111182920Y-119451043D01*
X111182920Y-119451043D02*
X110808314Y-118523859D01*
X110808314Y-118523859D02*
X111249830Y-118345475D01*
X112134640Y-118501577D02*
X111825578Y-118626446D01*
X112021801Y-119112113D02*
X111647194Y-118184929D01*
X111647194Y-118184929D02*
X112088710Y-118006545D01*
X112574378Y-117810323D02*
X112663570Y-118031081D01*
X112407135Y-118031970D02*
X112663570Y-118031081D01*
X112663570Y-118031081D02*
X112848652Y-117853586D01*
X112602469Y-118261203D02*
X112663570Y-118031081D01*
X112663570Y-118031081D02*
X112867379Y-118154172D01*
X113280804Y-117524908D02*
X113369996Y-117745666D01*
X113113562Y-117746555D02*
X113369996Y-117745666D01*
X113369996Y-117745666D02*
X113555078Y-117568171D01*
X113308895Y-117975788D02*
X113369996Y-117745666D01*
X113369996Y-117745666D02*
X113573805Y-117868757D01*
X103668030Y-101995096D02*
X103180584Y-101678449D01*
X103138210Y-102209157D02*
X102763604Y-101281973D01*
X102763604Y-101281973D02*
X103116817Y-101139266D01*
X103116817Y-101139266D02*
X103222958Y-101147740D01*
X103222958Y-101147740D02*
X103284948Y-101174054D01*
X103284948Y-101174054D02*
X103364777Y-101244518D01*
X103364777Y-101244518D02*
X103418292Y-101376973D01*
X103418292Y-101376973D02*
X103409817Y-101483115D01*
X103409817Y-101483115D02*
X103383504Y-101545105D01*
X103383504Y-101545105D02*
X103313039Y-101624933D01*
X103313039Y-101624933D02*
X102959826Y-101767641D01*
X103869172Y-101348882D02*
X104178233Y-101224014D01*
X104506910Y-101656166D02*
X104065394Y-101834550D01*
X104065394Y-101834550D02*
X103690788Y-100907366D01*
X103690788Y-100907366D02*
X104132304Y-100728982D01*
X105017114Y-100885084D02*
X104708052Y-101009953D01*
X104904275Y-101495620D02*
X104529668Y-100568436D01*
X104529668Y-100568436D02*
X104971184Y-100390052D01*
X105456852Y-100193830D02*
X105546044Y-100414588D01*
X105289609Y-100415477D02*
X105546044Y-100414588D01*
X105546044Y-100414588D02*
X105731126Y-100237093D01*
X105484943Y-100644710D02*
X105546044Y-100414588D01*
X105546044Y-100414588D02*
X105749853Y-100537679D01*
X106163278Y-99908415D02*
X106252470Y-100129173D01*
X105996036Y-100130062D02*
X106252470Y-100129173D01*
X106252470Y-100129173D02*
X106437552Y-99951678D01*
X106191369Y-100359295D02*
X106252470Y-100129173D01*
X106252470Y-100129173D02*
X106456279Y-100252264D01*
D11*
X92988555Y-102504762D02*
X85328555Y-83584762D01*
X115758555Y-158834762D02*
X119928555Y-160244762D01*
X159872491Y-144128725D02*
X119928555Y-160244762D01*
X92988555Y-102504762D02*
X115758555Y-158834762D01*
X97113455Y-95555315D02*
G75*
G02*
X95941843Y-95057995I-337146J834466D01*
G01*
X106385293Y-91809249D02*
X97113455Y-95555315D01*
X90048322Y-82339646D02*
X94127931Y-80691377D01*
X93234345Y-90759222D02*
X91735919Y-87050486D01*
X102287149Y-77394839D02*
X98207540Y-79043108D01*
X107752673Y-89854697D02*
X106104404Y-85775088D01*
X106882613Y-90637637D02*
G75*
G02*
X106385293Y-91809249I-834466J-337146D01*
G01*
X98097025Y-79303467D02*
G75*
G02*
X98207540Y-79043108I185437J74922D01*
G01*
X107531642Y-90375413D02*
X106882613Y-90637637D01*
X89827292Y-82860362D02*
G75*
G02*
X90048322Y-82339646I370873J149843D01*
G01*
X94388289Y-80801892D02*
X98097025Y-79303466D01*
X102287150Y-77394839D02*
G75*
G02*
X102807865Y-77615870I149842J-370873D01*
G01*
X89827292Y-82860362D02*
X91475561Y-86939971D01*
X93123829Y-91019580D02*
G75*
G02*
X93234345Y-90759222I185437J74921D01*
G01*
X105844046Y-85664572D02*
G75*
G02*
X106104404Y-85775088I74921J-185437D01*
G01*
X102807865Y-77615870D02*
X104456135Y-81695479D01*
X104345619Y-81955837D02*
X105844045Y-85664572D01*
X107752673Y-89854696D02*
G75*
G02*
X107531642Y-90375413I-370874J-149843D01*
G01*
X95292815Y-95320220D02*
X95941843Y-95057995D01*
X94127931Y-80691378D02*
G75*
G02*
X94388289Y-80801892I74922J-185436D01*
G01*
X104456135Y-81695479D02*
G75*
G02*
X104345619Y-81955837I-185437J-74921D01*
G01*
X95292815Y-95320219D02*
G75*
G02*
X94772099Y-95099189I-149843J370873D01*
G01*
X94772099Y-95099189D02*
X93123830Y-91019580D01*
X91735918Y-87050486D02*
G75*
G02*
X91475561Y-86939971I-74921J185436D01*
G01*
X116613455Y-93155315D02*
G75*
G02*
X115441843Y-92657995I-337146J834466D01*
G01*
X125885293Y-89409249D02*
X116613455Y-93155315D01*
X109548322Y-79939646D02*
X113627931Y-78291377D01*
X112734345Y-88359222D02*
X111235919Y-84650486D01*
X121787149Y-74994839D02*
X117707540Y-76643108D01*
X127252673Y-87454697D02*
X125604404Y-83375088D01*
X126382613Y-88237637D02*
G75*
G02*
X125885293Y-89409249I-834466J-337146D01*
G01*
X117597025Y-76903467D02*
G75*
G02*
X117707540Y-76643108I185437J74922D01*
G01*
X127031642Y-87975413D02*
X126382613Y-88237637D01*
X109327292Y-80460362D02*
G75*
G02*
X109548322Y-79939646I370873J149843D01*
G01*
X113888289Y-78401892D02*
X117597025Y-76903466D01*
X121787150Y-74994839D02*
G75*
G02*
X122307865Y-75215870I149842J-370873D01*
G01*
X109327292Y-80460362D02*
X110975561Y-84539971D01*
X112623829Y-88619580D02*
G75*
G02*
X112734345Y-88359222I185437J74921D01*
G01*
X125344046Y-83264572D02*
G75*
G02*
X125604404Y-83375088I74921J-185437D01*
G01*
X122307865Y-75215870D02*
X123956135Y-79295479D01*
X123845619Y-79555837D02*
X125344045Y-83264572D01*
X127252673Y-87454696D02*
G75*
G02*
X127031642Y-87975413I-370874J-149843D01*
G01*
X114792815Y-92920220D02*
X115441843Y-92657995D01*
X113627931Y-78291378D02*
G75*
G02*
X113888289Y-78401892I74922J-185436D01*
G01*
X123956135Y-79295479D02*
G75*
G02*
X123845619Y-79555837I-185437J-74921D01*
G01*
X114792815Y-92920219D02*
G75*
G02*
X114272099Y-92699189I-149843J370873D01*
G01*
X114272099Y-92699189D02*
X112623830Y-88619580D01*
X111235918Y-84650486D02*
G75*
G02*
X110975561Y-84539971I-74921J185436D01*
G01*
X136113455Y-90625315D02*
G75*
G02*
X134941843Y-90127995I-337146J834466D01*
G01*
X145385293Y-86879249D02*
X136113455Y-90625315D01*
X129048322Y-77409646D02*
X133127931Y-75761377D01*
X132234345Y-85829222D02*
X130735919Y-82120486D01*
X141287149Y-72464839D02*
X137207540Y-74113108D01*
X146752673Y-84924697D02*
X145104404Y-80845088D01*
X145882613Y-85707637D02*
G75*
G02*
X145385293Y-86879249I-834466J-337146D01*
G01*
X137097025Y-74373467D02*
G75*
G02*
X137207540Y-74113108I185437J74922D01*
G01*
X146531642Y-85445413D02*
X145882613Y-85707637D01*
X128827292Y-77930362D02*
G75*
G02*
X129048322Y-77409646I370873J149843D01*
G01*
X133388289Y-75871892D02*
X137097025Y-74373466D01*
X141287150Y-72464839D02*
G75*
G02*
X141807865Y-72685870I149842J-370873D01*
G01*
X128827292Y-77930362D02*
X130475561Y-82009971D01*
X132123829Y-86089580D02*
G75*
G02*
X132234345Y-85829222I185437J74921D01*
G01*
X144844046Y-80734572D02*
G75*
G02*
X145104404Y-80845088I74921J-185437D01*
G01*
X141807865Y-72685870D02*
X143456135Y-76765479D01*
X143345619Y-77025837D02*
X144844045Y-80734572D01*
X146752673Y-84924696D02*
G75*
G02*
X146531642Y-85445413I-370874J-149843D01*
G01*
X134292815Y-90390220D02*
X134941843Y-90127995D01*
X133127931Y-75761378D02*
G75*
G02*
X133388289Y-75871892I74922J-185436D01*
G01*
X143456135Y-76765479D02*
G75*
G02*
X143345619Y-77025837I-185437J-74921D01*
G01*
X134292815Y-90390219D02*
G75*
G02*
X133772099Y-90169189I-149843J370873D01*
G01*
X133772099Y-90169189D02*
X132123830Y-86089580D01*
X130735918Y-82120486D02*
G75*
G02*
X130475561Y-82009971I-74921J185436D01*
G01*
X152283455Y-79805315D02*
G75*
G02*
X151111843Y-79307995I-337146J834466D01*
G01*
X161555293Y-76059249D02*
X152283455Y-79805315D01*
X145218322Y-66589646D02*
X149297931Y-64941377D01*
X148404345Y-75009222D02*
X146905919Y-71300486D01*
X157457149Y-61644839D02*
X153377540Y-63293108D01*
X162922673Y-74104697D02*
X161274404Y-70025088D01*
X162052613Y-74887637D02*
G75*
G02*
X161555293Y-76059249I-834466J-337146D01*
G01*
X153267025Y-63553467D02*
G75*
G02*
X153377540Y-63293108I185437J74922D01*
G01*
X162701642Y-74625413D02*
X162052613Y-74887637D01*
X144997292Y-67110362D02*
G75*
G02*
X145218322Y-66589646I370873J149843D01*
G01*
X149558289Y-65051892D02*
X153267025Y-63553466D01*
X157457150Y-61644839D02*
G75*
G02*
X157977865Y-61865870I149842J-370873D01*
G01*
X144997292Y-67110362D02*
X146645561Y-71189971D01*
X148293829Y-75269580D02*
G75*
G02*
X148404345Y-75009222I185437J74921D01*
G01*
X161014046Y-69914572D02*
G75*
G02*
X161274404Y-70025088I74921J-185437D01*
G01*
X157977865Y-61865870D02*
X159626135Y-65945479D01*
X159515619Y-66205837D02*
X161014045Y-69914572D01*
X162922673Y-74104696D02*
G75*
G02*
X162701642Y-74625413I-370874J-149843D01*
G01*
X150462815Y-79570220D02*
X151111843Y-79307995D01*
X149297931Y-64941378D02*
G75*
G02*
X149558289Y-65051892I74922J-185436D01*
G01*
X159626135Y-65945479D02*
G75*
G02*
X159515619Y-66205837I-185437J-74921D01*
G01*
X150462815Y-79570219D02*
G75*
G02*
X149942099Y-79349189I-149843J370873D01*
G01*
X149942099Y-79349189D02*
X148293830Y-75269580D01*
X146905918Y-71300486D02*
G75*
G02*
X146645561Y-71189971I-74921J185436D01*
G01*
X115232355Y-97685562D02*
G75*
G02*
X112032355Y-97685562I-1600000J0D01*
G01*
X112032355Y-97685562D02*
G75*
G02*
X115232355Y-97685562I1600000J0D01*
G01*
X155980155Y-105291562D02*
G75*
G02*
X152780155Y-105291562I-1600000J0D01*
G01*
X152780155Y-105291562D02*
G75*
G02*
X155980155Y-105291562I1600000J0D01*
G01*
X130156355Y-130915362D02*
G75*
G02*
X126956355Y-130915362I-1600000J0D01*
G01*
X126956355Y-130915362D02*
G75*
G02*
X130156355Y-130915362I1600000J0D01*
G01*
X163705471Y-120189091D02*
X168949963Y-133169665D01*
X169877147Y-132795059D02*
G75*
G02*
X168949963Y-133169665I-463592J-187303D01*
G01*
X163705471Y-120189091D02*
G75*
G02*
X164632655Y-119814485I463592J187303D01*
G01*
X156705471Y-102789091D02*
G75*
G02*
X157632655Y-102414485I463592J187303D01*
G01*
X169877147Y-132795059D02*
X164632655Y-119814485D01*
X143349963Y-69569666D02*
G75*
G02*
X144277147Y-69195058I463592J187304D01*
G01*
X148023213Y-78466896D02*
G75*
G02*
X147096029Y-78841504I-463592J-187304D01*
G01*
X143349963Y-69569665D02*
X147096029Y-78841504D01*
X148023213Y-78466897D02*
X144277147Y-69195058D01*
X149705471Y-85389091D02*
X154949963Y-98369665D01*
X149705471Y-85389091D02*
G75*
G02*
X150632655Y-85014485I463592J187303D01*
G01*
X155877147Y-97995059D02*
G75*
G02*
X154949963Y-98369665I-463592J-187303D01*
G01*
X155877147Y-97995059D02*
X150632655Y-85014485D01*
X162877147Y-115395059D02*
G75*
G02*
X161949963Y-115769665I-463592J-187303D01*
G01*
X156705471Y-102789091D02*
X161949963Y-115769665D01*
X162877147Y-115395059D02*
X157632655Y-102414485D01*
X186756221Y-126580077D02*
X185540551Y-129444016D01*
X86396642Y-81060907D02*
X85328555Y-83584762D01*
X104013135Y-73943381D02*
X110522088Y-76706268D01*
X86396642Y-81060907D02*
X104013135Y-73943381D01*
X157070450Y-58978043D02*
X159934389Y-60193713D01*
X170787997Y-137777211D02*
X169793358Y-140120434D01*
X185540551Y-129444016D02*
X172003667Y-134913272D01*
X110522088Y-76706268D02*
X123502662Y-71461775D01*
X123502662Y-71461775D02*
X124804452Y-72014353D01*
X186756221Y-126580077D02*
X159934389Y-60193713D01*
X172003667Y-134913272D02*
X170787997Y-137777211D01*
X157070450Y-58978043D02*
X124804452Y-72014353D01*
X169793358Y-140120434D02*
X159872491Y-144128725D01*
X102421388Y-112972452D02*
X106500997Y-111324183D01*
X104080865Y-118137595D02*
X105729134Y-122217204D01*
X112350599Y-114580699D02*
G75*
G02*
X112461113Y-114320341I185436J74922D01*
G01*
X127881505Y-113493610D02*
G75*
G02*
X128141862Y-113604125I74921J-185436D01*
G01*
X116540722Y-112672072D02*
X112461113Y-114320341D01*
X117705605Y-127300914D02*
G75*
G02*
X117445248Y-127190399I-74921J185436D01*
G01*
X116540722Y-112672072D02*
G75*
G02*
X117061438Y-112893102I149843J-370873D01*
G01*
X104301895Y-117616879D02*
X108381504Y-115968610D01*
X98864492Y-104702718D02*
G75*
G02*
X98604134Y-104592204I-74922J185436D01*
G01*
X113736511Y-128688825D02*
G75*
G02*
X113625997Y-128949183I-185436J-74922D01*
G01*
X109025672Y-130376422D02*
X107377403Y-126296813D01*
X137205605Y-124825914D02*
G75*
G02*
X136945248Y-124715399I-74921J185436D01*
G01*
X118709707Y-116972712D02*
G75*
G02*
X118599192Y-117233069I-185436J-74921D01*
G01*
X128525672Y-127901422D02*
X126877403Y-123821813D01*
X110320248Y-109565399D02*
X106611512Y-111063825D01*
X104080865Y-118137595D02*
G75*
G02*
X104301895Y-117616879I370873J149843D01*
G01*
X109546388Y-130597452D02*
G75*
G02*
X109025672Y-130376422I-149843J370873D01*
G01*
X114881245Y-107506929D02*
G75*
G02*
X114660215Y-108027645I-370873J-149843D01*
G01*
X114660215Y-108027645D02*
X110580606Y-109675914D01*
X100362918Y-108411455D02*
X98864492Y-104702719D01*
X105989492Y-122327718D02*
G75*
G02*
X105729134Y-122217204I-74922J185436D01*
G01*
X107487918Y-126036455D02*
X105989492Y-122327719D01*
X138099192Y-114758069D02*
X139597618Y-118466805D01*
X97176895Y-99991879D02*
X101256504Y-98343610D01*
X126877403Y-123821812D02*
G75*
G02*
X126987918Y-123561455I185436J74921D01*
G01*
X123580865Y-115662595D02*
G75*
G02*
X123801895Y-115141879I370873J149843D01*
G01*
X96955865Y-100512595D02*
X98604134Y-104592204D01*
X114881245Y-107506929D02*
X113232976Y-103427320D01*
X117445248Y-127190399D02*
X113736512Y-128688825D01*
X122006245Y-125131929D02*
G75*
G02*
X121785215Y-125652645I-370873J-149843D01*
G01*
X109546388Y-130597452D02*
X113625997Y-128949183D01*
X136040722Y-110197072D02*
G75*
G02*
X136561438Y-110418102I149843J-370873D01*
G01*
X128141862Y-113604125D02*
X131850598Y-112105699D01*
X141285215Y-123177645D02*
X137205606Y-124825914D01*
X101516862Y-98454125D02*
X105225598Y-96955699D01*
X138209707Y-114497712D02*
G75*
G02*
X138099192Y-114758069I-185436J-74921D01*
G01*
X125489492Y-119852718D02*
G75*
G02*
X125229134Y-119742204I-74922J185436D01*
G01*
X136040722Y-110197072D02*
X131961113Y-111845341D01*
X141506245Y-122656929D02*
G75*
G02*
X141285215Y-123177645I-370873J-149843D01*
G01*
X111474192Y-99608069D02*
X112972618Y-103316805D01*
X107377403Y-126296812D02*
G75*
G02*
X107487918Y-126036455I185436J74921D01*
G01*
X122006245Y-125131929D02*
X120357976Y-121052320D01*
X120097618Y-120941806D02*
G75*
G02*
X120357976Y-121052320I74922J-185436D01*
G01*
X139597618Y-118466806D02*
G75*
G02*
X139857976Y-118577320I74922J-185436D01*
G01*
X129046388Y-128122452D02*
X133125997Y-126474183D01*
X136561438Y-110418102D02*
X138209707Y-114497711D01*
X96955865Y-100512595D02*
G75*
G02*
X97176895Y-99991879I370873J149843D01*
G01*
X109936438Y-95268102D02*
X111584707Y-99347711D01*
X123580865Y-115662595D02*
X125229134Y-119742204D01*
X108641862Y-116079125D02*
X112350598Y-114580699D01*
X136945248Y-124715399D02*
X133236512Y-126213825D01*
X129046388Y-128122452D02*
G75*
G02*
X128525672Y-127901422I-149843J370873D01*
G01*
X131850599Y-112105699D02*
G75*
G02*
X131961113Y-111845341I185436J74922D01*
G01*
X111584707Y-99347712D02*
G75*
G02*
X111474192Y-99608069I-185436J-74921D01*
G01*
X112972618Y-103316806D02*
G75*
G02*
X113232976Y-103427320I74922J-185436D01*
G01*
X105225599Y-96955699D02*
G75*
G02*
X105336113Y-96695341I185436J74922D01*
G01*
X108381505Y-115968610D02*
G75*
G02*
X108641862Y-116079125I74921J-185436D01*
G01*
X118599192Y-117233069D02*
X120097618Y-120941805D01*
X121785215Y-125652645D02*
X117705606Y-127300914D01*
X101900672Y-112751422D02*
X100252403Y-108671813D01*
X100252403Y-108671812D02*
G75*
G02*
X100362918Y-108411455I185436J74921D01*
G01*
X106611511Y-111063825D02*
G75*
G02*
X106500997Y-111324183I-185436J-74922D01*
G01*
X117061438Y-112893102D02*
X118709707Y-116972711D01*
X109415722Y-95047072D02*
G75*
G02*
X109936438Y-95268102I149843J-370873D01*
G01*
X143055865Y-113162595D02*
G75*
G02*
X143276895Y-112641879I370873J149843D01*
G01*
X157574192Y-112258069D02*
X159072618Y-115966805D01*
X155515722Y-107697072D02*
G75*
G02*
X156036438Y-107918102I149843J-370873D01*
G01*
X164646388Y-114797452D02*
X168725997Y-113149183D01*
X163481505Y-100168610D02*
G75*
G02*
X163741862Y-100279125I74921J-185436D01*
G01*
X151325599Y-109605699D02*
G75*
G02*
X151436113Y-109345341I185436J74922D01*
G01*
X159401895Y-101816879D02*
X163481504Y-100168610D01*
X156036438Y-107918102D02*
X157684707Y-111997711D01*
X172161438Y-97093102D02*
X173809707Y-101172711D01*
X177106245Y-109331929D02*
X175457976Y-105252320D01*
X171771388Y-132422452D02*
G75*
G02*
X171250672Y-132201422I-149843J370873D01*
G01*
X159180865Y-102337595D02*
X160829134Y-106417204D01*
X171640722Y-96872072D02*
G75*
G02*
X172161438Y-97093102I149843J-370873D01*
G01*
X170606505Y-117793610D02*
G75*
G02*
X170866862Y-117904125I74921J-185436D01*
G01*
X159180865Y-102337595D02*
G75*
G02*
X159401895Y-101816879I370873J149843D01*
G01*
X179930605Y-129125914D02*
G75*
G02*
X179670248Y-129015399I-74921J185436D01*
G01*
X126987918Y-123561455D02*
X125489492Y-119852719D01*
X148521388Y-125622452D02*
G75*
G02*
X148000672Y-125401422I-149843J370873D01*
G01*
X156680605Y-122325914D02*
G75*
G02*
X156420248Y-122215399I-74921J185436D01*
G01*
X160981245Y-120156929D02*
X159332976Y-116077320D01*
X164646388Y-114797452D02*
G75*
G02*
X164125672Y-114576422I-149843J370873D01*
G01*
X146352403Y-121321812D02*
G75*
G02*
X146462918Y-121061455I185436J74921D01*
G01*
X162587918Y-110236455D02*
X161089492Y-106527719D01*
X155515722Y-107697072D02*
X151436113Y-109345341D01*
X160981245Y-120156929D02*
G75*
G02*
X160760215Y-120677645I-370873J-149843D01*
G01*
X160760215Y-120677645D02*
X156680606Y-122325914D01*
X168836511Y-112888825D02*
G75*
G02*
X168725997Y-113149183I-185436J-74922D01*
G01*
X147356505Y-110993610D02*
G75*
G02*
X147616862Y-111104125I74921J-185436D01*
G01*
X146462918Y-121061455D02*
X144964492Y-117352719D01*
X152711511Y-123713825D02*
G75*
G02*
X152600997Y-123974183I-185436J-74922D01*
G01*
X182322618Y-122766806D02*
G75*
G02*
X182582976Y-122877320I74922J-185436D01*
G01*
X144964492Y-117352718D02*
G75*
G02*
X144704134Y-117242204I-74922J185436D01*
G01*
X147616862Y-111104125D02*
X151325598Y-109605699D01*
X171250672Y-132201422D02*
X169602403Y-128121813D01*
X172545248Y-111390399D02*
X168836512Y-112888825D01*
X169602403Y-128121812D02*
G75*
G02*
X169712918Y-127861455I185436J74921D01*
G01*
X161089492Y-106527718D02*
G75*
G02*
X160829134Y-106417204I-74922J185436D01*
G01*
X141506245Y-122656929D02*
X139857976Y-118577320D01*
X178765722Y-114497072D02*
X174686113Y-116145341D01*
X167450599Y-98780699D02*
G75*
G02*
X167561113Y-98520341I185436J74922D01*
G01*
X180824192Y-119058069D02*
X182322618Y-122766805D01*
X168214492Y-124152718D02*
G75*
G02*
X167954134Y-124042204I-74922J185436D01*
G01*
X184231245Y-126956929D02*
G75*
G02*
X184010215Y-127477645I-370873J-149843D01*
G01*
X148521388Y-125622452D02*
X152600997Y-123974183D01*
X163741862Y-100279125D02*
X167450598Y-98780699D01*
X159072618Y-115966806D02*
G75*
G02*
X159332976Y-116077320I74922J-185436D01*
G01*
X173809707Y-101172712D02*
G75*
G02*
X173699192Y-101433069I-185436J-74921D01*
G01*
X143276895Y-112641879D02*
X147356504Y-110993610D01*
X177106245Y-109331929D02*
G75*
G02*
X176885215Y-109852645I-370873J-149843D01*
G01*
X166305865Y-119962595D02*
G75*
G02*
X166526895Y-119441879I370873J149843D01*
G01*
X156420248Y-122215399D02*
X152711512Y-123713825D01*
X172805605Y-111500914D02*
G75*
G02*
X172545248Y-111390399I-74921J185436D01*
G01*
X178765722Y-114497072D02*
G75*
G02*
X179286438Y-114718102I149843J-370873D01*
G01*
X123801895Y-115141879D02*
X127881504Y-113493610D01*
X176885215Y-109852645D02*
X172805606Y-111500914D01*
X162477403Y-110496812D02*
G75*
G02*
X162587918Y-110236455I185436J74921D01*
G01*
X171640722Y-96872072D02*
X167561113Y-98520341D01*
X133236511Y-126213825D02*
G75*
G02*
X133125997Y-126474183I-185436J-74922D01*
G01*
X157684707Y-111997712D02*
G75*
G02*
X157574192Y-112258069I-185436J-74921D01*
G01*
X143055865Y-113162595D02*
X144704134Y-117242204D01*
X175197618Y-105141806D02*
G75*
G02*
X175457976Y-105252320I74922J-185436D01*
G01*
X164125672Y-114576422D02*
X162477403Y-110496813D01*
X148000672Y-125401422D02*
X146352403Y-121321813D01*
X173699192Y-101433069D02*
X175197618Y-105141805D01*
X124805605Y-144925914D02*
G75*
G02*
X124545248Y-144815399I-74921J185436D01*
G01*
X162640722Y-125322072D02*
X158561113Y-126970341D01*
X136146388Y-145722452D02*
G75*
G02*
X135625672Y-145501422I-149843J370873D01*
G01*
X132589492Y-137452718D02*
G75*
G02*
X132329134Y-137342204I-74922J185436D01*
G01*
X175961511Y-130513825D02*
G75*
G02*
X175850997Y-130774183I-185436J-74922D01*
G01*
X180934707Y-118797712D02*
G75*
G02*
X180824192Y-119058069I-185436J-74921D01*
G01*
X166197618Y-133591806D02*
G75*
G02*
X166457976Y-133702320I74922J-185436D01*
G01*
X155125672Y-143026422D02*
X153477403Y-138946813D01*
X153477403Y-138946812D02*
G75*
G02*
X153587918Y-138686455I185436J74921D01*
G01*
X164809707Y-129622712D02*
G75*
G02*
X164699192Y-129883069I-185436J-74921D01*
G01*
X134981505Y-131093610D02*
G75*
G02*
X135241862Y-131204125I74921J-185436D01*
G01*
X144305605Y-142425914D02*
G75*
G02*
X144045248Y-142315399I-74921J185436D01*
G01*
X155646388Y-143247452D02*
G75*
G02*
X155125672Y-143026422I-149843J370873D01*
G01*
X184010215Y-127477645D02*
X179930606Y-129125914D01*
X179286438Y-114718102D02*
X180934707Y-118797711D01*
X163161438Y-125543102D02*
X164809707Y-129622711D01*
X163545248Y-139840399D02*
X159836512Y-141338825D01*
X150180865Y-130787595D02*
G75*
G02*
X150401895Y-130266879I370873J149843D01*
G01*
X146697618Y-136066806D02*
G75*
G02*
X146957976Y-136177320I74922J-185436D01*
G01*
X145199192Y-132358069D02*
X146697618Y-136066805D01*
X162640722Y-125322072D02*
G75*
G02*
X163161438Y-125543102I149843J-370873D01*
G01*
X148606245Y-140256929D02*
G75*
G02*
X148385215Y-140777645I-370873J-149843D01*
G01*
X167885215Y-138302645D02*
X163805606Y-139950914D01*
X148385215Y-140777645D02*
X144305606Y-142425914D01*
X154741862Y-128729125D02*
X158450598Y-127230699D01*
X150401895Y-130266879D02*
X154481504Y-128618610D01*
X133977403Y-141421812D02*
G75*
G02*
X134087918Y-141161455I185436J74921D01*
G01*
X145309707Y-132097712D02*
G75*
G02*
X145199192Y-132358069I-185436J-74921D01*
G01*
X135625672Y-145501422D02*
X133977403Y-141421813D01*
X144045248Y-142315399D02*
X140336512Y-143813825D01*
X140336511Y-143813825D02*
G75*
G02*
X140225997Y-144074183I-185436J-74922D01*
G01*
X130901895Y-132741879D02*
X134981504Y-131093610D01*
X166526895Y-119441879D02*
X170606504Y-117793610D01*
X134087918Y-141161455D02*
X132589492Y-137452719D01*
X148606245Y-140256929D02*
X146957976Y-136177320D01*
X143140722Y-127797072D02*
X139061113Y-129445341D01*
X169712918Y-127861455D02*
X168214492Y-124152719D01*
X143661438Y-128018102D02*
X145309707Y-132097711D01*
X179670248Y-129015399D02*
X175961512Y-130513825D01*
X184231245Y-126956929D02*
X182582976Y-122877320D01*
X154481505Y-128618610D02*
G75*
G02*
X154741862Y-128729125I74921J-185436D01*
G01*
X163805605Y-139950914D02*
G75*
G02*
X163545248Y-139840399I-74921J185436D01*
G01*
X164699192Y-129883069D02*
X166197618Y-133591805D01*
X166305865Y-119962595D02*
X167954134Y-124042204D01*
X152089492Y-134977718D02*
G75*
G02*
X151829134Y-134867204I-74922J185436D01*
G01*
X168106245Y-137781929D02*
G75*
G02*
X167885215Y-138302645I-370873J-149843D01*
G01*
X150180865Y-130787595D02*
X151829134Y-134867204D01*
X174575599Y-116405699D02*
G75*
G02*
X174686113Y-116145341I185436J74922D01*
G01*
X168106245Y-137781929D02*
X166457976Y-133702320D01*
X130680865Y-133262595D02*
G75*
G02*
X130901895Y-132741879I370873J149843D01*
G01*
X143140722Y-127797072D02*
G75*
G02*
X143661438Y-128018102I149843J-370873D01*
G01*
X159836511Y-141338825D02*
G75*
G02*
X159725997Y-141599183I-185436J-74922D01*
G01*
X138950599Y-129705699D02*
G75*
G02*
X139061113Y-129445341I185436J74922D01*
G01*
X170866862Y-117904125D02*
X174575598Y-116405699D01*
X158450599Y-127230699D02*
G75*
G02*
X158561113Y-126970341I185436J74922D01*
G01*
X155646388Y-143247452D02*
X159725997Y-141599183D01*
X130680865Y-133262595D02*
X132329134Y-137342204D01*
X135241862Y-131204125D02*
X138950598Y-129705699D01*
X171771388Y-132422452D02*
X175850997Y-130774183D01*
X115481505Y-133593610D02*
G75*
G02*
X115741862Y-133704125I74921J-185436D01*
G01*
X116646388Y-148222452D02*
G75*
G02*
X116125672Y-148001422I-149843J370873D01*
G01*
X123640722Y-130297072D02*
X119561113Y-131945341D01*
X153587918Y-138686455D02*
X152089492Y-134977719D01*
X136146388Y-145722452D02*
X140225997Y-144074183D01*
X125809707Y-134597712D02*
G75*
G02*
X125699192Y-134858069I-185436J-74921D01*
G01*
X115741862Y-133704125D02*
X119450598Y-132205699D01*
X113089492Y-139952718D02*
G75*
G02*
X112829134Y-139842204I-74922J185436D01*
G01*
X111401895Y-135241879D02*
X115481504Y-133593610D01*
X124161438Y-130518102D02*
X125809707Y-134597711D01*
X129106245Y-142756929D02*
X127457976Y-138677320D01*
X116125672Y-148001422D02*
X114477403Y-143921813D01*
X128885215Y-143277645D02*
X124805606Y-144925914D01*
X114477403Y-143921812D02*
G75*
G02*
X114587918Y-143661455I185436J74921D01*
G01*
X114587918Y-143661455D02*
X113089492Y-139952719D01*
X127197618Y-138566806D02*
G75*
G02*
X127457976Y-138677320I74922J-185436D01*
G01*
X111180865Y-135762595D02*
X112829134Y-139842204D01*
X120836511Y-146313825D02*
G75*
G02*
X120725997Y-146574183I-185436J-74922D01*
G01*
X111180865Y-135762595D02*
G75*
G02*
X111401895Y-135241879I370873J149843D01*
G01*
X119450599Y-132205699D02*
G75*
G02*
X119561113Y-131945341I185436J74922D01*
G01*
X124545248Y-144815399D02*
X120836512Y-146313825D01*
X129106245Y-142756929D02*
G75*
G02*
X128885215Y-143277645I-370873J-149843D01*
G01*
X123640722Y-130297072D02*
G75*
G02*
X124161438Y-130518102I149843J-370873D01*
G01*
X116646388Y-148222452D02*
X120725997Y-146574183D01*
X125699192Y-134858069D02*
X127197618Y-138566805D01*
X168072618Y-87541806D02*
G75*
G02*
X168332976Y-87652320I74922J-185436D01*
G01*
X155462918Y-92636455D02*
X153964492Y-88927719D01*
X169981245Y-91731929D02*
G75*
G02*
X169760215Y-92252645I-370873J-149843D01*
G01*
X161711511Y-95288825D02*
G75*
G02*
X161600997Y-95549183I-185436J-74922D01*
G01*
X152276895Y-84216879D02*
X156356504Y-82568610D01*
X165680605Y-93900914D02*
G75*
G02*
X165420248Y-93790399I-74921J185436D01*
G01*
X169981245Y-91731929D02*
X168332976Y-87652320D01*
X140491862Y-93504125D02*
X144200598Y-92005699D01*
X169760215Y-92252645D02*
X165680606Y-93900914D01*
X155352403Y-92896812D02*
G75*
G02*
X155462918Y-92636455I185436J74921D01*
G01*
X156616862Y-82679125D02*
X160325598Y-81180699D01*
X166684707Y-83572712D02*
G75*
G02*
X166574192Y-83833069I-185436J-74921D01*
G01*
X160325599Y-81180699D02*
G75*
G02*
X160436113Y-80920341I185436J74922D01*
G01*
X152055865Y-84737595D02*
X153704134Y-88817204D01*
X153635215Y-103077645D02*
X149555606Y-104725914D01*
X157521388Y-97197452D02*
G75*
G02*
X157000672Y-96976422I-149843J370873D01*
G01*
X166574192Y-83833069D02*
X168072618Y-87541805D01*
X140875672Y-107801422D02*
X139227403Y-103721813D01*
X140231505Y-93393610D02*
G75*
G02*
X140491862Y-93504125I74921J-185436D01*
G01*
X149555605Y-104725914D02*
G75*
G02*
X149295248Y-104615399I-74921J185436D01*
G01*
X139227403Y-103721812D02*
G75*
G02*
X139337918Y-103461455I185436J74921D01*
G01*
X137839492Y-99752718D02*
G75*
G02*
X137579134Y-99642204I-74922J185436D01*
G01*
X156356505Y-82568610D02*
G75*
G02*
X156616862Y-82679125I74921J-185436D01*
G01*
X153856245Y-102556929D02*
G75*
G02*
X153635215Y-103077645I-370873J-149843D01*
G01*
X135930865Y-95562595D02*
G75*
G02*
X136151895Y-95041879I370873J149843D01*
G01*
X157521388Y-97197452D02*
X161600997Y-95549183D01*
X148390722Y-90097072D02*
G75*
G02*
X148911438Y-90318102I149843J-370873D01*
G01*
X150559707Y-94397712D02*
G75*
G02*
X150449192Y-94658069I-185436J-74921D01*
G01*
X148911438Y-90318102D02*
X150559707Y-94397711D01*
X164515722Y-79272072D02*
X160436113Y-80920341D01*
X144200599Y-92005699D02*
G75*
G02*
X144311113Y-91745341I185436J74922D01*
G01*
X135930865Y-95562595D02*
X137579134Y-99642204D01*
X149295248Y-104615399D02*
X145586512Y-106113825D01*
X139337918Y-103461455D02*
X137839492Y-99752719D01*
X145586511Y-106113825D02*
G75*
G02*
X145475997Y-106374183I-185436J-74922D01*
G01*
X165036438Y-79493102D02*
X166684707Y-83572711D01*
X141396388Y-108022452D02*
X145475997Y-106374183D01*
X136151895Y-95041879D02*
X140231504Y-93393610D01*
X165420248Y-93790399D02*
X161711512Y-95288825D01*
X153856245Y-102556929D02*
X152207976Y-98477320D01*
X153964492Y-88927718D02*
G75*
G02*
X153704134Y-88817204I-74922J185436D01*
G01*
X152055865Y-84737595D02*
G75*
G02*
X152276895Y-84216879I370873J149843D01*
G01*
X151947618Y-98366806D02*
G75*
G02*
X152207976Y-98477320I74922J-185436D01*
G01*
X164515722Y-79272072D02*
G75*
G02*
X165036438Y-79493102I149843J-370873D01*
G01*
X141396388Y-108022452D02*
G75*
G02*
X140875672Y-107801422I-149843J370873D01*
G01*
X148390722Y-90097072D02*
X144311113Y-91745341D01*
X150449192Y-94658069D02*
X151947618Y-98366805D01*
X157000672Y-96976422D02*
X155352403Y-92896813D01*
X130974192Y-97133069D02*
X132472618Y-100841805D01*
X118364492Y-102227718D02*
G75*
G02*
X118104134Y-102117204I-74922J185436D01*
G01*
X116455865Y-98037595D02*
G75*
G02*
X116676895Y-97516879I370873J149843D01*
G01*
X130080605Y-107200914D02*
G75*
G02*
X129820248Y-107090399I-74921J185436D01*
G01*
X132472618Y-100841806D02*
G75*
G02*
X132732976Y-100952320I74922J-185436D01*
G01*
X121921388Y-110497452D02*
X126000997Y-108849183D01*
X120756505Y-95868610D02*
G75*
G02*
X121016862Y-95979125I74921J-185436D01*
G01*
X119752403Y-106196812D02*
G75*
G02*
X119862918Y-105936455I185436J74921D01*
G01*
X121016862Y-95979125D02*
X124725598Y-94480699D01*
X131084707Y-96872712D02*
G75*
G02*
X130974192Y-97133069I-185436J-74921D01*
G01*
X116455865Y-98037595D02*
X118104134Y-102117204D01*
X129820248Y-107090399D02*
X126111512Y-108588825D01*
X119862918Y-105936455D02*
X118364492Y-102227719D01*
X121400672Y-110276422D02*
X119752403Y-106196813D01*
X124725599Y-94480699D02*
G75*
G02*
X124836113Y-94220341I185436J74922D01*
G01*
X128915722Y-92572072D02*
G75*
G02*
X129436438Y-92793102I149843J-370873D01*
G01*
X101256505Y-98343610D02*
G75*
G02*
X101516862Y-98454125I74921J-185436D01*
G01*
X109415722Y-95047072D02*
X105336113Y-96695341D01*
X134381245Y-105031929D02*
G75*
G02*
X134160215Y-105552645I-370873J-149843D01*
G01*
X126111511Y-108588825D02*
G75*
G02*
X126000997Y-108849183I-185436J-74922D01*
G01*
X134381245Y-105031929D02*
X132732976Y-100952320D01*
X128915722Y-92572072D02*
X124836113Y-94220341D01*
X121921388Y-110497452D02*
G75*
G02*
X121400672Y-110276422I-149843J370873D01*
G01*
X134160215Y-105552645D02*
X130080606Y-107200914D01*
X116676895Y-97516879D02*
X120756504Y-95868610D01*
X129436438Y-92793102D02*
X131084707Y-96872711D01*
X102421388Y-112972452D02*
G75*
G02*
X101900672Y-112751422I-149843J370873D01*
G01*
X110580605Y-109675914D02*
G75*
G02*
X110320248Y-109565399I-74921J185436D01*
G01*
M02*
