G04 #@! TF.GenerationSoftware,KiCad,Pcbnew,9.0.2*
G04 #@! TF.CreationDate,2025-05-27T21:30:55-04:00*
G04 #@! TF.ProjectId,ThumbsUp_SwitchPlates,5468756d-6273-4557-905f-537769746368,rev?*
G04 #@! TF.SameCoordinates,Original*
G04 #@! TF.FileFunction,Other,ECO2*
%FSLAX46Y46*%
G04 Gerber Fmt 4.6, Leading zero omitted, Abs format (unit mm)*
G04 Created by KiCad (PCBNEW 9.0.2) date 2025-05-27 21:30:55*
%MOMM*%
%LPD*%
G01*
G04 APERTURE LIST*
G04 #@! TA.AperFunction,Profile*
%ADD10C,0.050000*%
G04 #@! TD*
G04 APERTURE END LIST*
D10*
X92988555Y-102504762D02*
X85328555Y-83584762D01*
X115758555Y-158834762D02*
X119928555Y-160244762D01*
X159872491Y-144128725D02*
X119928555Y-160244762D01*
X92988555Y-102504762D02*
X115758555Y-158834762D01*
X97113455Y-95555315D02*
G75*
G02*
X95941843Y-95057995I-337146J834466D01*
G01*
X106385293Y-91809249D02*
X97113455Y-95555315D01*
X90048322Y-82339646D02*
X94127931Y-80691377D01*
X93234345Y-90759222D02*
X91735919Y-87050486D01*
X102287149Y-77394839D02*
X98207540Y-79043108D01*
X107752673Y-89854697D02*
X106104404Y-85775088D01*
X106882613Y-90637637D02*
G75*
G02*
X106385293Y-91809249I-834466J-337146D01*
G01*
X98097025Y-79303467D02*
G75*
G02*
X98207540Y-79043108I185437J74922D01*
G01*
X107531642Y-90375413D02*
X106882613Y-90637637D01*
X89827292Y-82860362D02*
G75*
G02*
X90048322Y-82339646I370873J149843D01*
G01*
X94388289Y-80801892D02*
X98097025Y-79303466D01*
X102287150Y-77394839D02*
G75*
G02*
X102807865Y-77615870I149842J-370873D01*
G01*
X89827292Y-82860362D02*
X91475561Y-86939971D01*
X93123829Y-91019580D02*
G75*
G02*
X93234345Y-90759222I185437J74921D01*
G01*
X105844046Y-85664572D02*
G75*
G02*
X106104404Y-85775088I74921J-185437D01*
G01*
X102807865Y-77615870D02*
X104456135Y-81695479D01*
X104345619Y-81955837D02*
X105844045Y-85664572D01*
X107752673Y-89854696D02*
G75*
G02*
X107531642Y-90375413I-370874J-149843D01*
G01*
X95292815Y-95320220D02*
X95941843Y-95057995D01*
X94127931Y-80691378D02*
G75*
G02*
X94388289Y-80801892I74922J-185436D01*
G01*
X104456135Y-81695479D02*
G75*
G02*
X104345619Y-81955837I-185437J-74921D01*
G01*
X95292815Y-95320219D02*
G75*
G02*
X94772099Y-95099189I-149843J370873D01*
G01*
X94772099Y-95099189D02*
X93123830Y-91019580D01*
X91735918Y-87050486D02*
G75*
G02*
X91475561Y-86939971I-74921J185436D01*
G01*
X116613455Y-93155315D02*
G75*
G02*
X115441843Y-92657995I-337146J834466D01*
G01*
X125885293Y-89409249D02*
X116613455Y-93155315D01*
X109548322Y-79939646D02*
X113627931Y-78291377D01*
X112734345Y-88359222D02*
X111235919Y-84650486D01*
X121787149Y-74994839D02*
X117707540Y-76643108D01*
X127252673Y-87454697D02*
X125604404Y-83375088D01*
X126382613Y-88237637D02*
G75*
G02*
X125885293Y-89409249I-834466J-337146D01*
G01*
X117597025Y-76903467D02*
G75*
G02*
X117707540Y-76643108I185437J74922D01*
G01*
X127031642Y-87975413D02*
X126382613Y-88237637D01*
X109327292Y-80460362D02*
G75*
G02*
X109548322Y-79939646I370873J149843D01*
G01*
X113888289Y-78401892D02*
X117597025Y-76903466D01*
X121787150Y-74994839D02*
G75*
G02*
X122307865Y-75215870I149842J-370873D01*
G01*
X109327292Y-80460362D02*
X110975561Y-84539971D01*
X112623829Y-88619580D02*
G75*
G02*
X112734345Y-88359222I185437J74921D01*
G01*
X125344046Y-83264572D02*
G75*
G02*
X125604404Y-83375088I74921J-185437D01*
G01*
X122307865Y-75215870D02*
X123956135Y-79295479D01*
X123845619Y-79555837D02*
X125344045Y-83264572D01*
X127252673Y-87454696D02*
G75*
G02*
X127031642Y-87975413I-370874J-149843D01*
G01*
X114792815Y-92920220D02*
X115441843Y-92657995D01*
X113627931Y-78291378D02*
G75*
G02*
X113888289Y-78401892I74922J-185436D01*
G01*
X123956135Y-79295479D02*
G75*
G02*
X123845619Y-79555837I-185437J-74921D01*
G01*
X114792815Y-92920219D02*
G75*
G02*
X114272099Y-92699189I-149843J370873D01*
G01*
X114272099Y-92699189D02*
X112623830Y-88619580D01*
X111235918Y-84650486D02*
G75*
G02*
X110975561Y-84539971I-74921J185436D01*
G01*
X136113455Y-90625315D02*
G75*
G02*
X134941843Y-90127995I-337146J834466D01*
G01*
X145385293Y-86879249D02*
X136113455Y-90625315D01*
X129048322Y-77409646D02*
X133127931Y-75761377D01*
X132234345Y-85829222D02*
X130735919Y-82120486D01*
X141287149Y-72464839D02*
X137207540Y-74113108D01*
X146752673Y-84924697D02*
X145104404Y-80845088D01*
X145882613Y-85707637D02*
G75*
G02*
X145385293Y-86879249I-834466J-337146D01*
G01*
X137097025Y-74373467D02*
G75*
G02*
X137207540Y-74113108I185437J74922D01*
G01*
X146531642Y-85445413D02*
X145882613Y-85707637D01*
X128827292Y-77930362D02*
G75*
G02*
X129048322Y-77409646I370873J149843D01*
G01*
X133388289Y-75871892D02*
X137097025Y-74373466D01*
X141287150Y-72464839D02*
G75*
G02*
X141807865Y-72685870I149842J-370873D01*
G01*
X128827292Y-77930362D02*
X130475561Y-82009971D01*
X132123829Y-86089580D02*
G75*
G02*
X132234345Y-85829222I185437J74921D01*
G01*
X144844046Y-80734572D02*
G75*
G02*
X145104404Y-80845088I74921J-185437D01*
G01*
X141807865Y-72685870D02*
X143456135Y-76765479D01*
X143345619Y-77025837D02*
X144844045Y-80734572D01*
X146752673Y-84924696D02*
G75*
G02*
X146531642Y-85445413I-370874J-149843D01*
G01*
X134292815Y-90390220D02*
X134941843Y-90127995D01*
X133127931Y-75761378D02*
G75*
G02*
X133388289Y-75871892I74922J-185436D01*
G01*
X143456135Y-76765479D02*
G75*
G02*
X143345619Y-77025837I-185437J-74921D01*
G01*
X134292815Y-90390219D02*
G75*
G02*
X133772099Y-90169189I-149843J370873D01*
G01*
X133772099Y-90169189D02*
X132123830Y-86089580D01*
X130735918Y-82120486D02*
G75*
G02*
X130475561Y-82009971I-74921J185436D01*
G01*
X152283455Y-79805315D02*
G75*
G02*
X151111843Y-79307995I-337146J834466D01*
G01*
X161555293Y-76059249D02*
X152283455Y-79805315D01*
X145218322Y-66589646D02*
X149297931Y-64941377D01*
X148404345Y-75009222D02*
X146905919Y-71300486D01*
X157457149Y-61644839D02*
X153377540Y-63293108D01*
X162922673Y-74104697D02*
X161274404Y-70025088D01*
X162052613Y-74887637D02*
G75*
G02*
X161555293Y-76059249I-834466J-337146D01*
G01*
X153267025Y-63553467D02*
G75*
G02*
X153377540Y-63293108I185437J74922D01*
G01*
X162701642Y-74625413D02*
X162052613Y-74887637D01*
X144997292Y-67110362D02*
G75*
G02*
X145218322Y-66589646I370873J149843D01*
G01*
X149558289Y-65051892D02*
X153267025Y-63553466D01*
X157457150Y-61644839D02*
G75*
G02*
X157977865Y-61865870I149842J-370873D01*
G01*
X144997292Y-67110362D02*
X146645561Y-71189971D01*
X148293829Y-75269580D02*
G75*
G02*
X148404345Y-75009222I185437J74921D01*
G01*
X161014046Y-69914572D02*
G75*
G02*
X161274404Y-70025088I74921J-185437D01*
G01*
X157977865Y-61865870D02*
X159626135Y-65945479D01*
X159515619Y-66205837D02*
X161014045Y-69914572D01*
X162922673Y-74104696D02*
G75*
G02*
X162701642Y-74625413I-370874J-149843D01*
G01*
X150462815Y-79570220D02*
X151111843Y-79307995D01*
X149297931Y-64941378D02*
G75*
G02*
X149558289Y-65051892I74922J-185436D01*
G01*
X159626135Y-65945479D02*
G75*
G02*
X159515619Y-66205837I-185437J-74921D01*
G01*
X150462815Y-79570219D02*
G75*
G02*
X149942099Y-79349189I-149843J370873D01*
G01*
X149942099Y-79349189D02*
X148293830Y-75269580D01*
X146905918Y-71300486D02*
G75*
G02*
X146645561Y-71189971I-74921J185436D01*
G01*
X115232355Y-97685562D02*
G75*
G02*
X112032355Y-97685562I-1600000J0D01*
G01*
X112032355Y-97685562D02*
G75*
G02*
X115232355Y-97685562I1600000J0D01*
G01*
X155980155Y-105291562D02*
G75*
G02*
X152780155Y-105291562I-1600000J0D01*
G01*
X152780155Y-105291562D02*
G75*
G02*
X155980155Y-105291562I1600000J0D01*
G01*
X130156355Y-130915362D02*
G75*
G02*
X126956355Y-130915362I-1600000J0D01*
G01*
X126956355Y-130915362D02*
G75*
G02*
X130156355Y-130915362I1600000J0D01*
G01*
X163705471Y-120189091D02*
X168949963Y-133169665D01*
X169877147Y-132795059D02*
G75*
G02*
X168949963Y-133169665I-463592J-187303D01*
G01*
X163705471Y-120189091D02*
G75*
G02*
X164632655Y-119814485I463592J187303D01*
G01*
X156705471Y-102789091D02*
G75*
G02*
X157632655Y-102414485I463592J187303D01*
G01*
X169877147Y-132795059D02*
X164632655Y-119814485D01*
X143349963Y-69569666D02*
G75*
G02*
X144277147Y-69195058I463592J187304D01*
G01*
X148023213Y-78466896D02*
G75*
G02*
X147096029Y-78841504I-463592J-187304D01*
G01*
X143349963Y-69569665D02*
X147096029Y-78841504D01*
X148023213Y-78466897D02*
X144277147Y-69195058D01*
X149705471Y-85389091D02*
X154949963Y-98369665D01*
X149705471Y-85389091D02*
G75*
G02*
X150632655Y-85014485I463592J187303D01*
G01*
X155877147Y-97995059D02*
G75*
G02*
X154949963Y-98369665I-463592J-187303D01*
G01*
X155877147Y-97995059D02*
X150632655Y-85014485D01*
X162877147Y-115395059D02*
G75*
G02*
X161949963Y-115769665I-463592J-187303D01*
G01*
X156705471Y-102789091D02*
X161949963Y-115769665D01*
X162877147Y-115395059D02*
X157632655Y-102414485D01*
X186756221Y-126580077D02*
X185540551Y-129444016D01*
X86396642Y-81060907D02*
X85328555Y-83584762D01*
X104013135Y-73943381D02*
X110522088Y-76706268D01*
X86396642Y-81060907D02*
X104013135Y-73943381D01*
X157070450Y-58978043D02*
X159934389Y-60193713D01*
X170787997Y-137777211D02*
X169793358Y-140120434D01*
X185540551Y-129444016D02*
X172003667Y-134913272D01*
X110522088Y-76706268D02*
X123502662Y-71461775D01*
X123502662Y-71461775D02*
X124804452Y-72014353D01*
X186756221Y-126580077D02*
X159934389Y-60193713D01*
X172003667Y-134913272D02*
X170787997Y-137777211D01*
X157070450Y-58978043D02*
X124804452Y-72014353D01*
X169793358Y-140120434D02*
X159872491Y-144128725D01*
X102421388Y-112972452D02*
X106500997Y-111324183D01*
X104080865Y-118137595D02*
X105729134Y-122217204D01*
X112350599Y-114580699D02*
G75*
G02*
X112461113Y-114320341I185436J74922D01*
G01*
X127881505Y-113493610D02*
G75*
G02*
X128141862Y-113604125I74921J-185436D01*
G01*
X116540722Y-112672072D02*
X112461113Y-114320341D01*
X117705605Y-127300914D02*
G75*
G02*
X117445248Y-127190399I-74921J185436D01*
G01*
X116540722Y-112672072D02*
G75*
G02*
X117061438Y-112893102I149843J-370873D01*
G01*
X104301895Y-117616879D02*
X108381504Y-115968610D01*
X98864492Y-104702718D02*
G75*
G02*
X98604134Y-104592204I-74922J185436D01*
G01*
X113736511Y-128688825D02*
G75*
G02*
X113625997Y-128949183I-185436J-74922D01*
G01*
X109025672Y-130376422D02*
X107377403Y-126296813D01*
X137205605Y-124825914D02*
G75*
G02*
X136945248Y-124715399I-74921J185436D01*
G01*
X118709707Y-116972712D02*
G75*
G02*
X118599192Y-117233069I-185436J-74921D01*
G01*
X128525672Y-127901422D02*
X126877403Y-123821813D01*
X110320248Y-109565399D02*
X106611512Y-111063825D01*
X104080865Y-118137595D02*
G75*
G02*
X104301895Y-117616879I370873J149843D01*
G01*
X109546388Y-130597452D02*
G75*
G02*
X109025672Y-130376422I-149843J370873D01*
G01*
X114881245Y-107506929D02*
G75*
G02*
X114660215Y-108027645I-370873J-149843D01*
G01*
X114660215Y-108027645D02*
X110580606Y-109675914D01*
X100362918Y-108411455D02*
X98864492Y-104702719D01*
X105989492Y-122327718D02*
G75*
G02*
X105729134Y-122217204I-74922J185436D01*
G01*
X107487918Y-126036455D02*
X105989492Y-122327719D01*
X138099192Y-114758069D02*
X139597618Y-118466805D01*
X97176895Y-99991879D02*
X101256504Y-98343610D01*
X126877403Y-123821812D02*
G75*
G02*
X126987918Y-123561455I185436J74921D01*
G01*
X123580865Y-115662595D02*
G75*
G02*
X123801895Y-115141879I370873J149843D01*
G01*
X96955865Y-100512595D02*
X98604134Y-104592204D01*
X114881245Y-107506929D02*
X113232976Y-103427320D01*
X117445248Y-127190399D02*
X113736512Y-128688825D01*
X122006245Y-125131929D02*
G75*
G02*
X121785215Y-125652645I-370873J-149843D01*
G01*
X109546388Y-130597452D02*
X113625997Y-128949183D01*
X136040722Y-110197072D02*
G75*
G02*
X136561438Y-110418102I149843J-370873D01*
G01*
X128141862Y-113604125D02*
X131850598Y-112105699D01*
X141285215Y-123177645D02*
X137205606Y-124825914D01*
X101516862Y-98454125D02*
X105225598Y-96955699D01*
X138209707Y-114497712D02*
G75*
G02*
X138099192Y-114758069I-185436J-74921D01*
G01*
X125489492Y-119852718D02*
G75*
G02*
X125229134Y-119742204I-74922J185436D01*
G01*
X136040722Y-110197072D02*
X131961113Y-111845341D01*
X141506245Y-122656929D02*
G75*
G02*
X141285215Y-123177645I-370873J-149843D01*
G01*
X111474192Y-99608069D02*
X112972618Y-103316805D01*
X107377403Y-126296812D02*
G75*
G02*
X107487918Y-126036455I185436J74921D01*
G01*
X122006245Y-125131929D02*
X120357976Y-121052320D01*
X120097618Y-120941806D02*
G75*
G02*
X120357976Y-121052320I74922J-185436D01*
G01*
X139597618Y-118466806D02*
G75*
G02*
X139857976Y-118577320I74922J-185436D01*
G01*
X129046388Y-128122452D02*
X133125997Y-126474183D01*
X136561438Y-110418102D02*
X138209707Y-114497711D01*
X96955865Y-100512595D02*
G75*
G02*
X97176895Y-99991879I370873J149843D01*
G01*
X109936438Y-95268102D02*
X111584707Y-99347711D01*
X123580865Y-115662595D02*
X125229134Y-119742204D01*
X108641862Y-116079125D02*
X112350598Y-114580699D01*
X136945248Y-124715399D02*
X133236512Y-126213825D01*
X129046388Y-128122452D02*
G75*
G02*
X128525672Y-127901422I-149843J370873D01*
G01*
X131850599Y-112105699D02*
G75*
G02*
X131961113Y-111845341I185436J74922D01*
G01*
X111584707Y-99347712D02*
G75*
G02*
X111474192Y-99608069I-185436J-74921D01*
G01*
X112972618Y-103316806D02*
G75*
G02*
X113232976Y-103427320I74922J-185436D01*
G01*
X105225599Y-96955699D02*
G75*
G02*
X105336113Y-96695341I185436J74922D01*
G01*
X108381505Y-115968610D02*
G75*
G02*
X108641862Y-116079125I74921J-185436D01*
G01*
X118599192Y-117233069D02*
X120097618Y-120941805D01*
X121785215Y-125652645D02*
X117705606Y-127300914D01*
X101900672Y-112751422D02*
X100252403Y-108671813D01*
X100252403Y-108671812D02*
G75*
G02*
X100362918Y-108411455I185436J74921D01*
G01*
X106611511Y-111063825D02*
G75*
G02*
X106500997Y-111324183I-185436J-74922D01*
G01*
X117061438Y-112893102D02*
X118709707Y-116972711D01*
X109415722Y-95047072D02*
G75*
G02*
X109936438Y-95268102I149843J-370873D01*
G01*
X143055865Y-113162595D02*
G75*
G02*
X143276895Y-112641879I370873J149843D01*
G01*
X157574192Y-112258069D02*
X159072618Y-115966805D01*
X155515722Y-107697072D02*
G75*
G02*
X156036438Y-107918102I149843J-370873D01*
G01*
X164646388Y-114797452D02*
X168725997Y-113149183D01*
X163481505Y-100168610D02*
G75*
G02*
X163741862Y-100279125I74921J-185436D01*
G01*
X151325599Y-109605699D02*
G75*
G02*
X151436113Y-109345341I185436J74922D01*
G01*
X159401895Y-101816879D02*
X163481504Y-100168610D01*
X156036438Y-107918102D02*
X157684707Y-111997711D01*
X172161438Y-97093102D02*
X173809707Y-101172711D01*
X177106245Y-109331929D02*
X175457976Y-105252320D01*
X171771388Y-132422452D02*
G75*
G02*
X171250672Y-132201422I-149843J370873D01*
G01*
X159180865Y-102337595D02*
X160829134Y-106417204D01*
X171640722Y-96872072D02*
G75*
G02*
X172161438Y-97093102I149843J-370873D01*
G01*
X170606505Y-117793610D02*
G75*
G02*
X170866862Y-117904125I74921J-185436D01*
G01*
X159180865Y-102337595D02*
G75*
G02*
X159401895Y-101816879I370873J149843D01*
G01*
X179930605Y-129125914D02*
G75*
G02*
X179670248Y-129015399I-74921J185436D01*
G01*
X126987918Y-123561455D02*
X125489492Y-119852719D01*
X148521388Y-125622452D02*
G75*
G02*
X148000672Y-125401422I-149843J370873D01*
G01*
X156680605Y-122325914D02*
G75*
G02*
X156420248Y-122215399I-74921J185436D01*
G01*
X160981245Y-120156929D02*
X159332976Y-116077320D01*
X164646388Y-114797452D02*
G75*
G02*
X164125672Y-114576422I-149843J370873D01*
G01*
X146352403Y-121321812D02*
G75*
G02*
X146462918Y-121061455I185436J74921D01*
G01*
X162587918Y-110236455D02*
X161089492Y-106527719D01*
X155515722Y-107697072D02*
X151436113Y-109345341D01*
X160981245Y-120156929D02*
G75*
G02*
X160760215Y-120677645I-370873J-149843D01*
G01*
X160760215Y-120677645D02*
X156680606Y-122325914D01*
X168836511Y-112888825D02*
G75*
G02*
X168725997Y-113149183I-185436J-74922D01*
G01*
X147356505Y-110993610D02*
G75*
G02*
X147616862Y-111104125I74921J-185436D01*
G01*
X146462918Y-121061455D02*
X144964492Y-117352719D01*
X152711511Y-123713825D02*
G75*
G02*
X152600997Y-123974183I-185436J-74922D01*
G01*
X182322618Y-122766806D02*
G75*
G02*
X182582976Y-122877320I74922J-185436D01*
G01*
X144964492Y-117352718D02*
G75*
G02*
X144704134Y-117242204I-74922J185436D01*
G01*
X147616862Y-111104125D02*
X151325598Y-109605699D01*
X171250672Y-132201422D02*
X169602403Y-128121813D01*
X172545248Y-111390399D02*
X168836512Y-112888825D01*
X169602403Y-128121812D02*
G75*
G02*
X169712918Y-127861455I185436J74921D01*
G01*
X161089492Y-106527718D02*
G75*
G02*
X160829134Y-106417204I-74922J185436D01*
G01*
X141506245Y-122656929D02*
X139857976Y-118577320D01*
X178765722Y-114497072D02*
X174686113Y-116145341D01*
X167450599Y-98780699D02*
G75*
G02*
X167561113Y-98520341I185436J74922D01*
G01*
X180824192Y-119058069D02*
X182322618Y-122766805D01*
X168214492Y-124152718D02*
G75*
G02*
X167954134Y-124042204I-74922J185436D01*
G01*
X184231245Y-126956929D02*
G75*
G02*
X184010215Y-127477645I-370873J-149843D01*
G01*
X148521388Y-125622452D02*
X152600997Y-123974183D01*
X163741862Y-100279125D02*
X167450598Y-98780699D01*
X159072618Y-115966806D02*
G75*
G02*
X159332976Y-116077320I74922J-185436D01*
G01*
X173809707Y-101172712D02*
G75*
G02*
X173699192Y-101433069I-185436J-74921D01*
G01*
X143276895Y-112641879D02*
X147356504Y-110993610D01*
X177106245Y-109331929D02*
G75*
G02*
X176885215Y-109852645I-370873J-149843D01*
G01*
X166305865Y-119962595D02*
G75*
G02*
X166526895Y-119441879I370873J149843D01*
G01*
X156420248Y-122215399D02*
X152711512Y-123713825D01*
X172805605Y-111500914D02*
G75*
G02*
X172545248Y-111390399I-74921J185436D01*
G01*
X178765722Y-114497072D02*
G75*
G02*
X179286438Y-114718102I149843J-370873D01*
G01*
X123801895Y-115141879D02*
X127881504Y-113493610D01*
X176885215Y-109852645D02*
X172805606Y-111500914D01*
X162477403Y-110496812D02*
G75*
G02*
X162587918Y-110236455I185436J74921D01*
G01*
X171640722Y-96872072D02*
X167561113Y-98520341D01*
X133236511Y-126213825D02*
G75*
G02*
X133125997Y-126474183I-185436J-74922D01*
G01*
X157684707Y-111997712D02*
G75*
G02*
X157574192Y-112258069I-185436J-74921D01*
G01*
X143055865Y-113162595D02*
X144704134Y-117242204D01*
X175197618Y-105141806D02*
G75*
G02*
X175457976Y-105252320I74922J-185436D01*
G01*
X164125672Y-114576422D02*
X162477403Y-110496813D01*
X148000672Y-125401422D02*
X146352403Y-121321813D01*
X173699192Y-101433069D02*
X175197618Y-105141805D01*
X124805605Y-144925914D02*
G75*
G02*
X124545248Y-144815399I-74921J185436D01*
G01*
X162640722Y-125322072D02*
X158561113Y-126970341D01*
X136146388Y-145722452D02*
G75*
G02*
X135625672Y-145501422I-149843J370873D01*
G01*
X132589492Y-137452718D02*
G75*
G02*
X132329134Y-137342204I-74922J185436D01*
G01*
X175961511Y-130513825D02*
G75*
G02*
X175850997Y-130774183I-185436J-74922D01*
G01*
X180934707Y-118797712D02*
G75*
G02*
X180824192Y-119058069I-185436J-74921D01*
G01*
X166197618Y-133591806D02*
G75*
G02*
X166457976Y-133702320I74922J-185436D01*
G01*
X155125672Y-143026422D02*
X153477403Y-138946813D01*
X153477403Y-138946812D02*
G75*
G02*
X153587918Y-138686455I185436J74921D01*
G01*
X164809707Y-129622712D02*
G75*
G02*
X164699192Y-129883069I-185436J-74921D01*
G01*
X134981505Y-131093610D02*
G75*
G02*
X135241862Y-131204125I74921J-185436D01*
G01*
X144305605Y-142425914D02*
G75*
G02*
X144045248Y-142315399I-74921J185436D01*
G01*
X155646388Y-143247452D02*
G75*
G02*
X155125672Y-143026422I-149843J370873D01*
G01*
X184010215Y-127477645D02*
X179930606Y-129125914D01*
X179286438Y-114718102D02*
X180934707Y-118797711D01*
X163161438Y-125543102D02*
X164809707Y-129622711D01*
X163545248Y-139840399D02*
X159836512Y-141338825D01*
X150180865Y-130787595D02*
G75*
G02*
X150401895Y-130266879I370873J149843D01*
G01*
X146697618Y-136066806D02*
G75*
G02*
X146957976Y-136177320I74922J-185436D01*
G01*
X145199192Y-132358069D02*
X146697618Y-136066805D01*
X162640722Y-125322072D02*
G75*
G02*
X163161438Y-125543102I149843J-370873D01*
G01*
X148606245Y-140256929D02*
G75*
G02*
X148385215Y-140777645I-370873J-149843D01*
G01*
X167885215Y-138302645D02*
X163805606Y-139950914D01*
X148385215Y-140777645D02*
X144305606Y-142425914D01*
X154741862Y-128729125D02*
X158450598Y-127230699D01*
X150401895Y-130266879D02*
X154481504Y-128618610D01*
X133977403Y-141421812D02*
G75*
G02*
X134087918Y-141161455I185436J74921D01*
G01*
X145309707Y-132097712D02*
G75*
G02*
X145199192Y-132358069I-185436J-74921D01*
G01*
X135625672Y-145501422D02*
X133977403Y-141421813D01*
X144045248Y-142315399D02*
X140336512Y-143813825D01*
X140336511Y-143813825D02*
G75*
G02*
X140225997Y-144074183I-185436J-74922D01*
G01*
X130901895Y-132741879D02*
X134981504Y-131093610D01*
X166526895Y-119441879D02*
X170606504Y-117793610D01*
X134087918Y-141161455D02*
X132589492Y-137452719D01*
X148606245Y-140256929D02*
X146957976Y-136177320D01*
X143140722Y-127797072D02*
X139061113Y-129445341D01*
X169712918Y-127861455D02*
X168214492Y-124152719D01*
X143661438Y-128018102D02*
X145309707Y-132097711D01*
X179670248Y-129015399D02*
X175961512Y-130513825D01*
X184231245Y-126956929D02*
X182582976Y-122877320D01*
X154481505Y-128618610D02*
G75*
G02*
X154741862Y-128729125I74921J-185436D01*
G01*
X163805605Y-139950914D02*
G75*
G02*
X163545248Y-139840399I-74921J185436D01*
G01*
X164699192Y-129883069D02*
X166197618Y-133591805D01*
X166305865Y-119962595D02*
X167954134Y-124042204D01*
X152089492Y-134977718D02*
G75*
G02*
X151829134Y-134867204I-74922J185436D01*
G01*
X168106245Y-137781929D02*
G75*
G02*
X167885215Y-138302645I-370873J-149843D01*
G01*
X150180865Y-130787595D02*
X151829134Y-134867204D01*
X174575599Y-116405699D02*
G75*
G02*
X174686113Y-116145341I185436J74922D01*
G01*
X168106245Y-137781929D02*
X166457976Y-133702320D01*
X130680865Y-133262595D02*
G75*
G02*
X130901895Y-132741879I370873J149843D01*
G01*
X143140722Y-127797072D02*
G75*
G02*
X143661438Y-128018102I149843J-370873D01*
G01*
X159836511Y-141338825D02*
G75*
G02*
X159725997Y-141599183I-185436J-74922D01*
G01*
X138950599Y-129705699D02*
G75*
G02*
X139061113Y-129445341I185436J74922D01*
G01*
X170866862Y-117904125D02*
X174575598Y-116405699D01*
X158450599Y-127230699D02*
G75*
G02*
X158561113Y-126970341I185436J74922D01*
G01*
X155646388Y-143247452D02*
X159725997Y-141599183D01*
X130680865Y-133262595D02*
X132329134Y-137342204D01*
X135241862Y-131204125D02*
X138950598Y-129705699D01*
X171771388Y-132422452D02*
X175850997Y-130774183D01*
X115481505Y-133593610D02*
G75*
G02*
X115741862Y-133704125I74921J-185436D01*
G01*
X116646388Y-148222452D02*
G75*
G02*
X116125672Y-148001422I-149843J370873D01*
G01*
X123640722Y-130297072D02*
X119561113Y-131945341D01*
X153587918Y-138686455D02*
X152089492Y-134977719D01*
X136146388Y-145722452D02*
X140225997Y-144074183D01*
X125809707Y-134597712D02*
G75*
G02*
X125699192Y-134858069I-185436J-74921D01*
G01*
X115741862Y-133704125D02*
X119450598Y-132205699D01*
X113089492Y-139952718D02*
G75*
G02*
X112829134Y-139842204I-74922J185436D01*
G01*
X111401895Y-135241879D02*
X115481504Y-133593610D01*
X124161438Y-130518102D02*
X125809707Y-134597711D01*
X129106245Y-142756929D02*
X127457976Y-138677320D01*
X116125672Y-148001422D02*
X114477403Y-143921813D01*
X128885215Y-143277645D02*
X124805606Y-144925914D01*
X114477403Y-143921812D02*
G75*
G02*
X114587918Y-143661455I185436J74921D01*
G01*
X114587918Y-143661455D02*
X113089492Y-139952719D01*
X127197618Y-138566806D02*
G75*
G02*
X127457976Y-138677320I74922J-185436D01*
G01*
X111180865Y-135762595D02*
X112829134Y-139842204D01*
X120836511Y-146313825D02*
G75*
G02*
X120725997Y-146574183I-185436J-74922D01*
G01*
X111180865Y-135762595D02*
G75*
G02*
X111401895Y-135241879I370873J149843D01*
G01*
X119450599Y-132205699D02*
G75*
G02*
X119561113Y-131945341I185436J74922D01*
G01*
X124545248Y-144815399D02*
X120836512Y-146313825D01*
X129106245Y-142756929D02*
G75*
G02*
X128885215Y-143277645I-370873J-149843D01*
G01*
X123640722Y-130297072D02*
G75*
G02*
X124161438Y-130518102I149843J-370873D01*
G01*
X116646388Y-148222452D02*
X120725997Y-146574183D01*
X125699192Y-134858069D02*
X127197618Y-138566805D01*
X168072618Y-87541806D02*
G75*
G02*
X168332976Y-87652320I74922J-185436D01*
G01*
X155462918Y-92636455D02*
X153964492Y-88927719D01*
X169981245Y-91731929D02*
G75*
G02*
X169760215Y-92252645I-370873J-149843D01*
G01*
X161711511Y-95288825D02*
G75*
G02*
X161600997Y-95549183I-185436J-74922D01*
G01*
X152276895Y-84216879D02*
X156356504Y-82568610D01*
X165680605Y-93900914D02*
G75*
G02*
X165420248Y-93790399I-74921J185436D01*
G01*
X169981245Y-91731929D02*
X168332976Y-87652320D01*
X140491862Y-93504125D02*
X144200598Y-92005699D01*
X169760215Y-92252645D02*
X165680606Y-93900914D01*
X155352403Y-92896812D02*
G75*
G02*
X155462918Y-92636455I185436J74921D01*
G01*
X156616862Y-82679125D02*
X160325598Y-81180699D01*
X166684707Y-83572712D02*
G75*
G02*
X166574192Y-83833069I-185436J-74921D01*
G01*
X160325599Y-81180699D02*
G75*
G02*
X160436113Y-80920341I185436J74922D01*
G01*
X152055865Y-84737595D02*
X153704134Y-88817204D01*
X153635215Y-103077645D02*
X149555606Y-104725914D01*
X157521388Y-97197452D02*
G75*
G02*
X157000672Y-96976422I-149843J370873D01*
G01*
X166574192Y-83833069D02*
X168072618Y-87541805D01*
X140875672Y-107801422D02*
X139227403Y-103721813D01*
X140231505Y-93393610D02*
G75*
G02*
X140491862Y-93504125I74921J-185436D01*
G01*
X149555605Y-104725914D02*
G75*
G02*
X149295248Y-104615399I-74921J185436D01*
G01*
X139227403Y-103721812D02*
G75*
G02*
X139337918Y-103461455I185436J74921D01*
G01*
X137839492Y-99752718D02*
G75*
G02*
X137579134Y-99642204I-74922J185436D01*
G01*
X156356505Y-82568610D02*
G75*
G02*
X156616862Y-82679125I74921J-185436D01*
G01*
X153856245Y-102556929D02*
G75*
G02*
X153635215Y-103077645I-370873J-149843D01*
G01*
X135930865Y-95562595D02*
G75*
G02*
X136151895Y-95041879I370873J149843D01*
G01*
X157521388Y-97197452D02*
X161600997Y-95549183D01*
X148390722Y-90097072D02*
G75*
G02*
X148911438Y-90318102I149843J-370873D01*
G01*
X150559707Y-94397712D02*
G75*
G02*
X150449192Y-94658069I-185436J-74921D01*
G01*
X148911438Y-90318102D02*
X150559707Y-94397711D01*
X164515722Y-79272072D02*
X160436113Y-80920341D01*
X144200599Y-92005699D02*
G75*
G02*
X144311113Y-91745341I185436J74922D01*
G01*
X135930865Y-95562595D02*
X137579134Y-99642204D01*
X149295248Y-104615399D02*
X145586512Y-106113825D01*
X139337918Y-103461455D02*
X137839492Y-99752719D01*
X145586511Y-106113825D02*
G75*
G02*
X145475997Y-106374183I-185436J-74922D01*
G01*
X165036438Y-79493102D02*
X166684707Y-83572711D01*
X141396388Y-108022452D02*
X145475997Y-106374183D01*
X136151895Y-95041879D02*
X140231504Y-93393610D01*
X165420248Y-93790399D02*
X161711512Y-95288825D01*
X153856245Y-102556929D02*
X152207976Y-98477320D01*
X153964492Y-88927718D02*
G75*
G02*
X153704134Y-88817204I-74922J185436D01*
G01*
X152055865Y-84737595D02*
G75*
G02*
X152276895Y-84216879I370873J149843D01*
G01*
X151947618Y-98366806D02*
G75*
G02*
X152207976Y-98477320I74922J-185436D01*
G01*
X164515722Y-79272072D02*
G75*
G02*
X165036438Y-79493102I149843J-370873D01*
G01*
X141396388Y-108022452D02*
G75*
G02*
X140875672Y-107801422I-149843J370873D01*
G01*
X148390722Y-90097072D02*
X144311113Y-91745341D01*
X150449192Y-94658069D02*
X151947618Y-98366805D01*
X157000672Y-96976422D02*
X155352403Y-92896813D01*
X130974192Y-97133069D02*
X132472618Y-100841805D01*
X118364492Y-102227718D02*
G75*
G02*
X118104134Y-102117204I-74922J185436D01*
G01*
X116455865Y-98037595D02*
G75*
G02*
X116676895Y-97516879I370873J149843D01*
G01*
X130080605Y-107200914D02*
G75*
G02*
X129820248Y-107090399I-74921J185436D01*
G01*
X132472618Y-100841806D02*
G75*
G02*
X132732976Y-100952320I74922J-185436D01*
G01*
X121921388Y-110497452D02*
X126000997Y-108849183D01*
X120756505Y-95868610D02*
G75*
G02*
X121016862Y-95979125I74921J-185436D01*
G01*
X119752403Y-106196812D02*
G75*
G02*
X119862918Y-105936455I185436J74921D01*
G01*
X121016862Y-95979125D02*
X124725598Y-94480699D01*
X131084707Y-96872712D02*
G75*
G02*
X130974192Y-97133069I-185436J-74921D01*
G01*
X116455865Y-98037595D02*
X118104134Y-102117204D01*
X129820248Y-107090399D02*
X126111512Y-108588825D01*
X119862918Y-105936455D02*
X118364492Y-102227719D01*
X121400672Y-110276422D02*
X119752403Y-106196813D01*
X124725599Y-94480699D02*
G75*
G02*
X124836113Y-94220341I185436J74922D01*
G01*
X128915722Y-92572072D02*
G75*
G02*
X129436438Y-92793102I149843J-370873D01*
G01*
X101256505Y-98343610D02*
G75*
G02*
X101516862Y-98454125I74921J-185436D01*
G01*
X109415722Y-95047072D02*
X105336113Y-96695341D01*
X134381245Y-105031929D02*
G75*
G02*
X134160215Y-105552645I-370873J-149843D01*
G01*
X126111511Y-108588825D02*
G75*
G02*
X126000997Y-108849183I-185436J-74922D01*
G01*
X134381245Y-105031929D02*
X132732976Y-100952320D01*
X128915722Y-92572072D02*
X124836113Y-94220341D01*
X121921388Y-110497452D02*
G75*
G02*
X121400672Y-110276422I-149843J370873D01*
G01*
X134160215Y-105552645D02*
X130080606Y-107200914D01*
X116676895Y-97516879D02*
X120756504Y-95868610D01*
X129436438Y-92793102D02*
X131084707Y-96872711D01*
X102421388Y-112972452D02*
G75*
G02*
X101900672Y-112751422I-149843J370873D01*
G01*
X110580605Y-109675914D02*
G75*
G02*
X110320248Y-109565399I-74921J185436D01*
G01*
M02*
