G04 #@! TF.GenerationSoftware,KiCad,Pcbnew,9.0.2*
G04 #@! TF.CreationDate,2025-05-27T21:30:55-04:00*
G04 #@! TF.ProjectId,ThumbsUp_SwitchPlates,5468756d-6273-4557-905f-537769746368,rev?*
G04 #@! TF.SameCoordinates,Original*
G04 #@! TF.FileFunction,AssemblyDrawing,Top*
%FSLAX46Y46*%
G04 Gerber Fmt 4.6, Leading zero omitted, Abs format (unit mm)*
G04 Created by KiCad (PCBNEW 9.0.2) date 2025-05-27 21:30:55*
%MOMM*%
%LPD*%
G01*
G04 APERTURE LIST*
%ADD10C,0.150000*%
G04 #@! TA.AperFunction,Profile*
%ADD11C,0.050000*%
G04 #@! TD*
G04 APERTURE END LIST*
D10*
X147769877Y-71253122D02*
X147920170Y-71243759D01*
X147920170Y-71243759D02*
X148140928Y-71154567D01*
X148140928Y-71154567D02*
X148211393Y-71074738D01*
X148211393Y-71074738D02*
X148237706Y-71012748D01*
X148237706Y-71012748D02*
X148246181Y-70906607D01*
X148246181Y-70906607D02*
X148210504Y-70818303D01*
X148210504Y-70818303D02*
X148130676Y-70747839D01*
X148130676Y-70747839D02*
X148068686Y-70721525D01*
X148068686Y-70721525D02*
X147962544Y-70713051D01*
X147962544Y-70713051D02*
X147768099Y-70740253D01*
X147768099Y-70740253D02*
X147661958Y-70731778D01*
X147661958Y-70731778D02*
X147599968Y-70705465D01*
X147599968Y-70705465D02*
X147520139Y-70635000D01*
X147520139Y-70635000D02*
X147484462Y-70546697D01*
X147484462Y-70546697D02*
X147492937Y-70440555D01*
X147492937Y-70440555D02*
X147519250Y-70378565D01*
X147519250Y-70378565D02*
X147589715Y-70298737D01*
X147589715Y-70298737D02*
X147810473Y-70209545D01*
X147810473Y-70209545D02*
X147960766Y-70200181D01*
X148376858Y-70340222D02*
X148803202Y-70886991D01*
X148803202Y-70886991D02*
X148801425Y-70374121D01*
X148801425Y-70374121D02*
X149156415Y-70744283D01*
X149156415Y-70744283D02*
X149083284Y-70054807D01*
X149686235Y-70530222D02*
X149311628Y-69603039D01*
X149311628Y-69603039D02*
X149532386Y-69513847D01*
X149532386Y-69513847D02*
X149682679Y-69504483D01*
X149682679Y-69504483D02*
X149806659Y-69557109D01*
X149806659Y-69557109D02*
X149886488Y-69627574D01*
X149886488Y-69627574D02*
X150001993Y-69786342D01*
X150001993Y-69786342D02*
X150055508Y-69918797D01*
X150055508Y-69918797D02*
X150082710Y-70113242D01*
X150082710Y-70113242D02*
X150074235Y-70219384D01*
X150074235Y-70219384D02*
X150021609Y-70343364D01*
X150021609Y-70343364D02*
X149906993Y-70441030D01*
X149906993Y-70441030D02*
X149686235Y-70530222D01*
X150417196Y-69669948D02*
X150726257Y-69545079D01*
X151054935Y-69977232D02*
X150613418Y-70155616D01*
X150613418Y-70155616D02*
X150238812Y-69228432D01*
X150238812Y-69228432D02*
X150680328Y-69050048D01*
X151893815Y-69638302D02*
X151452299Y-69816686D01*
X151452299Y-69816686D02*
X151077693Y-68889502D01*
X132468615Y-81749373D02*
X132618908Y-81740009D01*
X132618908Y-81740009D02*
X132839667Y-81650817D01*
X132839667Y-81650817D02*
X132910131Y-81570989D01*
X132910131Y-81570989D02*
X132936445Y-81508999D01*
X132936445Y-81508999D02*
X132944919Y-81402857D01*
X132944919Y-81402857D02*
X132909243Y-81314554D01*
X132909243Y-81314554D02*
X132829414Y-81244089D01*
X132829414Y-81244089D02*
X132767424Y-81217776D01*
X132767424Y-81217776D02*
X132661282Y-81209301D01*
X132661282Y-81209301D02*
X132466838Y-81236503D01*
X132466838Y-81236503D02*
X132360696Y-81228028D01*
X132360696Y-81228028D02*
X132298706Y-81201715D01*
X132298706Y-81201715D02*
X132218877Y-81131250D01*
X132218877Y-81131250D02*
X132183201Y-81042947D01*
X132183201Y-81042947D02*
X132191675Y-80936805D01*
X132191675Y-80936805D02*
X132217989Y-80874815D01*
X132217989Y-80874815D02*
X132288453Y-80794987D01*
X132288453Y-80794987D02*
X132509212Y-80705795D01*
X132509212Y-80705795D02*
X132659505Y-80696431D01*
X133075597Y-80836472D02*
X133501941Y-81383241D01*
X133501941Y-81383241D02*
X133500163Y-80870371D01*
X133500163Y-80870371D02*
X133855154Y-81240534D01*
X133855154Y-81240534D02*
X133782022Y-80551057D01*
X134186973Y-80027935D02*
X134275276Y-79992258D01*
X134275276Y-79992258D02*
X134381418Y-80000733D01*
X134381418Y-80000733D02*
X134443408Y-80027046D01*
X134443408Y-80027046D02*
X134523236Y-80097511D01*
X134523236Y-80097511D02*
X134638741Y-80256279D01*
X134638741Y-80256279D02*
X134727933Y-80477037D01*
X134727933Y-80477037D02*
X134755135Y-80671482D01*
X134755135Y-80671482D02*
X134746661Y-80777624D01*
X134746661Y-80777624D02*
X134720347Y-80839614D01*
X134720347Y-80839614D02*
X134649883Y-80919442D01*
X134649883Y-80919442D02*
X134561579Y-80955119D01*
X134561579Y-80955119D02*
X134455438Y-80946644D01*
X134455438Y-80946644D02*
X134393448Y-80920331D01*
X134393448Y-80920331D02*
X134313619Y-80849866D01*
X134313619Y-80849866D02*
X134198114Y-80691098D01*
X134198114Y-80691098D02*
X134108922Y-80470340D01*
X134108922Y-80470340D02*
X134081720Y-80275895D01*
X134081720Y-80275895D02*
X134090195Y-80169754D01*
X134090195Y-80169754D02*
X134116508Y-80107764D01*
X134116508Y-80107764D02*
X134186973Y-80027935D01*
X112979089Y-84230979D02*
X113129382Y-84221615D01*
X113129382Y-84221615D02*
X113350141Y-84132423D01*
X113350141Y-84132423D02*
X113420605Y-84052595D01*
X113420605Y-84052595D02*
X113446919Y-83990605D01*
X113446919Y-83990605D02*
X113455393Y-83884463D01*
X113455393Y-83884463D02*
X113419717Y-83796160D01*
X113419717Y-83796160D02*
X113339888Y-83725695D01*
X113339888Y-83725695D02*
X113277898Y-83699382D01*
X113277898Y-83699382D02*
X113171756Y-83690907D01*
X113171756Y-83690907D02*
X112977312Y-83718109D01*
X112977312Y-83718109D02*
X112871170Y-83709634D01*
X112871170Y-83709634D02*
X112809180Y-83683321D01*
X112809180Y-83683321D02*
X112729351Y-83612856D01*
X112729351Y-83612856D02*
X112693675Y-83524553D01*
X112693675Y-83524553D02*
X112702149Y-83418411D01*
X112702149Y-83418411D02*
X112728463Y-83356421D01*
X112728463Y-83356421D02*
X112798927Y-83276593D01*
X112798927Y-83276593D02*
X113019686Y-83187401D01*
X113019686Y-83187401D02*
X113169979Y-83178037D01*
X113586071Y-83318078D02*
X114012415Y-83864847D01*
X114012415Y-83864847D02*
X114010637Y-83351977D01*
X114010637Y-83351977D02*
X114365628Y-83722140D01*
X114365628Y-83722140D02*
X114292496Y-83032663D01*
X114939599Y-83490240D02*
X115116205Y-83418887D01*
X115116205Y-83418887D02*
X115186670Y-83339058D01*
X115186670Y-83339058D02*
X115212983Y-83277068D01*
X115212983Y-83277068D02*
X115247771Y-83108936D01*
X115247771Y-83108936D02*
X115220569Y-82914492D01*
X115220569Y-82914492D02*
X115077862Y-82561279D01*
X115077862Y-82561279D02*
X114998033Y-82490814D01*
X114998033Y-82490814D02*
X114936043Y-82464501D01*
X114936043Y-82464501D02*
X114829902Y-82456026D01*
X114829902Y-82456026D02*
X114653295Y-82527380D01*
X114653295Y-82527380D02*
X114582830Y-82607208D01*
X114582830Y-82607208D02*
X114556517Y-82669198D01*
X114556517Y-82669198D02*
X114548042Y-82775340D01*
X114548042Y-82775340D02*
X114637234Y-82996098D01*
X114637234Y-82996098D02*
X114717063Y-83066563D01*
X114717063Y-83066563D02*
X114779053Y-83092876D01*
X114779053Y-83092876D02*
X114885195Y-83101351D01*
X114885195Y-83101351D02*
X115061801Y-83029997D01*
X115061801Y-83029997D02*
X115132266Y-82950168D01*
X115132266Y-82950168D02*
X115158579Y-82888178D01*
X115158579Y-82888178D02*
X115167054Y-82782037D01*
X93489563Y-86712585D02*
X93639856Y-86703221D01*
X93639856Y-86703221D02*
X93860615Y-86614029D01*
X93860615Y-86614029D02*
X93931079Y-86534201D01*
X93931079Y-86534201D02*
X93957393Y-86472211D01*
X93957393Y-86472211D02*
X93965867Y-86366069D01*
X93965867Y-86366069D02*
X93930191Y-86277766D01*
X93930191Y-86277766D02*
X93850362Y-86207301D01*
X93850362Y-86207301D02*
X93788372Y-86180988D01*
X93788372Y-86180988D02*
X93682230Y-86172513D01*
X93682230Y-86172513D02*
X93487786Y-86199715D01*
X93487786Y-86199715D02*
X93381644Y-86191240D01*
X93381644Y-86191240D02*
X93319654Y-86164927D01*
X93319654Y-86164927D02*
X93239825Y-86094462D01*
X93239825Y-86094462D02*
X93204149Y-86006159D01*
X93204149Y-86006159D02*
X93212623Y-85900017D01*
X93212623Y-85900017D02*
X93238937Y-85838027D01*
X93238937Y-85838027D02*
X93309401Y-85758199D01*
X93309401Y-85758199D02*
X93530160Y-85669007D01*
X93530160Y-85669007D02*
X93680453Y-85659643D01*
X94096545Y-85799684D02*
X94522889Y-86346453D01*
X94522889Y-86346453D02*
X94521111Y-85833583D01*
X94521111Y-85833583D02*
X94876102Y-86203746D01*
X94876102Y-86203746D02*
X94802970Y-85514269D01*
X95324315Y-85406350D02*
X95218173Y-85397875D01*
X95218173Y-85397875D02*
X95156183Y-85371562D01*
X95156183Y-85371562D02*
X95076355Y-85301097D01*
X95076355Y-85301097D02*
X95058516Y-85256946D01*
X95058516Y-85256946D02*
X95066991Y-85150804D01*
X95066991Y-85150804D02*
X95093304Y-85088814D01*
X95093304Y-85088814D02*
X95163769Y-85008986D01*
X95163769Y-85008986D02*
X95340376Y-84937632D01*
X95340376Y-84937632D02*
X95446517Y-84946107D01*
X95446517Y-84946107D02*
X95508507Y-84972420D01*
X95508507Y-84972420D02*
X95588336Y-85042885D01*
X95588336Y-85042885D02*
X95606174Y-85087036D01*
X95606174Y-85087036D02*
X95597699Y-85193178D01*
X95597699Y-85193178D02*
X95571386Y-85255168D01*
X95571386Y-85255168D02*
X95500921Y-85334996D01*
X95500921Y-85334996D02*
X95324315Y-85406350D01*
X95324315Y-85406350D02*
X95253850Y-85486179D01*
X95253850Y-85486179D02*
X95227537Y-85548169D01*
X95227537Y-85548169D02*
X95219062Y-85654310D01*
X95219062Y-85654310D02*
X95290416Y-85830917D01*
X95290416Y-85830917D02*
X95370244Y-85901381D01*
X95370244Y-85901381D02*
X95432234Y-85927695D01*
X95432234Y-85927695D02*
X95538376Y-85936169D01*
X95538376Y-85936169D02*
X95714982Y-85864816D01*
X95714982Y-85864816D02*
X95785447Y-85784987D01*
X95785447Y-85784987D02*
X95811760Y-85722997D01*
X95811760Y-85722997D02*
X95820235Y-85616856D01*
X95820235Y-85616856D02*
X95748881Y-85440249D01*
X95748881Y-85440249D02*
X95669053Y-85369784D01*
X95669053Y-85369784D02*
X95607063Y-85343471D01*
X95607063Y-85343471D02*
X95500921Y-85334996D01*
X168261497Y-124450451D02*
X168411790Y-124441088D01*
X168411790Y-124441088D02*
X168632548Y-124351896D01*
X168632548Y-124351896D02*
X168703013Y-124272067D01*
X168703013Y-124272067D02*
X168729326Y-124210077D01*
X168729326Y-124210077D02*
X168737801Y-124103936D01*
X168737801Y-124103936D02*
X168702124Y-124015632D01*
X168702124Y-124015632D02*
X168622296Y-123945167D01*
X168622296Y-123945167D02*
X168560306Y-123918854D01*
X168560306Y-123918854D02*
X168454164Y-123910379D01*
X168454164Y-123910379D02*
X168259719Y-123937581D01*
X168259719Y-123937581D02*
X168153578Y-123929107D01*
X168153578Y-123929107D02*
X168091587Y-123902794D01*
X168091587Y-123902794D02*
X168011759Y-123832329D01*
X168011759Y-123832329D02*
X167976082Y-123744025D01*
X167976082Y-123744025D02*
X167984557Y-123637884D01*
X167984557Y-123637884D02*
X168010870Y-123575894D01*
X168010870Y-123575894D02*
X168081335Y-123496065D01*
X168081335Y-123496065D02*
X168302093Y-123406873D01*
X168302093Y-123406873D02*
X168452386Y-123397510D01*
X168868478Y-123537551D02*
X169294822Y-124084319D01*
X169294822Y-124084319D02*
X169293045Y-123571450D01*
X169293045Y-123571450D02*
X169648035Y-123941612D01*
X169648035Y-123941612D02*
X169574904Y-123252136D01*
X170707674Y-123513490D02*
X170220228Y-123196843D01*
X170177855Y-123727551D02*
X169803248Y-122800367D01*
X169803248Y-122800367D02*
X170156461Y-122657660D01*
X170156461Y-122657660D02*
X170262602Y-122666135D01*
X170262602Y-122666135D02*
X170324592Y-122692448D01*
X170324592Y-122692448D02*
X170404421Y-122762913D01*
X170404421Y-122762913D02*
X170457936Y-122895368D01*
X170457936Y-122895368D02*
X170449461Y-123001509D01*
X170449461Y-123001509D02*
X170423148Y-123063499D01*
X170423148Y-123063499D02*
X170352683Y-123143328D01*
X170352683Y-123143328D02*
X169999470Y-123286035D01*
X171599181Y-123050581D02*
X171572868Y-123112571D01*
X171572868Y-123112571D02*
X171458251Y-123210237D01*
X171458251Y-123210237D02*
X171369948Y-123245914D01*
X171369948Y-123245914D02*
X171219655Y-123255278D01*
X171219655Y-123255278D02*
X171095675Y-123202651D01*
X171095675Y-123202651D02*
X171015846Y-123132187D01*
X171015846Y-123132187D02*
X170900341Y-122973419D01*
X170900341Y-122973419D02*
X170846826Y-122840964D01*
X170846826Y-122840964D02*
X170819624Y-122646519D01*
X170819624Y-122646519D02*
X170828099Y-122540377D01*
X170828099Y-122540377D02*
X170880725Y-122416397D01*
X170880725Y-122416397D02*
X170995341Y-122318730D01*
X170995341Y-122318730D02*
X171083645Y-122283054D01*
X171083645Y-122283054D02*
X171233938Y-122273690D01*
X171233938Y-122273690D02*
X171295928Y-122300003D01*
X171525161Y-122104669D02*
X172054980Y-121890609D01*
X172164677Y-122924823D02*
X171790070Y-121997639D01*
X173268468Y-122478863D02*
X172781022Y-122162215D01*
X172738648Y-122692923D02*
X172364042Y-121765740D01*
X172364042Y-121765740D02*
X172717255Y-121623032D01*
X172717255Y-121623032D02*
X172823396Y-121631507D01*
X172823396Y-121631507D02*
X172885386Y-121657820D01*
X172885386Y-121657820D02*
X172965215Y-121728285D01*
X172965215Y-121728285D02*
X173018730Y-121860740D01*
X173018730Y-121860740D02*
X173010255Y-121966882D01*
X173010255Y-121966882D02*
X172983942Y-122028872D01*
X172983942Y-122028872D02*
X172913477Y-122108700D01*
X172913477Y-122108700D02*
X172560264Y-122251407D01*
X174107348Y-122139933D02*
X173665832Y-122318317D01*
X173665832Y-122318317D02*
X173291225Y-121391133D01*
X161121896Y-106842878D02*
X161272189Y-106833514D01*
X161272189Y-106833514D02*
X161492947Y-106744322D01*
X161492947Y-106744322D02*
X161563412Y-106664494D01*
X161563412Y-106664494D02*
X161589725Y-106602504D01*
X161589725Y-106602504D02*
X161598200Y-106496362D01*
X161598200Y-106496362D02*
X161562523Y-106408059D01*
X161562523Y-106408059D02*
X161482694Y-106337594D01*
X161482694Y-106337594D02*
X161420704Y-106311281D01*
X161420704Y-106311281D02*
X161314563Y-106302806D01*
X161314563Y-106302806D02*
X161120118Y-106330008D01*
X161120118Y-106330008D02*
X161013976Y-106321533D01*
X161013976Y-106321533D02*
X160951986Y-106295220D01*
X160951986Y-106295220D02*
X160872158Y-106224755D01*
X160872158Y-106224755D02*
X160836481Y-106136452D01*
X160836481Y-106136452D02*
X160844956Y-106030310D01*
X160844956Y-106030310D02*
X160871269Y-105968320D01*
X160871269Y-105968320D02*
X160941734Y-105888492D01*
X160941734Y-105888492D02*
X161162492Y-105799300D01*
X161162492Y-105799300D02*
X161312785Y-105789936D01*
X161728877Y-105929977D02*
X162155221Y-106476746D01*
X162155221Y-106476746D02*
X162153443Y-105963876D01*
X162153443Y-105963876D02*
X162508434Y-106334039D01*
X162508434Y-106334039D02*
X162435303Y-105644562D01*
X162842031Y-105634310D02*
X163151092Y-105509441D01*
X163479769Y-105941594D02*
X163038253Y-106119978D01*
X163038253Y-106119978D02*
X162663647Y-105192794D01*
X162663647Y-105192794D02*
X163105163Y-105014410D01*
X163877134Y-105781048D02*
X163502527Y-104853864D01*
X163502527Y-104853864D02*
X164406953Y-105566987D01*
X164406953Y-105566987D02*
X164032347Y-104639803D01*
X164341408Y-104514934D02*
X164871227Y-104300873D01*
X164980924Y-105335088D02*
X164606318Y-104407904D01*
X165358673Y-104617520D02*
X165667734Y-104492652D01*
X165996412Y-104924804D02*
X165554895Y-105103188D01*
X165554895Y-105103188D02*
X165180289Y-104176004D01*
X165180289Y-104176004D02*
X165621805Y-103997620D01*
X166923595Y-104550198D02*
X166436150Y-104233550D01*
X166393776Y-104764258D02*
X166019170Y-103837075D01*
X166019170Y-103837075D02*
X166372382Y-103694367D01*
X166372382Y-103694367D02*
X166478524Y-103702842D01*
X166478524Y-103702842D02*
X166540514Y-103729155D01*
X166540514Y-103729155D02*
X166620343Y-103799620D01*
X166620343Y-103799620D02*
X166673858Y-103932075D01*
X166673858Y-103932075D02*
X166665383Y-104038217D01*
X166665383Y-104038217D02*
X166639070Y-104100207D01*
X166639070Y-104100207D02*
X166568605Y-104180035D01*
X166568605Y-104180035D02*
X166215392Y-104322742D01*
X154313432Y-89101516D02*
X154463726Y-89092152D01*
X154463726Y-89092152D02*
X154684484Y-89002960D01*
X154684484Y-89002960D02*
X154754949Y-88923131D01*
X154754949Y-88923131D02*
X154781262Y-88861141D01*
X154781262Y-88861141D02*
X154789737Y-88755000D01*
X154789737Y-88755000D02*
X154754060Y-88666697D01*
X154754060Y-88666697D02*
X154674231Y-88596232D01*
X154674231Y-88596232D02*
X154612241Y-88569919D01*
X154612241Y-88569919D02*
X154506100Y-88561444D01*
X154506100Y-88561444D02*
X154311655Y-88588646D01*
X154311655Y-88588646D02*
X154205513Y-88580171D01*
X154205513Y-88580171D02*
X154143523Y-88553858D01*
X154143523Y-88553858D02*
X154063695Y-88483393D01*
X154063695Y-88483393D02*
X154028018Y-88395090D01*
X154028018Y-88395090D02*
X154036493Y-88288948D01*
X154036493Y-88288948D02*
X154062806Y-88226958D01*
X154062806Y-88226958D02*
X154133271Y-88147130D01*
X154133271Y-88147130D02*
X154354029Y-88057938D01*
X154354029Y-88057938D02*
X154504322Y-88048574D01*
X154920414Y-88188615D02*
X155346758Y-88735384D01*
X155346758Y-88735384D02*
X155344980Y-88222514D01*
X155344980Y-88222514D02*
X155699971Y-88592676D01*
X155699971Y-88592676D02*
X155626840Y-87903200D01*
X156342629Y-87768079D02*
X156492922Y-87758715D01*
X156492922Y-87758715D02*
X156554912Y-87785029D01*
X156554912Y-87785029D02*
X156634741Y-87855493D01*
X156634741Y-87855493D02*
X156688256Y-87987948D01*
X156688256Y-87987948D02*
X156679781Y-88094090D01*
X156679781Y-88094090D02*
X156653468Y-88156080D01*
X156653468Y-88156080D02*
X156583003Y-88235908D01*
X156583003Y-88235908D02*
X156229790Y-88378616D01*
X156229790Y-88378616D02*
X155855184Y-87451432D01*
X155855184Y-87451432D02*
X156164245Y-87326563D01*
X156164245Y-87326563D02*
X156270386Y-87335038D01*
X156270386Y-87335038D02*
X156332377Y-87361351D01*
X156332377Y-87361351D02*
X156412205Y-87431816D01*
X156412205Y-87431816D02*
X156447882Y-87520119D01*
X156447882Y-87520119D02*
X156439407Y-87626260D01*
X156439407Y-87626260D02*
X156413094Y-87688251D01*
X156413094Y-87688251D02*
X156342629Y-87768079D01*
X156342629Y-87768079D02*
X156033568Y-87892948D01*
X157156974Y-88004009D02*
X156782367Y-87076825D01*
X157686793Y-87789948D02*
X157075368Y-87420674D01*
X157312187Y-86862764D02*
X156996428Y-87606644D01*
X158022168Y-87603089D02*
X158172461Y-87593726D01*
X158172461Y-87593726D02*
X158393219Y-87504533D01*
X158393219Y-87504533D02*
X158463684Y-87424705D01*
X158463684Y-87424705D02*
X158489997Y-87362715D01*
X158489997Y-87362715D02*
X158498472Y-87256573D01*
X158498472Y-87256573D02*
X158462795Y-87168270D01*
X158462795Y-87168270D02*
X158382967Y-87097805D01*
X158382967Y-87097805D02*
X158320977Y-87071492D01*
X158320977Y-87071492D02*
X158214835Y-87063017D01*
X158214835Y-87063017D02*
X158020390Y-87090219D01*
X158020390Y-87090219D02*
X157914249Y-87081745D01*
X157914249Y-87081745D02*
X157852259Y-87055431D01*
X157852259Y-87055431D02*
X157772430Y-86984967D01*
X157772430Y-86984967D02*
X157736753Y-86896663D01*
X157736753Y-86896663D02*
X157745228Y-86790522D01*
X157745228Y-86790522D02*
X157771541Y-86728532D01*
X157771541Y-86728532D02*
X157842006Y-86648703D01*
X157842006Y-86648703D02*
X158062764Y-86559511D01*
X158062764Y-86559511D02*
X158213057Y-86550148D01*
X158967190Y-87272634D02*
X158592584Y-86345450D01*
X158592584Y-86345450D02*
X158945796Y-86202743D01*
X158945796Y-86202743D02*
X159051938Y-86211218D01*
X159051938Y-86211218D02*
X159113928Y-86237531D01*
X159113928Y-86237531D02*
X159193757Y-86307996D01*
X159193757Y-86307996D02*
X159247272Y-86440451D01*
X159247272Y-86440451D02*
X159238797Y-86546592D01*
X159238797Y-86546592D02*
X159212484Y-86608582D01*
X159212484Y-86608582D02*
X159142019Y-86688411D01*
X159142019Y-86688411D02*
X158788806Y-86831118D01*
X153865343Y-134581014D02*
X154015636Y-134571651D01*
X154015636Y-134571651D02*
X154236394Y-134482459D01*
X154236394Y-134482459D02*
X154306859Y-134402630D01*
X154306859Y-134402630D02*
X154333172Y-134340640D01*
X154333172Y-134340640D02*
X154341647Y-134234498D01*
X154341647Y-134234498D02*
X154305970Y-134146195D01*
X154305970Y-134146195D02*
X154226142Y-134075730D01*
X154226142Y-134075730D02*
X154164152Y-134049417D01*
X154164152Y-134049417D02*
X154058010Y-134040942D01*
X154058010Y-134040942D02*
X153863565Y-134068144D01*
X153863565Y-134068144D02*
X153757424Y-134059670D01*
X153757424Y-134059670D02*
X153695433Y-134033356D01*
X153695433Y-134033356D02*
X153615605Y-133962892D01*
X153615605Y-133962892D02*
X153579928Y-133874588D01*
X153579928Y-133874588D02*
X153588403Y-133768447D01*
X153588403Y-133768447D02*
X153614716Y-133706457D01*
X153614716Y-133706457D02*
X153685181Y-133626628D01*
X153685181Y-133626628D02*
X153905939Y-133537436D01*
X153905939Y-133537436D02*
X154056232Y-133528073D01*
X154472324Y-133668113D02*
X154898668Y-134214882D01*
X154898668Y-134214882D02*
X154896891Y-133702013D01*
X154896891Y-133702013D02*
X155251881Y-134072175D01*
X155251881Y-134072175D02*
X155178750Y-133382699D01*
X155878479Y-133716296D02*
X155940469Y-133742609D01*
X155940469Y-133742609D02*
X155914155Y-133804599D01*
X155914155Y-133804599D02*
X155852165Y-133778286D01*
X155852165Y-133778286D02*
X155878479Y-133716296D01*
X155878479Y-133716296D02*
X155914155Y-133804599D01*
X155380781Y-132992920D02*
X155451246Y-132913092D01*
X155451246Y-132913092D02*
X155672004Y-132823900D01*
X155672004Y-132823900D02*
X155778145Y-132832375D01*
X155778145Y-132832375D02*
X155857974Y-132902840D01*
X155857974Y-132902840D02*
X155893650Y-132991143D01*
X155893650Y-132991143D02*
X155885176Y-133097284D01*
X155885176Y-133097284D02*
X155858862Y-133159274D01*
X155858862Y-133159274D02*
X155788398Y-133239103D01*
X155788398Y-133239103D02*
X155762084Y-133301093D01*
X155762084Y-133301093D02*
X155753610Y-133407235D01*
X155753610Y-133407235D02*
X155771448Y-133451386D01*
X144849299Y-117731572D02*
X144999592Y-117722208D01*
X144999592Y-117722208D02*
X145220350Y-117633016D01*
X145220350Y-117633016D02*
X145290815Y-117553188D01*
X145290815Y-117553188D02*
X145317128Y-117491198D01*
X145317128Y-117491198D02*
X145325603Y-117385056D01*
X145325603Y-117385056D02*
X145289926Y-117296753D01*
X145289926Y-117296753D02*
X145210097Y-117226288D01*
X145210097Y-117226288D02*
X145148107Y-117199975D01*
X145148107Y-117199975D02*
X145041966Y-117191500D01*
X145041966Y-117191500D02*
X144847521Y-117218702D01*
X144847521Y-117218702D02*
X144741379Y-117210227D01*
X144741379Y-117210227D02*
X144679389Y-117183914D01*
X144679389Y-117183914D02*
X144599561Y-117113449D01*
X144599561Y-117113449D02*
X144563884Y-117025146D01*
X144563884Y-117025146D02*
X144572359Y-116919004D01*
X144572359Y-116919004D02*
X144598672Y-116857014D01*
X144598672Y-116857014D02*
X144669137Y-116777186D01*
X144669137Y-116777186D02*
X144889895Y-116687994D01*
X144889895Y-116687994D02*
X145040188Y-116678630D01*
X145456280Y-116818671D02*
X145882624Y-117365440D01*
X145882624Y-117365440D02*
X145880846Y-116852570D01*
X145880846Y-116852570D02*
X146235837Y-117222733D01*
X146235837Y-117222733D02*
X146162706Y-116533257D01*
X147259799Y-116706308D02*
X147233486Y-116768298D01*
X147233486Y-116768298D02*
X147118869Y-116865965D01*
X147118869Y-116865965D02*
X147030566Y-116901641D01*
X147030566Y-116901641D02*
X146880273Y-116911005D01*
X146880273Y-116911005D02*
X146756293Y-116858379D01*
X146756293Y-116858379D02*
X146676464Y-116787914D01*
X146676464Y-116787914D02*
X146560959Y-116629146D01*
X146560959Y-116629146D02*
X146507444Y-116496691D01*
X146507444Y-116496691D02*
X146480242Y-116302246D01*
X146480242Y-116302246D02*
X146488716Y-116196104D01*
X146488716Y-116196104D02*
X146541343Y-116072124D01*
X146541343Y-116072124D02*
X146655959Y-115974458D01*
X146655959Y-115974458D02*
X146744263Y-115938781D01*
X146744263Y-115938781D02*
X146894556Y-115929417D01*
X146894556Y-115929417D02*
X146956546Y-115955730D01*
X147494840Y-115635528D02*
X147671446Y-115564174D01*
X147671446Y-115564174D02*
X147777588Y-115572649D01*
X147777588Y-115572649D02*
X147901568Y-115625275D01*
X147901568Y-115625275D02*
X148017073Y-115784043D01*
X148017073Y-115784043D02*
X148141942Y-116093105D01*
X148141942Y-116093105D02*
X148169144Y-116287549D01*
X148169144Y-116287549D02*
X148116518Y-116411530D01*
X148116518Y-116411530D02*
X148046053Y-116491358D01*
X148046053Y-116491358D02*
X147869447Y-116562712D01*
X147869447Y-116562712D02*
X147763305Y-116554237D01*
X147763305Y-116554237D02*
X147639325Y-116501610D01*
X147639325Y-116501610D02*
X147523820Y-116342842D01*
X147523820Y-116342842D02*
X147398951Y-116033781D01*
X147398951Y-116033781D02*
X147371749Y-115839336D01*
X147371749Y-115839336D02*
X147424375Y-115715356D01*
X147424375Y-115715356D02*
X147494840Y-115635528D01*
X149105692Y-116063236D02*
X148664176Y-116241620D01*
X148664176Y-116241620D02*
X148289569Y-115314436D01*
X149216753Y-114939830D02*
X149393359Y-114868476D01*
X149393359Y-114868476D02*
X149499501Y-114876951D01*
X149499501Y-114876951D02*
X149623481Y-114929577D01*
X149623481Y-114929577D02*
X149738986Y-115088345D01*
X149738986Y-115088345D02*
X149863855Y-115397407D01*
X149863855Y-115397407D02*
X149891057Y-115591851D01*
X149891057Y-115591851D02*
X149838431Y-115715832D01*
X149838431Y-115715832D02*
X149767966Y-115795660D01*
X149767966Y-115795660D02*
X149591360Y-115867014D01*
X149591360Y-115867014D02*
X149485218Y-115858539D01*
X149485218Y-115858539D02*
X149361238Y-115805912D01*
X149361238Y-115805912D02*
X149245733Y-115647144D01*
X149245733Y-115647144D02*
X149120864Y-115338083D01*
X149120864Y-115338083D02*
X149093662Y-115143638D01*
X149093662Y-115143638D02*
X149146288Y-115019658D01*
X149146288Y-115019658D02*
X149216753Y-114939830D01*
X150386089Y-115545922D02*
X150011482Y-114618738D01*
X150011482Y-114618738D02*
X150915908Y-115331861D01*
X150915908Y-115331861D02*
X150541301Y-114404677D01*
X139564065Y-99374785D02*
X139714358Y-99365421D01*
X139714358Y-99365421D02*
X139935116Y-99276229D01*
X139935116Y-99276229D02*
X140005581Y-99196401D01*
X140005581Y-99196401D02*
X140031894Y-99134411D01*
X140031894Y-99134411D02*
X140040369Y-99028269D01*
X140040369Y-99028269D02*
X140004692Y-98939966D01*
X140004692Y-98939966D02*
X139924864Y-98869501D01*
X139924864Y-98869501D02*
X139862874Y-98843188D01*
X139862874Y-98843188D02*
X139756732Y-98834713D01*
X139756732Y-98834713D02*
X139562287Y-98861915D01*
X139562287Y-98861915D02*
X139456146Y-98853440D01*
X139456146Y-98853440D02*
X139394156Y-98827127D01*
X139394156Y-98827127D02*
X139314327Y-98756662D01*
X139314327Y-98756662D02*
X139278650Y-98668359D01*
X139278650Y-98668359D02*
X139287125Y-98562218D01*
X139287125Y-98562218D02*
X139313438Y-98500228D01*
X139313438Y-98500228D02*
X139383903Y-98420399D01*
X139383903Y-98420399D02*
X139604661Y-98331207D01*
X139604661Y-98331207D02*
X139754955Y-98321843D01*
X140171046Y-98461884D02*
X140597391Y-99008653D01*
X140597391Y-99008653D02*
X140595613Y-98495783D01*
X140595613Y-98495783D02*
X140950603Y-98865946D01*
X140950603Y-98865946D02*
X140877472Y-98176470D01*
X141480423Y-98651885D02*
X141105816Y-97724701D01*
X141105816Y-97724701D02*
X141459029Y-97581994D01*
X141459029Y-97581994D02*
X141565171Y-97590469D01*
X141565171Y-97590469D02*
X141627161Y-97616782D01*
X141627161Y-97616782D02*
X141706989Y-97687247D01*
X141706989Y-97687247D02*
X141760504Y-97819702D01*
X141760504Y-97819702D02*
X141752030Y-97925843D01*
X141752030Y-97925843D02*
X141725716Y-97987833D01*
X141725716Y-97987833D02*
X141655252Y-98067662D01*
X141655252Y-98067662D02*
X141302039Y-98210369D01*
X133470708Y-137428308D02*
X133621001Y-137418944D01*
X133621001Y-137418944D02*
X133841760Y-137329752D01*
X133841760Y-137329752D02*
X133912224Y-137249924D01*
X133912224Y-137249924D02*
X133938538Y-137187934D01*
X133938538Y-137187934D02*
X133947012Y-137081792D01*
X133947012Y-137081792D02*
X133911336Y-136993489D01*
X133911336Y-136993489D02*
X133831507Y-136923024D01*
X133831507Y-136923024D02*
X133769517Y-136896711D01*
X133769517Y-136896711D02*
X133663375Y-136888236D01*
X133663375Y-136888236D02*
X133468931Y-136915438D01*
X133468931Y-136915438D02*
X133362789Y-136906963D01*
X133362789Y-136906963D02*
X133300799Y-136880650D01*
X133300799Y-136880650D02*
X133220971Y-136810185D01*
X133220971Y-136810185D02*
X133185294Y-136721882D01*
X133185294Y-136721882D02*
X133193768Y-136615740D01*
X133193768Y-136615740D02*
X133220082Y-136553750D01*
X133220082Y-136553750D02*
X133290547Y-136473922D01*
X133290547Y-136473922D02*
X133511305Y-136384730D01*
X133511305Y-136384730D02*
X133661598Y-136375366D01*
X134077690Y-136515407D02*
X134504034Y-137062176D01*
X134504034Y-137062176D02*
X134502256Y-136549306D01*
X134502256Y-136549306D02*
X134857247Y-136919469D01*
X134857247Y-136919469D02*
X134784115Y-136229993D01*
X135387066Y-136705408D02*
X135012459Y-135778224D01*
X135012459Y-135778224D02*
X135233217Y-135689032D01*
X135233217Y-135689032D02*
X135383511Y-135679668D01*
X135383511Y-135679668D02*
X135507491Y-135732295D01*
X135507491Y-135732295D02*
X135587319Y-135802760D01*
X135587319Y-135802760D02*
X135702824Y-135961528D01*
X135702824Y-135961528D02*
X135756340Y-136093982D01*
X135756340Y-136093982D02*
X135783542Y-136288427D01*
X135783542Y-136288427D02*
X135775067Y-136394569D01*
X135775067Y-136394569D02*
X135722440Y-136518549D01*
X135722440Y-136518549D02*
X135607824Y-136616216D01*
X135607824Y-136616216D02*
X135387066Y-136705408D01*
X136116250Y-135332264D02*
X136292856Y-135260910D01*
X136292856Y-135260910D02*
X136398998Y-135269385D01*
X136398998Y-135269385D02*
X136522978Y-135322011D01*
X136522978Y-135322011D02*
X136638483Y-135480779D01*
X136638483Y-135480779D02*
X136763352Y-135789841D01*
X136763352Y-135789841D02*
X136790554Y-135984286D01*
X136790554Y-135984286D02*
X136737928Y-136108266D01*
X136737928Y-136108266D02*
X136667463Y-136188094D01*
X136667463Y-136188094D02*
X136490856Y-136259448D01*
X136490856Y-136259448D02*
X136384715Y-136250973D01*
X136384715Y-136250973D02*
X136260735Y-136198346D01*
X136260735Y-136198346D02*
X136145229Y-136039578D01*
X136145229Y-136039578D02*
X136020360Y-135730517D01*
X136020360Y-135730517D02*
X135993158Y-135536072D01*
X135993158Y-135536072D02*
X136045785Y-135412092D01*
X136045785Y-135412092D02*
X136116250Y-135332264D01*
X136778524Y-135064688D02*
X137308343Y-134850627D01*
X137418040Y-135884841D02*
X137043434Y-134957657D01*
X127280367Y-119437207D02*
X127430660Y-119427844D01*
X127430660Y-119427844D02*
X127651418Y-119338652D01*
X127651418Y-119338652D02*
X127721883Y-119258823D01*
X127721883Y-119258823D02*
X127748196Y-119196833D01*
X127748196Y-119196833D02*
X127756671Y-119090691D01*
X127756671Y-119090691D02*
X127720994Y-119002388D01*
X127720994Y-119002388D02*
X127641166Y-118931923D01*
X127641166Y-118931923D02*
X127579176Y-118905610D01*
X127579176Y-118905610D02*
X127473034Y-118897135D01*
X127473034Y-118897135D02*
X127278589Y-118924337D01*
X127278589Y-118924337D02*
X127172448Y-118915863D01*
X127172448Y-118915863D02*
X127110458Y-118889549D01*
X127110458Y-118889549D02*
X127030629Y-118819085D01*
X127030629Y-118819085D02*
X126994953Y-118730781D01*
X126994953Y-118730781D02*
X127003427Y-118624640D01*
X127003427Y-118624640D02*
X127029741Y-118562650D01*
X127029741Y-118562650D02*
X127100205Y-118482821D01*
X127100205Y-118482821D02*
X127320963Y-118393629D01*
X127320963Y-118393629D02*
X127471257Y-118384266D01*
X127887348Y-118524306D02*
X128313693Y-119071075D01*
X128313693Y-119071075D02*
X128311915Y-118558206D01*
X128311915Y-118558206D02*
X128666906Y-118928368D01*
X128666906Y-118928368D02*
X128593774Y-118238892D01*
X129638241Y-118535923D02*
X129196725Y-118714307D01*
X129196725Y-118714307D02*
X128822118Y-117787123D01*
X120052463Y-101865310D02*
X120202756Y-101855946D01*
X120202756Y-101855946D02*
X120423514Y-101766754D01*
X120423514Y-101766754D02*
X120493979Y-101686926D01*
X120493979Y-101686926D02*
X120520292Y-101624936D01*
X120520292Y-101624936D02*
X120528767Y-101518794D01*
X120528767Y-101518794D02*
X120493090Y-101430491D01*
X120493090Y-101430491D02*
X120413262Y-101360026D01*
X120413262Y-101360026D02*
X120351271Y-101333713D01*
X120351271Y-101333713D02*
X120245130Y-101325238D01*
X120245130Y-101325238D02*
X120050685Y-101352440D01*
X120050685Y-101352440D02*
X119944543Y-101343965D01*
X119944543Y-101343965D02*
X119882553Y-101317652D01*
X119882553Y-101317652D02*
X119802725Y-101247187D01*
X119802725Y-101247187D02*
X119767048Y-101158884D01*
X119767048Y-101158884D02*
X119775523Y-101052743D01*
X119775523Y-101052743D02*
X119801836Y-100990753D01*
X119801836Y-100990753D02*
X119872301Y-100910924D01*
X119872301Y-100910924D02*
X120093059Y-100821732D01*
X120093059Y-100821732D02*
X120243352Y-100812368D01*
X120659444Y-100952409D02*
X121085788Y-101499178D01*
X121085788Y-101499178D02*
X121084011Y-100986308D01*
X121084011Y-100986308D02*
X121439001Y-101356471D01*
X121439001Y-101356471D02*
X121365870Y-100666995D01*
X121770820Y-100143873D02*
X121947427Y-100072519D01*
X121947427Y-100072519D02*
X122053568Y-100080994D01*
X122053568Y-100080994D02*
X122177548Y-100133620D01*
X122177548Y-100133620D02*
X122293054Y-100292388D01*
X122293054Y-100292388D02*
X122417922Y-100601449D01*
X122417922Y-100601449D02*
X122445124Y-100795894D01*
X122445124Y-100795894D02*
X122392498Y-100919874D01*
X122392498Y-100919874D02*
X122322033Y-100999703D01*
X122322033Y-100999703D02*
X122145427Y-101071056D01*
X122145427Y-101071056D02*
X122039285Y-101062582D01*
X122039285Y-101062582D02*
X121915305Y-101009955D01*
X121915305Y-101009955D02*
X121799800Y-100851187D01*
X121799800Y-100851187D02*
X121674931Y-100542126D01*
X121674931Y-100542126D02*
X121647729Y-100347681D01*
X121647729Y-100347681D02*
X121700355Y-100223701D01*
X121700355Y-100223701D02*
X121770820Y-100143873D01*
X112877392Y-140355874D02*
X113027685Y-140346510D01*
X113027685Y-140346510D02*
X113248443Y-140257318D01*
X113248443Y-140257318D02*
X113318908Y-140177490D01*
X113318908Y-140177490D02*
X113345221Y-140115500D01*
X113345221Y-140115500D02*
X113353696Y-140009358D01*
X113353696Y-140009358D02*
X113318019Y-139921055D01*
X113318019Y-139921055D02*
X113238191Y-139850590D01*
X113238191Y-139850590D02*
X113176201Y-139824277D01*
X113176201Y-139824277D02*
X113070059Y-139815802D01*
X113070059Y-139815802D02*
X112875614Y-139843004D01*
X112875614Y-139843004D02*
X112769473Y-139834529D01*
X112769473Y-139834529D02*
X112707483Y-139808216D01*
X112707483Y-139808216D02*
X112627654Y-139737751D01*
X112627654Y-139737751D02*
X112591978Y-139649448D01*
X112591978Y-139649448D02*
X112600452Y-139543307D01*
X112600452Y-139543307D02*
X112626766Y-139481317D01*
X112626766Y-139481317D02*
X112697230Y-139401488D01*
X112697230Y-139401488D02*
X112917988Y-139312296D01*
X112917988Y-139312296D02*
X113068282Y-139302932D01*
X113484373Y-139442973D02*
X113910718Y-139989742D01*
X113910718Y-139989742D02*
X113908940Y-139476872D01*
X113908940Y-139476872D02*
X114263931Y-139847035D01*
X114263931Y-139847035D02*
X114190799Y-139157559D01*
X115287892Y-139330610D02*
X115261579Y-139392600D01*
X115261579Y-139392600D02*
X115146963Y-139490267D01*
X115146963Y-139490267D02*
X115058660Y-139525944D01*
X115058660Y-139525944D02*
X114908366Y-139535307D01*
X114908366Y-139535307D02*
X114784386Y-139482681D01*
X114784386Y-139482681D02*
X114704558Y-139412216D01*
X114704558Y-139412216D02*
X114589053Y-139253448D01*
X114589053Y-139253448D02*
X114535537Y-139120993D01*
X114535537Y-139120993D02*
X114508335Y-138926548D01*
X114508335Y-138926548D02*
X114516810Y-138820407D01*
X114516810Y-138820407D02*
X114569437Y-138696427D01*
X114569437Y-138696427D02*
X114684053Y-138598760D01*
X114684053Y-138598760D02*
X114772356Y-138563083D01*
X114772356Y-138563083D02*
X114922649Y-138553719D01*
X114922649Y-138553719D02*
X114984639Y-138580032D01*
X115522934Y-138259830D02*
X115699540Y-138188476D01*
X115699540Y-138188476D02*
X115805682Y-138196951D01*
X115805682Y-138196951D02*
X115929662Y-138249577D01*
X115929662Y-138249577D02*
X116045167Y-138408346D01*
X116045167Y-138408346D02*
X116170036Y-138717407D01*
X116170036Y-138717407D02*
X116197238Y-138911852D01*
X116197238Y-138911852D02*
X116144611Y-139035832D01*
X116144611Y-139035832D02*
X116074147Y-139115660D01*
X116074147Y-139115660D02*
X115897540Y-139187014D01*
X115897540Y-139187014D02*
X115791399Y-139178539D01*
X115791399Y-139178539D02*
X115667418Y-139125913D01*
X115667418Y-139125913D02*
X115551913Y-138967145D01*
X115551913Y-138967145D02*
X115427044Y-138658083D01*
X115427044Y-138658083D02*
X115399842Y-138463638D01*
X115399842Y-138463638D02*
X115452469Y-138339658D01*
X115452469Y-138339658D02*
X115522934Y-138259830D01*
X116692269Y-138865922D02*
X116317663Y-137938739D01*
X116317663Y-137938739D02*
X116894300Y-138476144D01*
X116894300Y-138476144D02*
X116935785Y-137689001D01*
X116935785Y-137689001D02*
X117310392Y-138616185D01*
X117751908Y-138437801D02*
X117377301Y-137510617D01*
X117377301Y-137510617D02*
X117953939Y-138048022D01*
X117953939Y-138048022D02*
X117995424Y-137260879D01*
X117995424Y-137260879D02*
X118370030Y-138188063D01*
X118660364Y-137762608D02*
X119101880Y-137584224D01*
X118679091Y-138063194D02*
X118613546Y-137011141D01*
X118613546Y-137011141D02*
X119297214Y-137813456D01*
X107702538Y-121954490D02*
X107852831Y-121945126D01*
X107852831Y-121945126D02*
X108073589Y-121855934D01*
X108073589Y-121855934D02*
X108144054Y-121776106D01*
X108144054Y-121776106D02*
X108170367Y-121714116D01*
X108170367Y-121714116D02*
X108178842Y-121607974D01*
X108178842Y-121607974D02*
X108143165Y-121519671D01*
X108143165Y-121519671D02*
X108063337Y-121449206D01*
X108063337Y-121449206D02*
X108001347Y-121422893D01*
X108001347Y-121422893D02*
X107895205Y-121414418D01*
X107895205Y-121414418D02*
X107700760Y-121441620D01*
X107700760Y-121441620D02*
X107594619Y-121433145D01*
X107594619Y-121433145D02*
X107532629Y-121406832D01*
X107532629Y-121406832D02*
X107452800Y-121336367D01*
X107452800Y-121336367D02*
X107417123Y-121248064D01*
X107417123Y-121248064D02*
X107425598Y-121141923D01*
X107425598Y-121141923D02*
X107451911Y-121079933D01*
X107451911Y-121079933D02*
X107522376Y-121000104D01*
X107522376Y-121000104D02*
X107743134Y-120910912D01*
X107743134Y-120910912D02*
X107893428Y-120901548D01*
X108309519Y-121041589D02*
X108735864Y-121588358D01*
X108735864Y-121588358D02*
X108734086Y-121075488D01*
X108734086Y-121075488D02*
X109089076Y-121445651D01*
X109089076Y-121445651D02*
X109015945Y-120756175D01*
X109618896Y-121231590D02*
X109244289Y-120304406D01*
X110148715Y-121017529D02*
X109537290Y-120648255D01*
X109774108Y-120090345D02*
X109458350Y-120834226D01*
X100827846Y-104239886D02*
X100978139Y-104230522D01*
X100978139Y-104230522D02*
X101198897Y-104141330D01*
X101198897Y-104141330D02*
X101269362Y-104061502D01*
X101269362Y-104061502D02*
X101295675Y-103999512D01*
X101295675Y-103999512D02*
X101304150Y-103893370D01*
X101304150Y-103893370D02*
X101268473Y-103805067D01*
X101268473Y-103805067D02*
X101188645Y-103734602D01*
X101188645Y-103734602D02*
X101126655Y-103708289D01*
X101126655Y-103708289D02*
X101020513Y-103699814D01*
X101020513Y-103699814D02*
X100826068Y-103727016D01*
X100826068Y-103727016D02*
X100719927Y-103718541D01*
X100719927Y-103718541D02*
X100657937Y-103692228D01*
X100657937Y-103692228D02*
X100578108Y-103621763D01*
X100578108Y-103621763D02*
X100542432Y-103533460D01*
X100542432Y-103533460D02*
X100550906Y-103427318D01*
X100550906Y-103427318D02*
X100577220Y-103365328D01*
X100577220Y-103365328D02*
X100647684Y-103285500D01*
X100647684Y-103285500D02*
X100868442Y-103196308D01*
X100868442Y-103196308D02*
X101018736Y-103186944D01*
X101434827Y-103326985D02*
X101861172Y-103873754D01*
X101861172Y-103873754D02*
X101859394Y-103360884D01*
X101859394Y-103360884D02*
X102214384Y-103731047D01*
X102214384Y-103731047D02*
X102141253Y-103041570D01*
X102744204Y-103516986D02*
X102369597Y-102589802D01*
D11*
X92988555Y-102504762D02*
X85328555Y-83584762D01*
X115758555Y-158834762D02*
X119928555Y-160244762D01*
X159872491Y-144128725D02*
X119928555Y-160244762D01*
X92988555Y-102504762D02*
X115758555Y-158834762D01*
X97113455Y-95555315D02*
G75*
G02*
X95941843Y-95057995I-337146J834466D01*
G01*
X106385293Y-91809249D02*
X97113455Y-95555315D01*
X90048322Y-82339646D02*
X94127931Y-80691377D01*
X93234345Y-90759222D02*
X91735919Y-87050486D01*
X102287149Y-77394839D02*
X98207540Y-79043108D01*
X107752673Y-89854697D02*
X106104404Y-85775088D01*
X106882613Y-90637637D02*
G75*
G02*
X106385293Y-91809249I-834466J-337146D01*
G01*
X98097025Y-79303467D02*
G75*
G02*
X98207540Y-79043108I185437J74922D01*
G01*
X107531642Y-90375413D02*
X106882613Y-90637637D01*
X89827292Y-82860362D02*
G75*
G02*
X90048322Y-82339646I370873J149843D01*
G01*
X94388289Y-80801892D02*
X98097025Y-79303466D01*
X102287150Y-77394839D02*
G75*
G02*
X102807865Y-77615870I149842J-370873D01*
G01*
X89827292Y-82860362D02*
X91475561Y-86939971D01*
X93123829Y-91019580D02*
G75*
G02*
X93234345Y-90759222I185437J74921D01*
G01*
X105844046Y-85664572D02*
G75*
G02*
X106104404Y-85775088I74921J-185437D01*
G01*
X102807865Y-77615870D02*
X104456135Y-81695479D01*
X104345619Y-81955837D02*
X105844045Y-85664572D01*
X107752673Y-89854696D02*
G75*
G02*
X107531642Y-90375413I-370874J-149843D01*
G01*
X95292815Y-95320220D02*
X95941843Y-95057995D01*
X94127931Y-80691378D02*
G75*
G02*
X94388289Y-80801892I74922J-185436D01*
G01*
X104456135Y-81695479D02*
G75*
G02*
X104345619Y-81955837I-185437J-74921D01*
G01*
X95292815Y-95320219D02*
G75*
G02*
X94772099Y-95099189I-149843J370873D01*
G01*
X94772099Y-95099189D02*
X93123830Y-91019580D01*
X91735918Y-87050486D02*
G75*
G02*
X91475561Y-86939971I-74921J185436D01*
G01*
X116613455Y-93155315D02*
G75*
G02*
X115441843Y-92657995I-337146J834466D01*
G01*
X125885293Y-89409249D02*
X116613455Y-93155315D01*
X109548322Y-79939646D02*
X113627931Y-78291377D01*
X112734345Y-88359222D02*
X111235919Y-84650486D01*
X121787149Y-74994839D02*
X117707540Y-76643108D01*
X127252673Y-87454697D02*
X125604404Y-83375088D01*
X126382613Y-88237637D02*
G75*
G02*
X125885293Y-89409249I-834466J-337146D01*
G01*
X117597025Y-76903467D02*
G75*
G02*
X117707540Y-76643108I185437J74922D01*
G01*
X127031642Y-87975413D02*
X126382613Y-88237637D01*
X109327292Y-80460362D02*
G75*
G02*
X109548322Y-79939646I370873J149843D01*
G01*
X113888289Y-78401892D02*
X117597025Y-76903466D01*
X121787150Y-74994839D02*
G75*
G02*
X122307865Y-75215870I149842J-370873D01*
G01*
X109327292Y-80460362D02*
X110975561Y-84539971D01*
X112623829Y-88619580D02*
G75*
G02*
X112734345Y-88359222I185437J74921D01*
G01*
X125344046Y-83264572D02*
G75*
G02*
X125604404Y-83375088I74921J-185437D01*
G01*
X122307865Y-75215870D02*
X123956135Y-79295479D01*
X123845619Y-79555837D02*
X125344045Y-83264572D01*
X127252673Y-87454696D02*
G75*
G02*
X127031642Y-87975413I-370874J-149843D01*
G01*
X114792815Y-92920220D02*
X115441843Y-92657995D01*
X113627931Y-78291378D02*
G75*
G02*
X113888289Y-78401892I74922J-185436D01*
G01*
X123956135Y-79295479D02*
G75*
G02*
X123845619Y-79555837I-185437J-74921D01*
G01*
X114792815Y-92920219D02*
G75*
G02*
X114272099Y-92699189I-149843J370873D01*
G01*
X114272099Y-92699189D02*
X112623830Y-88619580D01*
X111235918Y-84650486D02*
G75*
G02*
X110975561Y-84539971I-74921J185436D01*
G01*
X136113455Y-90625315D02*
G75*
G02*
X134941843Y-90127995I-337146J834466D01*
G01*
X145385293Y-86879249D02*
X136113455Y-90625315D01*
X129048322Y-77409646D02*
X133127931Y-75761377D01*
X132234345Y-85829222D02*
X130735919Y-82120486D01*
X141287149Y-72464839D02*
X137207540Y-74113108D01*
X146752673Y-84924697D02*
X145104404Y-80845088D01*
X145882613Y-85707637D02*
G75*
G02*
X145385293Y-86879249I-834466J-337146D01*
G01*
X137097025Y-74373467D02*
G75*
G02*
X137207540Y-74113108I185437J74922D01*
G01*
X146531642Y-85445413D02*
X145882613Y-85707637D01*
X128827292Y-77930362D02*
G75*
G02*
X129048322Y-77409646I370873J149843D01*
G01*
X133388289Y-75871892D02*
X137097025Y-74373466D01*
X141287150Y-72464839D02*
G75*
G02*
X141807865Y-72685870I149842J-370873D01*
G01*
X128827292Y-77930362D02*
X130475561Y-82009971D01*
X132123829Y-86089580D02*
G75*
G02*
X132234345Y-85829222I185437J74921D01*
G01*
X144844046Y-80734572D02*
G75*
G02*
X145104404Y-80845088I74921J-185437D01*
G01*
X141807865Y-72685870D02*
X143456135Y-76765479D01*
X143345619Y-77025837D02*
X144844045Y-80734572D01*
X146752673Y-84924696D02*
G75*
G02*
X146531642Y-85445413I-370874J-149843D01*
G01*
X134292815Y-90390220D02*
X134941843Y-90127995D01*
X133127931Y-75761378D02*
G75*
G02*
X133388289Y-75871892I74922J-185436D01*
G01*
X143456135Y-76765479D02*
G75*
G02*
X143345619Y-77025837I-185437J-74921D01*
G01*
X134292815Y-90390219D02*
G75*
G02*
X133772099Y-90169189I-149843J370873D01*
G01*
X133772099Y-90169189D02*
X132123830Y-86089580D01*
X130735918Y-82120486D02*
G75*
G02*
X130475561Y-82009971I-74921J185436D01*
G01*
X152283455Y-79805315D02*
G75*
G02*
X151111843Y-79307995I-337146J834466D01*
G01*
X161555293Y-76059249D02*
X152283455Y-79805315D01*
X145218322Y-66589646D02*
X149297931Y-64941377D01*
X148404345Y-75009222D02*
X146905919Y-71300486D01*
X157457149Y-61644839D02*
X153377540Y-63293108D01*
X162922673Y-74104697D02*
X161274404Y-70025088D01*
X162052613Y-74887637D02*
G75*
G02*
X161555293Y-76059249I-834466J-337146D01*
G01*
X153267025Y-63553467D02*
G75*
G02*
X153377540Y-63293108I185437J74922D01*
G01*
X162701642Y-74625413D02*
X162052613Y-74887637D01*
X144997292Y-67110362D02*
G75*
G02*
X145218322Y-66589646I370873J149843D01*
G01*
X149558289Y-65051892D02*
X153267025Y-63553466D01*
X157457150Y-61644839D02*
G75*
G02*
X157977865Y-61865870I149842J-370873D01*
G01*
X144997292Y-67110362D02*
X146645561Y-71189971D01*
X148293829Y-75269580D02*
G75*
G02*
X148404345Y-75009222I185437J74921D01*
G01*
X161014046Y-69914572D02*
G75*
G02*
X161274404Y-70025088I74921J-185437D01*
G01*
X157977865Y-61865870D02*
X159626135Y-65945479D01*
X159515619Y-66205837D02*
X161014045Y-69914572D01*
X162922673Y-74104696D02*
G75*
G02*
X162701642Y-74625413I-370874J-149843D01*
G01*
X150462815Y-79570220D02*
X151111843Y-79307995D01*
X149297931Y-64941378D02*
G75*
G02*
X149558289Y-65051892I74922J-185436D01*
G01*
X159626135Y-65945479D02*
G75*
G02*
X159515619Y-66205837I-185437J-74921D01*
G01*
X150462815Y-79570219D02*
G75*
G02*
X149942099Y-79349189I-149843J370873D01*
G01*
X149942099Y-79349189D02*
X148293830Y-75269580D01*
X146905918Y-71300486D02*
G75*
G02*
X146645561Y-71189971I-74921J185436D01*
G01*
X115232355Y-97685562D02*
G75*
G02*
X112032355Y-97685562I-1600000J0D01*
G01*
X112032355Y-97685562D02*
G75*
G02*
X115232355Y-97685562I1600000J0D01*
G01*
X155980155Y-105291562D02*
G75*
G02*
X152780155Y-105291562I-1600000J0D01*
G01*
X152780155Y-105291562D02*
G75*
G02*
X155980155Y-105291562I1600000J0D01*
G01*
X130156355Y-130915362D02*
G75*
G02*
X126956355Y-130915362I-1600000J0D01*
G01*
X126956355Y-130915362D02*
G75*
G02*
X130156355Y-130915362I1600000J0D01*
G01*
X163705471Y-120189091D02*
X168949963Y-133169665D01*
X169877147Y-132795059D02*
G75*
G02*
X168949963Y-133169665I-463592J-187303D01*
G01*
X163705471Y-120189091D02*
G75*
G02*
X164632655Y-119814485I463592J187303D01*
G01*
X156705471Y-102789091D02*
G75*
G02*
X157632655Y-102414485I463592J187303D01*
G01*
X169877147Y-132795059D02*
X164632655Y-119814485D01*
X143349963Y-69569666D02*
G75*
G02*
X144277147Y-69195058I463592J187304D01*
G01*
X148023213Y-78466896D02*
G75*
G02*
X147096029Y-78841504I-463592J-187304D01*
G01*
X143349963Y-69569665D02*
X147096029Y-78841504D01*
X148023213Y-78466897D02*
X144277147Y-69195058D01*
X149705471Y-85389091D02*
X154949963Y-98369665D01*
X149705471Y-85389091D02*
G75*
G02*
X150632655Y-85014485I463592J187303D01*
G01*
X155877147Y-97995059D02*
G75*
G02*
X154949963Y-98369665I-463592J-187303D01*
G01*
X155877147Y-97995059D02*
X150632655Y-85014485D01*
X162877147Y-115395059D02*
G75*
G02*
X161949963Y-115769665I-463592J-187303D01*
G01*
X156705471Y-102789091D02*
X161949963Y-115769665D01*
X162877147Y-115395059D02*
X157632655Y-102414485D01*
X186756221Y-126580077D02*
X185540551Y-129444016D01*
X86396642Y-81060907D02*
X85328555Y-83584762D01*
X104013135Y-73943381D02*
X110522088Y-76706268D01*
X86396642Y-81060907D02*
X104013135Y-73943381D01*
X157070450Y-58978043D02*
X159934389Y-60193713D01*
X170787997Y-137777211D02*
X169793358Y-140120434D01*
X185540551Y-129444016D02*
X172003667Y-134913272D01*
X110522088Y-76706268D02*
X123502662Y-71461775D01*
X123502662Y-71461775D02*
X124804452Y-72014353D01*
X186756221Y-126580077D02*
X159934389Y-60193713D01*
X172003667Y-134913272D02*
X170787997Y-137777211D01*
X157070450Y-58978043D02*
X124804452Y-72014353D01*
X169793358Y-140120434D02*
X159872491Y-144128725D01*
X102421388Y-112972452D02*
X106500997Y-111324183D01*
X104080865Y-118137595D02*
X105729134Y-122217204D01*
X112350599Y-114580699D02*
G75*
G02*
X112461113Y-114320341I185436J74922D01*
G01*
X127881505Y-113493610D02*
G75*
G02*
X128141862Y-113604125I74921J-185436D01*
G01*
X116540722Y-112672072D02*
X112461113Y-114320341D01*
X117705605Y-127300914D02*
G75*
G02*
X117445248Y-127190399I-74921J185436D01*
G01*
X116540722Y-112672072D02*
G75*
G02*
X117061438Y-112893102I149843J-370873D01*
G01*
X104301895Y-117616879D02*
X108381504Y-115968610D01*
X98864492Y-104702718D02*
G75*
G02*
X98604134Y-104592204I-74922J185436D01*
G01*
X113736511Y-128688825D02*
G75*
G02*
X113625997Y-128949183I-185436J-74922D01*
G01*
X109025672Y-130376422D02*
X107377403Y-126296813D01*
X137205605Y-124825914D02*
G75*
G02*
X136945248Y-124715399I-74921J185436D01*
G01*
X118709707Y-116972712D02*
G75*
G02*
X118599192Y-117233069I-185436J-74921D01*
G01*
X128525672Y-127901422D02*
X126877403Y-123821813D01*
X110320248Y-109565399D02*
X106611512Y-111063825D01*
X104080865Y-118137595D02*
G75*
G02*
X104301895Y-117616879I370873J149843D01*
G01*
X109546388Y-130597452D02*
G75*
G02*
X109025672Y-130376422I-149843J370873D01*
G01*
X114881245Y-107506929D02*
G75*
G02*
X114660215Y-108027645I-370873J-149843D01*
G01*
X114660215Y-108027645D02*
X110580606Y-109675914D01*
X100362918Y-108411455D02*
X98864492Y-104702719D01*
X105989492Y-122327718D02*
G75*
G02*
X105729134Y-122217204I-74922J185436D01*
G01*
X107487918Y-126036455D02*
X105989492Y-122327719D01*
X138099192Y-114758069D02*
X139597618Y-118466805D01*
X97176895Y-99991879D02*
X101256504Y-98343610D01*
X126877403Y-123821812D02*
G75*
G02*
X126987918Y-123561455I185436J74921D01*
G01*
X123580865Y-115662595D02*
G75*
G02*
X123801895Y-115141879I370873J149843D01*
G01*
X96955865Y-100512595D02*
X98604134Y-104592204D01*
X114881245Y-107506929D02*
X113232976Y-103427320D01*
X117445248Y-127190399D02*
X113736512Y-128688825D01*
X122006245Y-125131929D02*
G75*
G02*
X121785215Y-125652645I-370873J-149843D01*
G01*
X109546388Y-130597452D02*
X113625997Y-128949183D01*
X136040722Y-110197072D02*
G75*
G02*
X136561438Y-110418102I149843J-370873D01*
G01*
X128141862Y-113604125D02*
X131850598Y-112105699D01*
X141285215Y-123177645D02*
X137205606Y-124825914D01*
X101516862Y-98454125D02*
X105225598Y-96955699D01*
X138209707Y-114497712D02*
G75*
G02*
X138099192Y-114758069I-185436J-74921D01*
G01*
X125489492Y-119852718D02*
G75*
G02*
X125229134Y-119742204I-74922J185436D01*
G01*
X136040722Y-110197072D02*
X131961113Y-111845341D01*
X141506245Y-122656929D02*
G75*
G02*
X141285215Y-123177645I-370873J-149843D01*
G01*
X111474192Y-99608069D02*
X112972618Y-103316805D01*
X107377403Y-126296812D02*
G75*
G02*
X107487918Y-126036455I185436J74921D01*
G01*
X122006245Y-125131929D02*
X120357976Y-121052320D01*
X120097618Y-120941806D02*
G75*
G02*
X120357976Y-121052320I74922J-185436D01*
G01*
X139597618Y-118466806D02*
G75*
G02*
X139857976Y-118577320I74922J-185436D01*
G01*
X129046388Y-128122452D02*
X133125997Y-126474183D01*
X136561438Y-110418102D02*
X138209707Y-114497711D01*
X96955865Y-100512595D02*
G75*
G02*
X97176895Y-99991879I370873J149843D01*
G01*
X109936438Y-95268102D02*
X111584707Y-99347711D01*
X123580865Y-115662595D02*
X125229134Y-119742204D01*
X108641862Y-116079125D02*
X112350598Y-114580699D01*
X136945248Y-124715399D02*
X133236512Y-126213825D01*
X129046388Y-128122452D02*
G75*
G02*
X128525672Y-127901422I-149843J370873D01*
G01*
X131850599Y-112105699D02*
G75*
G02*
X131961113Y-111845341I185436J74922D01*
G01*
X111584707Y-99347712D02*
G75*
G02*
X111474192Y-99608069I-185436J-74921D01*
G01*
X112972618Y-103316806D02*
G75*
G02*
X113232976Y-103427320I74922J-185436D01*
G01*
X105225599Y-96955699D02*
G75*
G02*
X105336113Y-96695341I185436J74922D01*
G01*
X108381505Y-115968610D02*
G75*
G02*
X108641862Y-116079125I74921J-185436D01*
G01*
X118599192Y-117233069D02*
X120097618Y-120941805D01*
X121785215Y-125652645D02*
X117705606Y-127300914D01*
X101900672Y-112751422D02*
X100252403Y-108671813D01*
X100252403Y-108671812D02*
G75*
G02*
X100362918Y-108411455I185436J74921D01*
G01*
X106611511Y-111063825D02*
G75*
G02*
X106500997Y-111324183I-185436J-74922D01*
G01*
X117061438Y-112893102D02*
X118709707Y-116972711D01*
X109415722Y-95047072D02*
G75*
G02*
X109936438Y-95268102I149843J-370873D01*
G01*
X143055865Y-113162595D02*
G75*
G02*
X143276895Y-112641879I370873J149843D01*
G01*
X157574192Y-112258069D02*
X159072618Y-115966805D01*
X155515722Y-107697072D02*
G75*
G02*
X156036438Y-107918102I149843J-370873D01*
G01*
X164646388Y-114797452D02*
X168725997Y-113149183D01*
X163481505Y-100168610D02*
G75*
G02*
X163741862Y-100279125I74921J-185436D01*
G01*
X151325599Y-109605699D02*
G75*
G02*
X151436113Y-109345341I185436J74922D01*
G01*
X159401895Y-101816879D02*
X163481504Y-100168610D01*
X156036438Y-107918102D02*
X157684707Y-111997711D01*
X172161438Y-97093102D02*
X173809707Y-101172711D01*
X177106245Y-109331929D02*
X175457976Y-105252320D01*
X171771388Y-132422452D02*
G75*
G02*
X171250672Y-132201422I-149843J370873D01*
G01*
X159180865Y-102337595D02*
X160829134Y-106417204D01*
X171640722Y-96872072D02*
G75*
G02*
X172161438Y-97093102I149843J-370873D01*
G01*
X170606505Y-117793610D02*
G75*
G02*
X170866862Y-117904125I74921J-185436D01*
G01*
X159180865Y-102337595D02*
G75*
G02*
X159401895Y-101816879I370873J149843D01*
G01*
X179930605Y-129125914D02*
G75*
G02*
X179670248Y-129015399I-74921J185436D01*
G01*
X126987918Y-123561455D02*
X125489492Y-119852719D01*
X148521388Y-125622452D02*
G75*
G02*
X148000672Y-125401422I-149843J370873D01*
G01*
X156680605Y-122325914D02*
G75*
G02*
X156420248Y-122215399I-74921J185436D01*
G01*
X160981245Y-120156929D02*
X159332976Y-116077320D01*
X164646388Y-114797452D02*
G75*
G02*
X164125672Y-114576422I-149843J370873D01*
G01*
X146352403Y-121321812D02*
G75*
G02*
X146462918Y-121061455I185436J74921D01*
G01*
X162587918Y-110236455D02*
X161089492Y-106527719D01*
X155515722Y-107697072D02*
X151436113Y-109345341D01*
X160981245Y-120156929D02*
G75*
G02*
X160760215Y-120677645I-370873J-149843D01*
G01*
X160760215Y-120677645D02*
X156680606Y-122325914D01*
X168836511Y-112888825D02*
G75*
G02*
X168725997Y-113149183I-185436J-74922D01*
G01*
X147356505Y-110993610D02*
G75*
G02*
X147616862Y-111104125I74921J-185436D01*
G01*
X146462918Y-121061455D02*
X144964492Y-117352719D01*
X152711511Y-123713825D02*
G75*
G02*
X152600997Y-123974183I-185436J-74922D01*
G01*
X182322618Y-122766806D02*
G75*
G02*
X182582976Y-122877320I74922J-185436D01*
G01*
X144964492Y-117352718D02*
G75*
G02*
X144704134Y-117242204I-74922J185436D01*
G01*
X147616862Y-111104125D02*
X151325598Y-109605699D01*
X171250672Y-132201422D02*
X169602403Y-128121813D01*
X172545248Y-111390399D02*
X168836512Y-112888825D01*
X169602403Y-128121812D02*
G75*
G02*
X169712918Y-127861455I185436J74921D01*
G01*
X161089492Y-106527718D02*
G75*
G02*
X160829134Y-106417204I-74922J185436D01*
G01*
X141506245Y-122656929D02*
X139857976Y-118577320D01*
X178765722Y-114497072D02*
X174686113Y-116145341D01*
X167450599Y-98780699D02*
G75*
G02*
X167561113Y-98520341I185436J74922D01*
G01*
X180824192Y-119058069D02*
X182322618Y-122766805D01*
X168214492Y-124152718D02*
G75*
G02*
X167954134Y-124042204I-74922J185436D01*
G01*
X184231245Y-126956929D02*
G75*
G02*
X184010215Y-127477645I-370873J-149843D01*
G01*
X148521388Y-125622452D02*
X152600997Y-123974183D01*
X163741862Y-100279125D02*
X167450598Y-98780699D01*
X159072618Y-115966806D02*
G75*
G02*
X159332976Y-116077320I74922J-185436D01*
G01*
X173809707Y-101172712D02*
G75*
G02*
X173699192Y-101433069I-185436J-74921D01*
G01*
X143276895Y-112641879D02*
X147356504Y-110993610D01*
X177106245Y-109331929D02*
G75*
G02*
X176885215Y-109852645I-370873J-149843D01*
G01*
X166305865Y-119962595D02*
G75*
G02*
X166526895Y-119441879I370873J149843D01*
G01*
X156420248Y-122215399D02*
X152711512Y-123713825D01*
X172805605Y-111500914D02*
G75*
G02*
X172545248Y-111390399I-74921J185436D01*
G01*
X178765722Y-114497072D02*
G75*
G02*
X179286438Y-114718102I149843J-370873D01*
G01*
X123801895Y-115141879D02*
X127881504Y-113493610D01*
X176885215Y-109852645D02*
X172805606Y-111500914D01*
X162477403Y-110496812D02*
G75*
G02*
X162587918Y-110236455I185436J74921D01*
G01*
X171640722Y-96872072D02*
X167561113Y-98520341D01*
X133236511Y-126213825D02*
G75*
G02*
X133125997Y-126474183I-185436J-74922D01*
G01*
X157684707Y-111997712D02*
G75*
G02*
X157574192Y-112258069I-185436J-74921D01*
G01*
X143055865Y-113162595D02*
X144704134Y-117242204D01*
X175197618Y-105141806D02*
G75*
G02*
X175457976Y-105252320I74922J-185436D01*
G01*
X164125672Y-114576422D02*
X162477403Y-110496813D01*
X148000672Y-125401422D02*
X146352403Y-121321813D01*
X173699192Y-101433069D02*
X175197618Y-105141805D01*
X124805605Y-144925914D02*
G75*
G02*
X124545248Y-144815399I-74921J185436D01*
G01*
X162640722Y-125322072D02*
X158561113Y-126970341D01*
X136146388Y-145722452D02*
G75*
G02*
X135625672Y-145501422I-149843J370873D01*
G01*
X132589492Y-137452718D02*
G75*
G02*
X132329134Y-137342204I-74922J185436D01*
G01*
X175961511Y-130513825D02*
G75*
G02*
X175850997Y-130774183I-185436J-74922D01*
G01*
X180934707Y-118797712D02*
G75*
G02*
X180824192Y-119058069I-185436J-74921D01*
G01*
X166197618Y-133591806D02*
G75*
G02*
X166457976Y-133702320I74922J-185436D01*
G01*
X155125672Y-143026422D02*
X153477403Y-138946813D01*
X153477403Y-138946812D02*
G75*
G02*
X153587918Y-138686455I185436J74921D01*
G01*
X164809707Y-129622712D02*
G75*
G02*
X164699192Y-129883069I-185436J-74921D01*
G01*
X134981505Y-131093610D02*
G75*
G02*
X135241862Y-131204125I74921J-185436D01*
G01*
X144305605Y-142425914D02*
G75*
G02*
X144045248Y-142315399I-74921J185436D01*
G01*
X155646388Y-143247452D02*
G75*
G02*
X155125672Y-143026422I-149843J370873D01*
G01*
X184010215Y-127477645D02*
X179930606Y-129125914D01*
X179286438Y-114718102D02*
X180934707Y-118797711D01*
X163161438Y-125543102D02*
X164809707Y-129622711D01*
X163545248Y-139840399D02*
X159836512Y-141338825D01*
X150180865Y-130787595D02*
G75*
G02*
X150401895Y-130266879I370873J149843D01*
G01*
X146697618Y-136066806D02*
G75*
G02*
X146957976Y-136177320I74922J-185436D01*
G01*
X145199192Y-132358069D02*
X146697618Y-136066805D01*
X162640722Y-125322072D02*
G75*
G02*
X163161438Y-125543102I149843J-370873D01*
G01*
X148606245Y-140256929D02*
G75*
G02*
X148385215Y-140777645I-370873J-149843D01*
G01*
X167885215Y-138302645D02*
X163805606Y-139950914D01*
X148385215Y-140777645D02*
X144305606Y-142425914D01*
X154741862Y-128729125D02*
X158450598Y-127230699D01*
X150401895Y-130266879D02*
X154481504Y-128618610D01*
X133977403Y-141421812D02*
G75*
G02*
X134087918Y-141161455I185436J74921D01*
G01*
X145309707Y-132097712D02*
G75*
G02*
X145199192Y-132358069I-185436J-74921D01*
G01*
X135625672Y-145501422D02*
X133977403Y-141421813D01*
X144045248Y-142315399D02*
X140336512Y-143813825D01*
X140336511Y-143813825D02*
G75*
G02*
X140225997Y-144074183I-185436J-74922D01*
G01*
X130901895Y-132741879D02*
X134981504Y-131093610D01*
X166526895Y-119441879D02*
X170606504Y-117793610D01*
X134087918Y-141161455D02*
X132589492Y-137452719D01*
X148606245Y-140256929D02*
X146957976Y-136177320D01*
X143140722Y-127797072D02*
X139061113Y-129445341D01*
X169712918Y-127861455D02*
X168214492Y-124152719D01*
X143661438Y-128018102D02*
X145309707Y-132097711D01*
X179670248Y-129015399D02*
X175961512Y-130513825D01*
X184231245Y-126956929D02*
X182582976Y-122877320D01*
X154481505Y-128618610D02*
G75*
G02*
X154741862Y-128729125I74921J-185436D01*
G01*
X163805605Y-139950914D02*
G75*
G02*
X163545248Y-139840399I-74921J185436D01*
G01*
X164699192Y-129883069D02*
X166197618Y-133591805D01*
X166305865Y-119962595D02*
X167954134Y-124042204D01*
X152089492Y-134977718D02*
G75*
G02*
X151829134Y-134867204I-74922J185436D01*
G01*
X168106245Y-137781929D02*
G75*
G02*
X167885215Y-138302645I-370873J-149843D01*
G01*
X150180865Y-130787595D02*
X151829134Y-134867204D01*
X174575599Y-116405699D02*
G75*
G02*
X174686113Y-116145341I185436J74922D01*
G01*
X168106245Y-137781929D02*
X166457976Y-133702320D01*
X130680865Y-133262595D02*
G75*
G02*
X130901895Y-132741879I370873J149843D01*
G01*
X143140722Y-127797072D02*
G75*
G02*
X143661438Y-128018102I149843J-370873D01*
G01*
X159836511Y-141338825D02*
G75*
G02*
X159725997Y-141599183I-185436J-74922D01*
G01*
X138950599Y-129705699D02*
G75*
G02*
X139061113Y-129445341I185436J74922D01*
G01*
X170866862Y-117904125D02*
X174575598Y-116405699D01*
X158450599Y-127230699D02*
G75*
G02*
X158561113Y-126970341I185436J74922D01*
G01*
X155646388Y-143247452D02*
X159725997Y-141599183D01*
X130680865Y-133262595D02*
X132329134Y-137342204D01*
X135241862Y-131204125D02*
X138950598Y-129705699D01*
X171771388Y-132422452D02*
X175850997Y-130774183D01*
X115481505Y-133593610D02*
G75*
G02*
X115741862Y-133704125I74921J-185436D01*
G01*
X116646388Y-148222452D02*
G75*
G02*
X116125672Y-148001422I-149843J370873D01*
G01*
X123640722Y-130297072D02*
X119561113Y-131945341D01*
X153587918Y-138686455D02*
X152089492Y-134977719D01*
X136146388Y-145722452D02*
X140225997Y-144074183D01*
X125809707Y-134597712D02*
G75*
G02*
X125699192Y-134858069I-185436J-74921D01*
G01*
X115741862Y-133704125D02*
X119450598Y-132205699D01*
X113089492Y-139952718D02*
G75*
G02*
X112829134Y-139842204I-74922J185436D01*
G01*
X111401895Y-135241879D02*
X115481504Y-133593610D01*
X124161438Y-130518102D02*
X125809707Y-134597711D01*
X129106245Y-142756929D02*
X127457976Y-138677320D01*
X116125672Y-148001422D02*
X114477403Y-143921813D01*
X128885215Y-143277645D02*
X124805606Y-144925914D01*
X114477403Y-143921812D02*
G75*
G02*
X114587918Y-143661455I185436J74921D01*
G01*
X114587918Y-143661455D02*
X113089492Y-139952719D01*
X127197618Y-138566806D02*
G75*
G02*
X127457976Y-138677320I74922J-185436D01*
G01*
X111180865Y-135762595D02*
X112829134Y-139842204D01*
X120836511Y-146313825D02*
G75*
G02*
X120725997Y-146574183I-185436J-74922D01*
G01*
X111180865Y-135762595D02*
G75*
G02*
X111401895Y-135241879I370873J149843D01*
G01*
X119450599Y-132205699D02*
G75*
G02*
X119561113Y-131945341I185436J74922D01*
G01*
X124545248Y-144815399D02*
X120836512Y-146313825D01*
X129106245Y-142756929D02*
G75*
G02*
X128885215Y-143277645I-370873J-149843D01*
G01*
X123640722Y-130297072D02*
G75*
G02*
X124161438Y-130518102I149843J-370873D01*
G01*
X116646388Y-148222452D02*
X120725997Y-146574183D01*
X125699192Y-134858069D02*
X127197618Y-138566805D01*
X168072618Y-87541806D02*
G75*
G02*
X168332976Y-87652320I74922J-185436D01*
G01*
X155462918Y-92636455D02*
X153964492Y-88927719D01*
X169981245Y-91731929D02*
G75*
G02*
X169760215Y-92252645I-370873J-149843D01*
G01*
X161711511Y-95288825D02*
G75*
G02*
X161600997Y-95549183I-185436J-74922D01*
G01*
X152276895Y-84216879D02*
X156356504Y-82568610D01*
X165680605Y-93900914D02*
G75*
G02*
X165420248Y-93790399I-74921J185436D01*
G01*
X169981245Y-91731929D02*
X168332976Y-87652320D01*
X140491862Y-93504125D02*
X144200598Y-92005699D01*
X169760215Y-92252645D02*
X165680606Y-93900914D01*
X155352403Y-92896812D02*
G75*
G02*
X155462918Y-92636455I185436J74921D01*
G01*
X156616862Y-82679125D02*
X160325598Y-81180699D01*
X166684707Y-83572712D02*
G75*
G02*
X166574192Y-83833069I-185436J-74921D01*
G01*
X160325599Y-81180699D02*
G75*
G02*
X160436113Y-80920341I185436J74922D01*
G01*
X152055865Y-84737595D02*
X153704134Y-88817204D01*
X153635215Y-103077645D02*
X149555606Y-104725914D01*
X157521388Y-97197452D02*
G75*
G02*
X157000672Y-96976422I-149843J370873D01*
G01*
X166574192Y-83833069D02*
X168072618Y-87541805D01*
X140875672Y-107801422D02*
X139227403Y-103721813D01*
X140231505Y-93393610D02*
G75*
G02*
X140491862Y-93504125I74921J-185436D01*
G01*
X149555605Y-104725914D02*
G75*
G02*
X149295248Y-104615399I-74921J185436D01*
G01*
X139227403Y-103721812D02*
G75*
G02*
X139337918Y-103461455I185436J74921D01*
G01*
X137839492Y-99752718D02*
G75*
G02*
X137579134Y-99642204I-74922J185436D01*
G01*
X156356505Y-82568610D02*
G75*
G02*
X156616862Y-82679125I74921J-185436D01*
G01*
X153856245Y-102556929D02*
G75*
G02*
X153635215Y-103077645I-370873J-149843D01*
G01*
X135930865Y-95562595D02*
G75*
G02*
X136151895Y-95041879I370873J149843D01*
G01*
X157521388Y-97197452D02*
X161600997Y-95549183D01*
X148390722Y-90097072D02*
G75*
G02*
X148911438Y-90318102I149843J-370873D01*
G01*
X150559707Y-94397712D02*
G75*
G02*
X150449192Y-94658069I-185436J-74921D01*
G01*
X148911438Y-90318102D02*
X150559707Y-94397711D01*
X164515722Y-79272072D02*
X160436113Y-80920341D01*
X144200599Y-92005699D02*
G75*
G02*
X144311113Y-91745341I185436J74922D01*
G01*
X135930865Y-95562595D02*
X137579134Y-99642204D01*
X149295248Y-104615399D02*
X145586512Y-106113825D01*
X139337918Y-103461455D02*
X137839492Y-99752719D01*
X145586511Y-106113825D02*
G75*
G02*
X145475997Y-106374183I-185436J-74922D01*
G01*
X165036438Y-79493102D02*
X166684707Y-83572711D01*
X141396388Y-108022452D02*
X145475997Y-106374183D01*
X136151895Y-95041879D02*
X140231504Y-93393610D01*
X165420248Y-93790399D02*
X161711512Y-95288825D01*
X153856245Y-102556929D02*
X152207976Y-98477320D01*
X153964492Y-88927718D02*
G75*
G02*
X153704134Y-88817204I-74922J185436D01*
G01*
X152055865Y-84737595D02*
G75*
G02*
X152276895Y-84216879I370873J149843D01*
G01*
X151947618Y-98366806D02*
G75*
G02*
X152207976Y-98477320I74922J-185436D01*
G01*
X164515722Y-79272072D02*
G75*
G02*
X165036438Y-79493102I149843J-370873D01*
G01*
X141396388Y-108022452D02*
G75*
G02*
X140875672Y-107801422I-149843J370873D01*
G01*
X148390722Y-90097072D02*
X144311113Y-91745341D01*
X150449192Y-94658069D02*
X151947618Y-98366805D01*
X157000672Y-96976422D02*
X155352403Y-92896813D01*
X130974192Y-97133069D02*
X132472618Y-100841805D01*
X118364492Y-102227718D02*
G75*
G02*
X118104134Y-102117204I-74922J185436D01*
G01*
X116455865Y-98037595D02*
G75*
G02*
X116676895Y-97516879I370873J149843D01*
G01*
X130080605Y-107200914D02*
G75*
G02*
X129820248Y-107090399I-74921J185436D01*
G01*
X132472618Y-100841806D02*
G75*
G02*
X132732976Y-100952320I74922J-185436D01*
G01*
X121921388Y-110497452D02*
X126000997Y-108849183D01*
X120756505Y-95868610D02*
G75*
G02*
X121016862Y-95979125I74921J-185436D01*
G01*
X119752403Y-106196812D02*
G75*
G02*
X119862918Y-105936455I185436J74921D01*
G01*
X121016862Y-95979125D02*
X124725598Y-94480699D01*
X131084707Y-96872712D02*
G75*
G02*
X130974192Y-97133069I-185436J-74921D01*
G01*
X116455865Y-98037595D02*
X118104134Y-102117204D01*
X129820248Y-107090399D02*
X126111512Y-108588825D01*
X119862918Y-105936455D02*
X118364492Y-102227719D01*
X121400672Y-110276422D02*
X119752403Y-106196813D01*
X124725599Y-94480699D02*
G75*
G02*
X124836113Y-94220341I185436J74922D01*
G01*
X128915722Y-92572072D02*
G75*
G02*
X129436438Y-92793102I149843J-370873D01*
G01*
X101256505Y-98343610D02*
G75*
G02*
X101516862Y-98454125I74921J-185436D01*
G01*
X109415722Y-95047072D02*
X105336113Y-96695341D01*
X134381245Y-105031929D02*
G75*
G02*
X134160215Y-105552645I-370873J-149843D01*
G01*
X126111511Y-108588825D02*
G75*
G02*
X126000997Y-108849183I-185436J-74922D01*
G01*
X134381245Y-105031929D02*
X132732976Y-100952320D01*
X128915722Y-92572072D02*
X124836113Y-94220341D01*
X121921388Y-110497452D02*
G75*
G02*
X121400672Y-110276422I-149843J370873D01*
G01*
X134160215Y-105552645D02*
X130080606Y-107200914D01*
X116676895Y-97516879D02*
X120756504Y-95868610D01*
X129436438Y-92793102D02*
X131084707Y-96872711D01*
X102421388Y-112972452D02*
G75*
G02*
X101900672Y-112751422I-149843J370873D01*
G01*
X110580605Y-109675914D02*
G75*
G02*
X110320248Y-109565399I-74921J185436D01*
G01*
M02*
