G04 #@! TF.GenerationSoftware,KiCad,Pcbnew,(5.1.4)-1*
G04 #@! TF.CreationDate,2025-05-28T14:12:59-04:00*
G04 #@! TF.ProjectId,ThumbsUp,5468756d-6273-4557-902e-6b696361645f,rev?*
G04 #@! TF.SameCoordinates,Original*
G04 #@! TF.FileFunction,Copper,L2,Bot*
G04 #@! TF.FilePolarity,Positive*
%FSLAX46Y46*%
G04 Gerber Fmt 4.6, Leading zero omitted, Abs format (unit mm)*
G04 Created by KiCad (PCBNEW (5.1.4)-1) date 2025-05-28 14:12:59*
%MOMM*%
%LPD*%
G04 APERTURE LIST*
%ADD10C,2.500000*%
%ADD11C,0.100000*%
%ADD12C,2.600000*%
%ADD13C,1.700000*%
%ADD14C,1.700000*%
%ADD15O,1.700000X1.700000*%
%ADD16R,1.700000X1.700000*%
%ADD17R,1.500000X0.800000*%
%ADD18R,1.500000X0.600000*%
%ADD19C,0.800000*%
%ADD20C,0.254000*%
%ADD21C,0.508000*%
G04 APERTURE END LIST*
D10*
X176342269Y45099650D03*
D11*
G36*
X176608260Y46865259D02*
G01*
X178112798Y44868670D01*
X176076278Y43334041D01*
X174571740Y45330630D01*
X176608260Y46865259D01*
X176608260Y46865259D01*
G37*
D10*
X185137620Y54907847D03*
D11*
G36*
X185403611Y56673456D02*
G01*
X186908149Y54676867D01*
X184871629Y53142238D01*
X183367091Y55138827D01*
X185403611Y56673456D01*
X185403611Y56673456D01*
G37*
D12*
X182302580Y60647424D03*
D11*
G36*
X182046713Y58826838D02*
G01*
X180481994Y60903291D01*
X182558447Y62468010D01*
X184123166Y60391557D01*
X182046713Y58826838D01*
X182046713Y58826838D01*
G37*
D12*
X171754346Y55453459D03*
D11*
G36*
X171498479Y53632873D02*
G01*
X169933760Y55709326D01*
X172010213Y57274045D01*
X173574932Y55197592D01*
X171498479Y53632873D01*
X171498479Y53632873D01*
G37*
D10*
X100781732Y52104966D03*
D11*
G36*
X102552261Y52335946D02*
G01*
X101047723Y50339357D01*
X99011203Y51873986D01*
X100515741Y53870575D01*
X102552261Y52335946D01*
X102552261Y52335946D01*
G37*
D10*
X112634303Y46353837D03*
D11*
G36*
X114404832Y46584817D02*
G01*
X112900294Y44588228D01*
X110863774Y46122857D01*
X112368312Y48119446D01*
X114404832Y46584817D01*
X114404832Y46584817D01*
G37*
D12*
X117370096Y50661095D03*
D11*
G36*
X115549510Y50405228D02*
G01*
X117114229Y52481681D01*
X119190682Y50916962D01*
X117625963Y48840509D01*
X115549510Y50405228D01*
X115549510Y50405228D01*
G37*
D12*
X109469849Y59369056D03*
D11*
G36*
X107649263Y59113189D02*
G01*
X109213982Y61189642D01*
X111290435Y59624923D01*
X109725716Y57548470D01*
X107649263Y59113189D01*
X107649263Y59113189D01*
G37*
D10*
X191516344Y56534135D03*
D11*
G36*
X191782335Y58299744D02*
G01*
X193286873Y56303155D01*
X191250353Y54768526D01*
X189745815Y56765115D01*
X191782335Y58299744D01*
X191782335Y58299744D01*
G37*
D10*
X200311695Y66342332D03*
D11*
G36*
X200577686Y68107941D02*
G01*
X202082224Y66111352D01*
X200045704Y64576723D01*
X198541166Y66573312D01*
X200577686Y68107941D01*
X200577686Y68107941D01*
G37*
D12*
X197476655Y72081909D03*
D11*
G36*
X197220788Y70261323D02*
G01*
X195656069Y72337776D01*
X197732522Y73902495D01*
X199297241Y71826042D01*
X197220788Y70261323D01*
X197220788Y70261323D01*
G37*
D12*
X186928421Y66887944D03*
D11*
G36*
X186672554Y65067358D02*
G01*
X185107835Y67143811D01*
X187184288Y68708530D01*
X188749007Y66632077D01*
X186672554Y65067358D01*
X186672554Y65067358D01*
G37*
D10*
X206690419Y67968621D03*
D11*
G36*
X206956410Y69734230D02*
G01*
X208460948Y67737641D01*
X206424428Y66203012D01*
X204919890Y68199601D01*
X206956410Y69734230D01*
X206956410Y69734230D01*
G37*
D10*
X215485770Y77776818D03*
D11*
G36*
X215751761Y79542427D02*
G01*
X217256299Y77545838D01*
X215219779Y76011209D01*
X213715241Y78007798D01*
X215751761Y79542427D01*
X215751761Y79542427D01*
G37*
D12*
X212650730Y83516395D03*
D11*
G36*
X212394863Y81695809D02*
G01*
X210830144Y83772262D01*
X212906597Y85336981D01*
X214471316Y83260528D01*
X212394863Y81695809D01*
X212394863Y81695809D01*
G37*
D12*
X202102496Y78322430D03*
D11*
G36*
X201846629Y76501844D02*
G01*
X200281910Y78578297D01*
X202358363Y80143016D01*
X203923082Y78066563D01*
X201846629Y76501844D01*
X201846629Y76501844D01*
G37*
D10*
X70433583Y74973937D03*
D11*
G36*
X72204112Y75204917D02*
G01*
X70699574Y73208328D01*
X68663054Y74742957D01*
X70167592Y76739546D01*
X72204112Y75204917D01*
X72204112Y75204917D01*
G37*
D10*
X82286154Y69222808D03*
D11*
G36*
X84056683Y69453788D02*
G01*
X82552145Y67457199D01*
X80515625Y68991828D01*
X82020163Y70988417D01*
X84056683Y69453788D01*
X84056683Y69453788D01*
G37*
D12*
X87021947Y73530066D03*
D11*
G36*
X85201361Y73274199D02*
G01*
X86766080Y75350652D01*
X88842533Y73785933D01*
X87277814Y71709480D01*
X85201361Y73274199D01*
X85201361Y73274199D01*
G37*
D12*
X79121700Y82238027D03*
D11*
G36*
X77301114Y81982160D02*
G01*
X78865833Y84058613D01*
X80942286Y82493894D01*
X79377567Y80417441D01*
X77301114Y81982160D01*
X77301114Y81982160D01*
G37*
D10*
X85607657Y63539451D03*
D11*
G36*
X87378186Y63770431D02*
G01*
X85873648Y61773842D01*
X83837128Y63308471D01*
X85341666Y65305060D01*
X87378186Y63770431D01*
X87378186Y63770431D01*
G37*
D10*
X97460228Y57788322D03*
D11*
G36*
X99230757Y58019302D02*
G01*
X97726219Y56022713D01*
X95689699Y57557342D01*
X97194237Y59553931D01*
X99230757Y58019302D01*
X99230757Y58019302D01*
G37*
D12*
X102196021Y62095580D03*
D11*
G36*
X100375435Y61839713D02*
G01*
X101940154Y63916166D01*
X104016607Y62351447D01*
X102451888Y60274994D01*
X100375435Y61839713D01*
X100375435Y61839713D01*
G37*
D12*
X94295774Y70803541D03*
D11*
G36*
X92475188Y70547674D02*
G01*
X94039907Y72624127D01*
X96116360Y71059408D01*
X94551641Y68982955D01*
X92475188Y70547674D01*
X92475188Y70547674D01*
G37*
D13*
X78544397Y64615830D03*
D14*
X78544397Y64615830D02*
X78544397Y64615830D01*
D13*
X80572932Y63087220D03*
D14*
X80572932Y63087220D02*
X80572932Y63087220D01*
D13*
X82601466Y61558610D03*
D14*
X82601466Y61558610D02*
X82601466Y61558610D01*
D13*
X84630000Y60030000D03*
D11*
G36*
X84797297Y58839617D02*
G01*
X83439617Y59862703D01*
X84462703Y61220383D01*
X85820383Y60197297D01*
X84797297Y58839617D01*
X84797297Y58839617D01*
G37*
D13*
X113544170Y40944397D03*
D14*
X113544170Y40944397D02*
X113544170Y40944397D01*
D13*
X115072780Y42972932D03*
D14*
X115072780Y42972932D02*
X115072780Y42972932D01*
D13*
X116601390Y45001466D03*
D14*
X116601390Y45001466D02*
X116601390Y45001466D01*
D13*
X118130000Y47030000D03*
D11*
G36*
X119320383Y47197297D02*
G01*
X118297297Y45839617D01*
X116939617Y46862703D01*
X117962703Y48220383D01*
X119320383Y47197297D01*
X119320383Y47197297D01*
G37*
D13*
X203494397Y61294170D03*
D14*
X203494397Y61294170D02*
X203494397Y61294170D01*
D13*
X205522932Y62822780D03*
D14*
X205522932Y62822780D02*
X205522932Y62822780D01*
D13*
X207551466Y64351390D03*
D14*
X207551466Y64351390D02*
X207551466Y64351390D01*
D13*
X209580000Y65880000D03*
D11*
G36*
X210770383Y65712703D02*
G01*
X209412703Y64689617D01*
X208389617Y66047297D01*
X209747297Y67070383D01*
X210770383Y65712703D01*
X210770383Y65712703D01*
G37*
D15*
X143130000Y107910000D03*
X143130000Y110450000D03*
X143130000Y112990000D03*
D16*
X143130000Y115530000D03*
D13*
X172715830Y40944397D03*
D14*
X172715830Y40944397D02*
X172715830Y40944397D01*
D13*
X171187220Y42972932D03*
D14*
X171187220Y42972932D02*
X171187220Y42972932D01*
D13*
X169658610Y45001466D03*
D14*
X169658610Y45001466D02*
X169658610Y45001466D01*
D13*
X168130000Y47030000D03*
D11*
G36*
X168297297Y48220383D02*
G01*
X169320383Y46862703D01*
X167962703Y45839617D01*
X166939617Y47197297D01*
X168297297Y48220383D01*
X168297297Y48220383D01*
G37*
D17*
X166930000Y64680000D03*
X169730000Y64680000D03*
X166930000Y72180000D03*
X169730000Y72180000D03*
D18*
X166930000Y65680000D03*
X169730000Y66180000D03*
X166930000Y66680000D03*
X169730000Y67180000D03*
X166930000Y67680000D03*
X169730000Y68180000D03*
X166930000Y68680000D03*
X169730000Y69180000D03*
X166930000Y69680000D03*
X169730000Y70180000D03*
X166930000Y70680000D03*
X169730000Y71180000D03*
D19*
X215798400Y73558400D03*
X184835800Y58242200D03*
X173380400Y52171600D03*
D20*
X171187220Y44175013D02*
X171187220Y42972932D01*
X171187220Y46617780D02*
X171187220Y44175013D01*
X168726000Y67180000D02*
X168351200Y66805200D01*
X169730000Y67180000D02*
X168726000Y67180000D01*
X168351200Y66805200D02*
X168351200Y60960000D01*
X168351200Y60960000D02*
X167055800Y59664600D01*
X167055800Y59664600D02*
X167055800Y50749200D01*
X167055800Y50749200D02*
X171187220Y46617780D01*
X165926000Y66680000D02*
X166930000Y66680000D01*
X164976189Y65730189D02*
X165926000Y66680000D01*
X164976189Y47571011D02*
X164976189Y65730189D01*
X169658610Y45001466D02*
X167545734Y45001466D01*
X167545734Y45001466D02*
X164976189Y47571011D01*
D21*
X170180000Y66180000D02*
X170988000Y65372000D01*
X169730000Y66180000D02*
X170180000Y66180000D01*
X172715830Y45910842D02*
X172715830Y42146478D01*
X172715830Y42146478D02*
X172715830Y40944397D01*
X167894000Y50732672D02*
X172715830Y45910842D01*
X170988000Y62657000D02*
X167894000Y59563000D01*
X170988000Y65372000D02*
X170988000Y62657000D01*
X167894000Y59563000D02*
X167894000Y50732672D01*
X165557200Y49602800D02*
X165557200Y65274402D01*
X165557200Y65274402D02*
X165962798Y65680000D01*
X165962798Y65680000D02*
X166930000Y65680000D01*
X168130000Y47030000D02*
X165557200Y49602800D01*
D20*
X186928421Y65160168D02*
X186928421Y66887944D01*
X186928421Y60857566D02*
X186928421Y65160168D01*
X186867800Y59055000D02*
X186928421Y60857566D01*
X191516344Y56534135D02*
X187833000Y58267600D01*
X187833000Y58267600D02*
X186867800Y59055000D01*
X191516344Y58199305D02*
X191516344Y56534135D01*
X191516344Y59817344D02*
X191516344Y58199305D01*
X203494397Y61294170D02*
X193167000Y60883800D01*
X193167000Y60883800D02*
X191516344Y59817344D01*
X202003380Y66342332D02*
X200311695Y66342332D01*
X205522932Y62822780D02*
X202003380Y66342332D01*
X200311695Y69246869D02*
X197476655Y72081909D01*
X200311695Y66342332D02*
X200311695Y69246869D01*
X215798400Y77464188D02*
X215485770Y77776818D01*
X215798400Y73558400D02*
X215798400Y77464188D01*
X214350600Y79959200D02*
X215485770Y77776818D01*
X212650730Y83516395D02*
X214350600Y79959200D01*
X207491379Y67968621D02*
X206690419Y67968621D01*
X209580000Y65880000D02*
X207491379Y67968621D01*
X203101478Y77323448D02*
X202102496Y78322430D01*
X201650600Y71450200D02*
X203101478Y77323448D01*
X206690419Y67968621D02*
X205496826Y69162214D01*
X205496826Y69162214D02*
X201650600Y71450200D01*
X69977000Y71755000D02*
X70433583Y74973937D01*
X78544397Y64615830D02*
X69977000Y71755000D01*
X77393924Y82238027D02*
X79121700Y82238027D01*
X74643427Y82238027D02*
X77393924Y82238027D01*
X70433583Y74973937D02*
X70433583Y78028183D01*
X70433583Y78028183D02*
X74643427Y82238027D01*
X80572932Y67509586D02*
X82286154Y69222808D01*
X80572932Y63087220D02*
X80572932Y67509586D01*
X86593412Y73530066D02*
X87021947Y73530066D01*
X82286154Y69222808D02*
X86593412Y73530066D01*
X101767486Y62095580D02*
X102196021Y62095580D01*
X97460228Y57788322D02*
X101767486Y62095580D01*
X102196021Y67374379D02*
X102196021Y62095580D01*
X102006400Y67564000D02*
X102196021Y67374379D01*
X82651600Y61608744D02*
X82651600Y65227200D01*
X82601466Y61558610D02*
X82651600Y61608744D01*
X82651600Y65227200D02*
X91059000Y73634600D01*
X91059000Y73634600D02*
X95940474Y73634600D01*
X95940474Y73634600D02*
X102006400Y67568674D01*
X102006400Y67568674D02*
X102006400Y67564000D01*
X85607657Y61007657D02*
X85607657Y63539451D01*
X84630000Y60030000D02*
X85607657Y61007657D01*
X86570937Y64502731D02*
X86570937Y67749537D01*
X85607657Y63539451D02*
X86570937Y64502731D01*
X89624941Y70803541D02*
X94295774Y70803541D01*
X86570937Y67749537D02*
X89624941Y70803541D01*
X102143766Y53467000D02*
X100781732Y52104966D01*
X103581200Y53467000D02*
X102143766Y53467000D01*
X105702580Y51345620D02*
X103581200Y53467000D01*
X113544170Y40944397D02*
X105702580Y48785987D01*
X105702580Y48785987D02*
X105702580Y51345620D01*
X101745012Y53068246D02*
X101745012Y57676012D01*
X100781732Y52104966D02*
X101745012Y53068246D01*
X101745012Y57676012D02*
X104546400Y60477400D01*
X108361505Y60477400D02*
X109469849Y59369056D01*
X104546400Y60477400D02*
X108361505Y60477400D01*
X112634303Y45411409D02*
X112634303Y46353837D01*
X115072780Y42972932D02*
X112634303Y45411409D01*
X113062838Y46353837D02*
X112634303Y46353837D01*
X117370096Y50661095D02*
X113062838Y46353837D01*
X184759600Y58089800D02*
X182302580Y60647424D01*
X185137620Y54907847D02*
X184759600Y58089800D01*
X173380400Y52737285D02*
X173380400Y52171600D01*
X176342269Y45099650D02*
X174645796Y45099650D01*
X174645796Y45099650D02*
X172091401Y47654045D01*
X172091401Y47654045D02*
X172091401Y50882601D01*
X172980401Y51771601D02*
X173380400Y52171600D01*
X172091401Y50882601D02*
X172980401Y51771601D01*
X171754346Y55453459D02*
X173380400Y53827405D01*
X173380400Y53827405D02*
X173380400Y52737285D01*
X143130000Y114426000D02*
X143130000Y110450000D01*
X143130000Y115530000D02*
X143130000Y114426000D01*
X146318600Y107910000D02*
X143130000Y107910000D01*
X167568602Y69680000D02*
X168007001Y70118399D01*
X166930000Y69680000D02*
X167568602Y69680000D01*
X168007001Y82233799D02*
X164515800Y89128600D01*
X168007001Y70118399D02*
X168007001Y82233799D01*
X164515800Y89128600D02*
X155803600Y106502200D01*
X155803600Y106502200D02*
X146318600Y107910000D01*
M02*
