G04 #@! TF.GenerationSoftware,KiCad,Pcbnew,(5.1.4)-1*
G04 #@! TF.CreationDate,2025-05-28T14:12:59-04:00*
G04 #@! TF.ProjectId,ThumbsUp,5468756d-6273-4557-902e-6b696361645f,rev?*
G04 #@! TF.SameCoordinates,Original*
G04 #@! TF.FileFunction,Other,Fab,Top*
%FSLAX46Y46*%
G04 Gerber Fmt 4.6, Leading zero omitted, Abs format (unit mm)*
G04 Created by KiCad (PCBNEW (5.1.4)-1) date 2025-05-28 14:12:59*
%MOMM*%
%LPD*%
G04 APERTURE LIST*
%ADD10C,0.150000*%
G04 APERTURE END LIST*
D10*
X167447298Y54148676D02*
X179426831Y63175901D01*
X179426831Y63175901D02*
X188454056Y51196368D01*
X188454056Y51196368D02*
X176474523Y42169143D01*
X176474523Y42169143D02*
X167447298Y54148676D01*
X107028427Y63149610D02*
X119007960Y54122385D01*
X119007960Y54122385D02*
X109980735Y42142852D01*
X109980735Y42142852D02*
X98001202Y51170077D01*
X98001202Y51170077D02*
X107028427Y63149610D01*
X182621373Y65583161D02*
X194600906Y74610386D01*
X194600906Y74610386D02*
X203628131Y62630853D01*
X203628131Y62630853D02*
X191648598Y53603628D01*
X191648598Y53603628D02*
X182621373Y65583161D01*
X197795448Y77017647D02*
X209774981Y86044872D01*
X209774981Y86044872D02*
X218802206Y74065339D01*
X218802206Y74065339D02*
X206822673Y65038114D01*
X206822673Y65038114D02*
X197795448Y77017647D01*
X76680278Y86018581D02*
X88659811Y76991356D01*
X88659811Y76991356D02*
X79632586Y65011823D01*
X79632586Y65011823D02*
X67653053Y74039048D01*
X67653053Y74039048D02*
X76680278Y86018581D01*
X91854352Y74584095D02*
X103833885Y65556870D01*
X103833885Y65556870D02*
X94806660Y53577337D01*
X94806660Y53577337D02*
X82827127Y62604562D01*
X82827127Y62604562D02*
X91854352Y74584095D01*
X180755605Y51637365D02*
X180898354Y51685308D01*
X181088505Y51828597D01*
X181135908Y51923943D01*
X181145281Y51990631D01*
X181125995Y52095350D01*
X181068679Y52171410D01*
X180973333Y52218813D01*
X180906645Y52228185D01*
X180801927Y52208900D01*
X180621148Y52132299D01*
X180516430Y52113013D01*
X180449741Y52122386D01*
X180354395Y52169788D01*
X180297080Y52245849D01*
X180277794Y52350567D01*
X180287167Y52417255D01*
X180334569Y52512601D01*
X180524721Y52655891D01*
X180667469Y52703834D01*
X181105628Y52676257D02*
X181658959Y52258465D01*
X181524502Y52753399D01*
X181963201Y52487728D01*
X181714113Y53134783D01*
X181703659Y53544284D02*
X182160022Y53888179D01*
X182533655Y52917596D02*
X181931840Y53716231D01*
X183028049Y53290148D02*
X182426234Y54088784D01*
X183370321Y53548069D02*
X183055085Y53966402D01*
X182959739Y54013804D01*
X182855020Y53994519D01*
X182740930Y53908545D01*
X182693527Y53813199D01*
X182684155Y53746511D01*
X184206987Y54178542D02*
X183654197Y54358239D01*
X183750624Y53834647D02*
X183148809Y54633283D01*
X183453051Y54862546D01*
X183557769Y54881831D01*
X183624457Y54872459D01*
X183719803Y54825056D01*
X183805777Y54710965D01*
X183825062Y54606247D01*
X183815690Y54539559D01*
X183768287Y54444213D01*
X183464045Y54214950D01*
X108358727Y49607316D02*
X108444160Y49483312D01*
X108634312Y49340023D01*
X108739030Y49320738D01*
X108805718Y49330110D01*
X108901064Y49377513D01*
X108958380Y49453573D01*
X108977665Y49558292D01*
X108968293Y49624980D01*
X108920890Y49720326D01*
X108797427Y49872987D01*
X108750024Y49968333D01*
X108740652Y50035021D01*
X108759937Y50139740D01*
X108817253Y50215800D01*
X108912599Y50263203D01*
X108979287Y50272575D01*
X109084006Y50253290D01*
X109274157Y50110001D01*
X109359590Y49985997D01*
X109453855Y49557210D02*
X109204766Y48910155D01*
X109643465Y49175826D01*
X109509008Y48680892D01*
X110062339Y49098685D01*
X110453095Y49221607D02*
X110909458Y48877713D01*
X110079462Y48251024D02*
X110681277Y49049660D01*
X110573855Y47878472D02*
X111175670Y48677108D01*
X110916127Y47620552D02*
X111231364Y48038884D01*
X111250649Y48143603D01*
X111203247Y48238949D01*
X111089156Y48324922D01*
X110984437Y48344208D01*
X110917749Y48334835D01*
X111676733Y47047394D02*
X111296430Y47333973D01*
X111898245Y48132608D01*
X195321196Y62613324D02*
X195463945Y62661267D01*
X195654096Y62804557D01*
X195701499Y62899902D01*
X195710871Y62966591D01*
X195691586Y63071309D01*
X195634270Y63147370D01*
X195538924Y63194772D01*
X195472236Y63204145D01*
X195367518Y63184859D01*
X195186739Y63108258D01*
X195082020Y63088973D01*
X195015332Y63098345D01*
X194919986Y63145748D01*
X194862671Y63221808D01*
X194843385Y63326526D01*
X194852758Y63393215D01*
X194900160Y63488561D01*
X195090311Y63631850D01*
X195233060Y63679793D01*
X195671219Y63652217D02*
X196224550Y63234424D01*
X196090093Y63729358D01*
X196528792Y63463687D01*
X196279703Y64110742D01*
X197441519Y64151476D02*
X196888728Y64331173D01*
X196985155Y63807582D02*
X196383340Y64606217D01*
X196687583Y64835480D01*
X196792301Y64854765D01*
X196858989Y64845393D01*
X196954335Y64797990D01*
X197040309Y64683900D01*
X197059594Y64579181D01*
X197050222Y64512493D01*
X197002819Y64417147D01*
X196698577Y64187884D01*
X197783791Y64409397D02*
X197181976Y65208032D01*
X197878056Y64838183D01*
X197714400Y65609242D01*
X198316215Y64810607D01*
X198246823Y66010452D02*
X198398944Y66125084D01*
X198503663Y66144369D01*
X198637039Y66125624D01*
X198789701Y66002161D01*
X198990306Y65735949D01*
X199066907Y65555170D01*
X199048162Y65421794D01*
X199000759Y65326448D01*
X198848638Y65211817D01*
X198743920Y65192531D01*
X198610544Y65211276D01*
X198457882Y65334739D01*
X198257277Y65600951D01*
X198180676Y65781730D01*
X198199421Y65915106D01*
X198246823Y66010452D01*
X199533183Y65727658D02*
X198931368Y66526294D01*
X199121519Y66669583D01*
X199264268Y66717526D01*
X199397644Y66698781D01*
X199492990Y66651379D01*
X199645652Y66527916D01*
X199731625Y66413825D01*
X199808227Y66233046D01*
X199827512Y66128327D01*
X199808767Y65994951D01*
X199723334Y65870947D01*
X199533183Y65727658D01*
X210324135Y73918850D02*
X210466884Y73966793D01*
X210657035Y74110082D01*
X210704438Y74205428D01*
X210713810Y74272116D01*
X210694525Y74376835D01*
X210637209Y74452895D01*
X210541863Y74500298D01*
X210475175Y74509670D01*
X210370456Y74490385D01*
X210189678Y74413784D01*
X210084959Y74394498D01*
X210018271Y74403871D01*
X209922925Y74451273D01*
X209865609Y74527334D01*
X209846324Y74632052D01*
X209855696Y74698740D01*
X209903099Y74794086D01*
X210093250Y74937376D01*
X210235999Y74985319D01*
X210674158Y74957742D02*
X211227489Y74539950D01*
X211093031Y75034884D01*
X211531731Y74769213D01*
X211282642Y75416268D01*
X212444457Y75457001D02*
X211891667Y75636699D01*
X211988094Y75113107D02*
X211386279Y75911743D01*
X211690521Y76141006D01*
X211795240Y76160291D01*
X211861928Y76150919D01*
X211957274Y76103516D01*
X212043247Y75989425D01*
X212062533Y75884707D01*
X212053160Y75818019D01*
X212005758Y75722673D01*
X211701516Y75493410D01*
X212720042Y75724295D02*
X212862790Y75772238D01*
X213052942Y75915527D01*
X213100344Y76010873D01*
X213109717Y76077561D01*
X213090431Y76182280D01*
X213033115Y76258340D01*
X212937770Y76305743D01*
X212871081Y76315115D01*
X212766363Y76295830D01*
X212585584Y76219229D01*
X212480866Y76199943D01*
X212414178Y76209316D01*
X212318832Y76256718D01*
X212261516Y76332779D01*
X212242230Y76437497D01*
X212251603Y76504185D01*
X212299006Y76599531D01*
X212489157Y76742821D01*
X212631905Y76790764D01*
X213547335Y76288079D02*
X212945520Y77086715D01*
X213232099Y76706412D02*
X213688462Y77050307D01*
X214003698Y76631974D02*
X213401883Y77430609D01*
X214334976Y77537490D02*
X214068764Y77336885D01*
X214384001Y76918552D02*
X213782186Y77717188D01*
X214162488Y78003766D01*
X214352640Y78147056D02*
X214809003Y78490950D01*
X215182636Y77520367D02*
X214580821Y78319003D01*
X77230958Y73063773D02*
X77316391Y72939769D01*
X77506542Y72796480D01*
X77611261Y72777195D01*
X77677949Y72786567D01*
X77773295Y72833970D01*
X77830610Y72910030D01*
X77849896Y73014749D01*
X77840524Y73081437D01*
X77793121Y73176783D01*
X77669658Y73329444D01*
X77622255Y73424790D01*
X77612883Y73491479D01*
X77632168Y73596197D01*
X77689484Y73672257D01*
X77784830Y73719660D01*
X77851518Y73729033D01*
X77956236Y73709747D01*
X78146388Y73566458D01*
X78231820Y73442454D01*
X78326085Y73013667D02*
X78076996Y72366612D01*
X78515696Y72632283D01*
X78381238Y72137349D01*
X78934569Y72555142D01*
X79217904Y71506877D02*
X78837601Y71793455D01*
X79439416Y72592091D01*
X79474744Y71372960D02*
X79560176Y71248956D01*
X79750328Y71105667D01*
X79855046Y71086381D01*
X79921734Y71095753D01*
X80017080Y71143156D01*
X80074396Y71219217D01*
X80093681Y71323935D01*
X80084309Y71390623D01*
X80036906Y71485969D01*
X79913443Y71638631D01*
X79866040Y71733977D01*
X79856668Y71800665D01*
X79875954Y71905383D01*
X79933269Y71981444D01*
X80028615Y72028846D01*
X80095303Y72038219D01*
X80200022Y72018933D01*
X80390173Y71875644D01*
X80475606Y71751640D01*
X80244721Y70733114D02*
X80846536Y71531750D01*
X80559958Y71151447D02*
X81016321Y70807553D01*
X80701084Y70389220D02*
X81302899Y71187856D01*
X81662835Y70320369D02*
X81396623Y70520974D01*
X81081387Y70102641D02*
X81683202Y70901277D01*
X82063505Y70614698D01*
X82253656Y70471409D02*
X82710019Y70127515D01*
X81880022Y69500826D02*
X82481837Y70299462D01*
X92576168Y61500327D02*
X92661601Y61376323D01*
X92851752Y61233034D01*
X92956471Y61213748D01*
X93023159Y61223121D01*
X93118505Y61270523D01*
X93175821Y61346584D01*
X93195106Y61451302D01*
X93185734Y61517990D01*
X93138331Y61613336D01*
X93014868Y61765998D01*
X92967465Y61861344D01*
X92958093Y61928032D01*
X92977378Y62032751D01*
X93034694Y62108811D01*
X93130040Y62156214D01*
X93196728Y62165586D01*
X93301446Y62146301D01*
X93491598Y62003011D01*
X93577031Y61879008D01*
X93671295Y61450221D02*
X93422206Y60803166D01*
X93860906Y61068837D01*
X93726448Y60573903D01*
X94279780Y60991695D01*
X94563114Y59943430D02*
X94182812Y60230009D01*
X94784627Y61028644D01*
X94829326Y59742825D02*
X95431141Y60541461D01*
X95267485Y59770402D01*
X95963565Y60140251D01*
X95361750Y59341615D01*
X96495988Y59739041D02*
X96648110Y59624409D01*
X96695512Y59529063D01*
X96714257Y59395687D01*
X96637656Y59214908D01*
X96437051Y58948696D01*
X96284389Y58825233D01*
X96151013Y58806488D01*
X96046295Y58825774D01*
X95894173Y58940405D01*
X95846771Y59035751D01*
X95828026Y59169127D01*
X95904627Y59349906D01*
X96105232Y59616118D01*
X96257894Y59739581D01*
X96391270Y59758326D01*
X96495988Y59739041D01*
X96578718Y58424564D02*
X97180533Y59223199D01*
X97370685Y59079910D01*
X97456117Y58955906D01*
X97474862Y58822530D01*
X97455577Y58717811D01*
X97378976Y58537033D01*
X97293002Y58422942D01*
X97140340Y58299479D01*
X97044994Y58252076D01*
X96911618Y58233331D01*
X96768869Y58281274D01*
X96578718Y58424564D01*
M02*
