G04 #@! TF.GenerationSoftware,KiCad,Pcbnew,(5.1.4)-1*
G04 #@! TF.CreationDate,2025-05-28T14:12:59-04:00*
G04 #@! TF.ProjectId,ThumbsUp,5468756d-6273-4557-902e-6b696361645f,rev?*
G04 #@! TF.SameCoordinates,Original*
G04 #@! TF.FileFunction,Paste,Bot*
G04 #@! TF.FilePolarity,Positive*
%FSLAX46Y46*%
G04 Gerber Fmt 4.6, Leading zero omitted, Abs format (unit mm)*
G04 Created by KiCad (PCBNEW (5.1.4)-1) date 2025-05-28 14:12:59*
%MOMM*%
%LPD*%
G04 APERTURE LIST*
%ADD10C,2.500000*%
%ADD11C,0.100000*%
%ADD12C,2.600000*%
%ADD13R,1.500000X0.800000*%
%ADD14R,1.500000X0.600000*%
G04 APERTURE END LIST*
D10*
X176342269Y45099650D03*
D11*
G36*
X176608260Y46865259D02*
G01*
X178112798Y44868670D01*
X176076278Y43334041D01*
X174571740Y45330630D01*
X176608260Y46865259D01*
X176608260Y46865259D01*
G37*
D10*
X185137620Y54907847D03*
D11*
G36*
X185403611Y56673456D02*
G01*
X186908149Y54676867D01*
X184871629Y53142238D01*
X183367091Y55138827D01*
X185403611Y56673456D01*
X185403611Y56673456D01*
G37*
D12*
X182302580Y60647424D03*
D11*
G36*
X182046713Y58826838D02*
G01*
X180481994Y60903291D01*
X182558447Y62468010D01*
X184123166Y60391557D01*
X182046713Y58826838D01*
X182046713Y58826838D01*
G37*
D12*
X171754346Y55453459D03*
D11*
G36*
X171498479Y53632873D02*
G01*
X169933760Y55709326D01*
X172010213Y57274045D01*
X173574932Y55197592D01*
X171498479Y53632873D01*
X171498479Y53632873D01*
G37*
D10*
X100781732Y52104966D03*
D11*
G36*
X102552261Y52335946D02*
G01*
X101047723Y50339357D01*
X99011203Y51873986D01*
X100515741Y53870575D01*
X102552261Y52335946D01*
X102552261Y52335946D01*
G37*
D10*
X112634303Y46353837D03*
D11*
G36*
X114404832Y46584817D02*
G01*
X112900294Y44588228D01*
X110863774Y46122857D01*
X112368312Y48119446D01*
X114404832Y46584817D01*
X114404832Y46584817D01*
G37*
D12*
X117370096Y50661095D03*
D11*
G36*
X115549510Y50405228D02*
G01*
X117114229Y52481681D01*
X119190682Y50916962D01*
X117625963Y48840509D01*
X115549510Y50405228D01*
X115549510Y50405228D01*
G37*
D12*
X109469849Y59369056D03*
D11*
G36*
X107649263Y59113189D02*
G01*
X109213982Y61189642D01*
X111290435Y59624923D01*
X109725716Y57548470D01*
X107649263Y59113189D01*
X107649263Y59113189D01*
G37*
D10*
X191516344Y56534135D03*
D11*
G36*
X191782335Y58299744D02*
G01*
X193286873Y56303155D01*
X191250353Y54768526D01*
X189745815Y56765115D01*
X191782335Y58299744D01*
X191782335Y58299744D01*
G37*
D10*
X200311695Y66342332D03*
D11*
G36*
X200577686Y68107941D02*
G01*
X202082224Y66111352D01*
X200045704Y64576723D01*
X198541166Y66573312D01*
X200577686Y68107941D01*
X200577686Y68107941D01*
G37*
D12*
X197476655Y72081909D03*
D11*
G36*
X197220788Y70261323D02*
G01*
X195656069Y72337776D01*
X197732522Y73902495D01*
X199297241Y71826042D01*
X197220788Y70261323D01*
X197220788Y70261323D01*
G37*
D12*
X186928421Y66887944D03*
D11*
G36*
X186672554Y65067358D02*
G01*
X185107835Y67143811D01*
X187184288Y68708530D01*
X188749007Y66632077D01*
X186672554Y65067358D01*
X186672554Y65067358D01*
G37*
D10*
X206690419Y67968621D03*
D11*
G36*
X206956410Y69734230D02*
G01*
X208460948Y67737641D01*
X206424428Y66203012D01*
X204919890Y68199601D01*
X206956410Y69734230D01*
X206956410Y69734230D01*
G37*
D10*
X215485770Y77776818D03*
D11*
G36*
X215751761Y79542427D02*
G01*
X217256299Y77545838D01*
X215219779Y76011209D01*
X213715241Y78007798D01*
X215751761Y79542427D01*
X215751761Y79542427D01*
G37*
D12*
X212650730Y83516395D03*
D11*
G36*
X212394863Y81695809D02*
G01*
X210830144Y83772262D01*
X212906597Y85336981D01*
X214471316Y83260528D01*
X212394863Y81695809D01*
X212394863Y81695809D01*
G37*
D12*
X202102496Y78322430D03*
D11*
G36*
X201846629Y76501844D02*
G01*
X200281910Y78578297D01*
X202358363Y80143016D01*
X203923082Y78066563D01*
X201846629Y76501844D01*
X201846629Y76501844D01*
G37*
D10*
X70433583Y74973937D03*
D11*
G36*
X72204112Y75204917D02*
G01*
X70699574Y73208328D01*
X68663054Y74742957D01*
X70167592Y76739546D01*
X72204112Y75204917D01*
X72204112Y75204917D01*
G37*
D10*
X82286154Y69222808D03*
D11*
G36*
X84056683Y69453788D02*
G01*
X82552145Y67457199D01*
X80515625Y68991828D01*
X82020163Y70988417D01*
X84056683Y69453788D01*
X84056683Y69453788D01*
G37*
D12*
X87021947Y73530066D03*
D11*
G36*
X85201361Y73274199D02*
G01*
X86766080Y75350652D01*
X88842533Y73785933D01*
X87277814Y71709480D01*
X85201361Y73274199D01*
X85201361Y73274199D01*
G37*
D12*
X79121700Y82238027D03*
D11*
G36*
X77301114Y81982160D02*
G01*
X78865833Y84058613D01*
X80942286Y82493894D01*
X79377567Y80417441D01*
X77301114Y81982160D01*
X77301114Y81982160D01*
G37*
D10*
X85607657Y63539451D03*
D11*
G36*
X87378186Y63770431D02*
G01*
X85873648Y61773842D01*
X83837128Y63308471D01*
X85341666Y65305060D01*
X87378186Y63770431D01*
X87378186Y63770431D01*
G37*
D10*
X97460228Y57788322D03*
D11*
G36*
X99230757Y58019302D02*
G01*
X97726219Y56022713D01*
X95689699Y57557342D01*
X97194237Y59553931D01*
X99230757Y58019302D01*
X99230757Y58019302D01*
G37*
D12*
X102196021Y62095580D03*
D11*
G36*
X100375435Y61839713D02*
G01*
X101940154Y63916166D01*
X104016607Y62351447D01*
X102451888Y60274994D01*
X100375435Y61839713D01*
X100375435Y61839713D01*
G37*
D12*
X94295774Y70803541D03*
D11*
G36*
X92475188Y70547674D02*
G01*
X94039907Y72624127D01*
X96116360Y71059408D01*
X94551641Y68982955D01*
X92475188Y70547674D01*
X92475188Y70547674D01*
G37*
D13*
X166930000Y64680000D03*
X169730000Y64680000D03*
X166930000Y72180000D03*
X169730000Y72180000D03*
D14*
X166930000Y65680000D03*
X169730000Y66180000D03*
X166930000Y66680000D03*
X169730000Y67180000D03*
X166930000Y67680000D03*
X169730000Y68180000D03*
X166930000Y68680000D03*
X169730000Y69180000D03*
X166930000Y69680000D03*
X169730000Y70180000D03*
X166930000Y70680000D03*
X169730000Y71180000D03*
M02*
