G04 #@! TF.GenerationSoftware,KiCad,Pcbnew,(5.1.4)-1*
G04 #@! TF.CreationDate,2025-05-28T14:12:59-04:00*
G04 #@! TF.ProjectId,ThumbsUp,5468756d-6273-4557-902e-6b696361645f,rev?*
G04 #@! TF.SameCoordinates,Original*
G04 #@! TF.FileFunction,Other,ECO2*
%FSLAX46Y46*%
G04 Gerber Fmt 4.6, Leading zero omitted, Abs format (unit mm)*
G04 Created by KiCad (PCBNEW (5.1.4)-1) date 2025-05-28 14:12:59*
%MOMM*%
%LPD*%
G04 APERTURE LIST*
%ADD10C,0.150000*%
G04 APERTURE END LIST*
D10*
X174008598Y53583573D02*
X178161503Y56713011D01*
X178161503Y56713011D02*
X176235695Y59268645D01*
X176235695Y59268645D02*
X172082790Y56139207D01*
X174008598Y53583573D02*
X172082790Y56139207D01*
X176592616Y43009413D02*
X187613786Y51314461D01*
X179308738Y62335631D02*
X168287568Y54030583D01*
X179308738Y62335631D02*
X187613786Y51314461D01*
X176592616Y43009413D02*
X168287568Y54030583D01*
X108293755Y56686720D02*
X112446660Y53557282D01*
X112446660Y53557282D02*
X114372468Y56112916D01*
X114372468Y56112916D02*
X110219563Y59242354D01*
X108293755Y56686720D02*
X110219563Y59242354D01*
X98841472Y51288170D02*
X109862642Y42983122D01*
X118167690Y54004292D02*
X107146520Y62309340D01*
X118167690Y54004292D02*
X109862642Y42983122D01*
X98841472Y51288170D02*
X107146520Y62309340D01*
X189182673Y65018058D02*
X193335578Y68147496D01*
X193335578Y68147496D02*
X191409770Y70703130D01*
X191409770Y70703130D02*
X187256865Y67573692D01*
X189182673Y65018058D02*
X187256865Y67573692D01*
X191766691Y54443898D02*
X202787861Y62748946D01*
X194482813Y73770116D02*
X183461643Y65465068D01*
X194482813Y73770116D02*
X202787861Y62748946D01*
X191766691Y54443898D02*
X183461643Y65465068D01*
X204356748Y76452544D02*
X208509653Y79581982D01*
X208509653Y79581982D02*
X206583845Y82137616D01*
X206583845Y82137616D02*
X202430940Y79008178D01*
X204356748Y76452544D02*
X202430940Y79008178D01*
X206940766Y65878384D02*
X217961936Y74183432D01*
X209656888Y85204602D02*
X198635718Y76899554D01*
X209656888Y85204602D02*
X217961936Y74183432D01*
X206940766Y65878384D02*
X198635718Y76899554D01*
X77945606Y79555691D02*
X82098511Y76426253D01*
X82098511Y76426253D02*
X84024319Y78981887D01*
X84024319Y78981887D02*
X79871414Y82111325D01*
X77945606Y79555691D02*
X79871414Y82111325D01*
X68493323Y74157141D02*
X79514493Y65852093D01*
X87819541Y76873263D02*
X76798371Y85178311D01*
X87819541Y76873263D02*
X79514493Y65852093D01*
X68493323Y74157141D02*
X76798371Y85178311D01*
X93119680Y68121205D02*
X97272585Y64991767D01*
X97272585Y64991767D02*
X99198393Y67547401D01*
X99198393Y67547401D02*
X95045488Y70676839D01*
X93119680Y68121205D02*
X95045488Y70676839D01*
X83667397Y62722655D02*
X94688567Y54417607D01*
X102993615Y65438777D02*
X91972445Y73743825D01*
X102993615Y65438777D02*
X94688567Y54417607D01*
X83667397Y62722655D02*
X91972445Y73743825D01*
M02*
