M48
; DRILL file {KiCad (5.1.4)-1} date 5/28/2025 2:13:03 PM
; FORMAT={-:-/ absolute / metric / decimal}
; #@! TF.CreationDate,2025-05-28T14:13:03-04:00
; #@! TF.GenerationSoftware,Kicad,Pcbnew,(5.1.4)-1
; #@! TF.FileFunction,NonPlated,1,2,NPTH
FMAT,2
METRIC
T1C1.702
T2C1.750
T3C3.000
T4C3.988
T5C4.950
%
G90
G05
T1
X104.112Y55.956
X112.897Y49.336
X203.906Y72.232
X212.691Y78.851
X188.732Y60.797
X197.517Y67.417
X88.938Y67.391
X97.723Y60.771
X73.764Y78.825
X82.549Y72.205
X173.558Y49.363
X182.343Y55.983
T2
X104.448Y55.703
X112.562Y49.589
X204.242Y72.484
X212.356Y78.599
X189.068Y61.05
X197.182Y67.164
X89.273Y67.138
X97.388Y61.023
X74.099Y78.572
X82.213Y72.458
X173.894Y49.615
X182.008Y55.73
T3
X103.419Y50.118
X110.019Y48.325
X112.085Y57.398
X114.755Y52.632
X204.718Y80.293
X209.328Y69.956
X210.035Y81.545
X212.87Y75.806
X189.544Y68.859
X194.153Y58.521
X194.861Y70.111
X197.696Y64.371
X88.245Y61.552
X94.845Y59.759
X96.911Y68.833
X99.58Y64.067
X73.071Y72.987
X79.671Y71.194
X81.737Y80.267
X84.406Y75.501
X174.37Y57.424
X178.979Y47.087
X179.687Y58.676
X182.522Y52.937
T4
X108.505Y52.646
X208.299Y75.541
X193.125Y64.107
X93.331Y64.081
X78.156Y75.515
X177.951Y52.673
T5
X108.505Y52.646
X208.299Y75.541
X193.125Y64.107
X93.331Y64.081
X78.156Y75.515
X177.951Y52.673
T0
M30
