M48
; DRILL file {KiCad (5.1.4)-1} date 5/28/2025 2:13:03 PM
; FORMAT={-:-/ absolute / metric / decimal}
; #@! TF.CreationDate,2025-05-28T14:13:03-04:00
; #@! TF.GenerationSoftware,Kicad,Pcbnew,(5.1.4)-1
; #@! TF.FileFunction,Plated,1,2,PTH
FMAT,2
METRIC
T1C0.400
T2C1.000
%
G90
G05
T1
X173.38Y52.172
X184.836Y58.242
X215.798Y73.558
T2
X143.13Y115.53
X143.13Y112.99
X143.13Y110.45
X143.13Y107.91
X78.544Y64.616
X80.573Y63.087
X82.601Y61.559
X84.63Y60.03
X168.13Y47.03
X169.659Y45.001
X171.187Y42.973
X172.716Y40.944
X113.544Y40.944
X115.073Y42.973
X116.601Y45.001
X118.13Y47.03
X203.494Y61.294
X205.523Y62.823
X207.551Y64.351
X209.58Y65.88
T0
M30
