G04 #@! TF.GenerationSoftware,KiCad,Pcbnew,(5.1.4)-1*
G04 #@! TF.CreationDate,2025-05-28T14:12:59-04:00*
G04 #@! TF.ProjectId,ThumbsUp,5468756d-6273-4557-902e-6b696361645f,rev?*
G04 #@! TF.SameCoordinates,Original*
G04 #@! TF.FileFunction,Drawing*
%FSLAX46Y46*%
G04 Gerber Fmt 4.6, Leading zero omitted, Abs format (unit mm)*
G04 Created by KiCad (PCBNEW (5.1.4)-1) date 2025-05-28 14:12:59*
%MOMM*%
%LPD*%
G04 APERTURE LIST*
%ADD10C,0.150000*%
%ADD11C,0.100000*%
%ADD12C,0.200000*%
G04 APERTURE END LIST*
D10*
X186156560Y50091149D02*
X187753831Y51294779D01*
X187753831Y51294779D02*
X186550201Y52892050D01*
X175369304Y44466639D02*
X176572934Y42869368D01*
X176572934Y42869368D02*
X178170205Y44072998D01*
X176572934Y42869368D02*
X175369304Y44466639D01*
X178170205Y44072998D02*
X176572934Y42869368D01*
X187753831Y51294779D02*
X186550201Y52892050D01*
X186156560Y50091149D02*
X187753831Y51294779D01*
X108285053Y44046707D02*
X109882324Y42843077D01*
X109882324Y42843077D02*
X111085954Y44440348D01*
X99905057Y52865759D02*
X98701427Y51268488D01*
X98701427Y51268488D02*
X100298698Y50064858D01*
X98701427Y51268488D02*
X99905057Y52865759D01*
X100298698Y50064858D02*
X98701427Y51268488D01*
X109882324Y42843077D02*
X111085954Y44440348D01*
X108285053Y44046707D02*
X109882324Y42843077D01*
X201330635Y61525634D02*
X202927906Y62729264D01*
X202927906Y62729264D02*
X201724276Y64326535D01*
X190543379Y55901124D02*
X191747009Y54303853D01*
X191747009Y54303853D02*
X193344280Y55507483D01*
X191747009Y54303853D02*
X190543379Y55901124D01*
X193344280Y55507483D02*
X191747009Y54303853D01*
X202927906Y62729264D02*
X201724276Y64326535D01*
X201330635Y61525634D02*
X202927906Y62729264D01*
X216504710Y72960120D02*
X218101981Y74163750D01*
X218101981Y74163750D02*
X216898351Y75761021D01*
X205717454Y67335610D02*
X206921084Y65738339D01*
X206921084Y65738339D02*
X208518355Y66941969D01*
X206921084Y65738339D02*
X205717454Y67335610D01*
X208518355Y66941969D02*
X206921084Y65738339D01*
X218101981Y74163750D02*
X216898351Y75761021D01*
X216504710Y72960120D02*
X218101981Y74163750D01*
X77936904Y66915678D02*
X79534175Y65712048D01*
X79534175Y65712048D02*
X80737805Y67309319D01*
X69556908Y75734730D02*
X68353278Y74137459D01*
X68353278Y74137459D02*
X69950549Y72933829D01*
X68353278Y74137459D02*
X69556908Y75734730D01*
X69950549Y72933829D02*
X68353278Y74137459D01*
X79534175Y65712048D02*
X80737805Y67309319D01*
X77936904Y66915678D02*
X79534175Y65712048D01*
X93110978Y55481192D02*
X94708249Y54277562D01*
X94708249Y54277562D02*
X95911879Y55874833D01*
X84730982Y64300244D02*
X83527352Y62702973D01*
X83527352Y62702973D02*
X85124623Y61499343D01*
X83527352Y62702973D02*
X84730982Y64300244D01*
X85124623Y61499343D02*
X83527352Y62702973D01*
X94708249Y54277562D02*
X95911879Y55874833D01*
X93110978Y55481192D02*
X94708249Y54277562D01*
D11*
X172080000Y75280000D02*
X165180000Y75280000D01*
X172080000Y61580000D02*
X172080000Y75280000D01*
X165180000Y61580000D02*
X172080000Y61580000D01*
X165180000Y75280000D02*
X165180000Y61580000D01*
D12*
X169480000Y74280000D02*
X166480000Y74280000D01*
X169480000Y62580000D02*
X169480000Y74280000D01*
X166480000Y62580000D02*
X169480000Y62580000D01*
X166480000Y74280000D02*
X166480000Y62580000D01*
D10*
X179068842Y48973146D02*
X178516051Y49152844D01*
X178612479Y48629252D02*
X178010664Y49427887D01*
X178314906Y49657150D01*
X178419624Y49676436D01*
X178486312Y49667063D01*
X178581658Y49619660D01*
X178667632Y49505570D01*
X178686917Y49400851D01*
X178677545Y49334163D01*
X178630142Y49238817D01*
X178325900Y49009554D01*
X179095878Y49649400D02*
X179362090Y49850005D01*
X179791417Y49517645D02*
X179411114Y49231067D01*
X178809299Y50029702D01*
X179189602Y50316281D01*
X180084665Y50394504D02*
X179818453Y50193899D01*
X180133689Y49775566D02*
X179531874Y50574202D01*
X179912177Y50860780D01*
X180330510Y51176017D02*
X180473799Y50985865D01*
X180226332Y50918636D02*
X180473799Y50985865D01*
X180606635Y51205215D01*
X180474340Y50747771D02*
X180473799Y50985865D01*
X180702521Y50919718D01*
X180938994Y51634542D02*
X181082283Y51444391D01*
X180834816Y51377162D02*
X181082283Y51444391D01*
X181215119Y51663741D01*
X181082824Y51206296D02*
X181082283Y51444391D01*
X181311005Y51378243D01*
X105256720Y50551695D02*
X105277087Y51132603D01*
X104800357Y50895589D02*
X105402172Y51694225D01*
X105706414Y51464962D01*
X105753817Y51369616D01*
X105763190Y51302928D01*
X105743904Y51198209D01*
X105657931Y51084119D01*
X105562585Y51036716D01*
X105495896Y51027344D01*
X105391178Y51046629D01*
X105086936Y51275892D01*
X105914229Y50712107D02*
X106180441Y50511502D01*
X105979295Y50007196D02*
X105598993Y50293774D01*
X106200808Y51092410D01*
X106581111Y50805831D01*
X106903016Y49967003D02*
X106636804Y50167608D01*
X106321568Y49749275D02*
X106923383Y50547911D01*
X107303685Y50261332D01*
X107722018Y49946095D02*
X107578729Y49755944D01*
X107445893Y49975294D02*
X107578729Y49755944D01*
X107826196Y49688715D01*
X107350007Y49689797D02*
X107578729Y49755944D01*
X107578188Y49517850D01*
X108330503Y49487570D02*
X108187213Y49297418D01*
X108054378Y49516768D02*
X108187213Y49297418D01*
X108434680Y49230190D01*
X107958491Y49231271D02*
X108187213Y49297418D01*
X108186673Y49059324D01*
X194242917Y60407631D02*
X193690126Y60587329D01*
X193786554Y60063737D02*
X193184739Y60862372D01*
X193488981Y61091635D01*
X193593699Y61110921D01*
X193660387Y61101548D01*
X193755733Y61054145D01*
X193841707Y60940055D01*
X193860992Y60835336D01*
X193851620Y60768648D01*
X193804217Y60673302D01*
X193499975Y60444039D01*
X194269953Y61083885D02*
X194536165Y61284490D01*
X194965492Y60952130D02*
X194585189Y60665552D01*
X193983374Y61464187D01*
X194363677Y61750766D01*
X195258740Y61828989D02*
X194992528Y61628384D01*
X195307764Y61210051D02*
X194705949Y62008687D01*
X195086252Y62295265D01*
X195504585Y62610502D02*
X195647874Y62420350D01*
X195400407Y62353121D02*
X195647874Y62420350D01*
X195780710Y62639700D01*
X195648415Y62182256D02*
X195647874Y62420350D01*
X195876596Y62354203D01*
X196113069Y63069027D02*
X196256358Y62878876D01*
X196008891Y62811647D02*
X196256358Y62878876D01*
X196389194Y63098226D01*
X196256899Y62640781D02*
X196256358Y62878876D01*
X196485080Y62812728D01*
X209416992Y71842117D02*
X208864201Y72021815D01*
X208960629Y71498223D02*
X208358814Y72296858D01*
X208663056Y72526121D01*
X208767774Y72545407D01*
X208834462Y72536034D01*
X208929808Y72488631D01*
X209015782Y72374541D01*
X209035067Y72269822D01*
X209025695Y72203134D01*
X208978292Y72107788D01*
X208674050Y71878525D01*
X209444028Y72518371D02*
X209710240Y72718976D01*
X210139567Y72386616D02*
X209759264Y72100038D01*
X209157449Y72898673D01*
X209537752Y73185252D01*
X210432815Y73263475D02*
X210166603Y73062870D01*
X210481839Y72644537D02*
X209880024Y73443173D01*
X210260327Y73729751D01*
X210678660Y74044988D02*
X210821949Y73854836D01*
X210574482Y73787607D02*
X210821949Y73854836D01*
X210954785Y74074186D01*
X210822490Y73616742D02*
X210821949Y73854836D01*
X211050671Y73788689D01*
X211287144Y74503513D02*
X211430433Y74313362D01*
X211182966Y74246133D02*
X211430433Y74313362D01*
X211563269Y74532712D01*
X211430974Y74075267D02*
X211430433Y74313362D01*
X211659155Y74247214D01*
X74908571Y73420666D02*
X74928938Y74001574D01*
X74452208Y73764560D02*
X75054023Y74563196D01*
X75358265Y74333933D01*
X75405668Y74238587D01*
X75415041Y74171899D01*
X75395755Y74067180D01*
X75309782Y73953090D01*
X75214436Y73905687D01*
X75147747Y73896315D01*
X75043029Y73915600D01*
X74738787Y74144863D01*
X75566080Y73581078D02*
X75832292Y73380473D01*
X75631146Y72876167D02*
X75250844Y73162745D01*
X75852659Y73961381D01*
X76232962Y73674802D01*
X76554867Y72835974D02*
X76288655Y73036579D01*
X75973419Y72618246D02*
X76575234Y73416882D01*
X76955536Y73130303D01*
X77373869Y72815066D02*
X77230580Y72624915D01*
X77097744Y72844265D02*
X77230580Y72624915D01*
X77478047Y72557686D01*
X77001858Y72558768D02*
X77230580Y72624915D01*
X77230039Y72386821D01*
X77982354Y72356541D02*
X77839064Y72166389D01*
X77706229Y72385739D02*
X77839064Y72166389D01*
X78086531Y72099161D01*
X77610342Y72100242D02*
X77839064Y72166389D01*
X77838524Y71928295D01*
X90082645Y61986180D02*
X90103012Y62567088D01*
X89626282Y62330074D02*
X90228097Y63128710D01*
X90532339Y62899447D01*
X90579742Y62804101D01*
X90589115Y62737413D01*
X90569829Y62632694D01*
X90483856Y62518604D01*
X90388510Y62471201D01*
X90321821Y62461829D01*
X90217103Y62481114D01*
X89912861Y62710377D01*
X90740154Y62146592D02*
X91006366Y61945987D01*
X90805220Y61441681D02*
X90424918Y61728259D01*
X91026733Y62526895D01*
X91407036Y62240316D01*
X91728941Y61401488D02*
X91462729Y61602093D01*
X91147493Y61183760D02*
X91749308Y61982396D01*
X92129610Y61695817D01*
X92547943Y61380580D02*
X92404654Y61190429D01*
X92271818Y61409779D02*
X92404654Y61190429D01*
X92652121Y61123200D01*
X92175932Y61124282D02*
X92404654Y61190429D01*
X92404113Y60952335D01*
X93156428Y60922055D02*
X93013138Y60731903D01*
X92880303Y60951253D02*
X93013138Y60731903D01*
X93260605Y60664675D01*
X92784416Y60665756D02*
X93013138Y60731903D01*
X93012598Y60493809D01*
M02*
