G04 #@! TF.GenerationSoftware,KiCad,Pcbnew,(5.1.4)-1*
G04 #@! TF.CreationDate,2025-05-28T14:12:59-04:00*
G04 #@! TF.ProjectId,ThumbsUp,5468756d-6273-4557-902e-6b696361645f,rev?*
G04 #@! TF.SameCoordinates,Original*
G04 #@! TF.FileFunction,Copper,L1,Top*
G04 #@! TF.FilePolarity,Positive*
%FSLAX46Y46*%
G04 Gerber Fmt 4.6, Leading zero omitted, Abs format (unit mm)*
G04 Created by KiCad (PCBNEW (5.1.4)-1) date 2025-05-28 14:12:59*
%MOMM*%
%LPD*%
G04 APERTURE LIST*
%ADD10C,1.700000*%
%ADD11C,1.700000*%
%ADD12C,0.100000*%
%ADD13O,1.700000X1.700000*%
%ADD14R,1.700000X1.700000*%
%ADD15C,0.800000*%
%ADD16C,0.254000*%
G04 APERTURE END LIST*
D10*
X78544397Y64615830D03*
D11*
X78544397Y64615830D02*
X78544397Y64615830D01*
D10*
X80572932Y63087220D03*
D11*
X80572932Y63087220D02*
X80572932Y63087220D01*
D10*
X82601466Y61558610D03*
D11*
X82601466Y61558610D02*
X82601466Y61558610D01*
D10*
X84630000Y60030000D03*
D12*
G36*
X84797297Y58839617D02*
G01*
X83439617Y59862703D01*
X84462703Y61220383D01*
X85820383Y60197297D01*
X84797297Y58839617D01*
X84797297Y58839617D01*
G37*
D10*
X113544170Y40944397D03*
D11*
X113544170Y40944397D02*
X113544170Y40944397D01*
D10*
X115072780Y42972932D03*
D11*
X115072780Y42972932D02*
X115072780Y42972932D01*
D10*
X116601390Y45001466D03*
D11*
X116601390Y45001466D02*
X116601390Y45001466D01*
D10*
X118130000Y47030000D03*
D12*
G36*
X119320383Y47197297D02*
G01*
X118297297Y45839617D01*
X116939617Y46862703D01*
X117962703Y48220383D01*
X119320383Y47197297D01*
X119320383Y47197297D01*
G37*
D10*
X203494397Y61294170D03*
D11*
X203494397Y61294170D02*
X203494397Y61294170D01*
D10*
X205522932Y62822780D03*
D11*
X205522932Y62822780D02*
X205522932Y62822780D01*
D10*
X207551466Y64351390D03*
D11*
X207551466Y64351390D02*
X207551466Y64351390D01*
D10*
X209580000Y65880000D03*
D12*
G36*
X210770383Y65712703D02*
G01*
X209412703Y64689617D01*
X208389617Y66047297D01*
X209747297Y67070383D01*
X210770383Y65712703D01*
X210770383Y65712703D01*
G37*
D13*
X143130000Y107910000D03*
X143130000Y110450000D03*
X143130000Y112990000D03*
D14*
X143130000Y115530000D03*
D10*
X172715830Y40944397D03*
D11*
X172715830Y40944397D02*
X172715830Y40944397D01*
D10*
X171187220Y42972932D03*
D11*
X171187220Y42972932D02*
X171187220Y42972932D01*
D10*
X169658610Y45001466D03*
D11*
X169658610Y45001466D02*
X169658610Y45001466D01*
D10*
X168130000Y47030000D03*
D12*
G36*
X168297297Y48220383D02*
G01*
X169320383Y46862703D01*
X167962703Y45839617D01*
X166939617Y47197297D01*
X168297297Y48220383D01*
X168297297Y48220383D01*
G37*
D15*
X215798400Y73558400D03*
X184835800Y58242200D03*
X173380400Y52171600D03*
D16*
X215646000Y73406000D02*
X215798400Y73558400D01*
X210185000Y72898000D02*
X215646000Y73406000D01*
X206908400Y71145400D02*
X210185000Y72898000D01*
X206197200Y69672200D02*
X206908400Y71145400D01*
X207551466Y64351390D02*
X205994000Y68224400D01*
X205994000Y68224400D02*
X206197200Y69672200D01*
X159918400Y42011600D02*
X159639000Y42011600D01*
X181838600Y61239400D02*
X184835800Y58242200D01*
X169439001Y61239400D02*
X181838600Y61239400D01*
X167280001Y59080400D02*
X169439001Y61239400D01*
X159639000Y42011600D02*
X167280001Y49652601D01*
X167280001Y49652601D02*
X167280001Y59080400D01*
X115443000Y46939200D02*
X115443000Y46126400D01*
X117094000Y48590200D02*
X115443000Y46939200D01*
X117094000Y48615600D02*
X117094000Y48590200D01*
X117983000Y49504600D02*
X117094000Y48615600D01*
X150368000Y42011600D02*
X146278600Y46101000D01*
X115476456Y46126400D02*
X116601390Y45001466D01*
X159639000Y42011600D02*
X150368000Y42011600D01*
X146278600Y46101000D02*
X140690600Y46101000D01*
X140690600Y46101000D02*
X137261600Y42672000D01*
X137261600Y42672000D02*
X124815600Y42672000D01*
X115443000Y46126400D02*
X115476456Y46126400D01*
X124815600Y42672000D02*
X117983000Y49504600D01*
X137312400Y42011600D02*
X123148400Y42011600D01*
X171087515Y52171600D02*
X160473504Y41557589D01*
X173380400Y52171600D02*
X171087515Y52171600D01*
X160473504Y41557589D02*
X150110811Y41557589D01*
X123148400Y42011600D02*
X118130000Y47030000D01*
X150110811Y41557589D02*
X146021411Y45646989D01*
X146021411Y45646989D02*
X140947789Y45646989D01*
X140947789Y45646989D02*
X137312400Y42011600D01*
M02*
