G04 #@! TF.GenerationSoftware,KiCad,Pcbnew,(5.1.4)-1*
G04 #@! TF.CreationDate,2025-05-28T14:12:59-04:00*
G04 #@! TF.ProjectId,ThumbsUp,5468756d-6273-4557-902e-6b696361645f,rev?*
G04 #@! TF.SameCoordinates,Original*
G04 #@! TF.FileFunction,Other,User*
%FSLAX46Y46*%
G04 Gerber Fmt 4.6, Leading zero omitted, Abs format (unit mm)*
G04 Created by KiCad (PCBNEW (5.1.4)-1) date 2025-05-28 14:12:59*
%MOMM*%
%LPD*%
G04 APERTURE LIST*
%ADD10C,0.127000*%
%ADD11C,0.150000*%
%ADD12C,0.120000*%
%ADD13C,0.050000*%
G04 APERTURE END LIST*
D10*
X183502897Y56105138D02*
X180228491Y53637697D01*
X185849975Y52990460D02*
X183502897Y56105138D01*
X177930614Y43892454D02*
X175282628Y47406450D01*
X179834850Y50836796D02*
G75*
G03X180228491Y53637697I-1203630J1597271D01*
G01*
X177930614Y43892454D02*
X185357924Y49489334D01*
D11*
X174563696Y45349612D02*
X176592231Y46878222D01*
X186937755Y54674134D02*
X185409145Y56702668D01*
X176592231Y46878222D02*
X178120841Y44849688D01*
X184046088Y52936903D02*
G75*
G03X184046088Y52936903I-1524000J0D01*
G01*
X185409145Y56702668D02*
X183380611Y55174058D01*
X176092307Y43321078D02*
X174563696Y45349612D01*
D10*
X185357925Y49489334D02*
G75*
G03X185849975Y52990460I-1504538J1996588D01*
G01*
D11*
X178120841Y44849688D02*
X176092307Y43321078D01*
D10*
X179834850Y50836796D02*
X175282628Y47406450D01*
D11*
X180503363Y47086843D02*
G75*
G03X180503363Y47086843I-1524000J0D01*
G01*
X184909221Y53145524D02*
X186937755Y54674134D01*
X183380611Y55174058D02*
X184909221Y53145524D01*
D12*
X186648611Y53592275D02*
X188153148Y51595686D01*
X188153148Y51595686D02*
X186156560Y50091149D01*
D10*
X113334623Y48255252D02*
X110060217Y50722694D01*
X110987544Y45140574D02*
X113334623Y48255252D01*
X100059108Y50245402D02*
X102707094Y53759398D01*
X107259316Y50329053D02*
G75*
G03X110060217Y50722694I1203630J1597271D01*
G01*
X100059108Y50245402D02*
X107486418Y44648522D01*
D11*
X100531770Y53883538D02*
X102560304Y52354928D01*
X112905829Y44559016D02*
X114434439Y46587550D01*
X102560304Y52354928D02*
X101031694Y50326394D01*
X111542772Y48324782D02*
G75*
G03X111542772Y48324782I-1524000J0D01*
G01*
X114434439Y46587550D02*
X112405905Y48116161D01*
X99003160Y51855004D02*
X100531770Y53883538D01*
D10*
X107486418Y44648522D02*
G75*
G03X110987544Y45140574I1504537J1996589D01*
G01*
D11*
X101031694Y50326394D02*
X99003160Y51855004D01*
D10*
X107259316Y50329053D02*
X102707094Y53759398D01*
D11*
X104942826Y50117773D02*
G75*
G03X104942826Y50117773I-1524000J0D01*
G01*
X110877294Y46087626D02*
X112905829Y44559016D01*
X112405905Y48116161D02*
X110877294Y46087626D01*
D12*
X111786180Y44538759D02*
X110281642Y42542170D01*
X110281642Y42542170D02*
X108285053Y44046707D01*
D10*
X198676972Y67539623D02*
X195402566Y65072182D01*
X201024050Y64424945D02*
X198676972Y67539623D01*
X193104689Y55326939D02*
X190456703Y58840935D01*
X195008925Y62271281D02*
G75*
G03X195402566Y65072182I-1203630J1597271D01*
G01*
X193104689Y55326939D02*
X200531999Y60923819D01*
D11*
X189737771Y56784097D02*
X191766306Y58312707D01*
X202111830Y66108619D02*
X200583220Y68137153D01*
X191766306Y58312707D02*
X193294916Y56284173D01*
X199220163Y64371388D02*
G75*
G03X199220163Y64371388I-1524000J0D01*
G01*
X200583220Y68137153D02*
X198554686Y66608543D01*
X191266382Y54755563D02*
X189737771Y56784097D01*
D10*
X200532000Y60923819D02*
G75*
G03X201024050Y64424945I-1504538J1996588D01*
G01*
D11*
X193294916Y56284173D02*
X191266382Y54755563D01*
D10*
X195008925Y62271281D02*
X190456703Y58840935D01*
D11*
X195677438Y58521328D02*
G75*
G03X195677438Y58521328I-1524000J0D01*
G01*
X200083296Y64580009D02*
X202111830Y66108619D01*
X198554686Y66608543D02*
X200083296Y64580009D01*
D12*
X201822686Y65026760D02*
X203327223Y63030171D01*
X203327223Y63030171D02*
X201330635Y61525634D01*
D10*
X213851047Y78974109D02*
X210576641Y76506668D01*
X216198125Y75859431D02*
X213851047Y78974109D01*
X208278764Y66761425D02*
X205630778Y70275421D01*
X210183000Y73705767D02*
G75*
G03X210576641Y76506668I-1203630J1597271D01*
G01*
X208278764Y66761425D02*
X215706074Y72358305D01*
D11*
X204911846Y68218583D02*
X206940381Y69747193D01*
X217285905Y77543105D02*
X215757295Y79571639D01*
X206940381Y69747193D02*
X208468991Y67718659D01*
X214394238Y75805874D02*
G75*
G03X214394238Y75805874I-1524000J0D01*
G01*
X215757295Y79571639D02*
X213728761Y78043029D01*
X206440457Y66190049D02*
X204911846Y68218583D01*
D10*
X215706075Y72358305D02*
G75*
G03X216198125Y75859431I-1504538J1996588D01*
G01*
D11*
X208468991Y67718659D02*
X206440457Y66190049D01*
D10*
X210183000Y73705767D02*
X205630778Y70275421D01*
D11*
X210851513Y69955814D02*
G75*
G03X210851513Y69955814I-1524000J0D01*
G01*
X215257371Y76014495D02*
X217285905Y77543105D01*
X213728761Y78043029D02*
X215257371Y76014495D01*
D12*
X216996761Y76461246D02*
X218501298Y74464657D01*
X218501298Y74464657D02*
X216504710Y72960120D01*
D10*
X82986474Y71124223D02*
X79712068Y73591665D01*
X80639395Y68009545D02*
X82986474Y71124223D01*
X69710959Y73114373D02*
X72358945Y76628369D01*
X76911167Y73198024D02*
G75*
G03X79712068Y73591665I1203630J1597271D01*
G01*
X69710959Y73114373D02*
X77138269Y67517493D01*
D11*
X70183621Y76752509D02*
X72212155Y75223899D01*
X82557680Y67427987D02*
X84086290Y69456521D01*
X72212155Y75223899D02*
X70683545Y73195365D01*
X81194623Y71193753D02*
G75*
G03X81194623Y71193753I-1524000J0D01*
G01*
X84086290Y69456521D02*
X82057756Y70985132D01*
X68655011Y74723975D02*
X70183621Y76752509D01*
D10*
X77138269Y67517493D02*
G75*
G03X80639395Y68009545I1504537J1996589D01*
G01*
D11*
X70683545Y73195365D02*
X68655011Y74723975D01*
D10*
X76911167Y73198024D02*
X72358945Y76628369D01*
D11*
X74594677Y72986744D02*
G75*
G03X74594677Y72986744I-1524000J0D01*
G01*
X80529145Y68956597D02*
X82557680Y67427987D01*
X82057756Y70985132D02*
X80529145Y68956597D01*
D12*
X81438031Y67407730D02*
X79933493Y65411141D01*
X79933493Y65411141D02*
X77936904Y66915678D01*
D10*
X98160548Y59689737D02*
X94886142Y62157179D01*
X95813469Y56575059D02*
X98160548Y59689737D01*
X84885033Y61679887D02*
X87533019Y65193883D01*
X92085241Y61763538D02*
G75*
G03X94886142Y62157179I1203630J1597271D01*
G01*
X84885033Y61679887D02*
X92312343Y56083007D01*
D11*
X85357695Y65318023D02*
X87386229Y63789413D01*
X97731754Y55993501D02*
X99260364Y58022035D01*
X87386229Y63789413D02*
X85857619Y61760879D01*
X96368697Y59759267D02*
G75*
G03X96368697Y59759267I-1524000J0D01*
G01*
X99260364Y58022035D02*
X97231830Y59550646D01*
X83829085Y63289489D02*
X85357695Y65318023D01*
D10*
X92312343Y56083007D02*
G75*
G03X95813469Y56575059I1504537J1996589D01*
G01*
D11*
X85857619Y61760879D02*
X83829085Y63289489D01*
D10*
X92085241Y61763538D02*
X87533019Y65193883D01*
D11*
X89768751Y61552258D02*
G75*
G03X89768751Y61552258I-1524000J0D01*
G01*
X95703219Y57522111D02*
X97731754Y55993501D01*
X97231830Y59550646D02*
X95703219Y57522111D01*
D12*
X96612105Y55973244D02*
X95107567Y53976655D01*
X95107567Y53976655D02*
X93110978Y55481192D01*
D13*
X87150811Y60384277D02*
X84984277Y57509189D01*
X78206093Y67124605D02*
X87150811Y60384277D01*
X76039559Y64249517D02*
X78206093Y67124605D01*
X84984277Y57509189D02*
X76039559Y64249517D01*
X117775723Y49550811D02*
X120650811Y47384277D01*
X111035395Y40606093D02*
X117775723Y49550811D01*
X113910483Y38439559D02*
X111035395Y40606093D01*
X120650811Y47384277D02*
X113910483Y38439559D01*
X209934277Y68400811D02*
X212100811Y65525723D01*
X200989559Y61660483D02*
X209934277Y68400811D01*
X203156093Y58785395D02*
X200989559Y61660483D01*
X212100811Y65525723D02*
X203156093Y58785395D01*
X141330000Y117330000D02*
X144930000Y117330000D01*
X141330000Y106130000D02*
X141330000Y117330000D01*
X144930000Y106130000D02*
X141330000Y106130000D01*
X144930000Y117330000D02*
X144930000Y106130000D01*
X165609189Y47384277D02*
X168484277Y49550811D01*
X172349517Y38439559D02*
X165609189Y47384277D01*
X175224605Y40606093D02*
X172349517Y38439559D01*
X168484277Y49550811D02*
X175224605Y40606093D01*
M02*
