%FSLAX45Y45*%
G04 Gerber Fmt 4.5, Leading zero omitted, Abs format (unit mm)*
G04 Created by KiCad (PCBNEW (5.1.4)-1) date 2025-05-28 14:13:05*
%MOMM*%
%LPD*%
G04 APERTURE LIST*
%ADD10C,0.050000*%
%ADD11C,0.200000*%
%ADD12C,0.300000*%
G04 APERTURE END LIST*
D10*
X9170800Y7576820D02*
G75*
G03X9170800Y7576820I-160000J0D01*
G01*
X19769920Y7576820D02*
G75*
G03X19769920Y7576820I-160000J0D01*
G01*
X14470360Y4281500D02*
G75*
G03X14470360Y4281500I-160000J0D01*
G01*
X17924540Y6553200D02*
G75*
G03X17924540Y6553200I-150000J0D01*
G01*
X11006340Y6494780D02*
G75*
G03X11006340Y6494780I-150000J0D01*
G01*
X22132327Y7373000D02*
X22122327Y7288000D01*
X22132327Y7373000D02*
X21202327Y8608000D01*
X22040928Y7226592D02*
X22122327Y7288000D01*
X21202327Y8608000D02*
X20975813Y8608196D01*
X6493000Y7373000D02*
X6503000Y7288000D01*
X6493000Y7373000D02*
X7423000Y8608000D01*
X14212327Y12583000D02*
X14413000Y12583000D01*
X13522327Y12583000D02*
X14212327Y12583000D01*
X13292327Y12453000D02*
X13522327Y12583000D01*
X13262327Y12383000D02*
X13292327Y12453000D01*
X13262327Y12383000D02*
X11227224Y7346058D01*
X15363000Y12383000D02*
X15333000Y12453000D01*
X15103000Y12583000D02*
X14413000Y12583000D01*
X15333000Y12453000D02*
X15103000Y12583000D01*
X11009145Y3896574D02*
X17616182Y3896574D01*
X11227224Y7346058D02*
X11005920Y7252120D01*
X7649514Y8608196D02*
X11005920Y7252120D01*
X7423000Y8608000D02*
X7649514Y8608196D01*
X6584399Y7226592D02*
X6503000Y7288000D01*
X6584399Y7226592D02*
X11009145Y3896574D01*
X17398103Y7346058D02*
X17619407Y7252120D01*
X15363000Y12383000D02*
X17398103Y7346058D01*
X20975813Y8608196D02*
X17619407Y7252120D01*
X22040928Y7226592D02*
X17616182Y3896574D01*
D11*
X10326119Y5680711D02*
X10496299Y5510531D01*
X10496299Y5680711D02*
X10326119Y5510531D01*
X11204618Y5018715D02*
X11374798Y4848535D01*
X11374798Y5018715D02*
X11204618Y4848535D01*
X20305543Y7308241D02*
X20475723Y7138061D01*
X20475723Y7308241D02*
X20305543Y7138061D01*
X21184042Y7970238D02*
X21354222Y7800058D01*
X21354222Y7970238D02*
X21184042Y7800058D01*
X18788136Y6164792D02*
X18958316Y5994612D01*
X18958316Y6164792D02*
X18788136Y5994612D01*
X19666635Y6826789D02*
X19836815Y6656609D01*
X19836815Y6826789D02*
X19666635Y6656609D01*
X8808711Y6824160D02*
X8978891Y6653980D01*
X8978891Y6824160D02*
X8808711Y6653980D01*
X9687210Y6162163D02*
X9857390Y5991983D01*
X9857390Y6162163D02*
X9687210Y5991983D01*
X7291304Y7967608D02*
X7461484Y7797428D01*
X7461484Y7967608D02*
X7291304Y7797428D01*
X8169803Y7305612D02*
X8339983Y7135432D01*
X8339983Y7305612D02*
X8169803Y7135432D01*
X17270728Y5021344D02*
X17440908Y4851164D01*
X17440908Y5021344D02*
X17270728Y4851164D01*
X18149227Y5683340D02*
X18319407Y5513161D01*
X18319407Y5683340D02*
X18149227Y5513161D01*
X10532251Y5570345D02*
G75*
G03X10532251Y5570345I-87500J0D01*
G01*
X11343665Y4958901D02*
G75*
G03X11343665Y4958901I-87500J0D01*
G01*
X20511676Y7248427D02*
G75*
G03X20511676Y7248427I-87500J0D01*
G01*
X21323090Y7859871D02*
G75*
G03X21323090Y7859871I-87500J0D01*
G01*
X18994268Y6104979D02*
G75*
G03X18994268Y6104979I-87500J0D01*
G01*
X19805682Y6716423D02*
G75*
G03X19805682Y6716423I-87500J0D01*
G01*
X9014844Y6713794D02*
G75*
G03X9014844Y6713794I-87500J0D01*
G01*
X9826257Y6102350D02*
G75*
G03X9826257Y6102350I-87500J0D01*
G01*
X7497436Y7857242D02*
G75*
G03X7497436Y7857242I-87500J0D01*
G01*
X8308850Y7245798D02*
G75*
G03X8308850Y7245798I-87500J0D01*
G01*
X17476861Y4961530D02*
G75*
G03X17476861Y4961530I-87500J0D01*
G01*
X18288275Y5572974D02*
G75*
G03X18288275Y5572974I-87500J0D01*
G01*
X10341883Y5161777D02*
X10341883Y4861777D01*
X10191883Y5011777D02*
X10491883Y5011777D01*
X11001877Y4982478D02*
X11001877Y4682478D01*
X10851877Y4832478D02*
X11151877Y4832478D01*
X11208538Y5889811D02*
X11208538Y5589811D01*
X11058538Y5739811D02*
X11358538Y5739811D01*
X11475456Y5413204D02*
X11475456Y5113204D01*
X11325456Y5263204D02*
X11625456Y5263204D01*
X20471803Y8179337D02*
X20471803Y7879337D01*
X20321803Y8029337D02*
X20621803Y8029337D01*
X20932751Y7145581D02*
X20932751Y6845581D01*
X20782751Y6995581D02*
X21082751Y6995581D01*
X21003520Y8304545D02*
X21003520Y8004545D01*
X20853520Y8154545D02*
X21153520Y8154545D01*
X21287024Y7730587D02*
X21287024Y7430587D01*
X21137024Y7580587D02*
X21437024Y7580587D01*
X18954395Y7035889D02*
X18954395Y6735889D01*
X18804395Y6885889D02*
X19104395Y6885889D01*
X19415344Y6002133D02*
X19415344Y5702133D01*
X19265344Y5852133D02*
X19565344Y5852133D01*
X19486112Y7161096D02*
X19486112Y6861096D01*
X19336112Y7011096D02*
X19636112Y7011096D01*
X19769616Y6587139D02*
X19769616Y6287139D01*
X19619616Y6437139D02*
X19919616Y6437139D01*
X8824475Y6305226D02*
X8824475Y6005226D01*
X8674475Y6155226D02*
X8974475Y6155226D01*
X9484470Y6125927D02*
X9484470Y5825927D01*
X9334470Y5975927D02*
X9634470Y5975927D01*
X9691131Y7033260D02*
X9691131Y6733260D01*
X9541131Y6883260D02*
X9841131Y6883260D01*
X9958049Y6556652D02*
X9958049Y6256652D01*
X9808049Y6406652D02*
X10108049Y6406652D01*
X7307068Y7448674D02*
X7307068Y7148674D01*
X7157068Y7298674D02*
X7457068Y7298674D01*
X7967062Y7269375D02*
X7967062Y6969375D01*
X7817062Y7119375D02*
X8117062Y7119375D01*
X8173723Y8176708D02*
X8173723Y7876708D01*
X8023723Y8026708D02*
X8323723Y8026708D01*
X8440642Y7700101D02*
X8440642Y7400101D01*
X8290642Y7550101D02*
X8590642Y7550101D01*
X17436988Y5892440D02*
X17436988Y5592440D01*
X17286988Y5742440D02*
X17586988Y5742440D01*
X17897936Y4858684D02*
X17897936Y4558684D01*
X17747936Y4708684D02*
X18047936Y4708684D01*
X17968705Y6017648D02*
X17968705Y5717648D01*
X17818705Y5867648D02*
X18118705Y5867648D01*
X18252209Y5443690D02*
X18252209Y5143690D01*
X18102209Y5293690D02*
X18402209Y5293690D01*
X10991450Y5123632D02*
X10991450Y5405615D01*
X10709467Y5405615D01*
X10709467Y5123632D01*
X10991450Y5123632D01*
X20970874Y7413158D02*
X20970874Y7695141D01*
X20688891Y7695141D01*
X20688891Y7413158D01*
X20970874Y7413158D01*
X19453467Y6269709D02*
X19453467Y6551692D01*
X19171484Y6551692D01*
X19171484Y6269709D01*
X19453467Y6269709D01*
X9474042Y6267080D02*
X9474042Y6549063D01*
X9192059Y6549063D01*
X9192059Y6267080D01*
X9474042Y6267080D01*
X7956635Y7410529D02*
X7956635Y7692512D01*
X7674652Y7692512D01*
X7674652Y7410529D01*
X7956635Y7410529D01*
X17936059Y5126261D02*
X17936059Y5408244D01*
X17654076Y5408244D01*
X17654076Y5126261D01*
X17936059Y5126261D01*
X10850458Y5017123D02*
X11097958Y5264623D01*
X10850458Y5512123D01*
X10602958Y5264623D01*
X10850458Y5017123D01*
X20829883Y7306649D02*
X21077383Y7554149D01*
X20829883Y7801649D01*
X20582383Y7554149D01*
X20829883Y7306649D01*
X19312475Y6163201D02*
X19559975Y6410701D01*
X19312475Y6658201D01*
X19064975Y6410701D01*
X19312475Y6163201D01*
X9333051Y6160572D02*
X9580551Y6408072D01*
X9333051Y6655572D01*
X9085551Y6408072D01*
X9333051Y6160572D01*
X7815643Y7304020D02*
X8063143Y7551520D01*
X7815643Y7799020D01*
X7568143Y7551520D01*
X7815643Y7304020D01*
X17795068Y5019752D02*
X18042568Y5267252D01*
X17795068Y5514752D01*
X17547568Y5267252D01*
X17795068Y5019752D01*
D12*
X6776928Y3428360D02*
X6776928Y3728360D01*
X6848357Y3728360D01*
X6891214Y3714074D01*
X6919786Y3685503D01*
X6934071Y3656931D01*
X6948357Y3599788D01*
X6948357Y3556931D01*
X6934071Y3499788D01*
X6919786Y3471217D01*
X6891214Y3442645D01*
X6848357Y3428360D01*
X6776928Y3428360D01*
X7076928Y3428360D02*
X7076928Y3628360D01*
X7076928Y3571217D02*
X7091214Y3599788D01*
X7105500Y3614074D01*
X7134071Y3628360D01*
X7162643Y3628360D01*
X7262643Y3428360D02*
X7262643Y3628360D01*
X7262643Y3728360D02*
X7248357Y3714074D01*
X7262643Y3699788D01*
X7276928Y3714074D01*
X7262643Y3728360D01*
X7262643Y3699788D01*
X7448357Y3428360D02*
X7419786Y3442645D01*
X7405500Y3471217D01*
X7405500Y3728360D01*
X7605500Y3428360D02*
X7576928Y3442645D01*
X7562643Y3471217D01*
X7562643Y3728360D01*
X7948357Y3428360D02*
X7948357Y3728360D01*
X8048357Y3514074D01*
X8148357Y3728360D01*
X8148357Y3428360D01*
X8419786Y3428360D02*
X8419786Y3585503D01*
X8405500Y3614074D01*
X8376928Y3628360D01*
X8319786Y3628360D01*
X8291214Y3614074D01*
X8419786Y3442645D02*
X8391214Y3428360D01*
X8319786Y3428360D01*
X8291214Y3442645D01*
X8276928Y3471217D01*
X8276928Y3499788D01*
X8291214Y3528360D01*
X8319786Y3542645D01*
X8391214Y3542645D01*
X8419786Y3556931D01*
X8562643Y3628360D02*
X8562643Y3328360D01*
X8562643Y3614074D02*
X8591214Y3628360D01*
X8648357Y3628360D01*
X8676928Y3614074D01*
X8691214Y3599788D01*
X8705500Y3571217D01*
X8705500Y3485503D01*
X8691214Y3456931D01*
X8676928Y3442645D01*
X8648357Y3428360D01*
X8591214Y3428360D01*
X8562643Y3442645D01*
X8834071Y3456931D02*
X8848357Y3442645D01*
X8834071Y3428360D01*
X8819786Y3442645D01*
X8834071Y3456931D01*
X8834071Y3428360D01*
X8834071Y3614074D02*
X8848357Y3599788D01*
X8834071Y3585503D01*
X8819786Y3599788D01*
X8834071Y3614074D01*
X8834071Y3585503D01*
X6320320Y3019164D02*
X6490500Y2848984D01*
X6490500Y3019164D02*
X6320320Y2848984D01*
X6934071Y2798360D02*
X6762643Y2798360D01*
X6848357Y2798360D02*
X6848357Y3098360D01*
X6819786Y3055503D01*
X6791214Y3026931D01*
X6762643Y3012645D01*
X7062643Y2826931D02*
X7076928Y2812645D01*
X7062643Y2798360D01*
X7048357Y2812645D01*
X7062643Y2826931D01*
X7062643Y2798360D01*
X7176928Y3098360D02*
X7376928Y3098360D01*
X7248357Y2798360D01*
X7548357Y3098360D02*
X7576928Y3098360D01*
X7605500Y3084074D01*
X7619786Y3069788D01*
X7634071Y3041217D01*
X7648357Y2984074D01*
X7648357Y2912645D01*
X7634071Y2855503D01*
X7619786Y2826931D01*
X7605500Y2812645D01*
X7576928Y2798360D01*
X7548357Y2798360D01*
X7519786Y2812645D01*
X7505500Y2826931D01*
X7491214Y2855503D01*
X7476928Y2912645D01*
X7476928Y2984074D01*
X7491214Y3041217D01*
X7505500Y3069788D01*
X7519786Y3084074D01*
X7548357Y3098360D01*
X7776928Y2798360D02*
X7776928Y2998360D01*
X7776928Y2969788D02*
X7791214Y2984074D01*
X7819786Y2998360D01*
X7862643Y2998360D01*
X7891214Y2984074D01*
X7905500Y2955503D01*
X7905500Y2798360D01*
X7905500Y2955503D02*
X7919786Y2984074D01*
X7948357Y2998360D01*
X7991214Y2998360D01*
X8019786Y2984074D01*
X8034071Y2955503D01*
X8034071Y2798360D01*
X8176928Y2798360D02*
X8176928Y2998360D01*
X8176928Y2969788D02*
X8191214Y2984074D01*
X8219786Y2998360D01*
X8262643Y2998360D01*
X8291214Y2984074D01*
X8305500Y2955503D01*
X8305500Y2798360D01*
X8305500Y2955503D02*
X8319786Y2984074D01*
X8348357Y2998360D01*
X8391214Y2998360D01*
X8419786Y2984074D01*
X8434071Y2955503D01*
X8434071Y2798360D01*
X9019786Y3112645D02*
X8762643Y2726931D01*
X9405500Y3098360D02*
X9434071Y3098360D01*
X9462643Y3084074D01*
X9476928Y3069788D01*
X9491214Y3041217D01*
X9505500Y2984074D01*
X9505500Y2912645D01*
X9491214Y2855503D01*
X9476928Y2826931D01*
X9462643Y2812645D01*
X9434071Y2798360D01*
X9405500Y2798360D01*
X9376928Y2812645D01*
X9362643Y2826931D01*
X9348357Y2855503D01*
X9334071Y2912645D01*
X9334071Y2984074D01*
X9348357Y3041217D01*
X9362643Y3069788D01*
X9376928Y3084074D01*
X9405500Y3098360D01*
X9634071Y2826931D02*
X9648357Y2812645D01*
X9634071Y2798360D01*
X9619786Y2812645D01*
X9634071Y2826931D01*
X9634071Y2798360D01*
X9834071Y3098360D02*
X9862643Y3098360D01*
X9891214Y3084074D01*
X9905500Y3069788D01*
X9919786Y3041217D01*
X9934071Y2984074D01*
X9934071Y2912645D01*
X9919786Y2855503D01*
X9905500Y2826931D01*
X9891214Y2812645D01*
X9862643Y2798360D01*
X9834071Y2798360D01*
X9805500Y2812645D01*
X9791214Y2826931D01*
X9776928Y2855503D01*
X9762643Y2912645D01*
X9762643Y2984074D01*
X9776928Y3041217D01*
X9791214Y3069788D01*
X9805500Y3084074D01*
X9834071Y3098360D01*
X10191214Y3098360D02*
X10134071Y3098360D01*
X10105500Y3084074D01*
X10091214Y3069788D01*
X10062643Y3026931D01*
X10048357Y2969788D01*
X10048357Y2855503D01*
X10062643Y2826931D01*
X10076928Y2812645D01*
X10105500Y2798360D01*
X10162643Y2798360D01*
X10191214Y2812645D01*
X10205500Y2826931D01*
X10219786Y2855503D01*
X10219786Y2926931D01*
X10205500Y2955503D01*
X10191214Y2969788D01*
X10162643Y2984074D01*
X10105500Y2984074D01*
X10076928Y2969788D01*
X10062643Y2955503D01*
X10048357Y2926931D01*
X10319786Y3098360D02*
X10519786Y3098360D01*
X10391214Y2798360D01*
X10619786Y3098360D02*
X10619786Y3041217D01*
X10734071Y3098360D02*
X10734071Y3041217D01*
X11176928Y2684074D02*
X11162643Y2698360D01*
X11134071Y2741217D01*
X11119786Y2769788D01*
X11105500Y2812645D01*
X11091214Y2884074D01*
X11091214Y2941217D01*
X11105500Y3012645D01*
X11119786Y3055503D01*
X11134071Y3084074D01*
X11162643Y3126931D01*
X11176928Y3141217D01*
X11448357Y2798360D02*
X11276928Y2798360D01*
X11362643Y2798360D02*
X11362643Y3098360D01*
X11334071Y3055503D01*
X11305500Y3026931D01*
X11276928Y3012645D01*
X11562643Y3069788D02*
X11576928Y3084074D01*
X11605500Y3098360D01*
X11676928Y3098360D01*
X11705500Y3084074D01*
X11719786Y3069788D01*
X11734071Y3041217D01*
X11734071Y3012645D01*
X11719786Y2969788D01*
X11548357Y2798360D01*
X11734071Y2798360D01*
X12091214Y2798360D02*
X12091214Y3098360D01*
X12219786Y2798360D02*
X12219786Y2955503D01*
X12205500Y2984074D01*
X12176928Y2998360D01*
X12134071Y2998360D01*
X12105500Y2984074D01*
X12091214Y2969788D01*
X12405500Y2798360D02*
X12376928Y2812645D01*
X12362643Y2826931D01*
X12348357Y2855503D01*
X12348357Y2941217D01*
X12362643Y2969788D01*
X12376928Y2984074D01*
X12405500Y2998360D01*
X12448357Y2998360D01*
X12476928Y2984074D01*
X12491214Y2969788D01*
X12505500Y2941217D01*
X12505500Y2855503D01*
X12491214Y2826931D01*
X12476928Y2812645D01*
X12448357Y2798360D01*
X12405500Y2798360D01*
X12676928Y2798360D02*
X12648357Y2812645D01*
X12634071Y2841217D01*
X12634071Y3098360D01*
X12905500Y2812645D02*
X12876928Y2798360D01*
X12819786Y2798360D01*
X12791214Y2812645D01*
X12776928Y2841217D01*
X12776928Y2955503D01*
X12791214Y2984074D01*
X12819786Y2998360D01*
X12876928Y2998360D01*
X12905500Y2984074D01*
X12919786Y2955503D01*
X12919786Y2926931D01*
X12776928Y2898360D01*
X13034071Y2812645D02*
X13062643Y2798360D01*
X13119786Y2798360D01*
X13148357Y2812645D01*
X13162643Y2841217D01*
X13162643Y2855503D01*
X13148357Y2884074D01*
X13119786Y2898360D01*
X13076928Y2898360D01*
X13048357Y2912645D01*
X13034071Y2941217D01*
X13034071Y2955503D01*
X13048357Y2984074D01*
X13076928Y2998360D01*
X13119786Y2998360D01*
X13148357Y2984074D01*
X13262643Y2684074D02*
X13276928Y2698360D01*
X13305500Y2741217D01*
X13319786Y2769788D01*
X13334071Y2812645D01*
X13348357Y2884074D01*
X13348357Y2941217D01*
X13334071Y3012645D01*
X13319786Y3055503D01*
X13305500Y3084074D01*
X13276928Y3126931D01*
X13262643Y3141217D01*
X13805500Y2684074D02*
X13791214Y2698360D01*
X13762643Y2741217D01*
X13748357Y2769788D01*
X13734071Y2812645D01*
X13719786Y2884074D01*
X13719786Y2941217D01*
X13734071Y3012645D01*
X13748357Y3055503D01*
X13762643Y3084074D01*
X13791214Y3126931D01*
X13805500Y3141217D01*
X13919786Y2998360D02*
X13919786Y2798360D01*
X13919786Y2969788D02*
X13934071Y2984074D01*
X13962643Y2998360D01*
X14005500Y2998360D01*
X14034071Y2984074D01*
X14048357Y2955503D01*
X14048357Y2798360D01*
X14234071Y2798360D02*
X14205500Y2812645D01*
X14191214Y2826931D01*
X14176928Y2855503D01*
X14176928Y2941217D01*
X14191214Y2969788D01*
X14205500Y2984074D01*
X14234071Y2998360D01*
X14276928Y2998360D01*
X14305500Y2984074D01*
X14319786Y2969788D01*
X14334071Y2941217D01*
X14334071Y2855503D01*
X14319786Y2826931D01*
X14305500Y2812645D01*
X14276928Y2798360D01*
X14234071Y2798360D01*
X14419786Y2998360D02*
X14534071Y2998360D01*
X14462643Y3098360D02*
X14462643Y2841217D01*
X14476928Y2812645D01*
X14505500Y2798360D01*
X14534071Y2798360D01*
X14862643Y2998360D02*
X14862643Y2698360D01*
X14862643Y2984074D02*
X14891214Y2998360D01*
X14948357Y2998360D01*
X14976928Y2984074D01*
X14991214Y2969788D01*
X15005500Y2941217D01*
X15005500Y2855503D01*
X14991214Y2826931D01*
X14976928Y2812645D01*
X14948357Y2798360D01*
X14891214Y2798360D01*
X14862643Y2812645D01*
X15176928Y2798360D02*
X15148357Y2812645D01*
X15134071Y2841217D01*
X15134071Y3098360D01*
X15419786Y2798360D02*
X15419786Y2955503D01*
X15405500Y2984074D01*
X15376928Y2998360D01*
X15319786Y2998360D01*
X15291214Y2984074D01*
X15419786Y2812645D02*
X15391214Y2798360D01*
X15319786Y2798360D01*
X15291214Y2812645D01*
X15276928Y2841217D01*
X15276928Y2869788D01*
X15291214Y2898360D01*
X15319786Y2912645D01*
X15391214Y2912645D01*
X15419786Y2926931D01*
X15519786Y2998360D02*
X15634071Y2998360D01*
X15562643Y3098360D02*
X15562643Y2841217D01*
X15576928Y2812645D01*
X15605500Y2798360D01*
X15634071Y2798360D01*
X15848357Y2812645D02*
X15819786Y2798360D01*
X15762643Y2798360D01*
X15734071Y2812645D01*
X15719786Y2841217D01*
X15719786Y2955503D01*
X15734071Y2984074D01*
X15762643Y2998360D01*
X15819786Y2998360D01*
X15848357Y2984074D01*
X15862643Y2955503D01*
X15862643Y2926931D01*
X15719786Y2898360D01*
X16119786Y2798360D02*
X16119786Y3098360D01*
X16119786Y2812645D02*
X16091214Y2798360D01*
X16034071Y2798360D01*
X16005500Y2812645D01*
X15991214Y2826931D01*
X15976928Y2855503D01*
X15976928Y2941217D01*
X15991214Y2969788D01*
X16005500Y2984074D01*
X16034071Y2998360D01*
X16091214Y2998360D01*
X16119786Y2984074D01*
X16234071Y2684074D02*
X16248357Y2698360D01*
X16276928Y2741217D01*
X16291214Y2769788D01*
X16305500Y2812645D01*
X16319786Y2884074D01*
X16319786Y2941217D01*
X16305500Y3012645D01*
X16291214Y3055503D01*
X16276928Y3084074D01*
X16248357Y3126931D01*
X16234071Y3141217D01*
X6490500Y2538074D02*
G75*
G03X6490500Y2538074I-87500J0D01*
G01*
X6934071Y2402360D02*
X6762643Y2402360D01*
X6848357Y2402360D02*
X6848357Y2702360D01*
X6819786Y2659503D01*
X6791214Y2630931D01*
X6762643Y2616646D01*
X7062643Y2430931D02*
X7076928Y2416646D01*
X7062643Y2402360D01*
X7048357Y2416646D01*
X7062643Y2430931D01*
X7062643Y2402360D01*
X7176928Y2702360D02*
X7376928Y2702360D01*
X7248357Y2402360D01*
X7634071Y2702360D02*
X7491214Y2702360D01*
X7476928Y2559503D01*
X7491214Y2573788D01*
X7519786Y2588074D01*
X7591214Y2588074D01*
X7619786Y2573788D01*
X7634071Y2559503D01*
X7648357Y2530931D01*
X7648357Y2459503D01*
X7634071Y2430931D01*
X7619786Y2416646D01*
X7591214Y2402360D01*
X7519786Y2402360D01*
X7491214Y2416646D01*
X7476928Y2430931D01*
X7776928Y2402360D02*
X7776928Y2602360D01*
X7776928Y2573788D02*
X7791214Y2588074D01*
X7819786Y2602360D01*
X7862643Y2602360D01*
X7891214Y2588074D01*
X7905500Y2559503D01*
X7905500Y2402360D01*
X7905500Y2559503D02*
X7919786Y2588074D01*
X7948357Y2602360D01*
X7991214Y2602360D01*
X8019786Y2588074D01*
X8034071Y2559503D01*
X8034071Y2402360D01*
X8176928Y2402360D02*
X8176928Y2602360D01*
X8176928Y2573788D02*
X8191214Y2588074D01*
X8219786Y2602360D01*
X8262643Y2602360D01*
X8291214Y2588074D01*
X8305500Y2559503D01*
X8305500Y2402360D01*
X8305500Y2559503D02*
X8319786Y2588074D01*
X8348357Y2602360D01*
X8391214Y2602360D01*
X8419786Y2588074D01*
X8434071Y2559503D01*
X8434071Y2402360D01*
X9019786Y2716646D02*
X8762643Y2330931D01*
X9405500Y2702360D02*
X9434071Y2702360D01*
X9462643Y2688074D01*
X9476928Y2673788D01*
X9491214Y2645217D01*
X9505500Y2588074D01*
X9505500Y2516646D01*
X9491214Y2459503D01*
X9476928Y2430931D01*
X9462643Y2416646D01*
X9434071Y2402360D01*
X9405500Y2402360D01*
X9376928Y2416646D01*
X9362643Y2430931D01*
X9348357Y2459503D01*
X9334071Y2516646D01*
X9334071Y2588074D01*
X9348357Y2645217D01*
X9362643Y2673788D01*
X9376928Y2688074D01*
X9405500Y2702360D01*
X9634071Y2430931D02*
X9648357Y2416646D01*
X9634071Y2402360D01*
X9619786Y2416646D01*
X9634071Y2430931D01*
X9634071Y2402360D01*
X9834071Y2702360D02*
X9862643Y2702360D01*
X9891214Y2688074D01*
X9905500Y2673788D01*
X9919786Y2645217D01*
X9934071Y2588074D01*
X9934071Y2516646D01*
X9919786Y2459503D01*
X9905500Y2430931D01*
X9891214Y2416646D01*
X9862643Y2402360D01*
X9834071Y2402360D01*
X9805500Y2416646D01*
X9791214Y2430931D01*
X9776928Y2459503D01*
X9762643Y2516646D01*
X9762643Y2588074D01*
X9776928Y2645217D01*
X9791214Y2673788D01*
X9805500Y2688074D01*
X9834071Y2702360D01*
X10191214Y2702360D02*
X10134071Y2702360D01*
X10105500Y2688074D01*
X10091214Y2673788D01*
X10062643Y2630931D01*
X10048357Y2573788D01*
X10048357Y2459503D01*
X10062643Y2430931D01*
X10076928Y2416646D01*
X10105500Y2402360D01*
X10162643Y2402360D01*
X10191214Y2416646D01*
X10205500Y2430931D01*
X10219786Y2459503D01*
X10219786Y2530931D01*
X10205500Y2559503D01*
X10191214Y2573788D01*
X10162643Y2588074D01*
X10105500Y2588074D01*
X10076928Y2573788D01*
X10062643Y2559503D01*
X10048357Y2530931D01*
X10362643Y2402360D02*
X10419786Y2402360D01*
X10448357Y2416646D01*
X10462643Y2430931D01*
X10491214Y2473788D01*
X10505500Y2530931D01*
X10505500Y2645217D01*
X10491214Y2673788D01*
X10476928Y2688074D01*
X10448357Y2702360D01*
X10391214Y2702360D01*
X10362643Y2688074D01*
X10348357Y2673788D01*
X10334071Y2645217D01*
X10334071Y2573788D01*
X10348357Y2545217D01*
X10362643Y2530931D01*
X10391214Y2516646D01*
X10448357Y2516646D01*
X10476928Y2530931D01*
X10491214Y2545217D01*
X10505500Y2573788D01*
X10619786Y2702360D02*
X10619786Y2645217D01*
X10734071Y2702360D02*
X10734071Y2645217D01*
X11176928Y2288074D02*
X11162643Y2302360D01*
X11134071Y2345217D01*
X11119786Y2373788D01*
X11105500Y2416646D01*
X11091214Y2488074D01*
X11091214Y2545217D01*
X11105500Y2616646D01*
X11119786Y2659503D01*
X11134071Y2688074D01*
X11162643Y2730931D01*
X11176928Y2745217D01*
X11448357Y2402360D02*
X11276928Y2402360D01*
X11362643Y2402360D02*
X11362643Y2702360D01*
X11334071Y2659503D01*
X11305500Y2630931D01*
X11276928Y2616646D01*
X11562643Y2673788D02*
X11576928Y2688074D01*
X11605500Y2702360D01*
X11676928Y2702360D01*
X11705500Y2688074D01*
X11719786Y2673788D01*
X11734071Y2645217D01*
X11734071Y2616646D01*
X11719786Y2573788D01*
X11548357Y2402360D01*
X11734071Y2402360D01*
X12091214Y2402360D02*
X12091214Y2702360D01*
X12219786Y2402360D02*
X12219786Y2559503D01*
X12205500Y2588074D01*
X12176928Y2602360D01*
X12134071Y2602360D01*
X12105500Y2588074D01*
X12091214Y2573788D01*
X12405500Y2402360D02*
X12376928Y2416646D01*
X12362643Y2430931D01*
X12348357Y2459503D01*
X12348357Y2545217D01*
X12362643Y2573788D01*
X12376928Y2588074D01*
X12405500Y2602360D01*
X12448357Y2602360D01*
X12476928Y2588074D01*
X12491214Y2573788D01*
X12505500Y2545217D01*
X12505500Y2459503D01*
X12491214Y2430931D01*
X12476928Y2416646D01*
X12448357Y2402360D01*
X12405500Y2402360D01*
X12676928Y2402360D02*
X12648357Y2416646D01*
X12634071Y2445217D01*
X12634071Y2702360D01*
X12905500Y2416646D02*
X12876928Y2402360D01*
X12819786Y2402360D01*
X12791214Y2416646D01*
X12776928Y2445217D01*
X12776928Y2559503D01*
X12791214Y2588074D01*
X12819786Y2602360D01*
X12876928Y2602360D01*
X12905500Y2588074D01*
X12919786Y2559503D01*
X12919786Y2530931D01*
X12776928Y2502360D01*
X13034071Y2416646D02*
X13062643Y2402360D01*
X13119786Y2402360D01*
X13148357Y2416646D01*
X13162643Y2445217D01*
X13162643Y2459503D01*
X13148357Y2488074D01*
X13119786Y2502360D01*
X13076928Y2502360D01*
X13048357Y2516646D01*
X13034071Y2545217D01*
X13034071Y2559503D01*
X13048357Y2588074D01*
X13076928Y2602360D01*
X13119786Y2602360D01*
X13148357Y2588074D01*
X13262643Y2288074D02*
X13276928Y2302360D01*
X13305500Y2345217D01*
X13319786Y2373788D01*
X13334071Y2416646D01*
X13348357Y2488074D01*
X13348357Y2545217D01*
X13334071Y2616646D01*
X13319786Y2659503D01*
X13305500Y2688074D01*
X13276928Y2730931D01*
X13262643Y2745217D01*
X13805500Y2288074D02*
X13791214Y2302360D01*
X13762643Y2345217D01*
X13748357Y2373788D01*
X13734071Y2416646D01*
X13719786Y2488074D01*
X13719786Y2545217D01*
X13734071Y2616646D01*
X13748357Y2659503D01*
X13762643Y2688074D01*
X13791214Y2730931D01*
X13805500Y2745217D01*
X13919786Y2602360D02*
X13919786Y2402360D01*
X13919786Y2573788D02*
X13934071Y2588074D01*
X13962643Y2602360D01*
X14005500Y2602360D01*
X14034071Y2588074D01*
X14048357Y2559503D01*
X14048357Y2402360D01*
X14234071Y2402360D02*
X14205500Y2416646D01*
X14191214Y2430931D01*
X14176928Y2459503D01*
X14176928Y2545217D01*
X14191214Y2573788D01*
X14205500Y2588074D01*
X14234071Y2602360D01*
X14276928Y2602360D01*
X14305500Y2588074D01*
X14319786Y2573788D01*
X14334071Y2545217D01*
X14334071Y2459503D01*
X14319786Y2430931D01*
X14305500Y2416646D01*
X14276928Y2402360D01*
X14234071Y2402360D01*
X14419786Y2602360D02*
X14534071Y2602360D01*
X14462643Y2702360D02*
X14462643Y2445217D01*
X14476928Y2416646D01*
X14505500Y2402360D01*
X14534071Y2402360D01*
X14862643Y2602360D02*
X14862643Y2302360D01*
X14862643Y2588074D02*
X14891214Y2602360D01*
X14948357Y2602360D01*
X14976928Y2588074D01*
X14991214Y2573788D01*
X15005500Y2545217D01*
X15005500Y2459503D01*
X14991214Y2430931D01*
X14976928Y2416646D01*
X14948357Y2402360D01*
X14891214Y2402360D01*
X14862643Y2416646D01*
X15176928Y2402360D02*
X15148357Y2416646D01*
X15134071Y2445217D01*
X15134071Y2702360D01*
X15419786Y2402360D02*
X15419786Y2559503D01*
X15405500Y2588074D01*
X15376928Y2602360D01*
X15319786Y2602360D01*
X15291214Y2588074D01*
X15419786Y2416646D02*
X15391214Y2402360D01*
X15319786Y2402360D01*
X15291214Y2416646D01*
X15276928Y2445217D01*
X15276928Y2473788D01*
X15291214Y2502360D01*
X15319786Y2516646D01*
X15391214Y2516646D01*
X15419786Y2530931D01*
X15519786Y2602360D02*
X15634071Y2602360D01*
X15562643Y2702360D02*
X15562643Y2445217D01*
X15576928Y2416646D01*
X15605500Y2402360D01*
X15634071Y2402360D01*
X15848357Y2416646D02*
X15819786Y2402360D01*
X15762643Y2402360D01*
X15734071Y2416646D01*
X15719786Y2445217D01*
X15719786Y2559503D01*
X15734071Y2588074D01*
X15762643Y2602360D01*
X15819786Y2602360D01*
X15848357Y2588074D01*
X15862643Y2559503D01*
X15862643Y2530931D01*
X15719786Y2502360D01*
X16119786Y2402360D02*
X16119786Y2702360D01*
X16119786Y2416646D02*
X16091214Y2402360D01*
X16034071Y2402360D01*
X16005500Y2416646D01*
X15991214Y2430931D01*
X15976928Y2459503D01*
X15976928Y2545217D01*
X15991214Y2573788D01*
X16005500Y2588074D01*
X16034071Y2602360D01*
X16091214Y2602360D01*
X16119786Y2588074D01*
X16234071Y2288074D02*
X16248357Y2302360D01*
X16276928Y2345217D01*
X16291214Y2373788D01*
X16305500Y2416646D01*
X16319786Y2488074D01*
X16319786Y2545217D01*
X16305500Y2616646D01*
X16291214Y2659503D01*
X16276928Y2688074D01*
X16248357Y2730931D01*
X16234071Y2745217D01*
X6340500Y2292074D02*
X6340500Y1992074D01*
X6190500Y2142074D02*
X6490500Y2142074D01*
X6748357Y2306360D02*
X6934071Y2306360D01*
X6834071Y2192074D01*
X6876928Y2192074D01*
X6905500Y2177788D01*
X6919786Y2163503D01*
X6934071Y2134931D01*
X6934071Y2063503D01*
X6919786Y2034931D01*
X6905500Y2020645D01*
X6876928Y2006360D01*
X6791214Y2006360D01*
X6762643Y2020645D01*
X6748357Y2034931D01*
X7062643Y2034931D02*
X7076928Y2020645D01*
X7062643Y2006360D01*
X7048357Y2020645D01*
X7062643Y2034931D01*
X7062643Y2006360D01*
X7262643Y2306360D02*
X7291214Y2306360D01*
X7319786Y2292074D01*
X7334071Y2277788D01*
X7348357Y2249217D01*
X7362643Y2192074D01*
X7362643Y2120646D01*
X7348357Y2063503D01*
X7334071Y2034931D01*
X7319786Y2020645D01*
X7291214Y2006360D01*
X7262643Y2006360D01*
X7234071Y2020645D01*
X7219786Y2034931D01*
X7205500Y2063503D01*
X7191214Y2120646D01*
X7191214Y2192074D01*
X7205500Y2249217D01*
X7219786Y2277788D01*
X7234071Y2292074D01*
X7262643Y2306360D01*
X7548357Y2306360D02*
X7576928Y2306360D01*
X7605500Y2292074D01*
X7619786Y2277788D01*
X7634071Y2249217D01*
X7648357Y2192074D01*
X7648357Y2120646D01*
X7634071Y2063503D01*
X7619786Y2034931D01*
X7605500Y2020645D01*
X7576928Y2006360D01*
X7548357Y2006360D01*
X7519786Y2020645D01*
X7505500Y2034931D01*
X7491214Y2063503D01*
X7476928Y2120646D01*
X7476928Y2192074D01*
X7491214Y2249217D01*
X7505500Y2277788D01*
X7519786Y2292074D01*
X7548357Y2306360D01*
X7776928Y2006360D02*
X7776928Y2206360D01*
X7776928Y2177788D02*
X7791214Y2192074D01*
X7819786Y2206360D01*
X7862643Y2206360D01*
X7891214Y2192074D01*
X7905500Y2163503D01*
X7905500Y2006360D01*
X7905500Y2163503D02*
X7919786Y2192074D01*
X7948357Y2206360D01*
X7991214Y2206360D01*
X8019786Y2192074D01*
X8034071Y2163503D01*
X8034071Y2006360D01*
X8176928Y2006360D02*
X8176928Y2206360D01*
X8176928Y2177788D02*
X8191214Y2192074D01*
X8219786Y2206360D01*
X8262643Y2206360D01*
X8291214Y2192074D01*
X8305500Y2163503D01*
X8305500Y2006360D01*
X8305500Y2163503D02*
X8319786Y2192074D01*
X8348357Y2206360D01*
X8391214Y2206360D01*
X8419786Y2192074D01*
X8434071Y2163503D01*
X8434071Y2006360D01*
X9019786Y2320646D02*
X8762643Y1934931D01*
X9405500Y2306360D02*
X9434071Y2306360D01*
X9462643Y2292074D01*
X9476928Y2277788D01*
X9491214Y2249217D01*
X9505500Y2192074D01*
X9505500Y2120646D01*
X9491214Y2063503D01*
X9476928Y2034931D01*
X9462643Y2020645D01*
X9434071Y2006360D01*
X9405500Y2006360D01*
X9376928Y2020645D01*
X9362643Y2034931D01*
X9348357Y2063503D01*
X9334071Y2120646D01*
X9334071Y2192074D01*
X9348357Y2249217D01*
X9362643Y2277788D01*
X9376928Y2292074D01*
X9405500Y2306360D01*
X9634071Y2034931D02*
X9648357Y2020645D01*
X9634071Y2006360D01*
X9619786Y2020645D01*
X9634071Y2034931D01*
X9634071Y2006360D01*
X9934071Y2006360D02*
X9762643Y2006360D01*
X9848357Y2006360D02*
X9848357Y2306360D01*
X9819786Y2263503D01*
X9791214Y2234931D01*
X9762643Y2220646D01*
X10219786Y2006360D02*
X10048357Y2006360D01*
X10134071Y2006360D02*
X10134071Y2306360D01*
X10105500Y2263503D01*
X10076928Y2234931D01*
X10048357Y2220646D01*
X10391214Y2177788D02*
X10362643Y2192074D01*
X10348357Y2206360D01*
X10334071Y2234931D01*
X10334071Y2249217D01*
X10348357Y2277788D01*
X10362643Y2292074D01*
X10391214Y2306360D01*
X10448357Y2306360D01*
X10476928Y2292074D01*
X10491214Y2277788D01*
X10505500Y2249217D01*
X10505500Y2234931D01*
X10491214Y2206360D01*
X10476928Y2192074D01*
X10448357Y2177788D01*
X10391214Y2177788D01*
X10362643Y2163503D01*
X10348357Y2149217D01*
X10334071Y2120646D01*
X10334071Y2063503D01*
X10348357Y2034931D01*
X10362643Y2020645D01*
X10391214Y2006360D01*
X10448357Y2006360D01*
X10476928Y2020645D01*
X10491214Y2034931D01*
X10505500Y2063503D01*
X10505500Y2120646D01*
X10491214Y2149217D01*
X10476928Y2163503D01*
X10448357Y2177788D01*
X10619786Y2306360D02*
X10619786Y2249217D01*
X10734071Y2306360D02*
X10734071Y2249217D01*
X11176928Y1892074D02*
X11162643Y1906360D01*
X11134071Y1949217D01*
X11119786Y1977788D01*
X11105500Y2020645D01*
X11091214Y2092074D01*
X11091214Y2149217D01*
X11105500Y2220646D01*
X11119786Y2263503D01*
X11134071Y2292074D01*
X11162643Y2334931D01*
X11176928Y2349217D01*
X11276928Y2277788D02*
X11291214Y2292074D01*
X11319786Y2306360D01*
X11391214Y2306360D01*
X11419786Y2292074D01*
X11434071Y2277788D01*
X11448357Y2249217D01*
X11448357Y2220646D01*
X11434071Y2177788D01*
X11262643Y2006360D01*
X11448357Y2006360D01*
X11705500Y2206360D02*
X11705500Y2006360D01*
X11634071Y2320646D02*
X11562643Y2106360D01*
X11748357Y2106360D01*
X12091214Y2006360D02*
X12091214Y2306360D01*
X12219786Y2006360D02*
X12219786Y2163503D01*
X12205500Y2192074D01*
X12176928Y2206360D01*
X12134071Y2206360D01*
X12105500Y2192074D01*
X12091214Y2177788D01*
X12405500Y2006360D02*
X12376928Y2020645D01*
X12362643Y2034931D01*
X12348357Y2063503D01*
X12348357Y2149217D01*
X12362643Y2177788D01*
X12376928Y2192074D01*
X12405500Y2206360D01*
X12448357Y2206360D01*
X12476928Y2192074D01*
X12491214Y2177788D01*
X12505500Y2149217D01*
X12505500Y2063503D01*
X12491214Y2034931D01*
X12476928Y2020645D01*
X12448357Y2006360D01*
X12405500Y2006360D01*
X12676928Y2006360D02*
X12648357Y2020645D01*
X12634071Y2049217D01*
X12634071Y2306360D01*
X12905500Y2020645D02*
X12876928Y2006360D01*
X12819786Y2006360D01*
X12791214Y2020645D01*
X12776928Y2049217D01*
X12776928Y2163503D01*
X12791214Y2192074D01*
X12819786Y2206360D01*
X12876928Y2206360D01*
X12905500Y2192074D01*
X12919786Y2163503D01*
X12919786Y2134931D01*
X12776928Y2106360D01*
X13034071Y2020645D02*
X13062643Y2006360D01*
X13119786Y2006360D01*
X13148357Y2020645D01*
X13162643Y2049217D01*
X13162643Y2063503D01*
X13148357Y2092074D01*
X13119786Y2106360D01*
X13076928Y2106360D01*
X13048357Y2120646D01*
X13034071Y2149217D01*
X13034071Y2163503D01*
X13048357Y2192074D01*
X13076928Y2206360D01*
X13119786Y2206360D01*
X13148357Y2192074D01*
X13262643Y1892074D02*
X13276928Y1906360D01*
X13305500Y1949217D01*
X13319786Y1977788D01*
X13334071Y2020645D01*
X13348357Y2092074D01*
X13348357Y2149217D01*
X13334071Y2220646D01*
X13319786Y2263503D01*
X13305500Y2292074D01*
X13276928Y2334931D01*
X13262643Y2349217D01*
X13805500Y1892074D02*
X13791214Y1906360D01*
X13762643Y1949217D01*
X13748357Y1977788D01*
X13734071Y2020645D01*
X13719786Y2092074D01*
X13719786Y2149217D01*
X13734071Y2220646D01*
X13748357Y2263503D01*
X13762643Y2292074D01*
X13791214Y2334931D01*
X13805500Y2349217D01*
X13919786Y2206360D02*
X13919786Y2006360D01*
X13919786Y2177788D02*
X13934071Y2192074D01*
X13962643Y2206360D01*
X14005500Y2206360D01*
X14034071Y2192074D01*
X14048357Y2163503D01*
X14048357Y2006360D01*
X14234071Y2006360D02*
X14205500Y2020645D01*
X14191214Y2034931D01*
X14176928Y2063503D01*
X14176928Y2149217D01*
X14191214Y2177788D01*
X14205500Y2192074D01*
X14234071Y2206360D01*
X14276928Y2206360D01*
X14305500Y2192074D01*
X14319786Y2177788D01*
X14334071Y2149217D01*
X14334071Y2063503D01*
X14319786Y2034931D01*
X14305500Y2020645D01*
X14276928Y2006360D01*
X14234071Y2006360D01*
X14419786Y2206360D02*
X14534071Y2206360D01*
X14462643Y2306360D02*
X14462643Y2049217D01*
X14476928Y2020645D01*
X14505500Y2006360D01*
X14534071Y2006360D01*
X14862643Y2206360D02*
X14862643Y1906360D01*
X14862643Y2192074D02*
X14891214Y2206360D01*
X14948357Y2206360D01*
X14976928Y2192074D01*
X14991214Y2177788D01*
X15005500Y2149217D01*
X15005500Y2063503D01*
X14991214Y2034931D01*
X14976928Y2020645D01*
X14948357Y2006360D01*
X14891214Y2006360D01*
X14862643Y2020645D01*
X15176928Y2006360D02*
X15148357Y2020645D01*
X15134071Y2049217D01*
X15134071Y2306360D01*
X15419786Y2006360D02*
X15419786Y2163503D01*
X15405500Y2192074D01*
X15376928Y2206360D01*
X15319786Y2206360D01*
X15291214Y2192074D01*
X15419786Y2020645D02*
X15391214Y2006360D01*
X15319786Y2006360D01*
X15291214Y2020645D01*
X15276928Y2049217D01*
X15276928Y2077788D01*
X15291214Y2106360D01*
X15319786Y2120646D01*
X15391214Y2120646D01*
X15419786Y2134931D01*
X15519786Y2206360D02*
X15634071Y2206360D01*
X15562643Y2306360D02*
X15562643Y2049217D01*
X15576928Y2020645D01*
X15605500Y2006360D01*
X15634071Y2006360D01*
X15848357Y2020645D02*
X15819786Y2006360D01*
X15762643Y2006360D01*
X15734071Y2020645D01*
X15719786Y2049217D01*
X15719786Y2163503D01*
X15734071Y2192074D01*
X15762643Y2206360D01*
X15819786Y2206360D01*
X15848357Y2192074D01*
X15862643Y2163503D01*
X15862643Y2134931D01*
X15719786Y2106360D01*
X16119786Y2006360D02*
X16119786Y2306360D01*
X16119786Y2020645D02*
X16091214Y2006360D01*
X16034071Y2006360D01*
X16005500Y2020645D01*
X15991214Y2034931D01*
X15976928Y2063503D01*
X15976928Y2149217D01*
X15991214Y2177788D01*
X16005500Y2192074D01*
X16034071Y2206360D01*
X16091214Y2206360D01*
X16119786Y2192074D01*
X16234071Y1892074D02*
X16248357Y1906360D01*
X16276928Y1949217D01*
X16291214Y1977788D01*
X16305500Y2020645D01*
X16319786Y2092074D01*
X16319786Y2149217D01*
X16305500Y2220646D01*
X16291214Y2263503D01*
X16276928Y2292074D01*
X16248357Y2334931D01*
X16234071Y2349217D01*
X6432101Y1571083D02*
X6432101Y1853065D01*
X6150118Y1853065D01*
X6150118Y1571083D01*
X6432101Y1571083D01*
X6748357Y1876360D02*
X6934071Y1876360D01*
X6834071Y1762074D01*
X6876928Y1762074D01*
X6905500Y1747788D01*
X6919786Y1733503D01*
X6934071Y1704931D01*
X6934071Y1633503D01*
X6919786Y1604931D01*
X6905500Y1590645D01*
X6876928Y1576360D01*
X6791214Y1576360D01*
X6762643Y1590645D01*
X6748357Y1604931D01*
X7062643Y1604931D02*
X7076928Y1590645D01*
X7062643Y1576360D01*
X7048357Y1590645D01*
X7062643Y1604931D01*
X7062643Y1576360D01*
X7219786Y1576360D02*
X7276928Y1576360D01*
X7305500Y1590645D01*
X7319786Y1604931D01*
X7348357Y1647788D01*
X7362643Y1704931D01*
X7362643Y1819217D01*
X7348357Y1847788D01*
X7334071Y1862074D01*
X7305500Y1876360D01*
X7248357Y1876360D01*
X7219786Y1862074D01*
X7205500Y1847788D01*
X7191214Y1819217D01*
X7191214Y1747788D01*
X7205500Y1719217D01*
X7219786Y1704931D01*
X7248357Y1690645D01*
X7305500Y1690645D01*
X7334071Y1704931D01*
X7348357Y1719217D01*
X7362643Y1747788D01*
X7505500Y1576360D02*
X7562643Y1576360D01*
X7591214Y1590645D01*
X7605500Y1604931D01*
X7634071Y1647788D01*
X7648357Y1704931D01*
X7648357Y1819217D01*
X7634071Y1847788D01*
X7619786Y1862074D01*
X7591214Y1876360D01*
X7534071Y1876360D01*
X7505500Y1862074D01*
X7491214Y1847788D01*
X7476928Y1819217D01*
X7476928Y1747788D01*
X7491214Y1719217D01*
X7505500Y1704931D01*
X7534071Y1690645D01*
X7591214Y1690645D01*
X7619786Y1704931D01*
X7634071Y1719217D01*
X7648357Y1747788D01*
X7776928Y1576360D02*
X7776928Y1776360D01*
X7776928Y1747788D02*
X7791214Y1762074D01*
X7819786Y1776360D01*
X7862643Y1776360D01*
X7891214Y1762074D01*
X7905500Y1733503D01*
X7905500Y1576360D01*
X7905500Y1733503D02*
X7919786Y1762074D01*
X7948357Y1776360D01*
X7991214Y1776360D01*
X8019786Y1762074D01*
X8034071Y1733503D01*
X8034071Y1576360D01*
X8176928Y1576360D02*
X8176928Y1776360D01*
X8176928Y1747788D02*
X8191214Y1762074D01*
X8219786Y1776360D01*
X8262643Y1776360D01*
X8291214Y1762074D01*
X8305500Y1733503D01*
X8305500Y1576360D01*
X8305500Y1733503D02*
X8319786Y1762074D01*
X8348357Y1776360D01*
X8391214Y1776360D01*
X8419786Y1762074D01*
X8434071Y1733503D01*
X8434071Y1576360D01*
X9019786Y1890645D02*
X8762643Y1504931D01*
X9405500Y1876360D02*
X9434071Y1876360D01*
X9462643Y1862074D01*
X9476928Y1847788D01*
X9491214Y1819217D01*
X9505500Y1762074D01*
X9505500Y1690645D01*
X9491214Y1633503D01*
X9476928Y1604931D01*
X9462643Y1590645D01*
X9434071Y1576360D01*
X9405500Y1576360D01*
X9376928Y1590645D01*
X9362643Y1604931D01*
X9348357Y1633503D01*
X9334071Y1690645D01*
X9334071Y1762074D01*
X9348357Y1819217D01*
X9362643Y1847788D01*
X9376928Y1862074D01*
X9405500Y1876360D01*
X9634071Y1604931D02*
X9648357Y1590645D01*
X9634071Y1576360D01*
X9619786Y1590645D01*
X9634071Y1604931D01*
X9634071Y1576360D01*
X9934071Y1576360D02*
X9762643Y1576360D01*
X9848357Y1576360D02*
X9848357Y1876360D01*
X9819786Y1833503D01*
X9791214Y1804931D01*
X9762643Y1790645D01*
X10205500Y1876360D02*
X10062643Y1876360D01*
X10048357Y1733503D01*
X10062643Y1747788D01*
X10091214Y1762074D01*
X10162643Y1762074D01*
X10191214Y1747788D01*
X10205500Y1733503D01*
X10219786Y1704931D01*
X10219786Y1633503D01*
X10205500Y1604931D01*
X10191214Y1590645D01*
X10162643Y1576360D01*
X10091214Y1576360D01*
X10062643Y1590645D01*
X10048357Y1604931D01*
X10319786Y1876360D02*
X10519786Y1876360D01*
X10391214Y1576360D01*
X10619786Y1876360D02*
X10619786Y1819217D01*
X10734071Y1876360D02*
X10734071Y1819217D01*
X11176928Y1462074D02*
X11162643Y1476360D01*
X11134071Y1519217D01*
X11119786Y1547788D01*
X11105500Y1590645D01*
X11091214Y1662074D01*
X11091214Y1719217D01*
X11105500Y1790645D01*
X11119786Y1833503D01*
X11134071Y1862074D01*
X11162643Y1904931D01*
X11176928Y1919217D01*
X11419786Y1876360D02*
X11362643Y1876360D01*
X11334071Y1862074D01*
X11319786Y1847788D01*
X11291214Y1804931D01*
X11276928Y1747788D01*
X11276928Y1633503D01*
X11291214Y1604931D01*
X11305500Y1590645D01*
X11334071Y1576360D01*
X11391214Y1576360D01*
X11419786Y1590645D01*
X11434071Y1604931D01*
X11448357Y1633503D01*
X11448357Y1704931D01*
X11434071Y1733503D01*
X11419786Y1747788D01*
X11391214Y1762074D01*
X11334071Y1762074D01*
X11305500Y1747788D01*
X11291214Y1733503D01*
X11276928Y1704931D01*
X11805500Y1576360D02*
X11805500Y1876360D01*
X11934071Y1576360D02*
X11934071Y1733503D01*
X11919786Y1762074D01*
X11891214Y1776360D01*
X11848357Y1776360D01*
X11819786Y1762074D01*
X11805500Y1747788D01*
X12119786Y1576360D02*
X12091214Y1590645D01*
X12076928Y1604931D01*
X12062643Y1633503D01*
X12062643Y1719217D01*
X12076928Y1747788D01*
X12091214Y1762074D01*
X12119786Y1776360D01*
X12162643Y1776360D01*
X12191214Y1762074D01*
X12205500Y1747788D01*
X12219786Y1719217D01*
X12219786Y1633503D01*
X12205500Y1604931D01*
X12191214Y1590645D01*
X12162643Y1576360D01*
X12119786Y1576360D01*
X12391214Y1576360D02*
X12362643Y1590645D01*
X12348357Y1619217D01*
X12348357Y1876360D01*
X12619786Y1590645D02*
X12591214Y1576360D01*
X12534071Y1576360D01*
X12505500Y1590645D01*
X12491214Y1619217D01*
X12491214Y1733503D01*
X12505500Y1762074D01*
X12534071Y1776360D01*
X12591214Y1776360D01*
X12619786Y1762074D01*
X12634071Y1733503D01*
X12634071Y1704931D01*
X12491214Y1676360D01*
X12748357Y1590645D02*
X12776928Y1576360D01*
X12834071Y1576360D01*
X12862643Y1590645D01*
X12876928Y1619217D01*
X12876928Y1633503D01*
X12862643Y1662074D01*
X12834071Y1676360D01*
X12791214Y1676360D01*
X12762643Y1690645D01*
X12748357Y1719217D01*
X12748357Y1733503D01*
X12762643Y1762074D01*
X12791214Y1776360D01*
X12834071Y1776360D01*
X12862643Y1762074D01*
X12976928Y1462074D02*
X12991214Y1476360D01*
X13019786Y1519217D01*
X13034071Y1547788D01*
X13048357Y1590645D01*
X13062643Y1662074D01*
X13062643Y1719217D01*
X13048357Y1790645D01*
X13034071Y1833503D01*
X13019786Y1862074D01*
X12991214Y1904931D01*
X12976928Y1919217D01*
X13519786Y1462074D02*
X13505500Y1476360D01*
X13476928Y1519217D01*
X13462643Y1547788D01*
X13448357Y1590645D01*
X13434071Y1662074D01*
X13434071Y1719217D01*
X13448357Y1790645D01*
X13462643Y1833503D01*
X13476928Y1862074D01*
X13505500Y1904931D01*
X13519786Y1919217D01*
X13634071Y1776360D02*
X13634071Y1576360D01*
X13634071Y1747788D02*
X13648357Y1762074D01*
X13676928Y1776360D01*
X13719786Y1776360D01*
X13748357Y1762074D01*
X13762643Y1733503D01*
X13762643Y1576360D01*
X13948357Y1576360D02*
X13919786Y1590645D01*
X13905500Y1604931D01*
X13891214Y1633503D01*
X13891214Y1719217D01*
X13905500Y1747788D01*
X13919786Y1762074D01*
X13948357Y1776360D01*
X13991214Y1776360D01*
X14019786Y1762074D01*
X14034071Y1747788D01*
X14048357Y1719217D01*
X14048357Y1633503D01*
X14034071Y1604931D01*
X14019786Y1590645D01*
X13991214Y1576360D01*
X13948357Y1576360D01*
X14134071Y1776360D02*
X14248357Y1776360D01*
X14176928Y1876360D02*
X14176928Y1619217D01*
X14191214Y1590645D01*
X14219786Y1576360D01*
X14248357Y1576360D01*
X14576928Y1776360D02*
X14576928Y1476360D01*
X14576928Y1762074D02*
X14605500Y1776360D01*
X14662643Y1776360D01*
X14691214Y1762074D01*
X14705500Y1747788D01*
X14719786Y1719217D01*
X14719786Y1633503D01*
X14705500Y1604931D01*
X14691214Y1590645D01*
X14662643Y1576360D01*
X14605500Y1576360D01*
X14576928Y1590645D01*
X14891214Y1576360D02*
X14862643Y1590645D01*
X14848357Y1619217D01*
X14848357Y1876360D01*
X15134071Y1576360D02*
X15134071Y1733503D01*
X15119786Y1762074D01*
X15091214Y1776360D01*
X15034071Y1776360D01*
X15005500Y1762074D01*
X15134071Y1590645D02*
X15105500Y1576360D01*
X15034071Y1576360D01*
X15005500Y1590645D01*
X14991214Y1619217D01*
X14991214Y1647788D01*
X15005500Y1676360D01*
X15034071Y1690645D01*
X15105500Y1690645D01*
X15134071Y1704931D01*
X15234071Y1776360D02*
X15348357Y1776360D01*
X15276928Y1876360D02*
X15276928Y1619217D01*
X15291214Y1590645D01*
X15319786Y1576360D01*
X15348357Y1576360D01*
X15562643Y1590645D02*
X15534071Y1576360D01*
X15476928Y1576360D01*
X15448357Y1590645D01*
X15434071Y1619217D01*
X15434071Y1733503D01*
X15448357Y1762074D01*
X15476928Y1776360D01*
X15534071Y1776360D01*
X15562643Y1762074D01*
X15576928Y1733503D01*
X15576928Y1704931D01*
X15434071Y1676360D01*
X15834071Y1576360D02*
X15834071Y1876360D01*
X15834071Y1590645D02*
X15805500Y1576360D01*
X15748357Y1576360D01*
X15719786Y1590645D01*
X15705500Y1604931D01*
X15691214Y1633503D01*
X15691214Y1719217D01*
X15705500Y1747788D01*
X15719786Y1762074D01*
X15748357Y1776360D01*
X15805500Y1776360D01*
X15834071Y1762074D01*
X15948357Y1462074D02*
X15962643Y1476360D01*
X15991214Y1519217D01*
X16005500Y1547788D01*
X16019786Y1590645D01*
X16034071Y1662074D01*
X16034071Y1719217D01*
X16019786Y1790645D01*
X16005500Y1833503D01*
X15991214Y1862074D01*
X15962643Y1904931D01*
X15948357Y1919217D01*
X6243000Y935794D02*
X6490500Y1183294D01*
X6243000Y1430794D01*
X5995500Y1183294D01*
X6243000Y935794D01*
X6905500Y1247580D02*
X6905500Y1047580D01*
X6834071Y1361866D02*
X6762643Y1147580D01*
X6948357Y1147580D01*
X7062643Y1076151D02*
X7076928Y1061866D01*
X7062643Y1047580D01*
X7048357Y1061866D01*
X7062643Y1076151D01*
X7062643Y1047580D01*
X7219786Y1047580D02*
X7276928Y1047580D01*
X7305500Y1061866D01*
X7319786Y1076151D01*
X7348357Y1119008D01*
X7362643Y1176151D01*
X7362643Y1290437D01*
X7348357Y1319008D01*
X7334071Y1333294D01*
X7305500Y1347580D01*
X7248357Y1347580D01*
X7219786Y1333294D01*
X7205500Y1319008D01*
X7191214Y1290437D01*
X7191214Y1219008D01*
X7205500Y1190437D01*
X7219786Y1176151D01*
X7248357Y1161866D01*
X7305500Y1161866D01*
X7334071Y1176151D01*
X7348357Y1190437D01*
X7362643Y1219008D01*
X7634071Y1347580D02*
X7491214Y1347580D01*
X7476928Y1204723D01*
X7491214Y1219008D01*
X7519786Y1233294D01*
X7591214Y1233294D01*
X7619786Y1219008D01*
X7634071Y1204723D01*
X7648357Y1176151D01*
X7648357Y1104723D01*
X7634071Y1076151D01*
X7619786Y1061866D01*
X7591214Y1047580D01*
X7519786Y1047580D01*
X7491214Y1061866D01*
X7476928Y1076151D01*
X7776928Y1047580D02*
X7776928Y1247580D01*
X7776928Y1219008D02*
X7791214Y1233294D01*
X7819786Y1247580D01*
X7862643Y1247580D01*
X7891214Y1233294D01*
X7905500Y1204723D01*
X7905500Y1047580D01*
X7905500Y1204723D02*
X7919786Y1233294D01*
X7948357Y1247580D01*
X7991214Y1247580D01*
X8019786Y1233294D01*
X8034071Y1204723D01*
X8034071Y1047580D01*
X8176928Y1047580D02*
X8176928Y1247580D01*
X8176928Y1219008D02*
X8191214Y1233294D01*
X8219786Y1247580D01*
X8262643Y1247580D01*
X8291214Y1233294D01*
X8305500Y1204723D01*
X8305500Y1047580D01*
X8305500Y1204723D02*
X8319786Y1233294D01*
X8348357Y1247580D01*
X8391214Y1247580D01*
X8419786Y1233294D01*
X8434071Y1204723D01*
X8434071Y1047580D01*
X9019786Y1361866D02*
X8762643Y976151D01*
X9405500Y1347580D02*
X9434071Y1347580D01*
X9462643Y1333294D01*
X9476928Y1319008D01*
X9491214Y1290437D01*
X9505500Y1233294D01*
X9505500Y1161866D01*
X9491214Y1104723D01*
X9476928Y1076151D01*
X9462643Y1061866D01*
X9434071Y1047580D01*
X9405500Y1047580D01*
X9376928Y1061866D01*
X9362643Y1076151D01*
X9348357Y1104723D01*
X9334071Y1161866D01*
X9334071Y1233294D01*
X9348357Y1290437D01*
X9362643Y1319008D01*
X9376928Y1333294D01*
X9405500Y1347580D01*
X9634071Y1076151D02*
X9648357Y1061866D01*
X9634071Y1047580D01*
X9619786Y1061866D01*
X9634071Y1076151D01*
X9634071Y1047580D01*
X9934071Y1047580D02*
X9762643Y1047580D01*
X9848357Y1047580D02*
X9848357Y1347580D01*
X9819786Y1304723D01*
X9791214Y1276151D01*
X9762643Y1261866D01*
X10076928Y1047580D02*
X10134071Y1047580D01*
X10162643Y1061866D01*
X10176928Y1076151D01*
X10205500Y1119008D01*
X10219786Y1176151D01*
X10219786Y1290437D01*
X10205500Y1319008D01*
X10191214Y1333294D01*
X10162643Y1347580D01*
X10105500Y1347580D01*
X10076928Y1333294D01*
X10062643Y1319008D01*
X10048357Y1290437D01*
X10048357Y1219008D01*
X10062643Y1190437D01*
X10076928Y1176151D01*
X10105500Y1161866D01*
X10162643Y1161866D01*
X10191214Y1176151D01*
X10205500Y1190437D01*
X10219786Y1219008D01*
X10491214Y1347580D02*
X10348357Y1347580D01*
X10334071Y1204723D01*
X10348357Y1219008D01*
X10376928Y1233294D01*
X10448357Y1233294D01*
X10476928Y1219008D01*
X10491214Y1204723D01*
X10505500Y1176151D01*
X10505500Y1104723D01*
X10491214Y1076151D01*
X10476928Y1061866D01*
X10448357Y1047580D01*
X10376928Y1047580D01*
X10348357Y1061866D01*
X10334071Y1076151D01*
X10619786Y1347580D02*
X10619786Y1290437D01*
X10734071Y1347580D02*
X10734071Y1290437D01*
X11176928Y933294D02*
X11162643Y947580D01*
X11134071Y990437D01*
X11119786Y1019008D01*
X11105500Y1061866D01*
X11091214Y1133294D01*
X11091214Y1190437D01*
X11105500Y1261866D01*
X11119786Y1304723D01*
X11134071Y1333294D01*
X11162643Y1376151D01*
X11176928Y1390437D01*
X11419786Y1347580D02*
X11362643Y1347580D01*
X11334071Y1333294D01*
X11319786Y1319008D01*
X11291214Y1276151D01*
X11276928Y1219008D01*
X11276928Y1104723D01*
X11291214Y1076151D01*
X11305500Y1061866D01*
X11334071Y1047580D01*
X11391214Y1047580D01*
X11419786Y1061866D01*
X11434071Y1076151D01*
X11448357Y1104723D01*
X11448357Y1176151D01*
X11434071Y1204723D01*
X11419786Y1219008D01*
X11391214Y1233294D01*
X11334071Y1233294D01*
X11305500Y1219008D01*
X11291214Y1204723D01*
X11276928Y1176151D01*
X11805500Y1047580D02*
X11805500Y1347580D01*
X11934071Y1047580D02*
X11934071Y1204723D01*
X11919786Y1233294D01*
X11891214Y1247580D01*
X11848357Y1247580D01*
X11819786Y1233294D01*
X11805500Y1219008D01*
X12119786Y1047580D02*
X12091214Y1061866D01*
X12076928Y1076151D01*
X12062643Y1104723D01*
X12062643Y1190437D01*
X12076928Y1219008D01*
X12091214Y1233294D01*
X12119786Y1247580D01*
X12162643Y1247580D01*
X12191214Y1233294D01*
X12205500Y1219008D01*
X12219786Y1190437D01*
X12219786Y1104723D01*
X12205500Y1076151D01*
X12191214Y1061866D01*
X12162643Y1047580D01*
X12119786Y1047580D01*
X12391214Y1047580D02*
X12362643Y1061866D01*
X12348357Y1090437D01*
X12348357Y1347580D01*
X12619786Y1061866D02*
X12591214Y1047580D01*
X12534071Y1047580D01*
X12505500Y1061866D01*
X12491214Y1090437D01*
X12491214Y1204723D01*
X12505500Y1233294D01*
X12534071Y1247580D01*
X12591214Y1247580D01*
X12619786Y1233294D01*
X12634071Y1204723D01*
X12634071Y1176151D01*
X12491214Y1147580D01*
X12748357Y1061866D02*
X12776928Y1047580D01*
X12834071Y1047580D01*
X12862643Y1061866D01*
X12876928Y1090437D01*
X12876928Y1104723D01*
X12862643Y1133294D01*
X12834071Y1147580D01*
X12791214Y1147580D01*
X12762643Y1161866D01*
X12748357Y1190437D01*
X12748357Y1204723D01*
X12762643Y1233294D01*
X12791214Y1247580D01*
X12834071Y1247580D01*
X12862643Y1233294D01*
X12976928Y933294D02*
X12991214Y947580D01*
X13019786Y990437D01*
X13034071Y1019008D01*
X13048357Y1061866D01*
X13062643Y1133294D01*
X13062643Y1190437D01*
X13048357Y1261866D01*
X13034071Y1304723D01*
X13019786Y1333294D01*
X12991214Y1376151D01*
X12976928Y1390437D01*
X13519786Y933294D02*
X13505500Y947580D01*
X13476928Y990437D01*
X13462643Y1019008D01*
X13448357Y1061866D01*
X13434071Y1133294D01*
X13434071Y1190437D01*
X13448357Y1261866D01*
X13462643Y1304723D01*
X13476928Y1333294D01*
X13505500Y1376151D01*
X13519786Y1390437D01*
X13634071Y1247580D02*
X13634071Y1047580D01*
X13634071Y1219008D02*
X13648357Y1233294D01*
X13676928Y1247580D01*
X13719786Y1247580D01*
X13748357Y1233294D01*
X13762643Y1204723D01*
X13762643Y1047580D01*
X13948357Y1047580D02*
X13919786Y1061866D01*
X13905500Y1076151D01*
X13891214Y1104723D01*
X13891214Y1190437D01*
X13905500Y1219008D01*
X13919786Y1233294D01*
X13948357Y1247580D01*
X13991214Y1247580D01*
X14019786Y1233294D01*
X14034071Y1219008D01*
X14048357Y1190437D01*
X14048357Y1104723D01*
X14034071Y1076151D01*
X14019786Y1061866D01*
X13991214Y1047580D01*
X13948357Y1047580D01*
X14134071Y1247580D02*
X14248357Y1247580D01*
X14176928Y1347580D02*
X14176928Y1090437D01*
X14191214Y1061866D01*
X14219786Y1047580D01*
X14248357Y1047580D01*
X14576928Y1247580D02*
X14576928Y947580D01*
X14576928Y1233294D02*
X14605500Y1247580D01*
X14662643Y1247580D01*
X14691214Y1233294D01*
X14705500Y1219008D01*
X14719786Y1190437D01*
X14719786Y1104723D01*
X14705500Y1076151D01*
X14691214Y1061866D01*
X14662643Y1047580D01*
X14605500Y1047580D01*
X14576928Y1061866D01*
X14891214Y1047580D02*
X14862643Y1061866D01*
X14848357Y1090437D01*
X14848357Y1347580D01*
X15134071Y1047580D02*
X15134071Y1204723D01*
X15119786Y1233294D01*
X15091214Y1247580D01*
X15034071Y1247580D01*
X15005500Y1233294D01*
X15134071Y1061866D02*
X15105500Y1047580D01*
X15034071Y1047580D01*
X15005500Y1061866D01*
X14991214Y1090437D01*
X14991214Y1119008D01*
X15005500Y1147580D01*
X15034071Y1161866D01*
X15105500Y1161866D01*
X15134071Y1176151D01*
X15234071Y1247580D02*
X15348357Y1247580D01*
X15276928Y1347580D02*
X15276928Y1090437D01*
X15291214Y1061866D01*
X15319786Y1047580D01*
X15348357Y1047580D01*
X15562643Y1061866D02*
X15534071Y1047580D01*
X15476928Y1047580D01*
X15448357Y1061866D01*
X15434071Y1090437D01*
X15434071Y1204723D01*
X15448357Y1233294D01*
X15476928Y1247580D01*
X15534071Y1247580D01*
X15562643Y1233294D01*
X15576928Y1204723D01*
X15576928Y1176151D01*
X15434071Y1147580D01*
X15834071Y1047580D02*
X15834071Y1347580D01*
X15834071Y1061866D02*
X15805500Y1047580D01*
X15748357Y1047580D01*
X15719786Y1061866D01*
X15705500Y1076151D01*
X15691214Y1104723D01*
X15691214Y1190437D01*
X15705500Y1219008D01*
X15719786Y1233294D01*
X15748357Y1247580D01*
X15805500Y1247580D01*
X15834071Y1233294D01*
X15948357Y933294D02*
X15962643Y947580D01*
X15991214Y990437D01*
X16005500Y1019008D01*
X16019786Y1061866D01*
X16034071Y1133294D01*
X16034071Y1190437D01*
X16019786Y1261866D01*
X16005500Y1304723D01*
X15991214Y1333294D01*
X15962643Y1376151D01*
X15948357Y1390437D01*
M02*
